<svg width="182" height="65" viewBox="0 0 182 65" fill="none" xmlns="http://www.w3.org/2000/svg">
<path d="M3.74001 0.850098L3.66504 0.920949C3.70671 0.900116 3.73584 0.879264 3.74001 0.850098Z" fill="#ACDE45"/>
<path d="M7.77832 7.59184C7.77832 7.59184 7.79079 7.59183 7.79912 7.5835C7.79079 7.5835 7.78249 7.5835 7.77832 7.59184Z" fill="#ACDE45"/>
<path d="M0.856927 1.75861C0.936093 2.21278 0.586132 2.51278 0.948632 2.85445C1.0153 3.07111 1.21529 3.23776 1.36113 3.40442C1.71946 3.33776 1.49444 3.65861 1.81111 3.62944L1.65694 3.76275C1.76528 3.75442 1.84862 3.76279 1.77362 3.85446L1.71946 3.87943C1.88196 3.86693 1.83611 3.97113 1.91528 3.96279L1.86111 3.98777L1.91945 4.04194L1.8403 4.07113C2.03197 4.09196 2.09445 4.18777 2.07778 4.30861L2.28612 4.18776C2.14862 4.50026 2.62778 4.32942 2.43611 4.65025L2.38194 4.67528C3.05277 4.57528 2.19026 5.2211 2.84026 5.13777C2.7611 5.15027 2.74027 5.21277 2.6861 5.23777C2.80277 5.30443 2.89443 5.39195 3.30693 5.15445C3.34026 5.22945 3.21111 5.28776 3.06111 5.38776C3.24028 5.28359 3.34863 5.30027 3.39446 5.35027L3.3111 5.36696L3.46526 5.48776L3.78611 5.25862C3.74027 5.40029 3.3861 5.5211 3.51526 5.55444L3.79445 5.38776C3.80695 5.53359 3.4278 5.85445 3.2903 6.09195C3.45696 6.64195 4.46945 6.68777 4.26945 7.42527L4.0778 7.57943C3.78614 7.7836 4.59446 7.40862 4.33196 7.60446L4.50276 7.56275C4.46109 7.61275 4.42364 7.67945 4.3403 7.70028C4.36114 7.75445 4.40694 7.72111 4.51944 7.69611L4.36945 7.86696C4.34862 8.14196 4.8028 8.05858 4.86114 8.29192C4.64864 8.77525 5.2861 8.96278 5.65693 9.05445C6.3236 9.07111 5.48611 10.3086 6.23611 10.2794C6.20694 10.3211 6.31528 10.2795 6.34862 10.2545L6.55278 10.5919C6.55278 10.5919 6.8236 10.9836 7.26943 10.9961C7.71527 11.0128 8.31113 10.6253 9.02363 9.16696L9.09026 9.12525C9.1111 8.85025 9.06526 8.72946 8.6736 8.8628C9.0361 8.54613 8.61113 8.70443 8.70279 8.5711L8.73611 8.5503C8.36944 8.67946 8.82362 8.16695 8.49029 8.27528C8.52362 8.25445 8.62779 8.17525 8.65279 8.19192C8.55279 8.16275 8.39864 8.13361 8.61531 7.95861C8.43614 7.84195 8.3653 7.54195 7.93197 7.70028L7.9986 7.6628C7.7111 7.77946 7.90693 7.61277 7.73193 7.6336C7.75693 7.6086 7.76948 7.59194 7.78198 7.5836C7.49448 7.69194 7.6028 7.41695 7.46113 7.44195L7.60696 7.32944L7.47777 7.22528V7.29613C7.05277 7.57529 7.66944 7.00859 7.33194 7.10443C7.32361 6.97943 6.33614 7.52946 6.47364 7.29196C6.24447 7.38362 6.81946 7.10858 6.61946 7.14608C6.83613 6.99192 6.7778 7.08359 6.9403 6.94609C6.7903 6.95026 7.08613 6.68361 6.88196 6.70444L7.04864 6.58359C6.6653 6.69193 7.13614 6.22946 6.79031 6.3628C6.57364 6.34613 7.24863 5.94609 6.83613 6.05859L7.0403 5.8586C7.04446 5.7836 6.73194 6.01279 6.80694 5.88362C6.95694 5.78779 6.8778 5.73779 7.0403 5.67529C7.1903 5.40029 6.54863 5.63775 6.83613 5.22525C6.52363 5.37525 6.64446 5.18361 6.41113 5.29611C6.53196 5.21277 6.32778 5.11694 6.66112 5.03777C6.69028 5.02944 6.69443 5.05026 6.64443 5.07943L6.82362 4.98361C7.09029 4.68777 6.54031 4.92942 6.53198 4.80442C6.49031 4.86692 6.53194 4.89612 6.39444 4.94612L6.3653 4.84612L6.52363 4.77527V4.59608L6.36113 4.72527C6.41529 4.60444 6.70696 4.39613 6.40696 4.48363C6.24446 4.53779 6.19863 4.69193 6.1028 4.65859C6.17363 4.50026 6.28609 4.25862 6.27359 4.11696C6.07359 4.25029 6.0653 4.21695 6.00697 4.21278L6.18194 4.10445C5.86527 4.13778 6.54861 3.82944 6.28611 3.8336L6.4153 3.77109L6.0236 3.96279C5.60694 4.06696 6.3611 3.69196 5.8111 3.85863C5.86943 3.88779 5.42779 4.10862 5.47363 4.00862L5.65276 3.92109C5.5986 3.91275 5.51943 3.94195 5.54443 3.90028C5.64859 3.86695 5.8028 3.76277 5.74447 3.73361L5.97778 3.63778L5.61111 3.73361C5.75694 3.55861 5.4653 3.58777 5.69447 3.42111C5.69447 3.42111 5.73193 3.20862 5.44443 3.32945C5.62776 3.26278 5.64859 3.15028 5.85693 3.06278C5.64443 3.13361 5.43194 3.1086 5.60694 2.95027H5.63613C5.7528 2.6711 5.19863 2.82111 5.36946 2.53777C5.16113 2.65861 5.2361 2.51693 4.9736 2.6836C4.6236 2.6711 5.37776 2.10862 4.50693 2.49612C4.4236 2.45028 4.66112 2.30858 4.68612 2.25025L4.74029 2.24196C4.60279 2.14612 4.57363 2.11276 4.5403 2.00443C4.43196 1.9961 4.03609 2.18776 4.08609 2.05026C4.25693 2.00026 4.2111 1.97942 4.19443 1.94609C4.22776 1.95442 4.29029 1.93359 4.37362 1.83775C4.32362 1.85442 4.28611 1.86278 4.25694 1.86695C4.26944 1.85861 4.27776 1.85443 4.29443 1.84609C4.21109 1.81693 4.16944 1.85025 4.15694 1.88775C4.13194 1.90025 4.10279 1.91692 4.06529 1.94609C4.24029 1.78776 3.96947 1.79194 4.23614 1.65027C4.0903 1.51277 3.74861 1.52944 3.57777 1.43777C3.71111 1.35444 3.84864 1.32944 3.92364 1.34194L3.82364 1.26692C4.02364 1.17109 3.9653 1.26693 4.01946 1.27943C4.28613 1.00443 3.5778 1.18776 3.81113 0.908594L3.63611 0.954421L3.65697 0.933618C3.57363 0.975285 3.44448 0.99612 3.40698 0.987787C3.57364 0.88362 3.81114 0.800293 3.76947 0.733626C3.91114 0.600293 3.61112 0.616919 3.48612 0.587752C3.47362 0.641919 3.36948 0.671128 3.30281 0.683628C3.28198 0.650295 3.4486 0.550275 3.3611 0.558608L3.59863 0.4461C3.38196 0.562767 3.31527 0.466931 3.2111 0.496098C3.37777 0.396098 3.3861 0.479417 3.5236 0.429417C3.4361 0.30025 3.48196 0.362763 3.39446 0.233596C3.18196 0.237763 3.1736 0.350281 2.9486 0.408614C2.8736 0.362781 2.6736 0.371092 2.7861 0.229425L2.5861 0.346104C2.36527 0.291937 2.35694 0.204429 2.53611 0.0252625C1.46111 -0.0705708 0.840262 0.121108 0.494429 0.350275C0.148595 0.579441 0.073642 0.846084 0.073642 0.846084C-0.230525 1.44608 0.481927 1.37945 0.856927 1.76278V1.75861Z" fill="#ACDE45"/>
<path d="M16.4123 16.3213L16.3789 16.4171C16.4039 16.3796 16.4206 16.3463 16.4123 16.3213Z" fill="#ACDE45"/>
<path d="M23.0996 20.5586C23.0996 20.5586 23.108 20.5503 23.1163 20.542C23.108 20.5461 23.1038 20.5503 23.0996 20.5586Z" fill="#ACDE45"/>
<path d="M15.4916 19.6919C15.4916 19.6919 15.479 19.7002 15.4707 19.7044L15.4916 19.6919Z" fill="#ACDE45"/>
<path d="M14.2828 18.4671C14.562 18.8296 14.3911 19.263 14.8703 19.3921C15.0286 19.5505 15.2787 19.6088 15.487 19.688C15.7745 19.463 15.7203 19.8463 15.9911 19.6755L15.9161 19.8671C16.0078 19.8088 16.087 19.7797 16.0578 19.8922L16.0245 19.938C16.162 19.8505 16.1661 19.963 16.237 19.9213L16.1995 19.9671L16.2744 19.988L16.2162 20.0505C16.3953 19.9797 16.4953 20.0338 16.5328 20.1505L16.662 19.9463C16.6828 20.288 17.0286 19.9171 17.0036 20.288L16.9703 20.3338C17.5203 19.938 17.0453 20.9046 17.5828 20.5338C17.5161 20.5796 17.5245 20.6463 17.4911 20.6921C17.6245 20.6963 17.7453 20.7338 18.0036 20.338C18.0703 20.388 17.9787 20.5005 17.887 20.6588C17.9995 20.4838 18.1078 20.4505 18.1661 20.4755L18.0994 20.5255L18.2911 20.563L18.4745 20.213C18.4953 20.3588 18.237 20.6296 18.3661 20.6005L18.5411 20.3254C18.6203 20.4504 18.4203 20.9088 18.4037 21.1838C18.7953 21.5921 19.7203 21.1838 19.8578 21.9338L19.7537 22.1546C19.5828 22.4671 20.1411 21.7713 19.9911 22.063L20.1245 21.9505C20.1078 22.013 20.1036 22.0921 20.037 22.1463C20.0786 22.1838 20.1078 22.138 20.1953 22.063L20.1328 22.2838C20.2328 22.5421 20.6036 22.263 20.7578 22.4463C20.7703 22.9755 21.4244 22.863 21.7953 22.788C22.4036 22.513 22.162 23.9922 22.8245 23.6463C22.812 23.6963 22.8953 23.613 22.9161 23.5755L23.237 23.7963C23.237 23.7963 23.6411 24.0379 24.0495 23.8671C24.462 23.6963 24.8536 23.1088 24.9036 21.4796L24.9453 21.413C24.8495 21.1547 24.7536 21.063 24.4536 21.3463C24.6536 20.9088 24.3286 21.2255 24.3578 21.0671L24.3786 21.0338C24.0995 21.3046 24.2953 20.6463 24.0369 20.8838C24.0578 20.8505 24.1203 20.7379 24.1495 20.7421C24.0453 20.7546 23.8911 20.7963 24.0161 20.5463C23.7995 20.513 23.6078 20.2671 23.2828 20.5963L23.3286 20.5338C23.1203 20.7629 23.2203 20.5255 23.0745 20.6213C23.087 20.588 23.0911 20.5671 23.0994 20.5546C22.8869 20.7755 22.8661 20.4796 22.7495 20.5588L22.8328 20.3963L22.6703 20.3546L22.7036 20.4172C22.437 20.8505 22.7495 20.0797 22.487 20.3088C22.4203 20.2005 21.7745 21.1213 21.7912 20.8463C21.6245 21.0254 22.0245 20.5338 21.862 20.6505C21.9911 20.4171 21.9786 20.5255 22.0619 20.3296C21.9286 20.4005 22.0786 20.0296 21.9036 20.1338L22.0036 19.9505C21.7036 20.213 21.9286 19.5921 21.6703 19.863C21.4703 19.9421 21.8995 19.288 21.5787 19.5671L21.6745 19.3005C21.6453 19.2296 21.4662 19.5755 21.4745 19.4255C21.5662 19.2755 21.4744 19.263 21.5911 19.138C21.6036 18.8255 21.1328 19.3213 21.2036 18.8213C20.9911 19.0921 21.012 18.8672 20.8495 19.0713C20.9203 18.9422 20.6912 18.9505 20.9537 18.7296C20.9745 18.713 20.987 18.7255 20.9537 18.7755L21.0703 18.6088C21.1744 18.2255 20.787 18.6838 20.7245 18.5755C20.7161 18.6505 20.762 18.6588 20.6661 18.7629L20.5953 18.6838L20.7036 18.5505L20.6286 18.3838L20.537 18.5755C20.5287 18.4421 20.6995 18.1255 20.4703 18.3338C20.3495 18.4547 20.3787 18.613 20.2787 18.6296C20.2703 18.4546 20.2578 18.1922 20.1869 18.0713C20.0703 18.2797 20.0453 18.2546 19.9911 18.2755L20.0995 18.1005C19.8328 18.2713 20.3036 17.688 20.0661 17.813L20.1536 17.6963L19.8911 18.0421C19.5661 18.3213 20.0703 17.6463 19.6537 18.0421C19.7162 18.0421 19.4286 18.438 19.4203 18.3297L19.5411 18.1713C19.487 18.188 19.4328 18.2505 19.4328 18.2046C19.5078 18.1255 19.5995 17.9672 19.537 17.9672L19.7037 17.7755L19.4203 18.0297C19.4745 17.8088 19.2244 17.963 19.3494 17.713C19.3494 17.713 19.287 17.5046 19.0828 17.7421C19.2162 17.6005 19.1786 17.488 19.3286 17.3171C19.1745 17.4755 18.9661 17.5505 19.0536 17.3296L19.0745 17.313C19.0536 17.013 18.6286 17.4005 18.6495 17.0671C18.5203 17.2713 18.5203 17.113 18.3661 17.3755C18.0453 17.5255 18.4578 16.6796 17.862 17.4213C17.7661 17.4171 17.912 17.1838 17.9078 17.1213L17.9536 17.0922C17.787 17.0672 17.7453 17.0505 17.6661 16.9713C17.5661 17.013 17.3036 17.3671 17.2828 17.2213C17.412 17.0963 17.3578 17.1005 17.3286 17.0797C17.3661 17.0713 17.4078 17.0255 17.437 16.9005C17.3995 16.9421 17.3703 16.963 17.3453 16.9797C17.3536 16.9672 17.3578 16.9588 17.3703 16.9421C17.2828 16.9546 17.2619 17.0046 17.2703 17.0421C17.2536 17.0629 17.2369 17.0922 17.2161 17.138C17.2953 16.9172 17.062 17.0421 17.2286 16.7963C17.037 16.7421 16.7411 16.913 16.5453 16.913C16.6245 16.7796 16.7328 16.688 16.8078 16.6672L16.687 16.6463C16.8203 16.4671 16.8161 16.5797 16.8661 16.5672C16.9745 16.2005 16.4328 16.6921 16.5078 16.3338L16.3745 16.4547L16.3828 16.4255C16.3286 16.5005 16.2245 16.5796 16.187 16.5921C16.287 16.4255 16.4578 16.238 16.3911 16.2005C16.4578 16.0172 16.1953 16.1713 16.0703 16.2047C16.0828 16.2588 16.0078 16.3338 15.9495 16.3755C15.9161 16.3588 16.0161 16.188 15.9411 16.238L16.0995 16.0296C15.962 16.2338 15.8578 16.1797 15.7786 16.2547C15.8786 16.088 15.9286 16.1588 16.0245 16.0505C15.887 15.9755 15.9578 16.013 15.8203 15.938C15.6328 16.0422 15.6786 16.1422 15.5078 16.3005C15.4203 16.2963 15.2495 16.3963 15.2787 16.2213L15.1578 16.4213C14.937 16.4796 14.887 16.4046 14.962 16.163C13.9661 16.5796 13.5078 17.038 13.3078 17.4047C13.1078 17.7713 13.1661 18.0421 13.1661 18.0421C13.1786 18.713 13.7787 18.3213 14.287 18.488L14.2828 18.4671Z" fill="#ACDE45"/>
<path d="M34.5234 25.5132V25.6132C34.5359 25.5715 34.5401 25.534 34.5234 25.5132Z" fill="#ACDE45"/>
<path d="M42.2197 27.7588C42.2197 27.7588 42.2281 27.7463 42.2322 27.738C42.2239 27.7421 42.2239 27.7505 42.2197 27.7588Z" fill="#ACDE45"/>
<path d="M34.6817 29.0005C34.6817 29.0005 34.6734 29.013 34.665 29.0213L34.6817 29.0005Z" fill="#ACDE45"/>
<path d="M33.1863 28.2214C33.5613 28.4756 33.528 28.9381 34.0155 28.9089C34.2113 29.0131 34.4613 28.9839 34.6779 29.0006C34.8821 28.6964 34.9446 29.0797 35.1488 28.8381L35.1321 29.0422C35.2029 28.9589 35.2696 28.9089 35.2738 29.0256L35.2529 29.0797C35.3571 28.9547 35.3946 29.0631 35.4488 29.0006L35.428 29.0548H35.5071L35.4696 29.1297C35.6196 29.0089 35.728 29.0297 35.7988 29.1297L35.8613 28.8964C35.9779 29.2173 36.1988 28.7589 36.2821 29.1214L36.2613 29.1756C36.6738 28.6339 36.4904 29.7006 36.8988 29.1922C36.8488 29.2547 36.8738 29.3131 36.8571 29.3714C36.9821 29.3381 37.1071 29.3381 37.2446 28.8839C37.3196 28.9131 37.2654 29.0464 37.2238 29.2214C37.2821 29.0214 37.3738 28.9589 37.4404 28.9631L37.3904 29.0297L37.5863 29.0131L37.6655 28.6256C37.7238 28.7589 37.553 29.0922 37.6655 29.0256L37.7571 28.7131C37.8654 28.8131 37.8029 29.3048 37.8571 29.5714C38.3363 29.8548 39.1113 29.2131 39.4405 29.9006L39.3946 30.1423C39.3071 30.4881 39.6696 29.6714 39.5988 29.9923L39.6988 29.8506C39.6988 29.9173 39.7113 29.9923 39.6654 30.0589C39.7154 30.0881 39.7321 30.0298 39.7946 29.9381V30.1672C39.9488 30.3881 40.2363 30.0256 40.428 30.1672C40.5696 30.6756 41.1654 30.4006 41.5029 30.2381C42.0279 29.8256 42.1363 31.3173 42.6904 30.8256C42.6904 30.8798 42.753 30.7756 42.7613 30.7381L43.1196 30.8798C43.1196 30.8798 43.5613 31.0214 43.9155 30.7631C44.2738 30.5047 44.5363 29.8422 44.2113 28.2464L44.2363 28.1756C44.0821 27.9423 43.9696 27.8756 43.7363 28.2214C43.8279 27.7506 43.5863 28.1339 43.5738 27.9714L43.5863 27.9339C43.3779 28.2631 43.4113 27.5756 43.2154 27.8673C43.2279 27.8298 43.2655 27.7048 43.2905 27.7048C43.1905 27.7423 43.0488 27.8173 43.1113 27.5464C42.8904 27.5673 42.6405 27.3714 42.403 27.7673L42.4321 27.6964C42.2821 27.9673 42.3238 27.7131 42.203 27.8422C42.2071 27.8047 42.2029 27.7881 42.2113 27.7714C42.0571 28.0381 41.9654 27.7548 41.8696 27.8589L41.9113 27.6797H41.7405L41.7905 27.7339C41.6405 28.2214 41.7488 27.3922 41.5488 27.6839C41.4571 27.5922 41.0571 28.6464 41.0071 28.3756C40.8905 28.5923 41.1529 28.0131 41.0279 28.1714C41.0946 27.9131 41.1071 28.0214 41.1404 27.8089C41.0279 27.9089 41.0821 27.5131 40.9363 27.6589L40.9863 27.4589C40.7613 27.7881 40.8196 27.1297 40.6405 27.4589C40.4655 27.5881 40.7155 26.8423 40.4738 27.1964L40.4946 26.9131C40.4488 26.8548 40.3613 27.2339 40.3321 27.0839C40.3821 26.9131 40.2863 26.9256 40.3696 26.7756C40.2988 26.4714 39.9696 27.0714 39.903 26.5673C39.7696 26.8839 39.7279 26.6631 39.6279 26.9006C39.6654 26.7547 39.4405 26.8214 39.6363 26.5422C39.653 26.5172 39.6696 26.5297 39.6488 26.5839L39.7154 26.3923C39.7154 25.9923 39.4613 26.5381 39.3696 26.4506C39.3821 26.5256 39.4321 26.5214 39.3654 26.6464L39.2738 26.5922L39.3405 26.4339L39.2196 26.2964L39.1821 26.5048C39.1405 26.3798 39.2154 26.0256 39.0488 26.2923C38.9654 26.4423 39.0404 26.5881 38.9446 26.6297C38.8863 26.4631 38.8029 26.2131 38.6946 26.1131C38.6404 26.3464 38.6071 26.3256 38.5613 26.3631L38.6155 26.1631C38.403 26.4006 38.6946 25.7131 38.503 25.8923L38.5571 25.7589L38.3988 26.1631C38.1655 26.5214 38.4571 25.7339 38.1654 26.2297C38.2279 26.2131 38.0613 26.6756 38.0196 26.5673L38.0946 26.3797C38.0488 26.4089 38.0113 26.4881 37.9988 26.4381C38.0488 26.3422 38.0946 26.1631 38.0321 26.1797L38.1405 25.9506L37.9363 26.2714C37.9238 26.0422 37.7238 26.2631 37.7738 25.9839C37.7738 25.9839 37.6529 25.8006 37.5238 26.0881C37.6113 25.9131 37.5446 25.8173 37.6363 25.6089C37.5321 25.8048 37.3529 25.9339 37.3738 25.7006L37.3904 25.6798C37.2779 25.3964 36.9821 25.8923 36.9029 25.5673C36.8404 25.8006 36.7905 25.6464 36.7196 25.9464C36.4571 26.1839 36.5988 25.2548 36.2488 26.1381C36.1571 26.1631 36.2238 25.8964 36.1988 25.8381L36.2321 25.7964C36.0613 25.8256 36.0196 25.8172 35.9154 25.7631C35.8321 25.8339 35.6904 26.2506 35.6238 26.1172C35.7113 25.9589 35.6613 25.9797 35.6238 25.9672C35.6571 25.9506 35.6821 25.8881 35.6696 25.7631C35.6446 25.8131 35.6238 25.8422 35.6071 25.8631C35.6071 25.8506 35.6113 25.8381 35.6196 25.8214C35.5404 25.8589 35.5321 25.9173 35.5529 25.9464C35.5446 25.9714 35.5363 26.0047 35.528 26.0547C35.5363 25.8172 35.3488 26.0131 35.4363 25.7214C35.2321 25.7298 35.0071 25.9798 34.8196 26.0423C34.8529 25.8881 34.9321 25.7714 34.9946 25.7298L34.8696 25.7464C34.9404 25.5339 34.9696 25.6464 35.0196 25.6131C35.0071 25.2298 34.6446 25.8672 34.5988 25.5006L34.5113 25.6589V25.6298C34.4821 25.7173 34.4071 25.8256 34.378 25.8464C34.4196 25.6547 34.5238 25.4214 34.4446 25.4089C34.4446 25.2131 34.2488 25.4423 34.1404 25.5131C34.1696 25.5589 34.1238 25.6548 34.0821 25.7131C34.0446 25.7048 34.0821 25.5172 34.028 25.5839L34.1113 25.3339C34.0446 25.5714 33.9279 25.5506 33.8779 25.6506C33.9196 25.4589 33.9904 25.5131 34.0446 25.3756C33.8904 25.3464 33.9655 25.3631 33.8113 25.3339C33.6696 25.4922 33.7446 25.5714 33.6321 25.7756C33.5446 25.8006 33.4155 25.9464 33.3905 25.7756L33.3405 26.0047C33.1488 26.1297 33.0779 26.0756 33.0696 25.8214C32.2613 26.5381 31.9863 27.1256 31.9196 27.5381C31.8529 27.9506 31.9905 28.1839 31.9905 28.1839C32.2113 28.8089 32.6446 28.2423 33.1738 28.2339L33.1863 28.2214Z" fill="#ACDE45"/>
<path d="M54.5156 30.4043L54.5323 30.5043C54.5406 30.4585 54.5365 30.421 54.5156 30.4043Z" fill="#ACDE45"/>
<path d="M62.4912 31.6043C62.4912 31.6043 62.4954 31.5918 62.5037 31.5835C62.4954 31.5918 62.4954 31.596 62.4912 31.6043Z" fill="#ACDE45"/>
<path d="M55.1951 33.8252C55.1951 33.8252 55.1868 33.8378 55.1826 33.8461L55.1951 33.8252Z" fill="#ACDE45"/>
<path d="M53.616 33.2879C54.0202 33.4796 54.0577 33.9421 54.5327 33.8379C54.7369 33.9087 54.9785 33.8462 55.1952 33.8254C55.3493 33.4962 55.466 33.8671 55.6327 33.5921L55.6452 33.7962C55.7035 33.7046 55.7577 33.6421 55.7827 33.7588L55.7702 33.817C55.8535 33.6795 55.9077 33.7795 55.9494 33.7087L55.9369 33.767L56.0119 33.7546L55.9869 33.8337C56.116 33.6921 56.2244 33.7004 56.3077 33.7879L56.3368 33.5504C56.4952 33.8504 56.6494 33.367 56.7785 33.7129L56.766 33.7712C57.0952 33.1796 57.0619 34.2587 57.3952 33.6962C57.3535 33.7671 57.3868 33.8212 57.3785 33.8796C57.4993 33.8296 57.6202 33.8129 57.6952 33.3421C57.7743 33.3588 57.7369 33.5004 57.7202 33.6796C57.7535 33.4754 57.8327 33.4004 57.8993 33.3962L57.8577 33.4712L58.0452 33.4296L58.0702 33.0379C58.1452 33.1629 58.0202 33.5129 58.1244 33.4337L58.1744 33.1129C58.2952 33.1962 58.2952 33.6962 58.3869 33.9504C58.891 34.1671 59.5785 33.4338 59.9827 34.0713L59.9702 34.3171C59.9285 34.6712 60.1827 33.8129 60.1535 34.1421L60.2327 33.9879C60.241 34.0546 60.2619 34.1254 60.2244 34.2004C60.2744 34.2212 60.2827 34.1629 60.3368 34.0629L60.3619 34.2921C60.5452 34.4921 60.7827 34.0962 60.9869 34.2129C61.1869 34.7004 61.741 34.3587 62.0577 34.1546C62.5285 33.6837 62.8035 35.1504 63.2952 34.6046C63.3035 34.6546 63.3535 34.5504 63.3577 34.5087L63.7243 34.6087C63.7243 34.6087 65.5202 34.9837 64.5285 31.8712L64.5494 31.7962C64.3702 31.5837 64.2493 31.5254 64.0577 31.892C64.0993 31.4129 63.8952 31.8212 63.8702 31.6587L63.8785 31.6213C63.7035 31.9713 63.6619 31.2837 63.4994 31.5962C63.5077 31.5587 63.5285 31.4296 63.5577 31.4254C63.4619 31.4754 63.3285 31.5629 63.3618 31.2837C63.1452 31.3296 62.8702 31.1587 62.6785 31.5837L62.6993 31.5087C62.5827 31.7962 62.5952 31.5379 62.491 31.6795C62.491 31.642 62.491 31.6254 62.491 31.6087C62.366 31.8921 62.241 31.6212 62.1577 31.7379L62.1785 31.5546L62.0077 31.5754L62.0618 31.6213C61.9702 32.1213 61.9827 31.2879 61.816 31.5962C61.7118 31.5171 61.441 32.6129 61.3577 32.3463C61.2702 32.5754 61.4619 31.9713 61.3535 32.1379C61.3869 31.8754 61.416 31.9796 61.4244 31.7671C61.3244 31.8796 61.3285 31.4796 61.2035 31.6421L61.2285 31.4379C61.0452 31.7921 61.0202 31.1337 60.8827 31.4754C60.7244 31.6254 60.8827 30.8546 60.6827 31.2337L60.6702 30.9504C60.616 30.8962 60.5785 31.2837 60.5327 31.1379C60.5619 30.9629 60.4702 30.9879 60.5327 30.8254C60.4244 30.5296 60.1702 31.1671 60.041 30.6754C59.9493 31.0087 59.8785 30.7921 59.8077 31.0421C59.8244 30.8921 59.6118 30.9879 59.7702 30.6838C59.7827 30.6588 59.7994 30.6671 59.791 30.7254L59.8327 30.5254C59.7785 30.1296 59.5952 30.7046 59.4952 30.6296C59.5202 30.7004 59.566 30.6921 59.516 30.8254L59.416 30.7838L59.4618 30.6171L59.3244 30.4962L59.3118 30.7087C59.2535 30.5879 59.2785 30.2296 59.1493 30.5129C59.0868 30.6712 59.1785 30.8046 59.0868 30.8587C59.0077 30.7004 58.891 30.4629 58.7702 30.3795C58.7452 30.617 58.7118 30.6046 58.6702 30.6462L58.6994 30.4421C58.5202 30.7046 58.7202 29.9837 58.5494 30.1879L58.5827 30.0462L58.4785 30.4671C58.291 30.8546 58.4785 30.0337 58.2577 30.5629C58.316 30.5379 58.2118 31.0171 58.1618 30.9171L58.2077 30.7212C58.166 30.7587 58.141 30.8379 58.1202 30.792C58.1577 30.6879 58.1785 30.5087 58.1202 30.5337L58.1952 30.2921L58.0369 30.6379C57.991 30.4129 57.8243 30.6587 57.8368 30.3754C57.8368 30.3754 57.691 30.2129 57.6035 30.5129C57.666 30.3296 57.5868 30.2421 57.6493 30.0254C57.5702 30.2337 57.416 30.3879 57.3994 30.1504L57.4119 30.1254C57.2577 29.8629 57.0327 30.3921 56.9077 30.0796C56.8785 30.3171 56.8077 30.1754 56.7785 30.4795C56.5494 30.7504 56.5535 29.8088 56.3368 30.7379C56.2493 30.7754 56.2785 30.5004 56.2452 30.4462L56.2743 30.4004C56.1118 30.4504 56.066 30.4546 55.9535 30.4129C55.8827 30.4962 55.7993 30.9296 55.716 30.8046C55.7785 30.6379 55.7327 30.6629 55.6952 30.6546C55.7244 30.6296 55.741 30.5712 55.7118 30.4462C55.6952 30.5004 55.6785 30.5296 55.666 30.5546C55.666 30.5421 55.666 30.5296 55.6702 30.5129C55.5952 30.5629 55.5994 30.6171 55.6244 30.6462C55.6202 30.6712 55.616 30.7046 55.616 30.7546C55.5868 30.5212 55.4327 30.7379 55.4744 30.4421C55.2744 30.4796 55.0869 30.7629 54.9077 30.8504C54.916 30.6962 54.9743 30.5671 55.0327 30.5129L54.9119 30.5504C54.9494 30.3296 54.9993 30.4337 55.041 30.3962C54.9702 30.0171 54.7077 30.7046 54.6077 30.3504L54.5452 30.5171V30.4879C54.5244 30.5796 54.4702 30.7004 54.441 30.7254C54.4535 30.5296 54.5202 30.2837 54.441 30.2837C54.4119 30.0879 54.2535 30.3462 54.1535 30.4337C54.191 30.4754 54.1577 30.5754 54.1285 30.642C54.0869 30.642 54.0993 30.4463 54.0577 30.5254L54.0993 30.2671C54.0702 30.5129 53.9535 30.5129 53.9202 30.6129C53.9327 30.4171 54.0077 30.4588 54.0452 30.3171C53.8868 30.3171 53.966 30.3171 53.8077 30.3129C53.691 30.4921 53.7785 30.5587 53.6994 30.7796C53.616 30.8171 53.516 30.9837 53.4577 30.8129L53.4452 31.0463C53.2744 31.2004 53.1993 31.1587 53.1493 30.9087C51.7868 32.5879 52.4702 33.4171 52.4702 33.4171C52.7869 33.9962 53.116 33.3671 53.6327 33.2754L53.616 33.2879Z" fill="#ACDE45"/>
<path d="M75.0361 33.1338L75.057 33.2338C75.0612 33.188 75.057 33.1505 75.0361 33.1338Z" fill="#ACDE45"/>
<path d="M83.0947 33.8959C83.0947 33.8959 83.0989 33.8833 83.103 33.875C83.0989 33.8833 83.0947 33.8875 83.0947 33.8959Z" fill="#ACDE45"/>
<path d="M75.9315 36.4961C75.9315 36.4961 75.9231 36.5086 75.9189 36.5211L75.9315 36.4961Z" fill="#ACDE45"/>
<path d="M74.3318 36.0752C74.7485 36.2335 74.811 36.6961 75.2777 36.5544C75.486 36.6127 75.7235 36.5294 75.936 36.4961C76.0693 36.1544 76.2068 36.5169 76.3527 36.2377L76.3776 36.4419C76.4276 36.3461 76.4818 36.2836 76.511 36.3919L76.5027 36.4502C76.5777 36.3044 76.636 36.4002 76.6735 36.3294L76.6652 36.3877L76.7402 36.371L76.7193 36.4502C76.8402 36.3002 76.9485 36.3002 77.036 36.3835L77.0527 36.1419C77.2277 36.4294 77.3527 35.9419 77.5027 36.2752L77.4943 36.3335C77.7902 35.721 77.8152 36.8002 78.1152 36.2252C78.0777 36.296 78.1151 36.3502 78.1068 36.4086C78.2235 36.3502 78.3443 36.3252 78.3943 35.8544C78.4735 35.8669 78.4443 36.0086 78.436 36.1919C78.4568 35.9836 78.536 35.9044 78.5985 35.9002L78.561 35.9752L78.7485 35.9211V35.5294C78.836 35.6502 78.7276 36.0086 78.8276 35.9211L78.861 35.596C78.986 35.671 79.011 36.171 79.1152 36.421C79.6277 36.6127 80.2776 35.8419 80.711 36.4627V36.7086C80.6818 37.0627 80.8943 36.196 80.8818 36.5252L80.9569 36.3669C80.9652 36.4335 80.9944 36.5044 80.9569 36.5794C81.0069 36.6002 81.0151 36.5419 81.0651 36.4377L81.0985 36.6627C81.2902 36.8544 81.5068 36.4461 81.7193 36.5544C81.9402 37.0294 82.4735 36.6669 82.7819 36.4544C83.2319 35.9627 83.5652 37.4211 84.0319 36.8586C84.0402 36.9086 84.086 36.8002 84.0901 36.7586L84.461 36.846C84.461 36.846 86.2693 37.1627 85.161 34.0835L85.1777 34.0086C84.9902 33.8002 84.8652 33.7461 84.686 34.1211C84.7068 33.6419 84.5235 34.0544 84.4902 33.8961L84.4985 33.8586C84.3402 34.2127 84.2693 33.5294 84.1193 33.8461C84.1277 33.8086 84.1443 33.6794 84.1693 33.671C84.0777 33.721 83.9443 33.8169 83.9652 33.5377C83.7485 33.5877 83.4693 33.4336 83.2902 33.8627L83.3068 33.7877C83.2026 34.0794 83.2026 33.8211 83.1026 33.9669C83.1026 33.9294 83.0985 33.9127 83.1026 33.8961C82.9901 34.1836 82.8568 33.9169 82.7735 34.0377L82.786 33.8544L82.6152 33.8794L82.6735 33.9252C82.6027 34.4294 82.5776 33.5961 82.4276 33.9127C82.3193 33.8377 82.0985 34.9419 82.0026 34.6836C81.9235 34.9169 82.0902 34.3044 81.9902 34.4752C82.0152 34.2127 82.0443 34.3127 82.0443 34.1002C81.9485 34.2169 81.936 33.8169 81.8193 33.9835L81.836 33.7794C81.6693 34.1419 81.6151 33.4835 81.4901 33.8335C81.336 33.9919 81.461 33.2127 81.2776 33.6002L81.2485 33.3169C81.1943 33.2669 81.1735 33.6544 81.1193 33.5127C81.1401 33.3377 81.0485 33.3627 81.1027 33.2002C80.9777 32.9127 80.7568 33.5586 80.6026 33.0752C80.5235 33.4127 80.4444 33.2002 80.386 33.4502C80.3944 33.3002 80.186 33.4044 80.3319 33.096C80.3444 33.071 80.361 33.0752 80.3527 33.1336L80.386 32.9335C80.311 32.5419 80.1568 33.1252 80.0527 33.0544C80.0777 33.1252 80.1276 33.1127 80.0818 33.246L79.9776 33.2085L80.0152 33.0419L79.8693 32.9252V33.1377C79.8026 33.021 79.8152 32.6585 79.6985 32.9502C79.6443 33.1127 79.7444 33.2419 79.6569 33.3002C79.5694 33.146 79.436 32.9127 79.3152 32.8377C79.3027 33.0752 79.2693 33.0627 79.2277 33.1086L79.2443 32.9002C79.0776 33.1711 79.2402 32.4419 79.0777 32.6544L79.1027 32.5127L79.0235 32.9377C78.8568 33.3335 78.9985 32.5044 78.8068 33.046C78.8652 33.0169 78.786 33.5044 78.7276 33.4044L78.7652 33.2085C78.7235 33.246 78.7026 33.3294 78.6818 33.2836C78.7151 33.1794 78.7235 32.9961 78.6652 33.0252L78.7276 32.7794L78.586 33.1336C78.5277 32.9127 78.3735 33.1669 78.3693 32.8835C78.3693 32.8835 78.211 32.7294 78.1402 33.0335C78.1943 32.846 78.1068 32.7627 78.1568 32.5419C78.0901 32.7544 77.9402 32.9169 77.911 32.6835L77.9235 32.6586C77.7527 32.4044 77.5569 32.9461 77.4152 32.6461C77.3985 32.8877 77.3194 32.746 77.311 33.0544C77.0985 33.3377 77.0485 32.4002 76.8818 33.3377C76.7943 33.3794 76.8068 33.1085 76.7693 33.0544L76.7943 33.0086C76.6318 33.0711 76.586 33.0752 76.4735 33.0419C76.4068 33.1294 76.3527 33.5669 76.261 33.4502C76.311 33.2794 76.2651 33.3085 76.2276 33.3044C76.2568 33.2794 76.2693 33.2169 76.2276 33.096C76.2151 33.1502 76.1985 33.1835 76.186 33.2085C76.186 33.196 76.186 33.1836 76.186 33.1669C76.1152 33.2211 76.1193 33.2794 76.1485 33.3044C76.1443 33.3294 76.1443 33.3669 76.1485 33.4127C76.1068 33.1794 75.961 33.4127 75.986 33.1086C75.786 33.1586 75.6193 33.4544 75.4443 33.5544C75.4443 33.4002 75.4943 33.2669 75.5485 33.2085L75.4277 33.2544C75.4527 33.0335 75.5068 33.1335 75.5443 33.0919C75.4485 32.721 75.2277 33.4211 75.1068 33.0794L75.0568 33.2502L75.0485 33.2211C75.0402 33.3127 74.9902 33.4377 74.9652 33.4627C74.9652 33.2669 75.0152 33.0169 74.936 33.0211C74.8943 32.8294 74.7485 33.096 74.6569 33.1919C74.6985 33.2294 74.6735 33.3335 74.6443 33.4002C74.6027 33.4002 74.6026 33.2086 74.5651 33.2877L74.5902 33.0252C74.5777 33.2711 74.461 33.2794 74.4318 33.3836C74.4318 33.1877 74.511 33.2252 74.536 33.0794C74.3777 33.0877 74.4568 33.0835 74.2985 33.0919C74.1943 33.2794 74.286 33.3377 74.2235 33.5627C74.1443 33.6044 74.0526 33.7794 73.986 33.6169V33.8502C73.8318 34.0169 73.7485 33.9794 73.6818 33.7377C72.4401 35.5169 73.186 36.2877 73.186 36.2877C73.5402 36.8377 73.8235 36.1877 74.3277 36.0544L74.3318 36.0752Z" fill="#ACDE45"/>
<path d="M95.7119 35.1127L95.7369 35.2127C95.7369 35.1668 95.7369 35.1293 95.7119 35.1127Z" fill="#ACDE45"/>
<path d="M103.791 35.8543C103.791 35.8543 103.795 35.8418 103.799 35.8335C103.795 35.8418 103.791 35.846 103.791 35.8543Z" fill="#ACDE45"/>
<path d="M96.6453 38.4794C96.6453 38.4794 96.637 38.4918 96.6328 38.5043L96.6453 38.4794Z" fill="#ACDE45"/>
<path d="M95.0451 38.0586C95.4617 38.2169 95.5326 38.6753 95.9909 38.5378C96.1992 38.5961 96.4325 38.5127 96.645 38.4794C96.7742 38.1377 96.9159 38.5002 97.0575 38.2169L97.0826 38.4211C97.1326 38.3252 97.1867 38.2627 97.2159 38.3711L97.2076 38.4294C97.2826 38.2836 97.3409 38.3794 97.3784 38.3086L97.37 38.3669L97.4451 38.3502L97.4242 38.4336C97.545 38.2836 97.6492 38.2836 97.7367 38.3669L97.7534 38.1253C97.9284 38.4128 98.0492 37.9211 98.2034 38.2586L98.1951 38.3169C98.4867 37.7044 98.5159 38.7836 98.8117 38.2044C98.7742 38.2752 98.8117 38.3294 98.8034 38.3878C98.9201 38.3294 99.0409 38.3044 99.0867 37.8336C99.1659 37.8461 99.1367 37.9877 99.1284 38.1711C99.1492 37.9627 99.2242 37.8836 99.2867 37.8794L99.2492 37.9586L99.4326 37.9044V37.5127C99.5201 37.6335 99.4117 37.9919 99.5117 37.9044L99.5409 37.5794C99.6659 37.6544 99.6951 38.1544 99.7992 38.4044C100.312 38.5919 100.958 37.8211 101.391 38.4378V38.6836C101.362 39.0377 101.574 38.171 101.562 38.5002L101.633 38.3419C101.641 38.4086 101.67 38.4794 101.633 38.5544C101.683 38.5752 101.691 38.5169 101.741 38.4127L101.774 38.6377C101.966 38.8294 102.183 38.4211 102.391 38.5294C102.608 39.0044 103.141 38.6377 103.453 38.4252C103.908 37.9336 104.228 39.3919 104.699 38.8252C104.708 38.8752 104.753 38.7669 104.758 38.7252L105.128 38.8127C105.128 38.8127 106.933 39.1211 105.853 36.0503L105.87 35.9752C105.683 35.7669 105.558 35.7127 105.378 36.0877C105.403 35.6086 105.216 36.0211 105.183 35.8627L105.191 35.8252C105.028 36.1794 104.962 35.4961 104.808 35.8127C104.816 35.7752 104.833 35.646 104.862 35.6377C104.766 35.6877 104.637 35.7836 104.658 35.5044C104.441 35.5586 104.158 35.4003 103.978 35.8294L103.995 35.7544C103.887 36.0461 103.891 35.7878 103.791 35.9336C103.791 35.8961 103.787 35.8794 103.791 35.8627C103.678 36.1502 103.541 35.8836 103.462 36.0044L103.474 35.8211L103.303 35.846L103.362 35.8919C103.291 36.3961 103.266 35.5627 103.116 35.8794C103.008 35.8044 102.783 36.9086 102.691 36.6502C102.612 36.8836 102.778 36.2711 102.678 36.4461C102.703 36.1836 102.733 36.2836 102.733 36.0711C102.637 36.1877 102.624 35.7877 102.508 35.9586L102.524 35.7544C102.353 36.1169 102.303 35.4586 102.178 35.8086C102.024 35.9669 102.149 35.1878 101.966 35.5794L101.937 35.2961C101.878 35.2461 101.858 35.6336 101.803 35.4919C101.824 35.3169 101.733 35.3419 101.787 35.1794C101.662 34.8919 101.437 35.5378 101.283 35.0544C101.203 35.3919 101.124 35.1794 101.066 35.4336C101.074 35.2836 100.866 35.3919 101.012 35.0794C101.024 35.0544 101.041 35.0585 101.033 35.1169L101.066 34.9169C100.987 34.5252 100.837 35.1086 100.728 35.0377C100.753 35.1086 100.803 35.0961 100.758 35.2294L100.653 35.1919L100.691 35.0252L100.545 34.9127V35.1252C100.478 35.0086 100.487 34.6502 100.37 34.9377C100.316 35.1002 100.416 35.2294 100.328 35.2877C100.241 35.1336 100.108 34.9044 99.9825 34.8252C99.97 35.0627 99.9367 35.0502 99.8951 35.0961L99.9117 34.8877C99.7451 35.1586 99.9034 34.4294 99.7451 34.646L99.77 34.5044L99.6909 34.9336C99.5284 35.3294 99.6659 34.5002 99.4742 35.0419C99.5326 35.0127 99.4575 35.5002 99.3992 35.4044L99.4367 35.2086C99.3951 35.2461 99.3742 35.3294 99.3534 35.2836C99.3867 35.1794 99.3951 34.9961 99.3367 35.0252L99.3992 34.7794L99.2617 35.1336C99.2034 34.9127 99.0492 35.1669 99.045 34.8836C99.045 34.8836 98.8867 34.7294 98.8159 35.0336C98.8701 34.8461 98.7825 34.7627 98.8284 34.5419C98.7617 34.7544 98.6159 34.9169 98.5825 34.6836L98.5951 34.6586C98.4242 34.4044 98.2326 34.9502 98.0826 34.646C98.0659 34.8877 97.9867 34.7461 97.9826 35.0544C97.7742 35.3378 97.7117 34.4002 97.5576 35.3377C97.4701 35.3794 97.4826 35.1086 97.4451 35.0544L97.4701 35.0044C97.3076 35.0669 97.2617 35.0711 97.1492 35.0377C97.0826 35.1252 97.0326 35.5627 96.9409 35.4461C96.9909 35.2752 96.945 35.3044 96.9075 35.3002C96.9325 35.2752 96.9492 35.2127 96.9075 35.0919C96.895 35.1461 96.8826 35.1794 96.8701 35.2044C96.8701 35.1919 96.8701 35.1794 96.8701 35.1628C96.7992 35.2169 96.8076 35.2752 96.8326 35.3002C96.8326 35.3252 96.8284 35.3627 96.8326 35.4086C96.7867 35.1752 96.6451 35.4086 96.6659 35.1044C96.4659 35.1544 96.2992 35.4502 96.1284 35.5544C96.1284 35.4002 96.1742 35.2669 96.2284 35.2086L96.1076 35.2544C96.1284 35.0336 96.1867 35.1336 96.2242 35.0919C96.1242 34.7211 95.9117 35.4211 95.7826 35.0794L95.7326 35.2502L95.7242 35.221C95.7159 35.3127 95.6701 35.4377 95.6409 35.4627C95.6367 35.2669 95.6825 35.0169 95.6034 35.0211C95.5575 34.8294 95.4201 35.0961 95.3284 35.1919C95.3701 35.2294 95.3451 35.3336 95.3201 35.4002C95.2784 35.4002 95.2742 35.2086 95.2367 35.2877L95.2576 35.0252C95.2492 35.2711 95.1326 35.2794 95.1076 35.3877C95.1034 35.1919 95.1826 35.2252 95.2076 35.0836C95.0492 35.0919 95.1284 35.0877 94.9701 35.0961C94.8659 35.2836 94.9617 35.3461 94.8992 35.5711C94.8201 35.6169 94.7325 35.7919 94.6617 35.6253V35.8586C94.5117 36.0252 94.4325 35.9919 94.3575 35.7461C93.1492 37.5336 93.9034 38.3002 93.9034 38.3002C94.2617 38.8502 94.5367 38.1961 95.0367 38.0627L95.0451 38.0586Z" fill="#ACDE45"/>
<path d="M116.42 37.3085L116.441 37.4085C116.445 37.3627 116.441 37.3252 116.42 37.3085Z" fill="#ACDE45"/>
<path d="M124.482 38.4002C124.482 38.4002 124.491 38.3877 124.495 38.3794C124.487 38.3877 124.487 38.3919 124.482 38.4002Z" fill="#ACDE45"/>
<path d="M117.232 40.7129C117.232 40.7129 117.224 40.7254 117.22 40.7337L117.232 40.7129Z" fill="#ACDE45"/>
<path d="M115.658 40.225C116.066 40.4 116.12 40.8625 116.578 40.7417C116.783 40.8083 117.016 40.7334 117.228 40.7084C117.37 40.375 117.495 40.7417 117.649 40.4667L117.666 40.6709C117.72 40.575 117.774 40.5167 117.799 40.6292L117.791 40.6875C117.87 40.5458 117.924 40.6459 117.962 40.575L117.953 40.6334L118.028 40.6167L118.003 40.6958C118.128 40.55 118.237 40.5542 118.32 40.6417L118.345 40.4C118.508 40.6959 118.649 40.2084 118.787 40.5542L118.778 40.6125C119.091 40.0125 119.078 41.0917 119.395 40.525C119.353 40.5959 119.391 40.65 119.378 40.7084C119.495 40.6542 119.616 40.6375 119.683 40.1667C119.762 40.1833 119.728 40.3209 119.712 40.5042C119.741 40.3 119.82 40.2209 119.883 40.2167L119.845 40.2917L120.033 40.2459L120.053 39.8542C120.133 39.9792 120.012 40.3292 120.112 40.25L120.158 39.9292C120.278 40.0125 120.287 40.5084 120.378 40.7625C120.878 40.9709 121.558 40.2334 121.958 40.8667L121.945 41.1125C121.903 41.4667 122.158 40.6084 122.124 40.9375L122.203 40.7834C122.212 40.85 122.233 40.9209 122.195 40.9959C122.245 41.0167 122.253 40.9583 122.308 40.8583L122.333 41.0875C122.512 41.2875 122.749 40.8875 122.953 41.0042C123.145 41.4875 123.695 41.1459 124.016 40.9459C124.495 40.475 124.737 41.9417 125.237 41.3959C125.241 41.4459 125.295 41.3417 125.299 41.3L125.662 41.4C125.662 41.4 127.445 41.7875 126.541 38.6792L126.562 38.6042C126.387 38.3875 126.262 38.3292 126.062 38.6959C126.116 38.2209 125.899 38.625 125.878 38.4625L125.891 38.425C125.708 38.7709 125.683 38.0875 125.508 38.3958C125.52 38.3583 125.541 38.2292 125.57 38.225C125.474 38.2709 125.337 38.3625 125.374 38.0833C125.153 38.125 124.878 37.9584 124.678 38.3792L124.699 38.3042C124.578 38.5917 124.595 38.3334 124.483 38.475C124.483 38.4375 124.483 38.4208 124.483 38.4042C124.353 38.6875 124.233 38.4167 124.145 38.5334L124.17 38.35L123.999 38.3709L124.053 38.4167C123.953 38.9167 123.974 38.0834 123.808 38.3917C123.703 38.3125 123.42 39.4042 123.341 39.1417C123.249 39.3708 123.449 38.7667 123.341 38.9333C123.378 38.6708 123.403 38.775 123.416 38.5625C123.316 38.675 123.32 38.275 123.195 38.4375L123.22 38.2334C123.033 38.5875 123.012 37.9292 122.87 38.275C122.708 38.425 122.87 37.6542 122.666 38.0333L122.653 37.75C122.599 37.6959 122.562 38.0833 122.512 37.9417C122.541 37.7667 122.449 37.7917 122.512 37.6292C122.399 37.3333 122.145 37.975 122.012 37.4834C121.92 37.8167 121.845 37.6 121.778 37.85C121.795 37.7 121.579 37.7959 121.741 37.4917C121.754 37.4667 121.77 37.475 121.762 37.5334L121.803 37.3334C121.745 36.9375 121.566 37.5125 121.462 37.4375C121.487 37.5084 121.533 37.4959 121.483 37.6334L121.383 37.5917L121.429 37.425L121.287 37.3042L121.278 37.5167C121.216 37.4 121.241 37.0375 121.112 37.325C121.049 37.4875 121.145 37.6167 121.053 37.6708C120.97 37.5125 120.849 37.275 120.724 37.1959C120.703 37.4334 120.67 37.4208 120.624 37.4625L120.649 37.2583C120.47 37.525 120.662 36.8 120.491 37.0084L120.524 36.8667L120.428 37.2917C120.249 37.6792 120.42 36.8584 120.203 37.3917C120.262 37.3625 120.166 37.8459 120.112 37.75L120.158 37.5542C120.116 37.5917 120.091 37.6708 120.07 37.6292C120.108 37.525 120.12 37.3417 120.062 37.3708L120.133 37.1292L119.978 37.4792C119.928 37.2542 119.766 37.5042 119.77 37.2209C119.77 37.2209 119.616 37.0583 119.537 37.3583C119.599 37.175 119.512 37.0875 119.57 36.8667C119.495 37.075 119.341 37.2333 119.32 36.9958L119.333 36.9709C119.17 36.7084 118.958 37.2458 118.82 36.9375C118.795 37.175 118.72 37.0334 118.703 37.3417C118.483 37.6167 118.458 36.675 118.266 37.6084C118.178 37.6459 118.199 37.375 118.162 37.3209L118.187 37.275C118.024 37.3292 117.978 37.3334 117.866 37.2959C117.795 37.3792 117.728 37.8167 117.641 37.6959C117.695 37.525 117.649 37.5542 117.612 37.5459C117.641 37.5209 117.658 37.4584 117.62 37.3375C117.608 37.3917 117.591 37.4209 117.578 37.45C117.578 37.4375 117.578 37.425 117.583 37.4083C117.512 37.4625 117.516 37.5167 117.541 37.5459C117.537 37.5709 117.533 37.6084 117.541 37.6542C117.503 37.4209 117.353 37.6417 117.387 37.3459C117.187 37.3875 117.008 37.6792 116.837 37.7708C116.837 37.6167 116.895 37.4834 116.949 37.4292L116.828 37.4708C116.858 37.25 116.912 37.3542 116.949 37.3125C116.862 36.9375 116.624 37.6292 116.508 37.2792L116.453 37.45V37.4208C116.437 37.5125 116.387 37.6334 116.358 37.6625C116.358 37.4667 116.416 37.2167 116.337 37.2209C116.299 37.025 116.149 37.2875 116.053 37.3834C116.095 37.4209 116.066 37.525 116.037 37.5917C115.995 37.5917 115.999 37.3958 115.958 37.475L115.987 37.2125C115.97 37.4583 115.853 37.4625 115.824 37.5667C115.824 37.3708 115.908 37.4083 115.933 37.2667C115.774 37.2667 115.853 37.2667 115.691 37.2667C115.583 37.45 115.674 37.5167 115.608 37.7375C115.528 37.7792 115.433 37.95 115.366 37.7792V38.0125C115.203 38.1709 115.124 38.1333 115.058 37.8875C113.799 39.625 114.528 40.425 114.528 40.425C114.87 40.9917 115.158 40.35 115.662 40.2375L115.658 40.225Z" fill="#ACDE45"/>
<path d="M137.027 40.6714L137.04 40.7714C137.048 40.7297 137.048 40.6881 137.027 40.6714Z" fill="#ACDE45"/>
<path d="M144.981 42.5672C144.981 42.5672 144.99 42.5547 144.994 42.5464C144.986 42.5506 144.981 42.5589 144.981 42.5672Z" fill="#ACDE45"/>
<path d="M137.545 44.1172C137.545 44.1172 137.536 44.1297 137.532 44.138L137.549 44.1172H137.545Z" fill="#ACDE45"/>
<path d="M136.024 43.5172C136.415 43.7214 136.428 44.1839 136.894 44.1006C137.09 44.1797 137.332 44.1298 137.544 44.1214C137.715 43.8006 137.807 44.1756 137.986 43.9131V44.1173C138.044 44.0298 138.107 43.9714 138.124 44.0839L138.107 44.1381C138.199 44.0047 138.244 44.1047 138.29 44.0381L138.274 44.0964L138.349 44.0881L138.319 44.1673C138.457 44.0339 138.561 44.0464 138.636 44.1381L138.682 43.9006C138.815 44.2089 139.003 43.7381 139.107 44.0922L139.09 44.1506C139.457 43.5839 139.344 44.6548 139.711 44.1214C139.665 44.1881 139.694 44.2464 139.678 44.3006C139.799 44.2589 139.919 44.2506 140.032 43.7881C140.107 43.8131 140.061 43.9464 140.028 44.1255C140.078 43.9214 140.161 43.8548 140.228 43.8589L140.182 43.9297L140.369 43.9048L140.428 43.5172C140.494 43.6506 140.34 43.988 140.449 43.9172L140.524 43.6006C140.636 43.6923 140.594 44.1881 140.657 44.4506C141.128 44.7089 141.878 44.0422 142.207 44.7172L142.165 44.9589C142.086 45.3047 142.428 44.4797 142.361 44.8047L142.457 44.6631C142.457 44.7297 142.474 44.8047 142.424 44.8756C142.469 44.9006 142.486 44.8464 142.549 44.7505V44.9797C142.703 45.2006 142.982 44.8256 143.169 44.9672C143.307 45.4714 143.886 45.1964 144.224 45.0381C144.753 44.6297 144.815 46.1214 145.369 45.6464C145.369 45.7006 145.432 45.6006 145.444 45.5589L145.79 45.7089C145.79 45.7089 146.215 45.8673 146.578 45.6256C146.94 45.3839 147.253 44.7381 146.994 43.1256L147.024 43.0547C146.878 42.8131 146.761 42.7381 146.515 43.0756C146.624 42.6089 146.365 42.9798 146.361 42.8173L146.378 42.7797C146.153 43.1006 146.211 42.4131 146.003 42.6964C146.019 42.6631 146.057 42.5339 146.086 42.5339C145.982 42.5672 145.836 42.6381 145.907 42.3672C145.682 42.3797 145.428 42.1755 145.178 42.5672L145.207 42.4964C145.053 42.7672 145.099 42.5131 144.974 42.6381C144.978 42.6006 144.974 42.5839 144.982 42.5672C144.824 42.8297 144.732 42.5464 144.632 42.6506L144.678 42.4714H144.503L144.553 42.5256C144.399 43.0131 144.511 42.1839 144.307 42.4714C144.211 42.3797 143.811 43.4339 143.761 43.1631C143.644 43.3797 143.907 42.8006 143.782 42.9589C143.849 42.7006 143.861 42.8089 143.894 42.5964C143.782 42.6964 143.832 42.3006 143.686 42.4464L143.736 42.2464C143.511 42.5798 143.561 41.9214 143.382 42.2464C143.207 42.3756 143.449 41.6298 143.207 41.9839L143.224 41.7006C143.174 41.6422 143.094 42.0214 143.061 41.8714C143.111 41.7006 143.011 41.7131 143.094 41.5631C143.011 41.2589 142.694 41.8631 142.611 41.3631C142.486 41.6839 142.436 41.4631 142.34 41.7047C142.374 41.5589 142.149 41.6297 142.34 41.3464C142.357 41.3214 142.374 41.3339 142.357 41.3881L142.419 41.1964C142.399 40.7964 142.161 41.3505 142.065 41.263C142.082 41.338 142.132 41.3298 142.065 41.4589L141.969 41.4047L142.032 41.2422L141.903 41.1047L141.874 41.3172C141.824 41.1922 141.882 40.838 141.728 41.1089C141.649 41.263 141.728 41.4047 141.636 41.4464C141.569 41.2797 141.469 41.0339 141.357 40.9381C141.311 41.1714 141.282 41.1547 141.232 41.1964L141.278 40.9923C141.074 41.2381 141.336 40.5381 141.144 40.7256L141.19 40.588L141.053 41.0005C140.832 41.3714 141.086 40.5672 140.819 41.0797C140.882 41.0589 140.74 41.5297 140.694 41.4256L140.757 41.2339C140.711 41.2672 140.678 41.3464 140.665 41.3006C140.711 41.2006 140.744 41.0214 140.682 41.0423L140.778 40.8089L140.59 41.1422C140.561 40.9131 140.374 41.1464 140.407 40.8631C140.407 40.8631 140.269 40.6881 140.161 40.9797C140.24 40.8006 140.161 40.7089 140.24 40.4964C140.144 40.6964 139.978 40.8381 139.978 40.6006L139.994 40.5756C139.857 40.3006 139.59 40.8131 139.482 40.4964C139.436 40.7339 139.374 40.5839 139.328 40.8881C139.082 41.1423 139.14 40.2047 138.865 41.1172C138.774 41.1506 138.819 40.8797 138.786 40.8214L138.815 40.7756C138.644 40.8172 138.599 40.8172 138.49 40.7672C138.415 40.8464 138.307 41.2714 138.232 41.1464C138.303 40.9839 138.253 41.0048 138.215 40.9964C138.244 40.9756 138.265 40.9131 138.244 40.7881C138.224 40.8381 138.207 40.8714 138.19 40.8964C138.19 40.8839 138.19 40.8714 138.199 40.8547C138.124 40.9006 138.119 40.9547 138.144 40.9881C138.136 41.0131 138.132 41.0464 138.132 41.0964C138.115 40.8589 137.944 41.0714 138.003 40.7756C137.799 40.8006 137.594 41.0756 137.411 41.1548C137.428 41.0006 137.494 40.8714 137.553 40.8256L137.428 40.8547C137.478 40.6381 137.519 40.7422 137.565 40.7089C137.507 40.3297 137.215 41.0006 137.128 40.6422L137.057 40.8089V40.7797C137.036 40.8714 136.974 40.9881 136.944 41.0131C136.965 40.8172 137.04 40.5756 136.961 40.5714C136.94 40.3756 136.765 40.6256 136.665 40.7131C136.703 40.7547 136.665 40.8547 136.632 40.9214C136.59 40.9214 136.611 40.7256 136.561 40.8006L136.611 40.5422C136.574 40.7881 136.453 40.7797 136.419 40.8839C136.436 40.6881 136.515 40.7339 136.553 40.5922C136.39 40.5839 136.474 40.5881 136.311 40.5798C136.186 40.7548 136.274 40.8256 136.186 41.0423C136.103 41.0756 135.994 41.2422 135.94 41.0672L135.919 41.3006C135.744 41.4506 135.669 41.4048 135.624 41.1548C134.224 42.8006 134.886 43.6422 134.886 43.6422C135.178 44.2256 135.519 43.6089 136.032 43.5297L136.024 43.5172Z" fill="#ACDE45"/>
<path d="M157.128 46.6504V46.7504C157.136 46.7087 157.145 46.6712 157.128 46.6504Z" fill="#ACDE45"/>
<path d="M164.616 50.0587C164.616 50.0587 164.625 50.0503 164.633 50.042C164.625 50.0462 164.62 50.0503 164.616 50.0587Z" fill="#ACDE45"/>
<path d="M157.032 50.1338C157.032 50.1338 157.024 50.1463 157.016 50.1546L157.032 50.1338Z" fill="#ACDE45"/>
<path d="M155.653 49.2876C155.999 49.5501 155.932 50.0126 156.403 50.0043C156.578 50.1168 156.824 50.1084 157.032 50.1334C157.257 49.8459 157.278 50.2335 157.499 50.0043L157.462 50.2043C157.537 50.1251 157.607 50.0834 157.599 50.1959L157.574 50.2501C157.687 50.1334 157.712 50.2418 157.77 50.1834L157.745 50.2376H157.82L157.774 50.3126C157.932 50.2043 158.032 50.2376 158.087 50.3418L158.174 50.1167C158.249 50.4417 158.516 50.0167 158.553 50.3792L158.528 50.4334C158.995 49.9417 158.678 50.9751 159.141 50.5168C159.082 50.5751 159.103 50.6334 159.074 50.6876C159.199 50.6667 159.32 50.6834 159.516 50.2501C159.587 50.2876 159.516 50.4126 159.445 50.5834C159.532 50.3959 159.628 50.3418 159.691 50.3584L159.632 50.421L159.82 50.4292L159.953 50.0585C159.991 50.2001 159.774 50.5043 159.895 50.4543L160.028 50.1585C160.12 50.271 159.982 50.7501 159.995 51.0209C160.403 51.3626 161.266 50.8584 161.449 51.5834L161.362 51.8126C161.212 52.1376 161.712 51.3959 161.582 51.7001L161.703 51.5792C161.691 51.6417 161.691 51.721 161.628 51.7793C161.67 51.8168 161.695 51.7626 161.778 51.6834L161.728 51.9084C161.832 52.1543 162.182 51.8459 162.332 52.0209C162.357 52.5418 162.978 52.3917 163.337 52.3084C163.941 52.0209 163.67 53.4876 164.312 53.1459C164.299 53.1959 164.382 53.1126 164.403 53.0793L164.703 53.3001C164.703 53.3001 165.074 53.546 165.482 53.3918C165.887 53.2335 166.345 52.6834 166.457 51.0542L166.503 50.9918C166.412 50.7251 166.316 50.6209 165.999 50.8959C166.212 50.4667 165.87 50.7709 165.903 50.6084L165.924 50.5751C165.637 50.8376 165.841 50.1793 165.574 50.4084C165.595 50.3793 165.662 50.2626 165.691 50.2709C165.582 50.2834 165.424 50.3167 165.549 50.0667C165.324 50.0292 165.12 49.7709 164.791 50.1001L164.837 50.0376C164.628 50.2668 164.724 50.0293 164.578 50.1251C164.591 50.0918 164.595 50.071 164.603 50.0585C164.391 50.2835 164.362 49.9834 164.241 50.0626L164.324 49.896L164.153 49.8542L164.191 49.9209C163.937 50.3626 164.224 49.5793 163.962 49.8168C163.887 49.7084 163.274 50.6542 163.282 50.3792C163.124 50.5667 163.503 50.0584 163.345 50.1834C163.462 49.9459 163.457 50.0542 163.532 49.8542C163.403 49.9292 163.532 49.5501 163.362 49.6626L163.449 49.4751C163.157 49.7543 163.345 49.1168 163.103 49.4001C162.903 49.4918 163.291 48.8084 162.982 49.1084L163.057 48.8334C163.02 48.7668 162.866 49.1209 162.866 48.9709C162.949 48.8126 162.849 48.8084 162.957 48.6751C162.937 48.3584 162.499 48.8876 162.52 48.3793C162.332 48.6668 162.324 48.4376 162.187 48.6584C162.245 48.5209 162.012 48.5459 162.253 48.3043C162.274 48.2834 162.287 48.2959 162.262 48.3501L162.362 48.1709C162.42 47.7751 162.078 48.2709 161.999 48.1709C161.999 48.2459 162.049 48.2501 161.962 48.3626L161.874 48.2917L161.966 48.1459L161.862 47.9876L161.791 48.1876C161.766 48.0542 161.895 47.7168 161.687 47.9501C161.578 48.0834 161.632 48.2418 161.528 48.2668C161.495 48.0918 161.445 47.8293 161.349 47.7126C161.262 47.9335 161.232 47.9126 161.178 47.9418L161.262 47.7501C161.012 47.9501 161.403 47.3126 161.178 47.4626L161.249 47.3376L161.037 47.7168C160.749 48.0376 161.153 47.2959 160.791 47.7459C160.857 47.7376 160.624 48.1709 160.599 48.0626L160.699 47.8876C160.645 47.9084 160.599 47.9834 160.595 47.9334C160.662 47.8459 160.724 47.6751 160.662 47.6834L160.799 47.4709L160.549 47.7626C160.562 47.5335 160.332 47.7251 160.42 47.4543C160.42 47.4543 160.316 47.2543 160.153 47.5209C160.262 47.3584 160.203 47.2543 160.32 47.0584C160.191 47.2376 159.995 47.3459 160.041 47.1126L160.062 47.0918C159.974 46.796 159.62 47.2501 159.57 46.9168C159.482 47.1418 159.449 46.9834 159.345 47.2751C159.057 47.4793 159.282 46.5667 158.845 47.4126C158.749 47.4251 158.845 47.1709 158.82 47.1084L158.857 47.0709C158.682 47.0793 158.637 47.0709 158.537 47.0043C158.445 47.0668 158.266 47.4709 158.212 47.3334C158.312 47.1834 158.257 47.2001 158.224 47.1834C158.257 47.1668 158.291 47.1126 158.287 46.9835C158.257 47.0293 158.237 47.0584 158.216 47.0793C158.22 47.0668 158.224 47.0543 158.232 47.0376C158.149 47.071 158.137 47.1251 158.157 47.1584C158.145 47.1834 158.137 47.2168 158.124 47.2626C158.149 47.0293 157.945 47.2043 158.053 46.9251C157.845 46.9126 157.599 47.146 157.403 47.196C157.445 47.046 157.532 46.9334 157.599 46.8959L157.47 46.9043C157.553 46.7001 157.578 46.8126 157.628 46.7834C157.637 46.3959 157.228 47.0084 157.203 46.6418L157.107 46.7918V46.7626C157.074 46.8501 156.995 46.9543 156.962 46.9709C157.012 46.7834 157.132 46.5584 157.053 46.5376C157.066 46.3418 156.853 46.5584 156.737 46.6251C156.766 46.6709 156.712 46.7668 156.67 46.8251C156.632 46.8168 156.682 46.6293 156.62 46.6959L156.712 46.4501C156.637 46.6834 156.516 46.6584 156.462 46.7543C156.512 46.5668 156.582 46.6209 156.645 46.4876C156.487 46.4501 156.566 46.4709 156.407 46.4334C156.257 46.5876 156.332 46.6709 156.207 46.8668C156.12 46.8876 155.987 47.0293 155.962 46.8501L155.903 47.0751C155.707 47.1918 155.641 47.1376 155.637 46.8835C154.807 47.5793 154.532 48.1668 154.453 48.5751C154.378 48.9834 154.499 49.221 154.499 49.221C154.687 49.846 155.124 49.2876 155.637 49.2959L155.653 49.2876Z" fill="#ACDE45"/>
<path d="M175.12 56.9215L175.078 57.0131C175.107 56.9798 175.124 56.9423 175.12 56.9215Z" fill="#ACDE45"/>
<path d="M180.066 61.3504C180.066 61.3504 180.079 61.3462 180.087 61.3379C180.079 61.3379 180.075 61.3421 180.066 61.3504Z" fill="#ACDE45"/>
<path d="M173.825 60.0713C173.825 60.0713 173.812 60.0796 173.804 60.0838L173.825 60.0713Z" fill="#ACDE45"/>
<path d="M173.007 59.0673C173.195 59.3673 172.978 59.7715 173.362 59.8465C173.466 59.9798 173.666 60.0089 173.824 60.0714C174.107 59.8506 173.987 60.2048 174.245 60.034L174.145 60.209C174.232 60.1506 174.307 60.1214 174.262 60.2256L174.224 60.2673C174.357 60.184 174.341 60.284 174.407 60.2423L174.37 60.2839L174.428 60.3006L174.366 60.359C174.532 60.2881 174.603 60.3381 174.612 60.4381L174.766 60.2506C174.707 60.559 175.078 60.2173 174.978 60.5506L174.937 60.5923C175.491 60.2298 174.862 61.1048 175.403 60.7756C175.337 60.8173 175.328 60.8756 175.287 60.9173C175.395 60.9214 175.487 60.9548 175.803 60.6048C175.845 60.6506 175.741 60.7506 175.628 60.8923C175.766 60.7381 175.866 60.709 175.907 60.734L175.837 60.7798L175.987 60.8215L176.228 60.5131C176.207 60.6465 175.924 60.8798 176.037 60.8589L176.253 60.6173C176.287 60.734 176.003 61.1381 175.912 61.3839C176.12 61.7589 177.012 61.4631 176.895 62.1423L176.737 62.3298C176.495 62.5923 177.178 62.0214 176.962 62.2714L177.107 62.184C177.074 62.2381 177.045 62.3048 176.974 62.3465C176.995 62.384 177.037 62.3465 177.132 62.2881L177.012 62.4798C177.007 62.7173 177.407 62.5048 177.466 62.6881C177.295 63.1548 177.857 63.1298 178.187 63.1215C178.791 62.9756 178.02 64.2214 178.678 64.0339C178.649 64.0756 178.749 64.0173 178.778 63.9881L178.941 64.2381C178.941 64.2381 179.157 64.5214 179.553 64.4589C179.949 64.3923 180.541 63.9964 181.249 62.5839L181.312 62.5381C181.337 62.284 181.295 62.1756 180.928 62.3589C181.266 62.0173 180.87 62.2256 180.957 62.0881L180.987 62.0631C180.649 62.2423 181.062 61.6964 180.753 61.8506C180.782 61.8256 180.882 61.7381 180.903 61.7506C180.807 61.7381 180.662 61.7423 180.862 61.5465C180.687 61.4715 180.612 61.2048 180.216 61.4339L180.278 61.3839C180.02 61.5464 180.191 61.3548 180.028 61.4131C180.053 61.384 180.062 61.3673 180.074 61.359C179.816 61.5173 179.899 61.2465 179.77 61.2965L179.899 61.1631L179.774 61.0965L179.782 61.1589C179.407 61.5048 179.937 60.8589 179.632 61.0214C179.612 60.9089 178.753 61.6381 178.862 61.3965C178.662 61.534 179.162 61.1506 178.987 61.234C179.17 61.0423 179.128 61.1381 179.262 60.9756C179.124 61.0173 179.374 60.7048 179.191 60.7756L179.332 60.6256C178.991 60.8173 179.374 60.2881 179.07 60.4964C178.87 60.5423 179.445 60.0048 179.078 60.2131L179.241 59.9798C179.237 59.9131 178.978 60.2006 179.032 60.0673C179.157 59.9423 179.078 59.9173 179.22 59.8173C179.32 59.5298 178.766 59.9256 178.966 59.4715C178.703 59.6965 178.782 59.4881 178.587 59.6589C178.687 59.5464 178.482 59.5256 178.77 59.3548C178.795 59.3423 178.799 59.3548 178.762 59.3964L178.907 59.2548C179.099 58.909 178.637 59.2923 178.607 59.1839C178.582 59.2506 178.62 59.2631 178.507 59.3506L178.462 59.2715L178.591 59.159L178.562 58.9965L178.432 59.1631C178.462 59.0381 178.687 58.7589 178.432 58.9339C178.295 59.0339 178.282 59.1839 178.191 59.1881C178.228 59.0256 178.278 58.7756 178.241 58.6589C178.087 58.8423 178.074 58.8173 178.016 58.8339L178.153 58.6798C177.874 58.8173 178.428 58.3131 178.187 58.4048L178.291 58.3048L177.978 58.6048C177.628 58.8423 178.224 58.2465 177.766 58.5881C177.824 58.5923 177.478 58.9423 177.495 58.8381L177.637 58.7006C177.587 58.7131 177.524 58.7673 177.537 58.7214C177.624 58.6548 177.737 58.5131 177.682 58.5048L177.87 58.3381L177.562 58.5548C177.653 58.3506 177.399 58.4839 177.562 58.2548C177.562 58.2548 177.545 58.0548 177.316 58.2673C177.466 58.1423 177.453 58.0339 177.62 57.8798C177.449 58.0173 177.249 58.0798 177.37 57.8798L177.395 57.8673C177.428 57.584 176.974 57.9298 177.049 57.6173C176.899 57.8048 176.924 57.6548 176.741 57.9006C176.432 58.034 176.937 57.2464 176.282 57.9381C176.199 57.9339 176.366 57.7173 176.37 57.6548L176.416 57.6256C176.27 57.6048 176.232 57.5881 176.178 57.509C176.082 57.5506 175.795 57.884 175.799 57.7465C175.932 57.6298 175.887 57.634 175.862 57.6131C175.895 57.6048 175.941 57.559 175.982 57.4423C175.945 57.4798 175.916 57.5006 175.891 57.5173C175.899 57.5048 175.907 57.4965 175.916 57.484C175.837 57.4965 175.807 57.5464 175.812 57.5798C175.795 57.6006 175.774 57.6256 175.749 57.6714C175.853 57.4631 175.624 57.5881 175.807 57.3506C175.641 57.3048 175.357 57.4714 175.182 57.4798C175.27 57.3506 175.378 57.2631 175.445 57.2423L175.337 57.2256C175.478 57.0548 175.457 57.159 175.512 57.1423C175.653 56.7923 175.107 57.2756 175.212 56.9381L175.078 57.0589L175.091 57.0298C175.032 57.1048 174.932 57.184 174.895 57.1965C175.003 57.034 175.174 56.8465 175.12 56.8173C175.199 56.6381 174.949 56.8006 174.832 56.8423C174.841 56.8881 174.766 56.9673 174.707 57.0131C174.678 56.9965 174.782 56.834 174.712 56.884L174.874 56.6756C174.732 56.8756 174.641 56.834 174.566 56.909C174.67 56.7465 174.707 56.809 174.807 56.7006C174.691 56.6381 174.749 56.6715 174.632 56.609C174.457 56.7215 174.491 56.8131 174.32 56.9715C174.241 56.9715 174.082 57.0798 174.124 56.9131L173.999 57.1089C173.799 57.1798 173.762 57.1214 173.845 56.8881C172.932 57.3798 172.512 57.8715 172.307 58.234C172.103 58.5965 172.124 58.8298 172.124 58.8298C172.062 59.4298 172.603 58.9923 173.012 59.0881L173.007 59.0673Z" fill="#ACDE45"/>
</svg>
