<svg width="241" height="115" viewBox="0 0 241 115" fill="none" xmlns="http://www.w3.org/2000/svg">
<path d="M219.5 72.6274H73.6663C62.1604 72.6274 52.833 81.9548 52.833 93.4608C52.833 104.967 62.1604 114.294 73.6663 114.294H219.5C231.006 114.294 240.333 104.967 240.333 93.4608C240.333 81.9548 231.006 72.6274 219.5 72.6274Z" fill="#02B14F"/>
<path d="M89.8955 89.0732H91.4955V94.1399H91.6247L96.0747 89.0732H98.0914L93.8122 93.8524L98.108 99.6857H96.1789L92.7497 94.9441L91.4955 96.3858V99.6857H89.8955V89.0732Z" fill="white"/>
<path d="M98.5244 95.7399C98.5244 93.2649 99.9911 91.6191 102.233 91.6191C104.474 91.6191 105.941 93.2608 105.941 95.7399C105.941 98.2191 104.474 99.8441 102.233 99.8441C99.9911 99.8441 98.5244 98.2024 98.5244 95.7399ZM104.379 95.7358C104.379 94.2108 103.695 92.9191 102.237 92.9191C100.779 92.9191 100.087 94.2149 100.087 95.7358C100.087 97.2566 100.77 98.5441 102.237 98.5441C103.704 98.5441 104.379 97.2649 104.379 95.7358Z" fill="white"/>
<path d="M109.212 99.6816H107.662V91.7233H109.15V93.0191H109.25C109.616 92.1733 110.4 91.6191 111.595 91.6191C113.225 91.6191 114.304 92.6483 114.304 94.6191V99.6816H112.754V94.8066C112.754 93.6524 112.116 92.9608 111.066 92.9608C110.016 92.9608 109.212 93.6858 109.212 94.9566V99.6816Z" fill="white"/>
<path d="M116.329 101.032L117.662 100.482C117.937 100.936 118.442 101.586 119.729 101.586C120.904 101.586 121.762 101.048 121.762 99.7983V98.2316H121.662C121.383 98.7399 120.817 99.5649 119.358 99.5649C117.479 99.5649 116.033 98.2108 116.033 95.6733C116.033 93.1358 117.45 91.6191 119.371 91.6191C120.854 91.6191 121.404 92.5191 121.675 93.0149H121.787V91.7233H123.304V99.8566C123.304 101.902 121.742 102.832 119.712 102.832C117.812 102.832 116.75 102.002 116.329 101.027V101.032ZM121.775 95.6524C121.775 94.0399 121.05 92.9358 119.696 92.9358C118.342 92.9358 117.592 94.1233 117.592 95.6524C117.592 97.1816 118.312 98.2775 119.696 98.2775C121.079 98.2775 121.775 97.2941 121.775 95.6524Z" fill="white"/>
<path d="M129.933 93.915C129.75 93.3816 129.308 92.8483 128.341 92.8483C127.462 92.8483 126.796 93.2816 126.804 93.8941C126.8 94.4316 127.179 94.7275 128.054 94.9358L129.316 95.2274C130.779 95.5649 131.491 96.2607 131.491 97.3816C131.491 98.8232 130.158 99.8441 128.237 99.8441C126.45 99.8441 125.279 99.0525 125.021 97.64L126.516 97.4108C126.704 98.1941 127.3 98.5941 128.225 98.5941C129.241 98.5941 129.9 98.1107 129.9 97.4941C129.9 96.9982 129.541 96.6566 128.775 96.4858L127.429 96.19C125.937 95.8566 125.254 95.1066 125.254 93.9774C125.254 92.5691 126.529 91.6191 128.325 91.6191C130.121 91.6191 131.012 92.4274 131.337 93.6649L129.933 93.915Z" fill="white"/>
<path d="M132.991 89.5732C132.991 89.0649 133.433 88.644 133.97 88.644C134.508 88.644 134.95 89.0649 134.95 89.5732C134.95 90.0815 134.504 90.494 133.97 90.494C133.437 90.494 132.991 90.0774 132.991 89.5732ZM133.187 91.7233H134.737V99.6815H133.187V91.7233Z" fill="white"/>
<path d="M145.725 91.7233H147.279V99.6815H145.754V98.3024H145.67C145.304 99.1524 144.487 99.7857 143.291 99.7857C141.762 99.7857 140.679 98.7607 140.679 96.7857V91.7233H142.229V96.5982C142.229 97.6816 142.891 98.3774 143.85 98.3774C144.72 98.3774 145.725 97.7357 145.72 96.3816V91.7233H145.725Z" fill="white"/>
<path d="M153.912 93.915C153.729 93.3816 153.287 92.8483 152.321 92.8483C151.442 92.8483 150.775 93.2816 150.783 93.8941C150.779 94.4316 151.158 94.7275 152.033 94.9358L153.296 95.2274C154.758 95.5649 155.471 96.2607 155.471 97.3816C155.471 98.8232 154.137 99.8441 152.217 99.8441C150.429 99.8441 149.258 99.0525 149 97.64L150.496 97.4108C150.683 98.1941 151.279 98.5941 152.204 98.5941C153.221 98.5941 153.879 98.1107 153.879 97.4941C153.879 96.9982 153.521 96.6566 152.754 96.4858L151.408 96.19C149.917 95.8566 149.233 95.1066 149.233 93.9774C149.233 92.5691 150.508 91.6191 152.304 91.6191C154.1 91.6191 154.992 92.4274 155.317 93.6649L153.912 93.915Z" fill="white"/>
<path d="M156.791 97.4358C156.791 95.6275 158.337 95.2317 159.841 95.0567C161.27 94.89 161.854 94.9025 161.854 94.3358V94.2983C161.854 93.3983 161.341 92.8733 160.341 92.8733C159.341 92.8733 158.72 93.4191 158.491 93.9816L157.033 93.6483C157.55 92.1983 158.879 91.615 160.316 91.615C161.579 91.615 163.404 92.0775 163.404 94.3941V99.6774H161.891V98.59H161.829C161.533 99.1858 160.791 99.8525 159.475 99.8525C157.962 99.8525 156.787 98.9941 156.787 97.4275L156.791 97.4358ZM161.858 96.815V95.79C161.633 96.0108 160.441 96.1483 159.941 96.215C159.045 96.3358 158.308 96.6317 158.308 97.4567C158.308 98.2233 158.941 98.6191 159.816 98.6191C161.108 98.6191 161.858 97.7608 161.858 96.815Z" fill="white"/>
<path d="M167.017 99.6816H165.467V89.0691H166.996V93.0191H167.096C167.471 92.1608 168.217 91.6191 169.454 91.6191C171.092 91.6191 172.179 92.6358 172.179 94.6191V99.6816H170.629V94.8066C170.629 93.6399 169.992 92.9608 168.925 92.9608C167.858 92.9608 167.017 93.6858 167.017 94.9566V99.6816Z" fill="white"/>
<path d="M173.87 97.4358C173.87 95.6275 175.416 95.2317 176.92 95.0567C178.35 94.89 178.933 94.9025 178.933 94.3358V94.2983C178.933 93.3983 178.42 92.8733 177.42 92.8733C176.42 92.8733 175.8 93.4191 175.57 93.9816L174.112 93.6483C174.629 92.1983 175.958 91.615 177.395 91.615C178.658 91.615 180.483 92.0775 180.483 94.3941V99.6774H178.97V98.59H178.908C178.612 99.1858 177.87 99.8525 176.554 99.8525C175.041 99.8525 173.866 98.9941 173.866 97.4275L173.87 97.4358ZM178.937 96.815V95.79C178.712 96.0108 177.52 96.1483 177.02 96.215C176.125 96.3358 175.387 96.6317 175.387 97.4567C175.387 98.2233 176.02 98.6191 176.895 98.6191C178.187 98.6191 178.937 97.7608 178.937 96.815Z" fill="white"/>
<path d="M186.213 89.5732C186.213 89.0649 186.655 88.644 187.192 88.644C187.73 88.644 188.171 89.0649 188.171 89.5732C188.171 90.0815 187.725 90.494 187.192 90.494C186.659 90.494 186.213 90.0774 186.213 89.5732ZM186.409 91.7233H187.959V99.6815H186.409V91.7233Z" fill="white"/>
<path d="M191.587 99.6816H190.037V91.7233H191.525V93.0191H191.625C191.991 92.1733 192.775 91.6191 193.97 91.6191C195.6 91.6191 196.679 92.6483 196.679 94.6191V99.6816H195.129V94.8066C195.129 93.6524 194.491 92.9608 193.441 92.9608C192.391 92.9608 191.587 93.6858 191.587 94.9566V99.6816Z" fill="white"/>
<path d="M198.554 89.5732C198.554 89.0649 198.995 88.644 199.533 88.644C200.07 88.644 200.512 89.0649 200.512 89.5732C200.512 90.0815 200.066 90.494 199.533 90.494C199 90.494 198.554 90.0774 198.554 89.5732ZM198.75 91.7233H200.3V99.6815H198.75V91.7233Z" fill="white"/>
<path d="M3.90149 1.48169L3.80566 1.51088C3.8515 1.50255 3.88899 1.49419 3.90149 1.48169Z" fill="#20BB65"/>
<path d="M4.87207 5.11086C4.87207 5.11086 4.88457 5.11086 4.8929 5.10669C4.88457 5.10669 4.87624 5.10669 4.87207 5.11086Z" fill="#20BB65"/>
<path d="M0.901007 1.66921C0.813507 1.91505 0.376011 2.04419 0.592678 2.26502C0.576011 2.39002 0.701008 2.49838 0.771842 2.60254C1.12601 2.59838 0.801003 2.7526 1.10517 2.76093L0.913519 2.82339C1.01769 2.82339 1.08852 2.84011 0.988516 2.88178L0.930177 2.89002C1.08434 2.89419 1.00517 2.94841 1.08017 2.94841L1.02186 2.95675L1.05517 2.99012L0.971859 2.99836C1.13853 3.02336 1.15936 3.08174 1.10102 3.1484L1.3385 3.09428C1.09684 3.25678 1.59685 3.19424 1.30519 3.36091L1.24685 3.37342C1.89685 3.36092 0.863521 3.66506 1.48852 3.66089C1.40935 3.66089 1.36767 3.69427 1.3135 3.70677C1.39684 3.74844 1.44685 3.80259 1.90519 3.69426C1.90519 3.73593 1.76769 3.76511 1.59269 3.81094C1.79685 3.76094 1.88853 3.7776 1.90936 3.80677H1.82602L1.91767 3.88591L2.29269 3.7734C2.19685 3.8484 1.83019 3.90262 1.93436 3.92762L2.251 3.8442C2.20517 3.92754 1.73851 4.0901 1.52601 4.21926C1.46767 4.54426 2.351 4.60257 1.88433 5.0234L1.65517 5.11089C1.31767 5.22755 2.18018 5.01924 1.86768 5.13174L2.03435 5.11089C1.97602 5.14005 1.91767 5.17753 1.83434 5.19003C1.83434 5.22336 1.88434 5.20253 1.99684 5.19003L1.79685 5.29002C1.67185 5.45669 2.10936 5.41091 2.06352 5.55258C1.68852 5.84008 2.17186 5.96502 2.45519 6.01502C3.02602 6.01502 1.81351 6.79421 2.46768 6.76921C2.42601 6.79838 2.53851 6.76919 2.57184 6.75253L2.60936 6.96086C2.60936 6.96086 2.68436 7.20672 3.05519 7.19839C3.42603 7.19839 4.07186 6.90675 5.26769 5.97341L5.33852 5.94422C5.46768 5.77755 5.48435 5.71086 5.10101 5.81086C5.53435 5.60252 5.1135 5.71922 5.24684 5.63589L5.28435 5.62338C4.92185 5.71921 5.51767 5.39427 5.19267 5.47343C5.23017 5.46093 5.35102 5.41088 5.36352 5.41922C5.29268 5.40672 5.17184 5.39835 5.43017 5.28585C5.32601 5.22752 5.39267 5.05677 4.95934 5.16511L5.03436 5.14008C4.74269 5.21925 4.97602 5.11507 4.81768 5.13174C4.85102 5.11507 4.86767 5.10671 4.88017 5.10254C4.5885 5.17338 4.79685 5.01508 4.66352 5.03174L4.83434 4.96511L4.76769 4.90672L4.73852 4.94843C4.25935 5.11926 5.01769 4.78176 4.68852 4.84426C4.73019 4.77343 3.65518 5.10678 3.87184 4.96511C3.63851 5.01928 4.24685 4.8567 4.05935 4.8817C4.30935 4.79003 4.22184 4.84428 4.41767 4.76095C4.28434 4.76512 4.65101 4.61092 4.46767 4.62342L4.66352 4.55262C4.28435 4.61928 4.88435 4.3526 4.53018 4.43177C4.34685 4.42343 5.10102 4.19837 4.69269 4.26087L4.95102 4.14836C4.98435 4.10669 4.61768 4.23588 4.73852 4.16504C4.90518 4.11088 4.85935 4.08587 5.02602 4.05254C5.26768 3.9067 4.60935 4.03594 5.02602 3.81094C4.69268 3.89011 4.87184 3.79004 4.62184 3.84837C4.7635 3.80254 4.62185 3.75261 4.94685 3.71094C4.97185 3.71094 4.97184 3.71503 4.91351 3.73169L5.10936 3.68175C5.46352 3.52341 4.88018 3.65259 4.92185 3.58592C4.85935 3.61926 4.88436 3.63173 4.74686 3.66089L4.75934 3.60678L4.92602 3.56924L5.00519 3.47341L4.80517 3.54004C4.90101 3.47754 5.24685 3.36919 4.94268 3.41085C4.77601 3.44002 4.67601 3.51928 4.60101 3.50261C4.73018 3.41928 4.92184 3.29421 4.96768 3.22337C4.73851 3.29004 4.74269 3.27342 4.69269 3.26925L4.89268 3.21503C4.59685 3.22753 5.33017 3.0776 5.09267 3.0776L5.23435 3.04841L4.80934 3.14006C4.39684 3.18589 5.21768 3.00677 4.65935 3.08177C4.70102 3.09844 4.21768 3.20257 4.29685 3.15257L4.49267 3.11087C4.44684 3.10253 4.36352 3.11919 4.40102 3.09835C4.50935 3.08169 4.68434 3.03588 4.64684 3.01921L4.89268 2.97761L4.52184 3.01921C4.72184 2.93588 4.44685 2.94009 4.71769 2.86093C4.71769 2.86093 4.83435 2.75671 4.53018 2.80671C4.72185 2.77754 4.78436 2.72336 5.00519 2.68586C4.78852 2.71502 4.60103 2.69423 4.82603 2.6234H4.85102C5.06352 2.49006 4.50102 2.54422 4.76769 2.40672C4.53435 2.45672 4.65102 2.39011 4.35102 2.46094C4.03852 2.43594 4.9385 2.19426 3.99684 2.34426C3.9385 2.3151 4.20936 2.25676 4.25102 2.23176H4.30102C4.21352 2.17759 4.19684 2.15673 4.20934 2.10256C4.11351 2.09423 3.67602 2.16506 3.77602 2.09839C3.95102 2.08589 3.91769 2.06928 3.91352 2.05262C3.94269 2.06095 4.00519 2.05258 4.11769 2.01091C4.06352 2.01508 4.03018 2.01925 4.00101 2.01508C4.01351 2.01508 4.02602 2.01091 4.04269 2.00674C3.97602 1.98591 3.92185 2.00258 3.90101 2.01925C3.87601 2.01925 3.84268 2.03178 3.79268 2.04428C4.01351 1.97761 3.76351 1.96091 4.05935 1.90674C3.97601 1.83174 3.65517 1.81503 3.53017 1.75253C3.68434 1.71919 3.82185 1.71928 3.88435 1.73178L3.82184 1.6859C4.04268 1.65256 3.95518 1.69842 4.00101 1.70675C4.35101 1.59425 3.626 1.62759 3.94267 1.50676L3.76351 1.5151L3.79268 1.50676C3.70101 1.51926 3.57185 1.51926 3.53851 1.51093C3.73018 1.47343 3.98433 1.45261 3.96767 1.41511C4.151 1.36094 3.86352 1.34428 3.75519 1.31928C3.72602 1.34428 3.61769 1.35254 3.54686 1.34837C3.53852 1.33171 3.73019 1.29425 3.64685 1.29008L3.90935 1.25672C3.66352 1.29422 3.63851 1.24004 3.53017 1.24838C3.72184 1.21504 3.70101 1.25671 3.84684 1.24421C3.81351 1.17337 3.83018 1.21087 3.79685 1.14004C3.59685 1.12337 3.55101 1.17758 3.32184 1.18175C3.26767 1.15258 3.08019 1.13591 3.23436 1.07758L3.00517 1.11512C2.81767 1.06512 2.84268 1.01923 3.07185 0.95256C2.10102 0.79006 1.45102 0.806764 1.04686 0.88593C0.642689 0.96093 0.48017 1.09426 0.48017 1.09426C-0.0114968 1.37343 0.67602 1.42754 0.88852 1.66504L0.901007 1.66921Z" fill="#20BB65"/>
<path d="M11.6639 13.0648L11.6348 13.1606C11.6598 13.1231 11.6723 13.0857 11.6639 13.0648Z" fill="#20BB65"/>
<path d="M18.6758 16.4941C18.6758 16.4941 18.6841 16.4858 18.6883 16.4774C18.6799 16.4816 18.6758 16.4899 18.6758 16.4941Z" fill="#20BB65"/>
<path d="M10.9925 16.5026C10.9925 16.5026 10.98 16.5109 10.9717 16.5192L10.9925 16.5026Z" fill="#20BB65"/>
<path d="M9.66345 15.34C9.97595 15.6859 9.83011 16.1442 10.3384 16.24C10.5134 16.39 10.7718 16.4359 10.9926 16.4984C11.2634 16.2484 11.2468 16.64 11.5009 16.4483L11.4426 16.6442C11.5301 16.5775 11.6051 16.5442 11.5884 16.6608L11.5593 16.7109C11.6884 16.6109 11.7093 16.7234 11.7718 16.6734L11.7426 16.7234L11.8218 16.7401L11.7676 16.8067C11.9426 16.7192 12.0468 16.765 12.1009 16.8817L12.2093 16.665C12.2676 17.0067 12.5718 16.6025 12.5926 16.9733L12.5634 17.0234C13.0759 16.5734 12.7009 17.59 13.2051 17.165C13.1426 17.2192 13.1593 17.2817 13.1301 17.3317C13.2635 17.3234 13.3926 17.3442 13.6051 16.9192C13.6759 16.9609 13.5968 17.0818 13.5259 17.2526C13.6176 17.0651 13.7218 17.0192 13.7843 17.0401L13.7218 17.0984L13.9176 17.1192L14.0593 16.7483C14.0968 16.8942 13.8718 17.1901 13.9968 17.1442L14.1384 16.8525C14.2301 16.9692 14.0884 17.4442 14.1051 17.7192C14.5509 18.0859 15.4218 17.5692 15.6593 18.2901L15.5843 18.5233C15.4551 18.8567 15.9218 18.0901 15.8093 18.4026L15.9259 18.2734C15.9176 18.3401 15.9259 18.4151 15.8634 18.4776C15.9093 18.5109 15.9343 18.4567 16.0093 18.3734L15.9759 18.6026C16.1093 18.8484 16.4426 18.5151 16.6218 18.6817C16.7051 19.2067 17.3426 19.0025 17.7009 18.8817C18.2676 18.5234 18.2384 20.0275 18.8468 19.59C18.8468 19.6442 18.9134 19.5484 18.9259 19.5067L19.276 19.6817C19.276 19.6817 19.7134 19.8609 20.0884 19.6317C20.4718 19.4026 20.7718 18.7609 20.5843 17.1401L20.6176 17.0692C20.4843 16.8275 20.3801 16.7483 20.1218 17.0733C20.2551 16.6108 19.9801 16.9734 19.9884 16.8109L20.0051 16.7734C19.7676 17.0817 19.8676 16.4025 19.6468 16.6734C19.6634 16.64 19.7093 16.5151 19.7384 16.5151C19.6384 16.5442 19.4926 16.6067 19.5801 16.34C19.3634 16.34 19.1426 16.1192 18.8634 16.4942L18.8968 16.4234C18.7218 16.6818 18.7884 16.4317 18.6593 16.5483C18.6676 16.5108 18.6676 16.4942 18.6759 16.4775C18.4968 16.7275 18.4384 16.4359 18.3301 16.5318L18.3926 16.3567L18.2259 16.34L18.2676 16.3984C18.0634 16.8651 18.2676 16.0568 18.0384 16.3234C17.9593 16.2234 17.4426 17.2275 17.4218 16.9525C17.2801 17.1525 17.6093 16.6108 17.4676 16.7483C17.5634 16.4983 17.5634 16.6067 17.6259 16.4026C17.5051 16.4901 17.6051 16.1025 17.4468 16.2317L17.5218 16.04C17.2593 16.3442 17.4009 15.6984 17.1843 15.9984C16.9968 16.1026 17.3384 15.3942 17.0551 15.715L17.1134 15.4359C17.0759 15.3692 16.9426 15.7359 16.9343 15.5859C17.0051 15.4234 16.9135 15.4233 17.0135 15.2858C16.9885 14.9733 16.5801 15.5317 16.5926 15.0234C16.4176 15.3192 16.4093 15.0942 16.2759 15.315C16.3301 15.1775 16.1093 15.2151 16.3384 14.9609C16.3593 14.9401 16.3718 14.9525 16.3468 15.0025L16.4426 14.8234C16.5009 14.4276 16.176 14.9359 16.101 14.8359C16.101 14.9109 16.1509 14.9109 16.0634 15.0275L15.9843 14.9609L16.076 14.815L15.9801 14.6608L15.9093 14.8609C15.8884 14.7318 16.0176 14.3942 15.8176 14.6317C15.7134 14.7692 15.7593 14.9192 15.6593 14.9484C15.6301 14.7734 15.5926 14.5151 15.5051 14.4067C15.4134 14.6276 15.3843 14.6067 15.3343 14.6317L15.4218 14.4443C15.176 14.6443 15.5759 14.0108 15.3593 14.1608L15.4343 14.0358L15.2135 14.4109C14.926 14.7276 15.3468 13.9984 14.9801 14.4401C15.0426 14.4318 14.7968 14.8609 14.7801 14.7526L14.8843 14.5817C14.8343 14.6025 14.7843 14.6734 14.7843 14.6234C14.8509 14.5359 14.9259 14.3692 14.8634 14.3734L15.0093 14.165L14.7551 14.4484C14.7843 14.2234 14.5509 14.4108 14.6551 14.1442C14.6551 14.1442 14.5759 13.9442 14.3968 14.2026C14.5134 14.0484 14.4676 13.94 14.5968 13.7525C14.4593 13.9275 14.2635 14.0234 14.3301 13.7984L14.3509 13.7817C14.3009 13.4901 13.9176 13.9192 13.9135 13.5859C13.8051 13.7984 13.7926 13.6443 13.6593 13.9234C13.3593 14.1026 13.6926 13.2276 13.1676 14.0234C13.0718 14.0276 13.1968 13.7818 13.1884 13.7193L13.2301 13.6859C13.0634 13.6776 13.0218 13.6651 12.9384 13.5901C12.8426 13.6442 12.6093 14.0192 12.5801 13.8775C12.6968 13.7442 12.6468 13.7525 12.6134 13.7317C12.6468 13.7192 12.6884 13.6692 12.7051 13.5442C12.6718 13.5859 12.6468 13.6108 12.6218 13.6275C12.6301 13.615 12.6343 13.6067 12.6426 13.5901C12.5593 13.6109 12.5384 13.6651 12.5509 13.6984C12.5343 13.7192 12.5218 13.7526 12.5009 13.7984C12.5634 13.5734 12.3426 13.7192 12.4926 13.4567C12.3009 13.4192 12.0218 13.615 11.8259 13.6275C11.8968 13.4858 12.0009 13.3901 12.0676 13.3651L11.9426 13.3567C12.0634 13.1692 12.0635 13.2817 12.1176 13.2609C12.201 12.8901 11.6968 13.4192 11.751 13.0567L11.6259 13.1859L11.6343 13.1567C11.5843 13.2359 11.4843 13.3234 11.4468 13.3359C11.5343 13.1609 11.6968 12.9609 11.6259 12.9317C11.6801 12.7442 11.4343 12.9192 11.3093 12.9609C11.326 13.0109 11.2551 13.0942 11.2009 13.14C11.1676 13.1234 11.2593 12.9525 11.1884 13.0025L11.3343 12.7818C11.2051 12.9943 11.1009 12.9442 11.0301 13.0234C11.1218 12.8525 11.1718 12.9192 11.2634 12.8025C11.1259 12.7358 11.1968 12.7692 11.0593 12.7025C10.8801 12.8192 10.9301 12.9151 10.7635 13.0817C10.676 13.0817 10.5093 13.19 10.5343 13.015L10.4218 13.2192C10.201 13.29 10.1509 13.2151 10.2176 12.9692C9.23843 13.4234 8.78429 13.8942 8.60095 14.2692C8.41345 14.6442 8.48844 14.915 8.48844 14.915C8.53844 15.5984 9.13428 15.1859 9.65928 15.3317L9.66345 15.34Z" fill="#20BB65"/>
<path d="M30.6963 19.7151L30.7088 19.8151C30.7171 19.7693 30.7171 19.7318 30.6963 19.7151Z" fill="#20BB65"/>
<path d="M38.6377 20.9026C38.6377 20.9026 38.6419 20.89 38.646 20.8817C38.6419 20.89 38.6377 20.8942 38.6377 20.9026Z" fill="#20BB65"/>
<path d="M31.3416 23.1523C31.3416 23.1523 31.3333 23.1649 31.3291 23.1732L31.3416 23.1523Z" fill="#20BB65"/>
<path d="M29.7584 22.5941C30.1626 22.7899 30.1959 23.2566 30.6751 23.1566C30.8793 23.2316 31.1251 23.1691 31.3418 23.1525C31.5001 22.8233 31.6168 23.1941 31.7834 22.9233L31.7959 23.1274C31.8543 23.0358 31.9126 22.9775 31.9335 23.09L31.9209 23.1483C32.0043 23.0108 32.0584 23.1108 32.1001 23.04L32.0876 23.0982L32.1668 23.0858L32.1418 23.165C32.271 23.0233 32.3834 23.0316 32.4668 23.1191L32.5001 22.8775C32.6584 23.1775 32.8126 22.6941 32.9459 23.0441L32.9334 23.1024C33.2668 22.5108 33.2293 23.5899 33.5626 23.0316C33.5209 23.1024 33.5543 23.1566 33.5459 23.2149C33.6668 23.1649 33.7876 23.1483 33.8626 22.6775C33.9418 22.6942 33.9043 22.8358 33.8876 23.0191C33.921 22.8149 34.0001 22.74 34.0668 22.7358L34.0251 22.8108L34.2126 22.7692L34.2376 22.3774C34.3168 22.5024 34.1876 22.8567 34.2959 22.7733L34.3459 22.4525C34.4668 22.5358 34.471 23.0358 34.5626 23.29C35.071 23.5067 35.7584 22.7692 36.1668 23.4025L36.1543 23.6483C36.1126 24.0024 36.3626 23.1441 36.3376 23.4733L36.4168 23.3191C36.4251 23.3858 36.4501 23.4566 36.4084 23.5316C36.4584 23.5524 36.4668 23.4942 36.5209 23.3942L36.5459 23.6233C36.7334 23.8233 36.9668 23.4233 37.1751 23.5358C37.3793 24.0191 37.9334 23.6733 38.2459 23.4691C38.7126 22.99 39.0084 24.4608 39.4918 23.9025C39.5001 23.9525 39.5459 23.8442 39.5501 23.8067L39.9209 23.9025C39.9209 23.9025 40.3751 23.99 40.6959 23.69C41.0168 23.39 41.2001 22.6983 40.6835 21.1483L40.7001 21.0733C40.5168 20.8608 40.3959 20.8066 40.2084 21.1775C40.2418 20.6983 40.0459 21.1066 40.0168 20.9483L40.0251 20.9107C39.8584 21.2607 39.8084 20.5775 39.6459 20.89C39.6543 20.8525 39.6751 20.7233 39.7001 20.7191C39.6043 20.7691 39.4751 20.8608 39.5001 20.5817C39.2834 20.6275 39.0084 20.465 38.8209 20.89L38.8418 20.8149C38.7293 21.1024 38.7376 20.8483 38.6334 20.99C38.6334 20.9525 38.6334 20.9316 38.6334 20.9191C38.5126 21.2024 38.3876 20.9358 38.3043 21.0524L38.3251 20.8691L38.1543 20.89L38.2126 20.9358C38.1251 21.4399 38.1293 20.6024 37.9668 20.9149C37.8626 20.8358 37.6001 21.9358 37.5168 21.6733C37.4293 21.9024 37.6168 21.2941 37.5084 21.4649C37.5418 21.2024 37.5709 21.3067 37.5751 21.09C37.4751 21.2025 37.4793 20.8025 37.3543 20.9691L37.3793 20.765C37.2001 21.1233 37.1709 20.4607 37.0334 20.8066C36.8751 20.9566 37.0251 20.1858 36.8334 20.5692L36.8168 20.2857C36.7626 20.2316 36.7251 20.6192 36.6793 20.4775C36.7084 20.3025 36.6168 20.3275 36.6793 20.165C36.5668 19.8692 36.3209 20.5108 36.1876 20.0191C36.0959 20.3525 36.0251 20.1358 35.9584 20.3858C35.9751 20.2358 35.7626 20.3316 35.9209 20.0275C35.9334 20.0025 35.9501 20.0108 35.9418 20.0692L35.9834 19.8691C35.9251 19.4732 35.7501 20.0482 35.6459 19.9732C35.6709 20.0441 35.7168 20.0358 35.6668 20.1692L35.5668 20.1275L35.6126 19.9608L35.4751 19.84L35.4668 20.0525C35.4084 19.9317 35.4334 19.5733 35.3043 19.8567C35.2418 20.0192 35.3334 20.1483 35.2459 20.2024C35.1668 20.0441 35.0501 19.8066 34.9293 19.7233C34.9043 19.9608 34.8709 19.9483 34.8293 19.9899L34.8543 19.7858C34.6751 20.0483 34.8751 19.3275 34.7043 19.5317L34.7376 19.39L34.6376 19.815C34.4543 20.2025 34.6376 19.3775 34.4168 19.915C34.4751 19.89 34.3709 20.3692 34.3209 20.2733L34.3668 20.0774C34.3251 20.1149 34.3001 20.1941 34.2793 20.1483C34.3168 20.0441 34.3376 19.8608 34.2793 19.8858L34.3543 19.6442L34.1959 19.9941C34.1501 19.7691 33.9834 20.015 33.9959 19.7316C33.9959 19.7316 33.8501 19.5691 33.7626 19.8691C33.8251 19.6857 33.746 19.5983 33.8085 19.3774C33.7293 19.5858 33.5751 19.74 33.5584 19.5025L33.5709 19.4774C33.4209 19.2149 33.1918 19.7442 33.0709 19.4317C33.0376 19.6692 32.9709 19.5275 32.9418 19.8316C32.7126 20.1025 32.7251 19.1608 32.5001 20.0858C32.4126 20.1233 32.4418 19.8483 32.4084 19.7941L32.4376 19.7483C32.2751 19.7983 32.2293 19.8025 32.1209 19.7608C32.0501 19.8442 31.9626 20.2775 31.8834 20.1525C31.9459 19.9858 31.9001 20.0108 31.8626 20.0024C31.8918 19.9774 31.9084 19.9191 31.8793 19.7941C31.8626 19.8483 31.8459 19.8774 31.8334 19.9024C31.8334 19.8899 31.8334 19.8775 31.8376 19.8608C31.7626 19.9108 31.7668 19.9649 31.7918 19.9941C31.7876 20.0191 31.7834 20.0566 31.7834 20.1024C31.7584 19.8691 31.6001 20.0858 31.646 19.7858C31.446 19.8191 31.2584 20.1024 31.0793 20.1899C31.0876 20.0358 31.1501 19.9067 31.2084 19.8525L31.0876 19.8899C31.1293 19.6691 31.1751 19.7733 31.2168 19.7358C31.1501 19.3567 30.8793 20.0399 30.7834 19.6858L30.7209 19.8525V19.8233C30.7001 19.915 30.6418 20.0358 30.6126 20.0608C30.6251 19.865 30.6959 19.6191 30.6168 19.6191C30.5918 19.4233 30.4293 19.6816 30.3293 19.7691C30.3668 19.8108 30.3293 19.9149 30.3001 19.9774C30.2626 19.9774 30.2751 19.7817 30.2293 19.8567L30.2751 19.5983C30.2459 19.8441 30.1251 19.84 30.0918 19.9442C30.1084 19.7483 30.1834 19.79 30.2209 19.6483C30.0626 19.6442 30.1418 19.6483 29.9834 19.64C29.8626 19.8192 29.9501 19.8858 29.8668 20.1066C29.7834 20.1441 29.6793 20.3108 29.6251 20.14L29.6084 20.3733C29.4376 20.5233 29.3584 20.4816 29.3126 20.2316C28.6168 21.0608 28.4293 21.6858 28.4251 22.1025C28.4168 22.5191 28.5876 22.7316 28.5876 22.7316C28.8959 23.3191 29.2418 22.6941 29.7626 22.6108L29.7584 22.5941Z" fill="#20BB65"/>
<path d="M51.1758 22.1318L51.2008 22.2318C51.2008 22.186 51.2008 22.1485 51.1758 22.1318Z" fill="#20BB65"/>
<path d="M59.2295 22.6107C59.2295 22.6107 59.2337 22.5982 59.2378 22.5898C59.2337 22.5982 59.2295 22.6024 59.2295 22.6107Z" fill="#20BB65"/>
<path d="M52.1753 25.4692C52.1753 25.4692 52.1712 25.4817 52.167 25.4942L52.1795 25.4692H52.1753Z" fill="#20BB65"/>
<path d="M50.559 25.0985C50.9798 25.2443 51.059 25.7027 51.5173 25.5443C51.7257 25.5943 51.959 25.5069 52.1715 25.4652C52.2965 25.1194 52.4423 25.4776 52.5798 25.1901L52.609 25.3901C52.6548 25.2901 52.709 25.2277 52.7423 25.336L52.734 25.3943C52.8048 25.2485 52.8673 25.3402 52.9006 25.2694L52.8923 25.3277L52.9673 25.3068L52.9507 25.3901C53.0673 25.2359 53.1757 25.2318 53.2632 25.311L53.2715 25.0694C53.4548 25.3527 53.5632 24.8568 53.7257 25.1901L53.7173 25.2485C53.9923 24.6277 54.0548 25.7068 54.334 25.1152C54.3006 25.1902 54.3381 25.2401 54.334 25.2985C54.4465 25.236 54.5673 25.2069 54.6006 24.736C54.6798 24.7485 54.6548 24.8902 54.6548 25.0735C54.6673 24.8652 54.7423 24.786 54.8048 24.7735L54.7715 24.8527L54.9548 24.7943L54.9465 24.3985C55.034 24.5193 54.9382 24.8776 55.034 24.7901L55.0548 24.4651C55.1798 24.536 55.2257 25.036 55.3382 25.2819C55.859 25.4527 56.4798 24.661 56.934 25.2652L56.9423 25.511C56.9298 25.8693 57.109 24.9902 57.109 25.3235L57.1756 25.1652C57.1881 25.2319 57.2173 25.2985 57.184 25.3777C57.234 25.3944 57.2423 25.336 57.284 25.2318L57.3257 25.4568C57.5257 25.6443 57.7257 25.2277 57.9423 25.3277C58.1798 25.7985 58.7006 25.411 59.0006 25.1901C59.434 24.6818 59.8173 26.1318 60.2673 25.5485C60.2798 25.5985 60.3173 25.4902 60.3215 25.4485L60.6965 25.5235C60.6965 25.5235 62.5132 25.7777 61.284 22.7318L61.2965 22.6569C61.1007 22.4527 60.9757 22.4068 60.8132 22.7859C60.8132 22.3068 60.6465 22.7277 60.609 22.5694L60.6173 22.5318C60.4715 22.8943 60.3757 22.2068 60.2382 22.5318C60.2465 22.4943 60.2548 22.361 60.284 22.3569C60.1923 22.411 60.0673 22.511 60.0757 22.2319C59.8632 22.2902 59.5756 22.1443 59.4173 22.5818L59.4298 22.5068C59.334 22.8026 59.3298 22.5443 59.234 22.6943C59.234 22.6568 59.2256 22.6402 59.2298 22.6235C59.1298 22.9152 58.984 22.6527 58.909 22.7777L58.9173 22.5901L58.7507 22.6235L58.809 22.6652C58.759 23.1735 58.7007 22.336 58.5632 22.661C58.4548 22.5902 58.2715 23.7068 58.1673 23.4485C58.0965 23.6818 58.2382 23.0652 58.1465 23.2443C58.159 22.9777 58.1965 23.0819 58.1881 22.8652C58.1006 22.986 58.0715 22.586 57.959 22.7569L57.9673 22.5485C57.8132 22.9194 57.734 22.261 57.6257 22.6152C57.4798 22.7777 57.5715 21.9943 57.4048 22.3901L57.3673 22.1068C57.309 22.0568 57.3007 22.4485 57.2423 22.3068C57.259 22.1318 57.1673 22.161 57.2173 21.9943C57.084 21.711 56.884 22.3652 56.7132 21.886C56.6465 22.2277 56.559 22.0151 56.5132 22.2693C56.5173 22.1193 56.3131 22.2318 56.4465 21.9152C56.459 21.8902 56.4756 21.8943 56.4715 21.9526L56.4965 21.7485C56.409 21.3568 56.2757 21.9485 56.1673 21.8818C56.1965 21.9526 56.2423 21.936 56.2048 22.0735L56.1007 22.0402L56.134 21.8693L55.984 21.761L55.9923 21.9735C55.9215 21.861 55.9215 21.4985 55.8132 21.7943C55.7632 21.961 55.8673 22.086 55.7798 22.1444C55.6882 21.9944 55.5465 21.7652 55.4215 21.6943C55.4215 21.9318 55.384 21.9235 55.3423 21.9693L55.3506 21.761C55.1923 22.0401 55.3298 21.3027 55.1756 21.5235L55.1965 21.3818L55.1298 21.811C54.9798 22.2152 55.0923 21.3777 54.9173 21.9277C54.9757 21.8944 54.9132 22.386 54.8507 22.2901L54.8798 22.0901C54.8381 22.1318 54.8215 22.211 54.8006 22.1693C54.8298 22.061 54.8298 21.8777 54.7756 21.911L54.8298 21.6651L54.7006 22.0277C54.634 21.8069 54.4923 22.0693 54.4757 21.786C54.4757 21.786 54.3131 21.636 54.2548 21.9444C54.3006 21.7569 54.2131 21.6776 54.2548 21.4526C54.1965 21.6651 54.0507 21.836 54.0173 21.6027L54.0298 21.5777C53.8506 21.3277 53.6757 21.8777 53.5215 21.5818C53.5132 21.8235 53.4298 21.686 53.4298 21.9943C53.2298 22.286 53.1465 21.3485 53.0131 22.2943C52.9256 22.3401 52.9298 22.0652 52.8923 22.0152L52.9173 21.9651C52.759 22.0318 52.7132 22.0402 52.6007 22.011C52.5382 22.0985 52.4965 22.5402 52.4007 22.4277C52.4465 22.2527 52.4006 22.286 52.3631 22.2818C52.3881 22.2568 52.4006 22.1901 52.3631 22.0693C52.3506 22.1235 52.3382 22.1568 52.3257 22.1818C52.3257 22.1693 52.3257 22.1569 52.3257 22.1402C52.259 22.1985 52.2632 22.2526 52.2923 22.2776C52.2923 22.3026 52.2923 22.3401 52.2923 22.386C52.2423 22.1568 52.1048 22.386 52.1215 22.086C51.9256 22.1443 51.7632 22.4444 51.5965 22.5527C51.5882 22.3985 51.6382 22.261 51.6882 22.2068L51.5715 22.2569C51.5881 22.036 51.6465 22.1318 51.684 22.0901C51.5756 21.7193 51.3798 22.4318 51.2465 22.0901L51.2007 22.2651L51.1923 22.236C51.184 22.3277 51.1423 22.4526 51.1131 22.4818C51.1048 22.286 51.1465 22.036 51.0673 22.0402C51.0215 21.8485 50.884 22.1235 50.7965 22.2235C50.8381 22.261 50.8173 22.3652 50.7923 22.4318C50.7506 22.4318 50.7465 22.2402 50.709 22.3235L50.7257 22.061C50.7257 22.3068 50.6048 22.3193 50.5798 22.4277C50.5715 22.2318 50.6548 22.2652 50.6757 22.1193C50.5173 22.1318 50.5965 22.1277 50.4382 22.1402C50.3382 22.3319 50.4381 22.3902 50.3756 22.6152C50.2965 22.661 50.2132 22.8402 50.1382 22.6777L50.1465 22.911C49.9923 23.0818 49.9132 23.0485 49.8382 22.811C48.6507 24.636 49.4173 25.3819 49.4173 25.3819C49.7881 25.9235 50.0507 25.2568 50.5548 25.1068L50.559 25.0985Z" fill="#20BB65"/>
<path d="M71.8682 23.2942L71.8973 23.3942C71.8973 23.3484 71.8932 23.3109 71.8682 23.2942Z" fill="#20BB65"/>
<path d="M79.9668 23.6441C79.9668 23.6441 79.971 23.6316 79.9751 23.6233C79.971 23.6316 79.9668 23.6358 79.9668 23.6441Z" fill="#20BB65"/>
<path d="M72.9585 26.6191C72.9585 26.6191 72.9544 26.6316 72.9502 26.6441L72.9627 26.6191H72.9585Z" fill="#20BB65"/>
<path d="M71.3423 26.2776C71.7632 26.4151 71.8548 26.8734 72.309 26.7109C72.5173 26.7568 72.7507 26.6651 72.959 26.6193C73.0757 26.2734 73.2298 26.6275 73.359 26.3359L73.3965 26.5359C73.4423 26.4359 73.4923 26.3693 73.5256 26.4818V26.54C73.5881 26.39 73.6507 26.4859 73.684 26.4109V26.4692L73.7507 26.4484L73.734 26.5318C73.8465 26.3776 73.9548 26.3692 74.0465 26.4484V26.2068C74.2381 26.486 74.3382 25.9901 74.5048 26.3193V26.3776C74.759 25.7526 74.8423 26.8275 75.109 26.2359C75.0757 26.3109 75.1173 26.361 75.109 26.4193C75.2215 26.3568 75.3423 26.3234 75.3673 25.8526C75.4465 25.8609 75.4256 26.0026 75.4256 26.1859C75.434 25.9776 75.509 25.8943 75.5715 25.8859L75.5382 25.9651L75.7215 25.9026L75.7048 25.5067C75.7923 25.6234 75.7048 25.986 75.8007 25.8943L75.8173 25.5693C75.9465 25.6401 75.9965 26.1359 76.1132 26.3818C76.634 26.5443 77.2423 25.7442 77.7048 26.34L77.7132 26.5859C77.7048 26.9443 77.8757 26.0651 77.8757 26.3943L77.9423 26.2359C77.9548 26.2984 77.984 26.3692 77.9548 26.4484C78.0048 26.4651 78.0132 26.4068 78.0548 26.2984L78.1007 26.5235C78.3007 26.7068 78.5007 26.2859 78.7132 26.3818C78.9548 26.8484 79.4715 26.4525 79.7673 26.2275C80.1965 25.715 80.5882 27.1567 81.0298 26.5651C81.0423 26.6151 81.0798 26.5026 81.084 26.4651L81.459 26.5318C81.459 26.5318 83.2757 26.7567 82.0423 23.7317L82.0548 23.6567C81.859 23.4567 81.7298 23.4109 81.5673 23.7943C81.5673 23.3151 81.4007 23.7359 81.359 23.5776L81.3673 23.5401C81.2215 23.9026 81.1257 23.2192 80.9882 23.5442C80.9965 23.5067 81.0048 23.3734 81.034 23.3693C80.9423 23.4276 80.8173 23.5276 80.8257 23.2484C80.6132 23.3109 80.3215 23.1693 80.1673 23.6068L80.1798 23.5317C80.0882 23.8276 80.0798 23.5735 79.984 23.7193C79.984 23.6818 79.9757 23.6651 79.9798 23.6484C79.8798 23.9401 79.734 23.6818 79.659 23.8068V23.6192L79.4965 23.6526L79.559 23.6943C79.5132 24.2026 79.4507 23.3693 79.3132 23.6943C79.2048 23.6234 79.0298 24.7442 78.9257 24.4859C78.859 24.7234 78.9965 24.1026 78.9007 24.2817C78.9132 24.0151 78.9465 24.1151 78.9382 23.9026C78.8507 24.0234 78.8173 23.6234 78.7048 23.7984V23.5901C78.559 23.9609 78.4757 23.3067 78.3673 23.6609C78.2215 23.8234 78.3048 23.0401 78.1423 23.4401L78.1007 23.1568C78.0423 23.1068 78.0382 23.4984 77.9798 23.3609C77.9923 23.1859 77.9007 23.2151 77.9507 23.0526C77.8132 22.7693 77.6215 23.4276 77.4423 22.9526C77.3798 23.2943 77.2923 23.0859 77.2465 23.3401C77.2465 23.1901 77.0465 23.3068 77.1757 22.986C77.1882 22.961 77.2048 22.9651 77.2007 23.0234L77.2257 22.8192C77.1298 22.4276 77.0048 23.0193 76.8965 22.9568C76.9257 23.0276 76.9715 23.0109 76.934 23.1484L76.8298 23.1151L76.859 22.9443L76.7048 22.8359L76.7173 23.0484C76.6465 22.9359 76.6382 22.5734 76.534 22.8693C76.4882 23.0359 76.5923 23.1567 76.509 23.2192C76.4132 23.0692 76.2715 22.8443 76.1423 22.7735C76.1423 23.011 76.109 23.0026 76.0673 23.0484V22.8401C75.9215 23.1193 76.0465 22.3817 75.8965 22.6026L75.9173 22.4568L75.859 22.89C75.7132 23.2942 75.8132 22.4567 75.6465 23.0109C75.7048 22.9776 75.6465 23.4693 75.5882 23.3776L75.6132 23.1776C75.5757 23.2193 75.559 23.3026 75.534 23.2568C75.5632 23.1484 75.559 22.965 75.5048 22.9984L75.5548 22.7484L75.434 23.1109C75.3632 22.8942 75.2257 23.1568 75.2048 22.8735C75.2048 22.8735 75.0381 22.7276 74.984 23.0359C75.0298 22.8442 74.9382 22.7693 74.9757 22.5443C74.9215 22.7609 74.7798 22.9317 74.7382 22.6984L74.7507 22.6735C74.5673 22.4276 74.4007 22.9817 74.2382 22.6859C74.2382 22.9275 74.1465 22.79 74.1548 23.0984C73.959 23.3942 73.8548 22.4568 73.7423 23.4068C73.659 23.4526 73.6548 23.1776 73.6132 23.1276L73.634 23.0776C73.4757 23.1484 73.4298 23.1567 73.3173 23.1276C73.2548 23.2192 73.2257 23.6567 73.1298 23.5484C73.1715 23.3734 73.1298 23.4068 73.0882 23.4026C73.1132 23.3776 73.1257 23.311 73.0798 23.1901C73.0715 23.2443 73.059 23.2776 73.0465 23.3026C73.0465 23.2901 73.0465 23.2776 73.0465 23.2609C72.9798 23.3193 72.9882 23.3735 73.0173 23.4026C73.0173 23.4276 73.0173 23.4651 73.0215 23.511C72.9673 23.2818 72.834 23.5192 72.8423 23.215C72.6465 23.2775 72.4923 23.5818 72.3298 23.6901C72.3173 23.5359 72.3632 23.3984 72.4132 23.3401L72.2965 23.3901C72.309 23.1651 72.3673 23.2651 72.4048 23.2234C72.2881 22.8567 72.109 23.5692 71.9673 23.2317L71.9257 23.4068L71.9173 23.3776C71.9173 23.4693 71.8715 23.5942 71.8465 23.6234C71.834 23.4275 71.8673 23.1734 71.7882 23.1818C71.734 22.9901 71.609 23.2693 71.5215 23.3693C71.5632 23.4026 71.5465 23.5109 71.5215 23.5776C71.484 23.5818 71.4673 23.3859 71.434 23.4693L71.4423 23.2067C71.4423 23.4567 71.3257 23.4693 71.309 23.5734C71.2965 23.3776 71.3798 23.4109 71.3965 23.2609C71.2382 23.2776 71.3173 23.2693 71.159 23.2859C71.0673 23.4776 71.159 23.5359 71.1132 23.7609C71.0382 23.8067 70.9548 23.99 70.8798 23.8275L70.8965 24.0609C70.7507 24.2359 70.6673 24.2026 70.584 23.9651C69.459 25.8109 70.2465 26.5442 70.2465 26.5442C70.6298 27.0775 70.8715 26.4109 71.3673 26.2526L71.3423 26.2776Z" fill="#20BB65"/>
<path d="M92.6367 24.4358L92.6617 24.5358C92.6617 24.49 92.6617 24.4525 92.6367 24.4358Z" fill="#20BB65"/>
<path d="M100.745 25.0857C100.745 25.0857 100.749 25.0733 100.753 25.0649C100.749 25.0733 100.745 25.0774 100.745 25.0857Z" fill="#20BB65"/>
<path d="M93.6372 27.7983C93.6372 27.7983 93.6331 27.8109 93.6289 27.8234L93.6414 27.7983H93.6372Z" fill="#20BB65"/>
<path d="M92.0371 27.3984C92.4537 27.5526 92.5329 28.011 92.9871 27.8651C93.1954 27.9193 93.4246 27.8359 93.6329 27.7984C93.7579 27.4567 93.9037 27.8151 94.0412 27.5318L94.0704 27.7359C94.1162 27.6401 94.1704 27.5734 94.1996 27.6859L94.1912 27.7443C94.2621 27.5984 94.3204 27.6943 94.3579 27.6193L94.3496 27.6777L94.4245 27.6568L94.4037 27.7401C94.5204 27.5901 94.6287 27.586 94.7162 27.6693L94.7288 27.4276C94.9079 27.7151 95.0204 27.2193 95.1787 27.5568L95.1704 27.6151C95.4496 26.9984 95.4954 28.0776 95.7829 27.4942C95.7454 27.5651 95.7829 27.6193 95.7787 27.6777C95.8912 27.6193 96.0121 27.5901 96.0537 27.1193C96.1329 27.1318 96.1079 27.2735 96.0996 27.4568C96.1162 27.2485 96.1912 27.1692 96.2579 27.1609L96.2246 27.2401L96.4079 27.1859V26.7901C96.4912 26.9109 96.3912 27.2692 96.4871 27.1817L96.512 26.8567C96.637 26.9317 96.6704 27.4277 96.7746 27.6777C97.2871 27.861 97.9204 27.0817 98.3579 27.6942V27.9401C98.3329 28.2984 98.5413 27.4235 98.5288 27.7568L98.5996 27.5984C98.6079 27.6651 98.6371 27.7359 98.5996 27.8109C98.6496 27.8276 98.6579 27.7693 98.7037 27.6651L98.7413 27.8901C98.9329 28.0776 99.1496 27.6651 99.3579 27.7735C99.5746 28.2485 100.108 27.8735 100.416 27.6568C100.87 27.161 101.187 28.6151 101.658 28.0401C101.666 28.0901 101.712 27.9818 101.716 27.9401L102.083 28.0234C102.083 28.0234 103.883 28.311 102.816 25.2526L102.833 25.1777C102.645 24.9735 102.52 24.9192 102.337 25.2984C102.366 24.8192 102.175 25.2359 102.141 25.0776L102.15 25.0401C101.987 25.3985 101.92 24.7109 101.766 25.0318C101.775 24.9943 101.791 24.8651 101.82 24.8568C101.725 24.911 101.595 25.0068 101.616 24.7276C101.4 24.7818 101.116 24.6276 100.937 25.061L100.954 24.9859C100.845 25.2776 100.85 25.0235 100.75 25.1651C100.75 25.1276 100.745 25.1109 100.75 25.0942C100.637 25.3817 100.5 25.1193 100.42 25.2401L100.433 25.0568L100.262 25.0859L100.32 25.1318C100.25 25.6359 100.225 24.8026 100.07 25.1234C99.9621 25.0484 99.7371 26.161 99.6454 25.9026C99.5662 26.136 99.7329 25.5193 99.6288 25.6943C99.6496 25.4276 99.6829 25.5318 99.6829 25.3193C99.587 25.4359 99.5746 25.0359 99.4537 25.2067L99.4704 24.9984C99.3038 25.3651 99.2454 24.7068 99.1246 25.0568C98.9704 25.2151 99.0912 24.4359 98.9079 24.8276L98.8787 24.5443C98.8204 24.4943 98.8037 24.8818 98.7495 24.7401C98.7704 24.5651 98.6787 24.5943 98.7329 24.4276C98.6037 24.1401 98.387 24.7901 98.2287 24.311C98.1537 24.6485 98.0704 24.4359 98.0162 24.6901C98.0245 24.5401 97.8163 24.6485 97.9579 24.336C97.9704 24.311 97.9871 24.3151 97.9787 24.3734L98.0121 24.1734C97.9329 23.7818 97.7829 24.3651 97.6746 24.2984C97.7037 24.3693 97.7495 24.3526 97.7079 24.4901L97.6037 24.4526L97.6412 24.2818L97.4913 24.1693V24.3818C97.4288 24.2651 97.4329 23.9026 97.3162 24.1984C97.2621 24.3609 97.3663 24.4901 97.2788 24.5485C97.1871 24.3943 97.0537 24.1651 96.9245 24.0901C96.9162 24.3276 96.8829 24.3192 96.8412 24.3651L96.8537 24.1567C96.6912 24.4317 96.8412 23.6985 96.6829 23.9151L96.7079 23.7734L96.6329 24.2026C96.4746 24.6026 96.6037 23.7693 96.4162 24.3151C96.4746 24.286 96.4038 24.7734 96.3454 24.6776L96.3787 24.4776C96.3371 24.5151 96.3163 24.5984 96.2954 24.5567C96.3288 24.4526 96.3329 24.2693 96.2746 24.2984L96.3329 24.0526L96.1995 24.4109C96.137 24.1901 95.9871 24.4484 95.9788 24.1651C95.9788 24.1651 95.8162 24.011 95.7537 24.3193C95.8037 24.1318 95.7162 24.0484 95.7621 23.8276C95.6996 24.0401 95.5537 24.2068 95.5204 23.9693L95.5329 23.9442C95.3579 23.6901 95.1704 24.2401 95.0204 23.9359C95.0079 24.1776 94.9287 24.0401 94.9246 24.3484C94.7204 24.6359 94.6412 23.6985 94.5037 24.6401C94.4162 24.686 94.4246 24.4109 94.3829 24.3567L94.4079 24.3068C94.2454 24.3693 94.1996 24.3777 94.0871 24.3443C94.0246 24.4318 93.9787 24.8735 93.8871 24.7568C93.9329 24.586 93.887 24.6151 93.8495 24.6109C93.8745 24.5859 93.887 24.5234 93.8495 24.3984C93.837 24.4526 93.8246 24.4859 93.8121 24.5109C93.8121 24.4984 93.8121 24.4859 93.8121 24.4692C93.7412 24.5276 93.7496 24.5818 93.7787 24.6068C93.7787 24.6318 93.7787 24.6693 93.7787 24.7193C93.7287 24.4859 93.5912 24.7193 93.6079 24.4193C93.4079 24.4735 93.2496 24.7734 93.0787 24.8734C93.0704 24.7151 93.1204 24.5818 93.1704 24.5276L93.0537 24.5734C93.0704 24.3526 93.1288 24.4526 93.1663 24.4109C93.0579 24.0401 92.8621 24.7484 92.7246 24.4026L92.6787 24.5776L92.6704 24.5485C92.6662 24.6401 92.6204 24.7651 92.5954 24.7943C92.5871 24.5984 92.6287 24.3484 92.5495 24.3526C92.4995 24.1609 92.3663 24.4318 92.2788 24.5276C92.3204 24.5651 92.2996 24.6693 92.2788 24.736C92.2371 24.736 92.2287 24.5443 92.1954 24.6235L92.2121 24.3609C92.2121 24.6109 92.0913 24.6193 92.0704 24.7234C92.0621 24.5276 92.1412 24.561 92.1621 24.4151C92.0037 24.4276 92.0829 24.4193 91.9245 24.4318C91.8287 24.6235 91.9246 24.6818 91.8663 24.9068C91.7871 24.9526 91.7037 25.1276 91.6287 24.9651L91.6412 25.1984C91.4912 25.3651 91.4079 25.3317 91.3287 25.0901C90.1662 26.8984 90.937 27.661 90.937 27.661C91.3079 28.211 91.5621 27.5484 92.0579 27.4109L92.0371 27.3984Z" fill="#20BB65"/>
<path d="M113.399 26.6984L113.416 26.7984C113.424 26.7525 113.42 26.715 113.399 26.6984Z" fill="#20BB65"/>
<path d="M121.433 28.3068C121.433 28.3068 121.441 28.2943 121.445 28.286C121.437 28.2902 121.433 28.2984 121.433 28.3068Z" fill="#20BB65"/>
<path d="M114.062 30.1315C114.062 30.1315 114.054 30.144 114.05 30.1523L114.062 30.1315Z" fill="#20BB65"/>
<path d="M112.52 29.5984C112.92 29.7817 112.954 30.2484 113.416 30.1401C113.616 30.2109 113.85 30.1484 114.062 30.1317C114.22 29.8025 114.325 30.1734 114.491 29.9025L114.5 30.1067C114.558 30.015 114.616 29.9568 114.633 30.0693L114.62 30.1275C114.704 29.99 114.754 30.09 114.795 30.0192L114.783 30.0775L114.858 30.0651L114.829 30.1442C114.958 30.0067 115.066 30.015 115.145 30.1025L115.183 29.8651C115.329 30.1693 115.495 29.6901 115.612 30.0401L115.6 30.0983C115.945 29.515 115.87 30.5942 116.216 30.0442C116.175 30.1109 116.204 30.1692 116.191 30.2275C116.312 30.1817 116.433 30.1692 116.525 29.7025C116.6 29.7234 116.558 29.8609 116.533 30.0442C116.575 29.8401 116.658 29.7692 116.72 29.7692L116.679 29.8442L116.866 29.8109L116.908 29.4192C116.979 29.5484 116.837 29.8942 116.941 29.8192L117.004 29.4984C117.12 29.5859 117.095 30.0859 117.17 30.3442C117.65 30.5859 118.37 29.8901 118.72 30.5567L118.687 30.7984C118.616 31.1484 118.933 30.3109 118.879 30.6359L118.97 30.4901C118.97 30.5568 118.991 30.6317 118.945 30.7025C118.991 30.7275 119.008 30.6692 119.066 30.5734V30.8026C119.233 31.0151 119.5 30.6359 119.687 30.7692C119.833 31.2692 120.404 30.9775 120.737 30.8108C121.254 30.3858 121.345 31.8817 121.887 31.3901C121.887 31.4442 121.95 31.3401 121.958 31.3026L122.3 31.4483C122.3 31.4483 122.72 31.5983 123.079 31.3483C123.433 31.0983 123.745 30.4525 123.462 28.8358L123.491 28.765C123.341 28.5275 123.22 28.4526 122.979 28.7942C123.083 28.3234 122.825 28.7025 122.816 28.54L122.829 28.5026C122.612 28.8276 122.654 28.1358 122.45 28.4275C122.462 28.39 122.5 28.2651 122.529 28.2651C122.425 28.3026 122.279 28.3733 122.345 28.1025C122.12 28.1192 121.858 27.9192 121.616 28.3192L121.645 28.2484C121.495 28.5234 121.537 28.2692 121.416 28.3942C121.42 28.3567 121.416 28.3358 121.425 28.3233C121.27 28.59 121.175 28.3108 121.075 28.415L121.116 28.2317H120.941L120.995 28.2859C120.854 28.7776 120.945 27.9442 120.75 28.24C120.654 28.1525 120.279 29.2192 120.22 28.9483C120.112 29.1692 120.358 28.5817 120.233 28.74C120.291 28.4817 120.308 28.5859 120.337 28.3734C120.229 28.4776 120.266 28.0775 120.125 28.2275L120.166 28.0234C119.95 28.3609 119.979 27.7025 119.812 28.0317C119.641 28.1692 119.858 27.4109 119.629 27.7734L119.637 27.4858C119.587 27.4275 119.52 27.8109 119.483 27.6651C119.525 27.4942 119.429 27.5067 119.504 27.3526C119.412 27.0484 119.112 27.6692 119.012 27.165C118.895 27.49 118.837 27.2692 118.75 27.515C118.775 27.3692 118.554 27.4484 118.733 27.1568C118.75 27.1318 118.766 27.14 118.75 27.1984L118.808 27.0025C118.775 26.6025 118.554 27.165 118.454 27.0817C118.475 27.1567 118.52 27.1483 118.462 27.2775L118.362 27.2276L118.42 27.065L118.283 26.9317L118.262 27.1442C118.208 27.0234 118.254 26.6609 118.108 26.9401C118.033 27.0984 118.12 27.2358 118.029 27.2817C117.958 27.1192 117.845 26.8734 117.729 26.7859C117.691 27.0234 117.658 27.0068 117.612 27.0484L117.65 26.8443C117.454 27.0984 117.691 26.3859 117.504 26.5817L117.545 26.4442L117.425 26.8608C117.22 27.24 117.441 26.4234 117.195 26.9484C117.258 26.9234 117.133 27.4025 117.083 27.2984L117.141 27.1067C117.095 27.14 117.066 27.2192 117.05 27.1733C117.091 27.0733 117.116 26.8901 117.058 26.9109L117.145 26.6734L116.97 27.0151C116.933 26.7901 116.754 27.0275 116.775 26.7442C116.775 26.7442 116.629 26.5733 116.529 26.8692C116.6 26.6858 116.52 26.5984 116.587 26.3817C116.5 26.5859 116.337 26.7359 116.329 26.4984L116.345 26.4734C116.195 26.2025 115.95 26.7276 115.829 26.4109C115.791 26.6484 115.725 26.5026 115.691 26.8109C115.454 27.0776 115.475 26.1358 115.237 27.0567C115.145 27.0942 115.179 26.8192 115.145 26.765L115.175 26.7192C115.008 26.7692 114.962 26.7692 114.85 26.7276C114.775 26.8067 114.691 27.2442 114.608 27.1192C114.67 26.9526 114.625 26.9775 114.587 26.9692C114.616 26.9442 114.637 26.8858 114.604 26.7608C114.587 26.815 114.57 26.8442 114.554 26.8692C114.554 26.8567 114.554 26.8442 114.558 26.8276C114.483 26.8776 114.483 26.9317 114.512 26.9608C114.508 26.9858 114.504 27.0192 114.504 27.0692C114.479 26.8358 114.316 27.0525 114.362 26.7525C114.158 26.7858 113.966 27.0692 113.787 27.1608C113.795 27.0067 113.858 26.8734 113.912 26.8234L113.791 26.8608C113.829 26.64 113.879 26.7442 113.92 26.7067C113.845 26.3276 113.583 27.015 113.479 26.6608L113.416 26.8276V26.7984C113.395 26.89 113.341 27.0109 113.312 27.0359C113.32 26.8401 113.387 26.5942 113.308 26.5942C113.279 26.3984 113.116 26.6567 113.016 26.7483C113.054 26.7858 113.025 26.8942 112.991 26.9567C112.95 26.9567 112.962 26.7609 112.916 26.8401L112.954 26.5817C112.929 26.8275 112.808 26.8276 112.775 26.9317C112.783 26.7359 112.862 26.7776 112.895 26.6318C112.733 26.6318 112.816 26.6318 112.654 26.6318C112.537 26.8151 112.629 26.8775 112.554 27.0984C112.47 27.1359 112.37 27.3067 112.312 27.1359L112.304 27.3692C112.137 27.5275 112.058 27.4859 112.004 27.2401C111.341 28.0984 111.191 28.7275 111.2 29.1483C111.212 29.565 111.383 29.7692 111.383 29.7692C111.7 30.34 112.012 29.7025 112.516 29.6025L112.52 29.5984Z" fill="#20BB65"/>
<path d="M133.604 32.6523L133.592 32.7523C133.613 32.7107 133.621 32.6732 133.604 32.6523Z" fill="#20BB65"/>
<path d="M140.596 37.3484C140.596 37.3484 140.608 37.3443 140.617 37.3401C140.608 37.3401 140.6 37.3443 140.596 37.3484Z" fill="#20BB65"/>
<path d="M133.171 36.1189C133.171 36.1189 133.158 36.1272 133.154 36.1356L133.175 36.1189H133.171Z" fill="#20BB65"/>
<path d="M131.921 35.1693C132.237 35.4526 132.125 35.9109 132.579 35.9359C132.742 36.0567 132.971 36.0734 133.171 36.1151C133.421 35.8526 133.4 36.2317 133.637 36.0275L133.575 36.2233C133.658 36.1525 133.729 36.115 133.708 36.2317L133.679 36.2817C133.804 36.1776 133.812 36.29 133.875 36.2359L133.846 36.2859L133.917 36.2984L133.867 36.3651C134.033 36.2734 134.125 36.3193 134.167 36.4234L134.283 36.2109C134.312 36.5401 134.629 36.1484 134.612 36.5151L134.579 36.565C135.1 36.1359 134.646 37.1109 135.154 36.7193C135.092 36.7693 135.096 36.8317 135.062 36.8775C135.187 36.8775 135.3 36.9068 135.558 36.5068C135.621 36.5526 135.529 36.6651 135.437 36.8234C135.55 36.6484 135.654 36.6109 135.712 36.6318L135.646 36.6859L135.829 36.7193L136.017 36.3734C136.029 36.5192 135.771 36.7859 135.896 36.7567L136.075 36.4859C136.146 36.6109 135.929 37.0609 135.892 37.3276C136.217 37.7151 137.146 37.365 137.167 38.1109L137.033 38.315C136.821 38.6025 137.458 37.9734 137.271 38.2484L137.412 38.1526C137.383 38.2109 137.367 38.2859 137.296 38.3317C137.325 38.3734 137.362 38.3317 137.458 38.2651L137.362 38.4734C137.404 38.7317 137.804 38.5026 137.908 38.6984C137.8 39.2068 138.421 39.1817 138.779 39.1942C139.433 39.0651 138.75 40.3901 139.442 40.2276C139.412 40.2734 139.517 40.215 139.546 40.1859L139.75 40.4734C139.75 40.4734 139.817 40.5567 139.933 40.6359C140.05 40.7192 140.217 40.7943 140.433 40.7859C140.854 40.7568 141.5 40.4234 142.133 38.8984L142.196 38.8525C142.196 38.5609 142.125 38.4276 141.733 38.5859C142.067 38.2401 141.646 38.4193 141.725 38.2776L141.758 38.2526C141.4 38.4109 141.792 37.8359 141.458 37.9776C141.487 37.9526 141.583 37.8651 141.612 37.8776C141.5 37.8526 141.333 37.8401 141.529 37.6359C141.317 37.5276 141.179 37.2109 140.767 37.4401L140.825 37.39C140.558 37.5525 140.717 37.3525 140.546 37.4025C140.567 37.3734 140.575 37.3526 140.587 37.3443C140.321 37.5026 140.367 37.2026 140.229 37.2484L140.35 37.1067L140.187 37.0234L140.212 37.0942C139.858 37.4609 140.325 36.7693 140.008 36.9318C139.958 36.8026 139.133 37.5776 139.208 37.3109C139.012 37.4567 139.496 37.0484 139.312 37.1318C139.483 36.9276 139.45 37.0317 139.571 36.8525C139.425 36.8942 139.637 36.5526 139.442 36.6234L139.571 36.4609C139.221 36.665 139.542 36.0818 139.242 36.3068C139.025 36.3484 139.55 35.7651 139.183 35.9859L139.312 35.7317C139.287 35.6567 139.062 35.9734 139.092 35.8234C139.204 35.6859 139.108 35.6567 139.242 35.5484C139.279 35.2276 138.742 35.6609 138.854 35.1568C138.612 35.4026 138.646 35.1776 138.467 35.3651C138.55 35.2401 138.308 35.2192 138.596 35.0276C138.621 35.0109 138.633 35.0276 138.596 35.0734L138.729 34.9192C138.854 34.5359 138.425 34.9609 138.362 34.8401C138.354 34.9151 138.4 34.9276 138.292 35.0234L138.217 34.9359L138.333 34.8109L138.254 34.6318L138.15 34.8192C138.15 34.6817 138.329 34.3692 138.079 34.565C137.95 34.6775 137.979 34.8443 137.871 34.8484C137.862 34.6693 137.854 34.3984 137.771 34.265C137.646 34.4692 137.621 34.44 137.562 34.4609L137.675 34.2859C137.392 34.4401 137.883 33.8776 137.633 33.9817L137.725 33.8692L137.454 34.2109C137.117 34.4818 137.629 33.8109 137.2 34.2026C137.267 34.2026 136.971 34.5984 136.962 34.4859L137.087 34.3276C137.033 34.3401 136.975 34.4067 136.975 34.3567C137.054 34.2775 137.146 34.1193 137.075 34.1151L137.246 33.9276L136.954 34.1776C137 33.9526 136.742 34.1067 136.862 33.8484C136.862 33.8484 136.783 33.6317 136.583 33.8734C136.717 33.7276 136.671 33.615 136.812 33.4359C136.658 33.5942 136.446 33.6734 136.517 33.4484L136.537 33.4317C136.483 33.1234 136.071 33.5234 136.054 33.1859C135.937 33.3984 135.921 33.2358 135.787 33.515C135.471 33.6858 135.8 32.7984 135.267 33.5901C135.167 33.5901 135.287 33.3443 135.275 33.2818L135.317 33.2484C135.137 33.2359 135.092 33.2192 135 33.1442C134.904 33.1984 134.679 33.5775 134.642 33.4359C134.754 33.2984 134.704 33.3068 134.667 33.2859C134.704 33.2734 134.742 33.2193 134.75 33.0943C134.717 33.1401 134.692 33.1609 134.671 33.1818C134.679 33.1693 134.679 33.1609 134.692 33.1442C134.604 33.1651 134.587 33.2192 134.604 33.2567C134.592 33.2776 134.575 33.3109 134.562 33.3567C134.608 33.1234 134.387 33.2775 134.521 33.0109C134.312 32.9775 134.042 33.1859 133.842 33.215C133.896 33.0692 133.996 32.9651 134.067 32.9317H133.937C134.042 32.7317 134.058 32.8442 134.108 32.8234C134.15 32.4359 133.687 33.0109 133.692 32.6401L133.583 32.7818V32.7526C133.546 32.8359 133.458 32.9317 133.421 32.9484C133.487 32.7651 133.625 32.5484 133.546 32.5234C133.571 32.3276 133.337 32.5234 133.217 32.5859C133.242 32.6359 133.183 32.7276 133.133 32.7776C133.096 32.7651 133.158 32.5817 133.096 32.6442L133.208 32.4067C133.112 32.6359 132.996 32.5984 132.937 32.69C133 32.5067 133.067 32.5651 133.142 32.4401C132.983 32.3901 133.062 32.4151 132.908 32.3651C132.746 32.5068 132.817 32.5942 132.679 32.7858C132.587 32.7983 132.446 32.9318 132.433 32.7526L132.358 32.9734C132.154 33.0776 132.087 33.0193 132.104 32.7651C131.229 33.4068 130.925 33.9817 130.821 34.3859C130.717 34.7901 130.821 35.0317 130.821 35.0317C130.958 35.6609 131.421 35.1276 131.921 35.1734V35.1693Z" fill="#20BB65"/>
<path d="M146.723 48.0942L146.631 48.1317C146.673 48.1233 146.71 48.1109 146.723 48.0942Z" fill="#20BB65"/>
<path d="M143.747 48.5275C143.672 48.7441 143.239 48.8816 143.46 49.04C143.439 49.14 143.564 49.2192 143.63 49.3025C143.985 49.2858 143.655 49.4234 143.955 49.4275L143.764 49.4816C143.868 49.4816 143.939 49.4942 143.835 49.5275L143.776 49.5359C143.93 49.5359 143.847 49.5816 143.922 49.5858L143.864 49.5942L143.893 49.6233L143.81 49.6317C143.976 49.6525 143.993 49.7025 143.926 49.7567L144.164 49.7192C143.91 49.8483 144.414 49.815 144.105 49.9442L144.047 49.9525C144.693 49.9734 143.639 50.1733 144.251 50.2066C144.176 50.2025 144.13 50.2275 144.068 50.2317C144.143 50.2733 144.185 50.3234 144.655 50.2692C144.655 50.3067 144.51 50.315 144.33 50.3442C144.539 50.3192 144.626 50.3442 144.643 50.3692H144.56L144.639 50.44L145.026 50.3817C144.918 50.44 144.551 50.4442 144.651 50.4775L144.976 50.4442C144.918 50.515 144.435 50.6025 144.197 50.6817C144.08 50.9317 144.93 51.1359 144.372 51.4067L144.126 51.4316C143.768 51.4566 144.66 51.4608 144.33 51.49L144.493 51.5067C144.43 51.5192 144.364 51.5359 144.28 51.5275C144.268 51.5525 144.326 51.5483 144.435 51.5608L144.214 51.5983C144.047 51.7025 144.48 51.765 144.397 51.8733C143.951 52.015 144.372 52.2275 144.618 52.3609C145.155 52.5484 143.735 52.7775 144.343 52.965C144.293 52.9692 144.405 52.99 144.447 52.99L144.393 53.165C144.393 53.165 144.355 53.3775 144.685 53.5233C145.018 53.665 145.722 53.7608 147.21 53.44L147.289 53.4483C147.48 53.3442 147.526 53.2734 147.135 53.1942C147.614 53.19 147.185 53.1067 147.339 53.0817H147.376C147.005 53.015 147.685 52.9484 147.355 52.8817C147.393 52.8817 147.526 52.8858 147.535 52.9025C147.476 52.8566 147.368 52.7899 147.647 52.7858C147.572 52.6733 147.701 52.515 147.255 52.4484H147.335C147.035 52.415 147.289 52.3984 147.135 52.3567C147.172 52.3567 147.189 52.3484 147.205 52.3484C146.905 52.3109 147.155 52.2191 147.026 52.1858L147.21 52.1775L147.164 52.09L147.126 52.1233C146.614 52.1233 147.443 52.0483 147.114 51.9942C147.176 51.9317 146.051 51.9109 146.297 51.8442C146.055 51.8234 146.685 51.8525 146.501 51.8192C146.768 51.8067 146.668 51.8317 146.88 51.815C146.751 51.7775 147.151 51.7317 146.968 51.6858L147.176 51.6733C146.797 51.6233 147.443 51.5275 147.08 51.4983C146.905 51.4358 147.693 51.415 147.285 51.365L147.564 51.3192C147.605 51.2859 147.218 51.3192 147.351 51.2733C147.526 51.265 147.489 51.2191 147.66 51.2316C147.93 51.1316 147.26 51.09 147.714 50.9525C147.368 50.9525 147.568 50.8859 147.31 50.8859C147.46 50.8734 147.326 50.7775 147.655 50.8108C147.68 50.8108 147.676 50.8233 147.618 50.8275L147.822 50.8191C148.201 50.7275 147.601 50.7233 147.655 50.6567C147.589 50.6817 147.61 50.7025 147.468 50.6984L147.489 50.64H147.66L147.751 50.5442L147.539 50.5734C147.643 50.5234 148.001 50.4733 147.697 50.4567C147.526 50.4525 147.418 50.5234 147.347 50.4859C147.485 50.4192 147.697 50.315 147.751 50.2358C147.514 50.265 147.522 50.2483 147.472 50.2358L147.676 50.2108C147.38 50.165 148.126 50.1358 147.889 50.0858L148.035 50.0774L147.601 50.1025C147.185 50.0816 148.026 50.0191 147.46 50.0066C147.497 50.0316 147.005 50.0733 147.093 50.0275L147.293 50.015C147.247 49.9983 147.164 50.0025 147.205 49.9858C147.314 49.9858 147.497 49.9567 147.46 49.9317L147.71 49.9233L147.339 49.9108C147.547 49.8442 147.272 49.8067 147.547 49.7525C147.547 49.7525 147.672 49.6399 147.364 49.6608C147.555 49.6566 147.622 49.5941 147.847 49.5775C147.626 49.5775 147.443 49.5358 147.668 49.4733H147.693C147.914 49.3358 147.347 49.34 147.618 49.2025C147.38 49.24 147.501 49.1734 147.201 49.2317C146.885 49.1817 147.793 48.9567 146.847 49.0733C146.789 49.04 147.06 48.9858 147.101 48.9566H147.151C147.06 48.89 147.047 48.8692 147.06 48.8025C146.964 48.7859 146.526 48.8567 146.622 48.7858C146.797 48.7733 146.764 48.7566 146.76 48.7358C146.789 48.7441 146.851 48.7359 146.964 48.69C146.91 48.6942 146.876 48.6942 146.847 48.6942C146.86 48.6942 146.872 48.69 146.889 48.6858C146.822 48.665 146.768 48.6775 146.747 48.6984C146.722 48.6984 146.689 48.7108 146.639 48.7233C146.855 48.6483 146.605 48.6317 146.901 48.5733C146.814 48.4858 146.493 48.4691 146.364 48.4108C146.514 48.3733 146.651 48.365 146.718 48.3775L146.651 48.3275C146.872 48.2858 146.785 48.3358 146.83 48.3483C147.172 48.2067 146.447 48.2733 146.755 48.1233L146.58 48.14L146.61 48.1275C146.518 48.1483 146.389 48.1525 146.36 48.1483C146.547 48.0983 146.797 48.0566 146.78 48.0191C146.955 47.9483 146.668 47.9442 146.56 47.9275C146.535 47.9567 146.426 47.9734 146.355 47.9775C146.343 47.9609 146.53 47.9066 146.447 47.9066L146.705 47.8483C146.464 47.9108 146.435 47.8525 146.326 47.8692C146.514 47.815 146.497 47.865 146.643 47.8358C146.601 47.7608 146.622 47.7983 146.58 47.7192C146.376 47.7192 146.339 47.7816 146.11 47.8108C146.051 47.7858 145.864 47.79 146.01 47.7108L145.785 47.7775C145.593 47.7484 145.61 47.7025 145.826 47.6025C144.843 47.5691 144.21 47.715 143.818 47.8483C143.426 47.9858 143.28 48.115 143.28 48.115C142.822 48.4108 143.501 48.3441 143.73 48.5233L143.747 48.5275Z" fill="#20BB65"/>
<path d="M135.675 54.3542C135.783 54.4292 135.896 54.2542 135.862 54.2834C135.829 54.2125 135.708 54.3458 135.675 54.3542Z" fill="#00B14F"/>
<path d="M137.483 56.7335C137.458 56.8585 137.399 56.6419 137.483 56.7335Z" fill="#00B14F"/>
<path d="M138.391 58.0334C138.445 58.0043 138.491 57.8876 138.545 57.8251L138.412 57.7751C138.412 57.8501 138.458 57.9668 138.387 58.0334H138.391Z" fill="#00B14F"/>
<path d="M138.55 57.8251L138.746 57.9001C138.658 57.7668 138.596 57.7751 138.55 57.8251Z" fill="#00B14F"/>
<path d="M138.812 58.5751L138.633 58.5876L138.92 58.5918L138.812 58.5751Z" fill="#00B14F"/>
<path d="M139.112 58.9167C138.971 58.9334 139.017 59.1251 138.908 59.1084C139 59.1917 139.15 59.2126 139.283 59.2292C139.179 59.1834 139.125 59.0876 139.117 58.9167H139.112Z" fill="#00B14F"/>
<path d="M139.487 59.2709C139.433 59.25 139.358 59.2417 139.283 59.2292C139.337 59.2542 139.404 59.2709 139.487 59.2709Z" fill="#00B14F"/>
<path d="M138.853 58.3835L138.949 58.2167C138.949 58.2167 138.92 58.1793 138.907 58.1584C138.887 58.1918 138.824 58.2751 138.853 58.3793V58.3835Z" fill="#00B14F"/>
<path d="M138.953 58.2125C138.995 58.2834 139.028 58.3251 139.041 58.3459C139.028 58.3292 139.003 58.2917 138.957 58.2125H138.953Z" fill="#00B14F"/>
<path d="M138.899 58.1458L138.912 58.1583C138.912 58.1583 138.924 58.1333 138.899 58.1458Z" fill="#00B14F"/>
<path d="M138.795 57.8542L139.02 57.9375L138.932 57.7626C138.899 57.7959 138.866 57.8626 138.795 57.8542Z" fill="#00B14F"/>
<path d="M139.121 57.975L139.021 57.9375L139.05 58.0041L139.121 57.975Z" fill="#00B14F"/>
<path d="M139.416 58.9084C139.528 58.9251 139.587 58.9917 139.662 59.0625C139.62 58.9542 139.566 58.8542 139.499 58.7709C139.445 58.7917 139.337 58.8167 139.416 58.9084Z" fill="#00B14F"/>
<path d="M139.204 58.5626L139.225 58.5709C139.225 58.5709 139.225 58.5417 139.204 58.5626Z" fill="#00B14F"/>
<path d="M140.279 59.8543C140.279 59.8543 140.291 59.8334 140.296 59.8209L140.271 59.8376L140.283 59.8543H140.279Z" fill="#00B14F"/>
<path d="M139.512 58.7374C139.487 58.6499 139.424 58.6416 139.354 58.6375C139.404 58.675 139.454 58.7166 139.499 58.7708C139.524 58.7625 139.537 58.7499 139.516 58.7374H139.512Z" fill="#00B14F"/>
<path d="M139.725 59.4376C139.725 59.3793 139.725 59.3251 139.713 59.2667C139.696 59.3334 139.679 59.4543 139.725 59.4376Z" fill="#00B14F"/>
<path d="M139.199 58.6208H139.187C139.174 58.6625 139.187 58.6458 139.199 58.6208Z" fill="#00B14F"/>
<path d="M139.199 58.6208C139.245 58.6374 139.299 58.6375 139.353 58.6375C139.312 58.6083 139.266 58.5833 139.22 58.5667C139.22 58.5833 139.208 58.6041 139.199 58.6166V58.6208Z" fill="#00B14F"/>
<path d="M140.087 59.5293L140.025 59.4792C140.058 59.5667 140.046 59.6585 140.017 59.8293C140.158 59.8793 140.225 59.8626 140.275 59.8376L140.058 59.5251H140.096L140.087 59.5293Z" fill="#00B14F"/>
<path d="M140.228 59.9375L140.058 60.0208L140.374 59.9958L140.228 59.9375Z" fill="#00B14F"/>
<path d="M140.357 60.325L140.499 60.3459L140.495 60.2375L140.357 60.325Z" fill="#00B14F"/>
<path d="M148.012 65.7208C148.237 65.6875 148.578 65.6458 148.428 65.5375L148.262 65.4584C148.187 65.6 148.099 65.6792 148.016 65.7208H148.012Z" fill="#00B14F"/>
<path d="M143.07 63.4C143.083 63.5334 143.116 63.6208 143.158 63.6875C143.158 63.5167 143.208 63.3334 143.07 63.4Z" fill="#00B14F"/>
<path d="M156.483 55.0792C156.491 55.0167 156.462 54.9918 156.408 55.0001C156.396 55.0626 156.412 55.1001 156.483 55.0792Z" fill="#00B14F"/>
<path d="M143.158 63.6917C143.158 63.8167 143.196 63.9374 143.362 63.9499C143.362 63.9249 143.362 63.9041 143.362 63.875C143.287 63.8291 143.216 63.7792 143.162 63.6917H143.158Z" fill="#00B14F"/>
<path d="M137.721 52.8208C137.758 52.8083 137.817 52.8083 137.875 52.8083C137.846 52.7958 137.8 52.7958 137.721 52.8208Z" fill="#00B14F"/>
<path d="M141.425 61.5458C141.4 61.5458 141.362 61.4875 141.425 61.5458Z" fill="#00B14F"/>
<path d="M141.408 61.3959C141.408 61.4334 141.417 61.4751 141.433 61.5126C141.433 61.4917 141.425 61.4542 141.408 61.3959Z" fill="#00B14F"/>
<path d="M141.354 61.4584C141.341 61.4292 141.333 61.4084 141.32 61.3876C141.291 61.3959 141.283 61.4167 141.354 61.4584Z" fill="#00B14F"/>
<path d="M141.503 61.6293C141.47 61.5918 141.449 61.5543 141.432 61.5084C141.432 61.5293 141.432 61.5417 141.42 61.5417C141.437 61.5584 141.462 61.5834 141.499 61.6293H141.503Z" fill="#00B14F"/>
<path d="M157.412 52.9958L157.554 52.9333C157.145 52.8875 156.712 53.0376 156.333 53.1876C156.3 53.1459 156.462 53.0834 156.52 53.0542C156.054 52.9209 155.854 52.95 155.025 53.2584L155.166 53.0542C155.037 53.1125 154.879 53.0334 154.608 52.9625C154.345 52.8959 153.95 52.8417 153.579 52.9625C153.591 52.9375 153.616 52.9001 153.679 52.8709C153.466 52.9292 153.266 52.925 153.05 52.8916C152.9 52.8583 152.762 52.8042 152.629 52.7626C152.362 52.6792 152.137 52.6625 152.041 53.0375L151.704 53.2208C152.141 53.2833 151.637 53.5459 151.816 53.6709C151.645 53.7125 151.375 53.4417 151.583 53.4042L151.616 53.4417C151.695 53.05 151.075 53.3 151.087 53.0333C150.225 53.0458 149.387 52.825 148.583 52.8L148.675 53.1041L148.395 53.0834C148.32 53.0126 148.3 52.8459 148.5 52.8584C148.395 52.6834 148.162 53 148.158 53.0667C147.766 52.9417 148.312 52.7125 148.195 52.7042L148.033 52.725L148.07 52.7626C147.937 52.8876 147.925 53.0166 147.683 53C147.529 52.9375 147.608 52.8125 147.545 52.8C147.545 52.7792 147.525 52.7666 147.454 52.7916L147.1 52.7626L147.229 52.9834C147.112 53.0376 146.766 53 146.433 53.0167C146.095 53 145.75 53.0376 145.633 52.9834L145.762 52.7626L145.408 52.7916C145.337 52.7708 145.316 52.7792 145.316 52.8C145.258 52.8125 145.333 52.9375 145.179 53C144.937 53.0166 144.925 52.8834 144.791 52.7626L144.829 52.725L144.666 52.7042C144.545 52.7125 145.095 52.9417 144.704 53.0667C144.7 53 144.466 52.6834 144.358 52.8584C144.5 52.85 144.529 52.9292 144.504 53.0042C144.416 52.9792 144.32 52.9501 144.245 52.8792L144.27 52.8C144.245 52.8 144.22 52.8042 144.195 52.8042C144.183 52.7875 144.17 52.775 144.162 52.7584C144.175 52.775 144.179 52.7917 144.183 52.8083C143.837 52.825 143.487 52.8708 143.133 52.9167C142.787 52.8833 142.408 52.7334 142.02 52.7792C142.012 52.8417 142.07 52.9292 142.02 53.0208C141.995 53.0208 141.966 53.0208 141.941 53.0208L141.683 52.7042C141.57 52.7375 141.575 53.1251 141.375 52.8709C141.404 52.9334 141.445 53.025 141.37 53.05C141.175 52.9875 140.975 52.9542 140.775 52.9375C140.666 52.6625 140.458 52.6834 140.22 52.7542C140.087 52.7959 139.95 52.8501 139.8 52.8834C139.583 52.9167 139.383 52.9209 139.17 52.8625C139.233 52.8917 139.258 52.9292 139.27 52.9542C139.041 52.8792 138.804 52.875 138.591 52.9C138.383 52.85 138.17 52.7709 137.966 52.6459C138.12 52.7875 138.016 52.8042 137.9 52.8083C137.966 52.8375 137.916 52.9584 137.912 53.0542C137.895 53.0584 137.879 53.0584 137.862 53.0625L137.437 52.8125C137.366 53.0333 137.087 52.9125 136.95 52.9916C136.737 52.9625 136.57 52.9917 136.337 53.0542C136.395 53.0875 136.558 53.1459 136.525 53.1876C136.145 53.0376 135.712 52.8875 135.304 52.9333L135.445 52.9958L134.866 52.9751L134.975 53.125C135.625 53.4208 135.591 53.5375 135.633 53.7291C135.666 53.9125 135.783 54.1917 136.408 54.4125C136.179 54.425 136.42 54.8208 136.454 55C136.491 55.0042 136.541 55.0209 136.608 55.0542C136.458 55.1417 136.641 55.3251 136.85 55.4834C137.066 55.6459 137.308 55.7834 137.379 55.9001C137.412 56.0751 137.254 56.0459 137.075 56.0001C137.354 56.1334 137.45 56.3667 137.537 56.6292C137.55 56.6667 137.562 56.7041 137.575 56.7416C137.558 56.7291 137.537 56.7167 137.516 56.6959C137.516 56.7167 137.512 56.7209 137.508 56.7334C137.525 56.7542 137.545 56.7792 137.575 56.8292C137.583 56.8209 137.587 56.8125 137.595 56.8084C137.616 56.875 137.637 56.9375 137.658 56.9917C137.675 57.0333 137.691 57.0708 137.704 57.1C137.708 57.1083 137.716 57.1084 137.725 57.1125C137.725 57.1792 137.762 57.2626 137.704 57.2542C137.845 57.3459 137.879 57.2834 137.908 57.1501C137.945 57.1251 137.987 57.0875 138.025 57.0541L138.091 57.0833C138.112 57.0417 138.158 56.9959 138.062 57.025C138.083 57.0084 138.104 56.9958 138.129 56.9875C138.154 57.0333 138.154 57.075 138.141 57.1084L138.087 57.0833C138.075 57.1083 138.083 57.125 138.133 57.125C138.062 57.2834 137.737 57.3417 138.095 57.4626C138.087 57.4084 138.05 57.3292 138.1 57.3292C138.212 57.4 138.716 57.25 138.895 57.3042C138.82 57.35 138.787 57.4375 138.616 57.4083C138.687 57.4167 138.775 57.45 138.841 57.4459C138.916 57.55 139.087 57.5834 139.22 57.625C139.212 57.6792 139.204 57.725 139.191 57.7542C139.22 57.7167 139.241 57.675 139.266 57.6375C139.383 57.675 139.445 57.725 139.316 57.8542L139.145 57.9584C139.654 58.1625 139.212 58.1667 139.7 58.3959L139.72 58.3709C139.825 58.5584 140.091 58.4917 139.904 58.775L139.825 58.7458C139.891 58.8458 139.933 58.8958 139.975 58.9458C139.95 58.9458 139.925 58.9458 139.9 58.9333C140.162 59.1958 139.754 58.9125 139.841 59.1833C139.775 59.1458 139.725 59.1 139.683 59.0583C139.708 59.125 139.725 59.1917 139.737 59.2583V59.2458C139.745 59.2166 139.754 59.2042 139.754 59.2292C139.754 59.2292 139.758 59.2292 139.762 59.2292C139.783 59.2167 139.804 59.2084 139.825 59.2C139.862 59.3084 139.8 59.2417 139.762 59.2292C139.754 59.2334 139.745 59.2375 139.737 59.2416L140.041 59.4708C140.012 59.3958 139.95 59.3209 139.825 59.1959C139.95 59.1542 140.07 59.1833 140.158 59.1416C140.166 59.15 140.17 59.1583 140.183 59.1667C140.179 59.2083 140.225 59.3417 140.3 59.3292C140.2 59.4167 140.275 59.5542 140.379 59.6833C140.354 59.7292 140.329 59.7709 140.312 59.8125C140.35 59.7875 140.391 59.7625 140.462 59.7708C140.554 59.8625 140.645 59.9375 140.679 59.9708C140.575 59.7833 140.729 59.7875 140.85 59.7666C140.758 60 140.795 60.0833 141.025 60.1167C140.941 60.1958 140.854 60.2792 140.787 60.3625C140.766 60.3375 140.754 60.3125 140.741 60.2833C140.645 60.4583 140.72 60.3917 140.716 60.4667C140.641 60.5959 140.625 60.7292 140.729 60.8709C140.733 60.8 140.704 60.7166 140.779 60.7C140.854 60.6833 140.845 60.7917 140.841 60.8292C140.9 60.8167 140.9 60.7417 140.95 60.6876C140.962 60.7042 140.975 60.7208 140.987 60.7375C140.97 60.9042 141.058 60.9708 141.162 61.0542C141.187 61.1292 141.208 61.2083 141.166 61.3667C141.229 61.3083 141.245 61.2042 141.333 61.3834C141.358 61.375 141.395 61.3708 141.416 61.3708C141.416 61.3792 141.416 61.3792 141.416 61.3834V61.3667C141.416 61.3667 141.437 61.3667 141.416 61.3625C141.416 61.3042 141.429 61.2459 141.454 61.2042C141.479 61.2001 141.508 61.2001 141.533 61.2042C141.433 61.3876 142.083 61.3125 141.662 61.5042C141.783 61.5667 141.891 61.6541 142 61.75C141.962 61.875 141.95 61.9875 141.77 61.8875L141.916 62.0875C141.925 62.2667 142.016 62.45 142.154 62.5C142.195 62.6167 142.5 62.6042 142.32 62.6167L142.654 62.85L142.62 62.8834C142.841 63.2001 143.354 63.3125 143.362 63.8708C143.479 63.9417 143.608 64.0125 143.7 64.2167L143.6 64.35C143.745 64.4458 143.783 64.8417 143.958 64.7958C143.845 65.0083 143.937 65.1625 144.108 65.3417C144.375 65.6459 144.675 65.9208 144.816 66.1625L144.945 65.9834C145.15 66.2625 145.387 66.4667 145.662 66.6792L145.683 66.5458C145.729 66.6333 145.775 66.7292 145.825 66.8292C145.995 67.1751 146.212 67.5666 146.408 67.5833C146.408 67.5833 146.408 67.5833 146.408 67.5875C146.412 67.5875 146.416 67.5875 146.42 67.5875C146.425 67.5875 146.429 67.5875 146.433 67.5875C146.433 67.5875 146.433 67.5875 146.433 67.5833C146.629 67.5625 146.845 67.1709 147.016 66.8292C147.204 66.4584 147.341 66.1375 147.583 66.075C147.641 65.8917 147.716 65.8416 147.804 65.8041C147.795 65.8166 147.791 65.8292 147.787 65.8417C147.8 65.8333 147.812 65.8167 147.825 65.7959C147.883 65.7751 147.945 65.7542 148.012 65.7208C147.945 65.7333 147.887 65.7459 147.845 65.7667C147.912 65.675 148.008 65.5209 148.079 65.3584L148.258 65.4542C148.258 65.4542 148.27 65.4333 148.279 65.4208C148.441 65.3375 148.295 65.25 148.133 65.2083C148.162 65.1208 148.175 65.0417 148.175 64.9667C148.504 65.0751 148.27 64.675 148.616 64.7958C148.529 64.6333 148.85 64.3041 148.612 64.0375C148.65 64.0625 148.687 64.0542 148.654 64.1C148.758 64.0334 148.866 63.9666 148.854 63.825L149.083 63.9458L148.979 63.5292C149.2 63.5042 149.308 63.5125 149.362 63.7542C149.362 63.275 149.466 63.4458 149.433 63.0125L149.55 63.1292C149.616 63.0375 149.558 62.7583 149.708 62.7875C150.112 62.7875 150.533 61.8376 151.17 61.5126C150.712 61.3042 151.529 61.4125 151.254 61.1583C151.366 61.2 151.475 61.1709 151.487 61.3167C151.608 60.9876 151.945 61.0417 151.841 60.6625C151.954 60.7042 151.929 60.825 152.004 60.8417C152.004 60.8042 151.991 60.6958 152.066 60.7125C152.141 60.7292 152.112 60.8125 152.116 60.8834C152.316 60.6084 152.062 60.3584 151.82 60.1292C152.05 60.0959 152.087 60.0125 151.995 59.7792C152.116 59.8 152.27 59.7958 152.166 59.9833C152.254 59.9 152.745 59.5167 152.55 59.3417C152.625 59.3542 152.67 59.225 152.666 59.1792C152.845 58.9833 152.879 58.9792 153.025 58.7583L152.945 58.7875C152.762 58.5042 153.029 58.5709 153.129 58.3834L153.15 58.4083C153.633 58.1791 153.195 58.1751 153.704 57.9709L153.533 57.8667C153.229 57.5626 153.995 57.6958 154.045 57.3792H153.895C153.875 57.175 154.616 57.425 154.754 57.3375C154.804 57.3375 154.766 57.4166 154.758 57.4708C155.208 57.3208 154.587 57.2667 154.725 56.9958C154.87 57.0417 154.958 57.2751 155.104 57.1376C155.125 57.1376 155.137 57.125 155.15 57.1042C155.162 57.075 155.179 57.0375 155.195 56.9958C155.237 56.8917 155.275 56.7584 155.32 56.6334C155.408 56.3709 155.504 56.1376 155.783 56.0042C155.604 56.0542 155.441 56.0792 155.479 55.9042C155.55 55.7834 155.791 55.6501 156.008 55.4876C156.22 55.3292 156.4 55.1501 156.25 55.0584C156.316 55.0251 156.366 55.0083 156.404 55.0042C156.433 54.825 156.679 54.4334 156.45 54.4167C157.075 54.1917 157.191 53.9167 157.225 53.7333C157.262 53.5417 157.233 53.425 157.883 53.1292L157.991 52.9792L157.412 53V52.9958ZM141.237 59.8666C141.241 59.8416 141.245 59.8083 141.25 59.7792C141.2 59.8917 141.15 59.975 141.087 59.9708L141 59.6666C141.079 59.6708 141.17 59.6875 141.258 59.675C141.258 59.7083 141.254 59.7458 141.25 59.7792C141.266 59.7458 141.283 59.7083 141.295 59.6708C141.32 59.6667 141.345 59.6542 141.37 59.6417L141.454 59.7459C141.4 59.8292 141.333 59.8834 141.237 59.8626V59.8666ZM142.312 60.8375C142.312 60.8375 142.304 60.8417 142.3 60.8458C142.295 60.8333 142.287 60.8166 142.283 60.8041L142.312 60.8417V60.8375ZM145.8 65.2709L145.837 65.3208C145.825 65.3625 145.808 65.4042 145.795 65.4459C145.795 65.3875 145.795 65.3292 145.795 65.2751L145.8 65.2709ZM146.995 65.325L147.033 65.2792C147.033 65.3292 147.033 65.3792 147.033 65.4292C147.02 65.3958 147.008 65.3583 147 65.3208L146.995 65.325ZM138.933 57.3792C138.933 57.3792 138.933 57.375 138.933 57.3708C138.933 57.3708 138.933 57.3708 138.933 57.3792ZM142.125 62.1708C142.125 62.1708 142.133 62.1708 142.137 62.1708C142.162 62.3292 142.154 62.2708 142.125 62.1708ZM146.458 67.5125C146.458 67.5125 146.466 67.4916 146.47 67.4791L146.454 67.5209C146.454 67.5209 146.433 67.5459 146.42 67.5542C146.408 67.5459 146.395 67.5334 146.387 67.5209L146.37 67.4791C146.37 67.4791 146.379 67.5 146.383 67.5125C146.35 67.475 146.316 67.4251 146.308 67.3542C146.316 67.3667 146.329 67.3792 146.337 67.3917C146.362 67.4292 146.383 67.4708 146.408 67.5042C146.412 67.5 146.416 67.4917 146.42 67.4875C146.425 67.4917 146.429 67.5 146.433 67.5042C146.458 67.4667 146.479 67.4292 146.504 67.3917C146.512 67.3792 146.525 67.3709 146.533 67.3542C146.525 67.4251 146.491 67.475 146.458 67.5125ZM147.504 52.8751L147.558 52.9292C147.433 52.9875 147.466 52.9334 147.504 52.8751ZM148.679 63.25L148.812 63.0876L148.97 63.4834C148.908 63.4125 148.8 63.3334 148.679 63.2542V63.25ZM151.75 59.9708C151.691 59.975 151.641 59.8917 151.587 59.7792C151.587 59.8125 151.591 59.8416 151.6 59.8666C151.541 59.8791 151.491 59.8584 151.45 59.825L151.554 59.7C151.566 59.725 151.579 59.7542 151.587 59.7792C151.587 59.7458 151.583 59.7041 151.579 59.6666L151.625 59.6084C151.72 59.6167 151.804 59.6209 151.85 59.6167L151.745 59.9708H151.75Z" fill="#00B14F"/>
<path d="M140.812 60.9125L140.967 61.025C140.904 60.9625 140.921 60.9084 140.917 60.8542C140.883 60.8876 140.85 60.9542 140.812 60.9125Z" fill="#00B14F"/>
<path d="M141.704 61.675C141.704 61.6 141.512 61.7792 141.542 61.7083C141.329 61.7875 141.996 61.8666 141.704 61.675Z" fill="#00B14F"/>
<path d="M137.1 52.5917L136.929 52.5L137.037 52.6417L137.1 52.5917Z" fill="#00B14F"/>
<path d="M136.771 52.9042L136.733 52.6334L136.629 52.8793C136.666 52.8668 136.741 52.8459 136.771 52.9042Z" fill="#00B14F"/>
<path d="M136.35 55.0792C136.42 55.0959 136.437 55.0626 136.425 55.0001C136.366 54.9918 136.337 55.0167 136.35 55.0792Z" fill="#00B14F"/>
</svg>
