<svg width="96" height="149" viewBox="0 0 96 149" fill="none" xmlns="http://www.w3.org/2000/svg">
<path d="M95.6329 1.79561L95.5371 1.77893C95.5788 1.7956 95.6163 1.80395 95.6329 1.79561Z" fill="#20BB65"/>
<path d="M94.0205 5.68298C94.0205 5.68298 94.0288 5.69133 94.0372 5.6955C94.033 5.69133 94.0247 5.68715 94.0205 5.68298Z" fill="#20BB65"/>
<path d="M92.3499 1.25385C92.3499 1.25385 92.3374 1.2455 92.3291 1.24133L92.3499 1.25385Z" fill="#20BB65"/>
<path d="M92.8623 0.620498C92.6832 0.774664 92.2415 0.670494 92.3415 0.928827C92.2707 1.00799 92.3332 1.14551 92.3498 1.25384C92.6623 1.42051 92.3082 1.37464 92.5665 1.53297L92.3707 1.48298C92.4582 1.53714 92.5123 1.583 92.4082 1.56217L92.354 1.54131C92.4832 1.62048 92.3873 1.6205 92.454 1.66216L92.3998 1.64131L92.4123 1.68297L92.3374 1.64548C92.4707 1.74965 92.4623 1.79966 92.3748 1.81633L92.5999 1.89964C92.3124 1.89131 92.7665 2.10799 92.4373 2.07049L92.3832 2.04547C92.9332 2.38713 91.9165 2.04548 92.4332 2.37465C92.3707 2.33298 92.3165 2.33297 92.2624 2.30797C92.3082 2.38297 92.3165 2.44965 92.7582 2.63298C92.7373 2.66631 92.6082 2.60382 92.4373 2.53715C92.629 2.61632 92.6957 2.68296 92.6957 2.71629L92.6249 2.67047L92.6582 2.7788L93.0248 2.91634C92.904 2.91634 92.579 2.74134 92.6499 2.81634L92.9498 2.94131C92.8665 2.97464 92.3957 2.8163 92.154 2.7788C91.929 2.94964 92.5748 3.54131 91.954 3.52048L91.729 3.42883C91.404 3.28299 92.1832 3.70799 91.879 3.57882L92.0165 3.67048C91.954 3.64964 91.8873 3.63717 91.8207 3.59133C91.7957 3.608 91.8498 3.633 91.9415 3.6955L91.729 3.62465C91.529 3.64131 91.8832 3.89967 91.7582 3.958C91.2957 3.87467 91.5707 4.2663 91.7248 4.49964C92.1165 4.9163 90.7457 4.47048 91.1998 4.92048C91.154 4.90381 91.2457 4.97049 91.2832 4.98716L91.154 5.12464C91.154 5.12464 91.0207 5.29962 91.254 5.57879C91.4873 5.85379 92.0748 6.25381 93.5457 6.64131L93.6123 6.68297C93.829 6.6788 93.8999 6.63715 93.5874 6.38715C94.0165 6.59965 93.6707 6.33298 93.8207 6.38298L93.854 6.40383C93.5582 6.17467 94.1915 6.42464 93.9248 6.2163C93.9582 6.23714 94.0748 6.29963 94.0748 6.31213C94.0415 6.24129 93.9748 6.13713 94.2248 6.26213C94.2082 6.1288 94.3957 6.04962 94.029 5.78712L94.0957 5.82466C93.8457 5.65383 94.079 5.75798 93.9623 5.64964C93.9957 5.66214 94.0123 5.6705 94.029 5.67467C93.7832 5.50383 94.0415 5.54132 93.9457 5.45382L94.1123 5.53296V5.43714L94.0623 5.44965C93.6082 5.21632 94.379 5.53297 94.1082 5.3288C94.1915 5.3038 93.204 4.76214 93.454 4.81631C93.2498 4.68714 93.7915 5.00799 93.6457 4.88716C93.8873 4.99966 93.7873 4.97879 93.9832 5.05796C93.8873 4.96629 94.2582 5.11216 94.1207 4.98716L94.3082 5.07464C93.9957 4.84964 94.6082 5.07465 94.304 4.87882C94.179 4.74132 94.8832 5.09547 94.5457 4.85797L94.8124 4.94967C94.8665 4.94134 94.5082 4.78297 94.6498 4.80797C94.8082 4.88297 94.7957 4.82464 94.9415 4.9163C95.2249 4.95797 94.6498 4.6038 95.1207 4.69963C94.8165 4.53713 95.0248 4.57464 94.7957 4.45381C94.9332 4.51214 94.8623 4.36631 95.1332 4.55381C95.154 4.57047 95.1457 4.57464 95.0957 4.55381L95.279 4.64129C95.654 4.74129 95.129 4.45383 95.2082 4.42467C95.1373 4.41217 95.1457 4.44133 95.0248 4.3705L95.0707 4.32879L95.2248 4.40798L95.3498 4.3705L95.1499 4.29548C95.2665 4.30381 95.604 4.433 95.3457 4.2705C95.1998 4.183 95.0665 4.19129 95.0248 4.12463C95.179 4.13296 95.4123 4.14549 95.4957 4.10382C95.2748 4.01632 95.2873 4.00379 95.2498 3.96629L95.4415 4.04549C95.204 3.86632 95.8707 4.19965 95.6915 4.04549L95.8207 4.108L95.429 3.92047C95.0748 3.69963 95.8415 4.0538 95.3498 3.77047C95.3707 3.81214 94.9249 3.60797 95.0207 3.60797L95.204 3.6955C95.1707 3.66217 95.0957 3.62465 95.1415 3.62465C95.2373 3.67881 95.4082 3.74129 95.3874 3.70379L95.6123 3.8163L95.2915 3.62465C95.5082 3.66631 95.2832 3.50384 95.5498 3.5955C95.5498 3.5955 95.7123 3.56216 95.4332 3.42883C95.604 3.51633 95.6915 3.49967 95.8957 3.5955C95.704 3.49134 95.5623 3.36215 95.7915 3.42049L95.8123 3.43717C96.0707 3.42884 95.5749 3.15383 95.879 3.17467C95.654 3.09133 95.7915 3.09131 95.504 2.99131C95.254 2.79131 96.1498 3.05381 95.2748 2.67881C95.2415 2.62047 95.4998 2.71217 95.554 2.708L95.5957 2.73715C95.554 2.63298 95.5499 2.60796 95.5957 2.56213C95.5207 2.49963 95.1082 2.34132 95.2248 2.32882C95.3832 2.40799 95.3623 2.37463 95.3665 2.35797C95.3873 2.3788 95.4457 2.40798 95.5665 2.42465C95.5165 2.40381 95.4874 2.38298 95.4624 2.37048C95.4749 2.37464 95.4873 2.37882 95.504 2.38299C95.4582 2.32882 95.404 2.31631 95.3748 2.32048C95.3498 2.31215 95.3165 2.29966 95.2707 2.28716C95.4957 2.333 95.2915 2.19134 95.5748 2.29134C95.5457 2.1705 95.2748 1.99963 95.1957 1.88296C95.3457 1.92879 95.4665 1.99129 95.5165 2.03712L95.4832 1.96215C95.6915 2.03715 95.5915 2.03716 95.629 2.07049C95.9915 2.12466 95.3373 1.81214 95.679 1.84547L95.5165 1.7705H95.5457C95.4582 1.7455 95.3457 1.683 95.3207 1.66216C95.5082 1.71633 95.7415 1.81217 95.7457 1.7705C95.9332 1.80384 95.6873 1.6538 95.604 1.5788C95.5665 1.5913 95.4665 1.54546 95.404 1.51629C95.404 1.49546 95.5915 1.54966 95.5165 1.50383L95.7665 1.58714C95.529 1.51214 95.5332 1.44967 95.4332 1.408C95.6207 1.46217 95.5832 1.49132 95.7165 1.54549C95.7165 1.46215 95.7165 1.50379 95.7207 1.41629C95.5457 1.31213 95.4832 1.3455 95.2707 1.24967C95.2332 1.1955 95.0748 1.1038 95.2373 1.11214L95.0123 1.04963C94.8623 0.924626 94.8998 0.89549 95.1415 0.924656C94.3248 0.374656 93.7123 0.153794 93.3123 0.0621278C92.9082 -0.0295389 92.7165 0.0079591 92.7165 0.0079591C92.1665 0.0287924 92.779 0.332994 92.8748 0.616327L92.8623 0.620498Z" fill="#20BB65"/>
<path d="M87.4706 14.9246L87.3789 14.8829C87.4122 14.9121 87.4456 14.9329 87.4706 14.9246Z" fill="#20BB65"/>
<path d="M81.5703 20.3038C81.5703 20.3038 81.5745 20.3163 81.5787 20.3246C81.5787 20.3163 81.5786 20.308 81.5703 20.3038Z" fill="#20BB65"/>
<path d="M84.2957 13.508C84.2957 13.508 84.2874 13.4914 84.2832 13.483L84.2957 13.508Z" fill="#20BB65"/>
<path d="M85.5284 12.608C85.1742 12.8205 84.7742 12.583 84.6242 13.0038C84.4617 13.1163 84.3908 13.3371 84.2992 13.5121C84.4867 13.8246 84.1242 13.6913 84.2575 13.9788L84.0867 13.8663C84.1325 13.9621 84.1492 14.0413 84.045 13.9913L84.0075 13.9496C84.0742 14.0955 83.9659 14.0746 83.9992 14.1496L83.9617 14.108L83.9325 14.1746L83.8825 14.108C83.9242 14.2913 83.8617 14.3663 83.745 14.3746L83.92 14.5454C83.595 14.4788 83.895 14.8913 83.5492 14.7746L83.5117 14.7288C83.7909 15.3413 82.9659 14.6413 83.2159 15.2371C83.1867 15.1621 83.1242 15.1538 83.0825 15.108C83.0534 15.2288 82.9992 15.3288 83.32 15.6788C83.2617 15.7246 83.1742 15.6079 83.045 15.4829C83.1867 15.6371 83.195 15.7454 83.1617 15.7913L83.1283 15.7121L83.0492 15.8788L83.3367 16.1496C83.195 16.1246 82.9992 15.808 82.9992 15.9371L83.2159 16.1788C83.0825 16.2163 82.6992 15.8954 82.4492 15.7954C81.9908 16.0121 82.1283 16.9913 81.4033 16.8538L81.2325 16.6788C80.995 16.4121 81.4742 17.1663 81.2492 16.9246L81.3117 17.083C81.2575 17.0455 81.1909 17.0121 81.1617 16.9329C81.1159 16.9538 81.1492 16.9996 81.1909 17.1038L81.0075 16.9663C80.7492 16.958 80.8908 17.3954 80.6783 17.4538C80.2033 17.2579 80.1034 17.8705 80.0367 18.2246C80.0617 18.883 78.8492 18.0205 78.9117 18.7371C78.87 18.7038 78.9117 18.8163 78.9367 18.8455L78.6242 19.0163C78.6242 19.0163 78.2575 19.2413 78.2409 19.6705C78.2242 20.0996 78.5367 20.7413 79.9575 21.5413L79.995 21.608C80.27 21.6413 80.3992 21.5996 80.2784 21.1996C80.5825 21.5705 80.4408 21.1413 80.57 21.2371L80.5909 21.2704C80.47 20.8996 80.9784 21.3621 80.8784 21.0288C80.8992 21.0621 80.9742 21.1705 80.9575 21.1913C80.9909 21.0913 81.02 20.9329 81.195 21.1538C81.3158 20.9704 81.6283 20.8955 81.4575 20.4621L81.4992 20.5288C81.3742 20.2454 81.5492 20.433 81.52 20.258C81.545 20.283 81.5617 20.2955 81.57 20.308C81.4534 20.0246 81.7325 20.1246 81.7034 19.983L81.82 20.1246L81.9242 19.9913L81.8533 19.9996C81.5533 19.5871 82.1492 20.1746 82.0367 19.8413C82.1658 19.8205 81.5492 18.8705 81.795 18.9955C81.6867 18.7746 82.0034 19.3288 81.9492 19.1329C82.12 19.3371 82.0242 19.2871 82.1742 19.4371C82.1575 19.2871 82.4492 19.5663 82.4117 19.3621L82.545 19.5205C82.4075 19.1455 82.9075 19.5746 82.745 19.2413C82.7409 19.0246 83.2075 19.658 83.0575 19.258L83.2783 19.4371C83.3533 19.4371 83.0908 19.1455 83.2283 19.208C83.3367 19.3455 83.3825 19.2621 83.4617 19.4163C83.7575 19.533 83.445 18.9163 83.8992 19.1454C83.7075 18.8538 83.92 18.9454 83.7742 18.7288C83.8742 18.8371 83.945 18.6163 84.07 18.9371C84.0784 18.9621 84.0617 18.9704 84.0284 18.9246L84.1492 19.0871C84.4867 19.3038 84.17 18.7913 84.2909 18.7621C84.22 18.7329 84.1992 18.7746 84.1284 18.6496L84.2242 18.5996L84.32 18.7455L84.5033 18.7163L84.3492 18.5704C84.4783 18.6038 84.7367 18.8538 84.6034 18.5704C84.52 18.4204 84.3617 18.4038 84.3783 18.2996C84.5492 18.3413 84.8117 18.4038 84.9492 18.3621C84.7825 18.1913 84.8117 18.1746 84.8075 18.1163L84.9492 18.2663C84.8617 17.958 85.2909 18.5704 85.2409 18.3079L85.3284 18.4246L85.0659 18.0788C84.8825 17.6913 85.4033 18.3538 85.1283 17.8454C85.1117 17.9079 84.8034 17.5246 84.9117 17.5455L85.0325 17.7038C85.0325 17.6496 84.9825 17.5788 85.0325 17.5913C85.0909 17.6871 85.22 17.8163 85.2367 17.7538L85.3784 17.9621L85.2034 17.6204C85.4075 17.7246 85.3159 17.4413 85.5325 17.6246C85.5325 17.6246 85.7533 17.6079 85.57 17.3538C85.6742 17.5163 85.795 17.508 85.9284 17.6913C85.8117 17.5038 85.7867 17.2829 85.9867 17.4163L85.9992 17.4413C86.3034 17.4788 86.0159 16.9746 86.3409 17.0621C86.17 16.8954 86.3242 16.9246 86.095 16.7205C86.0117 16.3788 86.77 16.9371 86.1492 16.2121C86.17 16.1163 86.3742 16.3038 86.4409 16.3079L86.4617 16.358C86.5158 16.1955 86.5409 16.158 86.6367 16.0913C86.6117 15.9871 86.3034 15.6663 86.4534 15.6705C86.5534 15.8163 86.5617 15.7663 86.5867 15.7371C86.5867 15.7746 86.6283 15.8246 86.7492 15.8705C86.7158 15.8288 86.6992 15.7955 86.6867 15.7705C86.695 15.7788 86.7075 15.7871 86.72 15.7996C86.72 15.7121 86.6742 15.6788 86.6367 15.6829C86.62 15.6621 86.5909 15.6413 86.5534 15.6121C86.7617 15.7246 86.67 15.4705 86.8909 15.6746C86.9742 15.4871 86.845 15.1746 86.87 14.9788C86.995 15.0746 87.07 15.1954 87.0784 15.2704L87.1159 15.1496C87.2784 15.3038 87.1659 15.2871 87.1742 15.3413C87.5284 15.4913 87.1033 14.8913 87.4533 15.0038L87.3492 14.8579L87.3784 14.8704C87.3117 14.8079 87.2408 14.6954 87.2367 14.6579C87.395 14.7746 87.5617 14.9663 87.6075 14.8996C87.7867 14.983 87.6575 14.708 87.6367 14.5788C87.5825 14.5871 87.5117 14.5038 87.4742 14.4454C87.495 14.4121 87.6534 14.5288 87.6117 14.4454L87.8075 14.6205C87.6159 14.4621 87.6784 14.3663 87.6117 14.2829C87.77 14.3996 87.695 14.4413 87.795 14.5454C87.8825 14.4121 87.8367 14.4788 87.9242 14.3496C87.8325 14.1538 87.7284 14.1955 87.5867 14.008C87.5992 13.9205 87.5075 13.7455 87.6825 13.7913L87.4909 13.6538C87.4492 13.4329 87.52 13.3913 87.7575 13.4788C87.3783 12.4705 86.9158 12.0163 86.5617 11.7996C86.2033 11.5829 85.9492 11.608 85.9492 11.608C85.3159 11.5455 85.695 12.1371 85.5242 12.5955L85.5284 12.608Z" fill="#20BB65"/>
<path d="M71.1834 27.037L71.1084 26.9662C71.1292 27.0037 71.1542 27.0328 71.1834 27.037Z" fill="#20BB65"/>
<path d="M68.5618 24.7497C68.5618 24.7497 68.5618 24.7331 68.5576 24.7247V24.7497H68.5618Z" fill="#20BB65"/>
<path d="M70.0412 24.233C69.6287 24.3289 69.3161 23.9872 69.037 24.3497C68.8453 24.4122 68.7078 24.608 68.562 24.7497C68.6495 25.1039 68.337 24.8747 68.3828 25.1872L68.2495 25.0331C68.262 25.1414 68.2578 25.2206 68.1703 25.1456L68.1453 25.0914C68.1662 25.2497 68.0661 25.2039 68.0786 25.283L68.0536 25.2289L68.0036 25.283L67.9745 25.2039C67.962 25.3914 67.8786 25.4497 67.762 25.4289L67.8828 25.6372C67.587 25.4872 67.7578 25.9664 67.4536 25.7622L67.4286 25.7081C67.5328 26.3747 66.9203 25.4831 66.9995 26.1247C66.9912 26.0456 66.9328 26.0206 66.9078 25.9664C66.8495 26.0747 66.7661 26.158 66.9828 26.583C66.912 26.6122 66.8578 26.4789 66.7662 26.3205C66.862 26.5039 66.8453 26.6122 66.7953 26.6497L66.7828 26.5664L66.662 26.7081L66.8745 27.0414C66.7411 26.983 66.6328 26.6247 66.5995 26.7497L66.7495 27.0372C66.6078 27.0372 66.3161 26.633 66.0995 26.4747C65.5911 26.5789 65.4828 27.5664 64.8036 27.2664L64.6745 27.058C64.5078 26.7414 64.7953 27.5872 64.6328 27.2997L64.6578 27.4705C64.6162 27.4205 64.5578 27.3747 64.5453 27.2914C64.4953 27.2997 64.5203 27.3539 64.537 27.4664L64.3912 27.2914C64.137 27.2247 64.1745 27.6872 63.9495 27.6997C63.5245 27.4039 63.2828 27.9872 63.1453 28.3247C63.0328 28.9747 62.012 27.8872 61.9245 28.608C61.8911 28.5664 61.912 28.683 61.9245 28.7205L61.5787 28.8289C61.5787 28.8289 59.937 29.4539 62.412 31.5622L62.437 31.6372C62.6995 31.7247 62.8286 31.7081 62.787 31.2914C63.012 31.7164 62.9578 31.2664 63.0662 31.3872L63.0786 31.4247C63.0286 31.0372 63.437 31.5914 63.3995 31.2456C63.412 31.2831 63.4661 31.4039 63.4453 31.4205C63.4953 31.3289 63.5536 31.183 63.6828 31.4289C63.837 31.2747 64.1495 31.2664 64.0745 30.8081L64.0995 30.8831C64.037 30.5789 64.1661 30.7997 64.1745 30.6247C64.1953 30.6539 64.2078 30.6705 64.212 30.683C64.1537 30.3789 64.4036 30.5372 64.4078 30.3956L64.4911 30.5622L64.6161 30.4539L64.5453 30.4456C64.3411 29.9789 64.7953 30.6789 64.7578 30.3289C64.887 30.3372 64.487 29.2789 64.6995 29.4539C64.6411 29.2164 64.8286 29.8247 64.8203 29.6206C64.9411 29.8581 64.862 29.7872 64.9745 29.9664C64.9911 29.8164 65.212 30.1539 65.2203 29.9456L65.3161 30.1289C65.262 29.733 65.6536 30.2664 65.5703 29.9039C65.612 29.6914 65.9245 30.4164 65.8661 29.9914L66.0411 30.2164C66.1161 30.2289 65.9245 29.8914 66.0411 29.9831C66.1161 30.1414 66.1787 30.0706 66.2203 30.2372C66.4787 30.4164 66.312 29.7497 66.6995 30.0789C66.5828 29.7539 66.762 29.8914 66.6745 29.6455C66.7453 29.7747 66.862 29.5789 66.912 29.9164C66.912 29.9455 66.8995 29.9497 66.8745 29.8956L66.9536 30.0831C67.2286 30.3747 67.0411 29.8039 67.1661 29.8039C67.1078 29.758 67.0745 29.7955 67.037 29.658L67.1411 29.6372L67.1995 29.7997L67.3828 29.8206L67.2661 29.6414C67.3828 29.7039 67.5703 30.0122 67.5078 29.708C67.4661 29.5414 67.3161 29.4872 67.3536 29.3914C67.5078 29.4747 67.7412 29.5997 67.887 29.5955C67.7662 29.3872 67.7995 29.3789 67.812 29.3206L67.912 29.5039C67.8995 29.1872 68.1661 29.8872 68.1786 29.6206L68.2328 29.7539L68.0662 29.3539C67.9828 28.9331 68.3245 29.7039 68.1828 29.1456C68.1536 29.1997 67.9495 28.7497 68.0495 28.7997L68.1286 28.983C68.1411 28.9289 68.112 28.8497 68.1536 28.8747C68.1828 28.9789 68.2786 29.1372 68.3078 29.083L68.3911 29.3206L68.312 28.9456C68.4786 29.0997 68.4661 28.8039 68.6245 29.0372C68.6245 29.0372 68.837 29.0831 68.7286 28.7914C68.787 28.9789 68.9036 28.9997 68.987 29.2122C68.9245 28.9997 68.9537 28.7831 69.1078 28.9622V28.9914C69.3912 29.1122 69.2495 28.5539 69.5328 28.7247C69.412 28.5164 69.5537 28.5872 69.3912 28.3289C69.4037 27.9789 69.9703 28.7289 69.5787 27.8581C69.6245 27.7747 69.7661 28.008 69.8286 28.033L69.837 28.0872C69.9328 27.9455 69.9662 27.9164 70.0745 27.883C70.0787 27.7747 69.8745 27.3831 70.0162 27.4289C70.0703 27.5997 70.0912 27.5497 70.1245 27.5331C70.1162 27.5706 70.1411 27.6289 70.2411 27.7081C70.2203 27.6581 70.2161 27.6206 70.212 27.5914C70.2203 27.6039 70.2245 27.6122 70.2328 27.6289C70.2578 27.5455 70.2203 27.4997 70.187 27.4956C70.1745 27.4706 70.1578 27.4414 70.1245 27.4039C70.2912 27.5705 70.2745 27.3039 70.4286 27.5664C70.5578 27.4164 70.5286 27.0789 70.6078 26.8997C70.6995 27.0289 70.7328 27.1664 70.7245 27.2414L70.7953 27.1372C70.9036 27.3331 70.8036 27.2789 70.7953 27.3372C71.087 27.5872 70.8578 26.8914 71.1536 27.1039L71.0953 26.933L71.1162 26.9539C71.0703 26.8705 71.037 26.7456 71.0453 26.7081C71.1578 26.8664 71.262 27.0997 71.3245 27.0539C71.4703 27.1872 71.4286 26.8872 71.4453 26.7581C71.3911 26.7497 71.3495 26.6497 71.3328 26.5789C71.362 26.5539 71.4786 26.7122 71.462 26.6247L71.5953 26.8539C71.462 26.6456 71.5495 26.5705 71.512 26.4705C71.6245 26.6289 71.5412 26.6455 71.6078 26.7789C71.7287 26.683 71.6703 26.7289 71.7912 26.633C71.7662 26.4205 71.6578 26.4247 71.5745 26.2039C71.612 26.1247 71.5828 25.9289 71.7328 26.0289L71.5953 25.8414C71.6245 25.6164 71.7078 25.5997 71.9036 25.7622C71.8661 24.6872 71.5828 24.1039 71.3161 23.7831C71.0495 23.4622 70.7953 23.408 70.7953 23.408C70.2036 23.1539 70.3703 23.8414 70.0536 24.2247L70.0412 24.233Z" fill="#20BB65"/>
<path d="M53.0657 35.7538L52.999 35.6788C53.0157 35.7205 53.0407 35.7496 53.0657 35.7538Z" fill="#20BB65"/>
<path d="M52.1995 32.8537C51.7745 32.9121 51.4911 32.5412 51.1745 32.8829C50.9745 32.9329 50.8161 33.1162 50.6536 33.2454C50.7078 33.6079 50.4162 33.3537 50.4328 33.6704L50.312 33.5037C50.3161 33.612 50.3037 33.6912 50.2245 33.6079L50.2037 33.5537C50.212 33.7162 50.1162 33.6579 50.1203 33.7412L50.0995 33.6871L50.0453 33.7371L50.0245 33.6579C49.9953 33.8454 49.9078 33.8954 49.7953 33.8662L49.8995 34.0829C49.612 33.9121 49.7495 34.4037 49.4578 34.1787L49.437 34.1245C49.4911 34.7995 48.9412 33.8704 48.9745 34.5162C48.9703 34.4371 48.912 34.4079 48.8911 34.3537C48.8203 34.4579 48.7328 34.5371 48.9245 34.9746C48.8495 34.9996 48.8078 34.862 48.7245 34.6995C48.8078 34.8912 48.7828 34.9954 48.7328 35.0329L48.7245 34.9496L48.5953 35.0829L48.7828 35.4287C48.6536 35.362 48.5703 34.9995 48.5287 35.1204L48.662 35.4162C48.5203 35.4079 48.2536 34.9871 48.0453 34.8162C47.5245 34.8954 47.3578 35.8746 46.6953 35.5412L46.5787 35.3245C46.4245 34.9995 46.6745 35.8621 46.5245 35.5662L46.5411 35.737C46.4995 35.6829 46.4453 35.6371 46.437 35.5496C46.387 35.5579 46.4078 35.6121 46.4161 35.7246L46.2786 35.5412C46.0245 35.4621 46.0411 35.9246 45.812 35.9329C45.3953 35.6204 45.1286 36.1954 44.9745 36.5287C44.837 37.1745 43.8495 36.0537 43.7328 36.7704C43.6995 36.7287 43.7161 36.8454 43.7328 36.8829L43.3787 36.9829C43.3787 36.9829 41.7162 37.5662 44.1287 39.7371L44.1495 39.8121C44.4078 39.9037 44.537 39.8912 44.5036 39.4787C44.7161 39.9079 44.6745 39.4579 44.7787 39.5829L44.7911 39.6204C44.7536 39.2329 45.1411 39.7996 45.1161 39.4496C45.1286 39.4871 45.1786 39.6079 45.1578 39.6246C45.212 39.5329 45.2745 39.3912 45.3911 39.6454C45.5495 39.4954 45.8578 39.4996 45.7995 39.0412L45.8245 39.1163C45.7703 38.8121 45.8953 39.037 45.9078 38.862C45.9287 38.8954 45.9411 38.9079 45.9453 38.9245C45.8995 38.6204 46.1411 38.7871 46.1495 38.6454L46.2286 38.812L46.3578 38.7079L46.287 38.6954C46.0995 38.2204 46.5287 38.9371 46.4995 38.5912C46.6245 38.6079 46.2745 37.5329 46.4787 37.7162C46.4328 37.4745 46.5911 38.0912 46.5911 37.8912C46.6995 38.1329 46.6245 38.0579 46.7286 38.2454C46.7495 38.0995 46.9578 38.4412 46.9745 38.237L47.062 38.4246C47.0245 38.0246 47.3911 38.5787 47.3245 38.2121C47.3745 38.0037 47.6536 38.7412 47.6161 38.3121L47.7787 38.5454C47.8495 38.5621 47.6786 38.2121 47.7911 38.3121C47.8578 38.4746 47.9245 38.4079 47.9578 38.5787C48.2037 38.7704 48.0745 38.0995 48.437 38.4495C48.337 38.1204 48.5078 38.2662 48.437 38.0162C48.5036 38.1496 48.6245 37.9579 48.6578 38.2995C48.6578 38.3287 48.6411 38.3287 48.6203 38.2746L48.6912 38.4662C48.9453 38.7746 48.7911 38.1912 48.912 38.2037C48.8536 38.1537 48.8245 38.1871 48.7912 38.0496L48.8953 38.0329L48.9453 38.1996L49.1245 38.2287L49.0203 38.0412C49.1328 38.1121 49.3037 38.4329 49.2578 38.1204C49.2245 37.9496 49.0786 37.8871 49.1245 37.7954C49.2745 37.8871 49.4953 38.0287 49.637 38.0329C49.5286 37.8204 49.5662 37.8121 49.5787 37.7537L49.6661 37.9412C49.6745 37.6246 49.8953 38.3413 49.9245 38.0746L49.9703 38.2121L49.8286 37.7996C49.7745 37.3746 50.062 38.1662 49.9578 37.5996C49.9245 37.6537 49.7495 37.1912 49.8453 37.2454L49.912 37.4371C49.9287 37.3829 49.9036 37.3037 49.9453 37.3329C49.9703 37.4412 50.0536 37.6037 50.087 37.5496L50.1536 37.7912L50.0953 37.412C50.2537 37.5787 50.2578 37.2829 50.3995 37.5287C50.3995 37.5287 50.6078 37.5871 50.5162 37.2912C50.562 37.4787 50.6745 37.5121 50.7453 37.7287C50.6953 37.5121 50.7453 37.2996 50.8828 37.4912V37.5204C51.1536 37.6621 51.0495 37.0954 51.3203 37.2912C51.2162 37.0746 51.3495 37.1579 51.2078 36.887C51.2453 36.537 51.7495 37.3329 51.4245 36.4371C51.4745 36.3579 51.5995 36.6037 51.6578 36.6329V36.6871C51.7662 36.5579 51.7995 36.5287 51.912 36.5037C51.9245 36.3954 51.7537 35.9871 51.887 36.0454C51.9287 36.2204 51.9536 36.1745 51.987 36.1579C51.9745 36.1912 51.9953 36.2537 52.087 36.3412C52.0703 36.2871 52.0661 36.2537 52.0661 36.2246C52.0703 36.2371 52.0786 36.2454 52.0828 36.262C52.1161 36.1787 52.0828 36.1329 52.0453 36.1246C52.037 36.0996 52.0203 36.0704 51.9912 36.0287C52.1412 36.2121 52.1495 35.9412 52.2787 36.2162C52.4203 36.0787 52.4162 35.7371 52.512 35.5704C52.5912 35.7037 52.612 35.8454 52.5953 35.9204L52.6745 35.8246C52.762 36.0287 52.6703 35.9662 52.6578 36.0204C52.9245 36.2996 52.7578 35.5829 53.0328 35.8246L52.9912 35.6496L53.012 35.6746C52.9745 35.5912 52.9537 35.4579 52.962 35.4245C53.062 35.5954 53.1411 35.837 53.2078 35.7954C53.337 35.9412 53.3245 35.6412 53.3537 35.5121C53.3037 35.4996 53.2703 35.3954 53.2578 35.3245C53.2911 35.3037 53.387 35.4704 53.3828 35.3829L53.4911 35.6204C53.3786 35.3996 53.4745 35.3371 53.4453 35.2329C53.5453 35.4037 53.4578 35.4079 53.5078 35.5496C53.637 35.4662 53.5745 35.5079 53.6995 35.4245C53.6953 35.212 53.587 35.2037 53.5287 34.9787C53.5745 34.9037 53.562 34.7079 53.7036 34.8204L53.587 34.6162C53.637 34.3954 53.7203 34.3871 53.8995 34.5662C54.0495 32.4246 53.0453 32.1079 53.0453 32.1079C52.4786 31.7954 52.5662 32.4996 52.2078 32.8537H52.1995Z" fill="#20BB65"/>
<path d="M34.9117 44.0078L34.8408 43.9327C34.8617 43.9744 34.8867 44.0036 34.9117 44.0078Z" fill="#20BB65"/>
<path d="M28.1318 47.7036C28.1318 47.7036 28.1318 47.7161 28.136 47.7244C28.136 47.7161 28.136 47.7078 28.1318 47.7036Z" fill="#20BB65"/>
<path d="M33.9071 41.1537C33.4821 41.2328 33.178 40.8829 32.8738 41.2412C32.6738 41.3037 32.5238 41.4954 32.3655 41.637C32.4405 41.9954 32.1321 41.762 32.1655 42.0787L32.0363 41.9204C32.0488 42.0287 32.0363 42.1079 31.9529 42.0329L31.9279 41.9787C31.9446 42.1412 31.8446 42.0912 31.853 42.1704L31.828 42.1162L31.778 42.1704L31.7488 42.0912C31.7321 42.2787 31.6446 42.337 31.528 42.3162L31.6446 42.5287C31.3446 42.3787 31.5113 42.8579 31.2071 42.6579L31.1821 42.6037C31.278 43.2704 30.6655 42.387 30.7405 43.0287C30.7321 42.9495 30.6696 42.9245 30.6446 42.8703C30.5821 42.9828 30.4988 43.0662 30.7196 43.487C30.6488 43.5162 30.5946 43.387 30.4988 43.2287C30.5988 43.412 30.578 43.5203 30.5321 43.562L30.5196 43.4787L30.3988 43.6245L30.6155 43.9537C30.4821 43.8995 30.3696 43.5412 30.3363 43.6662L30.4905 43.9537C30.3488 43.9537 30.0488 43.5579 29.8238 43.4079C29.303 43.5329 29.2196 44.5245 28.5238 44.2579L28.3863 44.0537C28.2029 43.7454 28.528 44.5787 28.353 44.2995L28.3821 44.4704C28.3363 44.4245 28.2738 44.3787 28.2613 44.2954C28.2113 44.3079 28.2363 44.362 28.2613 44.4745L28.103 44.3079C27.8405 44.2579 27.8988 44.7162 27.6696 44.7453C27.2196 44.4787 27.0071 45.0828 26.8863 45.437C26.8196 46.0912 25.6988 45.1079 25.6655 45.8371C25.628 45.7996 25.6571 45.9162 25.6779 45.9495L25.3363 46.0995C25.3363 46.0995 24.9363 46.3037 24.878 46.737C24.8196 47.1703 25.1155 47.8162 26.453 48.7287L26.4863 48.7995C26.7529 48.8579 26.878 48.8287 26.7863 48.4245C27.053 48.8245 26.9488 48.3829 27.0696 48.4912L27.0863 48.5287C26.9988 48.1495 27.453 48.662 27.3821 48.3204C27.3988 48.3537 27.4654 48.4704 27.4446 48.4912C27.4863 48.3954 27.528 48.2454 27.678 48.4829C27.8113 48.3162 28.1155 48.287 27.9988 47.837L28.0321 47.9079C27.9405 47.612 28.0905 47.8204 28.0821 47.6495C28.103 47.6787 28.1196 47.6912 28.128 47.7079C28.0446 47.412 28.3071 47.5495 28.2988 47.4078L28.3946 47.5662L28.5113 47.4495H28.4405C28.203 46.9912 28.703 47.662 28.6405 47.3162C28.7655 47.3162 28.303 46.287 28.5238 46.4495C28.453 46.2162 28.6738 46.8079 28.653 46.612C28.7863 46.8412 28.7029 46.7745 28.8279 46.9495C28.8321 46.7995 29.0738 47.1204 29.0696 46.9162L29.1738 47.0953C29.0946 46.7037 29.5155 47.2162 29.4113 46.862C29.4405 46.6495 29.7905 47.3537 29.7071 46.937L29.8905 47.1537C29.9613 47.1662 29.7571 46.8329 29.8821 46.9204C29.9655 47.0745 30.0238 47.0037 30.0696 47.1704C30.3321 47.3412 30.1363 46.6828 30.528 46.9995C30.3988 46.6787 30.5821 46.812 30.4821 46.5703C30.5571 46.6995 30.6613 46.4995 30.7238 46.837C30.728 46.8662 30.7113 46.8662 30.6863 46.8162L30.7738 46.9995C31.053 47.2828 30.8446 46.7204 30.9696 46.7204C30.9071 46.6745 30.8821 46.712 30.8363 46.5745L30.9363 46.5495L30.9988 46.712L31.178 46.7287L31.0571 46.5537C31.1738 46.6162 31.3696 46.9204 31.2946 46.6162C31.2488 46.4495 31.0988 46.3995 31.1321 46.3037C31.2863 46.3829 31.5196 46.5079 31.6613 46.5037C31.5363 46.2995 31.5696 46.2912 31.578 46.2329L31.678 46.412C31.6571 46.0953 31.9363 46.7912 31.9446 46.5287L32.0029 46.662L31.828 46.262C31.7363 45.8453 32.0863 46.612 31.9363 46.0537C31.9071 46.1078 31.6988 45.662 31.7988 45.712L31.878 45.8953C31.8905 45.8412 31.8613 45.762 31.9029 45.787C31.9363 45.8912 32.0321 46.0495 32.0613 45.9953L32.1488 46.2329L32.0613 45.862C32.228 46.0162 32.2113 45.7203 32.3696 45.9578C32.3696 45.9578 32.578 46.0037 32.4696 45.712C32.5321 45.8954 32.6446 45.9204 32.728 46.1329C32.6655 45.9204 32.6905 45.7037 32.8446 45.887V45.9162C33.1238 46.0412 32.978 45.4829 33.2613 45.6579C33.1446 45.4495 33.2821 45.5245 33.1196 45.262C33.1321 44.912 33.6863 45.6745 33.3071 44.7995C33.3529 44.7162 33.4905 44.9537 33.5488 44.9787L33.5571 45.0329C33.653 44.8954 33.6863 44.8662 33.7946 44.837C33.803 44.7287 33.6071 44.3328 33.7446 44.3828C33.7946 44.5537 33.8155 44.5078 33.8488 44.4912C33.8405 44.5245 33.8613 44.587 33.9613 44.6704C33.9446 44.6204 33.9363 44.5829 33.9321 44.5537C33.9404 44.5662 33.9446 44.5745 33.953 44.5912C33.978 44.5078 33.9446 44.4662 33.9071 44.4537C33.8946 44.4287 33.878 44.3995 33.8488 44.362C34.0071 44.537 33.9988 44.2662 34.1446 44.5329C34.278 44.387 34.253 44.0495 34.3363 43.8745C34.4196 44.0037 34.453 44.1454 34.4405 44.2162L34.5113 44.1162C34.6113 44.3162 34.5113 44.2579 34.5029 44.312C34.7821 44.5787 34.578 43.8704 34.8655 44.0995L34.8154 43.9287L34.8363 43.9495C34.7946 43.8662 34.7696 43.737 34.7738 43.6995C34.878 43.862 34.9738 44.0995 35.0363 44.0579C35.1738 44.1995 35.1446 43.8995 35.1696 43.7703C35.1155 43.7578 35.0821 43.6579 35.0655 43.587C35.0946 43.5662 35.203 43.7287 35.1905 43.6412L35.3113 43.8745C35.1863 43.6578 35.2821 43.5912 35.2446 43.4912C35.3488 43.6579 35.2655 43.6662 35.3238 43.8037C35.4488 43.7162 35.3863 43.7579 35.5113 43.6704C35.4946 43.4579 35.3863 43.4537 35.3196 43.2329C35.3613 43.1537 35.3405 42.962 35.4863 43.0662L35.3613 42.8703C35.4029 42.6495 35.4863 42.637 35.6696 42.8079C35.7363 40.662 34.7196 40.387 34.7196 40.387C34.1321 40.0995 34.2488 40.7995 33.9029 41.1745L33.9071 41.1537Z" fill="#20BB65"/>
<path d="M18.358 54.5747L18.2705 54.5205C18.2997 54.5538 18.333 54.5788 18.358 54.5747Z" fill="#20BB65"/>
<path d="M13.2119 60.0914C13.2119 60.0914 13.2203 60.1039 13.2244 60.1081C13.2244 60.0998 13.2161 60.0956 13.2119 60.0914Z" fill="#20BB65"/>
<path d="M15.2703 52.9622C15.2703 52.9622 15.262 52.9455 15.2578 52.9371L15.2662 52.9622H15.2703Z" fill="#20BB65"/>
<path d="M16.6662 52.0663C16.2662 52.258 15.8829 51.9997 15.6704 52.433C15.4871 52.5497 15.3913 52.783 15.2746 52.9622C15.4413 53.2872 15.0788 53.1538 15.1954 53.4496L15.0246 53.3372C15.0662 53.4372 15.0787 53.5205 14.9746 53.4705L14.9371 53.4288C14.9996 53.5788 14.8871 53.5622 14.9163 53.6372L14.8788 53.5913L14.8454 53.6621L14.7954 53.5955C14.8287 53.783 14.7579 53.8663 14.6413 53.8788L14.8162 54.0455C14.4829 53.9955 14.7829 54.4038 14.4246 54.3038L14.3871 54.2622C14.6746 54.8747 13.8204 54.2163 14.0829 54.8121C14.0496 54.7371 13.9829 54.733 13.9454 54.6913C13.9163 54.8205 13.8621 54.9288 14.2038 55.258C14.1454 55.308 14.0496 55.1997 13.9121 55.083C14.0621 55.2288 14.0746 55.3372 14.0412 55.3913L14.0038 55.3163L13.9329 55.4955L14.2413 55.7413C14.0954 55.733 13.8787 55.4288 13.8829 55.558L14.1204 55.783C13.9871 55.833 13.5746 55.5496 13.3121 55.4788C12.8454 55.7788 13.0913 56.7497 12.3371 56.7455L12.1371 56.6038C11.8579 56.3788 12.4496 57.0497 12.1871 56.8497L12.2746 56.9996C12.2163 56.9705 12.1413 56.9538 12.0996 56.8788C12.0538 56.9122 12.0996 56.9496 12.1579 57.0496L11.9496 56.9496C11.6829 57.0038 11.8954 57.4122 11.6912 57.5288C11.1704 57.4497 11.1829 58.108 11.2038 58.483C11.3871 59.1163 9.96625 58.658 10.2163 59.3538C10.1663 59.3372 10.2413 59.4288 10.2746 59.4538L10.0163 59.7372C10.0163 59.7372 9.72875 60.0997 9.85375 60.5247C9.97459 60.9497 10.5246 61.3955 12.1163 61.6746L12.1746 61.7246C12.4371 61.6705 12.5371 61.5996 12.2912 61.2663C12.6996 61.5205 12.4204 61.1663 12.5746 61.2163L12.6037 61.2413C12.3704 60.933 12.9912 61.2205 12.7871 60.9413C12.8162 60.9663 12.9204 61.0455 12.9121 61.0705C12.9121 60.9705 12.8913 60.8163 13.1204 60.9747C13.1746 60.7747 13.4329 60.6371 13.1537 60.2705L13.2121 60.3246C13.0163 60.0871 13.2329 60.2246 13.1579 60.0705C13.1913 60.0871 13.2079 60.0955 13.2204 60.1038C13.0329 59.8622 13.3204 59.8955 13.2579 59.7663L13.4079 59.8747L13.4662 59.7247L13.3996 59.7455C13.0079 59.4163 13.7246 59.8497 13.5329 59.558C13.6496 59.5163 12.8371 58.7288 13.1037 58.7955C12.9496 58.6038 13.3787 59.0747 13.2829 58.8997C13.4912 59.0663 13.3912 59.033 13.5662 59.1497C13.5162 59.0122 13.8537 59.2205 13.7746 59.0372L13.9371 59.1663C13.7246 58.8288 14.2954 59.1621 14.0704 58.8663C14.0204 58.658 14.5954 59.1955 14.3704 58.833L14.6163 58.9746C14.6871 58.9621 14.3788 58.7205 14.5246 58.7621C14.6579 58.8788 14.6829 58.7955 14.7871 58.9288C15.0871 59.0038 14.6788 58.458 15.1496 58.6247C14.9163 58.3663 15.1329 58.433 14.9579 58.2371C15.0704 58.333 15.1038 58.1121 15.2746 58.408C15.2871 58.433 15.2746 58.4413 15.2329 58.3996L15.3788 58.5455C15.7371 58.7247 15.3496 58.2622 15.4621 58.2247C15.3913 58.2038 15.3787 58.2455 15.2912 58.1288L15.3788 58.0747L15.4913 58.2038L15.6621 58.1663L15.4913 58.0371C15.6204 58.058 15.9037 58.283 15.7329 58.0205C15.6329 57.8788 15.4788 57.8788 15.4788 57.7746C15.6496 57.7996 15.9079 57.8497 16.0371 57.8038C15.8538 57.6497 15.8829 57.6288 15.8704 57.5746L16.0246 57.7122C15.9038 57.4205 16.3871 57.9913 16.3079 57.7413L16.4037 57.8497L16.1121 57.5247C15.8954 57.158 16.4662 57.7788 16.1496 57.2955C16.1412 57.358 15.8037 56.9955 15.9121 57.0122L16.0454 57.1622C16.0371 57.108 15.9871 57.0413 16.0329 57.0538C16.0954 57.1455 16.2329 57.2621 16.2454 57.2038L16.4037 57.4038L16.2079 57.0788C16.4121 57.1747 16.3038 56.9038 16.5246 57.0788C16.5246 57.0788 16.7329 57.0622 16.5412 56.8205C16.6537 56.9788 16.7704 56.9663 16.9121 57.1455C16.7871 56.9621 16.7454 56.7496 16.9454 56.883L16.9579 56.908C17.2537 56.9497 16.9496 56.4622 17.2662 56.5538C17.0912 56.3872 17.2454 56.4205 17.0163 56.2163C16.9288 55.8788 17.6704 56.458 17.0579 55.7247C17.0787 55.633 17.2787 55.8247 17.3412 55.833L17.3621 55.883C17.4121 55.7288 17.4371 55.6913 17.5287 55.633C17.5037 55.5288 17.2079 55.1997 17.3538 55.2122C17.4496 55.3622 17.4579 55.3122 17.4829 55.2872C17.4829 55.3247 17.5246 55.3746 17.6371 55.4288C17.6038 55.383 17.5912 55.3538 17.5787 55.3246C17.5871 55.333 17.5954 55.3413 17.6079 55.3538C17.6079 55.2663 17.5662 55.233 17.5287 55.2372C17.5121 55.2163 17.4871 55.1913 17.4454 55.1621C17.6454 55.2871 17.5621 55.033 17.7746 55.2497C17.8579 55.0747 17.7454 54.758 17.7829 54.5705C17.8996 54.6747 17.9662 54.7997 17.9704 54.8747L18.0121 54.7621C18.1621 54.9288 18.0538 54.8996 18.0579 54.9538C18.3954 55.1371 18.0121 54.5121 18.3454 54.658L18.2537 54.5038L18.2787 54.5205C18.2162 54.4497 18.1579 54.333 18.1537 54.2955C18.2996 54.4288 18.4496 54.633 18.4954 54.5747C18.6621 54.6788 18.5579 54.3955 18.5496 54.2663C18.4954 54.2663 18.4371 54.1788 18.4038 54.1163C18.4288 54.0872 18.5704 54.2205 18.5371 54.1371L18.7121 54.333C18.5371 54.1538 18.6121 54.0663 18.5496 53.9788C18.6913 54.1121 18.6163 54.1455 18.7038 54.2622C18.7996 54.1455 18.7538 54.2038 18.8496 54.0913C18.7829 53.8872 18.6788 53.9121 18.5579 53.7121C18.5788 53.6288 18.5121 53.4413 18.6746 53.5121L18.5038 53.3496C18.4913 53.1246 18.5704 53.0955 18.7913 53.2205C18.5663 52.1705 18.2038 51.633 17.8829 51.3621C17.5663 51.0913 17.2954 51.0913 17.2954 51.0913C16.6496 50.958 16.9204 51.6163 16.6704 52.0705L16.6662 52.0663Z" fill="#20BB65"/>
<path d="M7.7455 70.5578L7.64551 70.5494C7.68717 70.5661 7.72467 70.5703 7.7455 70.5578Z" fill="#20BB65"/>
<path d="M5.4082 77.8578C5.4082 77.8578 5.4207 77.8661 5.42903 77.8702C5.4207 77.8619 5.41654 77.862 5.4082 77.8578Z" fill="#20BB65"/>
<path d="M4.26597 70.5412C4.26597 70.5412 4.25345 70.5287 4.24512 70.5245L4.26597 70.5412Z" fill="#20BB65"/>
<path d="M5.08277 69.1245C4.82027 69.4745 4.35777 69.4203 4.37443 69.8953C4.2661 70.0787 4.28696 70.3245 4.26612 70.537C4.56196 70.7495 4.17862 70.7911 4.41612 70.9995L4.21195 70.9745C4.29529 71.0453 4.34111 71.112 4.22861 71.112L4.17444 71.0912C4.29528 71.1995 4.19111 71.2287 4.24944 71.2828L4.19527 71.262V71.337L4.12027 71.2995C4.23694 71.4495 4.21193 71.5537 4.11193 71.6162L4.34112 71.687C4.02029 71.787 4.47029 72.0204 4.10779 72.087L4.05362 72.0662C4.58279 72.487 3.52445 72.2662 4.02445 72.6828C3.96195 72.6328 3.90362 72.6537 3.84946 72.6328C3.88279 72.7578 3.87861 72.8786 4.32861 73.0286C4.29944 73.0995 4.16611 73.0412 3.99111 72.9953C4.19111 73.062 4.24946 73.1537 4.24112 73.212L4.17444 73.162L4.18696 73.3495L4.57028 73.437C4.43278 73.4912 4.10777 73.312 4.17027 73.4245L4.4786 73.5245C4.3786 73.6245 3.88694 73.5453 3.62027 73.5912C3.3286 74.0453 3.95778 74.8203 3.27028 75.1203L3.02861 75.0703C2.68278 74.9786 3.49527 75.3495 3.17443 75.2703L3.31611 75.3703C3.24944 75.3703 3.17444 75.3786 3.10778 75.3286C3.07861 75.3745 3.13693 75.3912 3.2286 75.4578L2.99944 75.4495C2.77861 75.5995 3.14111 75.887 2.99944 76.0703C2.49527 76.1995 2.76194 76.7828 2.92444 77.1162C3.33694 77.6287 1.84943 77.7203 2.3411 78.2662C2.28693 78.2662 2.39111 78.3287 2.43278 78.337L2.29527 78.687C2.29527 78.687 2.15777 79.1162 2.42444 79.462C2.68694 79.812 3.35777 80.0536 4.94527 79.7495L5.02029 79.7745C5.24945 79.6287 5.31612 79.5203 4.96612 79.2995C5.43695 79.3912 5.05361 79.1578 5.21194 79.1495L5.24945 79.162C4.92028 78.9578 5.6036 78.9995 5.31193 78.8078C5.34943 78.8203 5.47444 78.8578 5.47444 78.8828C5.43694 78.787 5.36194 78.6495 5.63278 78.712C5.61194 78.5036 5.80361 78.2661 5.40361 78.0328L5.47444 78.062C5.20361 77.9162 5.45362 77.9578 5.32862 77.8412C5.36612 77.8453 5.38278 77.8453 5.39944 77.8495C5.13278 77.6953 5.41612 77.612 5.30779 77.5203L5.48695 77.5661V77.4036L5.43278 77.4495C4.94528 77.2954 5.77445 77.4203 5.48695 77.2203C5.57862 77.1328 4.52444 76.7245 4.79527 76.6828C4.57861 76.5661 5.15777 76.8328 4.99943 76.7078C5.25777 76.7787 5.14945 76.787 5.35779 76.8286C5.25779 76.7203 5.65361 76.7787 5.50778 76.637L5.70777 76.6912C5.37861 76.4662 6.03694 76.5412 5.70777 76.3579C5.57861 76.187 6.32444 76.4453 5.97028 76.2036L6.25361 76.2328C6.31194 76.1912 5.93695 76.0953 6.08278 76.0745C6.24945 76.1287 6.24111 76.037 6.39111 76.1203C6.69528 76.062 6.09945 75.7286 6.59945 75.6828C6.28278 75.5453 6.50362 75.512 6.27029 75.4078C6.41612 75.4453 6.34945 75.2328 6.62862 75.4286C6.64945 75.4453 6.6411 75.4578 6.58693 75.4412L6.77861 75.512C7.17861 75.5245 6.63277 75.262 6.72444 75.1787C6.64944 75.187 6.65362 75.2328 6.52862 75.1661L6.58279 75.0787L6.74112 75.1495L6.87861 75.037L6.67027 74.9912C6.79527 74.9537 7.14944 75.0412 6.88278 74.8703C6.73278 74.7828 6.59111 74.8495 6.54945 74.7578C6.71611 74.7078 6.97028 74.637 7.06611 74.5411C6.83694 74.4786 6.85362 74.4495 6.81612 74.4037L7.01611 74.462C6.78278 74.2495 7.46612 74.5578 7.28696 74.362L7.42027 74.4162L7.02028 74.2495C6.66612 74.0078 7.44944 74.3245 6.95777 74.0245C6.97444 74.0828 6.51611 73.9036 6.62027 73.8703L6.80361 73.9495C6.77444 73.9037 6.69944 73.8662 6.74527 73.8579C6.8411 73.912 7.02027 73.962 7.0036 73.8995L7.22862 74.012L6.91195 73.8037C7.14111 73.8037 6.92028 73.5995 7.19945 73.662C7.19945 73.662 7.38278 73.5537 7.09945 73.4162C7.27028 73.5078 7.37029 73.4495 7.57446 73.5454C7.38279 73.437 7.25362 73.262 7.49112 73.2911L7.51195 73.3078C7.79528 73.212 7.30777 72.9037 7.63277 72.8453C7.4036 72.7745 7.55362 72.7328 7.25779 72.6537C7.02862 72.3912 7.95362 72.5704 7.07862 72.1912C7.05779 72.0995 7.32028 72.1787 7.37861 72.1578L7.42027 72.1912C7.39527 72.0287 7.39944 71.9828 7.45778 71.8911C7.39111 71.8078 6.9786 71.6495 7.11194 71.5953C7.2661 71.687 7.24946 71.637 7.26196 71.6037C7.27862 71.637 7.33695 71.662 7.46612 71.6578C7.41612 71.6328 7.39112 71.612 7.36612 71.5912C7.37862 71.5953 7.39111 71.5995 7.40778 71.6037C7.37028 71.5245 7.31612 71.5162 7.28279 71.5328C7.25779 71.5203 7.22445 71.512 7.17445 71.5037C7.40778 71.5245 7.22028 71.3328 7.50778 71.4287C7.50778 71.2328 7.25778 70.9995 7.20362 70.8162C7.35362 70.8537 7.47028 70.937 7.51195 70.9995L7.49529 70.8787C7.70362 70.9578 7.59529 70.9828 7.62445 71.0287C8.00779 71.037 7.38278 70.6537 7.74528 70.6287L7.59111 70.537H7.62028C7.53278 70.5078 7.42445 70.4287 7.40778 70.3953C7.59528 70.4453 7.82444 70.5578 7.8411 70.4828C8.03694 70.4953 7.81611 70.2912 7.74528 70.1828C7.69945 70.2078 7.60362 70.1578 7.54529 70.1161C7.55362 70.0786 7.74112 70.1286 7.67445 70.0703L7.92027 70.162C7.68277 70.087 7.70778 69.9745 7.61194 69.9203C7.79944 69.9703 7.74528 70.037 7.87862 70.0995C7.91195 69.9495 7.89528 70.0245 7.92444 69.8787C7.77028 69.7328 7.68695 69.7995 7.48695 69.6828C7.46611 69.5995 7.32029 69.4662 7.49529 69.4495L7.27027 69.387C7.15361 69.1953 7.20778 69.1328 7.45778 69.137C6.76194 68.3203 6.18695 68.0203 5.77445 67.9328C5.36612 67.8453 5.1286 67.9704 5.1286 67.9704C4.49943 68.1537 5.04945 68.6037 5.04529 69.112L5.08277 69.1245Z" fill="#20BB65"/>
<path d="M3.4457 89.6329L3.3457 89.6579C3.39154 89.6579 3.42903 89.6579 3.4457 89.6329Z" fill="#20BB65"/>
<path d="M3.6123 97.2369C3.6123 97.2369 3.6248 97.2369 3.63313 97.2411C3.6248 97.2369 3.61647 97.2369 3.6123 97.2369Z" fill="#20BB65"/>
<path d="M0.128515 90.6869C0.128515 90.6869 0.111849 90.6786 0.103516 90.6744L0.128515 90.6869Z" fill="#20BB65"/>
<path d="M0.474715 89.0746C0.328881 89.4913 -0.125284 89.583 0.0330489 90.0372C-0.0127844 90.2497 0.0830408 90.4788 0.128874 90.6871C0.478874 90.7955 0.124708 90.958 0.416375 91.083L0.216383 91.1205C0.316383 91.1621 0.383056 91.2122 0.274723 91.2497H0.216383C0.366383 91.308 0.27472 91.3747 0.34972 91.4038H0.29138L0.316379 91.4746L0.233041 91.4622C0.391374 91.5705 0.399721 91.6747 0.324721 91.7705H0.566394C0.295561 91.9663 0.795544 92.0413 0.470544 92.2205H0.41223C1.04556 92.4497 -0.0252814 92.583 0.583052 92.8163C0.508052 92.7872 0.458051 92.8288 0.399718 92.8288C0.470551 92.9371 0.508061 93.0538 0.983061 93.0496C0.978894 93.1288 0.833041 93.1163 0.649707 93.1288C0.858041 93.1288 0.945562 93.1955 0.958062 93.2538L0.878894 93.2247L0.953891 93.3996L1.34556 93.358C1.23306 93.4538 0.866374 93.3872 0.962207 93.4788L1.28722 93.4705C1.22472 93.5997 0.733043 93.683 0.495543 93.8163C0.366376 94.3496 1.22054 94.8746 0.674706 95.3871L0.433058 95.4205C0.0747247 95.4497 0.966387 95.5247 0.637221 95.5622L0.803898 95.608C0.741398 95.6288 0.674727 95.6663 0.591393 95.6413C0.578893 95.6955 0.641395 95.6913 0.749729 95.7247L0.533054 95.7955C0.374721 96.0121 0.812221 96.1621 0.741387 96.383C0.308054 96.6788 0.762226 97.1413 1.03306 97.3997C1.59973 97.7372 0.237215 98.3497 0.891381 98.6913C0.841381 98.7122 0.958052 98.733 0.999719 98.7246V99.1038C0.999719 99.1038 1.02055 99.558 1.39139 99.7913C1.76222 100.025 2.47473 100.008 3.84973 99.158H3.9289C4.0914 98.9413 4.11639 98.8163 3.71222 98.733C4.18722 98.6538 3.74139 98.5705 3.89139 98.5038H3.9289C3.54973 98.4288 4.20388 98.2288 3.86222 98.1538C3.89972 98.1538 4.03305 98.1413 4.04138 98.1663C3.97055 98.0913 3.85389 97.9913 4.13306 97.9538C4.04139 97.7663 4.13305 97.483 3.68305 97.3997H3.76222C3.45389 97.358 3.70805 97.3121 3.54972 97.2455C3.58722 97.2371 3.60388 97.2288 3.62054 97.2288C3.31638 97.1788 3.55388 97.0038 3.42055 96.9538L3.60389 96.933L3.54555 96.7788L3.51223 96.8413C3.0039 96.8663 3.82056 96.6955 3.48306 96.6122C3.53723 96.5038 2.40806 96.4788 2.64973 96.3455C2.40806 96.308 3.04139 96.3622 2.84972 96.2997C3.11639 96.2788 3.02054 96.3247 3.22888 96.2872C3.09554 96.2163 3.48723 96.1413 3.3039 96.058L3.51223 96.0413C3.12473 95.9413 3.77056 95.7872 3.40389 95.7288C3.22473 95.6122 4.01221 95.6038 3.59971 95.4955L3.87473 95.4288C3.9164 95.3705 3.52889 95.408 3.66222 95.3371C3.83722 95.333 3.79972 95.2496 3.96638 95.2788C4.23722 95.1246 3.56221 95.008 4.01638 94.7996C3.67055 94.7746 3.87056 94.6705 3.61223 94.6496C3.76223 94.6371 3.62888 94.458 3.95804 94.5538C3.98304 94.5621 3.97889 94.5788 3.92056 94.5788H4.12472C4.50389 94.4622 3.90805 94.3996 3.96221 94.2913C3.89555 94.3246 3.91637 94.3663 3.77471 94.3413L3.79971 94.2413L3.97055 94.258L4.06638 94.108L3.85388 94.133C3.96221 94.058 4.32055 94.0247 4.01638 93.9497C3.84555 93.9163 3.73306 94.0247 3.66222 93.9497C3.80389 93.8497 4.02056 93.6997 4.08306 93.5788C3.84556 93.5955 3.85388 93.5622 3.80388 93.5288L4.01221 93.5205C3.72054 93.3955 4.46639 93.4663 4.23723 93.3413L4.38305 93.3496L3.94973 93.3205C3.53723 93.208 4.37889 93.2538 3.81639 93.1288C3.85389 93.1788 3.35805 93.158 3.44972 93.0955L3.64971 93.108C3.60805 93.0747 3.52471 93.0621 3.56637 93.0371C3.67471 93.058 3.85806 93.0455 3.82473 92.9955L4.07472 93.0288L3.70388 92.9371C3.91638 92.8621 3.64973 92.7455 3.9289 92.7122C3.9289 92.7122 4.06638 92.5538 3.75805 92.5163C3.94972 92.5496 4.02471 92.4622 4.24971 92.4872C4.03305 92.4455 3.85387 92.3205 4.08721 92.2747L4.11221 92.283C4.34971 92.1038 3.79139 91.9705 4.07889 91.8122C3.83722 91.8122 3.97056 91.733 3.66222 91.7496C3.36222 91.5746 4.29555 91.4538 3.34555 91.3705C3.29555 91.2913 3.57054 91.283 3.62054 91.2455L3.67054 91.2663C3.59554 91.1205 3.58723 91.0788 3.61223 90.9705C3.52056 90.9122 3.07889 90.8913 3.19139 90.7955C3.36639 90.833 3.33305 90.7955 3.33721 90.758C3.36221 90.783 3.42888 90.7913 3.54972 90.7496C3.49555 90.7413 3.46221 90.7288 3.43721 90.7205C3.44971 90.7205 3.46222 90.7205 3.47889 90.7205C3.42056 90.658 3.36221 90.6663 3.33721 90.6955C3.31221 90.6955 3.27471 90.6955 3.22888 90.6996C3.45804 90.6455 3.22055 90.5246 3.52055 90.5288C3.45805 90.3455 3.14973 90.1997 3.0414 90.0455C3.19556 90.0372 3.33305 90.0788 3.39138 90.1246L3.34138 90.0163C3.56638 90.0288 3.46639 90.083 3.50806 90.1205C3.87473 90.0121 3.16222 89.8413 3.49972 89.708L3.32473 89.6663L3.3539 89.658C3.26223 89.6538 3.13722 89.6122 3.10805 89.5872C3.30388 89.5788 3.55388 89.6163 3.54972 89.5413C3.74138 89.4955 3.46638 89.3705 3.36638 89.2871C3.32888 89.3246 3.22472 89.308 3.15805 89.2871C3.15805 89.2496 3.34972 89.2413 3.26639 89.208L3.52889 89.2205C3.28306 89.2205 3.27055 89.108 3.16222 89.0871C3.35805 89.0788 3.32472 89.158 3.47055 89.1746C3.45805 89.0246 3.46222 89.0997 3.44972 88.9497C3.25805 88.858 3.19971 88.9497 2.97471 88.8913C2.92888 88.8163 2.74973 88.733 2.91223 88.6663L2.6789 88.6746C2.50806 88.5288 2.5414 88.4497 2.78306 88.3788C1.8789 87.8038 1.23722 87.6871 0.820555 87.7246C0.403888 87.7621 0.216383 87.9538 0.216383 87.9538C-0.333617 88.3205 0.328885 88.5871 0.478885 89.083L0.474715 89.0746Z" fill="#20BB65"/>
<path d="M6.17878 108.812L6.09961 108.875C6.14128 108.858 6.17461 108.837 6.17878 108.812Z" fill="#20BB65"/>
<path d="M9.38672 115.695C9.38672 115.695 9.39921 115.695 9.40755 115.691C9.39921 115.691 9.39089 115.691 9.38672 115.695Z" fill="#20BB65"/>
<path d="M3.22443 109.475C3.25777 109.916 2.87441 110.179 3.20358 110.537C3.24524 110.75 3.42442 110.925 3.55359 111.1C3.91609 111.062 3.65776 111.35 3.9786 111.35L3.81192 111.466C3.92025 111.466 4.00359 111.483 3.91609 111.562L3.86192 111.583C4.02442 111.583 3.96609 111.679 4.04942 111.679L3.99526 111.7L4.04525 111.758L3.96191 111.779C4.14941 111.816 4.19941 111.908 4.17025 112.025L4.39109 111.925C4.22026 112.216 4.71192 112.087 4.48692 112.383L4.43275 112.404C5.10775 112.362 4.18276 112.912 4.83276 112.887C4.75359 112.887 4.72442 112.95 4.67025 112.97C4.77859 113.041 4.85775 113.133 5.29108 112.941C5.31608 113.016 5.18276 113.062 5.02026 113.145C5.20776 113.058 5.31609 113.087 5.35359 113.137L5.27025 113.145L5.40776 113.275L5.74943 113.079C5.68693 113.212 5.32442 113.3 5.44942 113.341L5.74526 113.204C5.74109 113.345 5.32442 113.625 5.16192 113.841C5.26192 114.383 6.25358 114.516 5.96191 115.208L5.75358 115.337C5.44108 115.508 6.28692 115.216 5.99942 115.383L6.17024 115.358C6.12024 115.4 6.07441 115.462 5.99108 115.475C6.00358 115.529 6.05774 115.504 6.17024 115.487L5.99942 115.641C5.94525 115.904 6.4036 115.866 6.4286 116.095C6.1536 116.541 6.75774 116.779 7.10774 116.904C7.76191 116.983 6.76608 118.095 7.49941 118.141C7.46191 118.179 7.57859 118.15 7.61192 118.129L7.76191 118.475C7.76191 118.475 7.97026 118.883 8.4036 118.941C8.83693 119.004 9.48275 118.7 10.3952 117.366L10.4661 117.333C10.5244 117.07 10.4994 116.945 10.0953 117.033C10.4953 116.766 10.0578 116.87 10.1661 116.754L10.2036 116.737C9.82443 116.825 10.3411 116.375 9.99941 116.445C10.0327 116.429 10.1494 116.366 10.1703 116.383C10.0786 116.341 9.92859 116.3 10.1703 116.154C10.0078 116.02 9.98275 115.72 9.53275 115.829L9.6036 115.8C9.30776 115.887 9.52027 115.741 9.34527 115.745C9.37443 115.725 9.38691 115.708 9.40358 115.704C9.10358 115.779 9.24943 115.525 9.10776 115.533L9.2661 115.441L9.15359 115.325V115.395C8.69109 115.625 9.37026 115.137 9.0286 115.195C9.03693 115.07 7.99108 115.508 8.15775 115.291C7.92025 115.358 8.52026 115.15 8.32443 115.166C8.55776 115.037 8.4911 115.12 8.6661 115.004C8.5161 114.995 8.84527 114.762 8.6411 114.762L8.82443 114.662C8.43277 114.729 8.95775 114.329 8.59942 114.42C8.38692 114.383 9.10776 114.062 8.68276 114.129L8.90775 113.954C8.92025 113.883 8.58275 114.075 8.67441 113.954C8.83275 113.879 8.76193 113.82 8.9286 113.775C9.11193 113.525 8.44942 113.691 8.78275 113.316C8.45775 113.433 8.59943 113.258 8.3536 113.345C8.48693 113.275 8.29109 113.166 8.62859 113.116C8.65775 113.116 8.65776 113.129 8.60776 113.154L8.79526 113.075C9.09526 112.812 8.52026 112.995 8.52859 112.875C8.48276 112.933 8.5161 112.962 8.3786 113L8.36191 112.9L8.52442 112.845L8.54942 112.67L8.36608 112.779C8.43275 112.666 8.74941 112.491 8.44108 112.545C8.27441 112.583 8.21193 112.729 8.12027 112.691C8.20777 112.541 8.34526 112.32 8.3536 112.183C8.1411 112.295 8.13692 112.262 8.07858 112.25L8.26609 112.158C7.94942 112.158 8.66192 111.925 8.39942 111.904L8.53693 111.854L8.12858 112.004C7.70775 112.07 8.49526 111.77 7.92859 111.883C7.98276 111.916 7.52024 112.095 7.57858 112L7.76608 111.933C7.71192 111.92 7.63275 111.941 7.66192 111.904C7.77025 111.879 7.93276 111.795 7.87859 111.762L8.12027 111.691L7.74526 111.754C7.91192 111.6 7.61608 111.6 7.86191 111.458C7.86191 111.458 7.92443 111.258 7.62443 111.345C7.81193 111.3 7.84526 111.187 8.06193 111.12C7.84526 111.17 7.63276 111.129 7.82859 110.991H7.85776C8.0036 110.733 7.43692 110.833 7.64109 110.57C7.42026 110.67 7.50776 110.541 7.23276 110.679C6.88693 110.637 7.69526 110.158 6.7911 110.462C6.7161 110.408 6.96193 110.291 6.99526 110.237H7.04943C6.92443 110.133 6.89941 110.095 6.87858 109.987C6.77025 109.97 6.35776 110.125 6.42443 109.995C6.59943 109.962 6.55358 109.937 6.54108 109.9C6.57442 109.912 6.63692 109.895 6.72859 109.808C6.67442 109.82 6.64108 109.825 6.61191 109.825C6.62441 109.82 6.63276 109.812 6.65359 109.808C6.57442 109.775 6.52858 109.808 6.51608 109.837C6.49108 109.845 6.45775 109.862 6.41609 109.887C6.60359 109.745 6.33691 109.729 6.61608 109.612C6.48691 109.47 6.14526 109.458 5.98276 109.358C6.12026 109.287 6.26192 109.27 6.33275 109.291L6.24109 109.212C6.44943 109.133 6.38275 109.225 6.43692 109.241C6.73275 108.995 6.00776 109.12 6.26609 108.866L6.09108 108.9L6.1161 108.883C6.0286 108.916 5.89941 108.929 5.86191 108.916C6.03691 108.829 6.28277 108.762 6.24527 108.7C6.39943 108.583 6.09942 108.575 5.97442 108.537C5.95776 108.587 5.84941 108.612 5.77858 108.616C5.76191 108.583 5.93693 108.5 5.84943 108.5L6.09525 108.408C5.86608 108.504 5.81191 108.408 5.70358 108.429C5.87858 108.345 5.88275 108.429 6.02025 108.387C5.94942 108.254 5.98274 108.32 5.91191 108.191C5.69941 108.183 5.68275 108.287 5.45359 108.325C5.38275 108.275 5.18693 108.27 5.30777 108.141L5.09526 108.241C4.88276 108.175 4.88274 108.087 5.07858 107.929C4.02024 107.758 3.38693 107.9 3.0161 108.095C2.64943 108.291 2.54941 108.545 2.54941 108.545C2.19108 109.1 2.90359 109.087 3.23692 109.483L3.22443 109.475Z" fill="#20BB65"/>
<path d="M16.3742 125.312L16.3242 125.399C16.3576 125.37 16.3784 125.337 16.3742 125.312Z" fill="#20BB65"/>
<path d="M21.9326 130.537C21.9326 130.537 21.9451 130.529 21.9534 130.525C21.9451 130.525 21.941 130.533 21.9326 130.537Z" fill="#20BB65"/>
<path d="M14.8199 128.429C14.8199 128.429 14.8074 128.433 14.7949 128.437L14.8199 128.429Z" fill="#20BB65"/>
<path d="M13.9036 127.062C14.1036 127.454 13.8495 127.845 14.287 128.045C14.4078 128.224 14.637 128.316 14.8203 128.429C15.1411 128.254 15.012 128.62 15.3036 128.495L15.1911 128.666C15.2911 128.624 15.3745 128.608 15.3245 128.712L15.2828 128.75C15.4328 128.687 15.4161 128.795 15.4911 128.766L15.4495 128.804L15.5203 128.837L15.4536 128.887C15.6411 128.85 15.7245 128.916 15.737 129.033L15.9036 128.858C15.8536 129.191 16.262 128.887 16.162 129.241L16.1203 129.283C16.7286 128.987 16.0744 129.845 16.6661 129.579C16.5911 129.612 16.587 129.679 16.5453 129.716C16.6703 129.741 16.7786 129.795 17.112 129.458C17.162 129.516 17.0536 129.608 16.937 129.749C17.0828 129.599 17.1911 129.583 17.2453 129.616L17.1703 129.654L17.3453 129.725L17.5911 129.416C17.5786 129.562 17.2786 129.779 17.4078 129.77L17.6328 129.533C17.6828 129.666 17.3995 130.079 17.3245 130.341C17.6161 130.804 18.5828 130.562 18.562 131.312L18.4161 131.508C18.187 131.783 18.8661 131.2 18.662 131.462L18.812 131.379C18.7828 131.437 18.762 131.512 18.687 131.554C18.7161 131.6 18.7578 131.554 18.8578 131.5L18.7536 131.704C18.7953 131.97 19.2078 131.762 19.3161 131.97C19.2161 132.483 19.8619 132.487 20.2328 132.479C20.8744 132.32 20.3286 133.712 21.0328 133.495C21.012 133.541 21.1078 133.474 21.1328 133.445L21.3911 133.716C21.3911 133.716 21.7245 134.02 22.1495 133.929C22.5786 133.837 23.0786 133.333 23.4703 131.758L23.5245 131.704C23.487 131.437 23.4203 131.329 23.0703 131.55C23.3536 131.162 22.9745 131.412 23.037 131.262L23.0661 131.233C22.7411 131.445 23.0661 130.841 22.7703 131.029C22.7995 131.004 22.8828 130.899 22.9078 130.912C22.8036 130.908 22.6495 130.916 22.8203 130.695C22.6203 130.629 22.4911 130.354 22.1078 130.616L22.1619 130.562C21.9161 130.745 22.0619 130.537 21.8994 130.604C21.9203 130.575 21.9286 130.554 21.937 130.541C21.687 130.72 21.7286 130.429 21.5995 130.483L21.7161 130.337L21.5661 130.27L21.5869 130.337C21.2411 130.712 21.7036 130.016 21.4036 130.195C21.3661 130.079 20.5494 130.858 20.6244 130.595C20.4286 130.741 20.912 130.333 20.7328 130.42C20.9036 130.216 20.8703 130.316 20.9911 130.145C20.8494 130.191 21.0703 129.858 20.8828 129.929L21.0161 129.77C20.6744 129.975 21.0161 129.408 20.7161 129.625C20.5078 129.666 21.0578 129.104 20.687 129.32L20.8328 129.074C20.8203 129.004 20.5745 129.304 20.6161 129.162C20.737 129.033 20.6495 129.004 20.787 128.904C20.8661 128.604 20.3078 129 20.4828 128.529C20.2203 128.758 20.287 128.541 20.0911 128.712C20.187 128.599 19.9661 128.566 20.2619 128.399C20.2869 128.387 20.2953 128.4 20.2536 128.441L20.3995 128.299C20.5786 127.945 20.112 128.325 20.0745 128.208C20.0536 128.279 20.0953 128.295 19.9786 128.379L19.9245 128.291L20.0578 128.179L20.0161 128.004L19.887 128.175C19.9078 128.045 20.1369 127.762 19.8703 127.929C19.7286 128.029 19.7245 128.183 19.6245 128.183C19.6536 128.012 19.6953 127.754 19.6495 127.624C19.4953 127.808 19.4745 127.779 19.4161 127.791L19.5536 127.637C19.262 127.758 19.8328 127.274 19.5828 127.349L19.6911 127.254L19.3661 127.545C18.9995 127.762 19.6161 127.191 19.137 127.508C19.1995 127.516 18.8369 127.854 18.8536 127.745L19.0036 127.612C18.9495 127.62 18.8828 127.67 18.8953 127.624C18.987 127.562 19.1036 127.42 19.0453 127.412L19.2453 127.254L18.9203 127.454C19.0161 127.245 18.7411 127.358 18.9203 127.133C18.9203 127.133 18.9036 126.92 18.6578 127.116C18.8161 127 18.8036 126.887 18.9786 126.745C18.7953 126.87 18.5828 126.912 18.712 126.712L18.737 126.7C18.7745 126.404 18.287 126.708 18.3745 126.391C18.2078 126.566 18.2411 126.412 18.037 126.645C17.6995 126.741 18.2661 125.987 17.5453 126.608C17.4536 126.587 17.6411 126.387 17.6453 126.324L17.6953 126.304C17.537 126.254 17.5036 126.229 17.4411 126.137C17.337 126.162 17.012 126.466 17.0245 126.32C17.1745 126.22 17.1203 126.216 17.0953 126.187C17.1328 126.187 17.1828 126.145 17.2369 126.029C17.1911 126.062 17.1619 126.079 17.1369 126.091C17.1453 126.083 17.1536 126.074 17.1661 126.062C17.0786 126.062 17.0495 126.108 17.0495 126.145C17.0286 126.162 17.0078 126.187 16.9786 126.229C17.0994 126.025 16.8453 126.112 17.062 125.899C16.887 125.816 16.5703 125.937 16.3786 125.904C16.4786 125.787 16.6036 125.716 16.6786 125.708L16.5661 125.666C16.7286 125.516 16.7036 125.625 16.7578 125.616C16.937 125.275 16.3161 125.67 16.4578 125.333L16.3078 125.429L16.3245 125.404C16.2578 125.466 16.1411 125.529 16.1036 125.533C16.2328 125.387 16.4328 125.229 16.3745 125.183C16.4745 125.012 16.1911 125.125 16.062 125.137C16.062 125.191 15.9786 125.254 15.9161 125.287C15.887 125.262 16.0161 125.116 15.9328 125.154L16.1245 124.974C15.9495 125.154 15.862 125.083 15.7745 125.145C15.9036 125 15.937 125.075 16.0536 124.983C15.937 124.887 15.9953 124.937 15.8786 124.841C15.6786 124.916 15.7036 125.016 15.5078 125.145C15.4203 125.129 15.2411 125.2 15.3036 125.033L15.1453 125.208C14.9203 125.229 14.887 125.149 15.0078 124.924C13.9661 125.179 13.4369 125.558 13.1744 125.883C12.9119 126.208 12.9161 126.479 12.9161 126.479C12.7994 127.129 13.4494 126.837 13.9078 127.075L13.9036 127.062Z" fill="#20BB65"/>
<path d="M31.7786 137.337L31.7578 137.437C31.7786 137.4 31.7911 137.362 31.7786 137.337Z" fill="#20BB65"/>
<path d="M38.666 140.712C38.666 140.712 38.6743 140.704 38.6827 140.695C38.6743 140.7 38.6702 140.708 38.666 140.712Z" fill="#20BB65"/>
<path d="M31.2493 140.779C31.2493 140.779 31.2368 140.787 31.2285 140.795L31.2493 140.779Z" fill="#20BB65"/>
<path d="M29.9705 139.766C30.2788 140.079 30.1579 140.525 30.6329 140.583C30.7996 140.716 31.0454 140.733 31.2538 140.783C31.5079 140.521 31.4913 140.904 31.7329 140.7L31.6788 140.896C31.7621 140.825 31.8329 140.787 31.8204 140.9L31.7913 140.95C31.9163 140.846 31.9329 140.954 31.9913 140.904L31.9621 140.954L32.0371 140.966L31.9871 141.033C32.1538 140.941 32.2538 140.979 32.2996 141.087L32.4038 140.871C32.4538 141.204 32.7496 140.791 32.7621 141.158L32.7329 141.208C33.2246 140.746 32.8579 141.758 33.3413 141.325C33.2829 141.379 33.2954 141.441 33.2663 141.491C33.3954 141.479 33.5121 141.5 33.7288 141.075C33.7954 141.116 33.7204 141.237 33.6454 141.404C33.7371 141.216 33.8371 141.171 33.8996 141.187L33.8371 141.246L34.0246 141.258L34.1704 140.891C34.2038 141.033 33.9788 141.333 34.0996 141.287L34.2413 140.996C34.3288 141.108 34.1746 141.587 34.1829 141.858C34.5913 142.212 35.4496 141.704 35.6413 142.425L35.5579 142.654C35.4163 142.983 35.9038 142.229 35.7788 142.537L35.8996 142.412C35.8871 142.475 35.8871 142.554 35.8288 142.612C35.8705 142.646 35.8954 142.596 35.9746 142.512L35.933 142.737C36.0496 142.979 36.3829 142.662 36.5454 142.829C36.5954 143.35 37.2163 143.166 37.5663 143.054C38.1329 142.721 38.0038 144.208 38.6163 143.8C38.608 143.85 38.6829 143.758 38.6996 143.721L39.0204 143.908C39.0204 143.908 39.4246 144.108 39.8079 143.9C40.1913 143.691 40.5371 143.071 40.4746 141.45L40.5121 141.383C40.3996 141.133 40.3038 141.05 40.0329 141.362C40.1954 140.908 39.9038 141.254 39.9204 141.096L39.9413 141.062C39.6913 141.358 39.8329 140.687 39.5996 140.946C39.6204 140.912 39.6704 140.791 39.6996 140.796C39.5996 140.821 39.4538 140.875 39.5538 140.612C39.3413 140.604 39.1371 140.375 38.8454 140.733L38.8829 140.666C38.6954 140.912 38.7788 140.666 38.6413 140.779C38.6538 140.746 38.6538 140.725 38.6621 140.712C38.4704 140.954 38.4288 140.662 38.3204 140.754L38.3913 140.583L38.2288 140.558L38.2663 140.616C38.0413 141.075 38.2871 140.275 38.0454 140.533C37.9746 140.429 37.4163 141.412 37.4121 141.137C37.2663 141.333 37.6121 140.804 37.4663 140.937C37.5746 140.696 37.5704 140.8 37.6371 140.6C37.5121 140.683 37.633 140.3 37.4705 140.425L37.5538 140.233C37.2829 140.525 37.4496 139.887 37.2246 140.179C37.0371 140.279 37.4038 139.583 37.1121 139.896L37.183 139.621C37.1496 139.554 36.9996 139.916 36.9996 139.766C37.0788 139.608 36.9871 139.604 37.0913 139.471C37.0788 139.158 36.6621 139.7 36.6871 139.2C36.5038 139.491 36.5038 139.266 36.3663 139.487C36.4246 139.35 36.2038 139.383 36.4413 139.137C36.4621 139.116 36.4746 139.129 36.4454 139.179L36.5454 139C36.6121 138.608 36.2788 139.108 36.2079 139.008C36.2079 139.083 36.2538 139.083 36.1663 139.2L36.0871 139.133L36.1788 138.987L36.0871 138.833L36.0121 139.033C35.9955 138.904 36.1288 138.566 35.9246 138.804C35.8163 138.937 35.8621 139.091 35.7621 139.116C35.7371 138.946 35.7038 138.683 35.6205 138.575C35.5246 138.796 35.4996 138.771 35.4454 138.8L35.5329 138.612C35.2871 138.812 35.6913 138.183 35.4746 138.329L35.5496 138.204L35.3246 138.579C35.0371 138.896 35.4621 138.166 35.0913 138.608C35.1538 138.6 34.908 139.029 34.8913 138.921L34.9955 138.75C34.9455 138.771 34.8954 138.841 34.8954 138.796C34.9621 138.708 35.0371 138.541 34.9746 138.546L35.1163 138.337L34.8621 138.621C34.8913 138.396 34.6621 138.579 34.7621 138.316C34.7621 138.316 34.6788 138.121 34.5079 138.379C34.6246 138.221 34.5788 138.116 34.7038 137.929C34.5663 138.104 34.3746 138.204 34.4371 137.975L34.4579 137.954C34.4038 137.658 34.0288 138.096 34.0163 137.766C33.9121 137.983 33.8954 137.829 33.7704 138.108C33.4746 138.3 33.7871 137.408 33.2871 138.221C33.1954 138.229 33.3121 137.979 33.2996 137.916L33.3413 137.883C33.1746 137.883 33.1329 137.871 33.0496 137.8C32.9579 137.854 32.7413 138.241 32.7038 138.1C32.8163 137.962 32.7663 137.971 32.7329 137.954C32.7663 137.941 32.8038 137.887 32.8163 137.762C32.7829 137.808 32.7579 137.833 32.7371 137.85C32.7413 137.837 32.7454 137.829 32.7579 137.812C32.6746 137.837 32.6579 137.891 32.6704 137.925C32.6579 137.95 32.6413 137.979 32.6246 138.025C32.6788 137.796 32.4621 137.954 32.5996 137.687C32.408 137.662 32.1413 137.871 31.9496 137.9C32.0121 137.754 32.1079 137.654 32.1746 137.621H32.0538C32.1621 137.421 32.1704 137.537 32.2204 137.512C32.2829 137.133 31.8163 137.696 31.8455 137.333L31.7329 137.471L31.7413 137.441C31.6955 137.525 31.6038 137.616 31.5704 137.633C31.6454 137.454 31.7913 137.241 31.7204 137.216C31.7621 137.025 31.5288 137.216 31.4079 137.266C31.4288 137.316 31.3621 137.404 31.3121 137.454C31.2746 137.441 31.3538 137.262 31.2871 137.321L31.4163 137.091C31.3079 137.312 31.1996 137.275 31.1329 137.362C31.2121 137.183 31.2663 137.246 31.3454 137.125C31.2038 137.071 31.2746 137.1 31.1329 137.046C30.9663 137.179 31.0204 137.266 30.8746 137.45C30.7871 137.458 30.6371 137.583 30.6454 137.404L30.5496 137.616C30.3413 137.704 30.2871 137.641 30.3288 137.391C29.4163 137.958 29.0371 138.483 28.8871 138.875C28.7413 139.266 28.8288 139.516 28.8288 139.516C28.9163 140.166 29.4454 139.687 29.9496 139.771L29.9705 139.766Z" fill="#20BB65"/>
<path d="M49.2242 144.429L49.2158 144.525C49.2283 144.483 49.2325 144.445 49.2242 144.429Z" fill="#20BB65"/>
<path d="M53.1162 145.337C53.1162 145.337 53.1204 145.325 53.1245 145.316C53.1204 145.325 53.1162 145.329 53.1162 145.337Z" fill="#20BB65"/>
<path d="M48.9908 147.75C48.9908 147.75 48.9866 147.762 48.9824 147.77L48.9949 147.75H48.9908Z" fill="#20BB65"/>
<path d="M48.2496 147.279C48.4288 147.45 48.3704 147.9 48.6371 147.783C48.7329 147.845 48.8704 147.775 48.9871 147.75C49.1246 147.42 49.1246 147.779 49.2538 147.508L49.2246 147.708C49.2704 147.616 49.3121 147.554 49.3038 147.666L49.2871 147.72C49.3538 147.583 49.3662 147.679 49.3996 147.608L49.3829 147.666L49.4246 147.65L49.3996 147.729C49.4912 147.587 49.5454 147.591 49.5746 147.675L49.6288 147.437C49.6621 147.725 49.8204 147.25 49.8329 147.583L49.8162 147.641C50.0871 147.05 49.8954 148.108 50.1579 147.55C50.1246 147.62 50.1329 147.67 50.1204 147.729C50.1913 147.675 50.2579 147.654 50.3704 147.191C50.4079 147.208 50.3704 147.345 50.3288 147.525C50.3788 147.32 50.4329 147.245 50.4662 147.241L50.4329 147.316L50.5371 147.27L50.6121 146.883C50.6329 147.004 50.5121 147.35 50.5788 147.27L50.6538 146.954C50.7038 147.033 50.6246 147.52 50.6329 147.77C50.8663 147.97 51.3371 147.225 51.4496 147.841L51.4037 148.083C51.3287 148.433 51.5913 147.583 51.5246 147.908L51.5913 147.754C51.5871 147.816 51.5871 147.887 51.5538 147.962C51.5788 147.983 51.5913 147.925 51.6329 147.825L51.6121 148.05C51.6787 148.241 51.8621 147.841 51.9496 147.954C51.9829 148.425 52.3204 148.075 52.5163 147.866C52.8246 147.387 52.7663 148.829 53.0996 148.275C53.0996 148.325 53.1371 148.216 53.1454 148.179L53.3246 148.266C53.3246 148.266 53.5454 148.345 53.7538 148.045C53.9621 147.745 54.1454 147.062 54.0996 145.541L54.1204 145.466C54.0579 145.262 54.0038 145.208 53.8579 145.579C53.9413 145.108 53.7871 145.512 53.7954 145.358L53.8038 145.32C53.6704 145.67 53.7413 144.995 53.6163 145.308C53.6246 145.27 53.6537 145.141 53.6704 145.137C53.6162 145.187 53.5371 145.279 53.5912 145.004C53.4746 145.054 53.3621 144.9 53.2038 145.32L53.2246 145.245C53.1246 145.533 53.1663 145.279 53.0954 145.42C53.0996 145.383 53.1038 145.366 53.1038 145.35C52.9996 145.633 52.9746 145.37 52.9162 145.487L52.9538 145.304L52.8621 145.329L52.8829 145.375C52.7621 145.87 52.8913 145.05 52.7621 145.358C52.7204 145.283 52.4246 146.37 52.4204 146.112C52.3412 146.337 52.5288 145.737 52.4496 145.908C52.5079 145.65 52.5038 145.75 52.5413 145.541C52.4746 145.654 52.5329 145.262 52.4454 145.425L52.4871 145.22C52.3413 145.575 52.4246 144.929 52.3038 145.27C52.1996 145.42 52.3954 144.662 52.2371 145.041L52.2746 144.762C52.2538 144.712 52.1788 145.091 52.1746 144.954C52.2163 144.783 52.1663 144.808 52.2204 144.65C52.2079 144.362 51.9829 144.995 51.9913 144.52C51.8913 144.85 51.8913 144.641 51.8163 144.887C51.8496 144.741 51.7246 144.841 51.8538 144.537C51.8663 144.512 51.8704 144.52 51.8538 144.575L51.9079 144.379C51.9413 143.991 51.7621 144.562 51.7204 144.491C51.7204 144.562 51.7454 144.55 51.6996 144.683L51.6538 144.645L51.7038 144.479L51.6538 144.362L51.6163 144.57C51.6038 144.454 51.6746 144.1 51.5663 144.383C51.5079 144.541 51.5329 144.67 51.4788 144.725C51.4621 144.57 51.4413 144.341 51.3913 144.266C51.3413 144.5 51.3246 144.487 51.2996 144.529L51.3454 144.325C51.2121 144.587 51.4288 143.875 51.3079 144.083L51.3496 143.945L51.2288 144.362C51.0704 144.745 51.2996 143.937 51.0996 144.466C51.1329 144.437 51.0038 144.912 50.9913 144.816L51.0454 144.625C51.0163 144.662 50.9913 144.741 50.9913 144.7C51.0288 144.595 51.0663 144.416 51.0329 144.445L51.1121 144.208L50.9746 144.554C50.9871 144.337 50.8621 144.583 50.9163 144.304C50.9163 144.304 50.8663 144.15 50.7746 144.445C50.8371 144.262 50.8079 144.179 50.8788 143.966C50.8038 144.17 50.6996 144.329 50.7287 144.1L50.7413 144.075C50.7079 143.82 50.5038 144.35 50.4913 144.05C50.4371 144.283 50.4246 144.145 50.3579 144.445C50.1954 144.72 50.3579 143.8 50.0871 144.712C50.0329 144.75 50.0954 144.483 50.0871 144.433L50.1079 144.387C50.0163 144.445 49.9913 144.445 49.9413 144.412C49.8913 144.495 49.7746 144.92 49.7538 144.804C49.8121 144.637 49.7871 144.662 49.7663 144.658C49.7871 144.633 49.8038 144.575 49.8121 144.454C49.7954 144.504 49.7829 144.537 49.7704 144.562C49.7704 144.55 49.7746 144.537 49.7788 144.52C49.7329 144.57 49.7246 144.625 49.7329 144.654C49.7246 144.679 49.7163 144.712 49.7079 144.762C49.7329 144.533 49.6162 144.754 49.6871 144.462C49.5787 144.504 49.4329 144.791 49.3246 144.883C49.3579 144.729 49.4079 144.604 49.4454 144.55L49.3746 144.591C49.4329 144.375 49.4371 144.475 49.4663 144.437C49.4954 144.07 49.2413 144.75 49.2496 144.408L49.1871 144.575V144.545C49.1663 144.637 49.1163 144.754 49.0954 144.779C49.1371 144.587 49.2121 144.345 49.1704 144.345C49.1913 144.158 49.0621 144.412 48.9954 144.504C49.0079 144.541 48.9746 144.645 48.9454 144.708C48.9246 144.708 48.9663 144.52 48.9288 144.595L48.9954 144.341C48.9371 144.583 48.8746 144.587 48.8413 144.687C48.8829 144.495 48.9162 144.533 48.9579 144.391C48.8746 144.391 48.9163 144.391 48.8371 144.395C48.7454 144.575 48.7788 144.637 48.6996 144.854C48.6496 144.895 48.5662 145.062 48.5662 144.895L48.5163 145.125C48.3996 145.279 48.3663 145.241 48.3871 145.004C47.3704 146.691 47.5829 147.47 47.5829 147.47C47.6496 148.025 47.9371 147.4 48.2246 147.287L48.2496 147.279Z" fill="#20BB65"/>
</svg>
