<svg width="91" height="54" viewBox="0 0 91 54" fill="none" xmlns="http://www.w3.org/2000/svg">
<path d="M90.3681 2.09839H90.2764C90.318 2.10256 90.3514 2.10672 90.3681 2.09839Z" fill="#20BB65"/>
<path d="M88.918 5.90674C88.918 5.90674 88.9263 5.91508 88.9347 5.91925C88.9305 5.91508 88.9263 5.9109 88.918 5.90674Z" fill="#20BB65"/>
<path d="M87.2894 1.88188C87.2894 1.88188 87.2769 1.87354 87.2686 1.87354L87.2894 1.88188Z" fill="#20BB65"/>
<path d="M87.6891 1.3025C87.5474 1.4525 87.1224 1.39001 87.2474 1.60251C87.1933 1.67334 87.2641 1.78583 87.2891 1.8775C87.5933 2.00666 87.2641 1.98166 87.5141 2.10666L87.3308 2.06917C87.4141 2.11084 87.4724 2.14833 87.3683 2.13583L87.3183 2.11917C87.4474 2.18167 87.3558 2.18583 87.4224 2.21917L87.3724 2.20251L87.385 2.23582L87.3141 2.20668C87.4433 2.29001 87.4391 2.33584 87.3641 2.3525L87.5808 2.41916C87.3141 2.41916 87.7475 2.59832 87.4433 2.57332L87.3933 2.55667C87.9225 2.84417 86.9641 2.56083 87.4599 2.84417C87.3974 2.80667 87.3475 2.81083 87.2975 2.79C87.3433 2.8525 87.3558 2.91082 87.7683 3.06916C87.7516 3.09832 87.6308 3.04832 87.4683 2.98999C87.6516 3.05666 87.7141 3.11501 87.7141 3.14418L87.6475 3.10667L87.6808 3.20249L88.0266 3.31917C87.9141 3.31917 87.6058 3.16917 87.6766 3.23584L87.96 3.34417C87.885 3.37751 87.4433 3.23583 87.2183 3.20249C87.0183 3.34833 87.6266 3.88583 87.0558 3.85249L86.8474 3.76501C86.5474 3.62751 87.2683 4.02749 86.985 3.90249L87.1099 3.99C87.0516 3.96917 86.9891 3.95667 86.9266 3.915C86.9058 3.9275 86.9558 3.9525 87.0391 4.01083L86.8433 3.94417C86.6599 3.95251 86.9891 4.19416 86.8725 4.23999C86.4475 4.14832 86.6974 4.5025 86.8349 4.72334C87.1849 5.12334 85.9349 4.63584 86.3391 5.06501C86.2974 5.04417 86.3808 5.11083 86.41 5.13166L86.2849 5.24417C86.2849 5.24417 86.1558 5.39 86.3516 5.66084C86.5516 5.9275 87.0599 6.3525 88.4016 6.80667L88.4599 6.84833C88.6641 6.85666 88.7349 6.81916 88.4599 6.565C88.8474 6.79 88.5433 6.51501 88.6808 6.57334L88.7099 6.59417C88.4474 6.365 89.0225 6.62751 88.7891 6.41917C88.8183 6.44001 88.9224 6.5025 88.9224 6.51917C88.8974 6.4525 88.8433 6.34835 89.0683 6.47751C89.0641 6.34835 89.2433 6.27749 88.9141 6.01499L88.9766 6.05251C88.7516 5.88167 88.9641 5.98999 88.86 5.88166C88.8891 5.89416 88.9058 5.90249 88.9183 5.91083C88.6974 5.73999 88.9391 5.78166 88.8516 5.69832L89.0058 5.77749V5.68584L88.9641 5.69418C88.5516 5.46085 89.2558 5.7775 89.0141 5.58167C89.0933 5.55667 88.1933 5.0275 88.4224 5.08584C88.2391 4.96084 88.7308 5.27333 88.5975 5.15666C88.8183 5.26916 88.7266 5.24417 88.9058 5.32334C88.8183 5.23584 89.1599 5.37749 89.0349 5.25666L89.21 5.34C88.9225 5.12333 89.4933 5.33999 89.21 5.15249C89.0975 5.02332 89.7433 5.36083 89.4349 5.13166L89.6808 5.21917C89.7308 5.21084 89.4016 5.06084 89.5308 5.08584C89.6766 5.15667 89.6683 5.1025 89.8016 5.18583C90.0683 5.21917 89.5391 4.88583 89.9766 4.97333C89.6933 4.82333 89.8891 4.8525 89.6766 4.74C89.8058 4.79416 89.7391 4.6525 89.9933 4.8275C90.0141 4.84417 90.0058 4.84834 89.9558 4.8275L90.1266 4.91084C90.4766 4.99834 89.9891 4.73167 90.0641 4.69834C89.9974 4.69001 90.0058 4.71918 89.8933 4.65251L89.9391 4.61083L90.0808 4.68583L90.1975 4.64834L90.0099 4.58166C90.1183 4.58166 90.4349 4.70249 90.1933 4.55249C90.0558 4.47332 89.935 4.48582 89.8933 4.42332C90.0391 4.42332 90.2558 4.42751 90.3349 4.38584C90.1266 4.31084 90.1391 4.29418 90.1058 4.26084L90.2849 4.33167C90.0641 4.165 90.6891 4.46085 90.5183 4.31501L90.6391 4.36918L90.2724 4.20668C89.9391 4.01084 90.66 4.31916 90.1975 4.065C90.2183 4.1025 89.7975 3.92751 89.885 3.92335L90.0558 3.99834C90.0266 3.96501 89.9558 3.93167 89.9975 3.93583C90.0891 3.98167 90.2474 4.03584 90.2266 3.99834L90.4391 4.09834L90.1349 3.92749C90.3349 3.95666 90.1224 3.81083 90.3766 3.88166C90.3766 3.88166 90.5266 3.83999 90.2641 3.72333C90.4266 3.79833 90.5058 3.7775 90.7016 3.86084C90.5183 3.76917 90.3849 3.65249 90.5974 3.69416L90.6183 3.70667C90.86 3.6775 90.3891 3.44416 90.6725 3.44C90.46 3.37333 90.5891 3.365 90.3141 3.29C90.0725 3.11917 90.9183 3.29834 90.0849 3.00667C90.0516 2.95251 90.2974 3.01918 90.3474 3.01084L90.3891 3.03584C90.3433 2.94001 90.3433 2.915 90.3766 2.865C90.3016 2.81083 89.9099 2.69418 90.0183 2.67335C90.1724 2.73585 90.1475 2.70667 90.1516 2.68583C90.1725 2.70667 90.2308 2.72333 90.3433 2.73166C90.2974 2.71499 90.2683 2.7025 90.2433 2.69C90.2558 2.69 90.2641 2.69418 90.2808 2.69834C90.2349 2.65251 90.185 2.64416 90.1558 2.65249C90.1308 2.64416 90.1016 2.63583 90.0558 2.63166C90.2683 2.65666 90.0683 2.54 90.3391 2.60666C90.3016 2.49416 90.0433 2.35251 89.9558 2.25251C90.0974 2.27751 90.2183 2.32749 90.2641 2.36499L90.2266 2.29416C90.4266 2.34416 90.3349 2.35667 90.3724 2.38167C90.7141 2.39417 90.0808 2.16499 90.3974 2.15666L90.2433 2.10251H90.2724C90.1891 2.08585 90.0766 2.04001 90.0516 2.02335C90.2308 2.05251 90.4558 2.11918 90.4558 2.07752C90.635 2.08585 90.3891 1.96917 90.3058 1.91084C90.2725 1.9275 90.1766 1.89833 90.1141 1.87333C90.1141 1.85249 90.2891 1.88166 90.2183 1.84833L90.4558 1.89833C90.2308 1.85666 90.2224 1.79418 90.1266 1.76502C90.3058 1.79002 90.2725 1.82751 90.4058 1.86084C90.4016 1.77751 90.4058 1.81918 90.3974 1.73585C90.2266 1.65668 90.1683 1.69418 89.9641 1.63168C89.9266 1.58585 89.7641 1.51916 89.9183 1.50666L89.7016 1.47751C89.5516 1.37751 89.5808 1.34834 89.8058 1.34418C88.9849 0.940011 88.3891 0.827508 88.01 0.794175C87.6266 0.760841 87.4558 0.810832 87.4558 0.810832C86.9558 0.881665 87.5599 1.0775 87.6808 1.31084L87.6891 1.3025Z" fill="#20BB65"/>
<path d="M81.8055 13.4565L81.7305 13.4023C81.7555 13.4357 81.7805 13.4607 81.8055 13.4565Z" fill="#20BB65"/>
<path d="M79.1724 11.6065C79.1724 11.6065 79.1682 11.594 79.1641 11.5815V11.6065H79.1724Z" fill="#20BB65"/>
<path d="M80.4139 11.015C80.0639 11.14 79.743 10.8525 79.543 11.2067C79.3805 11.2817 79.2847 11.465 79.1722 11.6067C79.2931 11.9233 78.9889 11.74 79.0639 12.0192L78.9264 11.8858C78.9514 11.9817 78.9555 12.0567 78.8722 11.9942L78.8431 11.9483C78.8806 12.0941 78.7847 12.0525 78.8056 12.1275L78.7764 12.0817L78.7389 12.1358L78.7055 12.065C78.718 12.2358 78.6472 12.2942 78.5431 12.2817L78.6722 12.465C78.393 12.3483 78.5972 12.7733 78.3055 12.6067L78.2764 12.5608C78.4347 13.165 77.8014 12.3858 77.9347 12.9692C77.918 12.8983 77.8639 12.8775 77.8347 12.8317C77.793 12.9358 77.7264 13.015 77.9597 13.39C77.8972 13.4192 77.8389 13.3025 77.7431 13.1608C77.8472 13.3233 77.8389 13.4233 77.8014 13.4608L77.7805 13.3858L77.6847 13.5233L77.9014 13.8192C77.7764 13.7733 77.6472 13.4525 77.6305 13.5692L77.7889 13.8275C77.6639 13.8358 77.3639 13.4817 77.1555 13.3442C76.7139 13.465 76.6889 14.3733 76.0472 14.1192L75.9181 13.9317C75.7431 13.6483 76.0639 14.4108 75.8972 14.1567L75.9306 14.3108C75.8889 14.265 75.8306 14.2275 75.8139 14.1483C75.7681 14.1608 75.7931 14.2067 75.8139 14.3108L75.6681 14.1567C75.4347 14.1067 75.5014 14.5233 75.2972 14.5442C74.8931 14.29 74.7139 14.8317 74.6139 15.1483C74.5555 15.7525 73.5681 14.79 73.5347 15.4567C73.5014 15.4192 73.5264 15.5275 73.5472 15.5608L73.243 15.6775C73.243 15.6775 72.8889 15.84 72.8222 16.2358C72.7597 16.6275 72.9764 17.2608 74.1514 18.1775L74.1764 18.2442C74.418 18.3108 74.5347 18.29 74.4722 17.9067C74.7014 18.29 74.6222 17.8733 74.7306 17.9817L74.7431 18.015C74.6764 17.6608 75.0764 18.1525 75.0222 17.8317C75.0347 17.865 75.093 17.9733 75.0764 17.99C75.118 17.9025 75.1639 17.765 75.2931 17.99C75.4222 17.84 75.7056 17.8192 75.6097 17.3983L75.6389 17.465C75.5597 17.1858 75.693 17.3858 75.693 17.2233C75.7139 17.2525 75.7264 17.265 75.7347 17.2775C75.6639 16.9983 75.9014 17.1358 75.893 17.0025L75.9806 17.1525L76.0889 17.0442H76.0222C75.8056 16.615 76.2639 17.2441 76.2055 16.9233C76.3222 16.9233 75.8931 15.9692 76.0972 16.1192C76.0306 15.9025 76.2389 16.4525 76.218 16.2692C76.343 16.4817 76.2639 16.4192 76.3805 16.5817C76.3847 16.4442 76.6097 16.7442 76.6056 16.5525L76.7056 16.7192C76.6306 16.3567 77.0222 16.8317 76.9222 16.5025C76.9472 16.3067 77.2805 16.9567 77.2014 16.5692L77.3764 16.7692C77.4431 16.7775 77.2472 16.4733 77.3639 16.5525C77.443 16.6942 77.4972 16.6275 77.5431 16.7817C77.7889 16.9358 77.5972 16.3317 77.9722 16.6192C77.8431 16.3275 78.0181 16.4442 77.9222 16.2233C77.9972 16.34 78.0889 16.1525 78.1555 16.465C78.1597 16.49 78.1431 16.4942 78.1181 16.4483L78.2055 16.615C78.4764 16.8692 78.2639 16.3483 78.3806 16.3442C78.3222 16.3067 78.2972 16.3442 78.2514 16.215L78.343 16.19L78.4097 16.3358L78.5764 16.3442L78.4597 16.1858C78.5722 16.2358 78.7639 16.5108 78.6847 16.2317C78.6347 16.0817 78.4931 16.04 78.5222 15.9483C78.6681 16.015 78.893 16.1192 79.0264 16.1067C78.9014 15.9233 78.9305 15.915 78.9347 15.8566L79.0389 16.0192C79.0055 15.7275 79.3014 16.3567 79.293 16.1108L79.3556 16.2317L79.1722 15.8733C79.0639 15.49 79.4347 16.1816 79.2639 15.6733C79.2389 15.7275 79.0181 15.3233 79.1139 15.365L79.2014 15.5317C79.2097 15.4817 79.1764 15.4108 79.2139 15.4317C79.2514 15.5275 79.3472 15.665 79.3722 15.615L79.4681 15.8275L79.3639 15.49C79.5306 15.6191 79.493 15.3483 79.6597 15.5525C79.6597 15.5525 79.8597 15.5775 79.7347 15.315C79.8056 15.4817 79.9139 15.4942 80.0056 15.6817C79.9306 15.49 79.9389 15.2858 80.0972 15.44V15.465C80.3722 15.5525 80.1889 15.0483 80.4681 15.1858C80.3389 15.0025 80.4764 15.0608 80.3014 14.8317C80.2806 14.5067 80.8722 15.1483 80.4264 14.3858C80.4597 14.3067 80.6139 14.5108 80.6722 14.5233L80.6847 14.5733C80.7597 14.4358 80.7847 14.4067 80.8847 14.365C80.8764 14.265 80.6514 13.9233 80.7847 13.9525C80.8514 14.1025 80.868 14.0567 80.893 14.0358C80.893 14.0692 80.918 14.1233 81.018 14.1858C80.993 14.14 80.9847 14.1108 80.9764 14.0817C80.9847 14.09 80.993 14.0983 81.0014 14.115C81.0139 14.0358 80.9764 13.9983 80.9431 13.9942C80.9306 13.9733 80.9097 13.9483 80.8764 13.915C81.0472 14.0525 81.0014 13.8108 81.1722 14.0358C81.2764 13.8817 81.2097 13.5775 81.2597 13.4066C81.3555 13.515 81.4056 13.6358 81.4014 13.7067L81.4514 13.6067C81.5722 13.7775 81.4722 13.7358 81.4722 13.79C81.768 13.9942 81.4764 13.3733 81.7722 13.54L81.6972 13.39L81.7181 13.4066C81.6681 13.3358 81.6222 13.2233 81.6222 13.19C81.7472 13.3233 81.8681 13.5275 81.9181 13.4775C82.0681 13.5858 81.993 13.3108 81.993 13.19C81.943 13.19 81.8931 13.1025 81.8681 13.04C81.8931 13.015 82.018 13.1483 81.993 13.0691L82.143 13.2608C81.993 13.0858 82.0681 13.0067 82.0181 12.9192C82.1431 13.0525 82.068 13.0775 82.143 13.19C82.243 13.0858 82.1931 13.14 82.2931 13.0358C82.2431 12.8442 82.143 12.8608 82.043 12.6692C82.068 12.59 82.0139 12.4192 82.1639 12.49L82.0139 12.3317C82.0097 12.1233 82.0806 12.0983 82.2806 12.2233C82.0931 11.2483 81.7431 10.7525 81.4556 10.4942C81.1681 10.2358 80.9347 10.2108 80.9347 10.2108C80.3764 10.04 80.6306 10.64 80.4056 11.0192L80.4139 11.015Z" fill="#20BB65"/>
<path d="M65.7341 22.1233L65.6758 22.0525C65.6924 22.09 65.7133 22.1192 65.7341 22.1233Z" fill="#20BB65"/>
<path d="M64.9715 19.4192C64.5924 19.4609 64.3424 19.1067 64.059 19.4109C63.8799 19.4484 63.7382 19.6067 63.5924 19.7234C63.6382 20.0609 63.3799 19.815 63.3882 20.1067L63.284 19.9484C63.284 20.0484 63.2715 20.1234 63.2049 20.0401L63.1882 19.9901C63.1924 20.1401 63.1091 20.0817 63.1091 20.1567L63.0924 20.1067L63.0424 20.1525L63.0257 20.0775C62.9965 20.2484 62.9174 20.29 62.8174 20.2567L62.9049 20.465C62.6507 20.2942 62.7632 20.7525 62.5091 20.5275L62.4924 20.4775C62.5216 21.1026 62.0591 20.2109 62.0674 20.8109C62.0674 20.7359 62.0174 20.7067 62.0007 20.6567C61.934 20.7484 61.8549 20.815 62.009 21.2317C61.9424 21.2525 61.9091 21.1234 61.8382 20.965C61.9049 21.1442 61.8799 21.24 61.8341 21.2734V21.1942L61.7091 21.3109L61.8632 21.6442C61.7507 21.5734 61.6882 21.2359 61.6465 21.3442L61.7549 21.6276C61.6299 21.6109 61.409 21.2026 61.2299 21.0317C60.7632 21.0651 60.5674 21.9567 59.9924 21.5942L59.9007 21.3859C59.784 21.0734 59.9549 21.8859 59.8382 21.6026V21.7609C59.809 21.7109 59.7632 21.6609 59.759 21.5817C59.7132 21.5817 59.7299 21.6359 59.7299 21.74L59.6174 21.5609C59.3965 21.4692 59.3841 21.8942 59.1799 21.8775C58.8299 21.5525 58.5549 22.0525 58.3924 22.3442C58.2174 22.9234 57.4299 21.7901 57.2715 22.4359C57.2465 22.3942 57.2507 22.5026 57.2632 22.5401L56.9424 22.5901C56.9424 22.5901 56.5632 22.6734 56.4216 23.0442C56.2841 23.415 56.3757 24.0734 57.3591 25.2067L57.3715 25.2776C57.5965 25.3942 57.7174 25.3942 57.7299 25.0109C57.884 25.4317 57.884 25.0109 57.9674 25.1359L57.9757 25.1734C57.9757 24.8109 58.2799 25.3775 58.2882 25.0525C58.2965 25.0859 58.3299 25.2067 58.309 25.2192C58.3674 25.1401 58.4382 25.015 58.5215 25.2609C58.6757 25.14 58.9632 25.1734 58.9466 24.7442L58.9632 24.815C58.9382 24.5275 59.034 24.7484 59.059 24.59C59.0715 24.6192 59.084 24.6359 59.0882 24.6484C59.0715 24.3609 59.2799 24.5401 59.2965 24.4109L59.3549 24.5734L59.4799 24.4901L59.4174 24.4734C59.2841 24.0192 59.6174 24.7192 59.6216 24.3942C59.7341 24.4192 59.4965 23.3942 59.6674 23.5817C59.6424 23.3567 59.7424 23.9359 59.759 23.7525C59.8424 23.9859 59.7757 23.9109 59.8591 24.09C59.8882 23.9567 60.0507 24.2901 60.084 24.1026L60.1507 24.2817C60.1465 23.9109 60.4424 24.4484 60.4049 24.1067C60.4674 23.9192 60.6674 24.6192 60.6632 24.2234L60.7966 24.4525C60.8632 24.4734 60.7257 24.14 60.8257 24.24C60.8757 24.3942 60.9382 24.3401 60.959 24.4984C61.1715 24.6942 61.0965 24.0651 61.409 24.4109C61.3382 24.0984 61.4882 24.2442 61.434 24.0109C61.484 24.14 61.609 23.9734 61.6174 24.2901C61.6174 24.3151 61.6007 24.3151 61.584 24.2651L61.6382 24.4484C61.8549 24.7525 61.7466 24.1984 61.8591 24.2192C61.8091 24.1692 61.7799 24.1984 61.7591 24.0692L61.8549 24.0609L61.8924 24.2192L62.0549 24.2609L61.9674 24.0817C62.0674 24.1526 62.2049 24.4609 62.1799 24.1734C62.1591 24.015 62.0299 23.9442 62.0757 23.8651C62.2091 23.9609 62.4049 24.1025 62.534 24.1192C62.4465 23.915 62.4799 23.9109 62.4924 23.8567L62.5632 24.0359C62.5841 23.74 62.7549 24.4192 62.7924 24.1734L62.8299 24.3025L62.7216 23.915C62.6924 23.5192 62.9174 24.2692 62.8507 23.7359C62.8174 23.7817 62.6799 23.3442 62.7632 23.4026L62.8132 23.5817C62.8299 23.5317 62.8132 23.4567 62.8465 23.4859C62.8632 23.5859 62.934 23.7442 62.9674 23.6942L63.0174 23.9234L62.9841 23.5692C63.1216 23.7317 63.1382 23.4567 63.2549 23.6901C63.2549 23.6901 63.4424 23.7567 63.3716 23.4734C63.4049 23.6526 63.509 23.6859 63.5632 23.8901C63.5299 23.6859 63.5757 23.49 63.6965 23.6734V23.6984C63.9382 23.84 63.8632 23.3109 64.1049 23.5026C64.0174 23.2984 64.1382 23.3817 64.0132 23.1234C64.059 22.8025 64.4965 23.5567 64.2257 22.715C64.2757 22.6442 64.3799 22.8776 64.434 22.9026V22.9526C64.534 22.8359 64.5674 22.8109 64.6716 22.7942C64.6882 22.6942 64.5424 22.3109 64.6632 22.3692C64.6965 22.5317 64.7216 22.49 64.7507 22.4775C64.7424 22.5109 64.7549 22.5692 64.8382 22.6525C64.8257 22.6025 64.8215 22.5692 64.8215 22.5442C64.8257 22.5567 64.834 22.565 64.8382 22.5817C64.8674 22.5067 64.8382 22.465 64.8091 22.4525C64.8007 22.4275 64.7882 22.3984 64.7632 22.3609C64.8965 22.5359 64.909 22.2859 65.0215 22.5442C65.1549 22.4192 65.1591 22.1067 65.2466 21.9525C65.3174 22.0817 65.334 22.2109 65.3174 22.2776L65.3882 22.19C65.4674 22.3817 65.3799 22.3234 65.3674 22.3734C65.6049 22.64 65.4674 21.9692 65.7132 22.2026L65.6757 22.04L65.6924 22.0609C65.6591 21.9817 65.6424 21.8609 65.6507 21.8275C65.7382 21.9859 65.809 22.2151 65.8674 22.1776C65.984 22.3192 65.9757 22.0359 66.0049 21.9192C65.9591 21.9067 65.9299 21.8067 65.9216 21.7442C65.9507 21.7234 66.0382 21.8859 66.0341 21.8025L66.1299 22.0275C66.0299 21.8192 66.1174 21.765 66.0882 21.665C66.1757 21.8234 66.1007 21.8275 66.1424 21.9567L66.3215 21.8442C66.3215 21.6442 66.2174 21.6359 66.1674 21.4275C66.209 21.3567 66.2007 21.1775 66.3257 21.2817L66.2174 21.09C66.2632 20.8859 66.3382 20.8817 66.5007 21.0526C66.5674 20.0651 66.3674 19.4942 66.1591 19.1692C65.9466 18.8442 65.7257 18.7651 65.7257 18.7651C65.2174 18.4609 65.3007 19.1109 64.9841 19.4275L64.9715 19.4192Z" fill="#20BB65"/>
<path d="M48.3261 27.4566L48.2803 27.3733C48.2886 27.415 48.3011 27.4483 48.3261 27.4566Z" fill="#20BB65"/>
<path d="M48.0921 24.6567C47.713 24.6275 47.5338 24.2317 47.1963 24.4734C47.013 24.4734 46.8422 24.6067 46.6797 24.69C46.6588 25.0275 46.4546 24.74 46.4088 25.0275L46.3338 24.8525C46.3171 24.9525 46.2922 25.0192 46.238 24.9275L46.2296 24.8734C46.2046 25.0192 46.1338 24.9484 46.1213 25.0234L46.113 24.9692L46.0547 25.0025V24.9234C45.9922 25.0859 45.9005 25.115 45.8088 25.0609L45.8588 25.2817C45.6421 25.065 45.663 25.5359 45.4547 25.2734L45.4463 25.2192C45.3588 25.84 45.063 24.8775 44.963 25.4692C44.9755 25.3942 44.9296 25.3567 44.9255 25.3025C44.8463 25.3817 44.7505 25.4317 44.8297 25.8692C44.7588 25.8775 44.7505 25.7442 44.7088 25.5775C44.7421 25.7692 44.7005 25.8567 44.6463 25.8776L44.6588 25.7984L44.5172 25.89L44.613 26.2442C44.513 26.1567 44.513 25.8109 44.4505 25.9109L44.5046 26.2067C44.3838 26.1692 44.238 25.7275 44.088 25.5275C43.6171 25.4775 43.2671 26.3234 42.7588 25.8692L42.7005 25.6484C42.638 25.3234 42.6671 26.1526 42.6005 25.8526L42.5755 26.0109C42.5505 25.9567 42.513 25.8984 42.5255 25.8192C42.4796 25.815 42.488 25.8692 42.4713 25.9734L42.388 25.7775C42.1838 25.6484 42.1005 26.0692 41.9005 26.0192C41.6046 25.64 41.2463 26.0942 41.038 26.3567C40.7755 26.9025 40.1588 25.665 39.9005 26.2817C39.8796 26.2359 39.8671 26.3484 39.8755 26.3859L39.5463 26.3942C39.5463 26.3942 37.963 26.5275 39.6005 29.0442V29.115C39.8088 29.2609 39.9255 29.2776 39.988 28.8984C40.0797 29.3359 40.1421 28.9192 40.2046 29.0567V29.0942C40.2588 28.7359 40.4755 29.34 40.5296 29.0192C40.5296 29.0567 40.5505 29.1776 40.5296 29.1859C40.5963 29.1192 40.6838 29.0025 40.7296 29.2567C40.9005 29.1609 41.1713 29.2359 41.2171 28.8067V28.8775C41.2421 28.59 41.3005 28.8234 41.3505 28.6692C41.3588 28.7025 41.3672 28.7192 41.3713 28.7317C41.3963 28.4484 41.5755 28.6525 41.613 28.5275L41.6463 28.6984L41.7838 28.6359L41.7255 28.6067C41.6671 28.1359 41.8838 28.8817 41.938 28.5609C42.0463 28.6026 41.9713 27.5567 42.113 27.7692C42.1255 27.5442 42.1297 28.1317 42.1755 27.9525C42.2172 28.1942 42.1671 28.1109 42.2171 28.3025C42.2671 28.1734 42.3755 28.5317 42.4338 28.3526L42.4713 28.54C42.5255 28.1734 42.7297 28.7525 42.7463 28.4109C42.838 28.2359 42.9213 28.9609 42.9797 28.5692L43.0713 28.8192C43.1296 28.8525 43.0546 28.4984 43.1338 28.6109C43.1588 28.7734 43.2297 28.7275 43.2213 28.8859C43.3963 29.115 43.4255 28.4817 43.6713 28.8775C43.6546 28.5567 43.7755 28.7275 43.763 28.4859C43.7922 28.6234 43.9422 28.4776 43.8963 28.7942C43.8922 28.8192 43.8755 28.8192 43.8672 28.765L43.888 28.9526C44.0463 29.2859 44.0338 28.7275 44.1421 28.765C44.1005 28.7067 44.0671 28.7317 44.0713 28.5984L44.1671 28.6067L44.1755 28.7692L44.3255 28.8359L44.2713 28.6442C44.3546 28.7317 44.438 29.0609 44.463 28.7692C44.4713 28.6109 44.3547 28.5192 44.413 28.4442C44.5255 28.5609 44.6921 28.7359 44.8171 28.7734C44.7671 28.5567 44.8005 28.5609 44.8213 28.5109L44.8588 28.6984C44.9338 28.415 44.9755 29.1067 45.0588 28.8775L45.0713 29.0109L45.0338 28.6067C45.0755 28.2109 45.163 28.9901 45.188 28.4567C45.1463 28.4984 45.0921 28.0442 45.163 28.115L45.1796 28.3025C45.2046 28.2567 45.2005 28.1775 45.2296 28.215C45.2296 28.3192 45.2671 28.4817 45.3088 28.4442L45.3171 28.6775L45.3463 28.3234C45.4505 28.5067 45.5171 28.24 45.5921 28.4942C45.5921 28.4942 45.763 28.5942 45.7463 28.3025C45.7463 28.4817 45.8421 28.5359 45.8588 28.7442C45.8588 28.5401 45.9463 28.3567 46.0297 28.5567V28.5817C46.2338 28.765 46.2588 28.2317 46.4588 28.465C46.4088 28.2484 46.513 28.3525 46.4421 28.0734C46.5463 27.765 46.838 28.59 46.7255 27.7109C46.788 27.6525 46.8505 27.8984 46.8922 27.9359L46.8838 27.9859C47.0046 27.89 47.0421 27.8734 47.1421 27.8734C47.1755 27.7775 47.1046 27.3734 47.213 27.4525C47.213 27.6192 47.2463 27.5817 47.2797 27.5734C47.263 27.6025 47.2672 27.6609 47.3338 27.7609C47.3338 27.7109 47.3338 27.6775 47.3338 27.6525C47.3338 27.665 47.3421 27.6734 47.3421 27.69C47.388 27.6234 47.3671 27.5734 47.338 27.5567C47.338 27.5317 47.3255 27.5025 47.3088 27.4567C47.4047 27.6525 47.4671 27.4109 47.5255 27.6859C47.6796 27.59 47.7422 27.2817 47.8547 27.1484C47.9005 27.2859 47.8921 27.4192 47.863 27.4817L47.9505 27.4109C47.9921 27.615 47.9171 27.54 47.8963 27.5859C48.0796 27.89 48.0713 27.2109 48.2672 27.4817V27.315L48.2755 27.34C48.2588 27.2567 48.263 27.1317 48.2755 27.1026C48.3296 27.2776 48.3588 27.5109 48.4213 27.4859C48.5088 27.6442 48.5547 27.3692 48.6047 27.2567C48.5588 27.2359 48.5547 27.1359 48.5547 27.0692C48.588 27.0567 48.6421 27.2275 48.6546 27.1484L48.7088 27.3859C48.6505 27.165 48.7463 27.1234 48.738 27.0234C48.7963 27.1942 48.7172 27.1859 48.738 27.3234C48.8672 27.2734 48.8046 27.2984 48.9338 27.2484C48.9671 27.0525 48.8713 27.0234 48.863 26.8109C48.9171 26.7525 48.9421 26.5734 49.0463 26.6984L48.9796 26.49C49.063 26.2984 49.138 26.3109 49.2671 26.5067C49.5213 25.5484 49.4338 24.9525 49.288 24.59C49.1422 24.2317 48.938 24.1109 48.938 24.1109C48.4963 23.715 48.4546 24.3692 48.0796 24.6192L48.0921 24.6567Z" fill="#20BB65"/>
<path d="M30.6005 30.6485L30.5547 30.5652C30.563 30.6069 30.5797 30.6402 30.6005 30.6485Z" fill="#20BB65"/>
<path d="M30.3507 27.8484C29.9591 27.8192 29.7715 27.4317 29.4215 27.6817C29.2299 27.6901 29.0549 27.8276 28.8882 27.9192C28.8757 28.2567 28.6549 27.9776 28.6174 28.2692L28.5382 28.0984C28.5257 28.1984 28.5007 28.2692 28.4424 28.1776L28.434 28.1234C28.4132 28.2734 28.3382 28.2026 28.3257 28.2776L28.3174 28.2234L28.259 28.2609L28.2507 28.1817C28.1965 28.3484 28.1049 28.3776 28.0091 28.3317L28.0674 28.5484C27.834 28.3442 27.8799 28.8151 27.6507 28.5609L27.6382 28.5068C27.5799 29.1318 27.2257 28.1942 27.159 28.7901C27.1674 28.7151 27.1215 28.6817 27.109 28.6276C27.0299 28.7151 26.9382 28.7692 27.0466 29.1984C26.9757 29.2109 26.9549 29.0776 26.9049 28.9151C26.9549 29.1026 26.9132 29.1942 26.8632 29.2192V29.1401L26.7341 29.2442L26.8549 29.5901C26.7466 29.5109 26.7215 29.1651 26.6674 29.2692L26.7465 29.5609C26.6215 29.5317 26.4382 29.1067 26.2715 28.9192C25.784 28.9192 25.5049 29.7901 24.9424 29.3984L24.8591 29.1859C24.7591 28.8693 24.8799 29.6901 24.7799 29.4026L24.7716 29.5609C24.7424 29.5067 24.6966 29.4567 24.6966 29.3776C24.6466 29.3776 24.6632 29.4317 24.659 29.5359L24.5507 29.3526C24.3257 29.2526 24.2882 29.6776 24.0799 29.6567C23.7341 29.3234 23.4215 29.8234 23.2507 30.1151C23.0674 30.6942 22.2549 29.5693 22.0882 30.2276C22.0632 30.1859 22.0674 30.2984 22.0799 30.3318L21.7465 30.3984C21.7465 30.3984 21.3507 30.5067 21.2215 30.8859C21.0882 31.2651 21.2424 31.9067 22.2674 33.0026L22.2841 33.0734C22.5091 33.1776 22.6216 33.1776 22.6174 32.7984C22.7841 33.2151 22.7674 32.7984 22.8549 32.9192L22.8632 32.9567C22.8507 32.5984 23.1632 33.1526 23.1591 32.8318C23.1674 32.8651 23.2049 32.9817 23.1841 32.9984C23.2382 32.9192 23.3007 32.7943 23.3882 33.0401C23.534 32.9193 23.8091 32.9567 23.7882 32.5276L23.8049 32.5984C23.7799 32.3109 23.8716 32.5317 23.8966 32.3776C23.9091 32.4067 23.9215 32.4234 23.9257 32.4359C23.909 32.1526 24.1091 32.3317 24.1299 32.2026L24.1841 32.3651L24.3091 32.2818L24.2465 32.2609C24.1215 31.8026 24.4382 32.5109 24.4465 32.1901C24.5549 32.2192 24.3465 31.1901 24.509 31.3817C24.4924 31.1567 24.5716 31.7401 24.5924 31.5568C24.6674 31.7943 24.6049 31.7151 24.6799 31.8984C24.7132 31.7651 24.8632 32.1068 24.8965 31.9193L24.9549 32.1026C24.9632 31.7318 25.2299 32.2859 25.209 31.9443C25.2757 31.7609 25.4466 32.4693 25.4549 32.0734L25.5715 32.3109C25.634 32.3359 25.5174 31.9942 25.6091 32.0984C25.6507 32.2567 25.7132 32.2026 25.7257 32.3609C25.9215 32.5734 25.8799 31.9401 26.1591 32.3109C26.1091 31.9943 26.2424 32.1526 26.2049 31.9151C26.2466 32.0484 26.3757 31.8901 26.3632 32.2068C26.3632 32.2318 26.3466 32.2318 26.3341 32.1818L26.3716 32.3692C26.5591 32.6859 26.4882 32.1317 26.5966 32.1609C26.5507 32.1067 26.5215 32.1359 26.509 32.0026H26.6007L26.6257 32.1609L26.7799 32.2151L26.7091 32.0276C26.7966 32.1067 26.909 32.4276 26.9049 32.1359C26.8965 31.9776 26.7757 31.8942 26.8257 31.8192C26.9465 31.9276 27.1216 32.0901 27.2466 32.1192C27.1799 31.9067 27.2132 31.9067 27.2299 31.8567L27.2841 32.0442C27.3299 31.7567 27.4341 32.4443 27.4924 32.2068L27.5174 32.3401L27.4465 31.9443C27.4549 31.5484 27.6007 32.3192 27.5841 31.7817C27.5466 31.8234 27.4591 31.3776 27.5341 31.4442L27.5674 31.6276C27.5882 31.5817 27.5799 31.5026 27.6091 31.5359C27.6174 31.6359 27.6674 31.8026 27.7049 31.7567L27.734 31.9901V31.6359C27.8507 31.8109 27.8924 31.5443 27.9841 31.7901C27.9841 31.7901 28.1549 31.8776 28.1215 31.5901C28.134 31.7692 28.2299 31.8151 28.259 32.0276C28.2465 31.8234 28.3174 31.6359 28.409 31.8317V31.8567C28.6174 32.0317 28.6132 31.4984 28.8174 31.7234C28.7591 31.5067 28.8632 31.6067 28.7799 31.3317C28.8674 31.0192 29.1882 31.8317 29.0382 30.9609C29.0965 30.8984 29.1674 31.1442 29.2132 31.1817V31.2317C29.3215 31.1317 29.3549 31.1151 29.4549 31.1109C29.484 31.0151 29.4007 30.6151 29.509 30.6901C29.5174 30.8567 29.5465 30.8192 29.5799 30.8109C29.5632 30.8401 29.5715 30.8984 29.6382 30.9984C29.634 30.9484 29.6382 30.9151 29.6382 30.8901C29.6382 30.9026 29.6424 30.9109 29.6466 30.9276C29.6882 30.8609 29.6674 30.8109 29.6382 30.7942C29.634 30.7692 29.6257 30.7401 29.609 30.6984C29.7132 30.8901 29.7632 30.6484 29.8299 30.9234C29.9757 30.8234 30.0299 30.5151 30.1424 30.3776C30.1882 30.5151 30.184 30.6484 30.159 30.7109L30.2424 30.6401C30.2841 30.8442 30.2132 30.7692 30.1924 30.8151C30.3757 31.1192 30.3549 30.4359 30.5549 30.7109L30.5465 30.5442L30.5591 30.5692C30.5424 30.4859 30.5466 30.3609 30.5591 30.3318C30.6174 30.5026 30.6466 30.7401 30.7091 30.7151C30.7966 30.8734 30.8382 30.5984 30.8882 30.4901C30.8465 30.4692 30.8341 30.3693 30.8382 30.3026C30.8716 30.2901 30.9257 30.4609 30.934 30.3818L30.9882 30.6193C30.9257 30.3984 31.0215 30.3567 31.0132 30.2567C31.0674 30.4317 30.9924 30.4192 31.0132 30.5567C31.1424 30.5067 31.0757 30.5317 31.2049 30.4817C31.2382 30.2859 31.1466 30.2567 31.1341 30.0401C31.1882 29.9817 31.2132 29.8026 31.3174 29.9276L31.2507 29.7192C31.334 29.5317 31.4132 29.5401 31.534 29.7401C31.8007 28.7859 31.7299 28.1859 31.5924 27.8234C31.4549 27.4609 31.2424 27.3401 31.2424 27.3401C30.7924 26.9442 30.7341 27.5984 30.3507 27.8526V27.8484Z" fill="#20BB65"/>
<path d="M14.1216 36.769L14.0508 36.7065C14.0716 36.744 14.0966 36.769 14.1216 36.769Z" fill="#20BB65"/>
<path d="M8.69629 40.8108C8.69629 40.8108 8.70046 40.8233 8.70463 40.8316C8.70463 40.8233 8.70046 40.8191 8.69629 40.8108Z" fill="#20BB65"/>
<path d="M11.6086 34.7484C11.6086 34.7484 11.6087 34.7317 11.6045 34.7234V34.7484H11.6086Z" fill="#20BB65"/>
<path d="M13.0008 34.1899C12.6133 34.2899 12.3091 33.9858 12.0466 34.3399C11.8633 34.4108 11.7383 34.6024 11.605 34.7483C11.705 35.0733 11.3966 34.8816 11.4591 35.1733L11.3258 35.0399C11.3466 35.1399 11.3466 35.2149 11.2591 35.1524L11.23 35.1066C11.2591 35.2524 11.1633 35.2191 11.18 35.2899L11.1508 35.2441L11.1091 35.2983L11.0758 35.2274C11.0758 35.4024 11.0008 35.4649 10.8925 35.4566L11.0216 35.6399C10.73 35.5358 10.9341 35.9566 10.63 35.8024L10.6008 35.7566C10.7633 36.3608 10.0966 35.6107 10.2425 36.1982C10.2258 36.1232 10.1675 36.1107 10.1383 36.0649C10.0925 36.1732 10.0258 36.2649 10.28 36.6233C10.2175 36.6608 10.1508 36.5441 10.0466 36.4108C10.1591 36.5691 10.155 36.6691 10.1175 36.7108L10.0966 36.6357L10.005 36.7858L10.2466 37.0608C10.1175 37.0274 9.96747 36.7149 9.95497 36.8316L10.1341 37.0733C10.005 37.0941 9.67579 36.7649 9.45079 36.6566C8.98413 36.8441 9.05912 37.7649 8.37996 37.6316L8.22165 37.4691C8.00498 37.2191 8.4383 37.9274 8.22996 37.6983L8.2883 37.8483C8.2383 37.8108 8.17579 37.7816 8.14663 37.7108C8.10079 37.7316 8.13412 37.7733 8.17162 37.8733L8.0008 37.7483C7.7508 37.7483 7.88413 38.1566 7.67996 38.2274C7.22163 38.0732 7.13415 38.6649 7.10081 39.0107C7.17998 39.6107 5.95081 38.9691 6.07998 39.6441C6.03831 39.6191 6.09246 39.7191 6.11746 39.7441L5.84247 39.9608C5.84247 39.9608 5.52998 40.2482 5.58831 40.6482C5.64248 41.0566 6.09246 41.5316 7.5008 42.0316L7.54662 42.0858C7.78829 42.0774 7.88829 42.0316 7.70496 41.6941C8.04246 41.9899 7.83413 41.6274 7.96746 41.6941L7.99246 41.7233C7.81746 41.4108 8.34248 41.7691 8.19248 41.4858C8.21331 41.5149 8.3008 41.6024 8.2883 41.6233C8.3008 41.5316 8.3008 41.3941 8.4883 41.5733C8.5633 41.4066 8.81329 41.3233 8.61329 40.9483L8.65914 41.0066C8.51331 40.7608 8.69246 40.9191 8.64663 40.7691C8.67163 40.7899 8.6883 40.8024 8.69663 40.8108C8.55913 40.5608 8.81746 40.6399 8.7758 40.5149L8.89665 40.6399L8.97164 40.5149L8.90913 40.5233C8.60497 40.1608 9.18831 40.6733 9.05498 40.3774C9.16331 40.3608 8.54246 39.5108 8.7758 39.6191C8.6633 39.4191 8.98415 39.9191 8.92165 39.7441C9.08831 39.9274 9.0008 39.8816 9.14247 40.0191C9.11747 39.8858 9.39246 40.1316 9.34663 39.9524L9.47579 40.0941C9.32996 39.7566 9.8008 40.1524 9.6383 39.8483C9.62163 39.6524 10.0633 40.2358 9.91331 39.8733L10.1133 40.0441C10.18 40.0441 9.9383 39.7733 10.0591 39.8358C10.1591 39.9649 10.1966 39.8941 10.2716 40.0316C10.53 40.1524 10.2425 39.5899 10.6425 39.8233C10.4716 39.5524 10.655 39.6483 10.5258 39.4441C10.6175 39.5524 10.6716 39.3608 10.7841 39.6524C10.7925 39.6774 10.78 39.6816 10.7466 39.6399L10.855 39.7941C11.1508 40.0191 10.8675 39.5358 10.9758 39.5233C10.9175 39.4899 10.8966 39.5233 10.8383 39.4066L10.9216 39.3732L11.005 39.5108H11.1633L11.03 39.3608C11.1425 39.4024 11.3633 39.6566 11.2508 39.3899C11.1841 39.2441 11.0425 39.2149 11.0591 39.1233C11.2091 39.1774 11.4341 39.2649 11.555 39.2483C11.4133 39.0774 11.4425 39.0649 11.4425 39.0107L11.5591 39.1649C11.4925 38.8816 11.8425 39.4816 11.8091 39.2441L11.88 39.3566L11.6675 39.0149C11.5258 38.6441 11.9466 39.3066 11.7341 38.8149C11.7175 38.8691 11.4675 38.4816 11.5633 38.5191L11.6591 38.6774C11.6591 38.6274 11.6258 38.5566 11.6633 38.5774C11.705 38.6691 11.8133 38.8024 11.83 38.7524L11.9425 38.9608L11.8133 38.6316C11.9841 38.7566 11.9258 38.4899 12.0966 38.6899C12.0966 38.6899 12.2841 38.7149 12.1508 38.4566C12.23 38.6191 12.33 38.6316 12.4341 38.8149C12.3466 38.6274 12.3466 38.4316 12.505 38.5858L12.5133 38.6108C12.7675 38.7024 12.5716 38.2066 12.8425 38.3483C12.7133 38.1649 12.8425 38.2233 12.6716 37.9983C12.6425 37.6774 13.2216 38.3358 12.7841 37.5649C12.8175 37.4858 12.9675 37.6941 13.0216 37.7149L13.0341 37.7649C13.105 37.6358 13.13 37.6066 13.2216 37.5732C13.2175 37.4732 13.005 37.1232 13.13 37.1607C13.1925 37.3149 13.2091 37.2691 13.2341 37.2524C13.2341 37.2858 13.255 37.3399 13.3508 37.4108C13.33 37.3649 13.3216 37.3316 13.3133 37.3066C13.3216 37.3191 13.3258 37.3274 13.3341 37.3399C13.3508 37.2607 13.3133 37.2233 13.28 37.2191C13.2675 37.1983 13.2508 37.1732 13.2175 37.1357C13.3758 37.2857 13.3425 37.0399 13.4966 37.2733C13.6008 37.1316 13.5466 36.8233 13.6091 36.6608C13.6966 36.7774 13.7341 36.9024 13.73 36.9691L13.7841 36.8732C13.8925 37.0524 13.7966 37.0024 13.7966 37.0524C14.0675 37.2816 13.8258 36.6441 14.1008 36.8399L14.0425 36.6858L14.0633 36.7066C14.0175 36.6316 13.9841 36.5149 13.9883 36.4816C14.0966 36.6274 14.2008 36.8399 14.2508 36.7982C14.3841 36.9191 14.3341 36.6483 14.3466 36.5274C14.3008 36.5191 14.2591 36.4274 14.2425 36.3649C14.2675 36.3441 14.3758 36.4899 14.3591 36.4108L14.4841 36.6191C14.3591 36.4274 14.4341 36.3608 14.3966 36.2691C14.505 36.4149 14.43 36.4316 14.4925 36.5524C14.5966 36.4649 14.5425 36.5108 14.6508 36.4233C14.6216 36.2274 14.5258 36.2274 14.4466 36.0274C14.4758 35.9524 14.4466 35.7733 14.5841 35.8649L14.4591 35.6899C14.48 35.4858 14.5591 35.4732 14.7341 35.6232C14.6966 34.6357 14.4591 34.0774 14.2175 33.7774C13.9758 33.4732 13.7341 33.4233 13.7341 33.4233C13.1758 33.1858 13.3133 33.8316 13.0175 34.1941L13.0008 34.1899Z" fill="#20BB65"/>
<path d="M3.51451 48.8316L3.42285 48.8191C3.46452 48.8316 3.49784 48.8357 3.51451 48.8316Z" fill="#20BB65"/>
<path d="M2.98145 52.2942C2.98145 52.2942 2.99394 52.2942 3.00227 52.2984C2.99394 52.2984 2.98978 52.2984 2.98145 52.2942Z" fill="#20BB65"/>
<path d="M0.430984 48.6231C0.430984 48.6231 0.41849 48.6148 0.410156 48.6106L0.430984 48.6231Z" fill="#20BB65"/>
<path d="M0.889228 47.869C0.722561 48.0482 0.301739 47.994 0.405906 48.2648C0.343406 48.3648 0.405905 48.5023 0.430905 48.619C0.739238 48.7482 0.401729 48.7565 0.655896 48.8815L0.468391 48.8607C0.555891 48.9023 0.610072 48.9398 0.510072 48.9357L0.455904 48.9232C0.58507 48.9857 0.49757 48.9982 0.56007 49.0315L0.505902 49.019L0.522559 49.0607L0.447562 49.0357C0.580896 49.119 0.580898 49.1773 0.501731 49.2107L0.722577 49.2523C0.45591 49.3023 0.901719 49.4315 0.593386 49.4648L0.539242 49.4523C1.09758 49.6815 0.105905 49.5607 0.639238 49.7857C0.572572 49.7565 0.522561 49.7732 0.472561 49.7607C0.526728 49.8273 0.547575 49.894 0.980908 49.969C0.968408 50.0065 0.83922 49.9773 0.672553 49.9523C0.86422 49.9857 0.935063 50.0315 0.943397 50.0648L0.87257 50.0398L0.922568 50.1398L1.28507 50.1815C1.17257 50.2107 0.843402 50.119 0.922568 50.1815L1.22256 50.2315C1.15172 50.2857 0.693387 50.2523 0.46422 50.2815C0.293387 50.5357 1.02256 50.9107 0.468391 51.094L0.239229 51.0815C-0.0899377 51.0523 0.722555 51.2023 0.414222 51.1773L0.564241 51.2232C0.505908 51.2232 0.439228 51.2357 0.368395 51.2148C0.351728 51.2398 0.405902 51.2482 0.505902 51.2773L0.297568 51.2857C0.126735 51.3773 0.514234 51.5023 0.426734 51.6065C-0.00659923 51.7065 0.364236 51.9898 0.585069 52.144C1.07257 52.3607 -0.260757 52.5523 0.30591 52.7773C0.260077 52.7815 0.364235 52.8023 0.401735 52.8023L0.351737 52.9898C0.351737 52.9898 0.318401 53.2232 0.635067 53.3607C0.947567 53.5023 1.6059 53.5148 2.97673 53.1982H3.04756C3.22256 53.1107 3.26006 53.0565 2.89756 52.994C3.3434 52.9857 2.94341 52.919 3.08924 52.9023H3.12673C2.78506 52.844 3.41423 52.7982 3.1059 52.7398C3.1434 52.7398 3.26424 52.7482 3.27257 52.7565C3.21424 52.719 3.11839 52.6648 3.38089 52.669C3.31422 52.5773 3.43923 52.4565 3.02673 52.3815L3.09756 52.3899C2.81839 52.344 3.06006 52.344 2.91839 52.3023C2.95173 52.3023 2.96841 52.3023 2.98507 52.3023C2.71007 52.2523 2.94758 52.194 2.83091 52.1565L3.00173 52.1648L2.96422 52.0898L2.92673 52.1148C2.4559 52.0773 3.22673 52.0773 2.92673 52.0065C2.98923 51.9648 1.95173 51.8357 2.18923 51.7982C1.96839 51.7565 2.54757 51.8482 2.3809 51.7982C2.62673 51.8148 2.53505 51.8273 2.73089 51.8315C2.61839 51.7857 2.98923 51.794 2.82257 51.7357L3.01424 51.7482C2.66841 51.6607 3.27672 51.6607 2.94339 51.594C2.78922 51.519 3.51839 51.6107 3.14755 51.5107H3.41006C3.45589 51.494 3.09341 51.4607 3.22258 51.4482C3.38508 51.469 3.35589 51.4273 3.51005 51.4607C3.77255 51.4273 3.16423 51.2898 3.60173 51.2565C3.28507 51.1982 3.4809 51.1815 3.2434 51.1357C3.3809 51.1523 3.27672 51.0523 3.56839 51.1357C3.59339 51.144 3.58508 51.1482 3.53508 51.144L3.72256 51.1732C4.08506 51.1732 3.53506 51.0607 3.59756 51.0232C3.53506 51.0273 3.54756 51.0482 3.4184 51.0232L3.45174 50.9815L3.61007 51.0107L3.71007 50.9607L3.51422 50.944C3.61839 50.9273 3.95173 50.9648 3.6809 50.8857C3.5309 50.8482 3.41422 50.8773 3.35589 50.8357C3.49755 50.8107 3.70589 50.7773 3.77255 50.7357C3.55172 50.7065 3.56423 50.694 3.52256 50.669L3.71424 50.6982C3.46007 50.5982 4.13506 50.744 3.93506 50.6565L4.0684 50.6815L3.67256 50.6023C3.30589 50.4857 4.07256 50.6398 3.56839 50.4982C3.59756 50.5273 3.14756 50.4357 3.23506 50.4232L3.4184 50.4607C3.3809 50.4398 3.3059 50.419 3.34757 50.4148C3.4434 50.4398 3.61424 50.4648 3.58507 50.4398L3.81007 50.494L3.48091 50.3898C3.68507 50.3898 3.44757 50.294 3.71007 50.3273C3.71007 50.3273 3.85173 50.2815 3.57256 50.2107C3.7434 50.2565 3.8184 50.2315 4.02257 50.2815C3.82674 50.2273 3.67673 50.1398 3.88923 50.1607L3.91423 50.169C4.1434 50.1357 3.64757 49.9732 3.92257 49.9565C3.70174 49.9148 3.8309 49.9023 3.54756 49.8482C3.28923 49.7107 4.1434 49.8398 3.28923 49.6148C3.25173 49.569 3.50173 49.619 3.54756 49.6148L3.58922 49.6315C3.53505 49.5523 3.53091 49.5315 3.56008 49.4857C3.48091 49.4398 3.08507 49.3398 3.18924 49.319C3.3434 49.3732 3.31841 49.3482 3.32257 49.3315C3.34341 49.3482 3.40172 49.3649 3.51422 49.369C3.46422 49.3524 3.43506 49.3398 3.41423 49.3315C3.42673 49.3315 3.43507 49.3357 3.45174 49.3398C3.40174 49.2982 3.35174 49.2898 3.32674 49.2982C3.30174 49.2898 3.27256 49.2857 3.22672 49.2773C3.43922 49.3023 3.23507 49.194 3.50591 49.2607C3.46424 49.1648 3.19757 49.0315 3.11007 48.9357C3.25173 48.9648 3.3684 49.0148 3.4184 49.0482L3.38089 48.9857C3.58089 49.0398 3.48923 49.044 3.52256 49.069C3.86006 49.1023 3.2309 48.8648 3.54756 48.8815L3.3934 48.8232H3.42257C3.33923 48.8023 3.23089 48.7565 3.20589 48.7398C3.38089 48.7815 3.6059 48.8565 3.6059 48.819C3.7809 48.844 3.54339 48.7232 3.46005 48.6607C3.42672 48.669 3.33091 48.6357 3.27257 48.6107C3.27257 48.594 3.44757 48.6357 3.37674 48.5982L3.61007 48.6648C3.38924 48.6065 3.38507 48.5523 3.2934 48.5148C3.4684 48.5565 3.43505 48.5857 3.56422 48.6273C3.56422 48.5565 3.56422 48.5898 3.56422 48.519C3.39755 48.4315 3.34341 48.4565 3.14341 48.3773C3.10591 48.3315 2.9559 48.2482 3.1059 48.2565L2.89756 48.2023C2.7559 48.0898 2.79341 48.0607 3.01424 48.0898C2.25174 47.5898 1.69341 47.3565 1.31841 47.269C0.943407 47.1815 0.760062 47.2315 0.760062 47.2315C0.235062 47.2857 0.801732 47.5898 0.893399 47.8773L0.889228 47.869Z" fill="#20BB65"/>
</svg>
