<svg width="63" height="115" viewBox="0 0 63 115" fill="none" xmlns="http://www.w3.org/2000/svg">
<path d="M1.08301 1.99548L1.10381 2.09131C1.10381 2.04548 1.09551 2.00798 1.08301 1.99548Z" fill="#20BB65"/>
<path d="M5.2373 1.87034C5.2373 1.87034 5.23731 1.85782 5.24148 1.84949C5.24148 1.85782 5.24147 1.86201 5.2373 1.87034Z" fill="#20BB65"/>
<path d="M1.07492 5.00372C1.29159 5.10789 1.37073 5.55788 1.57073 5.36205C1.6749 5.39538 1.7791 5.28285 1.87494 5.22452C1.9041 4.87035 2.00407 5.21202 2.04991 4.91619L2.0791 5.11618C2.09577 5.01618 2.11244 4.94539 2.13744 5.05372V5.11201C2.16244 4.95784 2.19574 5.04952 2.20824 4.97036V5.0287L2.24161 4.99955V5.08287C2.28327 4.92037 2.33326 4.90787 2.38326 4.9787L2.37075 4.73705C2.47908 5.00372 2.49576 4.49953 2.59576 4.82036V4.8787C2.68743 4.23704 2.78741 5.30785 2.88324 4.69951C2.87074 4.77451 2.89158 4.82454 2.89158 4.88287C2.94158 4.81204 2.99991 4.77453 2.98741 4.29953C3.02491 4.3037 3.0249 4.44538 3.03323 4.62871C3.02907 4.42038 3.05824 4.33288 3.09157 4.32038L3.07906 4.39953L3.16659 4.32867L3.14157 3.93703C3.19157 4.04953 3.16242 4.41622 3.20825 4.32038L3.19991 3.99537C3.26658 4.05787 3.31243 4.54955 3.3791 4.79122C3.63743 4.92455 3.90409 4.0912 4.14992 4.6662L4.16243 4.91202C4.1666 5.27035 4.22491 4.38286 4.23741 4.71203L4.2666 4.54952C4.27493 4.61202 4.29156 4.68286 4.27906 4.76202C4.30406 4.77452 4.30411 4.71619 4.32494 4.60786L4.35408 4.82871C4.45408 4.99954 4.54157 4.57036 4.6499 4.66203C4.7749 5.11619 5.01656 4.7037 5.16239 4.46204C5.37073 3.93287 5.5666 5.35785 5.7791 4.75368C5.78327 4.80368 5.80408 4.69118 5.80408 4.64952L5.98744 4.70368C5.98744 4.70368 6.20828 4.74538 6.35828 4.41621C6.50828 4.08704 6.59994 3.38285 6.29994 1.89118L6.30823 1.81204C6.20823 1.62038 6.14157 1.57454 6.05824 1.96621C6.05824 1.48704 5.9749 1.91621 5.95407 1.75787V1.72039C5.88324 2.08705 5.83325 1.40785 5.76242 1.73702C5.76242 1.69952 5.77077 1.56622 5.78327 1.55788C5.73744 1.61622 5.67077 1.72454 5.67494 1.44537C5.56244 1.51621 5.41241 1.38284 5.33741 1.82867V1.74953C5.29991 2.04953 5.29159 1.79535 5.24576 1.94535C5.24576 1.90785 5.24576 1.89122 5.24576 1.87455C5.19992 2.17039 5.12075 1.92035 5.08325 2.04535V1.85787L4.99577 1.89953L5.02908 1.94118C5.01242 2.44952 4.96656 1.62036 4.90406 1.94952C4.84573 1.88286 4.77909 3.00788 4.72075 2.75788C4.69159 2.99538 4.7499 2.37039 4.70407 2.55372C4.70407 2.28705 4.72492 2.38704 4.71658 2.17454C4.67492 2.29954 4.6499 1.90372 4.59573 2.08289V1.87455C4.5249 2.25372 4.4666 1.59954 4.42077 1.96204C4.34993 2.13287 4.37492 1.34537 4.29992 1.7537L4.27077 1.47452C4.23744 1.42868 4.24993 1.81618 4.21243 1.68285C4.21243 1.50785 4.16657 1.54119 4.18741 1.37452C4.10824 1.09952 4.02907 1.76622 3.92073 1.29955C3.8999 1.64122 3.84575 1.43703 3.83325 1.69536C3.83325 1.54536 3.72909 1.67038 3.78325 1.34538C3.78742 1.32038 3.79577 1.32453 3.79577 1.38286V1.1787C3.73743 0.795367 3.69576 1.3912 3.63326 1.33287C3.64993 1.39953 3.6749 1.38285 3.6624 1.52035L3.60823 1.49537L3.61658 1.32452L3.53326 1.22453L3.54578 1.43703C3.50411 1.3287 3.48323 0.966189 3.44573 1.27036C3.42906 1.43702 3.4874 1.55785 3.44573 1.62451C3.39156 1.47868 3.30823 1.26201 3.2374 1.20367C3.2499 1.44117 3.22909 1.43286 3.21242 1.48286L3.20408 1.27453C3.13741 1.56619 3.16658 0.820343 3.09991 1.04951V0.903687L3.09157 1.33704C3.03741 1.74954 3.04574 0.907847 2.98741 1.47035C3.01657 1.43285 3.01239 1.92868 2.97489 1.83702V1.63702C2.96239 1.67869 2.95825 1.76201 2.94158 1.72451C2.94991 1.61617 2.9416 1.43284 2.91243 1.46618L2.9249 1.21619L2.87907 1.58703C2.83323 1.37453 2.77493 1.64534 2.74993 1.36201C2.74993 1.36201 2.65826 1.22453 2.64576 1.53703C2.65826 1.34536 2.60823 1.27456 2.6124 1.04539C2.59573 1.26206 2.53327 1.44535 2.49994 1.21202V1.18704C2.39577 0.953709 2.34161 1.5162 2.24161 1.23287C2.25411 1.47454 2.19992 1.34537 2.22492 1.64954C2.14576 1.95787 2.02911 1.03289 2.03327 1.98289C1.99161 2.03706 1.97491 1.76205 1.94991 1.71622L1.95825 1.66622C1.88325 1.74539 1.85825 1.75785 1.79992 1.73702C1.77492 1.83285 1.79157 2.27454 1.73324 2.17037C1.74157 1.99537 1.72076 2.02872 1.70409 2.02872C1.71659 1.99955 1.71657 1.93705 1.68324 1.82038C1.68324 1.87455 1.67906 1.90785 1.6749 1.93701C1.6749 1.92451 1.6749 1.91202 1.6749 1.89536C1.64573 1.95786 1.65411 2.01201 1.67078 2.03701C1.67078 2.06201 1.67074 2.09951 1.68324 2.14535C1.6374 1.92035 1.5874 2.16621 1.57073 1.86621C1.4749 1.94121 1.42076 2.2537 1.34576 2.3787C1.3291 2.22454 1.33744 2.08705 1.35828 2.02455L1.30411 2.08289C1.29161 1.85789 1.3291 1.9537 1.34576 1.90787C1.2541 1.54953 1.22491 2.27452 1.12075 1.94952L1.11241 2.12871L1.10406 2.09952C1.10823 2.19118 1.09993 2.32034 1.08743 2.34951C1.06243 2.15784 1.06242 1.89954 1.02075 1.91621C0.979085 1.72871 0.937402 2.01621 0.899902 2.12454C0.924902 2.15788 0.924918 2.26621 0.916585 2.33288C0.895751 2.34121 0.874916 2.14955 0.862416 2.23288L0.845733 1.97038C0.870733 2.21621 0.808247 2.24117 0.808247 2.34951C0.783247 2.15784 0.829097 2.17872 0.82493 2.03289C0.745764 2.06205 0.783251 2.04955 0.708251 2.07872C0.679085 2.27872 0.733272 2.32451 0.729105 2.55784C0.695772 2.61201 0.670764 2.79537 0.616597 2.6412L0.645741 2.87451C0.587408 3.05785 0.545731 3.03704 0.479064 2.80371C0.287398 3.77038 0.312402 4.4162 0.379068 4.82453C0.445735 5.23287 0.558257 5.39954 0.558257 5.39954C0.791591 5.89954 0.841579 5.21619 1.06658 5.02036L1.07492 5.00372Z" fill="#20BB65"/>
<path d="M16.3779 3.21204L16.3863 3.31203C16.3946 3.27037 16.3946 3.2287 16.3779 3.21204Z" fill="#20BB65"/>
<path d="M24.0234 5.3995C24.0234 5.3995 24.0318 5.39115 24.0359 5.38281C24.0276 5.38698 24.0234 5.39533 24.0234 5.3995Z" fill="#20BB65"/>
<path d="M16.8074 6.66199C16.8074 6.66199 16.7991 6.67446 16.7949 6.68279L16.8116 6.66199H16.8074Z" fill="#20BB65"/>
<path d="M15.386 6.07032C15.7527 6.26615 15.7569 6.73282 16.1985 6.64532C16.3819 6.72449 16.6069 6.67034 16.8069 6.66201C16.9777 6.34117 17.0527 6.71618 17.2277 6.45784L17.2194 6.66201C17.2819 6.57451 17.3402 6.51614 17.3485 6.63281L17.3319 6.68698C17.4235 6.55365 17.461 6.65782 17.5068 6.59115L17.4902 6.64532L17.561 6.63698L17.5277 6.71618C17.661 6.58284 17.761 6.59948 17.8277 6.69115L17.8818 6.45367C17.9943 6.76201 18.1902 6.29533 18.2735 6.64949L18.2568 6.70366C18.6318 6.14116 18.4694 7.21198 18.8444 6.68698C18.7985 6.75365 18.8235 6.812 18.8027 6.86617C18.9194 6.82867 19.036 6.82031 19.1652 6.36614C19.236 6.39114 19.1819 6.5245 19.1444 6.70366C19.2027 6.50366 19.286 6.43699 19.3485 6.44116L19.2985 6.51201L19.4777 6.49116L19.5568 6.10364C19.611 6.23697 19.4443 6.57034 19.5568 6.50367L19.6485 6.19117C19.7485 6.287 19.6819 6.78281 19.7277 7.04531C20.1569 7.31614 20.9152 6.68699 21.1777 7.37449L21.1193 7.61197C21.0152 7.95363 21.4027 7.14948 21.3193 7.47032L21.4193 7.33283C21.4152 7.3995 21.4193 7.4745 21.3735 7.54117C21.4152 7.57033 21.436 7.51615 21.5027 7.42449L21.4818 7.65368C21.611 7.87868 21.9069 7.52448 22.0735 7.67448C22.1569 8.18281 22.7319 7.94117 23.0652 7.80784C23.611 7.43701 23.5152 8.92451 24.0902 8.49118C24.0819 8.54118 24.1569 8.44949 24.1694 8.41199L24.4777 8.587C24.4777 8.587 24.861 8.77865 25.2318 8.56615C25.6027 8.35365 25.986 7.74949 25.9152 6.12032L25.9527 6.05364C25.836 5.79947 25.7319 5.71617 25.4569 6.02867C25.611 5.5745 25.3193 5.92032 25.3318 5.75782L25.3485 5.72451C25.0985 6.02451 25.2235 5.34533 24.9902 5.612C25.0069 5.57867 25.0569 5.45367 25.086 5.45783C24.9819 5.48283 24.8319 5.54114 24.9277 5.27864C24.7069 5.27448 24.4777 5.04951 24.1985 5.42035L24.2318 5.3495C24.0568 5.60783 24.1235 5.3578 23.9902 5.47447C23.9985 5.43697 23.9985 5.42033 24.0069 5.40367C23.8277 5.65367 23.7652 5.36617 23.661 5.462L23.7193 5.28699L23.5485 5.2703L23.5944 5.32864C23.4027 5.80364 23.586 4.98284 23.361 5.25784C23.2777 5.16201 22.7985 6.18699 22.7735 5.91199C22.6443 6.12032 22.9444 5.56199 22.8069 5.70782C22.8902 5.45366 22.8985 5.562 22.9485 5.35367C22.8319 5.44533 22.911 5.05366 22.761 5.19116L22.8235 4.99534C22.5777 5.31201 22.6777 4.65782 22.4819 4.97449C22.3027 5.09532 22.5902 4.36198 22.3319 4.70364L22.3693 4.42034C22.3277 4.35784 22.2193 4.73284 22.1985 4.58284C22.2568 4.41618 22.161 4.42035 22.2527 4.27451C22.1943 3.96618 21.8402 4.55366 21.7943 4.0495C21.6485 4.362 21.6152 4.13701 21.5069 4.37451C21.5485 4.22868 21.3235 4.29113 21.5277 4.01613C21.5443 3.9953 21.561 4.00367 21.5402 4.05784L21.6152 3.86614C21.6194 3.46197 21.3527 4.0078 21.2652 3.91614C21.2777 3.99114 21.3235 3.98701 21.2568 4.11201L21.1652 4.05367L21.236 3.89533L21.1152 3.75368L21.0735 3.96201C21.0319 3.83701 21.111 3.48284 20.9402 3.74534C20.8527 3.89534 20.9277 4.04114 20.8319 4.07864C20.7777 3.90781 20.6943 3.65781 20.586 3.56198C20.5318 3.79531 20.4985 3.77447 20.4527 3.81197L20.5069 3.61198C20.2944 3.84948 20.586 3.1578 20.3902 3.34113L20.4402 3.20365L20.286 3.61198C20.0527 3.97448 20.3402 3.17866 20.0527 3.68283C20.1152 3.662 19.9527 4.12864 19.911 4.02447L19.9819 3.83699C19.936 3.86616 19.8985 3.94534 19.886 3.8995C19.936 3.7995 19.9777 3.62034 19.9152 3.64117L20.0193 3.40782L19.8194 3.737C19.8027 3.50783 19.6068 3.73698 19.6527 3.45364C19.6527 3.45364 19.5235 3.27448 19.4069 3.56198C19.4902 3.38698 19.4193 3.29113 19.5027 3.07863C19.4027 3.27447 19.2318 3.41201 19.2402 3.17868L19.2569 3.15783C19.1277 2.87866 18.8527 3.387 18.7568 3.06617C18.7027 3.2995 18.6485 3.14948 18.5944 3.45364C18.3485 3.70364 18.4318 2.76615 18.136 3.67449C18.0443 3.70365 18.0985 3.43284 18.0694 3.37867L18.0985 3.33284C17.9318 3.37034 17.886 3.37033 17.7818 3.32033C17.7068 3.39533 17.5943 3.82451 17.5193 3.69534C17.5902 3.53284 17.5443 3.55368 17.5068 3.54535C17.536 3.52451 17.561 3.46201 17.5402 3.33701C17.5194 3.38701 17.5027 3.42035 17.486 3.44118C17.486 3.42868 17.486 3.41614 17.4944 3.39947C17.4194 3.44531 17.4152 3.4995 17.4402 3.53284C17.4319 3.55784 17.4277 3.59117 17.4235 3.64117C17.411 3.40367 17.2443 3.61616 17.3027 3.32033C17.1027 3.34533 16.8985 3.61618 16.7235 3.69951C16.7402 3.54535 16.8069 3.41616 16.8652 3.37033L16.7443 3.39947C16.7943 3.18281 16.836 3.28698 16.8777 3.25365C16.8277 2.87032 16.5319 3.54531 16.4485 3.19114L16.3777 3.35782V3.32867C16.3568 3.42034 16.2943 3.53698 16.2652 3.56198C16.286 3.36615 16.361 3.12451 16.286 3.12034C16.2652 2.92451 16.0943 3.17449 15.9985 3.26199C16.0318 3.30366 15.9985 3.40366 15.9652 3.47033C15.9277 3.47033 15.9443 3.27448 15.8985 3.34948L15.9485 3.09114C15.911 3.33698 15.7944 3.33284 15.761 3.43284C15.7777 3.23701 15.8527 3.28281 15.8943 3.14114C15.736 3.13281 15.8152 3.14118 15.661 3.12868C15.5402 3.30368 15.6277 3.37451 15.5402 3.59118C15.461 3.62868 15.3527 3.79115 15.3027 3.62032L15.2818 3.85368C15.1152 4.00368 15.0402 3.96198 14.9944 3.71614C14.3194 4.55364 14.1569 5.18282 14.1485 5.59949C14.1444 6.01615 14.2943 6.22449 14.2943 6.22449C14.5693 6.79949 14.886 6.17451 15.3693 6.09118L15.386 6.07032Z" fill="#20BB65"/>
<path d="M35.1627 10.8995L35.1377 10.9995C35.1627 10.962 35.1752 10.9245 35.1627 10.8995Z" fill="#20BB65"/>
<path d="M41.6035 15.562C41.6035 15.562 41.616 15.5536 41.6243 15.5494C41.616 15.5494 41.6077 15.5578 41.6035 15.562Z" fill="#20BB65"/>
<path d="M34.3909 14.2872C34.3909 14.2872 34.3785 14.2956 34.3701 14.3039L34.3909 14.2872Z" fill="#20BB65"/>
<path d="M33.254 13.2494C33.5332 13.5619 33.3748 13.9995 33.8206 14.0661C33.9665 14.2036 34.1956 14.2328 34.3873 14.2911C34.6581 14.0453 34.5998 14.4286 34.854 14.2411L34.779 14.4286C34.8665 14.3661 34.9415 14.3328 34.9123 14.4453L34.879 14.4911C35.0082 14.3953 35.0123 14.5078 35.0748 14.4578L35.0415 14.5036L35.1123 14.5203L35.054 14.5828C35.2248 14.5036 35.3123 14.5536 35.3457 14.6619L35.4748 14.4578C35.4748 14.787 35.8207 14.4161 35.779 14.7745L35.7415 14.8203C36.2873 14.4203 35.7707 15.3703 36.2998 15.0078C36.2332 15.0536 36.2373 15.1161 36.1998 15.1619C36.3248 15.1619 36.4332 15.1994 36.7123 14.8161C36.7707 14.8661 36.6748 14.9744 36.5748 15.1286C36.6956 14.9578 36.7998 14.9286 36.854 14.9536L36.7831 15.0036L36.9623 15.0453L37.1665 14.7078C37.1707 14.8536 36.904 15.1078 37.029 15.0828L37.2207 14.8203C37.2832 14.9453 37.0498 15.3869 37.004 15.6494C37.3123 16.0494 38.2415 15.7161 38.254 16.4536L38.1207 16.6578C37.9082 16.9453 38.5456 16.3203 38.354 16.5911L38.4956 16.4953C38.4665 16.5536 38.4498 16.6286 38.379 16.6744C38.4082 16.7161 38.4457 16.6745 38.5415 16.6078L38.4456 16.8161C38.4915 17.0703 38.8873 16.8369 38.9915 17.0369C38.8957 17.5453 39.5165 17.512 39.879 17.5036C40.5165 17.3411 39.9165 18.7036 40.604 18.4953C40.579 18.5411 40.679 18.4786 40.7082 18.4453L40.9373 18.7161C40.9373 18.7161 41.229 19.0245 41.654 18.9578C42.0748 18.887 42.6456 18.4536 43.1415 16.8994L43.1998 16.8494C43.179 16.5703 43.1082 16.4536 42.7415 16.6536C43.0457 16.2786 42.6498 16.5078 42.7165 16.3578L42.7457 16.3328C42.4082 16.5286 42.7582 15.9328 42.4498 16.1036C42.479 16.0786 42.5665 15.9786 42.5915 15.9911C42.4873 15.9786 42.3248 15.9828 42.504 15.7661C42.2998 15.687 42.1623 15.3953 41.7707 15.6494L41.829 15.5953C41.5748 15.7744 41.7248 15.5661 41.5623 15.6286C41.5832 15.5995 41.5915 15.5786 41.5998 15.5703C41.3457 15.7453 41.3873 15.4495 41.254 15.5036L41.3706 15.3578L41.2165 15.2869L41.2373 15.3578C40.8957 15.737 41.3457 15.0328 41.0415 15.212C40.9957 15.0911 40.1956 15.8911 40.2665 15.6245C40.0748 15.7745 40.5498 15.3536 40.3706 15.4453C40.5373 15.2369 40.504 15.3411 40.6248 15.1619C40.4832 15.2078 40.6957 14.8661 40.504 14.9453L40.629 14.7828C40.2915 14.9953 40.6082 14.4161 40.3123 14.6453C40.0998 14.6953 40.6248 14.1078 40.2623 14.3369L40.3915 14.0828C40.3707 14.0078 40.1456 14.3244 40.1748 14.1786C40.2873 14.0411 40.1956 14.0161 40.329 13.9078C40.379 13.5953 39.8457 14.0286 39.9748 13.537C39.729 13.7828 39.7748 13.5578 39.5956 13.7453C39.6831 13.6245 39.4498 13.6036 39.7373 13.4119C39.7623 13.3953 39.7707 13.4119 39.7373 13.4578L39.8707 13.3036C40.0123 12.9286 39.5748 13.3453 39.5248 13.2328C39.5123 13.3078 39.5581 13.3203 39.4498 13.4119L39.3831 13.3286L39.504 13.2036L39.4373 13.0286L39.329 13.212C39.3331 13.0786 39.529 12.7745 39.279 12.962C39.1456 13.0745 39.1665 13.2328 39.0623 13.2411C39.0665 13.0619 39.0748 12.7994 39.0082 12.6703C38.8748 12.8703 38.854 12.8411 38.7957 12.862L38.9165 12.6911C38.6331 12.8411 39.1457 12.2911 38.8998 12.3953L38.9957 12.287L38.7123 12.6161C38.3706 12.8744 38.9123 12.2286 38.4707 12.6036C38.5332 12.6036 38.2248 12.9911 38.2207 12.8786L38.3498 12.7244C38.2956 12.7369 38.2373 12.7995 38.2415 12.7495C38.3206 12.6745 38.4207 12.5203 38.3582 12.5161L38.5332 12.3328L38.2332 12.5744C38.2915 12.3536 38.0332 12.4994 38.1707 12.2536C38.1707 12.2536 38.1123 12.0411 37.8998 12.2703C38.0373 12.1328 38.004 12.0203 38.154 11.8494C37.9915 11.9994 37.7831 12.0703 37.8748 11.8494L37.8998 11.8328C37.8748 11.5286 37.4415 11.9119 37.4623 11.5744C37.3331 11.7786 37.3332 11.6161 37.1748 11.8828C36.8582 12.0328 37.254 11.1828 36.6707 11.9328C36.5748 11.9328 36.7165 11.6953 36.7082 11.6286L36.754 11.5995C36.5832 11.5786 36.5415 11.5619 36.4623 11.4828C36.3623 11.5286 36.1123 11.8911 36.0873 11.7495C36.2123 11.6203 36.1582 11.6245 36.129 11.6036C36.1623 11.5953 36.2082 11.5453 36.229 11.4203C36.1915 11.4619 36.1665 11.4828 36.1415 11.5036C36.1498 11.4911 36.154 11.4828 36.1623 11.4661C36.0748 11.4828 36.054 11.5369 36.0665 11.5703C36.0498 11.5911 36.0332 11.6203 36.0165 11.6661C36.0873 11.4411 35.854 11.5786 36.0165 11.3244C35.8207 11.2786 35.5373 11.4661 35.3415 11.4828C35.4123 11.3411 35.5165 11.2453 35.5873 11.2203L35.4623 11.2078C35.5832 11.0203 35.5873 11.1328 35.6373 11.1161C35.7206 10.7411 35.2123 11.2744 35.2582 10.9119L35.1373 11.0453L35.1457 11.0161C35.0957 11.0953 34.9998 11.1828 34.9623 11.1995C35.0456 11.0245 35.204 10.8203 35.129 10.7911C35.179 10.5994 34.9331 10.7786 34.8081 10.8245C34.829 10.8745 34.7581 10.9578 34.7081 11.0078C34.6706 10.9953 34.754 10.8161 34.6873 10.8703L34.8207 10.6453C34.704 10.8619 34.5957 10.8203 34.5248 10.9036C34.6082 10.7286 34.6623 10.7911 34.7498 10.6745C34.604 10.612 34.679 10.6453 34.5332 10.5828C34.3582 10.7078 34.4165 10.8036 34.2623 10.9786C34.1748 10.9828 34.0206 11.1036 34.029 10.9245L33.929 11.137C33.7206 11.2203 33.6665 11.1578 33.7081 10.9078C32.7915 11.4661 32.4207 11.9995 32.2748 12.3911C32.129 12.7828 32.1998 13.0286 32.1998 13.0286C32.2623 13.6619 32.7748 13.1828 33.2582 13.2661L33.254 13.2494Z" fill="#20BB65"/>
<path d="M50.1199 24.6329L50.0615 24.7162C50.099 24.6912 50.124 24.6579 50.1199 24.6329Z" fill="#20BB65"/>
<path d="M48.1793 27.5162C48.1793 27.5162 48.1626 27.5162 48.1543 27.5246L48.1793 27.5162Z" fill="#20BB65"/>
<path d="M47.4955 26.1412C47.6413 26.5287 47.3413 26.8829 47.7329 27.1037C47.8163 27.2829 48.0246 27.3912 48.1788 27.5162C48.5205 27.387 48.3288 27.7204 48.633 27.6371L48.4954 27.7871C48.5996 27.7579 48.6788 27.7579 48.6121 27.8496L48.5621 27.8829C48.7163 27.8412 48.6788 27.9454 48.7579 27.9245L48.7079 27.9579L48.7663 27.9996L48.6913 28.037C48.8788 28.0245 48.9454 28.1037 48.9329 28.2162L49.1288 28.0746C49.0121 28.3829 49.4663 28.1579 49.2954 28.4787L49.2454 28.5079C49.8996 28.3329 49.0704 29.0329 49.6996 28.8829C49.6204 28.8996 49.6038 28.9621 49.5538 28.9912C49.6663 29.0371 49.758 29.1079 50.158 28.8537C50.1955 28.9204 50.0663 28.9871 49.9204 29.0954C50.0954 28.9829 50.2038 28.9912 50.2455 29.0329L50.1621 29.0537L50.3121 29.1579L50.6246 28.9162C50.5788 29.0537 50.233 29.1954 50.358 29.2162L50.6329 29.0412C50.6454 29.1787 50.2704 29.5079 50.1288 29.7329C50.2704 30.2204 51.2579 30.2412 51.0038 30.9329L50.8038 31.0746C50.4996 31.2621 51.3246 30.912 51.0455 31.0995L51.2121 31.0621C51.1663 31.1079 51.1205 31.1704 51.0371 31.1871C51.0496 31.2371 51.0996 31.2079 51.2121 31.1871L51.0455 31.3454C50.9955 31.5996 51.4496 31.5246 51.4746 31.7496C51.2038 32.1871 51.7913 32.3829 52.133 32.5038C52.7871 32.5829 51.7371 33.6371 52.4538 33.6912C52.4163 33.7246 52.5288 33.7037 52.5663 33.6829L52.6829 34.0204C52.6829 34.0204 52.8454 34.4162 53.2621 34.5037C53.6788 34.5912 54.3704 34.3871 55.3913 33.1204L55.4663 33.0954C55.5455 32.8287 55.5246 32.6954 55.1121 32.7496C55.5288 32.5121 55.0788 32.5787 55.1955 32.4662L55.2329 32.4537C54.8496 32.512 55.3871 32.0871 55.0413 32.1329C55.0788 32.1204 55.1954 32.0621 55.2163 32.0829C55.1204 32.0329 54.9704 31.9787 55.2163 31.8412C55.0538 31.6912 55.033 31.3704 54.5746 31.4662L54.6454 31.4371C54.3454 31.5162 54.5579 31.3704 54.3829 31.3704C54.4121 31.3495 54.4246 31.3329 54.4413 31.3287C54.1413 31.3996 54.2829 31.1412 54.1413 31.1412L54.2996 31.0495L54.1829 30.9287V31.0037C53.7204 31.2329 54.3996 30.737 54.0496 30.7954C54.0496 30.6662 53.0163 31.1204 53.1788 30.8995C52.9455 30.9704 53.5413 30.7496 53.3413 30.7704C53.5704 30.6371 53.5038 30.7204 53.6788 30.5996C53.5288 30.5912 53.8496 30.3496 53.6455 30.3537L53.8246 30.2454C53.4329 30.3204 53.9371 29.8954 53.5788 30.0038C53.3621 29.9746 54.0663 29.6162 53.6455 29.6995L53.858 29.5121C53.8663 29.4371 53.5413 29.6496 53.6246 29.5246C53.7788 29.4371 53.7038 29.3787 53.8663 29.3287C54.0246 29.0579 53.3704 29.2662 53.6704 28.8537C53.3538 28.9954 53.4788 28.8038 53.2413 28.9079C53.3663 28.8246 53.1579 28.7246 53.4954 28.6496C53.5246 28.6454 53.5288 28.6621 53.4788 28.6912L53.6579 28.5954C53.9288 28.2954 53.3663 28.5287 53.3579 28.4037C53.3163 28.4662 53.358 28.4954 53.2205 28.5454L53.1871 28.4413L53.3454 28.3704V28.1829L53.1788 28.3121C53.233 28.1912 53.5246 27.9746 53.2205 28.0621C53.058 28.1162 53.0163 28.2745 52.9163 28.2412C52.9871 28.0787 53.0871 27.8329 53.0705 27.6871C52.8746 27.8246 52.8621 27.7912 52.8038 27.7871L52.9746 27.6704C52.6579 27.7079 53.333 27.3829 53.0621 27.3871L53.1913 27.3204L52.808 27.5246C52.3955 27.6412 53.133 27.2329 52.5871 27.4246C52.6455 27.4496 52.2163 27.6954 52.2579 27.5912L52.433 27.4954C52.3788 27.4871 52.2996 27.5246 52.3204 27.4787C52.4246 27.4371 52.5704 27.3287 52.5121 27.3037L52.7413 27.1954L52.3746 27.3121C52.5121 27.1287 52.2163 27.1704 52.433 26.987C52.433 26.987 52.4538 26.7662 52.1746 26.9079C52.3538 26.8287 52.3621 26.7121 52.5663 26.6079C52.3621 26.6912 52.1413 26.6829 52.3038 26.5079L52.333 26.4996C52.4205 26.2037 51.8788 26.4079 52.0163 26.0995C51.8205 26.2412 51.8788 26.0912 51.6371 26.2871C51.2871 26.3121 51.9663 25.6621 51.1455 26.1496C51.058 26.1121 51.2746 25.9412 51.2871 25.8787L51.3413 25.8662C51.1913 25.7871 51.1579 25.7537 51.1079 25.6496C50.9996 25.6579 50.633 25.9037 50.6621 25.7621C50.8246 25.6871 50.7746 25.6704 50.7496 25.6412C50.7871 25.6412 50.8413 25.6121 50.9079 25.5037C50.8579 25.5287 50.8246 25.5412 50.7954 25.5496C50.8079 25.5412 50.8121 25.5329 50.8288 25.5246C50.7413 25.5079 50.7038 25.5495 50.6996 25.587C50.6788 25.5995 50.6496 25.6246 50.6163 25.6579C50.7621 25.4746 50.4954 25.5204 50.7371 25.3371C50.5704 25.2246 50.2371 25.2954 50.0496 25.2412C50.1663 25.1371 50.2954 25.0829 50.3746 25.0829L50.2621 25.0287C50.4413 24.8954 50.4038 25.0038 50.4621 25.0038C50.6746 24.6829 50.0079 24.9954 50.1829 24.6746L50.0204 24.7537L50.0371 24.7287C49.9621 24.7871 49.8413 24.8329 49.8038 24.8329C49.9454 24.6996 50.1621 24.5662 50.108 24.5121C50.2205 24.3496 49.9288 24.4288 49.7955 24.4288C49.7955 24.4829 49.6996 24.5371 49.6371 24.5621C49.608 24.5371 49.7496 24.3996 49.6663 24.4288L49.8746 24.2662C49.6871 24.4287 49.5996 24.3496 49.5079 24.4037C49.6496 24.2662 49.6788 24.3496 49.7996 24.2704C49.6871 24.1621 49.7413 24.2162 49.6288 24.1079C49.4205 24.1621 49.4413 24.2704 49.2329 24.3788C49.1496 24.3538 48.9621 24.4079 49.0371 24.2454L48.8704 24.4079C48.6454 24.4079 48.6163 24.3329 48.7455 24.1163C47.6871 24.3079 47.1538 24.6787 46.8746 24.9912C46.5955 25.3037 46.5788 25.5579 46.5788 25.5579C46.4079 26.1704 47.0579 25.9037 47.4788 26.1579L47.4955 26.1412Z" fill="#20BB65"/>
<path d="M59.1625 42.8077L59.0791 42.8661C59.1208 42.8536 59.1583 42.8327 59.1625 42.8077Z" fill="#20BB65"/>
<path d="M60.9199 50.5576C60.9199 50.5576 60.9324 50.5576 60.9408 50.5576C60.9324 50.5576 60.9241 50.5535 60.9199 50.5576Z" fill="#20BB65"/>
<path d="M56.1745 43.3076C56.1745 43.7243 55.7703 43.9493 56.062 44.2951C56.0787 44.4951 56.237 44.666 56.337 44.8368C56.7037 44.8326 56.4079 45.0785 56.7204 45.1076L56.537 45.1993C56.6453 45.2076 56.7203 45.2326 56.6245 45.2993L56.5662 45.3118C56.7287 45.3285 56.6537 45.4118 56.737 45.4201L56.6787 45.4326L56.7204 45.4909L56.637 45.4993C56.8162 45.5534 56.8495 45.6493 56.8037 45.7534L57.037 45.6868C56.8203 45.9368 57.3245 45.8826 57.0537 46.1243L56.9953 46.1368C57.6662 46.1951 56.6537 46.5701 57.2912 46.6451C57.212 46.6368 57.1745 46.6868 57.1162 46.6951C57.2078 46.7784 57.2662 46.8785 57.7287 46.7743C57.7412 46.8493 57.5995 46.866 57.4203 46.916C57.6245 46.8701 57.7203 46.916 57.7453 46.9701L57.662 46.9618L57.7661 47.1118L58.1412 46.9951C58.0495 47.1076 57.6787 47.1201 57.7912 47.1868L58.1078 47.1159C58.0703 47.2534 57.6079 47.4285 57.3954 47.5951C57.362 48.1035 58.2829 48.4618 57.8079 49.0243L57.5703 49.0909C57.2203 49.1659 58.112 49.1159 57.7912 49.1951L57.962 49.2201C57.9037 49.2451 57.8412 49.2909 57.7579 49.2784C57.7537 49.3284 57.812 49.3201 57.9245 49.3368L57.7161 49.4285C57.5786 49.6493 58.0328 49.7368 57.9828 49.9576C57.5787 50.2743 58.062 50.6618 58.3411 50.8909C58.9286 51.1868 57.5786 51.8243 58.237 52.1159C58.187 52.1368 58.3037 52.1534 58.3453 52.1451V52.4993C58.3453 52.4993 58.3578 52.9243 58.7203 53.1534C59.0828 53.3743 59.7995 53.4243 61.1912 52.5784H61.2703C61.437 52.3534 61.462 52.2201 61.0537 52.1326C61.5287 52.0493 61.0828 51.9618 61.2287 51.8951H61.2662C60.8828 51.8201 61.537 51.5993 61.1954 51.5243C61.2329 51.5243 61.3662 51.5076 61.3745 51.5368C61.3037 51.4576 61.1787 51.3534 61.4579 51.3118C61.3579 51.1159 61.4454 50.8076 60.9829 50.7409H61.062C60.7537 50.7076 61.0037 50.6493 60.837 50.5868C60.8745 50.5784 60.8912 50.566 60.9037 50.566C60.5953 50.5285 60.8203 50.3368 60.687 50.2909L60.8703 50.2576L60.8037 50.1035L60.7745 50.1701C60.2662 50.2284 61.0704 49.9951 60.7245 49.9326C60.7704 49.8118 59.6412 49.8868 59.8703 49.7326C59.6245 49.7201 60.262 49.7159 60.0662 49.6659C60.3287 49.6201 60.237 49.6743 60.4412 49.6201C60.3037 49.5618 60.687 49.4451 60.4953 49.3743L60.6995 49.3326C60.3037 49.2701 60.9245 49.0451 60.5537 49.0201C60.362 48.9201 61.1412 48.8201 60.7204 48.7576L60.987 48.6534C61.0204 48.5868 60.6412 48.6743 60.762 48.5826C60.937 48.5535 60.887 48.4743 61.0578 48.4826C61.2995 48.2826 60.6162 48.2535 61.0329 47.9701C60.687 47.9951 60.8703 47.8576 60.6078 47.8743C60.7537 47.8409 60.5912 47.6743 60.9329 47.7201C60.962 47.7243 60.9578 47.741 60.9037 47.7535L61.1078 47.7284C61.462 47.5409 60.8578 47.566 60.8953 47.4451C60.837 47.491 60.862 47.5326 60.7204 47.5284V47.4201L60.8995 47.4076L60.9662 47.2326L60.762 47.2993C60.8537 47.2034 61.1995 47.0993 60.887 47.0785C60.7162 47.0785 60.6203 47.2076 60.5412 47.1451C60.662 47.0159 60.8412 46.8201 60.8745 46.6784C60.6453 46.7409 60.6453 46.7034 60.5912 46.6784L60.7912 46.6284C60.4787 46.5576 61.2245 46.4785 60.9703 46.3951L61.1162 46.3743L60.687 46.4326C60.2578 46.4034 61.0912 46.2743 60.5162 46.2618C60.562 46.3076 60.0745 46.3868 60.1495 46.3035L60.3495 46.2743C60.2995 46.2493 60.2162 46.2534 60.2495 46.2201C60.3578 46.2201 60.537 46.1659 60.4912 46.1201L60.7453 46.0993L60.362 46.0826C60.5537 45.9576 60.262 45.8951 60.5286 45.7993C60.5286 45.7993 60.6245 45.5993 60.3162 45.6326C60.512 45.6201 60.562 45.5118 60.787 45.4868C60.5661 45.4951 60.362 45.4076 60.5745 45.3035H60.6037C60.787 45.0618 60.2078 45.0618 60.4453 44.8243C60.212 44.8909 60.3203 44.7701 60.0245 44.8659C59.687 44.7701 60.5495 44.391 59.612 44.5701C59.5412 44.5035 59.8037 44.4201 59.8412 44.366H59.8954C59.7829 44.2451 59.762 44.2034 59.7537 44.0868C59.6495 44.0576 59.2203 44.1618 59.2953 44.0368C59.4745 44.0201 59.4329 43.991 59.4204 43.9535C59.4537 43.9701 59.5162 43.9618 59.6162 43.8826C59.562 43.8909 59.5287 43.8868 59.4953 43.8826C59.5078 43.8826 59.5203 43.8743 59.537 43.8701C59.462 43.8243 59.412 43.8493 59.3953 43.8868C59.3703 43.8909 59.337 43.9034 59.2912 43.9243C59.4912 43.8034 59.2287 43.7534 59.5162 43.6659C59.3995 43.5034 59.062 43.4576 58.9079 43.3368C59.0537 43.2785 59.1954 43.2743 59.2662 43.3034L59.1787 43.2118C59.3953 43.1493 59.3204 43.2368 59.3745 43.2576C59.6829 43.0284 58.9536 43.0951 59.2245 42.8535L59.0453 42.8701L59.0703 42.8535C58.9828 42.8785 58.8495 42.8826 58.812 42.8701C58.9912 42.7951 59.2412 42.7451 59.2078 42.6743C59.3703 42.5618 59.0703 42.5326 58.9453 42.4868C58.9245 42.5368 58.8204 42.5534 58.7495 42.5576C58.7329 42.5243 58.912 42.4451 58.8245 42.441L59.0745 42.3618C58.8412 42.4493 58.7912 42.3409 58.6828 42.3618C58.862 42.2826 58.862 42.3701 59.0037 42.3368C58.937 42.1951 58.9704 42.266 58.8995 42.1243C58.687 42.1035 58.6662 42.2118 58.437 42.241C58.3662 42.1868 58.1703 42.1743 58.2995 42.0493L58.087 42.1451C57.8745 42.0701 57.8745 41.9868 58.0704 41.8284C57.012 41.6368 56.3828 41.7951 56.012 41.9909C55.6412 42.1868 55.537 42.4201 55.537 42.4201C55.162 42.9368 55.8662 42.9159 56.1745 43.2993V43.3076Z" fill="#20BB65"/>
<path d="M61.433 62.9743L61.333 62.9993C61.3788 62.9993 61.4163 62.9993 61.433 62.9743Z" fill="#20BB65"/>
<path d="M60.3867 70.8661C60.3867 70.8661 60.3992 70.8744 60.4076 70.8786C60.3992 70.8703 60.3951 70.8703 60.3867 70.8661Z" fill="#20BB65"/>
<path d="M58.0875 63.9121C58.0875 63.9121 58.075 63.9038 58.0625 63.8996L58.0875 63.9121Z" fill="#20BB65"/>
<path d="M58.4618 62.4201C58.3201 62.8118 57.8618 62.8868 58.016 63.3077C57.966 63.4993 58.0535 63.716 58.091 63.9118C58.4326 64.0326 58.0743 64.1618 58.3576 64.2993L58.1535 64.3243C58.2493 64.3702 58.316 64.4201 58.2035 64.4493L58.1451 64.441C58.291 64.5118 58.1952 64.566 58.266 64.5993L58.2076 64.591L58.2285 64.6618L58.1451 64.641C58.2951 64.7535 58.2951 64.8535 58.2118 64.9327L58.4535 64.9493C58.166 65.1077 58.6535 65.2327 58.316 65.366L58.2576 65.3577C58.866 65.6452 57.7868 65.6452 58.3618 65.9368C58.291 65.8993 58.2368 65.9368 58.1785 65.9243C58.2368 66.0327 58.2576 66.1451 58.7285 66.2076C58.7118 66.2826 58.5743 66.2493 58.391 66.2368C58.5993 66.2618 58.6743 66.341 58.6785 66.3993L58.6035 66.3618L58.6535 66.5368L59.0451 66.5577C58.9201 66.6327 58.566 66.516 58.6493 66.6118L58.9701 66.6535C58.891 66.7702 58.391 66.7702 58.1368 66.8535C57.9326 67.316 58.666 67.9743 58.0243 68.3327L57.7785 68.3118C57.4243 68.2577 58.2785 68.5285 57.9493 68.4868L58.0993 68.566C58.0326 68.566 57.9618 68.5868 57.8868 68.5493C57.866 68.5951 57.9202 68.6076 58.0202 68.6618L57.791 68.6743C57.5868 68.8327 57.9785 69.0743 57.8535 69.2618C57.3618 69.416 57.6827 69.9493 57.8618 70.2618C58.3035 70.7452 56.8243 70.8618 57.3243 71.366C57.2701 71.366 57.3743 71.4243 57.416 71.4327L57.2827 71.7618C57.2827 71.7618 57.1493 72.166 57.4118 72.5076C57.6743 72.8451 58.3285 73.1452 59.9243 72.8493L59.9952 72.8785C60.2285 72.7285 60.2993 72.6118 59.9493 72.3827C60.4202 72.4743 60.0368 72.2327 60.1993 72.2243L60.2368 72.2368C59.9076 72.0327 60.5952 72.0577 60.3035 71.866C60.341 71.8785 60.466 71.9118 60.4702 71.941C60.4327 71.841 60.3577 71.7035 60.6285 71.7577C60.6077 71.5368 60.791 71.2785 60.3868 71.0535L60.4618 71.0785C60.1827 70.941 60.441 70.9743 60.3077 70.8576C60.3452 70.8576 60.366 70.8577 60.3785 70.8618C60.1035 70.7202 60.3785 70.616 60.2701 70.5243L60.4535 70.5577L60.4451 70.3868L60.3951 70.4368C59.8993 70.316 60.7326 70.3785 60.4326 70.1952C60.516 70.0993 59.4368 69.7701 59.7035 69.7076C59.4785 69.6076 60.0743 69.8285 59.9118 69.7118C60.1743 69.7576 60.0701 69.7826 60.2826 69.7993C60.1743 69.6951 60.5743 69.7201 60.416 69.591L60.6202 69.6243C60.2702 69.4285 60.9326 69.4326 60.591 69.2826C60.4451 69.1201 61.2118 69.3035 60.8368 69.0952H61.1243C61.1785 69.0368 60.7952 68.9868 60.9368 68.9452C61.1118 68.9785 61.091 68.8868 61.2493 68.9535C61.5452 68.8493 60.916 68.5868 61.4077 68.466C61.0743 68.366 61.291 68.2993 61.0452 68.2285C61.1952 68.2452 61.0993 68.0326 61.4035 68.1951C61.4285 68.2076 61.4201 68.2243 61.3618 68.216L61.5618 68.2618C61.9577 68.2077 61.3868 68.0243 61.4618 67.9202C61.391 67.941 61.3993 67.991 61.266 67.9368L61.3076 67.8368L61.4743 67.8826L61.5951 67.7452L61.3826 67.7368C61.5035 67.6785 61.8618 67.7035 61.5785 67.5743C61.416 67.5118 61.2868 67.6035 61.2326 67.516C61.391 67.4368 61.6285 67.316 61.7118 67.1951C61.4743 67.1743 61.4868 67.141 61.4452 67.0993L61.6493 67.1243C61.3826 66.9493 62.1076 67.1368 61.8993 66.966L62.041 66.9993L61.616 66.9035C61.2243 66.7243 62.0535 66.8951 61.5118 66.6826C61.541 66.741 61.0535 66.6493 61.1535 66.5952L61.3493 66.6368C61.3118 66.5951 61.2326 66.5702 61.2743 66.5535C61.3785 66.591 61.5618 66.6035 61.5368 66.5452L61.7785 66.6118L61.4285 66.4618C61.6493 66.4118 61.3993 66.2535 61.6826 66.2535C61.6826 66.2535 61.841 66.0993 61.5368 66.0243C61.7243 66.0827 61.8077 65.9951 62.0285 66.0493C61.816 65.9785 61.6576 65.8285 61.891 65.8035L61.916 65.816C62.1743 65.6493 61.6285 65.4493 61.9326 65.3077C61.691 65.291 61.8326 65.2118 61.5243 65.2035C61.241 64.9952 62.1785 64.941 61.241 64.7827C61.1993 64.6952 61.4743 64.7077 61.5243 64.6702L61.5743 64.6951C61.5118 64.5368 61.5076 64.491 61.5368 64.3785C61.4493 64.3118 61.0118 64.266 61.1243 64.1743C61.2951 64.2201 61.266 64.1743 61.2701 64.141C61.2951 64.166 61.3576 64.1785 61.4826 64.141C61.4285 64.1285 61.3951 64.116 61.3701 64.1035C61.3826 64.1035 61.3951 64.1035 61.4118 64.1035C61.3535 64.0368 61.2993 64.041 61.2743 64.0701C61.2493 64.0701 61.2118 64.0701 61.1618 64.0701C61.3951 64.0243 61.1618 63.8868 61.4618 63.9035C61.4077 63.7077 61.1076 63.5493 60.9993 63.3868C61.1576 63.3785 61.291 63.4285 61.3452 63.4785L61.2952 63.3618C61.516 63.3785 61.4202 63.4368 61.4618 63.4743C61.8327 63.366 61.1243 63.1743 61.4618 63.041L61.2868 62.9952L61.316 62.9868C61.2243 62.9826 61.0993 62.9368 61.0701 62.9118C61.266 62.9035 61.516 62.941 61.5118 62.8618C61.7035 62.8118 61.4285 62.6827 61.3285 62.5952C61.291 62.6368 61.1868 62.616 61.1201 62.5952C61.1201 62.5577 61.3118 62.5451 61.2285 62.5118L61.491 62.5243C61.2451 62.5243 61.2285 62.4077 61.1243 62.3868C61.3201 62.3743 61.2868 62.4577 61.4326 62.4743C61.416 62.3202 61.4243 62.3952 61.4077 62.241C61.216 62.1493 61.1577 62.241 60.9327 62.191C60.8868 62.116 60.7076 62.0368 60.866 61.9618L60.6326 61.9785C60.4576 61.8368 60.491 61.7576 60.7285 61.6743C59.7993 61.1326 59.1535 61.066 58.741 61.1243C58.3285 61.1827 58.1451 61.3618 58.1451 61.3618C57.616 61.716 58.2827 61.941 58.441 62.4035L58.4618 62.4201Z" fill="#20BB65"/>
<path d="M56.2875 82.6368L56.1875 82.6202C56.2292 82.6411 56.2667 82.6493 56.2875 82.6368Z" fill="#20BB65"/>
<path d="M52.0039 89.4326C52.0039 89.4326 52.0123 89.4451 52.0164 89.4535C52.0164 89.4451 52.0081 89.4368 52.0039 89.4326Z" fill="#20BB65"/>
<path d="M52.8458 82.1784C52.8458 82.1784 52.8333 82.1659 52.8291 82.1576L52.8458 82.1784Z" fill="#20BB65"/>
<path d="M53.7663 80.9702C53.4871 81.2744 53.033 81.1577 53.0163 81.6036C52.8913 81.7577 52.8871 81.987 52.8496 82.1786C53.1163 82.4286 52.733 82.3995 52.9413 82.6328L52.7455 82.5703C52.8163 82.6494 52.8538 82.7203 52.7455 82.7036L52.6955 82.6744C52.7996 82.7953 52.6955 82.8078 52.7455 82.8661L52.6955 82.837L52.6871 82.9078L52.6205 82.8577C52.7163 83.0202 52.6746 83.112 52.5663 83.1495L52.7788 83.2619C52.4496 83.2869 52.8496 83.5994 52.4871 83.5827L52.4371 83.5495C52.8788 84.062 51.8913 83.6119 52.2955 84.1119C52.2455 84.0494 52.183 84.0578 52.133 84.0244C52.1413 84.1453 52.1163 84.2578 52.5163 84.5078C52.4705 84.5703 52.3579 84.4828 52.1954 84.3912C52.3746 84.4995 52.4121 84.5994 52.3913 84.6578L52.3371 84.5911L52.308 84.7703L52.658 84.9536C52.5163 84.9703 52.2413 84.7161 52.2746 84.8411L52.5497 85.0162C52.4288 85.087 51.9746 84.8828 51.7121 84.8494C51.3371 85.1744 51.7247 86.0786 50.9913 86.1244L50.7788 85.9994C50.483 85.7994 51.1371 86.4078 50.858 86.2286L50.958 86.3661C50.8955 86.3411 50.8246 86.3245 50.7746 86.2578C50.733 86.287 50.783 86.3244 50.8496 86.4161L50.6371 86.3286C50.3871 86.3786 50.6371 86.7661 50.4455 86.8745C49.9371 86.7953 49.9996 87.4036 50.0205 87.7619C50.2038 88.3953 48.8288 87.8161 49.058 88.4911C49.0121 88.4661 49.0788 88.5661 49.108 88.5911L48.8455 88.8203C48.8455 88.8203 48.5455 89.1078 48.6163 89.5286C48.6913 89.9453 49.1205 90.5244 50.6747 91.0119L50.7246 91.0703C51.0038 91.0453 51.1246 90.9745 50.9205 90.6078C51.2955 90.9078 51.0705 90.5119 51.2163 90.5786L51.2413 90.6078C51.0455 90.2703 51.6455 90.6078 51.4746 90.3036C51.4996 90.3328 51.5996 90.4203 51.5871 90.4453C51.5996 90.337 51.5913 90.1744 51.8121 90.3494C51.8913 90.1369 52.183 89.9912 51.9205 89.6078L51.9746 89.6619C51.7871 89.4119 51.9996 89.5578 51.9371 89.3912C51.9704 89.412 51.9871 89.4161 51.9996 89.4286C51.8205 89.1786 52.1163 89.2078 52.058 89.0787L52.208 89.1912L52.2788 89.0328L52.208 89.0578C51.8205 88.7286 52.5371 89.1536 52.3496 88.8578C52.4704 88.8078 51.6455 88.0328 51.9121 88.0953C51.7538 87.9078 52.1913 88.3661 52.0954 88.1911C52.3079 88.3494 52.2038 88.3203 52.3871 88.4328C52.3371 88.2911 52.6872 88.4911 52.6038 88.2994L52.7746 88.4203C52.5496 88.0911 53.1413 88.3786 52.8996 88.0953C52.8413 87.8869 53.4496 88.3828 53.208 88.0286L53.4663 88.1453C53.5413 88.1203 53.2121 87.912 53.3621 87.9328C53.5038 88.037 53.5288 87.9453 53.6413 88.0744C53.958 88.1078 53.4996 87.5953 53.9955 87.6953C53.7371 87.4661 53.9621 87.4952 53.7705 87.3244C53.8955 87.4036 53.908 87.1703 54.1122 87.4453C54.1288 87.4703 54.1122 87.4786 54.0663 87.4453L54.2288 87.5703C54.6121 87.6911 54.1704 87.2745 54.2829 87.2162C54.2079 87.2078 54.1996 87.2536 54.0996 87.1494L54.183 87.0745L54.3121 87.187L54.483 87.112L54.2955 87.0119C54.4288 87.0119 54.7454 87.1828 54.5413 86.9453C54.4246 86.8203 54.2621 86.8494 54.2496 86.7453C54.4288 86.7411 54.6955 86.7286 54.8205 86.6495C54.6121 86.5328 54.6371 86.5036 54.6163 86.4495L54.7955 86.5578C54.6288 86.2828 55.208 86.7578 55.0913 86.5161L55.208 86.6036L54.8621 86.3411C54.583 86.0161 55.2621 86.5119 54.8621 86.0953C54.8621 86.1619 54.4621 85.8744 54.5746 85.8661L54.7372 85.9869C54.7205 85.9327 54.658 85.8786 54.7038 85.8786C54.783 85.9536 54.9455 86.0411 54.9455 85.9786L55.1413 86.1411L54.883 85.8578C55.108 85.8995 54.9455 85.6536 55.2038 85.7702C55.2038 85.7702 55.4121 85.6911 55.1663 85.4994C55.3121 85.6286 55.4246 85.5828 55.6038 85.7245C55.4413 85.5745 55.3579 85.3703 55.5829 85.4412L55.5996 85.4619C55.9038 85.4119 55.4871 85.0078 55.8246 84.9995C55.6121 84.887 55.7705 84.8702 55.4955 84.7369C55.3205 84.4327 56.2038 84.7536 55.4038 84.2328C55.3996 84.1369 55.6455 84.2578 55.708 84.2411L55.7413 84.2828C55.7496 84.112 55.7622 84.0662 55.8372 83.9787C55.783 83.8828 55.3996 83.6661 55.5413 83.6286C55.6788 83.7411 55.6704 83.6911 55.6871 83.6536C55.6996 83.687 55.7538 83.7245 55.8788 83.737C55.833 83.7036 55.8079 83.6786 55.7913 83.6578C55.8038 83.6661 55.8121 83.6661 55.8288 83.6786C55.8038 83.5911 55.7496 83.5786 55.7163 83.5911C55.6913 83.5786 55.6621 83.562 55.6163 83.5495C55.8455 83.5995 55.6871 83.3786 55.958 83.5161C55.9871 83.3119 55.7746 83.0494 55.7413 82.8577C55.8871 82.9119 55.9913 83.0078 56.0246 83.0786V82.9536C56.2246 83.0577 56.108 83.0703 56.133 83.1203C56.5163 83.1661 55.9372 82.7078 56.3038 82.7203L56.1621 82.612H56.1913C56.108 82.5745 56.0079 82.4869 55.9954 82.4536C56.1788 82.5203 56.3955 82.6578 56.4205 82.5828C56.6163 82.6119 56.4163 82.3828 56.3538 82.2661C56.3038 82.2911 56.2163 82.2286 56.1621 82.1828C56.1746 82.1453 56.358 82.2119 56.2955 82.1453L56.533 82.2578C56.3038 82.1619 56.3371 82.0495 56.2455 81.9911C56.4288 82.0578 56.3705 82.1203 56.4955 82.1911C56.5413 82.0411 56.5205 82.1161 56.5663 81.9661C56.4247 81.8036 56.3372 81.8703 56.1455 81.7369C56.133 81.6494 55.9955 81.5077 56.1746 81.4994L55.9538 81.4244C55.8496 81.2244 55.9038 81.1619 56.1579 81.1786C55.5079 80.3202 54.9372 80.0161 54.533 79.9078C54.1288 79.8036 53.8913 79.8995 53.8913 79.8995C53.2705 80.0203 53.7996 80.4787 53.7663 80.9662V80.9702Z" fill="#20BB65"/>
<path d="M42.5538 97.6659L42.4746 97.5993C42.4996 97.6368 42.5246 97.6659 42.5538 97.6659Z" fill="#20BB65"/>
<path d="M39.8372 95.4993C39.8372 95.4993 39.8372 95.4826 39.833 95.4742V95.4993H39.8372Z" fill="#20BB65"/>
<path d="M41.2581 94.9326C40.8623 95.0493 40.5331 94.716 40.2831 95.0868C40.0956 95.1576 39.9748 95.3535 39.8373 95.4993C39.9415 95.8493 39.6248 95.6327 39.679 95.941L39.5414 95.7909C39.5623 95.8951 39.5581 95.9785 39.4706 95.9035L39.4414 95.8535C39.4706 96.0118 39.3706 95.966 39.3831 96.0452L39.354 95.9951L39.3081 96.0535L39.2748 95.9743C39.2748 96.1618 39.1873 96.2201 39.0748 96.1993L39.1998 96.4076C38.904 96.2659 39.0873 96.7368 38.7831 96.541L38.7581 96.4869C38.8789 97.1494 38.2498 96.2701 38.3456 96.9076C38.3331 96.8284 38.2748 96.8035 38.2498 96.7535C38.1914 96.8618 38.1165 96.9493 38.3373 97.366C38.2665 97.3951 38.2123 97.266 38.1165 97.1077C38.2165 97.291 38.1998 97.3993 38.154 97.4368L38.1414 97.3534L38.0248 97.4952L38.2373 97.8243C38.1039 97.766 37.9915 97.4118 37.9623 97.5368L38.1165 97.8243C37.9748 97.8243 37.6831 97.4243 37.4664 97.266C36.9664 97.3701 36.8665 98.3535 36.1956 98.0494L36.0664 97.841C35.8998 97.5244 36.1873 98.3701 36.0248 98.0826L36.0498 98.2535C36.0081 98.2035 35.9498 98.1576 35.9373 98.0701C35.8873 98.0784 35.9123 98.1327 35.9248 98.2452L35.779 98.0701C35.529 97.9993 35.5665 98.4618 35.3415 98.4701C34.9206 98.1701 34.6831 98.7452 34.5373 99.0785C34.4164 99.7243 33.4206 98.6159 33.3206 99.3284C33.2873 99.2868 33.304 99.4035 33.3206 99.441L32.9748 99.5409C32.9748 99.5409 32.5664 99.6827 32.4539 100.099C32.3456 100.516 32.5206 101.208 33.729 102.295L33.7498 102.37C34.0081 102.462 34.1415 102.449 34.1081 102.033C34.3248 102.462 34.2789 102.012 34.3831 102.133L34.3956 102.17C34.3581 101.783 34.754 102.345 34.7248 101.995C34.7373 102.033 34.7873 102.153 34.7664 102.17C34.8206 102.078 34.8831 101.933 35.004 102.187C35.1623 102.033 35.479 102.033 35.4123 101.57L35.4373 101.645C35.3789 101.341 35.5081 101.562 35.5165 101.391C35.5373 101.424 35.5498 101.437 35.554 101.449C35.504 101.145 35.7498 101.308 35.7581 101.162L35.8414 101.328L35.9706 101.22L35.8998 101.212C35.6998 100.741 36.1498 101.449 36.1123 101.099C36.2414 101.108 35.8581 100.045 36.0664 100.22C36.0123 99.9827 36.1915 100.591 36.1831 100.391C36.2998 100.628 36.2206 100.558 36.3331 100.741C36.3498 100.591 36.5706 100.928 36.5831 100.724L36.6789 100.908C36.6289 100.512 37.0164 101.045 36.9373 100.683C36.9831 100.47 37.2873 101.195 37.2373 100.77L37.4081 100.999C37.4831 101.012 37.2956 100.67 37.4123 100.766C37.4873 100.924 37.5498 100.853 37.5915 101.024C37.8498 101.203 37.6873 100.537 38.0748 100.866C37.9581 100.541 38.1415 100.679 38.0498 100.433C38.1206 100.562 38.2373 100.366 38.2873 100.703C38.2873 100.733 38.2748 100.737 38.2498 100.683L38.329 100.87C38.604 101.162 38.4165 100.587 38.5415 100.591C38.479 100.545 38.4498 100.583 38.4123 100.445L38.5164 100.42L38.5748 100.583L38.7581 100.599L38.6415 100.42C38.7581 100.483 38.9498 100.791 38.8873 100.483C38.8456 100.316 38.6915 100.262 38.7331 100.166C38.8915 100.249 39.1248 100.37 39.2706 100.366C39.1498 100.162 39.1831 100.153 39.1914 100.091L39.2914 100.274C39.2789 99.9535 39.5498 100.653 39.5623 100.387L39.6206 100.52L39.4498 100.12C39.3664 99.6993 39.7123 100.466 39.5665 99.9077C39.5373 99.966 39.329 99.516 39.429 99.566L39.5081 99.7493C39.5206 99.6951 39.4915 99.6159 39.5331 99.6409C39.5665 99.7451 39.6623 99.9034 39.6915 99.8451L39.779 100.083L39.6915 99.7077C39.8623 99.8577 39.8456 99.5618 40.0081 99.7952C40.0081 99.7952 40.2248 99.8326 40.1081 99.5451C40.1706 99.7285 40.2873 99.7493 40.3748 99.9576C40.3081 99.7451 40.3373 99.5285 40.4956 99.7035V99.7326C40.7873 99.8409 40.629 99.2868 40.9248 99.4493C40.7998 99.2451 40.9456 99.3118 40.7706 99.0577C40.7706 98.7077 41.3664 99.4368 40.9456 98.5784C40.9914 98.4951 41.1414 98.7243 41.2039 98.7452L41.2123 98.7993C41.3039 98.6534 41.3373 98.6243 41.4456 98.5868C41.4456 98.4784 41.2289 98.0952 41.3706 98.1327C41.4331 98.2993 41.4498 98.2493 41.4831 98.2327C41.4748 98.2702 41.504 98.3285 41.6081 98.4035C41.5873 98.3535 41.5789 98.3201 41.5748 98.2909C41.5831 98.3034 41.5915 98.3118 41.5998 98.3285C41.6206 98.241 41.5831 98.1993 41.5456 98.1951C41.5331 98.1701 41.5123 98.1451 41.4789 98.1076C41.6498 98.2701 41.6289 97.9993 41.7914 98.2535C41.9164 98.0952 41.8706 97.7618 41.9456 97.5785C42.0414 97.6993 42.0831 97.8368 42.0748 97.9118L42.1414 97.8035C42.2581 97.9951 42.1539 97.9451 42.1498 98.0035C42.4539 98.241 42.1956 97.5493 42.4998 97.7493L42.4331 97.5826L42.4581 97.6035C42.4081 97.5243 42.3706 97.3993 42.3748 97.3618C42.4956 97.516 42.6123 97.741 42.6706 97.691C42.8248 97.816 42.7664 97.5201 42.7789 97.3868C42.7248 97.3826 42.679 97.2827 42.6581 97.216C42.6873 97.191 42.8123 97.341 42.7915 97.2535L42.9373 97.4743C42.7914 97.2743 42.8789 97.1952 42.8331 97.0952C42.9581 97.2452 42.8748 97.2702 42.9456 97.3952C43.0623 97.291 43.004 97.3409 43.1206 97.2368C43.0831 97.0243 42.9706 97.0368 42.8789 96.8243C42.9123 96.7409 42.8706 96.5493 43.0289 96.6368L42.8789 96.4577C42.8914 96.2327 42.9748 96.2077 43.179 96.3535C43.0706 95.2827 42.7373 94.7243 42.4498 94.4243C42.1581 94.1243 41.9081 94.0827 41.9081 94.0827C41.3123 93.8618 41.529 94.5326 41.2456 94.9326H41.2581Z" fill="#20BB65"/>
<path d="M24.208 106.07L24.1455 105.991C24.1622 106.033 24.183 106.066 24.208 106.07Z" fill="#20BB65"/>
<path d="M23.4828 103.137C23.0578 103.17 22.7911 102.787 22.462 103.104C22.2578 103.141 22.0953 103.312 21.9287 103.433C21.9662 103.795 21.687 103.529 21.687 103.841L21.5745 103.67C21.5745 103.779 21.5578 103.858 21.4828 103.77L21.4661 103.716C21.4661 103.879 21.3745 103.816 21.3745 103.895L21.3578 103.841L21.3037 103.891L21.287 103.808C21.2495 103.991 21.1578 104.037 21.0453 103.999L21.137 104.224C20.8578 104.041 20.9703 104.533 20.6911 104.295L20.6745 104.241C20.6912 104.916 20.1953 103.958 20.1911 104.604C20.1911 104.524 20.137 104.491 20.1161 104.437C20.0411 104.537 19.9495 104.612 20.1161 105.058C20.0411 105.079 20.0036 104.941 19.9328 104.77C20.0078 104.966 19.9745 105.07 19.9203 105.104V105.02L19.7828 105.145L19.9536 105.499C19.8286 105.424 19.7661 105.058 19.7161 105.179L19.8328 105.483C19.6911 105.466 19.4495 105.029 19.2536 104.845C18.7328 104.891 18.5078 105.858 17.8703 105.487L17.7661 105.266C17.6328 104.933 17.8286 105.808 17.6953 105.504V105.674C17.662 105.62 17.6078 105.566 17.6078 105.483C17.5537 105.487 17.5745 105.541 17.5786 105.658L17.4495 105.466C17.2037 105.374 17.1911 105.837 16.9661 105.829C16.5745 105.491 16.2703 106.045 16.0994 106.37C15.9203 107.008 15.0161 105.824 14.8536 106.537C14.8245 106.495 14.8328 106.612 14.8453 106.649L14.4911 106.729C14.4911 106.729 12.8037 107.208 15.0453 109.537L15.062 109.612C15.312 109.72 15.4453 109.716 15.4411 109.299C15.6245 109.745 15.612 109.291 15.7078 109.42L15.7161 109.458C15.7036 109.066 16.0536 109.658 16.0536 109.308C16.062 109.345 16.1036 109.47 16.0828 109.487C16.1411 109.399 16.2161 109.258 16.3161 109.52C16.4828 109.378 16.7911 109.404 16.762 108.937L16.7786 109.012C16.7453 108.704 16.8537 108.937 16.8787 108.762C16.8953 108.795 16.9078 108.812 16.912 108.824C16.887 108.516 17.1162 108.699 17.137 108.558L17.2036 108.733L17.3412 108.637L17.2703 108.62C17.1161 108.133 17.4953 108.879 17.4911 108.529C17.6161 108.549 17.337 107.454 17.5286 107.649C17.4995 107.408 17.6161 108.033 17.6286 107.829C17.7203 108.079 17.6495 107.999 17.7411 108.191C17.7703 108.045 17.9578 108.399 17.987 108.199L18.062 108.391C18.0536 107.991 18.3828 108.562 18.337 108.195C18.4037 107.987 18.6328 108.741 18.6203 108.312L18.7661 108.558C18.837 108.579 18.687 108.22 18.7953 108.324C18.8537 108.491 18.9203 108.429 18.9411 108.599C19.1745 108.808 19.087 108.129 19.4287 108.499C19.3495 108.162 19.512 108.32 19.4536 108.066C19.512 108.204 19.6453 108.02 19.6536 108.362C19.6536 108.391 19.637 108.391 19.6161 108.337L19.6745 108.533C19.912 108.854 19.7911 108.262 19.912 108.283C19.8578 108.233 19.8245 108.262 19.8036 108.12L19.9078 108.112L19.9495 108.279L20.1286 108.32L20.037 108.129C20.1453 108.204 20.2953 108.533 20.2703 108.224C20.2495 108.054 20.1037 107.983 20.1537 107.891C20.2953 107.991 20.512 108.145 20.6536 108.162C20.5578 107.941 20.5953 107.937 20.612 107.879L20.6869 108.07C20.7119 107.754 20.8912 108.483 20.937 108.22L20.9745 108.358L20.8578 107.941C20.8286 107.512 21.0703 108.32 20.9994 107.749C20.9619 107.799 20.8161 107.329 20.9078 107.391L20.962 107.583C20.9828 107.529 20.9619 107.449 20.9994 107.479C21.0161 107.587 21.0911 107.754 21.1286 107.704L21.1828 107.949L21.1495 107.57C21.2953 107.745 21.3161 107.449 21.4453 107.704C21.4453 107.704 21.6495 107.774 21.5786 107.47C21.6161 107.662 21.7286 107.699 21.7828 107.92C21.7453 107.704 21.8036 107.491 21.9328 107.691V107.72C22.1953 107.874 22.1203 107.304 22.3828 107.516C22.2911 107.295 22.4203 107.387 22.2912 107.104C22.3495 106.758 22.812 107.579 22.5328 106.666C22.5911 106.591 22.6995 106.841 22.7578 106.874V106.929C22.8703 106.804 22.9078 106.779 23.0203 106.762C23.0412 106.658 22.8912 106.241 23.0203 106.304C23.0537 106.479 23.0786 106.433 23.112 106.42C23.0995 106.454 23.112 106.516 23.2036 106.612C23.1911 106.558 23.1869 106.524 23.1869 106.495C23.1911 106.508 23.1995 106.516 23.2036 106.537C23.2411 106.458 23.212 106.412 23.1745 106.399C23.1662 106.374 23.1537 106.341 23.1245 106.299C23.2662 106.491 23.287 106.224 23.3995 106.504C23.5495 106.374 23.562 106.037 23.6661 105.874C23.737 106.012 23.7536 106.154 23.7328 106.224L23.8161 106.133C23.8953 106.341 23.8036 106.274 23.787 106.329C24.037 106.62 23.9119 105.899 24.1744 106.154L24.1411 105.978L24.162 106.004C24.1287 105.916 24.1161 105.787 24.1244 105.749C24.2161 105.924 24.2828 106.17 24.3495 106.133C24.4745 106.287 24.4745 105.987 24.512 105.862C24.462 105.845 24.4328 105.741 24.4287 105.67C24.462 105.649 24.5536 105.824 24.5495 105.737L24.6453 105.983C24.5411 105.758 24.6453 105.699 24.6161 105.595C24.7078 105.77 24.6203 105.77 24.6661 105.912C24.7995 105.837 24.7328 105.874 24.8661 105.799C24.8703 105.587 24.762 105.574 24.7161 105.345C24.7661 105.274 24.7662 105.079 24.8995 105.195L24.7912 104.987C24.8537 104.77 24.937 104.77 25.1078 104.958C25.3578 102.841 24.3661 102.466 24.3661 102.466C23.812 102.12 23.8703 102.824 23.4953 103.158L23.4828 103.137Z" fill="#20BB65"/>
<path d="M6.10735 112.533L6.06152 112.445C6.07402 112.487 6.09068 112.524 6.10735 112.533Z" fill="#20BB65"/>
<path d="M5.35352 109.624C5.11185 109.579 4.91601 109.166 4.76601 109.408C4.65351 109.408 4.5785 109.537 4.49933 109.624C4.56183 109.974 4.37018 109.67 4.40768 109.97L4.32437 109.787C4.33687 109.887 4.33683 109.962 4.28266 109.866L4.26603 109.812C4.28269 109.966 4.22433 109.891 4.23266 109.966L4.21603 109.912L4.191 109.95L4.1702 109.87C4.1702 110.037 4.12436 110.066 4.05352 110.012L4.13266 110.241C3.9535 110.016 4.07435 110.504 3.88685 110.225L3.87016 110.17C3.95766 110.812 3.56186 109.812 3.63686 110.425C3.62852 110.35 3.59101 110.308 3.57435 110.254C3.54518 110.337 3.49936 110.387 3.6452 110.841C3.60353 110.85 3.57016 110.708 3.50766 110.537C3.57016 110.737 3.56603 110.829 3.54103 110.85L3.52852 110.77L3.46601 110.866L3.60349 111.233C3.52432 111.141 3.44519 110.779 3.42852 110.887L3.52852 111.195C3.44519 111.154 3.2577 110.695 3.12436 110.487C2.8327 110.437 2.81599 111.312 2.40766 110.841L2.32435 110.612C2.21185 110.275 2.42017 111.137 2.31183 110.825L2.33269 110.987C2.30352 110.929 2.27016 110.87 2.25766 110.787C2.2285 110.783 2.24516 110.837 2.25766 110.945L2.16184 110.741C2.01184 110.608 2.0577 111.045 1.92436 110.995C1.66186 110.604 1.55351 111.079 1.49101 111.354C1.46185 111.925 0.807665 110.641 0.799332 111.287C0.778498 111.241 0.79934 111.354 0.807673 111.395L0.611852 111.404C0.611852 111.404 -0.300632 111.554 1.25353 114.166L1.27434 114.241C1.4285 114.391 1.50353 114.408 1.45353 114.012C1.60769 114.466 1.54932 114.033 1.62015 114.175L1.62849 114.212C1.57849 113.841 1.84518 114.466 1.80351 114.129C1.81185 114.166 1.84933 114.291 1.841 114.304C1.866 114.233 1.89103 114.112 1.97853 114.379C2.0577 114.275 2.23684 114.354 2.16601 113.908L2.18686 113.983C2.1327 113.683 2.22018 113.925 2.21601 113.766C2.22851 113.8 2.23687 113.816 2.24103 113.833C2.19103 113.537 2.34519 113.75 2.33686 113.62L2.3952 113.795L2.46183 113.729L2.42017 113.7C2.27434 113.208 2.57852 113.983 2.53685 113.65C2.61185 113.695 2.32432 112.604 2.45766 112.825C2.41182 112.587 2.55352 113.204 2.53685 113.012C2.62018 113.266 2.57019 113.179 2.64519 113.374C2.64519 113.241 2.79101 113.612 2.78684 113.425L2.85352 113.62C2.80352 113.241 3.05766 113.841 2.98683 113.483C2.99933 113.3 3.22018 114.054 3.16185 113.645L3.27436 113.904C3.31602 113.937 3.19102 113.57 3.26602 113.687C3.31602 113.858 3.34936 113.808 3.3827 113.975C3.54103 114.212 3.41187 113.554 3.64937 113.966C3.56603 113.633 3.67433 113.812 3.61183 113.562C3.66183 113.704 3.71599 113.554 3.76183 113.879C3.76183 113.904 3.75352 113.904 3.73685 113.85L3.79102 114.045C3.96602 114.395 3.82436 113.812 3.89936 113.85C3.86186 113.791 3.84516 113.816 3.81599 113.675L3.87433 113.683L3.91599 113.85L4.02016 113.92L3.94519 113.72C4.01602 113.812 4.141 114.154 4.08684 113.85C4.0535 113.683 3.966 113.587 3.98267 113.512C4.07434 113.633 4.21601 113.816 4.29934 113.858C4.22017 113.633 4.241 113.637 4.241 113.583L4.30768 113.779C4.28685 113.483 4.47436 114.204 4.47019 113.966L4.50767 114.104L4.391 113.687C4.32433 113.279 4.55767 114.087 4.44934 113.529C4.43267 113.57 4.29518 113.1 4.35768 113.175L4.41185 113.366C4.41602 113.32 4.39519 113.237 4.42019 113.275C4.44102 113.379 4.50352 113.554 4.52019 113.512L4.57853 113.758L4.51602 113.391C4.62018 113.583 4.59933 113.308 4.69933 113.57C4.69933 113.57 4.82432 113.674 4.74932 113.374C4.79099 113.562 4.86183 113.616 4.916 113.837C4.87017 113.625 4.87851 113.433 4.97434 113.645V113.67C5.14517 113.866 5.03687 113.312 5.21187 113.558C5.1327 113.329 5.22015 113.441 5.11182 113.15C5.10349 112.833 5.46602 113.691 5.19936 112.779C5.22436 112.716 5.31602 112.975 5.34935 113.016V113.066C5.40352 112.97 5.42433 112.954 5.48683 112.954C5.48683 112.858 5.3535 112.437 5.43266 112.52C5.47016 112.691 5.48268 112.654 5.49934 112.65C5.49934 112.679 5.51187 112.741 5.57437 112.845C5.56187 112.791 5.55768 112.758 5.55351 112.733C5.55768 112.745 5.56186 112.758 5.56602 112.775C5.57852 112.704 5.55349 112.654 5.53266 112.637C5.52433 112.612 5.51184 112.579 5.49517 112.533C5.59934 112.737 5.57853 112.491 5.67853 112.775C5.74937 112.679 5.71601 112.362 5.75767 112.224C5.81601 112.37 5.84103 112.508 5.83687 112.57L5.87435 112.5C5.94519 112.712 5.88269 112.633 5.87852 112.679C6.05769 113 5.89935 112.291 6.07852 112.583L6.04103 112.408L6.05349 112.433C6.02433 112.345 5.99933 112.216 6.00349 112.187C6.07433 112.37 6.14101 112.612 6.17851 112.591C6.26601 112.758 6.23269 112.475 6.24102 112.362C6.20769 112.337 6.18267 112.233 6.17017 112.166C6.18684 112.154 6.25769 112.333 6.24519 112.25L6.32851 112.5C6.24517 112.266 6.29516 112.229 6.266 112.124C6.33683 112.308 6.29101 112.291 6.32851 112.433C6.39517 112.387 6.36184 112.408 6.4285 112.362C6.40767 112.162 6.34519 112.129 6.29102 111.904C6.31185 111.841 6.291 111.658 6.3785 111.795L6.29102 111.579C6.29935 111.387 6.34933 111.4 6.47016 111.608C6.37016 109.645 5.75767 109.112 5.75767 109.112C5.39934 108.687 5.51601 109.362 5.34101 109.608L5.35352 109.624Z" fill="#20BB65"/>
</svg>
