<svg width="61" height="50" viewBox="0 0 61 50" fill="none" xmlns="http://www.w3.org/2000/svg">
<path d="M60.0372 2.14258H59.9414C59.9831 2.15091 60.0206 2.15091 60.0372 2.14258Z" fill="#ACDE45"/>
<path d="M59.0498 6.15527C59.0498 6.15527 59.0623 6.15945 59.0706 6.16361C59.0623 6.15945 59.0581 6.15527 59.0498 6.15527Z" fill="#ACDE45"/>
<path d="M56.7953 2.13444C56.7953 2.13444 56.7827 2.13027 56.7744 2.1261L56.7953 2.13444Z" fill="#ACDE45"/>
<path d="M57.1871 1.44695C57.0413 1.62195 56.5954 1.59274 56.7371 1.8219C56.6829 1.9094 56.7621 2.03023 56.7955 2.13023C57.1246 2.24273 56.7746 2.25109 57.0454 2.36359L56.8496 2.34274C56.9413 2.38024 57.0038 2.41776 56.8955 2.41359L56.8413 2.40108C56.9788 2.45941 56.8871 2.47191 56.958 2.50107L56.9038 2.48861L56.9205 2.5261L56.8413 2.50524C56.9829 2.58441 56.983 2.63441 56.9038 2.66358L57.133 2.70941C56.8538 2.74274 57.3246 2.88444 56.9996 2.89694L56.9454 2.88442C57.5288 3.13026 56.4954 2.95109 57.0454 3.19275C56.9788 3.16359 56.9246 3.17194 56.8705 3.15527C56.9246 3.22193 56.9455 3.28025 57.3955 3.39275C57.3788 3.42608 57.2455 3.38859 57.0746 3.35109C57.2705 3.40109 57.3454 3.45107 57.3496 3.4844L57.2746 3.45109L57.3205 3.54691L57.6955 3.6261C57.5788 3.64277 57.2413 3.5219 57.3205 3.58857L57.6288 3.66776C57.5538 3.71359 57.0788 3.63027 56.8371 3.6261C56.6454 3.82194 57.3538 4.29694 56.7538 4.35944L56.5204 4.3011C56.1829 4.20527 56.9996 4.50523 56.6871 4.4219L56.8329 4.49275C56.7704 4.48025 56.7038 4.47609 56.6329 4.44275C56.6121 4.46359 56.6663 4.48023 56.7621 4.52607L56.5455 4.48858C56.358 4.53025 56.7329 4.73025 56.6204 4.80108C56.1621 4.78441 56.483 5.12191 56.6621 5.32191C57.0955 5.67191 55.7121 5.41775 56.2121 5.79275C56.1621 5.78025 56.2621 5.83442 56.2996 5.84692L56.1955 5.99274C56.1955 5.99274 56.0913 6.17608 56.3496 6.41775C56.608 6.65525 57.2247 6.97193 58.6997 7.15943L58.7663 7.18857C58.9788 7.15524 59.0371 7.10527 58.7038 6.90527C59.1454 7.05527 58.7788 6.83856 58.9288 6.86773L58.9621 6.88441C58.6454 6.70108 59.2913 6.85943 59.008 6.69276C59.0413 6.70943 59.1621 6.75107 59.1663 6.76774C59.1246 6.70524 59.0496 6.60943 59.308 6.69693C59.2746 6.57193 59.4455 6.46775 59.058 6.25941L59.1288 6.28861C58.8621 6.15528 59.1038 6.22606 58.9746 6.13856C59.0079 6.1469 59.0288 6.15108 59.0413 6.15525C58.7788 6.02191 59.0413 6.02192 58.933 5.95109L59.1038 6.00525L59.0913 5.90943L59.0455 5.92611C58.5746 5.76361 59.3621 5.95942 59.0746 5.80109C59.1538 5.76359 58.1246 5.3761 58.3746 5.39694C58.1621 5.3011 58.7288 5.53443 58.5705 5.43859C58.8163 5.51359 58.7204 5.50528 58.9204 5.55944C58.8163 5.48444 59.1955 5.57191 59.0413 5.47191L59.2329 5.53025C58.8996 5.35941 59.5246 5.48443 59.1996 5.3386C59.0621 5.2261 59.7872 5.46776 59.4288 5.28443L59.6996 5.33443C59.7496 5.31776 59.383 5.21775 59.5205 5.22192C59.6871 5.27192 59.6663 5.22193 59.8163 5.28443C60.0955 5.28443 59.4954 5.02607 59.9621 5.0469C59.6454 4.9344 59.8538 4.93858 59.6163 4.85525C59.758 4.89275 59.6663 4.75941 59.9579 4.90108C59.9829 4.91358 59.9746 4.92191 59.9205 4.90108L60.1079 4.95942C60.4871 5.00108 59.9371 4.80109 60.0079 4.75942C59.9413 4.75942 59.9496 4.7844 59.8246 4.7344L59.8663 4.68857L60.0246 4.74274L60.1413 4.68857L59.9371 4.64692C60.0496 4.63442 60.3954 4.71358 60.1204 4.59275C59.9663 4.53025 59.8413 4.55943 59.7913 4.50109C59.9413 4.48443 60.1663 4.46361 60.2455 4.40944C60.0163 4.35944 60.033 4.34273 59.9913 4.31356L60.1871 4.36361C59.933 4.22194 60.6246 4.4469 60.4246 4.3219L60.558 4.36361L60.1538 4.24276C59.783 4.08443 60.5705 4.3094 60.0538 4.1094C60.0788 4.1469 59.6163 4.01356 59.7121 4.00106L59.8996 4.05523C59.8621 4.02607 59.7871 4.00111 59.8288 3.99694C59.9288 4.03444 60.1038 4.07193 60.0788 4.03443L60.3121 4.1094L59.9746 3.97192C60.1871 3.98025 59.9496 3.85524 60.2204 3.90524C60.2204 3.90524 60.3746 3.85108 60.083 3.75941C60.2621 3.82191 60.3413 3.78857 60.5538 3.85107C60.3538 3.78024 60.1996 3.6719 60.4246 3.6969L60.4496 3.70942C60.6955 3.65942 60.1788 3.47191 60.4746 3.44274C60.2454 3.39691 60.3788 3.37611 60.083 3.32195C59.8121 3.16778 60.7163 3.28444 59.8163 3.05527C59.7746 3.00527 60.0413 3.05526 60.0913 3.03859L60.1371 3.05944C60.0788 2.96778 60.0746 2.94276 60.1079 2.8886C60.0246 2.84276 59.6038 2.75109 59.7163 2.72192C59.8788 2.77192 59.8538 2.74692 59.8579 2.72192C59.8829 2.73859 59.9413 2.75523 60.0621 2.75523C60.0121 2.74273 59.9788 2.73025 59.9538 2.71775C59.9663 2.71775 59.9788 2.72192 59.9955 2.72609C59.9413 2.68026 59.8871 2.6761 59.8621 2.6886C59.8371 2.68444 59.8038 2.67609 59.7579 2.67192C59.9829 2.68025 59.758 2.5761 60.0496 2.63026C60.0038 2.52193 59.7163 2.39274 59.6205 2.29274C59.7705 2.31357 59.8996 2.35523 59.9538 2.38856L59.9079 2.32193C60.1204 2.3636 60.0246 2.37608 60.0663 2.40525C60.4246 2.40525 59.7455 2.20106 60.0788 2.18023L59.9121 2.1344H59.9413C59.8496 2.11774 59.733 2.08027 59.708 2.0636C59.8955 2.08444 60.1371 2.14276 60.133 2.10109C60.3205 2.10109 60.0579 1.99692 59.9663 1.93858C59.9329 1.95525 59.8288 1.93027 59.7663 1.90944C59.7663 1.88861 59.9538 1.90941 59.8746 1.88024L60.1288 1.9219C59.8913 1.88857 59.883 1.8261 59.7788 1.8011C59.9663 1.82193 59.933 1.85942 60.0746 1.88859C60.0663 1.80525 60.0704 1.8469 60.0579 1.76356C59.8746 1.68856 59.8163 1.73025 59.5996 1.67608C59.5579 1.63025 59.3871 1.56778 59.5454 1.55111L59.3205 1.52609C59.158 1.43025 59.1913 1.39277 59.4246 1.38443C58.5496 0.988602 57.9288 0.871919 57.5288 0.846919C57.1288 0.821919 56.9454 0.888575 56.9454 0.888575C56.4204 0.992742 57.0579 1.19277 57.1954 1.44277L57.1871 1.44695Z" fill="#ACDE45"/>
<path d="M53.3211 15.7047L53.2295 15.6631C53.2628 15.6922 53.2961 15.7131 53.3211 15.7047Z" fill="#ACDE45"/>
<path d="M47.3545 20.8047C47.3545 20.8047 47.3545 20.8172 47.3587 20.8255C47.3587 20.8172 47.3587 20.8089 47.3545 20.8047Z" fill="#ACDE45"/>
<path d="M50.2293 14.3258C50.2293 14.3258 50.221 14.3133 50.2168 14.3008L50.2293 14.3258Z" fill="#ACDE45"/>
<path d="M51.4004 13.4675C51.0629 13.6717 50.6713 13.4384 50.5379 13.8425C50.3838 13.9467 50.3171 14.1592 50.2296 14.3258C50.4129 14.63 50.0629 14.4967 50.1921 14.7717L50.0296 14.6592C50.0713 14.755 50.0879 14.83 49.9921 14.78L49.9546 14.7383C50.0171 14.88 49.9171 14.8592 49.9463 14.93L49.9087 14.8883L49.8796 14.9508L49.8338 14.8842C49.8754 15.0634 49.8129 15.1342 49.7004 15.1384L49.8671 15.305C49.5546 15.2342 49.8379 15.6383 49.5088 15.5175L49.4713 15.4717C49.7338 16.0717 48.9462 15.3717 49.1796 15.9508C49.1504 15.8758 49.0921 15.8675 49.0546 15.8217C49.0254 15.9384 48.9713 16.0342 49.2713 16.3842C49.213 16.4259 49.1338 16.3134 49.0088 16.1842C49.1421 16.3384 49.1463 16.4425 49.113 16.4884L49.0838 16.4133L49.0046 16.5717L49.2754 16.8425C49.1379 16.8133 48.9588 16.5008 48.9546 16.6217L49.1588 16.8634C49.0254 16.8925 48.6671 16.5675 48.4296 16.4592C47.9838 16.6467 48.0796 17.605 47.3838 17.43L47.2254 17.2508C47.0088 16.9758 47.4379 17.7342 47.2296 17.4884L47.2838 17.6466C47.2338 17.605 47.1712 17.5717 47.1462 17.4925C47.1004 17.5092 47.1338 17.555 47.1671 17.6633L46.9963 17.5217C46.7463 17.4967 46.8671 17.93 46.6546 17.9758C46.2046 17.755 46.0796 18.3425 45.9962 18.68C45.9837 19.3217 44.8629 18.3967 44.8796 19.0925C44.8421 19.0592 44.8796 19.1675 44.8963 19.2009L44.5838 19.3425C44.5838 19.3425 44.2171 19.5342 44.1671 19.9467C44.1213 20.3592 44.3713 21.0133 45.6921 21.8967L45.7255 21.9675C45.9921 22.0217 46.1213 21.9884 46.0338 21.5925C46.3004 21.9759 46.1963 21.5467 46.3171 21.6509L46.3338 21.6842C46.2421 21.3175 46.7046 21.8008 46.6296 21.4675C46.6463 21.5008 46.7129 21.6092 46.6963 21.63C46.7379 21.5342 46.7755 21.3841 46.9296 21.605C47.063 21.4341 47.3713 21.38 47.238 20.9467L47.2713 21.0133C47.1671 20.7258 47.3254 20.9217 47.3129 20.7508C47.3379 20.7758 47.3504 20.7883 47.3588 20.8008C47.2629 20.5175 47.5296 20.63 47.5129 20.4925L47.6171 20.6383L47.7254 20.5133H47.6546C47.388 20.0967 47.9338 20.705 47.8463 20.3717C47.9713 20.3592 47.4296 19.4008 47.6588 19.5342C47.5671 19.3133 47.8421 19.8675 47.8004 19.6759C47.9546 19.8842 47.8629 19.83 48.0004 19.9842C47.9921 19.8384 48.2587 20.1259 48.2379 19.9259L48.3588 20.0884C48.2463 19.7175 48.7088 20.1592 48.5713 19.8259C48.5796 19.6134 49.0004 20.255 48.8754 19.855L49.0838 20.0425C49.1588 20.0425 48.9171 19.7508 49.0504 19.8175C49.1504 19.9592 49.2005 19.8759 49.2671 20.03C49.5505 20.155 49.2754 19.5425 49.7088 19.7842C49.5379 19.4925 49.7379 19.5883 49.6088 19.3717C49.7046 19.4842 49.7796 19.2675 49.8879 19.5842C49.8963 19.6092 49.8796 19.6175 49.8463 19.5717L49.9587 19.7342C50.2796 19.9592 49.9921 19.4467 50.1171 19.4217C50.0504 19.3925 50.0254 19.4342 49.9629 19.305L50.0587 19.2592L50.1463 19.405L50.3296 19.3842L50.1838 19.2383C50.3088 19.2758 50.5504 19.53 50.4338 19.2467C50.3588 19.0967 50.2004 19.0758 50.2212 18.9758C50.3879 19.0217 50.6421 19.0925 50.7796 19.055C50.6213 18.8842 50.6546 18.8675 50.6504 18.8092L50.7838 18.9633C50.7088 18.6592 51.1088 19.2717 51.0713 19.0133L51.1546 19.13L50.9088 18.7842C50.7421 18.4009 51.2296 19.0592 50.9796 18.555C50.9588 18.6175 50.6713 18.2342 50.7796 18.255L50.8921 18.4134C50.8921 18.3592 50.8504 18.2883 50.8921 18.305C50.9421 18.3967 51.0671 18.53 51.0879 18.4675L51.2213 18.6759L51.0629 18.3383C51.2588 18.4425 51.1796 18.1633 51.3879 18.3508C51.3879 18.3508 51.6046 18.3383 51.4338 18.0883C51.5338 18.2508 51.6504 18.2425 51.7754 18.4259C51.6671 18.2384 51.6504 18.0217 51.8379 18.155L51.8463 18.18C52.1463 18.2175 51.8754 17.7217 52.1962 17.8092C52.0296 17.6425 52.1838 17.6758 51.9629 17.4717C51.8921 17.1383 52.6213 17.6883 52.0254 16.9758C52.0504 16.8842 52.2463 17.0675 52.3088 17.0717L52.3296 17.1217C52.3879 16.9634 52.4129 16.9259 52.5087 16.8634C52.4837 16.7592 52.1879 16.4467 52.3338 16.4508C52.4338 16.5967 52.4379 16.5425 52.4629 16.5175C52.4629 16.555 52.5046 16.605 52.6213 16.6509C52.5879 16.6092 52.5712 16.5759 52.5629 16.5509C52.5712 16.5592 52.5796 16.5675 52.5921 16.58C52.5921 16.4925 52.5462 16.4633 52.5087 16.4675C52.4921 16.4467 52.4671 16.4258 52.4254 16.4008C52.6296 16.5092 52.5421 16.2633 52.7546 16.4633C52.8379 16.28 52.7171 15.9758 52.7379 15.7842C52.8588 15.8758 52.9338 15.9967 52.9421 16.0675L52.9796 15.9467C53.1379 16.0967 53.0254 16.08 53.0337 16.1342C53.3796 16.28 52.9671 15.6925 53.3046 15.8008L53.2004 15.6592L53.2296 15.6717C53.163 15.6092 53.0963 15.5008 53.0879 15.4633C53.2421 15.5758 53.4087 15.7592 53.4504 15.6967C53.6254 15.7758 53.5004 15.5092 53.4754 15.38C53.4213 15.3925 53.3546 15.3091 53.3171 15.2508C53.3379 15.2175 53.4921 15.33 53.4504 15.2508L53.6421 15.4175C53.4546 15.2675 53.5129 15.1675 53.4462 15.0884C53.6004 15.1967 53.5296 15.2425 53.6296 15.3425C53.7129 15.2134 53.6712 15.2758 53.7546 15.1466C53.6629 14.9591 53.5629 14.9967 53.4213 14.8217C53.4296 14.7342 53.3421 14.5675 53.5129 14.605L53.3254 14.4758C53.2796 14.2592 53.3463 14.2175 53.5796 14.2967C53.1879 13.3258 52.7213 12.8967 52.3713 12.6925C52.0171 12.4884 51.7754 12.5175 51.7754 12.5175C51.1671 12.4633 51.5546 13.0259 51.3963 13.4675H51.4004Z" fill="#ACDE45"/>
<path d="M36.6711 26.4427L36.6045 26.3677C36.6212 26.4093 36.6461 26.4385 36.6711 26.4427Z" fill="#ACDE45"/>
<path d="M35.8337 23.6176C35.4254 23.6718 35.1545 23.3093 34.8503 23.6343C34.6587 23.6759 34.5045 23.8509 34.3504 23.9759C34.4004 24.3301 34.1212 24.0759 34.1337 24.3842L34.0212 24.2217C34.0212 24.3259 34.0129 24.4051 33.9337 24.3217L33.9128 24.2676C33.917 24.4259 33.8254 24.3676 33.8295 24.4468L33.8087 24.3926L33.7545 24.4426L33.7337 24.3634C33.7045 24.5468 33.617 24.5926 33.5087 24.5593L33.6045 24.7759C33.3295 24.6051 33.4545 25.0842 33.1754 24.8592L33.1545 24.8051C33.192 25.4634 32.6795 24.5426 32.7004 25.1717C32.7004 25.0926 32.642 25.0634 32.6253 25.0092C32.5545 25.1092 32.467 25.1843 32.642 25.6134C32.5712 25.6343 32.5295 25.5009 32.4545 25.3384C32.5295 25.5259 32.5045 25.6301 32.4545 25.6634V25.5801L32.3212 25.7051L32.4962 26.0467C32.3712 25.9759 32.3003 25.6217 32.2545 25.7384L32.3754 26.0301C32.2379 26.0176 31.992 25.6009 31.7962 25.4259C31.292 25.4842 31.1004 26.4301 30.467 26.0801L30.3587 25.8676C30.2212 25.5468 30.4295 26.3926 30.2962 26.1009L30.3045 26.2676C30.267 26.2134 30.2129 26.1634 30.2087 26.0842C30.1587 26.0884 30.1795 26.1426 30.1837 26.2551L30.0545 26.0718C29.8129 25.9884 29.8128 26.4384 29.5878 26.4343C29.1962 26.1134 28.9129 26.6592 28.7504 26.9759C28.592 27.5967 27.6795 26.4634 27.5337 27.1593C27.5045 27.1176 27.5129 27.2343 27.5295 27.2718L27.1837 27.3551C27.1837 27.3551 25.542 27.8551 27.8004 30.0676L27.8212 30.1426C28.067 30.2426 28.1962 30.2384 28.1795 29.8342C28.3712 30.2634 28.3462 29.8217 28.442 29.9467L28.4503 29.9843C28.4295 29.6051 28.7837 30.1759 28.7754 29.8342C28.7837 29.8717 28.8295 29.9926 28.8087 30.0092C28.8628 29.9259 28.9337 29.7843 29.0379 30.0384C29.1962 29.9009 29.5004 29.9176 29.4587 29.4676L29.4795 29.5426C29.4379 29.2426 29.5504 29.4676 29.5712 29.3009C29.5879 29.3343 29.6003 29.3468 29.6045 29.3634C29.5712 29.0634 29.8004 29.2384 29.817 29.1009L29.8879 29.2676L30.017 29.1717L29.9504 29.1551C29.7879 28.6843 30.1753 29.4009 30.1628 29.0592C30.2837 29.0801 29.9878 28.0176 30.1795 28.2051C30.142 27.9676 30.2753 28.5759 30.2837 28.3801C30.3795 28.6217 30.3087 28.5468 30.4045 28.7301C30.4295 28.5884 30.6212 28.9301 30.6462 28.7301L30.7254 28.9176C30.7045 28.5301 31.042 29.0801 30.9879 28.7218C31.0462 28.5176 31.2878 29.2468 31.267 28.8301L31.417 29.0634C31.4878 29.0842 31.3337 28.7384 31.4379 28.8384C31.4962 29.0009 31.5629 28.9384 31.5879 29.1009C31.8212 29.2968 31.717 28.6384 32.0629 28.9926C31.9754 28.6676 32.1379 28.8176 32.0754 28.5718C32.1337 28.7051 32.2629 28.5217 32.2795 28.8551C32.2795 28.8842 32.2629 28.8843 32.242 28.8301L32.3045 29.0176C32.5462 29.3259 32.4129 28.7509 32.5337 28.7676C32.4795 28.7176 32.4462 28.7509 32.4212 28.6134L32.5254 28.6009L32.567 28.7634L32.742 28.8009L32.6462 28.6176C32.7545 28.6884 32.9087 29.0051 32.8753 28.7051C32.8503 28.5384 32.7087 28.4717 32.7545 28.3842C32.8962 28.4801 33.1128 28.6218 33.2503 28.6343C33.1503 28.4218 33.1878 28.4176 33.2003 28.3593L33.2795 28.5467C33.2962 28.2384 33.492 28.9426 33.5295 28.6843L33.5712 28.8176L33.4462 28.4134C33.4045 27.9968 33.6629 28.7801 33.5795 28.2217C33.5462 28.2717 33.3879 27.8176 33.4795 27.8759L33.5379 28.0634C33.5545 28.0134 33.5379 27.9301 33.5712 27.9592C33.592 28.0634 33.667 28.2259 33.7045 28.1759L33.7628 28.4134L33.717 28.0426C33.867 28.2093 33.8795 27.9176 34.0129 28.1634C34.0129 28.1634 34.217 28.2259 34.1337 27.9343C34.1753 28.1218 34.2837 28.1509 34.3462 28.3634C34.3045 28.1509 34.3545 27.9426 34.4878 28.1342V28.1634C34.7462 28.3051 34.6587 27.7509 34.9212 27.9468C34.8254 27.7343 34.9545 27.8176 34.817 27.5467C34.8629 27.2092 35.342 27.9884 35.042 27.1093C35.0962 27.0343 35.2128 27.2759 35.267 27.3009V27.3551C35.3753 27.2301 35.4087 27.2051 35.517 27.1801C35.5337 27.0759 35.3712 26.6759 35.5004 26.7342C35.5379 26.9051 35.5629 26.8593 35.5962 26.8468C35.5837 26.8801 35.6045 26.9426 35.692 27.0301C35.6795 26.9801 35.6754 26.9426 35.6712 26.9176C35.6754 26.9301 35.6837 26.9384 35.6878 26.9551C35.7212 26.8759 35.6879 26.8301 35.6545 26.8217C35.6462 26.7967 35.6295 26.7676 35.6045 26.7259C35.7504 26.9051 35.7587 26.6426 35.8837 26.9093C36.0254 26.7759 36.0254 26.4468 36.117 26.2801C36.192 26.4134 36.2129 26.5509 36.1962 26.6217L36.2712 26.5301C36.3545 26.7301 36.2629 26.6717 36.2504 26.7217C36.5087 26.9926 36.3545 26.2926 36.6212 26.5301L36.5795 26.3592L36.6004 26.3801C36.5629 26.2968 36.5462 26.1718 36.5545 26.1343C36.6504 26.3009 36.7295 26.5343 36.792 26.4968C36.9212 26.6426 36.9087 26.3468 36.9378 26.2218C36.8878 26.2093 36.8587 26.1092 36.8462 26.0384C36.8795 26.0176 36.9754 26.1842 36.967 26.0967L37.0754 26.3301C36.967 26.1134 37.0587 26.0509 37.0295 25.9509C37.1254 26.1176 37.042 26.1217 37.092 26.2592C37.2212 26.1759 37.1545 26.2176 37.2837 26.1343C37.2795 25.9259 37.1712 25.9176 37.117 25.6968C37.1629 25.6218 37.1504 25.4301 37.2879 25.5384L37.1712 25.3426C37.2212 25.1301 37.3004 25.1218 37.4754 25.2926C37.542 24.2468 37.3253 23.6551 37.0962 23.3176C36.867 22.9801 36.6253 22.9051 36.6253 22.9051C36.0795 22.6009 36.1712 23.2843 35.8295 23.6259L35.8337 23.6176Z" fill="#ACDE45"/>
<path d="M18.6878 33.8054L18.6211 33.7305C18.6378 33.768 18.6628 33.8013 18.6878 33.8054Z" fill="#ACDE45"/>
<path d="M12.1963 37.3721C12.1963 37.3721 12.1963 37.3845 12.2005 37.3929C12.2005 37.3845 12.2005 37.3762 12.1963 37.3721Z" fill="#ACDE45"/>
<path d="M17.7966 30.997C17.3758 31.0636 17.0924 30.7136 16.7799 31.0553C16.5799 31.1095 16.4257 31.297 16.2716 31.4303C16.3341 31.7803 16.0382 31.547 16.0632 31.8553L15.9383 31.7012C15.9466 31.8053 15.9382 31.8845 15.8549 31.8095L15.8341 31.7595C15.8466 31.9178 15.7508 31.8678 15.7591 31.947L15.7341 31.8928L15.6841 31.947L15.6591 31.8678C15.6383 32.0511 15.5507 32.1053 15.4382 32.0845L15.5508 32.2928C15.2591 32.147 15.4132 32.6136 15.1174 32.4136L15.0924 32.3636C15.1799 33.0178 14.5841 32.147 14.6507 32.7803C14.6424 32.7011 14.5841 32.6803 14.5591 32.6261C14.4966 32.7345 14.4133 32.8178 14.6258 33.2303C14.5549 33.2595 14.5008 33.1303 14.4091 32.9761C14.5049 33.1553 14.4841 33.2595 14.4382 33.3011L14.4258 33.2178L14.3049 33.3595L14.5133 33.6803C14.3799 33.6262 14.2716 33.2803 14.2382 33.4011L14.3882 33.6803C14.2507 33.6845 13.9549 33.297 13.7341 33.1512C13.2174 33.2803 13.1424 34.2511 12.4549 34.0095L12.3174 33.8136C12.1341 33.5178 12.4674 34.3261 12.2841 34.0553L12.3174 34.222C12.2716 34.1761 12.2091 34.1345 12.1924 34.0553C12.1424 34.072 12.1716 34.122 12.1924 34.2303L12.0341 34.072C11.7716 34.0345 11.8424 34.4803 11.6174 34.5178C11.1674 34.2803 10.9674 34.8803 10.8674 35.2345C10.8341 35.8762 9.67577 34.9887 9.67994 35.7137C9.64244 35.6803 9.67991 35.7928 9.70074 35.822L9.37161 35.997C9.37161 35.997 8.98824 36.2345 8.9674 36.6636C8.93824 37.097 9.30494 37.6803 10.6716 38.4553L10.7091 38.522C10.9674 38.5595 11.0841 38.522 10.9633 38.1428C11.2549 38.5095 11.1133 38.0928 11.2383 38.1886L11.2591 38.222C11.1424 37.8636 11.6174 38.3303 11.5216 38.0053C11.5382 38.0387 11.6091 38.147 11.5966 38.1637C11.6258 38.072 11.6591 37.922 11.8174 38.1428C11.9341 37.9761 12.2174 37.9345 12.0799 37.5053L12.1133 37.572C12.0091 37.2886 12.1632 37.4845 12.1466 37.3178C12.1716 37.347 12.1841 37.3595 12.1924 37.372C12.0966 37.0887 12.3549 37.2136 12.3383 37.0761L12.4383 37.2262L12.5424 37.1095H12.4716C12.2216 36.6762 12.7383 37.3095 12.6549 36.9803C12.7758 36.9803 12.2841 35.9928 12.5049 36.1386C12.4257 35.9136 12.6674 36.4845 12.6383 36.2928C12.7758 36.5136 12.6924 36.4511 12.8174 36.6136C12.8174 36.4678 13.0633 36.772 13.0508 36.5761L13.1591 36.747C13.0716 36.3678 13.4924 36.8553 13.3758 36.5136C13.3966 36.3053 13.7549 36.9845 13.6632 36.5803L13.8466 36.7886C13.9174 36.797 13.7091 36.4803 13.8299 36.5636C13.9133 36.7136 13.9674 36.6428 14.0174 36.8012C14.2716 36.9637 14.0674 36.3303 14.4508 36.6303C14.3174 36.3178 14.4966 36.447 14.3966 36.2136C14.4716 36.3386 14.5674 36.1428 14.6341 36.472C14.6383 36.497 14.6216 36.5011 14.5966 36.4511L14.6841 36.6303C14.9591 36.9053 14.7466 36.3595 14.8632 36.3595C14.8049 36.3178 14.7758 36.3511 14.7341 36.2178L14.8299 36.1928L14.8924 36.347L15.0632 36.3636L14.9466 36.1928C15.0591 36.2511 15.2507 36.547 15.1757 36.2511C15.1299 36.0886 14.9841 36.0386 15.0174 35.947C15.1674 36.0261 15.3924 36.147 15.5257 36.1428C15.4049 35.9428 15.4383 35.9345 15.4424 35.8761L15.5424 36.0511C15.5216 35.7428 15.7924 36.422 15.7966 36.1636L15.8549 36.2928L15.6841 35.9053C15.5966 35.497 15.9341 36.247 15.7882 35.7053C15.7591 35.7595 15.5591 35.322 15.6549 35.372L15.7341 35.5512C15.7466 35.497 15.7174 35.422 15.7549 35.447C15.7841 35.5512 15.8799 35.7012 15.9049 35.6512L15.9883 35.8845L15.9049 35.522C16.0674 35.672 16.0466 35.3886 16.2008 35.6178C16.2008 35.6178 16.4008 35.6636 16.2966 35.3803C16.3549 35.5595 16.4633 35.5845 16.5424 35.7928C16.4799 35.5845 16.5091 35.3762 16.6549 35.5553V35.5803C16.9216 35.7053 16.7883 35.1595 17.0549 35.3387C16.9424 35.1303 17.0758 35.2095 16.9216 34.9511C16.9383 34.6136 17.4632 35.3637 17.1049 34.5053C17.1507 34.4262 17.2799 34.6595 17.3383 34.6845V34.7345C17.4383 34.6053 17.4716 34.5761 17.5758 34.5511C17.5841 34.447 17.4049 34.0553 17.5341 34.1095C17.5799 34.2761 17.6008 34.2303 17.6341 34.2178C17.6258 34.2511 17.6466 34.3095 17.7383 34.397C17.7216 34.347 17.7174 34.3136 17.7132 34.2845C17.7174 34.297 17.7258 34.3053 17.7341 34.322C17.7591 34.2428 17.7299 34.197 17.6924 34.1886C17.6841 34.1636 17.6674 34.1345 17.6383 34.097C17.7883 34.272 17.7882 34.0095 17.9216 34.272C18.0507 34.1345 18.0383 33.8053 18.1258 33.6386C18.2049 33.7678 18.2299 33.9053 18.2174 33.9761L18.2882 33.8803C18.3799 34.0762 18.2883 34.0178 18.2758 34.072C18.5383 34.3386 18.3591 33.6428 18.6299 33.8761L18.5841 33.7053L18.6049 33.7262C18.5674 33.6428 18.5424 33.5178 18.5507 33.4803C18.6507 33.6428 18.7341 33.8762 18.7924 33.8345C18.9216 33.9762 18.9008 33.6845 18.9299 33.5595C18.8799 33.547 18.8466 33.447 18.8341 33.3761C18.8633 33.3553 18.9633 33.5178 18.9549 33.4345L19.0633 33.6678C18.9508 33.4553 19.0424 33.3928 19.0091 33.2928C19.1049 33.4553 19.0257 33.4636 19.0757 33.597C19.2007 33.5136 19.1383 33.5553 19.2591 33.472C19.2508 33.2637 19.1466 33.2553 19.0883 33.0386C19.1299 32.9636 19.1174 32.772 19.2549 32.8803L19.1383 32.6845C19.1841 32.472 19.2674 32.4637 19.4424 32.6387C19.5091 31.597 19.3049 30.997 19.0799 30.6553C18.8549 30.3178 18.6049 30.2428 18.6049 30.2428C18.0424 29.9428 18.1257 30.6303 17.7757 30.9845L17.7966 30.997Z" fill="#ACDE45"/>
<path d="M4.90806 44.7633L4.81641 44.73C4.85391 44.7508 4.89139 44.7633 4.90806 44.7633Z" fill="#ACDE45"/>
<path d="M3.56641 48.1885C3.56641 48.1885 3.57893 48.1927 3.58726 48.1968C3.57893 48.1927 3.57474 48.1885 3.56641 48.1885Z" fill="#ACDE45"/>
<path d="M1.80015 43.8425C1.80015 43.8425 1.78763 43.8341 1.7793 43.8258L1.80015 43.8425Z" fill="#ACDE45"/>
<path d="M2.43782 43.18C2.22532 43.3259 1.80864 43.1717 1.85031 43.4717C1.76698 43.5592 1.80031 43.7176 1.79614 43.8384C2.07947 44.0384 1.73366 43.9759 1.96699 44.1551L1.77946 44.0926C1.85863 44.1551 1.90865 44.2051 1.80448 44.1801L1.75449 44.1551C1.87532 44.2467 1.77946 44.2426 1.8378 44.2884L1.7878 44.2634V44.3092L1.72529 44.2675C1.84196 44.3842 1.82947 44.4426 1.74197 44.4592L1.95865 44.5551C1.67531 44.5426 2.10029 44.78 1.77529 44.7425L1.72529 44.7176C2.24612 45.0801 1.25865 44.7301 1.75031 45.0801C1.68781 45.0384 1.6378 45.0384 1.58364 45.0134C1.62114 45.0926 1.62948 45.1634 2.05864 45.3426C2.03781 45.3801 1.91281 45.3175 1.74614 45.255C1.93364 45.3342 1.99613 45.3967 1.99613 45.4342L1.9295 45.3926L1.95865 45.5051L2.32115 45.6342C2.20031 45.6342 1.88364 45.4717 1.95031 45.5509L2.24612 45.6675C2.16279 45.705 1.70033 45.5634 1.45867 45.5426C1.22533 45.7634 1.88781 46.3176 1.27531 46.3759L1.04612 46.3092C0.712788 46.2009 1.51279 46.5425 1.20446 46.4509L1.34616 46.5301C1.28366 46.5176 1.217 46.5134 1.14617 46.4759C1.12533 46.4967 1.17947 46.5175 1.27114 46.5675L1.05446 46.5301C0.858629 46.5842 1.22947 46.8009 1.1128 46.8884C0.646135 46.8926 0.962788 47.2676 1.15029 47.4759C1.59612 47.8092 0.191989 47.7009 0.716989 48.0634C0.666989 48.0592 0.771144 48.1009 0.808644 48.1134L0.712818 48.2967C0.712818 48.2967 0.625314 48.5259 0.916981 48.7384C1.20448 48.9551 1.8753 49.1217 3.3503 49.1092L3.42115 49.1301C3.62115 49.0759 3.67115 49.0301 3.31698 48.8842C3.77532 48.9801 3.38366 48.8217 3.53366 48.8342L3.57115 48.8467C3.23365 48.705 3.88783 48.8051 3.58783 48.6759C3.62533 48.6884 3.74612 48.7176 3.75445 48.7342C3.70445 48.6801 3.62115 48.6051 3.88365 48.6676C3.83781 48.5592 3.992 48.4634 3.58783 48.2925L3.65863 48.3176C3.38363 48.2051 3.62946 48.2634 3.49612 48.1842C3.52946 48.1925 3.5503 48.1967 3.5628 48.1967C3.29197 48.0842 3.55033 48.0759 3.43783 48.0134L3.6128 48.0592L3.592 47.9759L3.54612 47.9926C3.07112 47.8426 3.86281 48.0259 3.56697 47.8801C3.64197 47.8509 2.60866 47.48 2.85866 47.4967C2.642 47.4009 3.21282 47.6301 3.05448 47.5384C3.30448 47.6134 3.20447 47.605 3.40447 47.655C3.3003 47.58 3.67531 47.6759 3.52115 47.5759L3.7128 47.6342C3.37946 47.4634 4.00032 47.605 3.67948 47.4592C3.54198 47.3467 4.26284 47.6051 3.90867 47.4217L4.17529 47.4842C4.22529 47.4717 3.86282 47.3592 4.00032 47.3717C4.16282 47.4301 4.14197 47.38 4.29197 47.4467C4.56697 47.4717 3.97529 47.1926 4.43362 47.2592C4.12529 47.1301 4.32532 47.1551 4.09615 47.0551C4.23365 47.1009 4.15034 46.9759 4.4295 47.1342C4.4545 47.1467 4.44613 47.1509 4.39197 47.1342L4.57533 47.2092C4.94616 47.2926 4.41279 47.0509 4.48362 47.0259C4.41695 47.0175 4.42532 47.0425 4.30448 46.98L4.34614 46.9467L4.5003 47.0134L4.61698 46.9842L4.42116 46.9217C4.53366 46.9259 4.86697 47.0426 4.60447 46.9009C4.45864 46.8259 4.33363 46.83 4.28363 46.7759C4.43363 46.7842 4.6545 46.7967 4.73366 46.7675C4.51283 46.6884 4.52946 46.6759 4.49196 46.6426L4.67949 46.7175C4.44199 46.555 5.1003 46.8634 4.91697 46.7259L5.04616 46.7842L4.65864 46.6092C4.30864 46.405 5.05866 46.7426 4.57533 46.4759C4.59616 46.5134 4.15865 46.3176 4.25031 46.3217L4.4295 46.405C4.39617 46.3717 4.32533 46.3384 4.36699 46.3426C4.45866 46.3926 4.6253 46.4551 4.60447 46.4217L4.82532 46.5301L4.51282 46.3509C4.72115 46.4009 4.5003 46.2467 4.75864 46.3384C4.75864 46.3384 4.91279 46.3217 4.64196 46.1884C4.80862 46.2759 4.88782 46.2676 5.08782 46.3676C4.90032 46.2676 4.76698 46.1426 4.97948 46.2134L5.00033 46.2259C5.24617 46.2426 4.77112 45.9634 5.05862 46.0092C4.84196 45.9134 4.9753 45.9301 4.7003 45.8134C4.46696 45.6134 5.31279 45.9425 4.48779 45.5175C4.45863 45.4634 4.70446 45.5717 4.75446 45.5759L4.79612 45.6051C4.75862 45.5092 4.75863 45.4884 4.80029 45.4509C4.72946 45.3884 4.34615 45.1926 4.45865 45.1967C4.60448 45.2884 4.58363 45.2551 4.59196 45.2384C4.61279 45.2592 4.66699 45.2925 4.77949 45.3217C4.73366 45.2967 4.70866 45.2759 4.68366 45.2592C4.69616 45.2634 4.70448 45.2676 4.72115 45.2759C4.67948 45.2217 4.62947 45.205 4.60447 45.205C4.57947 45.1925 4.55031 45.18 4.50865 45.1592C4.72115 45.23 4.53362 45.0759 4.79612 45.205C4.77529 45.0967 4.53366 44.9009 4.46699 44.7801C4.60449 44.8426 4.71697 44.9217 4.75864 44.9676L4.73366 44.8967C4.92533 45.0009 4.82947 44.9801 4.8628 45.0176C5.20447 45.1301 4.61282 44.7426 4.93365 44.8301L4.78783 44.7342L4.81697 44.7425C4.73781 44.7009 4.63782 44.6259 4.61698 44.6009C4.78782 44.6842 5.00029 44.8092 5.00863 44.7717C5.18363 44.8342 4.967 44.6592 4.89617 44.5759C4.85867 44.5759 4.77115 44.5217 4.71698 44.48C4.71698 44.4592 4.89198 44.5426 4.82532 44.4926L5.05033 44.6176C4.83783 44.5051 4.84614 44.4509 4.75864 44.3926C4.92947 44.4759 4.88779 44.4967 5.00863 44.5717C5.02529 44.4967 5.01698 44.5342 5.02948 44.4592C4.87948 44.3301 4.817 44.3467 4.6295 44.2175C4.6045 44.1634 4.46698 44.0426 4.61698 44.0842L4.41282 43.9801C4.29199 43.8342 4.33781 43.8134 4.55864 43.8884C3.89198 43.2009 3.37116 42.8384 3.00866 42.6634C2.64616 42.4884 2.442 42.4967 2.442 42.4967C1.892 42.4342 2.40448 42.8717 2.42948 43.1842L2.43782 43.18Z" fill="#ACDE45"/>
</svg>
