<svg width="103" height="167" viewBox="0 0 103 167" fill="none" xmlns="http://www.w3.org/2000/svg">
<path d="M101.837 1.97347L101.741 1.95679C101.783 1.97345 101.82 1.9818 101.837 1.97347Z" fill="#20BB65"/>
<path d="M100.242 5.85669C100.242 5.85669 100.251 5.86503 100.259 5.8692C100.255 5.86503 100.246 5.86086 100.242 5.85669Z" fill="#20BB65"/>
<path d="M98.554 1.43585C98.554 1.43585 98.5415 1.42751 98.5332 1.42334L98.554 1.43585Z" fill="#20BB65"/>
<path d="M99.0667 0.798253C98.8876 0.952419 98.4459 0.848248 98.5459 1.10658C98.4751 1.18575 98.5376 1.32326 98.5542 1.43576C98.8667 1.60243 98.5126 1.55662 98.7709 1.71495L98.5751 1.6649C98.6626 1.71907 98.7168 1.76493 98.6126 1.74409L98.5584 1.72324C98.6876 1.80241 98.5959 1.80242 98.6584 1.84409L98.6042 1.82324L98.6168 1.86494L98.5418 1.82741C98.6751 1.93157 98.6626 1.98159 98.5792 1.99825L98.8043 2.08157C98.5168 2.07323 98.9709 2.28992 98.6418 2.25242L98.5876 2.23161C99.1376 2.57328 98.1209 2.23158 98.6376 2.56492C98.5751 2.52325 98.5209 2.52323 98.4667 2.49823C98.5126 2.57323 98.5251 2.63991 98.9626 2.81908C98.9417 2.85241 98.8126 2.78992 98.6418 2.72742C98.8334 2.80659 98.9001 2.86911 98.9001 2.90244L98.8293 2.85661L98.8626 2.96495L99.2334 3.10243C99.1126 3.10243 98.7876 2.92744 98.8584 3.00661L99.1584 3.13158C99.0751 3.16491 98.6042 3.00657 98.3626 2.96907C98.1376 3.14407 98.7876 3.73159 98.1667 3.71492L97.9376 3.62326C97.6084 3.4816 98.3917 3.90243 98.0876 3.77326L98.2251 3.86491C98.1626 3.84408 98.0959 3.8316 98.0292 3.78577C98.0042 3.80244 98.0584 3.82744 98.1501 3.88994L97.9376 3.82326C97.7376 3.83992 98.0959 4.09828 97.9709 4.15661C97.5084 4.07744 97.7834 4.46908 97.9418 4.70242C98.3376 5.11492 96.9584 4.68576 97.4168 5.1316C97.3668 5.11493 97.4626 5.18161 97.5001 5.19828L97.3709 5.33576C97.3709 5.33576 97.2418 5.51492 97.4751 5.79408C97.7126 6.06908 98.3043 6.45657 99.7834 6.82741L99.8501 6.86911C100.067 6.86078 100.138 6.81908 99.8209 6.57742C100.254 6.78575 99.9043 6.52324 100.054 6.56908L100.088 6.58993C99.7876 6.36493 100.421 6.60662 100.154 6.40245C100.188 6.42328 100.304 6.48161 100.304 6.49828C100.271 6.43161 100.204 6.32744 100.454 6.44828C100.438 6.31911 100.621 6.23578 100.254 5.97744L100.321 6.01493C100.067 5.84826 100.304 5.94824 100.183 5.83991C100.217 5.85241 100.233 5.86077 100.25 5.86493C100 5.6941 100.263 5.73159 100.163 5.64409L100.329 5.72328V5.62741L100.279 5.63992C99.8251 5.41075 100.596 5.71907 100.325 5.51907C100.408 5.49407 99.4167 4.96075 99.6667 5.01075C99.4626 4.88158 100.008 5.19826 99.8584 5.0816C100.1 5.1941 100 5.16911 100.196 5.25245C100.1 5.16078 100.471 5.30659 100.329 5.18159L100.517 5.26908C100.204 5.04824 100.817 5.26909 100.508 5.07326C100.383 4.93992 101.088 5.28578 100.75 5.04828L101.017 5.13994C101.071 5.1316 100.713 4.97741 100.85 5.00241C101.008 5.07741 100.996 5.01907 101.142 5.10657C101.425 5.14824 100.85 4.79828 101.321 4.88995C101.017 4.73161 101.225 4.76491 100.996 4.64408C101.133 4.70241 101.063 4.55657 101.333 4.74407C101.354 4.76074 101.346 4.76491 101.296 4.74407L101.479 4.83161C101.858 4.93161 101.329 4.6441 101.408 4.61493C101.338 4.60243 101.346 4.6316 101.225 4.56076L101.271 4.51911L101.425 4.59825L101.55 4.56076L101.35 4.48574C101.467 4.49408 101.804 4.62327 101.546 4.46077C101.4 4.37744 101.267 4.38162 101.225 4.31912C101.379 4.32745 101.613 4.33993 101.696 4.29826C101.475 4.21076 101.488 4.19828 101.45 4.16078L101.642 4.23992C101.404 4.06076 102.071 4.39409 101.892 4.23575L102.021 4.29826L101.629 4.1149C101.275 3.89407 102.042 4.24824 101.55 3.96491C101.571 4.00658 101.121 3.8024 101.221 3.8024L101.404 3.88577C101.371 3.85243 101.296 3.81492 101.342 3.81909C101.438 3.86909 101.608 3.93578 101.588 3.89828L101.813 4.01074L101.492 3.81909C101.704 3.86075 101.483 3.69827 101.75 3.78994C101.75 3.78994 101.913 3.7566 101.633 3.62326C101.804 3.71076 101.892 3.69411 102.096 3.78994C101.904 3.68577 101.763 3.55659 101.988 3.61492L102.008 3.63161C102.267 3.62327 101.771 3.34827 102.075 3.3691C101.85 3.28577 101.988 3.28574 101.7 3.18574C101.45 2.98991 102.346 3.24825 101.471 2.87742C101.438 2.81908 101.696 2.91078 101.75 2.90661L101.792 2.93575C101.746 2.83159 101.746 2.80657 101.792 2.76074C101.717 2.69824 101.304 2.53993 101.421 2.52743C101.579 2.6066 101.558 2.57324 101.563 2.55657C101.583 2.57741 101.642 2.60659 101.763 2.62325C101.713 2.60242 101.683 2.58575 101.658 2.56909C101.671 2.57325 101.683 2.57743 101.7 2.5816C101.654 2.52743 101.6 2.51492 101.571 2.51909C101.546 2.51075 101.513 2.49827 101.467 2.48577C101.692 2.53161 101.488 2.38994 101.771 2.48994C101.742 2.37328 101.471 2.19823 101.392 2.08157C101.542 2.1274 101.663 2.18995 101.713 2.23578L101.679 2.16076C101.888 2.23576 101.788 2.23576 101.825 2.2691C102.188 2.32326 101.533 2.01075 101.875 2.04408L101.713 1.96911H101.742C101.654 1.94411 101.542 1.88161 101.517 1.86077C101.704 1.91494 101.938 2.01078 101.942 1.96911C102.129 2.00244 101.883 1.85241 101.8 1.77741C101.763 1.78991 101.663 1.74412 101.6 1.71495C101.6 1.69412 101.788 1.74827 101.713 1.70244L101.963 1.78575C101.725 1.71075 101.729 1.64828 101.629 1.60661C101.817 1.66078 101.779 1.68993 101.913 1.74409C101.913 1.66076 101.913 1.7024 101.917 1.6149C101.742 1.51074 101.679 1.53994 101.467 1.44828C101.429 1.39411 101.271 1.30241 101.433 1.31074L101.208 1.24823C101.058 1.12323 101.096 1.0941 101.338 1.12326C100.521 0.573265 99.9084 0.352403 99.5084 0.260736C99.1042 0.16907 98.9126 0.206567 98.9126 0.206567C98.3626 0.227401 98.9751 0.531602 99.0709 0.814935L99.0667 0.798253Z" fill="#20BB65"/>
<path d="M93.588 15.8607L93.4922 15.8232C93.5255 15.8524 93.563 15.8691 93.588 15.8607Z" fill="#20BB65"/>
<path d="M87.75 22.0774C87.75 22.0774 87.7542 22.0899 87.7583 22.0982C87.7583 22.0899 87.7542 22.0816 87.75 22.0774Z" fill="#20BB65"/>
<path d="M90.2752 14.7108C90.2752 14.7108 90.2669 14.6941 90.2627 14.6858L90.2752 14.7108Z" fill="#20BB65"/>
<path d="M91.5377 13.6315C91.171 13.8899 90.7543 13.6815 90.6043 14.1399C90.4376 14.2774 90.371 14.5149 90.2751 14.7107C90.4751 15.0149 90.1001 14.919 90.2418 15.2024L90.0626 15.1023C90.1126 15.1982 90.1293 15.2815 90.0252 15.2399L89.9835 15.1982C90.0585 15.344 89.946 15.3357 89.9835 15.4065L89.9418 15.3648L89.9127 15.4357L89.8585 15.369C89.9085 15.5523 89.8418 15.6399 89.7251 15.6649L89.9085 15.8232C89.571 15.794 89.8918 16.1857 89.5293 16.1065L89.4876 16.0649C89.796 16.669 88.9168 16.0398 89.2001 16.6273C89.1668 16.5523 89.1002 16.5523 89.0585 16.5107C89.0335 16.6398 88.9793 16.7524 89.3252 17.0774C89.2627 17.1315 89.171 17.0232 89.0293 16.9065C89.1835 17.0482 89.196 17.1607 89.1627 17.2149L89.1251 17.1398L89.0501 17.319L89.3585 17.5648C89.2085 17.5565 88.9918 17.2524 89.0001 17.3857L89.2377 17.6107C89.1002 17.6648 88.6876 17.3815 88.4251 17.3065C87.9585 17.594 88.1418 18.5898 87.3835 18.5398L87.196 18.3815C86.9376 18.1357 87.471 18.8524 87.2251 18.6315L87.3001 18.7899C87.2418 18.7565 87.171 18.7315 87.1335 18.6523C87.0877 18.6815 87.1251 18.7232 87.1751 18.8274L86.9793 18.7107C86.7085 18.7357 86.8793 19.169 86.6585 19.2607C86.1502 19.1232 86.0793 19.769 86.0335 20.1482C86.1002 20.819 84.7835 20.1065 84.8918 20.8357C84.846 20.8065 84.9001 20.9148 84.9251 20.944L84.6085 21.1649C84.6085 21.1649 84.2418 21.4524 84.2501 21.894C84.2626 22.3357 84.6418 22.944 86.171 23.5565L86.2168 23.619C86.5043 23.6149 86.6335 23.5524 86.4793 23.1607C86.821 23.4982 86.6418 23.0774 86.7877 23.1607L86.8126 23.194C86.6585 22.8315 87.221 23.2357 87.0918 22.9065C87.1126 22.9399 87.2002 23.0357 87.1835 23.0607C87.2127 22.9524 87.2293 22.7899 87.4251 22.9899C87.5376 22.7857 87.8543 22.6648 87.6502 22.244L87.696 22.3065C87.5501 22.0315 87.7418 22.2024 87.7002 22.0274C87.7293 22.0524 87.746 22.0607 87.7543 22.0732C87.6127 21.7982 87.9085 21.8607 87.871 21.7232L88.0043 21.8524L88.1002 21.6982L88.0251 21.7149C87.6876 21.3315 88.3418 21.8524 88.2043 21.5274C88.3335 21.4899 87.6376 20.5982 87.9001 20.6898C87.7751 20.4773 88.1335 21.0024 88.0668 20.8107C88.2543 20.9982 88.1543 20.9607 88.3168 21.094C88.2918 20.944 88.6085 21.1899 88.5585 20.9857L88.7085 21.1315C88.5418 20.7649 89.0877 21.144 88.9002 20.819C88.8835 20.5982 89.4002 21.1898 89.221 20.794L89.4585 20.9524C89.5376 20.9399 89.2502 20.6774 89.396 20.7232C89.5168 20.8524 89.5585 20.7607 89.6501 20.9065C89.9626 20.9899 89.6043 20.3982 90.0835 20.5732C89.871 20.2982 90.0918 20.3648 89.9335 20.1607C90.046 20.2607 90.1001 20.0232 90.2501 20.3399C90.2626 20.3649 90.246 20.3774 90.2043 20.3315L90.3377 20.4857C90.696 20.669 90.3418 20.1815 90.4668 20.1357C90.3918 20.1149 90.3751 20.1607 90.296 20.0399L90.3918 19.9774L90.5001 20.1148L90.6876 20.0648L90.521 19.9315C90.6543 19.9482 90.9377 20.1773 90.7835 19.9023C90.6918 19.7565 90.5252 19.7607 90.5377 19.6524C90.7168 19.6732 90.9876 19.7107 91.1293 19.6524C90.946 19.4982 90.9793 19.4774 90.971 19.4149L91.1251 19.5565C91.0168 19.2524 91.4918 19.8315 91.4293 19.5649L91.5251 19.6732L91.2376 19.3482C91.0293 18.969 91.6001 19.5899 91.2918 19.0982C91.2793 19.1649 90.9418 18.8023 91.0543 18.8148L91.1876 18.9648C91.1876 18.9065 91.1335 18.8399 91.1793 18.8482C91.2418 18.9399 91.3835 19.0565 91.4002 18.9899L91.5543 19.1899L91.3626 18.8565C91.5793 18.9398 91.471 18.6565 91.7001 18.8232C91.7001 18.8232 91.9251 18.7815 91.7293 18.544C91.846 18.7023 91.9668 18.6773 92.1126 18.8523C91.9835 18.669 91.9502 18.4482 92.1585 18.5607L92.171 18.5857C92.4876 18.5899 92.171 18.1024 92.5085 18.1607C92.3251 18.0065 92.4877 18.019 92.2418 17.8315C92.146 17.4857 92.9418 17.9898 92.2793 17.3023C92.3001 17.2023 92.5127 17.3732 92.5793 17.3732L92.6043 17.4232C92.6543 17.2482 92.6793 17.2065 92.7751 17.1315C92.746 17.0232 92.421 16.7274 92.571 16.7149C92.6793 16.8565 92.6835 16.8023 92.7126 16.7732C92.7126 16.8107 92.7585 16.8607 92.8835 16.8982C92.846 16.8565 92.8293 16.8274 92.8168 16.7982C92.8293 16.8065 92.8376 16.8107 92.8501 16.8273C92.8501 16.7357 92.8002 16.7065 92.7585 16.7149C92.7377 16.694 92.7126 16.6774 92.6668 16.6524C92.8835 16.7482 92.7835 16.494 93.0168 16.6857C93.096 16.4857 92.9543 16.1732 92.9751 15.969C93.1043 16.0565 93.1835 16.1732 93.2002 16.2523L93.2335 16.1232C93.4043 16.269 93.2876 16.2607 93.296 16.3148C93.6626 16.4398 93.2126 15.8565 93.571 15.9398L93.4585 15.7982L93.4877 15.8107C93.4168 15.7524 93.3418 15.6399 93.3335 15.6024C93.496 15.7107 93.6752 15.8899 93.721 15.819C93.9085 15.8899 93.771 15.6148 93.7418 15.4815C93.6877 15.4982 93.6126 15.4149 93.5751 15.3565C93.596 15.319 93.7627 15.4274 93.7168 15.3482L93.921 15.5107C93.721 15.3649 93.7835 15.2565 93.7085 15.1774C93.8751 15.2815 93.796 15.3315 93.9043 15.4357C93.9918 15.2899 93.946 15.3648 94.0335 15.219C93.9377 15.0273 93.8293 15.0732 93.6793 14.894C93.6876 14.8023 93.596 14.6274 93.7752 14.6565L93.5751 14.5315C93.5251 14.3065 93.6002 14.2523 93.846 14.3232C93.4418 13.3065 92.9626 12.869 92.5918 12.6732C92.221 12.4774 91.9585 12.5315 91.9585 12.5315C91.3043 12.5315 91.7002 13.1149 91.5293 13.6107L91.5377 13.6315Z" fill="#20BB65"/>
<path d="M77.5706 30.5691L77.4873 30.5107C77.5165 30.5441 77.5456 30.5732 77.5706 30.5691Z" fill="#20BB65"/>
<path d="M70.7422 35.5356C70.7422 35.5356 70.7422 35.5482 70.7464 35.5565C70.7464 35.5482 70.7464 35.5398 70.7422 35.5356Z" fill="#20BB65"/>
<path d="M74.5835 28.7274C74.5835 28.7274 74.5794 28.7107 74.5752 28.7024L74.5835 28.7274Z" fill="#20BB65"/>
<path d="M76.0796 27.9357C75.6587 28.1066 75.2921 27.8149 75.0421 28.2357C74.8462 28.3357 74.7254 28.5566 74.5879 28.7274C74.717 29.0691 74.3671 28.8983 74.4462 29.2066L74.2921 29.0732C74.3171 29.1774 74.3212 29.2608 74.2254 29.1983L74.1921 29.1483C74.2337 29.3066 74.1254 29.2733 74.1421 29.3524L74.1087 29.3024L74.0629 29.3691L74.0254 29.2941C74.0337 29.4858 73.9504 29.5608 73.8296 29.5608L73.9796 29.7524C73.6504 29.6566 73.8879 30.1066 73.5462 29.9607L73.5129 29.9107C73.6962 30.5649 72.9546 29.7816 73.1129 30.4149C73.0921 30.3357 73.0296 30.3232 72.9962 30.2732C72.9462 30.3941 72.8712 30.4941 73.1462 30.8816C73.0754 30.9233 73.0046 30.7983 72.8879 30.6566C73.0087 30.8233 73.0046 30.9358 72.9587 30.9858L72.9337 30.9024L72.8254 31.0691L73.0837 31.3649C72.9379 31.3316 72.7837 30.9899 72.7629 31.1233L72.9546 31.3858C72.8087 31.4108 72.4546 31.0607 72.2087 30.9399C71.6879 31.1399 71.692 32.1566 70.9462 31.9816L70.7879 31.7941C70.5754 31.5066 70.9796 32.3066 70.7712 32.0482L70.8171 32.2149C70.7671 32.1733 70.7004 32.1358 70.6754 32.0524C70.6212 32.0733 70.6545 32.1191 70.6837 32.2316L70.5087 32.0816C70.2337 32.0649 70.3296 32.5191 70.0962 32.5774C69.6129 32.3608 69.4337 32.9941 69.3295 33.3608C69.292 34.0358 68.0879 33.1358 68.0837 33.8774C68.0421 33.8441 68.0796 33.9566 68.1004 33.9899L67.7504 34.1649C67.7504 34.1649 66.1129 35.1108 68.9629 36.7566L68.9962 36.8274C69.2796 36.8649 69.4171 36.8232 69.3171 36.4149C69.6087 36.7982 69.4921 36.3566 69.6212 36.4566L69.6379 36.4899C69.5379 36.1108 70.0337 36.5899 69.9504 36.2482C69.9671 36.2816 70.0421 36.3941 70.0212 36.4149C70.0629 36.3149 70.1046 36.1524 70.2712 36.3816C70.4087 36.1983 70.7379 36.1274 70.6004 35.6816L70.6379 35.7524C70.5337 35.4608 70.6962 35.6566 70.6837 35.4816C70.7087 35.5107 70.7254 35.5191 70.7337 35.5357C70.6379 35.2399 70.9171 35.3524 70.9046 35.2066L71.0129 35.3566L71.1296 35.2232H71.0546C70.7837 34.7941 71.3462 35.4149 71.2587 35.0733C71.392 35.0566 70.8504 34.0649 71.0921 34.2024C71.0046 33.9733 71.2712 34.5483 71.2379 34.3483C71.3921 34.5649 71.3004 34.5066 71.4379 34.6691C71.4379 34.5149 71.7087 34.8107 71.6921 34.6024L71.8129 34.7691C71.7087 34.3816 72.1837 34.8441 72.0504 34.4941C72.0671 34.2732 72.4837 34.9441 72.3712 34.5274L72.5796 34.7233C72.6587 34.7233 72.4171 34.4149 72.5546 34.4857C72.6546 34.6316 72.7087 34.5483 72.7712 34.7108C73.0629 34.8441 72.8087 34.2024 73.2504 34.4649C73.0879 34.1566 73.2921 34.2649 73.1712 34.0316C73.2629 34.1524 73.3587 33.9274 73.4504 34.2608C73.4587 34.2899 73.4379 34.2941 73.4087 34.2483L73.5171 34.4233C73.8379 34.6691 73.5712 34.1233 73.7045 34.1024C73.6379 34.0691 73.6087 34.1107 73.5546 33.9774L73.6587 33.9358L73.7379 34.0899L73.9296 34.0774L73.7879 33.9191C73.9171 33.9607 74.1504 34.2399 74.0462 33.9399C73.9837 33.7774 73.8171 33.7524 73.8462 33.6482C74.0171 33.7024 74.2754 33.7857 74.4254 33.7566C74.2754 33.5691 74.3087 33.5566 74.3129 33.4941L74.4379 33.6607C74.3879 33.3399 74.7462 33.9983 74.7296 33.7274L74.8046 33.8524L74.5837 33.4774C74.4504 33.0691 74.8921 33.7857 74.6837 33.2441C74.6587 33.3066 74.3921 32.8899 74.5046 32.9191L74.6087 33.0899C74.6171 33.0316 74.5754 32.9566 74.6212 32.9774C74.6671 33.0774 74.7837 33.2191 74.8087 33.1608L74.9254 33.3857L74.7962 33.0232C74.992 33.1482 74.9379 32.8524 75.1337 33.0608C75.1337 33.0608 75.3629 33.0649 75.2129 32.7941C75.2962 32.9691 75.4212 32.9733 75.5295 33.1691C75.4379 32.9649 75.4462 32.7399 75.6254 32.8941L75.6337 32.9232C75.9379 32.9941 75.7254 32.4566 76.0421 32.5774C75.8921 32.3899 76.0504 32.4357 75.8462 32.2024C75.8171 31.8441 76.4962 32.5024 75.9879 31.6941C76.0254 31.6024 76.2046 31.8107 76.2671 31.8274L76.2795 31.8816C76.3629 31.7232 76.3962 31.6858 76.5046 31.6358C76.4962 31.5274 76.2421 31.1649 76.3921 31.1858C76.4712 31.3483 76.4837 31.2941 76.517 31.2691C76.517 31.3066 76.5462 31.3649 76.6587 31.4274C76.6337 31.3774 76.6212 31.3441 76.6129 31.3149C76.6212 31.3274 76.6296 31.3316 76.6421 31.3483C76.6587 31.2566 76.6171 31.2233 76.5754 31.2191C76.5587 31.1983 76.5379 31.1691 76.5004 31.1358C76.6921 31.2774 76.6462 31.0066 76.8337 31.2441C76.9546 31.0691 76.8796 30.7316 76.9462 30.5399C77.0546 30.6524 77.1046 30.7858 77.1046 30.8649L77.167 30.7482C77.3004 30.9274 77.1879 30.8941 77.1879 30.9482C77.5171 31.1524 77.2045 30.4858 77.5337 30.6483L77.4545 30.4857L77.4795 30.5024C77.4212 30.4274 77.3754 30.3024 77.3754 30.2649C77.5129 30.4066 77.6462 30.6233 77.7046 30.5649C77.8712 30.6774 77.7962 30.3774 77.8004 30.2441C77.7421 30.2441 77.692 30.1524 77.6629 30.0858C77.692 30.0566 77.8296 30.1941 77.8004 30.1107L77.9629 30.3191C77.8004 30.1316 77.8879 30.0399 77.8337 29.9482C77.9712 30.0899 77.8837 30.1191 77.9671 30.2441C78.0837 30.1233 78.0254 30.1857 78.1421 30.0649C78.0921 29.8524 77.9795 29.8774 77.8712 29.6691C77.9004 29.5816 77.8504 29.3899 78.0171 29.4608L77.8546 29.2941C77.8587 29.0608 77.9462 29.0316 78.1671 29.1566C78.0171 28.0733 77.6587 27.5316 77.3462 27.2524C77.0337 26.9732 76.7629 26.9649 76.7629 26.9649C76.1171 26.8108 76.3629 27.4816 76.0712 27.9274L76.0796 27.9357Z" fill="#20BB65"/>
<path d="M59.7383 42.7651L59.6592 42.7026C59.6842 42.7401 59.7133 42.7693 59.7383 42.7651Z" fill="#20BB65"/>
<path d="M52.6631 47.2898C52.6631 47.2898 52.6631 47.3023 52.6673 47.3106C52.6673 47.3023 52.6673 47.294 52.6631 47.2898Z" fill="#20BB65"/>
<path d="M56.8841 40.7025C56.8841 40.7025 56.884 40.6858 56.8799 40.6775V40.7025H56.8841Z" fill="#20BB65"/>
<path d="M58.4547 40.019C58.0172 40.1565 57.6713 39.8398 57.3838 40.2398C57.1797 40.3273 57.038 40.5398 56.888 40.6981C56.9922 41.0481 56.6547 40.8523 56.713 41.1648L56.5672 41.0232C56.588 41.1315 56.5838 41.2148 56.488 41.1439L56.4589 41.094C56.488 41.2565 56.3797 41.2148 56.3963 41.2982L56.3672 41.2481L56.3172 41.3106L56.2838 41.2357C56.2797 41.4273 56.1922 41.4981 56.0672 41.4898L56.2047 41.6898C55.8838 41.5731 56.088 42.0398 55.7547 41.869L55.7255 41.819C55.8672 42.4857 55.1714 41.6565 55.288 42.2981C55.2714 42.219 55.2089 42.2023 55.1797 42.1481C55.1214 42.269 55.038 42.3606 55.2922 42.7648C55.2172 42.8023 55.1547 42.6773 55.0464 42.5273C55.1589 42.7023 55.1463 42.8148 55.0963 42.8607L55.0797 42.7773L54.963 42.9356L55.2047 43.2481C55.063 43.2065 54.9255 42.8565 54.8964 42.9898L55.0714 43.2648C54.9214 43.2815 54.588 42.9106 54.3505 42.7773C53.813 42.9523 53.763 43.969 53.0255 43.7565L52.8755 43.5606C52.6755 43.2648 53.0422 44.0815 52.8463 43.8148L52.8839 43.9856C52.8339 43.9398 52.7672 43.9023 52.7505 43.819C52.6963 43.8356 52.7255 43.8857 52.7505 43.9982L52.5797 43.844C52.3047 43.8148 52.3797 44.2731 52.1422 44.3231C51.6672 44.0856 51.4588 44.7148 51.338 45.0773C51.2713 45.7523 50.1047 44.8065 50.0714 45.5523C50.0339 45.519 50.063 45.6315 50.0838 45.6648L49.7297 45.8314C49.7297 45.8314 48.0589 46.7273 50.8547 48.4606L50.888 48.5315C51.1714 48.5773 51.3047 48.5398 51.2214 48.1315C51.4964 48.5231 51.3963 48.0815 51.5213 48.1856L51.538 48.2232C51.4505 47.8398 51.9297 48.3398 51.8588 47.994C51.8755 48.0273 51.9422 48.1398 51.9214 48.1648C51.9672 48.0648 52.013 47.9065 52.1713 48.1398C52.3172 47.9606 52.6422 47.9065 52.5214 47.4565L52.5547 47.5273C52.4589 47.2315 52.6172 47.4356 52.613 47.2565C52.638 47.2856 52.6505 47.2981 52.6589 47.3106C52.5714 47.0148 52.8464 47.1356 52.838 46.9898L52.9422 47.144L53.0672 47.0148H52.9922C52.738 46.5732 53.2755 47.2148 53.2047 46.869C53.338 46.8607 52.838 45.844 53.0755 45.9898C52.9964 45.7565 53.2422 46.3439 53.2172 46.1439C53.363 46.3689 53.2714 46.3065 53.4047 46.4731C53.4089 46.319 53.6672 46.6273 53.663 46.419L53.7797 46.5898C53.6922 46.1981 54.1464 46.6815 54.0297 46.3273C54.0589 46.1065 54.4422 46.794 54.3464 46.3731L54.5463 46.5773C54.6255 46.5815 54.4005 46.2648 54.5339 46.3398C54.6255 46.4898 54.6839 46.4106 54.738 46.5731C55.0214 46.7231 54.8005 46.0689 55.2255 46.3523C55.0797 46.0398 55.2797 46.1523 55.1672 45.919C55.2505 46.044 55.3588 45.8273 55.4338 46.1648C55.438 46.194 55.4214 46.1981 55.3922 46.1481L55.488 46.3273C55.7964 46.5898 55.5588 46.0315 55.688 46.019C55.6213 45.9815 55.5922 46.019 55.5422 45.8856L55.6505 45.8523L55.7255 46.0106H55.9172L55.7839 45.8398C55.9089 45.8898 56.1297 46.1773 56.0422 45.8773C55.988 45.7148 55.8255 45.6773 55.8589 45.5773C56.0255 45.644 56.2797 45.7398 56.4297 45.719C56.2922 45.5232 56.3255 45.5107 56.3297 45.4523L56.4463 45.6231C56.413 45.3023 56.738 45.9815 56.7338 45.7107L56.8005 45.8398L56.6005 45.4523C56.488 45.0357 56.8922 45.7773 56.7088 45.2273C56.6797 45.2856 56.438 44.8564 56.5463 44.8939L56.638 45.0731C56.6464 45.0148 56.613 44.9398 56.6589 44.9606C56.6964 45.0648 56.8047 45.2107 56.8338 45.1523L56.938 45.3856L56.8297 45.019C57.0172 45.1565 56.9797 44.8565 57.163 45.0773C57.163 45.0773 57.388 45.0981 57.2547 44.8148C57.3297 44.994 57.4505 45.0065 57.5464 45.2106C57.4672 45.0023 57.488 44.7773 57.6589 44.944V44.9731C57.963 45.0648 57.7839 44.5148 58.0922 44.6606C57.9547 44.4606 58.1088 44.5231 57.9213 44.2731C57.9172 43.9148 58.5464 44.6148 58.0922 43.7773C58.138 43.6898 58.2963 43.9106 58.363 43.9273L58.3713 43.9815C58.463 43.8315 58.5005 43.7981 58.613 43.7523C58.613 43.644 58.3838 43.2648 58.5297 43.2981C58.5963 43.4648 58.613 43.4148 58.6464 43.394C58.638 43.4315 58.6672 43.4898 58.7755 43.5606C58.7505 43.5106 58.7422 43.4773 58.738 43.4481C58.7463 43.4606 58.7547 43.469 58.763 43.4857C58.7838 43.3982 58.7463 43.3565 58.7088 43.3523C58.6963 43.3273 58.6755 43.3023 58.6422 43.2648C58.8214 43.419 58.7963 43.1481 58.9672 43.3981C59.0963 43.2315 59.0505 42.8939 59.1297 42.7064C59.2297 42.8273 59.2714 42.9648 59.263 43.0398L59.3338 42.9273C59.4547 43.1148 59.3463 43.0731 59.338 43.1273C59.6505 43.3565 59.388 42.669 59.7047 42.8607L59.638 42.694L59.663 42.7148C59.613 42.6356 59.5755 42.5106 59.5797 42.4731C59.7047 42.6231 59.8213 42.8523 59.8838 42.7982C60.038 42.9232 59.988 42.619 60.0005 42.4857C59.9422 42.4857 59.8963 42.3856 59.8797 42.3148C59.9088 42.2856 60.0338 42.4398 60.0172 42.3523L60.163 42.5731C60.0172 42.3731 60.1088 42.2898 60.063 42.194C60.188 42.344 60.1005 42.3689 60.1713 42.4981C60.2963 42.3898 60.2339 42.444 60.3589 42.3357C60.3255 42.1232 60.213 42.1357 60.1213 41.919C60.1588 41.8357 60.1214 41.6398 60.2839 41.7273L60.1338 41.5482C60.1588 41.319 60.2463 41.294 60.4547 41.4398C60.338 39.2648 59.2422 39.1356 59.2422 39.1356C58.6047 38.9273 58.788 39.619 58.4589 40.0398L58.4547 40.019Z" fill="#20BB65"/>
<path d="M41.5918 54.3108L41.5127 54.2483C41.5377 54.2858 41.5668 54.315 41.5918 54.3108Z" fill="#20BB65"/>
<path d="M34.667 58.99C34.667 58.99 34.667 59.0025 34.6712 59.0108C34.6712 59.0025 34.6712 58.9942 34.667 58.99Z" fill="#20BB65"/>
<path d="M38.7259 52.286C38.7259 52.286 38.7258 52.2693 38.7217 52.261V52.286H38.7259Z" fill="#20BB65"/>
<path d="M40.292 51.5775C39.8545 51.7234 39.5086 51.4067 39.2211 51.8151C39.017 51.9067 38.8753 52.1234 38.7253 52.2859C38.8336 52.6359 38.492 52.4442 38.5545 52.7609L38.4045 52.6192C38.4253 52.7275 38.4211 52.8109 38.3295 52.7442L38.3003 52.6942C38.3295 52.8567 38.2211 52.8192 38.2378 52.8984L38.2086 52.8484L38.1586 52.9109L38.1253 52.8359C38.1253 53.0276 38.0336 53.0984 37.9128 53.0942L38.0545 53.29C37.7295 53.1817 37.942 53.6401 37.6045 53.4776L37.5753 53.4276C37.7253 54.0901 37.017 53.2775 37.1461 53.9192C37.1295 53.84 37.067 53.8234 37.0378 53.7734C36.9795 53.8942 36.9003 53.99 37.1628 54.39C37.092 54.4317 37.0253 54.3026 36.9128 54.1567C37.0295 54.3317 37.017 54.44 36.9711 54.49L36.9503 54.4067L36.8336 54.5692L37.0836 54.8776C36.9378 54.8401 36.7961 54.4942 36.7711 54.6234L36.9545 54.8942C36.8045 54.915 36.4628 54.5525 36.2211 54.4275C35.6878 54.6192 35.6628 55.6359 34.917 55.4484L34.7586 55.2567C34.5503 54.9651 34.9378 55.7734 34.7378 55.5109L34.7795 55.6775C34.7295 55.6359 34.6628 55.5984 34.642 55.5151C34.5878 55.5359 34.6211 55.5817 34.6503 55.6942L34.4753 55.5442C34.2003 55.5234 34.2878 55.9817 34.0503 56.04C33.567 55.8234 33.3753 56.4567 33.2711 56.8275C33.2336 57.5025 32.0211 56.615 32.017 57.3609C31.9753 57.3275 32.0128 57.4401 32.0378 57.4734L31.6878 57.6567C31.6878 57.6567 31.2795 57.9025 31.2336 58.3484C31.1878 58.7942 31.5086 59.4317 32.9461 60.2275L32.9836 60.2942C33.267 60.3276 33.4003 60.2817 33.292 59.8776C33.5878 60.2567 33.4628 59.8192 33.592 59.915L33.6086 59.9484C33.5045 59.5734 34.0045 60.0484 33.917 59.7025C33.9336 59.7359 34.0086 59.8442 33.9878 59.8692C34.0294 59.7692 34.067 59.6109 34.2336 59.8359C34.3711 59.6526 34.692 59.5859 34.5503 59.1401L34.5878 59.2109C34.4794 58.9192 34.6461 59.1151 34.6336 58.9401C34.6586 58.9692 34.6753 58.9776 34.6836 58.9942C34.5836 58.6984 34.8628 58.8109 34.8503 58.6692L34.9586 58.8192L35.0753 58.6859H35.0003C34.7295 58.2567 35.2878 58.8776 35.2045 58.5359C35.3378 58.5234 34.8003 57.5275 35.042 57.665C34.9545 57.4359 35.2211 58.015 35.1878 57.815C35.342 58.0317 35.2503 57.9775 35.3878 58.14C35.3878 57.9859 35.6545 58.2859 35.642 58.0775L35.7628 58.2442C35.6628 57.8525 36.1295 58.3234 36.0003 57.9734C36.0211 57.7525 36.4253 58.4276 36.317 58.0109L36.5211 58.2109C36.6003 58.2109 36.367 57.9025 36.5003 57.9734C36.5961 58.1234 36.6503 58.0401 36.7128 58.2026C36.9961 58.3442 36.7586 57.6984 37.1919 57.9692C37.0378 57.6609 37.2378 57.7692 37.1211 57.5359C37.2086 57.6567 37.3086 57.44 37.392 57.7734C37.4003 57.8025 37.3795 57.8067 37.3503 57.7567L37.4545 57.9317C37.767 58.1859 37.5128 57.6359 37.6461 57.6192C37.5795 57.5817 37.5503 57.6192 37.5003 57.4901L37.6045 57.4525L37.6836 57.6067L37.8753 57.5984L37.7378 57.4359C37.8628 57.4817 38.0878 57.765 37.9961 57.465C37.9378 57.3025 37.7753 57.2692 37.8086 57.1692C37.9753 57.2317 38.2295 57.3234 38.3795 57.3025C38.2378 57.1109 38.2711 57.0984 38.2753 57.0359L38.3961 57.2067C38.3545 56.8859 38.692 57.5567 38.6836 57.2859L38.7544 57.415L38.5461 57.0317C38.4253 56.6192 38.8419 57.3526 38.6503 56.8067C38.6211 56.8692 38.3753 56.44 38.4836 56.4775L38.5795 56.6526C38.5878 56.5942 38.5503 56.5192 38.5961 56.5401C38.6378 56.6442 38.7461 56.79 38.7753 56.7275L38.8836 56.9567L38.767 56.5901C38.9545 56.7234 38.9128 56.4276 39.1003 56.6442C39.1003 56.6442 39.3253 56.6609 39.1878 56.3817C39.2628 56.5609 39.3878 56.5692 39.4878 56.7734C39.4045 56.565 39.4211 56.3442 39.5961 56.5067V56.5359C39.9003 56.6234 39.7086 56.0775 40.0211 56.215C39.8836 56.0192 40.0336 56.0734 39.8461 55.8317C39.8336 55.4734 40.4753 56.1651 40.0086 55.3359C40.0503 55.2442 40.217 55.465 40.2795 55.4817L40.292 55.5359C40.3836 55.3817 40.4169 55.3484 40.5253 55.3026C40.5253 55.1942 40.2878 54.8192 40.4378 54.8484C40.5045 55.015 40.5253 54.9651 40.5586 54.9401C40.5545 54.9776 40.5795 55.0359 40.6878 55.1067C40.6628 55.0567 40.6545 55.0234 40.6503 54.9942C40.6586 55.0067 40.667 55.0151 40.6753 55.0317C40.6961 54.9442 40.6586 54.9025 40.617 54.9025C40.6045 54.8775 40.5836 54.8526 40.5461 54.8151C40.7295 54.9692 40.6961 54.6984 40.8711 54.9442C41.0003 54.7776 40.9461 54.4359 41.0211 54.2484C41.1211 54.3692 41.1628 54.5025 41.1586 54.5817L41.2253 54.4692C41.3461 54.6567 41.2378 54.6151 41.2336 54.6692C41.5503 54.8942 41.2795 54.2109 41.5961 54.3984L41.5295 54.2317L41.5545 54.2526C41.5045 54.1734 41.4628 54.0484 41.467 54.0109C41.592 54.1609 41.7086 54.3859 41.7711 54.3317C41.9253 54.4525 41.8711 54.1525 41.8878 54.0192C41.8336 54.0192 41.7836 53.9192 41.7628 53.8484C41.792 53.8192 41.917 53.9692 41.9003 53.8817L42.0461 54.0984C41.8961 53.8984 41.9878 53.815 41.942 53.7192C42.067 53.8692 41.9795 53.8942 42.0503 54.0234C42.1753 53.915 42.1128 53.9692 42.2336 53.8609C42.2003 53.6484 42.0836 53.6609 41.9961 53.4442C42.0336 53.3609 41.9961 53.165 42.1545 53.2484L42.0045 53.0692C42.0253 52.8401 42.1128 52.8151 42.3253 52.9609C42.2003 50.7817 41.1086 50.6609 41.1086 50.6609C40.4711 50.4609 40.6545 51.1484 40.3295 51.5775H40.292Z" fill="#20BB65"/>
<path d="M24.233 66.7734L24.1455 66.7192C24.1747 66.7526 24.2039 66.7776 24.233 66.7734Z" fill="#20BB65"/>
<path d="M18.1416 72.3608C18.1416 72.3608 18.1458 72.3734 18.1499 72.3817C18.1499 72.3734 18.1458 72.365 18.1416 72.3608Z" fill="#20BB65"/>
<path d="M21.1402 65.1026C21.1402 65.1026 21.136 65.086 21.1318 65.0776L21.1402 65.1026Z" fill="#20BB65"/>
<path d="M22.6327 64.2026C22.2077 64.3984 21.8285 64.1276 21.5869 64.5693C21.391 64.6859 21.2785 64.9192 21.1452 65.1026C21.2952 65.4359 20.9285 65.2901 21.0285 65.5984L20.8618 65.4776C20.8952 65.5817 20.9035 65.6651 20.7994 65.6109L20.7618 65.5651C20.8118 65.7193 20.6994 65.6984 20.7244 65.7776L20.6868 65.7317L20.6452 65.8026L20.5994 65.7317C20.6202 65.9234 20.541 66.0068 20.4202 66.0193L20.5868 66.1943C20.2493 66.1318 20.5202 66.5609 20.1618 66.4443L20.1244 66.3984C20.3619 67.0359 19.5452 66.3276 19.7619 66.9484C19.7369 66.8692 19.6702 66.8651 19.6327 66.8193C19.591 66.9484 19.5244 67.0567 19.841 67.4109C19.7744 67.4609 19.691 67.3442 19.5618 67.2151C19.6993 67.3692 19.7035 67.4818 19.666 67.5359L19.6327 67.4567L19.541 67.6359L19.8327 67.9026C19.6827 67.8859 19.491 67.5651 19.4868 67.6984L19.7077 67.9401C19.5619 67.9859 19.1702 67.6734 18.9118 67.5859C18.4035 67.8609 18.5327 68.8734 17.766 68.8151L17.5785 68.6526C17.3244 68.4026 17.841 69.1359 17.5952 68.9067L17.666 69.0651C17.6077 69.0317 17.5368 69.0067 17.5035 68.9276C17.4535 68.9567 17.4952 68.9984 17.541 69.1068L17.3452 68.9901C17.066 69.0193 17.2285 69.4567 17.0035 69.5567C16.4869 69.4317 16.4035 70.0984 16.366 70.4817C16.4493 71.1526 15.0868 70.5192 15.2202 71.2609C15.1743 71.2359 15.2327 71.3401 15.2619 71.3692L14.9494 71.6234C14.9494 71.6234 14.591 71.9567 14.6369 72.4026C14.6785 72.8526 15.1368 73.3984 16.7035 73.8817L16.7535 73.9401C17.0327 73.9151 17.1535 73.8484 16.966 73.4776C17.3327 73.7901 17.1202 73.3859 17.266 73.4567L17.291 73.4859C17.1119 73.1401 17.691 73.5067 17.5368 73.1901C17.5618 73.2192 17.6535 73.3109 17.641 73.3401C17.6577 73.2359 17.666 73.0734 17.8743 73.2609C17.9702 73.0568 18.266 72.9317 18.0452 72.5234L18.0952 72.5859C17.9369 72.3193 18.1327 72.4817 18.0868 72.3109C18.116 72.3317 18.1327 72.3401 18.1452 72.3526C17.9952 72.0817 18.2869 72.1442 18.2452 72.0026L18.3785 72.1318L18.4702 71.9817L18.3952 71.9984C18.0493 71.6234 18.7119 72.1359 18.566 71.8151C18.691 71.7818 17.9869 70.8943 18.2494 70.9859C18.1244 70.7734 18.4868 71.2984 18.416 71.1067C18.6035 71.2942 18.5035 71.2526 18.6702 71.3901C18.641 71.2401 18.9577 71.4859 18.9077 71.2859L19.0535 71.4317C18.8869 71.0651 19.4285 71.4526 19.241 71.1276C19.2244 70.9068 19.7369 71.5067 19.5577 71.1151L19.791 71.2776C19.866 71.2692 19.5869 70.9984 19.7285 71.0484C19.8494 71.1776 19.8869 71.0901 19.9744 71.2401C20.2785 71.3359 19.9327 70.7401 20.4035 70.9401C20.1993 70.6609 20.416 70.7359 20.2619 70.5276C20.3702 70.6317 20.4285 70.4068 20.566 70.7193C20.5785 70.7443 20.5619 70.7526 20.5202 70.7109L20.6494 70.8693C20.9952 71.0734 20.6577 70.5692 20.7827 70.5359C20.7119 70.5109 20.691 70.5526 20.616 70.4317L20.7118 70.3776L20.8118 70.5192L20.9952 70.4859L20.8368 70.3443C20.9702 70.3693 21.2327 70.6192 21.091 70.3359C21.0077 70.1859 20.841 70.1734 20.8577 70.0692C21.0327 70.1067 21.2952 70.1609 21.4368 70.1192C21.266 69.9526 21.2994 69.9318 21.2952 69.8734L21.4368 70.0234C21.3493 69.7151 21.7827 70.3276 21.7327 70.0609L21.8202 70.1776L21.5577 69.8318C21.3744 69.4401 21.8952 70.1067 21.6243 69.5942C21.6077 69.6567 21.2993 69.2734 21.4118 69.2942L21.5327 69.4568C21.5327 69.3984 21.4869 69.3276 21.5327 69.3442C21.5869 69.4401 21.7202 69.5692 21.7369 69.5067L21.8744 69.7193L21.7077 69.3734C21.9119 69.4776 21.8285 69.1901 22.041 69.3817C22.041 69.3817 22.2618 69.3693 22.0868 69.1109C22.1868 69.2776 22.3077 69.2693 22.4369 69.4568C22.3285 69.2651 22.3118 69.0401 22.5035 69.1817L22.5118 69.2068C22.816 69.2526 22.5535 68.7401 22.8743 68.8401C22.7118 68.6651 22.866 68.7026 22.6494 68.4818C22.591 68.1318 23.3118 68.7359 22.741 67.9734C22.7702 67.8776 22.9618 68.0776 23.0285 68.0859L23.0452 68.1359C23.116 67.9734 23.141 67.9359 23.2452 67.8776C23.2285 67.7692 22.9494 67.4276 23.0994 67.4401C23.1869 67.5943 23.1994 67.5442 23.2285 67.5192C23.2285 67.5567 23.2619 67.6109 23.3785 67.6692C23.3494 67.6234 23.3369 67.5901 23.3244 67.5609C23.3327 67.5692 23.341 67.5776 23.3535 67.5943C23.3619 67.5026 23.3202 67.4692 23.2785 67.4734C23.2619 67.4526 23.2369 67.4276 23.1994 67.3984C23.3994 67.5276 23.3327 67.2651 23.5369 67.4901C23.641 67.3109 23.5493 66.9776 23.5993 66.7859C23.7118 66.8942 23.7702 67.0234 23.7744 67.0984L23.8285 66.9817C23.9702 67.1526 23.8577 67.1234 23.8618 67.1818C24.1993 67.3693 23.8494 66.7234 24.1869 66.8734L24.0993 66.7151L24.1243 66.7317C24.066 66.6609 24.0119 66.5401 24.0119 66.4984C24.1535 66.6318 24.2952 66.8442 24.3494 66.7859C24.516 66.8901 24.4285 66.5984 24.4285 66.4651C24.3744 66.4651 24.316 66.3776 24.2869 66.3109C24.316 66.2817 24.4535 66.4151 24.4244 66.3318L24.5952 66.5317C24.4243 66.3526 24.5077 66.2567 24.4494 66.1651C24.591 66.3026 24.5077 66.3359 24.591 66.4526C24.6993 66.3318 24.6452 66.3901 24.7535 66.2692C24.6952 66.0609 24.5827 66.0859 24.4702 65.8818C24.4952 65.7943 24.4369 65.6026 24.6077 65.6693L24.441 65.5068C24.441 65.2776 24.5243 65.2401 24.7493 65.3651C24.5702 64.2901 24.2119 63.7443 23.8952 63.4734C23.5785 63.2026 23.2994 63.2026 23.2994 63.2026C22.6369 63.0734 22.891 63.7401 22.6118 64.2068L22.6327 64.2026Z" fill="#20BB65"/>
<path d="M10.3588 82.44L10.2588 82.4233C10.2963 82.4442 10.338 82.4567 10.3588 82.44Z" fill="#20BB65"/>
<path d="M7.11719 89.9858C7.11719 89.9858 7.12554 89.9941 7.13387 90.0025C7.1297 89.9941 7.12135 89.99 7.11719 89.9858Z" fill="#20BB65"/>
<path d="M6.85455 82.1068C6.85455 82.1068 6.84206 82.0943 6.83789 82.0859L6.85455 82.1068Z" fill="#20BB65"/>
<path d="M7.92108 80.6399C7.59192 80.9899 7.13359 80.8899 7.07109 81.4107C6.92942 81.6024 6.91275 81.8732 6.85859 82.1024C7.12942 82.3524 6.7336 82.3732 6.9461 82.619L6.7461 82.5774C6.81694 82.6607 6.8586 82.7357 6.7461 82.7315L6.69608 82.7065C6.80441 82.8315 6.6961 82.8607 6.7461 82.919L6.69608 82.8941L6.68776 82.9774L6.61694 82.9315C6.71694 83.0982 6.67942 83.2066 6.57109 83.2691L6.7961 83.3607C6.46277 83.444 6.88775 83.7232 6.51692 83.7649L6.46275 83.7399C6.94608 84.2232 5.90859 83.9149 6.36275 84.3899C6.30442 84.3315 6.24193 84.3524 6.19193 84.3274C6.2086 84.4607 6.19192 84.5899 6.62525 84.7816C6.58359 84.8566 6.46276 84.7816 6.28776 84.7232C6.47942 84.8066 6.52942 84.9065 6.51692 84.9732L6.45443 84.9149L6.44609 85.1149L6.8211 85.2357C6.67943 85.2815 6.37109 85.0691 6.42109 85.1941L6.72111 85.3232C6.60861 85.4232 6.12109 85.3024 5.85026 85.3357C5.50026 85.7982 6.04609 86.6649 5.32109 86.9274L5.08358 86.8566C4.74608 86.7316 5.5211 87.1857 5.2086 87.0815L5.33777 87.1982C5.2711 87.1899 5.19608 87.1982 5.13358 87.1399C5.10025 87.1857 5.15441 87.2107 5.23775 87.2857L5.00859 87.2607C4.76692 87.4024 5.10026 87.7357 4.93359 87.919C4.40859 88.0149 4.61276 88.6565 4.7336 89.0232C5.08776 89.6024 3.5836 89.5816 4.01277 90.2024C3.9586 90.2024 4.05442 90.2732 4.09608 90.2857L3.91692 90.644C3.91692 90.644 3.72526 91.0899 3.95026 91.4815C4.17526 91.8732 4.81275 92.1899 6.44192 91.9899L6.51277 92.0232C6.75861 91.8857 6.84192 91.7774 6.51692 91.5107C6.97942 91.644 6.62109 91.3649 6.78359 91.369L6.81693 91.3857C6.5086 91.1441 7.19193 91.2399 6.9211 91.0149C6.95443 91.0315 7.07943 91.0774 7.07526 91.1065C7.04609 91.0024 6.98776 90.8524 7.25443 90.9399C7.25443 90.7149 7.47944 90.4774 7.1086 90.1941L7.17943 90.2315C6.92526 90.0524 7.1711 90.1191 7.0586 89.9857C7.0961 89.9941 7.11276 89.994 7.12943 90.0024C6.87943 89.819 7.17527 89.7524 7.07943 89.644L7.25443 89.7065L7.27525 89.5315L7.21691 89.5774C6.74608 89.3774 7.56275 89.569 7.29608 89.3357C7.39608 89.2524 6.38777 88.7357 6.66694 88.7149C6.46277 88.5732 7.01277 88.9024 6.8711 88.7565C7.1211 88.8482 7.01275 88.8524 7.21691 88.9107C7.12941 88.7857 7.5211 88.8815 7.39193 88.719L7.58775 88.7899C7.28359 88.5274 7.9336 88.6524 7.62944 88.4357C7.5211 88.244 8.23777 88.5732 7.91277 88.2899L8.1961 88.3399C8.26276 88.2982 7.89194 88.1732 8.0461 88.1566C8.2086 88.2274 8.20859 88.1274 8.35026 88.2274C8.66276 88.1857 8.10443 87.7899 8.61276 87.7732C8.31276 87.6024 8.53775 87.5857 8.31275 87.4565C8.45442 87.5065 8.41277 87.2732 8.6711 87.5065C8.69194 87.5274 8.67942 87.5399 8.62525 87.5149L8.80858 87.6065C9.20858 87.644 8.69193 87.3315 8.79193 87.2482C8.71693 87.2524 8.71694 87.3024 8.59611 87.2191L8.66276 87.1316L8.81275 87.2191L8.96692 87.1107L8.76276 87.0482C8.89192 87.019 9.23775 87.1315 8.99192 86.9357C8.85442 86.8357 8.70027 86.894 8.6711 86.7899C8.8461 86.7482 9.1086 86.6899 9.21693 86.5941C8.99193 86.5107 9.01277 86.4815 8.9836 86.4274L9.17525 86.5066C8.96692 86.2649 9.61692 86.6399 9.45858 86.419L9.58775 86.4857L9.20442 86.2816C8.87526 86.0024 9.62527 86.3899 9.16694 86.0357C9.17527 86.1024 8.73776 85.8774 8.8461 85.8524L9.02109 85.9482C8.99609 85.8982 8.92526 85.8524 8.97526 85.844C9.06693 85.9065 9.23775 85.9732 9.22942 85.9065L9.4461 86.0399L9.15025 85.794C9.37942 85.8065 9.18358 85.5774 9.45858 85.6607C9.45858 85.6607 9.65442 85.5566 9.38776 85.3941C9.55026 85.5024 9.65442 85.4441 9.85025 85.5607C9.67108 85.4316 9.56275 85.2357 9.79608 85.2815L9.81694 85.3024C10.1128 85.2191 9.6586 84.8607 9.9961 84.8149C9.77527 84.7232 9.93358 84.6899 9.64192 84.5857C9.44192 84.2899 10.3503 84.5399 9.51275 84.0857C9.50025 83.9899 9.75444 84.0899 9.81694 84.0732L9.85442 84.1107C9.85025 83.9399 9.85859 83.894 9.92942 83.8024C9.87109 83.7107 9.47525 83.5107 9.61692 83.4649C9.75859 83.5732 9.75027 83.5191 9.76694 83.4857C9.77944 83.5191 9.83359 83.5565 9.96276 83.5607C9.91693 83.5315 9.89194 83.5066 9.8711 83.4857C9.8836 83.4899 9.89609 83.494 9.90859 83.5024C9.87942 83.419 9.82527 83.4024 9.79194 83.4191C9.76694 83.4066 9.73777 83.3941 9.68777 83.3816C9.9211 83.4232 9.75858 83.2065 10.0294 83.3357C10.0502 83.1357 9.83776 82.869 9.80859 82.669C9.95443 82.7232 10.0586 82.8232 10.0919 82.8899V82.7649C10.2919 82.869 10.1794 82.8815 10.2003 82.9357C10.5836 82.9857 10.0086 82.5232 10.3794 82.5357L10.2377 82.4232H10.2669C10.1836 82.3857 10.0878 82.294 10.0753 82.2565C10.2586 82.3274 10.4711 82.4732 10.4961 82.3982C10.6919 82.4357 10.4961 82.1982 10.4461 82.0774C10.3961 82.0982 10.3086 82.0357 10.2586 81.9857C10.2711 81.9482 10.4544 82.0232 10.3961 81.9566L10.6294 82.0815C10.4044 81.9732 10.4461 81.8607 10.3586 81.794C10.5378 81.869 10.4753 81.9316 10.5961 82.0107C10.6544 81.8607 10.6253 81.9357 10.6794 81.7857C10.5503 81.6149 10.4544 81.6774 10.2753 81.5274C10.2669 81.4357 10.1461 81.2816 10.3253 81.2857L10.1086 81.1941C10.0252 80.9774 10.0919 80.919 10.3419 80.9565C9.80025 80.0149 9.28359 79.6149 8.89192 79.4732C8.50026 79.3274 8.23358 79.4315 8.23358 79.4315C7.55858 79.5565 8.02525 80.1065 7.92525 80.6524L7.92108 80.6399Z" fill="#20BB65"/>
<path d="M3.75041 102.407L3.65039 102.423C3.69622 102.432 3.73375 102.428 3.75041 102.407Z" fill="#20BB65"/>
<path d="M3.06738 110.577C3.06738 110.577 3.07988 110.582 3.08821 110.586C3.07988 110.582 3.07572 110.577 3.06738 110.577Z" fill="#20BB65"/>
<path d="M0.329686 103.202C0.329686 103.202 0.317188 103.194 0.304688 103.19L0.325516 103.202H0.329686Z" fill="#20BB65"/>
<path d="M0.854238 101.519C0.658404 101.948 0.200068 101.998 0.304235 102.498C0.233401 102.719 0.30423 102.973 0.325063 103.203C0.658396 103.357 0.28757 103.49 0.566737 103.653L0.362574 103.673C0.458407 103.728 0.516731 103.786 0.404231 103.815L0.345891 103.807C0.487558 103.89 0.387566 103.948 0.458399 103.99L0.40006 103.982L0.416743 104.061L0.337575 104.036C0.483408 104.165 0.479244 104.282 0.391744 104.373L0.633392 104.394C0.341725 104.578 0.829236 104.715 0.487569 104.869L0.42923 104.861C1.0334 105.173 -0.0457745 105.202 0.529225 105.519C0.458392 105.482 0.404224 105.519 0.345891 105.511C0.404224 105.636 0.425065 105.761 0.900065 105.811C0.883398 105.894 0.745899 105.865 0.562566 105.857C0.770899 105.878 0.850071 105.957 0.854238 106.023L0.77507 105.986L0.829239 106.182H1.22508C1.10424 106.269 0.745909 106.161 0.833409 106.265L1.1584 106.294C1.0834 106.428 0.583404 106.465 0.333404 106.582C0.145904 107.136 0.937571 107.79 0.333404 108.278L0.0875598 108.286C-0.270774 108.278 0.608398 108.457 0.275065 108.461L0.4334 108.528C0.3709 108.54 0.300063 108.573 0.220896 108.54C0.20423 108.594 0.262557 108.598 0.37089 108.644L0.145899 108.694C-0.0374341 108.911 0.38341 109.115 0.287577 109.344C-0.170756 109.611 0.225078 110.157 0.470911 110.461C0.995911 110.886 -0.420774 111.386 0.191726 111.823C0.141726 111.84 0.254226 111.873 0.295893 111.873L0.254237 112.278C0.254237 112.278 0.23339 112.769 0.579223 113.057C0.925057 113.348 1.6334 113.415 3.08756 112.661L3.16673 112.669C3.35007 112.457 3.38757 112.328 2.99174 112.19C3.47091 112.157 3.03756 112.019 3.19173 111.965H3.22924C2.85841 111.848 3.52924 111.703 3.20007 111.586C3.23757 111.59 3.3709 111.59 3.37924 111.619C3.31674 111.532 3.21258 111.411 3.49174 111.403C3.41674 111.19 3.54591 110.898 3.10008 110.757L3.17924 110.765C2.87924 110.686 3.13756 110.665 2.9834 110.578C3.0209 110.573 3.03756 110.569 3.05422 110.569C2.75839 110.482 3.01257 110.319 2.8834 110.248H3.07091L3.02923 110.078L2.98757 110.14C2.47924 110.107 3.31257 110.019 2.98757 109.89C3.05424 109.778 1.93341 109.628 2.18758 109.511C1.95008 109.444 2.57507 109.573 2.39174 109.482C2.65841 109.486 2.55839 109.528 2.77089 109.511C2.64589 109.423 3.04589 109.382 2.87089 109.273H3.07922C2.70422 109.128 3.36256 109.036 3.00423 108.932C2.83756 108.786 3.62091 108.865 3.22507 108.703L3.5084 108.661C3.5584 108.603 3.16674 108.598 3.30841 108.54C3.48341 108.552 3.45424 108.461 3.62091 108.511C3.90424 108.373 3.24591 108.178 3.72508 108.003C3.38341 107.936 3.59589 107.848 3.33755 107.798C3.48755 107.798 3.37507 107.594 3.69174 107.732C3.71674 107.744 3.71256 107.761 3.65423 107.757L3.85839 107.782C4.25005 107.694 3.66256 107.561 3.72922 107.448C3.65839 107.478 3.67507 107.523 3.53757 107.482L3.57089 107.378L3.74173 107.411L3.85424 107.261H3.64174C3.75424 107.198 4.11674 107.198 3.82507 107.09C3.66257 107.036 3.53339 107.14 3.47506 107.053C3.62923 106.961 3.85841 106.823 3.93341 106.698C3.69591 106.69 3.70423 106.657 3.6584 106.615L3.86673 106.628C3.59173 106.465 4.32507 106.615 4.1084 106.461L4.25006 106.486L3.8209 106.411C3.4209 106.248 4.25423 106.382 3.70839 106.194C3.73756 106.253 3.25006 106.178 3.3459 106.119L3.54174 106.157C3.50424 106.115 3.42089 106.094 3.46672 106.073C3.57089 106.107 3.75424 106.115 3.72508 106.057L3.9709 106.119L3.61257 105.982C3.8334 105.923 3.57923 105.769 3.86256 105.765C3.86256 105.765 4.01673 105.607 3.71256 105.536C3.90006 105.59 3.98339 105.503 4.20423 105.557C3.99173 105.49 3.83339 105.336 4.06672 105.311L4.09172 105.323C4.35005 105.157 3.80841 104.953 4.11257 104.811C3.87091 104.79 4.01256 104.715 3.70422 104.698C3.42506 104.478 4.36674 104.448 3.43341 104.261C3.39174 104.169 3.66674 104.19 3.72091 104.157L3.76673 104.182C3.7084 104.015 3.70423 103.969 3.74173 103.857C3.6584 103.786 3.22089 103.715 3.34173 103.628C3.51256 103.686 3.48341 103.64 3.49174 103.598C3.51674 103.628 3.57922 103.644 3.70422 103.611C3.65006 103.594 3.62091 103.582 3.59174 103.565C3.60424 103.565 3.61673 103.565 3.6334 103.569C3.57923 103.494 3.52506 103.498 3.49589 103.528C3.47089 103.523 3.43341 103.519 3.38758 103.523C3.62091 103.49 3.40008 103.336 3.70008 103.369C3.65841 103.165 3.37091 102.982 3.27924 102.803C3.43757 102.807 3.56674 102.865 3.61674 102.923L3.57923 102.803C3.80006 102.836 3.69589 102.886 3.73339 102.932C4.11256 102.853 3.42091 102.594 3.77507 102.49L3.60423 102.428H3.6334C3.54173 102.407 3.42089 102.353 3.39589 102.323C3.59173 102.332 3.83756 102.398 3.83756 102.315C4.03339 102.282 3.77507 102.123 3.68757 102.023C3.6459 102.061 3.54173 102.032 3.47923 101.998C3.47923 101.957 3.67508 101.969 3.59591 101.923L3.85424 101.965C3.60841 101.94 3.6084 101.815 3.50423 101.786C3.70006 101.798 3.65841 101.878 3.80007 101.911C3.80007 101.748 3.80008 101.832 3.80424 101.669C3.62508 101.553 3.55839 101.64 3.33755 101.561C3.30005 101.477 3.13341 101.373 3.30424 101.315L3.07091 101.303C2.92091 101.128 2.96256 101.048 3.21256 100.998C2.37923 100.298 1.75422 100.111 1.33339 100.111C0.916722 100.111 0.704244 100.294 0.704244 100.294C0.116744 100.632 0.741743 100.982 0.833409 101.523L0.854238 101.519Z" fill="#20BB65"/>
<path d="M4.56281 123.252L4.47949 123.307C4.52116 123.294 4.55864 123.277 4.56281 123.252Z" fill="#20BB65"/>
<path d="M1.55391 123.607C1.55391 124.082 1.14974 124.315 1.44974 124.736C1.47891 124.965 1.64557 125.173 1.75807 125.373C2.12474 125.373 1.84556 125.653 2.1664 125.69L1.98723 125.794C2.09557 125.807 2.17473 125.836 2.08723 125.907L2.02892 125.919C2.19142 125.936 2.12891 126.032 2.20808 126.04L2.14974 126.057L2.19557 126.123L2.11223 126.136C2.29973 126.194 2.3414 126.303 2.3039 126.423L2.53307 126.344C2.3414 126.632 2.84558 126.557 2.59975 126.84L2.54141 126.857C3.22057 126.89 2.25391 127.369 2.90808 127.415C2.82474 127.411 2.79556 127.469 2.73723 127.486C2.8414 127.573 2.9164 127.682 3.3664 127.528C3.38723 127.611 3.24973 127.644 3.0789 127.715C3.27473 127.644 3.3789 127.686 3.4164 127.744H3.32891L3.46225 127.898L3.82058 127.732C3.74974 127.865 3.3789 127.915 3.49974 127.978L3.80392 127.865C3.79142 128.015 3.35392 128.261 3.17475 128.473C3.24142 129.057 4.23308 129.319 3.89974 130.015L3.68307 130.128C3.3539 130.273 4.22891 130.061 3.92891 130.207H4.10391C4.04974 130.24 4.0039 130.303 3.9164 130.303C3.92474 130.361 3.9789 130.34 4.09557 130.336L3.91223 130.478C3.8414 130.753 4.30808 130.761 4.32058 131.007C4.01642 131.448 4.61641 131.769 4.96641 131.94C5.62474 132.098 4.55808 133.161 5.30391 133.294C5.26641 133.328 5.38306 133.311 5.42056 133.294L5.5539 133.678C5.5539 133.678 5.74557 134.128 6.18307 134.24C6.62057 134.357 7.28724 134.107 8.27474 132.798L8.34974 132.769C8.42057 132.498 8.39974 132.365 7.98724 132.415C8.40391 132.178 7.95392 132.24 8.07058 132.128L8.10807 132.115C7.72057 132.165 8.26642 131.748 7.91642 131.782C7.95392 131.769 8.07058 131.715 8.09141 131.736C7.99974 131.682 7.84975 131.619 8.09975 131.494C7.94142 131.336 7.92891 131.015 7.47058 131.082L7.54558 131.057C7.24141 131.115 7.46225 130.986 7.28725 130.969C7.32058 130.948 7.33309 130.936 7.34559 130.932C7.04142 130.978 7.19975 130.728 7.05391 130.715L7.22057 130.636L7.11223 130.503L7.10391 130.578C6.62891 130.769 7.3414 130.332 6.9914 130.353C7.0039 130.223 5.92891 130.569 6.10807 130.353C5.86641 130.394 6.48307 130.244 6.28307 130.24C6.52473 130.132 6.45391 130.211 6.63725 130.107C6.48725 130.082 6.83307 129.873 6.62474 129.848L6.81224 129.761C6.41224 129.786 6.9664 129.423 6.59974 129.482C6.38724 129.419 7.13307 129.161 6.69973 129.182L6.93724 129.023C6.9539 128.948 6.6039 129.115 6.7039 128.998C6.87057 128.936 6.80391 128.865 6.97058 128.84C7.17058 128.594 6.49142 128.698 6.84975 128.34C6.51225 128.428 6.6664 128.257 6.41223 128.319C6.54973 128.261 6.36224 128.119 6.7039 128.111C6.73307 128.111 6.73307 128.128 6.6789 128.148L6.87475 128.086C7.19142 127.84 6.6039 127.969 6.62056 127.84C6.57056 127.894 6.6039 127.932 6.46223 127.953L6.44974 127.844L6.61642 127.803L6.65391 127.619L6.46223 127.715C6.53723 127.603 6.86641 127.453 6.55391 127.478C6.38308 127.498 6.31225 127.644 6.22058 127.594C6.31641 127.448 6.47056 127.228 6.48723 127.082C6.2664 127.173 6.26223 127.14 6.2039 127.119L6.39557 127.044C6.07891 127.011 6.80807 126.84 6.54557 126.79L6.68725 126.753L6.26641 126.865C5.83724 126.886 6.64973 126.657 6.07473 126.715C6.1289 126.757 5.64974 126.89 5.71641 126.798L5.91225 126.748C5.86225 126.728 5.77892 126.744 5.80809 126.707C5.91642 126.694 6.08725 126.623 6.03725 126.582L6.28724 126.536L5.90391 126.561C6.08308 126.415 5.78308 126.382 6.04142 126.261C6.04142 126.261 6.1164 126.053 5.81223 126.115C6.0039 126.086 6.04557 125.973 6.26641 125.928C6.04557 125.957 5.83725 125.886 6.04142 125.765H6.07056C6.23723 125.511 5.65808 125.548 5.87891 125.294C5.64974 125.373 5.74974 125.248 5.46224 125.361C5.11641 125.278 5.96223 124.861 5.03307 125.078C4.95807 125.011 5.21641 124.919 5.25391 124.865H5.30808C5.18725 124.744 5.16642 124.703 5.15392 124.586C5.04975 124.557 4.62057 124.673 4.69557 124.544C4.87473 124.528 4.8289 124.494 4.82056 124.457C4.8539 124.473 4.91641 124.461 5.01641 124.382C4.96224 124.39 4.92892 124.39 4.89558 124.386C4.90808 124.382 4.91641 124.378 4.93724 124.373C4.85807 124.328 4.81223 124.353 4.79556 124.39C4.77056 124.394 4.73723 124.407 4.6914 124.432C4.8914 124.303 4.62474 124.257 4.91224 124.165C4.79141 123.998 4.44973 123.948 4.29973 123.819C4.44556 123.761 4.58725 123.761 4.65808 123.79L4.57474 123.694C4.79141 123.636 4.71642 123.723 4.76642 123.748C5.07892 123.523 4.34557 123.569 4.62474 123.328L4.44558 123.34L4.47058 123.323C4.37891 123.348 4.24974 123.344 4.21224 123.328C4.39558 123.257 4.64557 123.215 4.6164 123.14C4.78307 123.032 4.48307 122.99 4.35807 122.936C4.33723 122.986 4.22891 122.998 4.15808 122.998C4.14141 122.961 4.32474 122.89 4.23724 122.882L4.4914 122.815C4.2539 122.89 4.20807 122.778 4.09974 122.79C4.28307 122.719 4.27891 122.811 4.42058 122.782C4.35808 122.632 4.3914 122.707 4.3289 122.557C4.1164 122.519 4.0914 122.632 3.85806 122.644C3.7914 122.582 3.59559 122.553 3.72475 122.432L3.50391 122.511C3.29557 122.415 3.30391 122.323 3.51225 122.173C2.46641 121.865 1.82056 121.94 1.43723 122.107C1.0539 122.273 0.93308 122.528 0.93308 122.528C0.528914 123.078 1.24557 123.148 1.54557 123.611L1.55391 123.607Z" fill="#20BB65"/>
<path d="M14.1713 141.719L14.1172 141.807C14.1505 141.777 14.1755 141.748 14.1713 141.719Z" fill="#20BB65"/>
<path d="M19.8916 147.603C19.8916 147.603 19.9041 147.594 19.9124 147.59C19.9041 147.59 19.8958 147.594 19.8916 147.603Z" fill="#20BB65"/>
<path d="M12.526 144.823C12.526 144.823 12.5093 144.827 12.501 144.832L12.526 144.823Z" fill="#20BB65"/>
<path d="M11.5959 143.315C11.7959 143.744 11.5293 144.127 11.9751 144.377C12.0959 144.573 12.3334 144.69 12.5209 144.823C12.8543 144.673 12.7168 145.04 13.021 144.936L12.9043 145.102C13.0084 145.069 13.0918 145.061 13.0418 145.165L12.996 145.202C13.1501 145.148 13.1334 145.265 13.2084 145.236L13.1626 145.273L13.2334 145.315L13.1626 145.361C13.3543 145.34 13.4418 145.415 13.4543 145.54L13.6293 145.373C13.5751 145.715 14.0001 145.436 13.8918 145.794L13.8459 145.832C14.4793 145.577 13.7959 146.415 14.4084 146.186C14.3334 146.215 14.3251 146.282 14.2834 146.319C14.4126 146.357 14.5251 146.423 14.871 146.098C14.9251 146.165 14.8126 146.252 14.6834 146.386C14.8334 146.24 14.9459 146.236 15.0043 146.273L14.9251 146.307L15.1084 146.394L15.3668 146.094C15.3543 146.244 15.0376 146.444 15.1751 146.448L15.4084 146.223C15.4584 146.365 15.1584 146.769 15.0834 147.036C15.3793 147.54 16.3918 147.369 16.3626 148.144L16.2084 148.336C15.9668 148.598 16.6793 148.057 16.4668 148.307L16.6251 148.232C16.5918 148.29 16.5709 148.365 16.4959 148.402C16.5251 148.452 16.5668 148.411 16.6709 148.361L16.5626 148.565C16.6043 148.844 17.0334 148.665 17.1459 148.886C17.0418 149.411 17.7168 149.465 18.1043 149.482C18.7709 149.369 18.2043 150.761 18.9376 150.59C18.9168 150.636 19.0168 150.573 19.0459 150.544L19.3168 150.844C19.3168 150.844 19.6668 151.186 20.1126 151.115C20.5584 151.052 21.0834 150.569 21.4876 148.977L21.5459 148.923C21.5084 148.644 21.4334 148.527 21.0709 148.736C21.3668 148.357 20.9709 148.586 21.0376 148.436L21.0668 148.411C20.7293 148.607 21.0668 148.007 20.7584 148.177C20.7876 148.152 20.8751 148.052 20.9001 148.065C20.7918 148.052 20.6335 148.052 20.8085 147.836C20.6001 147.748 20.4626 147.461 20.0668 147.698L20.1251 147.648C19.8668 147.819 20.0209 147.615 19.8543 147.669C19.8751 147.64 19.8835 147.619 19.896 147.611C19.6335 147.773 19.6793 147.477 19.5459 147.527L19.6668 147.386L19.5126 147.302L19.5335 147.373C19.171 147.736 19.6543 147.052 19.3418 147.211C19.3001 147.086 18.4501 147.832 18.5293 147.565C18.3251 147.702 18.8293 147.315 18.6418 147.39C18.8209 147.194 18.7834 147.294 18.9126 147.123C18.7668 147.157 18.9959 146.832 18.8001 146.89L18.9376 146.736C18.5793 146.919 18.9376 146.361 18.6293 146.565C18.4126 146.594 18.9876 146.057 18.6043 146.248L18.7584 146.007C18.7459 145.932 18.4876 146.223 18.5334 146.077C18.6584 145.952 18.5668 145.915 18.7126 145.823C18.7959 145.519 18.2168 145.886 18.3959 145.411C18.1251 145.623 18.1959 145.411 17.9876 145.569C18.0876 145.461 17.8584 145.407 18.1709 145.257C18.1959 145.244 18.2043 145.257 18.1626 145.302L18.3168 145.169C18.5043 144.815 18.0209 145.169 17.9793 145.048C17.9543 145.119 18.0001 145.14 17.8793 145.219L17.8251 145.123L17.9626 145.019L17.9209 144.836L17.7834 145.002C17.8043 144.869 18.0459 144.598 17.7668 144.748C17.6209 144.84 17.6168 145.002 17.5084 144.99C17.5376 144.815 17.5876 144.552 17.5418 144.411C17.3793 144.586 17.3584 144.552 17.3001 144.561L17.446 144.415C17.1418 144.515 17.7376 144.061 17.4793 144.119L17.5918 144.027L17.2543 144.302C16.8709 144.498 17.5168 143.957 17.0168 144.244C17.0793 144.261 16.7043 144.577 16.721 144.469L16.8793 144.344C16.8209 144.344 16.7543 144.394 16.7668 144.344C16.8584 144.286 16.9876 144.152 16.9251 144.136L17.1335 143.99L16.796 144.169C16.896 143.961 16.6126 144.052 16.796 143.836C16.796 143.836 16.7793 143.615 16.5251 143.798C16.6876 143.694 16.6793 143.573 16.8626 143.44C16.6751 143.557 16.4501 143.582 16.5876 143.382L16.6126 143.373C16.6543 143.069 16.1501 143.344 16.2418 143.023C16.0668 143.19 16.1043 143.036 15.8918 143.257C15.5418 143.323 16.1376 142.59 15.3834 143.177C15.2876 143.148 15.4834 142.957 15.4918 142.89L15.5418 142.873C15.3793 142.807 15.3418 142.782 15.2834 142.677C15.1751 142.694 14.8376 142.982 14.8501 142.832C15.0043 142.74 14.9543 142.732 14.9251 142.702C14.9626 142.702 15.0168 142.665 15.0709 142.552C15.0251 142.582 14.9918 142.594 14.9668 142.607C14.9751 142.598 14.9835 142.59 15.0001 142.577C14.9126 142.569 14.8751 142.615 14.8793 142.652C14.8584 142.669 14.8334 142.694 14.8043 142.732C14.9334 142.532 14.6709 142.598 14.8918 142.394C14.7126 142.29 14.3834 142.39 14.1876 142.34C14.2959 142.227 14.4251 142.165 14.5001 142.165L14.3834 142.115C14.5543 141.973 14.5251 142.082 14.5793 142.082C14.7668 141.744 14.121 142.098 14.271 141.761L14.1126 141.848L14.1293 141.823C14.0584 141.882 13.9376 141.936 13.9001 141.936C14.0334 141.794 14.2459 141.652 14.1876 141.598C14.2918 141.432 14.0001 141.519 13.8668 141.523C13.8668 141.577 13.7751 141.636 13.7126 141.665C13.6834 141.64 13.8168 141.498 13.7334 141.527L13.9335 141.357C13.7501 141.523 13.6626 141.444 13.5668 141.498C13.7043 141.357 13.7376 141.44 13.8543 141.357C13.7335 141.248 13.7959 141.302 13.6751 141.194C13.4668 141.252 13.4918 141.361 13.2876 141.473C13.2001 141.448 13.0084 141.502 13.0793 141.336L12.9168 141.502C12.6876 141.502 12.6543 141.419 12.7793 141.194C11.7001 141.361 11.1501 141.702 10.8751 142.019C10.6001 142.332 10.6001 142.615 10.6001 142.615C10.4668 143.282 11.1418 143.04 11.6126 143.327L11.5959 143.315Z" fill="#20BB65"/>
<path d="M30.2621 155.198L30.2412 155.298C30.262 155.261 30.2746 155.223 30.2621 155.198Z" fill="#20BB65"/>
<path d="M37.6123 158.94C37.6123 158.94 37.6207 158.932 37.629 158.923C37.6207 158.928 37.6165 158.932 37.6123 158.94Z" fill="#20BB65"/>
<path d="M29.7542 158.677C29.7542 158.677 29.7417 158.686 29.7334 158.694L29.7542 158.677Z" fill="#20BB65"/>
<path d="M28.3829 157.577C28.7121 157.911 28.5912 158.361 29.0912 158.444C29.2704 158.59 29.5287 158.619 29.7495 158.678C30.012 158.423 30.0037 158.815 30.2579 158.615L30.2037 158.811C30.2912 158.744 30.3662 158.707 30.3537 158.823L30.3245 158.873C30.4537 158.773 30.4704 158.886 30.5371 158.836L30.5079 158.886L30.5871 158.903L30.5371 158.969C30.7121 158.882 30.8162 158.927 30.8704 159.04L30.9787 158.823C31.0371 159.165 31.3454 158.761 31.362 159.136L31.3329 159.186C31.8495 158.74 31.4704 159.752 31.9787 159.336C31.9162 159.39 31.9329 159.452 31.9037 159.502C32.037 159.494 32.1662 159.523 32.3871 159.103C32.4579 159.148 32.3787 159.265 32.3037 159.436C32.3995 159.252 32.5037 159.207 32.5704 159.227L32.5079 159.286L32.7079 159.311L32.8537 158.944C32.8912 159.09 32.6579 159.382 32.7871 159.34L32.9329 159.048C33.0246 159.169 32.8746 159.644 32.8829 159.919C33.3204 160.298 34.2246 159.815 34.4412 160.557L34.3579 160.786C34.212 161.111 34.7162 160.369 34.5912 160.677L34.7162 160.557C34.7037 160.623 34.7079 160.698 34.6454 160.757C34.6912 160.794 34.7162 160.74 34.7995 160.661L34.7579 160.886C34.8829 161.136 35.2371 160.832 35.4079 161.002C35.4704 161.532 36.1246 161.373 36.4996 161.273C37.0996 160.957 36.9829 162.457 37.6287 162.069C37.6204 162.119 37.6995 162.032 37.7162 161.994L38.0621 162.194C38.0621 162.194 38.4954 162.411 38.8996 162.215C39.3037 162.019 39.662 161.402 39.5662 159.761L39.6037 159.694C39.4829 159.44 39.3787 159.352 39.0912 159.657C39.2579 159.207 38.9537 159.544 38.9662 159.382L38.987 159.348C38.7245 159.64 38.8662 158.965 38.6204 159.219C38.6412 159.186 38.6954 159.065 38.7246 159.069C38.6204 159.09 38.4621 159.14 38.5662 158.877C38.3412 158.861 38.1204 158.623 37.8121 158.973L37.8537 158.907C37.6621 159.148 37.7412 158.907 37.5996 159.011C37.6121 158.977 37.6121 158.957 37.6204 158.94C37.4204 159.178 37.3746 158.882 37.2579 158.969L37.3287 158.798L37.1537 158.769L37.1954 158.832C36.9662 159.286 37.2079 158.49 36.962 158.736C36.8829 158.628 36.3079 159.602 36.2996 159.323C36.1454 159.515 36.5079 158.994 36.3537 159.123C36.4621 158.882 36.4621 158.99 36.5287 158.786C36.3996 158.865 36.5162 158.482 36.3496 158.602L36.4329 158.411C36.1496 158.698 36.3204 158.057 36.0829 158.344C35.8829 158.44 36.2621 157.748 35.9579 158.053L36.0287 157.773C35.9912 157.707 35.8412 158.065 35.837 157.911C35.9162 157.753 35.8204 157.748 35.9287 157.611C35.9079 157.294 35.4746 157.827 35.4954 157.319C35.3037 157.607 35.3037 157.382 35.1579 157.598C35.2204 157.461 34.9829 157.486 35.2287 157.244C35.2496 157.223 35.262 157.236 35.237 157.29L35.3412 157.115C35.4079 156.719 35.0579 157.211 34.9829 157.107C34.9829 157.182 35.0329 157.186 34.9412 157.298L34.8579 157.228L34.9537 157.086L34.8579 156.923L34.7829 157.123C34.7621 156.99 34.8996 156.657 34.6871 156.886C34.5746 157.019 34.6246 157.173 34.5204 157.198C34.4912 157.023 34.4537 156.757 34.3621 156.64C34.2662 156.857 34.2371 156.836 34.1829 156.861L34.2745 156.673C34.0162 156.865 34.4371 156.244 34.2079 156.386L34.2871 156.261L34.0537 156.627C33.7537 156.936 34.1912 156.215 33.8079 156.648C33.8745 156.644 33.6204 157.065 33.5995 156.957L33.7079 156.786C33.6537 156.807 33.6037 156.873 33.5995 156.827C33.6704 156.744 33.7454 156.573 33.6787 156.577L33.8287 156.373L33.5662 156.653C33.5954 156.423 33.3537 156.603 33.4579 156.336C33.4579 156.336 33.3704 156.132 33.187 156.386C33.3079 156.232 33.2579 156.123 33.3871 155.936C33.2454 156.107 33.0412 156.203 33.1079 155.973L33.1287 155.957C33.0662 155.657 32.6787 156.082 32.6579 155.744C32.5496 155.961 32.5287 155.798 32.4037 156.082C32.0954 156.261 32.4121 155.373 31.8954 156.173C31.7954 156.173 31.9162 155.932 31.9037 155.865L31.9454 155.832C31.7704 155.823 31.7246 155.811 31.6371 155.732C31.5412 155.786 31.3162 156.165 31.2787 156.019C31.3954 155.882 31.3412 155.89 31.3079 155.869C31.3412 155.857 31.3829 155.807 31.3954 155.677C31.3621 155.723 31.337 155.744 31.312 155.765C31.3204 155.753 31.3204 155.744 31.3329 155.727C31.2454 155.748 31.2287 155.802 31.2412 155.84C31.2246 155.861 31.2121 155.894 31.1954 155.94C31.2496 155.711 31.0246 155.861 31.1662 155.594C30.9621 155.557 30.6829 155.761 30.4829 155.778C30.5454 155.636 30.6454 155.536 30.7162 155.507L30.5871 155.498C30.6996 155.307 30.7079 155.419 30.762 155.398C30.8245 155.015 30.3371 155.565 30.3621 155.198L30.2454 155.332L30.2537 155.303C30.2079 155.382 30.1121 155.473 30.0746 155.49C30.1537 155.311 30.3037 155.102 30.2287 155.073C30.2704 154.882 30.0245 155.065 29.8995 155.111C29.9204 155.161 29.8537 155.248 29.8037 155.298C29.7662 155.282 29.8454 155.102 29.7745 155.161L29.9079 154.932C29.7954 155.153 29.6829 155.107 29.612 155.19C29.6912 155.011 29.7496 155.077 29.8371 154.957C29.6871 154.894 29.762 154.927 29.612 154.865C29.437 154.99 29.4954 155.086 29.3412 155.261C29.2496 155.265 29.0912 155.382 29.0954 155.203L28.9996 155.415C28.7829 155.494 28.7246 155.427 28.7662 155.173C27.8121 155.698 27.4121 156.215 27.2621 156.607C27.1121 156.998 27.2079 157.261 27.2079 157.261C27.3079 157.932 27.8579 157.469 28.3954 157.577H28.3829Z" fill="#20BB65"/>
<path d="M48.8912 162.973L48.8828 163.069C48.8953 163.028 48.8995 162.99 48.8912 162.973Z" fill="#20BB65"/>
<path d="M52.7832 163.878C52.7832 163.878 52.7874 163.865 52.7915 163.857C52.7874 163.865 52.7832 163.869 52.7832 163.878Z" fill="#20BB65"/>
<path d="M48.6587 166.29C48.6587 166.29 48.6546 166.303 48.6504 166.311L48.6629 166.29H48.6587Z" fill="#20BB65"/>
<path d="M47.9166 165.819C48.0958 165.99 48.0374 166.44 48.3041 166.323C48.3999 166.386 48.5374 166.315 48.6541 166.29C48.7916 165.961 48.7916 166.319 48.9208 166.048L48.8916 166.248C48.9374 166.157 48.9791 166.094 48.9707 166.207L48.9541 166.261C49.0208 166.123 49.0332 166.219 49.0666 166.148L49.0499 166.207L49.0916 166.19L49.0666 166.269C49.1582 166.127 49.2124 166.132 49.2416 166.215L49.2958 165.978C49.3291 166.265 49.4874 165.79 49.4999 166.123L49.4832 166.182C49.7541 165.59 49.5624 166.648 49.8249 166.09C49.7916 166.161 49.7999 166.211 49.7874 166.269C49.8583 166.215 49.9249 166.194 50.0374 165.732C50.0749 165.748 50.0374 165.886 49.9958 166.065C50.0458 165.861 50.0999 165.786 50.1332 165.782L50.0999 165.857L50.2041 165.811L50.2791 165.423C50.2999 165.544 50.1791 165.89 50.2457 165.811L50.3207 165.494C50.3707 165.573 50.2916 166.061 50.2999 166.311C50.5332 166.511 51.0041 165.765 51.1166 166.382L51.0707 166.623C50.9957 166.973 51.2583 166.123 51.1916 166.448L51.2582 166.294C51.2541 166.357 51.2541 166.428 51.2208 166.503C51.2458 166.523 51.2583 166.465 51.2999 166.365L51.2791 166.59C51.3457 166.782 51.5291 166.386 51.6166 166.494C51.6499 166.965 51.9874 166.615 52.1833 166.407C52.4916 165.927 52.4332 167.369 52.7666 166.815C52.7666 166.865 52.8041 166.757 52.8124 166.719L52.9916 166.807C52.9916 166.807 53.2124 166.886 53.4207 166.586C53.6291 166.286 53.8124 165.602 53.7666 164.082L53.7874 164.007C53.7249 163.803 53.6707 163.748 53.5249 164.119C53.6082 163.648 53.4541 164.053 53.4624 163.898L53.4707 163.861C53.3374 164.211 53.4083 163.536 53.2833 163.848C53.2916 163.811 53.3207 163.682 53.3374 163.678C53.2832 163.728 53.2041 163.819 53.2582 163.544C53.1416 163.594 53.0291 163.44 52.8707 163.861L52.8916 163.786C52.7916 164.073 52.8333 163.819 52.7624 163.961C52.7666 163.923 52.7707 163.907 52.7707 163.89C52.6666 164.173 52.6416 163.911 52.5832 164.027L52.6208 163.844L52.5291 163.869L52.5499 163.915C52.4291 164.411 52.5582 163.59 52.4291 163.898C52.3874 163.823 52.0916 164.911 52.0874 164.652C52.0082 164.882 52.1957 164.277 52.1166 164.448C52.1749 164.19 52.1708 164.29 52.2083 164.082C52.1416 164.194 52.1999 163.802 52.1124 163.965L52.1541 163.761C52.0083 164.115 52.0916 163.469 51.9708 163.811C51.8666 163.961 52.0624 163.203 51.9041 163.582L51.9416 163.302C51.9208 163.252 51.8458 163.632 51.8416 163.494C51.8833 163.323 51.8332 163.348 51.8874 163.19C51.8749 162.902 51.6499 163.536 51.6583 163.061C51.5583 163.39 51.5583 163.182 51.4833 163.428C51.5166 163.282 51.3916 163.382 51.5207 163.077C51.5332 163.052 51.5374 163.061 51.5207 163.115L51.5749 162.919C51.6082 162.532 51.4291 163.102 51.3874 163.032C51.3874 163.102 51.4124 163.09 51.3666 163.223L51.3208 163.186L51.3708 163.019L51.3208 162.903L51.2832 163.111C51.2707 162.994 51.3416 162.64 51.2332 162.923C51.1749 163.082 51.1999 163.211 51.1458 163.265C51.1291 163.111 51.1083 162.882 51.0583 162.807C51.0083 163.04 50.9916 163.028 50.9666 163.069L51.0124 162.865C50.8791 163.127 51.0957 162.415 50.9749 162.623L51.0166 162.486L50.8957 162.903C50.7374 163.286 50.9666 162.478 50.7666 163.007C50.7999 162.978 50.6707 163.452 50.6582 163.357L50.7124 163.165C50.6832 163.203 50.6582 163.282 50.6582 163.24C50.6957 163.136 50.7333 162.957 50.6999 162.986L50.7791 162.748L50.6416 163.094C50.6541 162.877 50.5291 163.123 50.5832 162.844C50.5832 162.844 50.5333 162.69 50.4416 162.986C50.5041 162.802 50.4749 162.719 50.5458 162.507C50.4708 162.711 50.3666 162.869 50.3957 162.64L50.4083 162.615C50.3749 162.361 50.1708 162.89 50.1583 162.59C50.1041 162.823 50.0916 162.686 50.0249 162.986C49.8624 163.261 50.0249 162.34 49.7541 163.252C49.6999 163.29 49.7624 163.023 49.7541 162.973L49.7749 162.927C49.6832 162.986 49.6583 162.986 49.6083 162.953C49.5583 163.036 49.4416 163.461 49.4208 163.344C49.4791 163.177 49.4541 163.202 49.4332 163.198C49.4541 163.173 49.4708 163.115 49.4791 162.994C49.4624 163.044 49.4499 163.077 49.4374 163.102C49.4374 163.09 49.4416 163.078 49.4458 163.061C49.3999 163.111 49.3916 163.169 49.3999 163.194C49.3916 163.219 49.3833 163.252 49.3749 163.302C49.3999 163.073 49.2832 163.294 49.3541 163.003C49.2457 163.044 49.0999 163.332 48.9916 163.423C49.0249 163.269 49.0749 163.144 49.1124 163.09L49.0416 163.132C49.0999 162.915 49.1041 163.015 49.1333 162.977C49.1624 162.611 48.9082 163.29 48.9166 162.948L48.8541 163.115V163.086C48.8333 163.177 48.7832 163.294 48.7624 163.319C48.8041 163.128 48.8791 162.886 48.8374 162.886C48.8582 162.698 48.7291 162.952 48.6624 163.044C48.6749 163.082 48.6416 163.186 48.6124 163.248C48.5916 163.248 48.6333 163.061 48.5958 163.136L48.6624 162.882C48.6041 163.123 48.5416 163.127 48.5083 163.227C48.5499 163.036 48.5832 163.073 48.6249 162.932C48.5416 162.932 48.5833 162.932 48.5041 162.936C48.4124 163.115 48.4457 163.177 48.3666 163.394C48.3166 163.436 48.2332 163.602 48.2332 163.436L48.1832 163.665C48.0666 163.819 48.0332 163.782 48.0541 163.544C47.0374 165.232 47.2499 166.011 47.2499 166.011C47.3166 166.565 47.6041 165.94 47.8916 165.832L47.9166 165.819Z" fill="#20BB65"/>
</svg>
