<svg width="188" height="42" viewBox="0 0 188 42" fill="none" xmlns="http://www.w3.org/2000/svg">
<path d="M166.667 0.31604H20.8333C9.3274 0.31604 0 9.64344 0 21.1494C0 32.6553 9.3274 41.9827 20.8333 41.9827H166.667C178.173 41.9827 187.5 32.6553 187.5 21.1494C187.5 9.64344 178.173 0.31604 166.667 0.31604Z" fill="#02B14F"/>
<path d="M44.8081 27.3162V27.3746H42.9539L40.4456 23.4787C40.1664 23.0412 39.804 22.8204 39.0748 22.8204H38.6956V27.3704H36.9873V16.8704H38.6956V21.2162H39.0748C39.7165 21.2162 39.9956 21.0412 40.2414 20.6787L42.9123 16.8704H44.7498V16.9287L41.7873 21.2912C41.5665 21.6287 41.3789 21.8745 41.1289 22.037C41.4498 22.1537 41.6665 22.3579 41.929 22.7662L44.804 27.3162H44.8081Z" fill="white"/>
<path d="M44.9414 23.4036C44.9414 20.9078 46.5914 19.2036 48.9831 19.2036C51.3748 19.2036 53.0247 20.9078 53.0247 23.4036C53.0247 25.8994 51.3914 27.5911 48.9831 27.5911C46.5748 27.5911 44.9414 25.8828 44.9414 23.4036ZM51.3456 23.4036C51.3456 21.8869 50.3539 20.7911 48.9831 20.7911C47.6123 20.7911 46.6206 21.8869 46.6206 23.4036C46.6206 24.9203 47.6123 25.9994 48.9831 25.9994C50.3539 25.9994 51.3456 24.9036 51.3456 23.4036Z" fill="white"/>
<path d="M54.4795 22.6038C54.4795 20.5163 55.867 19.2037 58.067 19.2037C60.267 19.2037 61.6128 20.5038 61.6128 22.6038V27.3746H59.9336V22.6496C59.9336 21.5704 59.1628 20.7954 58.067 20.7954C56.9712 20.7954 56.1587 21.5829 56.1587 22.6496V27.3746H54.4795V22.6038Z" fill="white"/>
<path d="M63.9581 29.9411V28.2911L64.0039 28.2619C64.9789 28.8327 66.2206 29.2119 67.1539 29.2119C68.5414 29.2119 69.5039 28.3953 69.5039 27.1703V26.0911H69.4289C68.9622 26.9786 67.9873 27.5327 66.9331 27.5327C64.6873 27.5327 63.0664 25.841 63.0664 23.4619C63.0664 20.9244 64.6122 19.2036 66.8747 19.2036C68.0414 19.2036 69.0039 19.6703 69.3539 20.3994H69.4247V19.4661H71.1039V27.1828C71.1039 29.3286 69.4706 30.7994 67.1206 30.7994C66.0706 30.7994 64.9747 30.5077 63.9539 29.9369L63.9581 29.9411ZM69.4289 23.3328C69.4289 21.8286 68.4831 20.7952 67.0831 20.7952C65.6831 20.7952 64.7498 21.816 64.7498 23.3619C64.7498 24.9077 65.6539 25.9453 67.0706 25.9453C68.4872 25.9453 69.4331 24.937 69.4331 23.3328H69.4289Z" fill="white"/>
<path d="M72.7495 27.0079V25.4038L72.7911 25.3746C73.7411 25.8121 74.4828 26.0038 75.3286 26.0038C76.3953 26.0038 76.9328 25.7121 76.9328 25.1121C76.9328 24.6455 76.612 24.383 75.6495 24.1496L74.862 23.958C73.4745 23.6205 72.5703 23.0079 72.5703 21.6371C72.5703 20.0746 73.7536 19.2037 75.8536 19.2037C76.7578 19.2037 77.5453 19.3621 78.1161 19.6538V21.258L78.0745 21.2871C77.4453 20.9662 76.5703 20.7787 75.7828 20.7787C74.8495 20.7787 74.3536 21.0579 74.3536 21.5787C74.3536 22.0995 74.9078 22.2912 75.887 22.512L76.5286 22.6579C77.6661 22.9204 78.6453 23.6079 78.6453 25.0204C78.6453 26.6121 77.3786 27.5871 75.3328 27.5871C74.4411 27.5871 73.537 27.3829 72.7495 27.0037V27.0079Z" fill="white"/>
<path d="M80.041 17.3952C80.041 16.8119 80.4785 16.3868 81.091 16.3868C81.7035 16.3868 82.141 16.8077 82.141 17.3952C82.141 17.9827 81.7035 18.4035 81.091 18.4035C80.4785 18.4035 80.041 17.9827 80.041 17.3952ZM80.2577 19.4661H81.9369V27.3702H80.2577V19.4661Z" fill="white"/>
<path d="M87.1289 24.1909V19.466H88.8081V24.1493C88.8081 25.2118 89.5831 25.9868 90.6914 25.9868C91.7998 25.9868 92.5706 25.2285 92.5706 24.1493V19.466H94.2497V24.1909C94.2497 26.2784 92.8498 27.591 90.6914 27.591C88.5331 27.591 87.1331 26.2618 87.1331 24.1909H87.1289Z" fill="white"/>
<path d="M95.896 27.0079V25.4038L95.9376 25.3746C96.8876 25.8121 97.6293 26.0038 98.4751 26.0038C99.5376 26.0038 100.079 25.7121 100.079 25.1121C100.079 24.6455 99.7585 24.383 98.796 24.1496L98.0085 23.958C96.621 23.6205 95.7168 23.0079 95.7168 21.6371C95.7168 20.0746 96.9001 19.2037 99.0001 19.2037C99.9043 19.2037 100.692 19.3621 101.263 19.6538V21.258L101.221 21.2871C100.592 20.9662 99.7168 20.7787 98.9293 20.7787C97.996 20.7787 97.5001 21.0579 97.5001 21.5787C97.5001 22.0995 98.0543 22.2912 99.0335 22.512L99.6751 22.6579C100.813 22.9204 101.792 23.6079 101.792 25.0204C101.792 26.6121 100.525 27.5871 98.4793 27.5871C97.5876 27.5871 96.6835 27.3829 95.896 27.0037V27.0079Z" fill="white"/>
<path d="M102.996 23.4205C102.996 20.9121 104.613 19.2037 107.021 19.2037C109.429 19.2037 111.063 20.7912 111.063 23.2746V27.3746H109.429V26.1787H109.354C108.859 27.0412 107.867 27.5955 106.804 27.5955C104.471 27.5955 102.996 25.9746 102.996 23.4246V23.4205ZM109.384 23.333C109.384 21.8288 108.421 20.7954 107.021 20.7954C105.621 20.7954 104.675 21.8329 104.675 23.3787C104.675 24.9246 105.621 25.9913 107.021 25.9913C108.421 25.9913 109.384 24.9121 109.384 23.3371V23.333Z" fill="white"/>
<path d="M113.017 16.0411H114.696V20.2411H114.771C115.25 19.6161 116.158 19.2077 117.092 19.2077C119.017 19.2077 120.154 20.4453 120.154 22.5744V27.3745H118.475V22.7078C118.475 21.5536 117.729 20.812 116.579 20.812C115.429 20.812 114.696 21.5578 114.696 22.7078V27.3745H113.017V16.0411Z" fill="white"/>
<path d="M121.604 23.4205C121.604 20.9121 123.22 19.2037 125.629 19.2037C128.037 19.2037 129.67 20.7912 129.67 23.2746V27.3746H128.037V26.1787H127.962C127.466 27.0412 126.474 27.5955 125.412 27.5955C123.079 27.5955 121.604 25.9746 121.604 23.4246V23.4205ZM127.991 23.333C127.991 21.8288 127.029 20.7954 125.629 20.7954C124.229 20.7954 123.283 21.8329 123.283 23.3787C123.283 24.9246 124.229 25.9913 125.629 25.9913C127.029 25.9913 127.991 24.9121 127.991 23.3371V23.333Z" fill="white"/>
<path d="M134.654 17.3954C134.654 16.8121 135.092 16.387 135.704 16.387C136.317 16.387 136.754 16.8079 136.754 17.3954C136.754 17.9829 136.317 18.4037 135.704 18.4037C135.092 18.4037 134.654 17.9829 134.654 17.3954ZM134.871 19.4662H136.55V27.3704H134.871V19.4662Z" fill="white"/>
<path d="M138.404 22.6036C138.404 20.5161 139.792 19.2036 141.992 19.2036C144.192 19.2036 145.538 20.5036 145.538 22.6036V27.3744H143.858V22.6494C143.858 21.5702 143.088 20.7952 141.992 20.7952C140.896 20.7952 140.083 21.5827 140.083 22.6494V27.3744H138.404V22.6036Z" fill="white"/>
<path d="M147.183 17.3952C147.183 16.8119 147.62 16.3868 148.233 16.3868C148.845 16.3868 149.283 16.8077 149.283 17.3952C149.283 17.9827 148.845 18.4035 148.233 18.4035C147.62 18.4035 147.183 17.9827 147.183 17.3952ZM147.399 19.4661H149.078V27.3702H147.399V19.4661Z" fill="white"/>
</svg>
