<svg width="87" height="60" viewBox="0 0 87 60" fill="none" xmlns="http://www.w3.org/2000/svg">
<path d="M86.5372 2.11712L86.4414 2.10043C86.4831 2.1171 86.5206 2.12545 86.5372 2.11712Z" fill="#ACDE45"/>
<path d="M85.208 5.6958C85.208 5.6958 85.2205 5.70415 85.2289 5.70831C85.2205 5.70415 85.2163 5.69997 85.208 5.6958Z" fill="#ACDE45"/>
<path d="M83.2621 1.54181C83.2621 1.54181 83.2495 1.53346 83.2412 1.5293L83.2621 1.54181Z" fill="#ACDE45"/>
<path d="M83.775 0.937676C83.5958 1.07934 83.15 0.975152 83.25 1.22515C83.1791 1.30432 83.2416 1.43349 83.2583 1.54182C83.575 1.70432 83.2208 1.65844 83.4792 1.80844L83.2833 1.7585C83.3708 1.8085 83.4291 1.8543 83.3208 1.83347L83.2666 1.81262C83.4 1.89178 83.3041 1.88762 83.3708 1.92512L83.3166 1.90437L83.3291 1.94598L83.2541 1.91261C83.3875 2.01261 83.3791 2.06267 83.2958 2.07517L83.525 2.15431C83.2375 2.14598 83.6958 2.35437 83.3666 2.32104L83.3125 2.30018C83.8708 2.62102 82.8458 2.30019 83.375 2.61686C83.3083 2.57936 83.2583 2.5793 83.2 2.55846C83.2458 2.6293 83.2624 2.69179 83.7041 2.86262C83.6833 2.89596 83.5541 2.83764 83.3791 2.77931C83.5749 2.85431 83.6416 2.9127 83.6458 2.94604L83.575 2.90433L83.6125 3.00433L83.9875 3.12935C83.8666 3.12935 83.5375 2.97103 83.6083 3.04186L83.9124 3.15854C83.8291 3.19188 83.3583 3.05017 83.1125 3.01684C82.8958 3.19184 83.5791 3.7335 82.9624 3.73766L82.7291 3.65852C82.3958 3.53352 83.2 3.90845 82.8875 3.79595L83.0291 3.87937C82.9666 3.8627 82.8958 3.85013 82.8291 3.80846C82.8083 3.82513 82.8625 3.84596 82.9541 3.90429L82.7375 3.846C82.5416 3.871 82.9125 4.10434 82.7958 4.16684C82.3333 4.11268 82.6374 4.47518 82.8166 4.69185C83.2458 5.06685 81.8499 4.7252 82.3499 5.13354C82.2999 5.12104 82.4 5.17933 82.4375 5.19183L82.3291 5.33353C82.3291 5.33353 82.225 5.51678 82.4875 5.76678C82.75 6.01678 83.3833 6.34179 84.8625 6.61262L84.9333 6.64599C85.1416 6.62932 85.2041 6.5877 84.8666 6.3752C85.3125 6.5502 84.9416 6.32101 85.0916 6.35851L85.1291 6.3752C84.8083 6.17936 85.4583 6.37513 85.1708 6.20013C85.2041 6.21679 85.325 6.26688 85.3291 6.28354C85.2875 6.22104 85.2083 6.12932 85.4708 6.22932C85.4374 6.10849 85.6083 6.02514 85.2166 5.80014L85.2875 5.83351C85.0208 5.68768 85.2625 5.77096 85.1375 5.67929C85.1708 5.69179 85.1916 5.69598 85.2041 5.70015C84.9416 5.55015 85.2042 5.57515 85.0958 5.49599L85.2666 5.56262L85.2541 5.47096L85.2083 5.48347C84.7374 5.28347 85.525 5.54596 85.2416 5.37096C85.3208 5.34596 84.2958 4.8752 84.5458 4.91686C84.3333 4.80436 84.8999 5.08349 84.7416 4.97932C84.9874 5.07516 84.8916 5.05853 85.0916 5.12937C84.9875 5.04603 85.3666 5.17096 85.2166 5.05846L85.4083 5.13354C85.0792 4.93354 85.7041 5.12513 85.3833 4.95013C85.2458 4.82513 85.9708 5.1377 85.6167 4.9252L85.8874 5.00435C85.9416 4.99601 85.575 4.85849 85.7125 4.87933C85.875 4.94599 85.8583 4.89181 86.0083 4.97098C86.2916 5.00431 85.6958 4.69182 86.1666 4.77099C85.8541 4.62516 86.0625 4.65431 85.825 4.55014C85.9667 4.60014 85.8833 4.47096 86.1666 4.63763C86.1916 4.65013 86.1833 4.65846 86.1291 4.63763L86.3166 4.71687C86.6958 4.80437 86.1541 4.54594 86.2291 4.51678C86.1625 4.50844 86.1708 4.5335 86.0458 4.471L86.0874 4.43346L86.2458 4.50437L86.3666 4.471L86.1666 4.40437C86.2833 4.40854 86.6249 4.52935 86.3583 4.37935C86.2083 4.30018 86.0791 4.30849 86.0291 4.25016C86.1833 4.25849 86.4125 4.2668 86.4916 4.2293C86.2666 4.15014 86.2792 4.13762 86.2417 4.10428L86.4375 4.17518C86.1916 4.01268 86.8708 4.31685 86.6833 4.17518L86.8166 4.23347L86.4166 4.06268C86.0541 3.86268 86.8291 4.18764 86.3291 3.92514C86.3541 3.96264 85.8958 3.7752 85.9916 3.7752L86.175 3.85434C86.1416 3.82101 86.0666 3.78762 86.1083 3.79178C86.2041 3.84178 86.3791 3.90018 86.3541 3.86268L86.5833 3.96685L86.2541 3.79178C86.4666 3.83345 86.2374 3.67936 86.5083 3.76686C86.5083 3.76686 86.6666 3.73764 86.3833 3.61264C86.5583 3.69598 86.6416 3.67936 86.85 3.77103C86.6541 3.6752 86.5083 3.55431 86.7375 3.61264L86.7583 3.62516C87.0125 3.62516 86.5125 3.36263 86.8083 3.38763C86.5791 3.30846 86.7208 3.31266 86.4291 3.21683C86.175 3.02933 87.0708 3.28769 86.1916 2.92936C86.1583 2.87519 86.4166 2.96262 86.4708 2.96262L86.5166 2.98764C86.4708 2.89181 86.4666 2.87102 86.5083 2.82519C86.4291 2.76686 86.0166 2.61268 86.1333 2.60434C86.2916 2.67934 86.2708 2.6502 86.275 2.63354C86.2958 2.65437 86.3541 2.67933 86.475 2.696C86.425 2.67516 86.3958 2.65844 86.3708 2.64178C86.3833 2.64594 86.3958 2.65012 86.4125 2.65429C86.3666 2.60429 86.3125 2.59183 86.2833 2.596C86.2583 2.58767 86.225 2.57514 86.1791 2.56264C86.4041 2.61264 86.1958 2.47515 86.4791 2.57515C86.4458 2.46681 86.1749 2.30018 86.0916 2.18768C86.2416 2.23351 86.3625 2.29595 86.4125 2.33762L86.3791 2.26682C86.5875 2.34182 86.4875 2.33765 86.525 2.37099C86.8875 2.43349 86.2333 2.12516 86.5708 2.16682L86.4083 2.09185H86.4375C86.35 2.06685 86.2375 2.00852 86.2125 1.98768C86.4 2.04185 86.6333 2.13769 86.6375 2.10019C86.825 2.13769 86.5791 1.99179 86.4916 1.92095C86.4541 1.92929 86.3542 1.88766 86.2917 1.85432C86.2917 1.83349 86.4791 1.89182 86.4041 1.85015L86.6541 1.93764C86.4166 1.86264 86.4208 1.80433 86.3208 1.76267C86.5083 1.81683 86.4667 1.84603 86.6042 1.9002C86.6042 1.82103 86.6041 1.86269 86.6083 1.78352C86.4374 1.67936 86.3708 1.70846 86.1625 1.61262C86.125 1.56262 85.9666 1.47104 86.1291 1.4877L85.9041 1.42097C85.7583 1.30014 85.7958 1.27096 86.0333 1.30846C84.4125 0.233465 83.6208 0.358453 83.6208 0.358453C83.0666 0.358453 83.675 0.675185 83.7666 0.946018L83.775 0.937676Z" fill="#ACDE45"/>
<path d="M80.7924 14.8258L80.6924 14.8008C80.7299 14.8216 80.7674 14.8341 80.7924 14.8258Z" fill="#ACDE45"/>
<path d="M76.8262 20.8467C76.8262 20.8467 76.8345 20.8592 76.8387 20.8634C76.8387 20.855 76.8303 20.8508 76.8262 20.8467Z" fill="#ACDE45"/>
<path d="M77.4298 14.0922C77.4298 14.0922 77.4173 14.0797 77.4131 14.0714L77.4298 14.0922Z" fill="#ACDE45"/>
<path d="M78.3548 13.0382C78.0756 13.2965 77.6339 13.1465 77.6048 13.5632C77.4839 13.6965 77.4756 13.9132 77.434 14.0882C77.6923 14.3423 77.3214 14.2881 77.5214 14.5256L77.3298 14.4548C77.3965 14.5381 77.434 14.6048 77.3298 14.5798L77.2798 14.5464C77.384 14.6673 77.2756 14.6714 77.3256 14.7298L77.2756 14.6965L77.2673 14.7631L77.2006 14.709C77.2923 14.8673 77.2506 14.9506 77.1464 14.9798L77.3548 15.1006C77.0339 15.1006 77.4256 15.4214 77.0715 15.3798L77.0215 15.3465C77.4548 15.8548 76.4923 15.3715 76.8923 15.8673C76.8423 15.8048 76.7839 15.8089 76.7339 15.7756C76.7423 15.8923 76.7173 15.9923 77.1131 16.2548C77.0715 16.309 76.959 16.2215 76.8006 16.1256C76.9756 16.2381 77.0131 16.3382 76.9964 16.3882L76.9423 16.3215L76.9173 16.4882L77.2631 16.6798C77.1256 16.684 76.8506 16.434 76.8881 16.5506L77.1589 16.7298C77.0423 16.7881 76.5965 16.5673 76.3381 16.5214C75.9798 16.8089 76.3839 17.6798 75.6756 17.6881L75.4673 17.5631C75.1714 17.3631 75.834 17.9631 75.5548 17.784L75.659 17.9173C75.6006 17.8923 75.5256 17.8756 75.4756 17.809C75.4381 17.8381 75.484 17.8714 75.5548 17.9631L75.3465 17.8714C75.1048 17.9131 75.3631 18.2839 75.1839 18.3839C74.6881 18.2923 74.7756 18.8756 74.8173 19.2131C75.0298 19.8131 73.6673 19.2423 73.9339 19.8923C73.8881 19.8673 73.959 19.9631 73.9881 19.9881L73.7506 20.2006C73.7506 20.2006 73.484 20.4756 73.584 20.8714C73.6923 21.2673 74.1548 21.8131 75.6881 22.2881L75.7423 22.3423C76.0089 22.3214 76.1131 22.2548 75.8881 21.909C76.2714 22.1965 76.0214 21.8215 76.1714 21.8882L76.2006 21.9173C75.9839 21.5964 76.5881 21.9298 76.3965 21.6381C76.4256 21.6673 76.5256 21.7507 76.5173 21.7757C76.5173 21.6757 76.5048 21.5257 76.7256 21.6923C76.7881 21.4965 77.0548 21.3673 76.7714 21.0006L76.8256 21.0548C76.6298 20.8173 76.8464 20.9548 76.7714 20.8006C76.8048 20.8215 76.8214 20.8257 76.8339 20.8382C76.6423 20.5965 76.9298 20.6381 76.8673 20.5131L77.0173 20.6215L77.0715 20.4756L77.0048 20.4965C76.6089 20.1715 77.3256 20.6007 77.1298 20.3132C77.2423 20.2715 76.4006 19.5173 76.6631 19.584C76.5006 19.4007 76.9506 19.8506 76.8464 19.6798C77.0631 19.834 76.9589 19.8048 77.1423 19.9173C77.0839 19.784 77.4339 19.9798 77.3423 19.8007L77.5131 19.9215C77.2756 19.6007 77.8631 19.9006 77.6173 19.6256C77.5506 19.4256 78.1631 19.9215 77.909 19.5798L78.1673 19.7048C78.234 19.6882 77.909 19.4715 78.0548 19.5007C78.1965 19.6048 78.2131 19.5214 78.3298 19.6464C78.6339 19.6923 78.1714 19.1923 78.6589 19.3131C78.4006 19.0839 78.6173 19.1256 78.4256 18.9548C78.5506 19.0381 78.5506 18.8173 78.7589 19.0882C78.7756 19.109 78.7589 19.1215 78.7173 19.0882L78.8756 19.2131C79.2506 19.3464 78.8089 18.9382 78.9173 18.8882C78.8464 18.8757 78.8381 18.9173 78.7381 18.8173L78.8131 18.7548L78.9423 18.8673L79.1048 18.8089L78.9173 18.7048C79.0464 18.7089 79.359 18.8923 79.1548 18.659C79.034 18.534 78.8798 18.5548 78.8673 18.4548C79.0381 18.459 79.2965 18.4673 79.4173 18.4048C79.2131 18.2798 79.2381 18.259 79.2131 18.2048L79.3881 18.3173C79.2173 18.0548 79.7923 18.5298 79.6715 18.3006L79.784 18.3881L79.4423 18.1215C79.1589 17.8006 79.8339 18.309 79.4339 17.8965C79.4339 17.959 79.0381 17.6631 79.1465 17.6631L79.3048 17.784C79.2881 17.734 79.2256 17.6756 79.2714 17.6798C79.3506 17.7548 79.509 17.8465 79.509 17.7881L79.7006 17.9548L79.4423 17.6756C79.6631 17.734 79.4964 17.4923 79.7506 17.6173C79.7506 17.6173 79.9506 17.5631 79.7089 17.3631C79.8548 17.4923 79.9631 17.459 80.1381 17.6048C79.9756 17.4548 79.8881 17.2589 80.1131 17.3423L80.1298 17.3631C80.4256 17.3423 80.0173 16.9381 80.3423 16.9548C80.134 16.834 80.2881 16.834 80.0173 16.6882C79.8423 16.3923 80.7048 16.7631 79.9256 16.2173C79.9215 16.1298 80.1631 16.259 80.2214 16.2548L80.2548 16.2964C80.2631 16.1381 80.2756 16.1006 80.3465 16.0215C80.2923 15.9298 79.9214 15.6923 80.0589 15.6714C80.1923 15.7881 80.1839 15.7381 80.2048 15.709C80.2173 15.7423 80.2673 15.7798 80.3923 15.8048C80.3506 15.7715 80.3256 15.7465 80.3048 15.7256C80.3173 15.734 80.3256 15.7382 80.3423 15.7465C80.3173 15.6673 80.2673 15.6465 80.2339 15.6548C80.2131 15.6382 80.1798 15.6256 80.134 15.6048C80.359 15.6715 80.2048 15.4548 80.4673 15.6048C80.4964 15.4215 80.2881 15.159 80.2589 14.9756C80.4006 15.0423 80.5048 15.1381 80.5339 15.2048V15.0881C80.7298 15.2006 80.6173 15.2048 80.6423 15.2548C81.0131 15.3339 80.4548 14.859 80.8131 14.9048L80.6756 14.7923L80.7048 14.8007C80.6256 14.7548 80.5298 14.6631 80.5131 14.6298C80.6923 14.7089 80.9006 14.8548 80.9256 14.7881C81.1173 14.834 80.9256 14.6048 80.8673 14.4882C80.8215 14.5048 80.7339 14.4423 80.6798 14.3923C80.6923 14.359 80.8714 14.4381 80.8089 14.3715L81.0381 14.5007C80.8173 14.3882 80.8506 14.2881 80.7631 14.2256C80.9423 14.3048 80.8839 14.3548 81.0048 14.4339C81.0506 14.3006 81.0298 14.3673 81.0756 14.2339C80.9381 14.0714 80.8506 14.1257 80.6714 13.9798C80.6589 13.8965 80.5298 13.7548 80.7048 13.7632L80.4923 13.6715C80.3923 13.4757 80.4506 13.4257 80.6964 13.4673C80.0839 12.609 79.534 12.2631 79.1465 12.1214C78.7548 11.9798 78.5173 12.0464 78.5173 12.0464C77.9006 12.0964 78.409 12.5798 78.3631 13.0298L78.3548 13.0382Z" fill="#ACDE45"/>
<path d="M68.8304 28.8548L68.7471 28.7964C68.7762 28.8297 68.8054 28.8589 68.8304 28.8548Z" fill="#ACDE45"/>
<path d="M66.0171 26.8756C66.0171 26.8756 66.013 26.8589 66.0088 26.8506L66.0171 26.8756Z" fill="#ACDE45"/>
<path d="M67.2548 26.2755C66.9007 26.4047 66.5507 26.0964 66.3757 26.463C66.2132 26.538 66.1257 26.7297 66.0215 26.8755C66.1632 27.2088 65.8423 27.013 65.934 27.3089L65.7881 27.1672C65.8215 27.2672 65.8257 27.3463 65.7382 27.2797L65.7048 27.2296C65.7507 27.3838 65.6548 27.3422 65.6756 27.4172L65.6423 27.3672L65.609 27.4214L65.5715 27.3463C65.5923 27.5255 65.5256 27.588 65.4173 27.5713L65.559 27.7671C65.2673 27.638 65.4965 28.088 65.1923 27.9088L65.1631 27.8588C65.359 28.5005 64.6715 27.6671 64.8381 28.2796C64.8173 28.2046 64.7632 28.1797 64.7298 28.1297C64.6923 28.238 64.6298 28.3213 64.884 28.7213C64.8257 28.7547 64.759 28.6254 64.6507 28.4754C64.7632 28.6504 64.7632 28.7546 64.7257 28.7963L64.7007 28.7171L64.6132 28.8589L64.8506 29.1755C64.7215 29.1214 64.5757 28.7838 64.5632 28.9046L64.7381 29.1797C64.609 29.1839 64.2923 28.8005 64.0757 28.6547C63.634 28.7672 63.6465 29.7255 63.0007 29.438L62.8631 29.2338C62.6798 28.9296 63.0298 29.7505 62.8507 29.4713L62.8882 29.638C62.8465 29.588 62.7881 29.5422 62.7673 29.463C62.7215 29.4713 62.7507 29.5255 62.7757 29.6338L62.6257 29.463C62.3882 29.3963 62.4715 29.8463 62.2673 29.8588C61.8548 29.563 61.6923 30.1255 61.5882 30.4505C61.5257 31.0839 60.5382 29.988 60.5048 30.6838C60.4715 30.6421 60.4965 30.7588 60.5132 30.7963L60.2048 30.888C60.2048 30.888 59.8465 31.0213 59.7673 31.4255C59.6923 31.8296 59.8798 32.5213 61.059 33.6088L61.084 33.6838C61.3298 33.7796 61.4548 33.7672 61.4048 33.3547C61.6298 33.7797 61.5631 33.3339 61.6673 33.4547L61.6798 33.4921C61.6215 33.1088 62.0256 33.6672 61.9756 33.3213C61.9881 33.3588 62.0465 33.4755 62.0256 33.4963C62.0715 33.4046 62.1215 33.263 62.2507 33.5088C62.3882 33.3588 62.6882 33.3547 62.5923 32.9005L62.6215 32.9713C62.5465 32.6713 62.6798 32.8922 62.6798 32.7172C62.7007 32.7464 62.7132 32.763 62.7215 32.7755C62.6507 32.4755 62.8965 32.6338 62.8882 32.4922L62.9798 32.6546L63.0923 32.5463L63.0256 32.5379C62.8048 32.0796 63.2757 32.7672 63.2173 32.4255C63.3382 32.4339 62.8965 31.3964 63.1048 31.5672C63.034 31.3339 63.2506 31.9296 63.2298 31.7338C63.359 31.9671 63.2798 31.8963 63.3965 32.0755C63.3965 31.9297 63.634 32.2588 63.6257 32.0547L63.7298 32.2338C63.6507 31.8463 64.059 32.363 63.9507 32.0089C63.9715 31.8005 64.3257 32.5047 64.2382 32.088L64.4215 32.3089C64.4923 32.3214 64.284 31.9922 64.4048 32.0797C64.4882 32.2338 64.5423 32.163 64.5923 32.3255C64.8507 32.4964 64.6382 31.8463 65.034 32.1546C64.8923 31.838 65.0757 31.9671 64.9715 31.7296C65.0507 31.8546 65.1423 31.6547 65.2173 31.988C65.2215 32.0172 65.209 32.0213 65.1798 31.9672L65.2715 32.1505C65.559 32.4255 65.3257 31.8713 65.4465 31.8672C65.384 31.8255 65.359 31.863 65.309 31.7296L65.4048 31.7046L65.4756 31.863L65.6507 31.8755L65.5215 31.7046C65.6381 31.7629 65.8465 32.0547 65.759 31.7588C65.7007 31.5963 65.5506 31.5505 65.5798 31.4547C65.734 31.5297 65.9673 31.638 66.1048 31.6296C65.9673 31.4338 66.0007 31.4255 66.0007 31.363L66.1132 31.538C66.0673 31.2255 66.3965 31.9005 66.3798 31.638L66.4465 31.7672L66.2424 31.3839C66.1174 30.9755 66.5257 31.713 66.3298 31.1714C66.309 31.2297 66.0632 30.8005 66.1632 30.8422L66.259 31.0172C66.2632 30.963 66.2298 30.888 66.2715 30.9088C66.3132 31.0088 66.4215 31.1588 66.4423 31.1046L66.5507 31.3338L66.4298 30.9714C66.609 31.113 66.559 30.8213 66.7382 31.0422C66.7382 31.0422 66.9465 31.0713 66.8048 30.7963C66.884 30.9755 66.9965 30.988 67.1007 31.188C67.0132 30.9838 67.0131 30.7672 67.184 30.9338L67.1923 30.9589C67.4715 31.0547 67.2631 30.5213 67.5548 30.6671C67.4131 30.4713 67.5548 30.5338 67.3632 30.2922C67.3215 29.9505 67.9673 30.6339 67.4673 29.8214C67.4965 29.738 67.6673 29.9547 67.7257 29.9713L67.7382 30.0214C67.809 29.8755 67.834 29.8464 67.934 29.8047C67.9215 29.7005 67.6715 29.3338 67.8049 29.3672C67.884 29.5255 67.8965 29.4797 67.9215 29.4588C67.9215 29.4922 67.9507 29.5505 68.059 29.6172C68.034 29.5714 68.0215 29.538 68.0132 29.5089C68.0215 29.5214 68.0298 29.5255 68.0382 29.5421C68.0465 29.4588 68.009 29.4213 67.9715 29.4171C67.9548 29.3963 67.934 29.3671 67.9007 29.3338C68.084 29.4838 68.0257 29.2255 68.209 29.463C68.309 29.3047 68.2215 28.9796 68.2632 28.8005C68.3673 28.913 68.4257 29.0463 68.4299 29.1171L68.4757 29.0088C68.609 29.188 68.5048 29.1464 68.509 29.2005C68.8257 29.413 68.4923 28.763 68.8048 28.938L68.7215 28.7797L68.7465 28.7963C68.6881 28.7213 68.6382 28.6005 68.634 28.5672C68.7673 28.7089 68.9048 28.9255 68.9548 28.8714C69.1131 28.988 69.0215 28.7005 69.0173 28.5714C68.9673 28.5714 68.909 28.4755 68.8798 28.413C68.9048 28.388 69.0381 28.5255 69.009 28.4422L69.1757 28.6463C69.0132 28.4588 69.084 28.3796 69.0257 28.288C69.1632 28.4296 69.0881 28.4547 69.1715 28.5755C69.2673 28.4672 69.2215 28.5213 69.3173 28.4172C69.2548 28.2172 69.1507 28.2297 69.0382 28.0297C69.059 27.9505 68.9923 27.7672 69.1507 27.8422L68.9882 27.6755C68.9715 27.4588 69.0423 27.4338 69.2548 27.563C69.009 26.538 68.6215 26.0172 68.309 25.7422C67.9965 25.4672 67.7548 25.438 67.7548 25.438C67.1715 25.2505 67.4632 25.888 67.2548 26.2797V26.2755Z" fill="#ACDE45"/>
<path d="M52.1262 36.6671L52.0762 36.5796C52.0887 36.6213 52.1053 36.6587 52.1262 36.6671Z" fill="#ACDE45"/>
<path d="M51.6967 33.6795C51.3176 33.6586 51.1134 33.2419 50.7967 33.5127C50.6134 33.5211 50.4551 33.6669 50.2967 33.7586C50.2967 34.1211 50.0759 33.8169 50.0467 34.1252L49.9634 33.9377C49.9551 34.0419 49.9301 34.121 49.8717 34.021L49.8592 33.9628C49.8426 34.1211 49.7676 34.046 49.7592 34.1252L49.7467 34.0669L49.6925 34.1044L49.6842 34.021C49.6342 34.196 49.5467 34.2294 49.4509 34.1753L49.5092 34.4086C49.2801 34.1836 49.33 34.6836 49.1092 34.4086L49.0967 34.3502C49.0384 35.0169 48.7009 33.9919 48.6301 34.6252C48.6384 34.546 48.5926 34.5044 48.5842 34.4461C48.5092 34.5336 48.4176 34.5877 48.5134 35.0544C48.4467 35.0627 48.43 34.921 48.38 34.7419C48.4217 34.946 48.38 35.0419 48.3342 35.0669L48.3425 34.9836L48.2051 35.0836L48.3134 35.4627C48.2092 35.3669 48.1967 34.9961 48.1384 35.1044L48.2051 35.4211C48.0801 35.3794 47.9175 34.9128 47.7634 34.6961C47.2967 34.6461 46.9759 35.5544 46.455 35.0711L46.3926 34.8335C46.3217 34.4835 46.3759 35.3752 46.3009 35.0544L46.2842 35.2253C46.2592 35.1669 46.2176 35.1044 46.2259 35.0211C46.1801 35.0169 46.1884 35.0752 46.1759 35.1836L46.0884 34.9752C45.8842 34.8377 45.8092 35.2878 45.6092 35.2336C45.3092 34.8253 44.9634 35.3085 44.7592 35.5877C44.5051 36.171 43.8759 34.8336 43.6259 35.4919C43.6051 35.4419 43.5967 35.5627 43.6009 35.6002H43.2717C43.2717 35.6002 42.8801 35.6294 42.6884 35.996C42.5009 36.3669 42.505 37.0794 43.33 38.4503V38.5294C43.5425 38.6877 43.6592 38.7127 43.7217 38.3044C43.8176 38.7752 43.8759 38.3294 43.9426 38.4752V38.5127C43.9967 38.1294 44.2175 38.7794 44.2717 38.4378C44.2717 38.4753 44.2925 38.6086 44.2717 38.6169C44.3384 38.5461 44.4259 38.421 44.4759 38.696C44.6467 38.5919 44.9259 38.6794 44.9676 38.2211V38.3002C44.9884 37.9919 45.0509 38.2419 45.1009 38.0794C45.1092 38.1169 45.1176 38.1336 45.1217 38.1461C45.1467 37.8419 45.3259 38.0628 45.3634 37.9294L45.3967 38.1127L45.5342 38.0461L45.4717 38.0169C45.405 37.5127 45.6342 38.3127 45.6842 37.971C45.7925 38.0169 45.7009 36.8919 45.8425 37.121C45.8509 36.8794 45.8676 37.5128 45.9092 37.3169C45.9592 37.5794 45.9051 37.4877 45.9592 37.6919C46.0092 37.5544 46.1217 37.9377 46.1801 37.746L46.2217 37.9503C46.2717 37.5586 46.4884 38.1794 46.5009 37.8086C46.5884 37.6169 46.6926 38.4002 46.7426 37.9794L46.8426 38.2461C46.9051 38.2794 46.8176 37.9003 46.9009 38.0253C46.9301 38.2003 47.0009 38.1502 46.9967 38.3211C47.1801 38.5669 47.1925 37.8836 47.455 38.3086C47.43 37.9627 47.5551 38.1461 47.5342 37.8877C47.5676 38.0336 47.7134 37.8794 47.6759 38.2169C47.6759 38.2461 47.6551 38.2419 47.6467 38.1835L47.6717 38.3877C47.8467 38.746 47.8134 38.146 47.9217 38.1835C47.88 38.121 47.8426 38.1502 47.8426 38.0044L47.9384 38.0127L47.9509 38.1835L48.1092 38.2544L48.0509 38.0503C48.1384 38.1461 48.2342 38.4919 48.2509 38.1835C48.2509 38.0127 48.13 37.9169 48.1884 37.8378C48.305 37.9628 48.4842 38.1502 48.6092 38.1877C48.5509 37.9544 48.5842 37.9586 48.6092 37.9044L48.655 38.1086C48.7175 37.8002 48.7926 38.546 48.8676 38.296L48.8842 38.4419L48.8301 38.0086C48.8551 37.5836 48.9759 38.4169 48.9842 37.8419C48.9426 37.8878 48.8676 37.4002 48.9467 37.4752L48.9717 37.6752C48.9967 37.6252 48.9884 37.5419 49.0175 37.5794C49.0175 37.6877 49.0675 37.8669 49.1092 37.8211L49.1301 38.0752L49.1426 37.6961C49.2551 37.8919 49.3092 37.6044 49.3967 37.8752C49.3967 37.8752 49.5759 37.9794 49.5467 37.6669C49.5592 37.8627 49.6551 37.9169 49.6801 38.1419C49.6717 37.9211 49.7509 37.7211 49.8467 37.9378V37.9669C50.0634 38.1585 50.0634 37.5878 50.2801 37.8336C50.2217 37.6003 50.3301 37.7086 50.2426 37.4128C50.3301 37.0836 50.6676 37.9585 50.5134 37.0169C50.5717 36.9502 50.6467 37.2127 50.6967 37.2544V37.3086C50.8092 37.2003 50.8425 37.1836 50.9467 37.1836C50.9759 37.0836 50.88 36.6502 50.9925 36.7335C51.005 36.9127 51.0342 36.8711 51.0676 36.8627C51.0509 36.8961 51.0592 36.9586 51.1342 37.0627C51.1259 37.0086 51.1301 36.9752 51.1342 36.9461C51.1342 36.9586 51.1425 36.9711 51.1467 36.9878C51.1884 36.9128 51.1634 36.8627 51.1342 36.8461C51.1301 36.8211 51.1175 36.7877 51.1009 36.7419C51.2092 36.9502 51.2551 36.6878 51.3342 36.9794C51.4842 36.8711 51.5301 36.5419 51.6384 36.3919C51.6926 36.5377 51.6925 36.6794 51.6675 36.7502L51.7509 36.6711C51.8051 36.8878 51.7259 36.8086 51.7051 36.8627C51.9092 37.1836 51.8592 36.4544 52.0759 36.7377L52.0592 36.5586L52.0759 36.5836C52.0509 36.4919 52.0509 36.3627 52.0634 36.3294C52.1301 36.5127 52.1717 36.7627 52.2384 36.7335C52.3384 36.9002 52.3676 36.6044 52.4092 36.4836C52.3634 36.4628 52.3467 36.3545 52.3467 36.2836C52.38 36.267 52.4467 36.4503 52.4509 36.3628L52.5217 36.6169C52.4467 36.3794 52.5426 36.3336 52.5259 36.2294C52.5967 36.4127 52.5175 36.4044 52.5467 36.5502C52.6759 36.4919 52.6092 36.5211 52.7384 36.4628C52.7592 36.2544 52.6592 36.2252 52.6342 35.996C52.6842 35.9294 52.6967 35.7377 52.8134 35.871L52.7301 35.6544C52.8009 35.4461 52.8759 35.4545 53.0175 35.6586C53.2009 34.6211 53.0634 33.9877 52.8926 33.6085C52.7176 33.2294 52.505 33.1086 52.505 33.1086C52.0384 32.7044 52.0467 33.4044 51.6926 33.6835L51.6967 33.6795Z" fill="#ACDE45"/>
<path d="M34.1803 39.6961L34.1387 39.6045C34.147 39.6503 34.1595 39.6836 34.1803 39.6961Z" fill="#ACDE45"/>
<path d="M34.0927 36.6753C33.7052 36.6128 33.5427 36.1794 33.1802 36.4169C32.9885 36.4086 32.8094 36.5377 32.6386 36.6211C32.6052 36.9836 32.401 36.6627 32.3469 36.9669L32.2802 36.7753C32.2594 36.8794 32.2302 36.9544 32.1802 36.8544L32.1719 36.7961C32.1427 36.9545 32.0719 36.8711 32.0552 36.9502L32.0469 36.8919L31.9885 36.9252V36.8419C31.9219 37.0127 31.8302 37.0378 31.7344 36.9794L31.776 37.217C31.5594 36.9753 31.5719 37.4836 31.3635 37.1919L31.3552 37.1335C31.2552 37.796 30.9677 36.7544 30.8552 37.3836C30.8677 37.3044 30.8261 37.2628 30.8177 37.2044C30.7344 37.2878 30.6386 37.3378 30.7094 37.8086C30.6386 37.8128 30.6302 37.6711 30.5927 37.4919C30.626 37.6961 30.5802 37.7919 30.526 37.8128L30.5385 37.7294L30.3927 37.8253L30.4885 38.2086C30.3885 38.1086 30.3885 37.7378 30.326 37.8461L30.3802 38.1669C30.2552 38.121 30.1094 37.6461 29.9594 37.4295C29.476 37.3711 29.126 38.2711 28.5969 37.7836L28.5344 37.546C28.4636 37.196 28.5094 38.0877 28.4344 37.7669L28.4135 37.9378C28.3885 37.8794 28.3469 37.817 28.3552 37.7336C28.3052 37.7295 28.3177 37.7877 28.301 37.9002L28.2094 37.6919C27.9969 37.5544 27.9219 38.0044 27.7135 37.9585C27.3969 37.5585 27.0427 38.0503 26.8427 38.3378C26.6052 38.9294 25.9052 37.6252 25.6718 38.3002C25.651 38.2544 25.6427 38.3711 25.651 38.4127L25.3135 38.4378C25.3135 38.4378 24.9094 38.4961 24.7385 38.8795C24.5677 39.2628 24.651 39.9711 25.5677 41.2753L25.576 41.3544C25.7885 41.5003 25.9052 41.5169 25.9385 41.1086C26.0635 41.5711 26.0885 41.1253 26.1635 41.2669V41.3044C26.1927 40.921 26.4469 41.5544 26.4802 41.2127C26.4802 41.2502 26.5094 41.3794 26.4885 41.3919C26.551 41.3169 26.626 41.1919 26.6927 41.4628C26.851 41.3544 27.1219 41.4295 27.1469 40.967L27.1552 41.0461C27.1552 40.7378 27.2302 40.9836 27.2719 40.8211C27.2844 40.8544 27.2927 40.8752 27.2927 40.8877C27.3052 40.5835 27.4885 40.8002 27.5219 40.6627L27.5635 40.8419L27.6969 40.771L27.6386 40.7419C27.5594 40.2378 27.8052 41.0336 27.8427 40.6919C27.951 40.7377 27.8344 39.6127 27.9844 39.8377C27.9844 39.5919 28.0177 40.2253 28.051 40.0336C28.1052 40.2961 28.0511 40.2044 28.1094 40.4086C28.1552 40.2711 28.2761 40.6544 28.3261 40.4585L28.3677 40.6627C28.4094 40.271 28.6302 40.8919 28.6386 40.5211C28.7219 40.3294 28.826 41.1127 28.876 40.6919L28.9719 40.9586C29.0302 40.9919 28.9469 40.6128 29.026 40.7378C29.0552 40.9128 29.1219 40.8628 29.1177 41.0336C29.2969 41.2836 29.3094 40.6003 29.5594 41.0336C29.5344 40.6878 29.6594 40.8753 29.6385 40.6169C29.6677 40.7628 29.8136 40.6128 29.7761 40.9461C29.7761 40.9753 29.7552 40.9711 29.7469 40.9127L29.7719 41.1169C29.9344 41.4794 29.9094 40.8794 30.0177 40.9211C29.976 40.8586 29.9427 40.8836 29.9427 40.7419L30.0386 40.7545L30.051 40.9252L30.2011 41.0002L30.1469 40.7919C30.2302 40.8877 30.3135 41.2419 30.3344 40.9294C30.3385 40.7586 30.226 40.6586 30.2844 40.5794C30.3969 40.7086 30.5635 40.9003 30.6844 40.9461C30.6344 40.7128 30.6677 40.7169 30.6885 40.6627L30.726 40.867C30.7969 40.5628 30.8427 41.3086 30.9219 41.0628L30.9344 41.2086L30.8969 40.7752C30.9344 40.3502 31.0219 41.1919 31.051 40.6169C31.0094 40.6586 30.9552 40.1669 31.0261 40.2502L31.0427 40.4503C31.0677 40.4045 31.0635 40.3169 31.0927 40.3585C31.0927 40.4669 31.1302 40.6461 31.1719 40.6086L31.1802 40.8628L31.2094 40.4836C31.3094 40.6836 31.3761 40.4002 31.4511 40.6752C31.4511 40.6752 31.6177 40.7877 31.6052 40.4794C31.6052 40.6752 31.6969 40.7336 31.7094 40.9586C31.7094 40.7378 31.7969 40.546 31.8802 40.7669V40.7961C32.076 41.0044 32.1094 40.4336 32.301 40.6919C32.2594 40.4544 32.3552 40.5711 32.2885 40.2711C32.3968 39.9461 32.6635 40.8461 32.576 39.9003C32.6385 39.8378 32.6927 40.1085 32.7344 40.1502L32.726 40.2044C32.8469 40.1086 32.8844 40.0919 32.9844 40.1003C33.0177 40.0003 32.9635 39.5627 33.0677 39.6544C33.0677 39.8336 33.0969 39.7961 33.1302 39.7919C33.1135 39.8211 33.1177 39.8878 33.176 39.9961C33.176 39.9419 33.176 39.9086 33.1844 39.8794C33.1844 39.8919 33.1885 39.9045 33.1927 39.9211C33.2385 39.8503 33.2219 39.8002 33.1927 39.7794C33.1927 39.7544 33.1844 39.7211 33.1677 39.6711C33.2594 39.8877 33.3261 39.6336 33.3761 39.9295C33.5302 39.8378 33.6052 39.5086 33.726 39.3753C33.7635 39.5253 33.751 39.6669 33.7177 39.7335L33.8052 39.6627C33.8344 39.8836 33.7677 39.796 33.7427 39.846C33.9094 40.1877 33.9302 39.4544 34.1135 39.7627V39.5836L34.1302 39.6128C34.1177 39.5211 34.1302 39.3919 34.1469 39.3586C34.1927 39.5502 34.2094 39.8044 34.276 39.7794C34.3552 39.9586 34.4136 39.6669 34.4677 39.5502C34.4261 39.5211 34.4219 39.4127 34.4302 39.3461C34.4635 39.3336 34.5093 39.5252 34.526 39.4377L34.5677 39.6961C34.5219 39.4544 34.6177 39.421 34.6177 39.3127C34.6636 39.5044 34.5885 39.4877 34.601 39.6335C34.7344 39.5919 34.6677 39.6127 34.801 39.5669C34.8469 39.3627 34.7552 39.3211 34.7552 39.092C34.8135 39.0336 34.851 38.842 34.9427 38.9878L34.8886 38.7586C34.9844 38.5628 35.0594 38.5794 35.1719 38.8002C35.8094 36.796 35.0052 36.2044 35.0052 36.2044C34.5802 35.7419 34.4885 36.4419 34.0927 36.6794V36.6753Z" fill="#ACDE45"/>
<path d="M17.0793 44.0628L17.0127 43.9878C17.0335 44.0295 17.0543 44.0586 17.0793 44.0628Z" fill="#ACDE45"/>
<path d="M11.3711 47.6499C11.3711 47.6499 11.3753 47.6624 11.3794 47.6708C11.3794 47.6624 11.3753 47.6541 11.3711 47.6499Z" fill="#ACDE45"/>
<path d="M14.6546 41.6167C14.6546 41.6167 14.6546 41.6001 14.6504 41.5918V41.6167H14.6546Z" fill="#ACDE45"/>
<path d="M16.121 41.196C15.7169 41.2543 15.4252 40.8919 15.1335 41.2377C14.9419 41.2919 14.8002 41.4793 14.6544 41.6168C14.7335 41.971 14.4335 41.7377 14.4752 42.0502L14.346 41.8919C14.3585 42.0002 14.3543 42.0794 14.271 42.0002L14.246 41.946C14.2669 42.1044 14.171 42.0543 14.1835 42.1335L14.1586 42.0794L14.1127 42.1335L14.0835 42.0544C14.0752 42.2419 13.996 42.3002 13.8835 42.2752L14.0085 42.4835C13.7127 42.3377 13.9002 42.8086 13.596 42.6086L13.571 42.5585C13.7044 43.2168 13.0627 42.3544 13.1793 42.9877C13.1627 42.9085 13.1043 42.8877 13.0793 42.8336C13.0293 42.9461 12.9544 43.0294 13.196 43.4377C13.1294 43.4711 13.0668 43.3418 12.9668 43.1877C13.0752 43.3668 13.0668 43.471 13.0252 43.5127L13.0044 43.4294L12.9044 43.5753L13.1377 43.8918C13.0044 43.8418 12.8669 43.496 12.846 43.621L13.0168 43.896C12.8835 43.9043 12.5627 43.521 12.3335 43.3793C11.8419 43.5293 11.8794 44.5002 11.1877 44.2877L11.0294 44.1002C10.8169 43.8127 11.2335 44.6044 11.0294 44.346L11.0794 44.5086C11.0294 44.4669 10.9668 44.4294 10.9418 44.346C10.896 44.3627 10.9252 44.4127 10.9627 44.521L10.7919 44.371C10.5335 44.3419 10.6544 44.7835 10.4419 44.8377C9.9752 44.621 9.85853 45.2335 9.8127 45.5877C9.86686 46.2252 8.62938 45.4085 8.73354 46.1252C8.69188 46.096 8.74186 46.2002 8.76686 46.2335L8.47521 46.4252C8.47521 46.4252 8.13768 46.6836 8.17934 47.1044C8.21268 47.5294 8.65021 48.0877 10.0835 48.7794L10.1294 48.8419C10.3835 48.8669 10.4877 48.8252 10.3168 48.4544C10.6502 48.8002 10.4544 48.4002 10.5877 48.4877L10.6127 48.521C10.4502 48.1752 10.9752 48.6127 10.8335 48.296C10.8543 48.3293 10.9377 48.4294 10.9294 48.4502C10.9419 48.3544 10.9544 48.2127 11.1377 48.421C11.2252 48.2544 11.4918 48.2002 11.296 47.7835L11.3377 47.8502C11.196 47.5752 11.3752 47.7627 11.3377 47.6002C11.3627 47.6252 11.3794 47.6377 11.3877 47.6502C11.2544 47.3752 11.5169 47.4877 11.4835 47.3543L11.6002 47.496L11.6835 47.3752H11.6168C11.3168 46.9627 11.896 47.5627 11.771 47.2418C11.8835 47.2377 11.2835 46.2835 11.5127 46.421C11.4085 46.2002 11.7127 46.7586 11.6586 46.5669C11.8211 46.7794 11.7335 46.7211 11.8752 46.8794C11.8543 46.7377 12.1293 47.0293 12.0877 46.8335L12.2127 46.9961C12.0752 46.6252 12.5419 47.0919 12.3877 46.7585C12.3794 46.5544 12.8085 47.2127 12.6669 46.8168L12.8668 47.0168C12.9335 47.0252 12.696 46.7169 12.821 46.7961C12.921 46.9419 12.9585 46.871 13.0294 47.0252C13.2877 47.1793 13.0169 46.5585 13.4169 46.8502C13.2544 46.546 13.4377 46.6669 13.3127 46.4377C13.4002 46.5585 13.4627 46.3627 13.5669 46.6877C13.5752 46.7127 13.5627 46.7169 13.5294 46.6711L13.6335 46.846C13.9252 47.1127 13.6544 46.5752 13.7669 46.5752C13.7085 46.5336 13.6877 46.5669 13.6294 46.4377L13.7169 46.4127L13.796 46.5669L13.9585 46.5794L13.8294 46.4127C13.9419 46.471 14.1544 46.7627 14.0502 46.4711C13.9877 46.3127 13.846 46.2627 13.8669 46.1711C14.0169 46.2461 14.2377 46.3627 14.3627 46.3586C14.2252 46.1627 14.2585 46.1543 14.2544 46.096L14.3669 46.2711C14.3127 45.9669 14.6419 46.6377 14.6169 46.3836L14.6835 46.5127L14.4793 46.1294C14.3502 45.7252 14.7502 46.4669 14.5544 45.9294C14.5335 45.9835 14.3002 45.5502 14.3919 45.596L14.4835 45.7752C14.4877 45.721 14.4544 45.646 14.4919 45.671C14.5335 45.7752 14.6335 45.9252 14.6544 45.871L14.7585 46.1002L14.6418 45.7419C14.8085 45.8919 14.7627 45.6086 14.9294 45.8377C14.9294 45.8377 15.1211 45.8877 14.9919 45.6002C15.0627 45.7794 15.1668 45.8044 15.2627 46.0127C15.1835 45.8085 15.1877 45.596 15.3419 45.7752V45.8002C15.6044 45.9294 15.4294 45.3835 15.6919 45.5668C15.571 45.3585 15.7002 45.4377 15.5335 45.1752C15.521 44.8335 16.071 45.596 15.6669 44.7335C15.7044 44.6543 15.846 44.8919 15.9002 44.9169L15.9085 44.9669C15.9835 44.8377 16.0127 44.8127 16.1085 44.7877C16.1085 44.6835 15.9127 44.2877 16.0377 44.3419C16.0918 44.5085 16.1086 44.4669 16.1377 44.4502C16.1336 44.4835 16.1543 44.546 16.246 44.6293C16.2252 44.5793 16.221 44.546 16.2127 44.5168C16.221 44.5293 16.2252 44.5377 16.2335 44.5544C16.2544 44.4752 16.221 44.4293 16.1877 44.421C16.1752 44.396 16.1585 44.3668 16.1294 44.3252C16.2835 44.5043 16.2627 44.2419 16.4043 44.5086C16.5168 44.3752 16.4794 44.0419 16.5544 43.8752C16.6377 44.0086 16.6669 44.146 16.6586 44.2168L16.721 44.1252C16.8168 44.3252 16.7293 44.2627 16.721 44.3168C16.9793 44.5918 16.7752 43.8919 17.0377 44.1335L16.9877 43.9627L17.0085 43.9877C16.9669 43.9044 16.9419 43.7752 16.946 43.7377C17.046 43.9044 17.1377 44.146 17.1918 44.1043C17.3168 44.2502 17.2835 43.9544 17.3044 43.8335C17.2585 43.8169 17.221 43.7169 17.2085 43.6461C17.2377 43.6252 17.3335 43.796 17.3252 43.7085L17.4377 43.946C17.321 43.7252 17.4044 43.6669 17.371 43.5627C17.4669 43.7336 17.3918 43.7377 17.446 43.8752C17.5585 43.8002 17.5002 43.8377 17.6127 43.7586C17.596 43.5502 17.5002 43.5377 17.4377 43.3127C17.4752 43.2419 17.4585 43.046 17.5877 43.1627L17.471 42.9585C17.5085 42.746 17.5877 42.7419 17.7543 42.9252C17.7918 41.8752 17.596 41.2544 17.3752 40.9044C17.1544 40.5502 16.9127 40.4668 16.9127 40.4668C16.3585 40.1418 16.4502 40.846 16.121 41.196Z" fill="#ACDE45"/>
<path d="M4.86802 55.0374L4.77637 55C4.81387 55.025 4.84719 55.0416 4.86802 55.0374Z" fill="#ACDE45"/>
<path d="M3.12207 58.2461C3.12207 58.2461 3.13042 58.2544 3.13875 58.2586C3.13459 58.2544 3.12624 58.2503 3.12207 58.2461Z" fill="#ACDE45"/>
<path d="M1.77569 53.8292C1.77569 53.8292 1.76322 53.8208 1.75488 53.8125L1.77151 53.8292H1.77569Z" fill="#ACDE45"/>
<path d="M2.42192 53.2876C2.21359 53.4001 1.79691 53.2126 1.83858 53.4959C1.75108 53.5668 1.7844 53.7168 1.77607 53.8293C2.05524 54.0501 1.71358 53.946 1.93858 54.146L1.75527 54.0626C1.83027 54.1293 1.88024 54.1876 1.77607 54.146L1.72607 54.1168C1.84274 54.2209 1.74693 54.2001 1.80527 54.2543L1.75527 54.2251V54.271L1.69276 54.2251C1.80526 54.3501 1.7886 54.4002 1.7011 54.4043L1.9136 54.5209C1.63027 54.4709 2.0469 54.7543 1.7219 54.6668L1.6719 54.6376C2.1719 55.0543 1.20524 54.5751 1.6719 54.9751C1.61357 54.9251 1.5594 54.921 1.5094 54.8876C1.54273 54.9668 1.54693 55.0334 1.95943 55.2709C1.93443 55.3001 1.8136 55.2251 1.6511 55.1417C1.83443 55.2417 1.89275 55.3168 1.88858 55.346L1.82607 55.296L1.84692 55.4043L2.19691 55.5793C2.07607 55.5626 1.77191 55.3543 1.83441 55.4418L2.11777 55.6001C2.03027 55.6251 1.58027 55.4167 1.34277 55.3542C1.09694 55.5126 1.69694 56.1459 1.08027 56.0876L0.859424 55.9834C0.542758 55.8209 1.29691 56.2876 1.00108 56.1418L1.13444 56.2418C1.07611 56.221 1.00524 56.2002 0.942737 56.1543C0.917737 56.171 0.971916 56.2002 1.05942 56.2627L0.851083 56.1834C0.651083 56.1917 0.992766 56.4668 0.867766 56.5209C0.405266 56.4293 0.667776 56.8335 0.826109 57.0626C1.21778 57.471 -0.157224 57.046 0.305276 57.4918C0.255276 57.4751 0.351089 57.5418 0.388589 57.5584L0.263569 57.7001C0.263569 57.7001 0.138585 57.8835 0.384418 58.1502C0.630252 58.4168 1.25525 58.7502 2.72608 59.0918L2.79276 59.1293C3.00526 59.1293 3.0636 59.0918 2.7386 58.8668C3.1761 59.0627 2.81773 58.821 2.96773 58.8668L3.0011 58.8877C2.69276 58.6752 3.3261 58.9168 3.05527 58.7209C3.0886 58.7376 3.20526 58.7959 3.20943 58.8126C3.17193 58.7501 3.10108 58.6543 3.35108 58.7752C3.32608 58.6585 3.50107 58.596 3.12607 58.346L3.19275 58.3834C2.93858 58.2168 3.17193 58.3251 3.0511 58.221C3.08443 58.2335 3.10111 58.2418 3.11778 58.2502C2.86778 58.0835 3.12607 58.1293 3.02607 58.046L3.19275 58.1293V58.0418L3.13858 58.0502C2.68858 57.8127 3.45107 58.1418 3.18024 57.946C3.2594 57.9293 2.28443 57.3709 2.53026 57.4376C2.33026 57.3042 2.86357 57.6335 2.71774 57.5168C2.95524 57.6377 2.85943 57.6085 3.0511 57.696C2.95526 57.6043 3.3219 57.7667 3.18024 57.6417L3.3636 57.7335C3.05526 57.5043 3.65942 57.7584 3.35525 57.5584C3.23442 57.4251 3.92189 57.8043 3.58856 57.5584L3.84694 57.6668C3.90111 57.6668 3.5511 57.4918 3.68444 57.5252C3.8386 57.6085 3.82607 57.5584 3.96774 57.6501C4.24274 57.7209 3.68442 57.3418 4.13859 57.4835C3.84276 57.3043 4.04692 57.3626 3.82609 57.2251C3.95942 57.2917 3.8886 57.1543 4.1511 57.3543C4.17193 57.3709 4.16356 57.3751 4.11356 57.3459L4.28858 57.4459C4.65108 57.5834 4.1469 57.2626 4.2219 57.2459C4.15524 57.2251 4.1636 57.2543 4.04276 57.1751L4.08859 57.1459L4.23441 57.2376L4.35526 57.2251L4.16356 57.1334C4.27606 57.1543 4.59693 57.3168 4.35109 57.1418C4.21359 57.0459 4.08443 57.0335 4.04276 56.971C4.19276 57.0001 4.41775 57.0459 4.50109 57.0251C4.28859 56.9126 4.30523 56.9043 4.2719 56.8668L4.45526 56.9668C4.23443 56.771 4.86357 57.1668 4.69274 57.0043L4.81776 57.0793L4.44692 56.8543C4.11359 56.6043 4.83857 57.0376 4.37607 56.7084C4.3969 56.7459 3.9719 56.4959 4.06357 56.5126L4.23441 56.6168C4.20525 56.5834 4.13441 56.5335 4.17608 56.546C4.26358 56.6085 4.4261 56.6918 4.40943 56.6543L4.62194 56.7918L4.3219 56.571C4.52606 56.646 4.32194 56.4627 4.57194 56.5918C4.57194 56.5918 4.73028 56.5918 4.47194 56.4251C4.63028 56.5334 4.71358 56.5335 4.90524 56.6543C4.72608 56.5293 4.60109 56.3877 4.81359 56.4835L4.83444 56.5001C5.08027 56.5417 4.63025 56.2084 4.91358 56.2876C4.70525 56.1709 4.8386 56.2002 4.56777 56.0543C4.34693 55.8293 5.18023 56.246 4.37607 55.7377C4.35107 55.6793 4.58857 55.8126 4.64274 55.821L4.68028 55.8543C4.64694 55.7543 4.65108 55.7334 4.69691 55.7001C4.63024 55.6293 4.25528 55.4001 4.36778 55.4126C4.50944 55.5168 4.49275 55.4834 4.50109 55.4668C4.51775 55.4918 4.5719 55.5251 4.6844 55.5668C4.63856 55.5376 4.61358 55.5126 4.59274 55.496C4.60524 55.5043 4.61356 55.5085 4.63023 55.5168C4.59273 55.4585 4.54277 55.4377 4.5136 55.4335C4.49277 55.421 4.45944 55.4043 4.41777 55.3793C4.62611 55.4709 4.44692 55.3001 4.70942 55.4542C4.69275 55.3459 4.45942 55.1293 4.40109 55.0043C4.53859 55.0793 4.6469 55.1668 4.6844 55.2168L4.66359 55.1417C4.85526 55.2584 4.7594 55.2334 4.78856 55.2709C5.12606 55.4084 4.54692 54.9751 4.86776 55.0876L4.7261 54.9835L4.75525 54.996C4.67608 54.946 4.57609 54.8668 4.55526 54.8418C4.72609 54.9376 4.93439 55.0792 4.94273 55.0417C5.11773 55.1167 4.90527 54.9251 4.83444 54.8376C4.79694 54.8376 4.70942 54.7751 4.65525 54.7292C4.65525 54.7126 4.83026 54.8043 4.76776 54.7501L4.99278 54.8876C4.78028 54.7626 4.79275 54.7043 4.70525 54.6418C4.87608 54.7376 4.83024 54.7543 4.95524 54.8376C4.97191 54.7626 4.9636 54.8001 4.98026 54.7292C4.83443 54.5917 4.76773 54.6001 4.5844 54.4626C4.5594 54.4085 4.42194 54.2793 4.57611 54.3334L4.3719 54.2168C4.25523 54.0668 4.29694 54.0459 4.52194 54.1376C3.85527 53.4209 3.33023 53.0377 2.96773 52.8418C2.60523 52.646 2.40524 52.6377 2.40524 52.6377C1.86357 52.5252 2.37607 52.9834 2.40524 53.2834L2.42192 53.2876Z" fill="#ACDE45"/>
</svg>
