<svg width="125" height="13" viewBox="0 0 125 13" fill="none" xmlns="http://www.w3.org/2000/svg">
<g opacity="0.57">
<path d="M0.53125 11.0167C0.915654 11.2375 1.57583 11.2584 2.20257 11.2959C1.72207 11.0834 1.20814 10.9917 0.53125 11.0167Z" fill="#43C554"/>
<path d="M2.21366 11.3H2.222C2.21367 11.3 2.20534 11.3 2.20117 11.3C2.20534 11.3 2.20949 11.3001 2.21366 11.3042V11.3Z" fill="#43C554"/>
<path d="M123.808 1.26245C123.653 1.26662 123.474 1.2708 123.294 1.27496C123.465 1.2833 123.641 1.28328 123.808 1.26245Z" fill="#43C554"/>
<path d="M32.5741 11.9167L32.6702 11.55C34.1576 11.5416 33.1047 11.9708 34.4794 11.8792C35.0184 11.3583 36.7649 11.9291 37.2371 11.6541C37.2245 11.6958 37.9014 11.7125 37.8555 11.875C38.0602 11.5916 38.549 11.8084 38.971 11.7375C39.1256 11.6584 38.8582 11.6542 38.7413 11.5667L39.7148 11.4667C40.095 11.5583 40.1869 11.725 39.7775 11.7541C42.3179 11.8541 54.5227 12.1125 57.2595 11.9708C56.9085 11.7583 56.0603 11.9042 55.7428 11.5667C56.4656 11.3792 56.8082 11.6333 57.1258 11.4333C57.4057 11.9333 58.7177 11.55 59.2651 12.0583L59.474 11.775L59.8333 11.9459C63.0172 11.65 60.5604 11.8 63.3807 11.8666C65.0144 11.8208 65.7916 11.4292 66.6983 11.575C66.5646 11.575 66.2011 11.4001 66.6273 11.3251C66.6983 11.5751 67.7554 11.1459 67.9601 11.3959C68.3738 11.3625 69.715 11.3958 69.2637 11.0542C69.4935 11.225 70.6886 11.2916 69.9783 11.4375C70.3836 11.4458 70.7721 11.4959 71.0646 11.4209L70.5465 11.3251C71.9128 11.2751 72.6565 11.5375 73.5423 11.2291L73.0368 11.0959C73.8515 11.075 74.5368 11.0458 74.8543 11.3833L74.0187 11.4875C75.3724 11.4792 76.1872 11.4542 77.3153 11.275L76.9142 11.2667C78.3516 10.9292 85.8683 10.6458 87.1887 10.225L86.5787 9.96672L87.7152 9.74587C87.5814 9.74587 87.1678 10.5916 87.055 10.5083C89.4951 10.4833 102.185 10.2708 104.437 10.4458C105.348 10.5875 104.6 10.8584 104.591 10.9C105.699 10.8 105.068 10.625 106.008 10.6458C106.263 10.6917 105.953 10.85 105.811 10.8875C106.225 10.8584 106.605 10.9458 106.639 10.825C106.125 10.7291 106.342 10.4083 106.125 10.1958L107.336 10.2208L107.282 10.425C107.554 10.4292 107.967 9.86662 109.154 9.97496C111.16 10.0625 113.337 9.98751 115.355 10.0333C115.325 10.1542 114.899 10.2291 114.477 10.3C114.749 10.3041 115.158 10.275 115.409 10.3625C114.92 10.1459 116.253 10.2167 115.873 10.125C117.348 9.625 119.261 10.0792 120.565 9.73753C120.678 9.28753 123.352 2.02501 123.352 1.49168C123.757 1.50001 124.158 1.5083 124.284 1.55414C124.179 1.42914 123.385 1.3708 122.959 1.44163L122.888 1.72921C121.915 1.82921 122.658 1.55833 121.71 1.57916C121.66 1.34583 122.533 1.29583 123.302 1.27083C122.608 1.24583 121.919 1.07496 121.635 1.32912C120.983 1.23329 121.706 1.04165 120.924 0.94165C120.364 1.01248 119.633 1.24171 118.99 1.10421L119.002 1.0625C117.444 0.820833 116.616 1.42085 115.188 1.18335L115.342 1.10421C114.837 0.970874 113.846 1.15005 112.935 1.00838C113.194 1.05422 113.42 1.22498 112.873 1.25415C111.828 1.10832 111.114 1.25418 110.349 1.07501L109.618 1.3042C105.979 1.26253 91.6052 1.60005 87.9492 1.63755L88.0912 1.60002C82.5215 1.72085 71.0855 1.70836 65.332 2.0292C64.442 1.8042 63.2136 1.85834 62.286 1.79584C62.8041 1.8875 62.6244 2.05004 62.2233 2.04171C59.3946 2.01671 62.0311 2.19582 59.169 2.29582C55.8723 2.50832 43.258 2.27915 40.3332 2.08748C38.7621 2.42082 36.7983 2.1708 35.2607 2.3833L35.4153 2.30416C33.7607 2.42916 24.4013 2.12921 22.4793 2.25004L22.7383 2.29582C21.0628 2.50415 21.2926 2.1417 19.9681 2.0292C20.1436 2.40003 18.7063 2.61668 18.1589 2.64168L18.1798 2.55837C17.3525 2.62087 15.4848 2.94579 14.1185 2.99996L14.1728 2.7958C13.0363 3.01663 10.897 2.92501 10.0781 2.95001C8.21036 2.86668 5.32316 2.51246 2.82453 2.78746L1.20753 2.20833L0.969365 2.26662C0.969365 2.26662 -1.62536 9.2917 1.6755 10.7875L1.62118 10.9917L2.27299 10.9667C3.05434 11.0667 3.41784 10.8291 3.36353 11.0333L2.2897 11.0084C3.07522 11.0667 2.52788 11.175 2.22704 11.2917C2.55712 11.3125 2.87467 11.3334 3.13791 11.3959C3.2925 11.3167 3.02509 11.3125 2.89974 11.2667C3.32175 11.1958 3.9109 11.0042 4.42901 11.0959C5.23543 11.1125 4.47915 11.425 5.41927 11.4458C10.3789 11.6 15.184 11.8333 20.1979 11.7833C20.3107 11.8667 20.177 11.8667 20.0308 11.9042C21.5392 11.8167 22.8846 11.8458 24.2592 11.7541C24.6395 11.8458 24.7439 11.9709 24.8568 12.0542C24.6311 11.8834 32.4487 11.8625 32.5741 11.9083V11.9167Z" fill="#43C554"/>
</g>
</svg>
