<svg width="24" height="16" viewBox="0 0 24 16" fill="none" xmlns="http://www.w3.org/2000/svg">
<path d="M1.1748 2.08713C1.28314 2.16213 1.39567 1.98717 1.36234 2.01633C1.329 1.9455 1.20814 2.0788 1.1748 2.08713Z" fill="#00B14F"/>
<path d="M2.98269 4.46633C2.95769 4.59133 2.89936 4.37466 2.98269 4.46633Z" fill="#00B14F"/>
<path d="M3.89089 5.76632C3.94506 5.73715 3.99089 5.62048 4.04505 5.55798L3.91174 5.50793C3.91174 5.58293 3.95755 5.69965 3.88672 5.76632H3.89089Z" fill="#00B14F"/>
<path d="M4.0498 5.55815L4.24563 5.63312C4.15813 5.49979 4.09564 5.50815 4.0498 5.55815Z" fill="#00B14F"/>
<path d="M4.312 6.3078L4.13281 6.32031L4.42034 6.32448L4.312 6.3078Z" fill="#00B14F"/>
<path d="M4.61237 6.64954C4.4707 6.6662 4.51654 6.85785 4.4082 6.84119C4.49987 6.92452 4.64988 6.94537 4.78321 6.96204C4.67905 6.9162 4.62487 6.82037 4.61654 6.64954H4.61237Z" fill="#00B14F"/>
<path d="M4.98737 7.00374C4.9332 6.98291 4.8582 6.97454 4.7832 6.96204C4.83737 6.98704 4.90403 7.00374 4.98737 7.00374Z" fill="#00B14F"/>
<path d="M4.35332 6.11625L4.44915 5.94963C4.44915 5.94963 4.41999 5.91207 4.40749 5.89124C4.38666 5.92457 4.32416 6.00791 4.35332 6.11208V6.11625Z" fill="#00B14F"/>
<path d="M4.45312 5.94543C4.49479 6.01627 4.52816 6.05796 4.54066 6.0788C4.52816 6.06213 4.50313 6.0246 4.4573 5.94543H4.45312Z" fill="#00B14F"/>
<path d="M4.39941 5.87875L4.41193 5.89116C4.41193 5.89116 4.42441 5.86625 4.39941 5.87875Z" fill="#00B14F"/>
<path d="M4.29492 5.58689L4.51994 5.67031L4.43245 5.49524C4.39912 5.52857 4.36576 5.59523 4.29492 5.58689Z" fill="#00B14F"/>
<path d="M4.6205 5.70797L4.52051 5.67053L4.54965 5.73716L4.6205 5.70797Z" fill="#00B14F"/>
<path d="M4.91569 6.64146C5.02819 6.65813 5.08656 6.72484 5.16156 6.79567C5.11989 6.68734 5.06572 6.58736 4.99905 6.50403C4.94488 6.52486 4.83652 6.54979 4.91569 6.64146Z" fill="#00B14F"/>
<path d="M4.7041 6.29524L4.72496 6.30348C4.72496 6.30348 4.72493 6.2744 4.7041 6.29524Z" fill="#00B14F"/>
<path d="M5.77885 7.5872C5.77885 7.5872 5.79137 7.56633 5.79553 7.55383L5.77051 7.57052L5.78302 7.5872H5.77885Z" fill="#00B14F"/>
<path d="M5.01185 6.47463C4.98685 6.38713 4.92435 6.3788 4.85352 6.37463C4.90352 6.41213 4.95351 6.45383 4.99934 6.508C5.02434 6.49966 5.0368 6.48713 5.01597 6.47463H5.01185Z" fill="#00B14F"/>
<path d="M5.22501 7.17043C5.22501 7.1121 5.22505 7.05797 5.21255 6.99963C5.19588 7.0663 5.17917 7.1871 5.22501 7.17043Z" fill="#00B14F"/>
<path d="M4.69933 6.35376H4.68682C4.67432 6.39543 4.68683 6.37876 4.69933 6.35376Z" fill="#00B14F"/>
<path d="M4.69922 6.35404C4.74505 6.37071 4.79922 6.37073 4.85338 6.37073C4.81172 6.34156 4.76585 6.31659 4.72002 6.29993C4.72002 6.31659 4.70755 6.33737 4.69922 6.34987V6.35404Z" fill="#00B14F"/>
<path d="M5.58745 7.26198L5.52494 7.21204C5.55828 7.29954 5.54577 7.39114 5.5166 7.56197C5.65827 7.61197 5.72493 7.59531 5.77493 7.57031L5.55826 7.25781H5.59574L5.58745 7.26198Z" fill="#00B14F"/>
<path d="M5.72846 7.67053L5.55762 7.75812L5.87429 7.72892L5.72846 7.67053Z" fill="#00B14F"/>
<path d="M5.85742 8.05792L5.99913 8.08285L5.99495 7.97034L5.85742 8.05792Z" fill="#00B14F"/>
<path d="M13.5117 13.4541C13.7367 13.4207 14.0784 13.3791 13.9284 13.2708L13.7618 13.1915C13.6868 13.3332 13.5992 13.4124 13.5159 13.4541H13.5117Z" fill="#00B14F"/>
<path d="M8.57031 11.1333C8.58281 11.2666 8.61618 11.3541 8.65785 11.4208C8.65785 11.2499 8.70781 11.0666 8.57031 11.1333Z" fill="#00B14F"/>
<path d="M21.9831 2.81227C21.9915 2.74977 21.9623 2.72479 21.9081 2.73312C21.8956 2.79562 21.9123 2.8331 21.9831 2.81227Z" fill="#00B14F"/>
<path d="M8.6582 11.4246C8.6582 11.5496 8.6957 11.6704 8.86237 11.6829C8.86237 11.6579 8.86237 11.6371 8.86237 11.608C8.78737 11.5621 8.71649 11.5121 8.66232 11.4246H8.6582Z" fill="#00B14F"/>
<path d="M3.2207 0.554044C3.2582 0.541544 3.31653 0.541531 3.37487 0.541531C3.3457 0.529031 3.29987 0.529044 3.2207 0.554044Z" fill="#00B14F"/>
<path d="M6.92483 9.27886C6.89983 9.27886 6.86233 9.22052 6.92483 9.27886Z" fill="#00B14F"/>
<path d="M6.9082 9.12903C6.9082 9.16653 6.91656 9.20821 6.93323 9.24571C6.93323 9.22487 6.92487 9.18736 6.9082 9.12903Z" fill="#00B14F"/>
<path d="M6.85358 9.1912C6.84108 9.16204 6.83277 9.14113 6.82027 9.1203C6.7911 9.12863 6.78275 9.14954 6.85358 9.1912Z" fill="#00B14F"/>
<path d="M7.00323 9.36218C6.9699 9.32468 6.9491 9.28717 6.93243 9.24133C6.93243 9.26217 6.93242 9.2747 6.91992 9.2747C6.93659 9.29137 6.96156 9.31635 6.99906 9.36218H7.00323Z" fill="#00B14F"/>
<path d="M22.912 0.728882L23.0537 0.666423C22.6454 0.620589 22.2121 0.770532 21.8329 0.920532C21.7996 0.878866 21.962 0.816337 22.0204 0.78717C21.5537 0.653837 21.3537 0.683 20.5245 0.991333L20.6662 0.78717C20.537 0.845504 20.3787 0.766349 20.1079 0.695516C19.8454 0.628849 19.4495 0.574683 19.0787 0.695516C19.0912 0.670516 19.1162 0.633028 19.1787 0.603861C18.9662 0.662195 18.7662 0.658048 18.5495 0.624715C18.3995 0.591382 18.262 0.537191 18.1287 0.495524C17.862 0.412191 17.637 0.395589 17.5412 0.770589L17.2037 0.953898C17.6412 1.0164 17.137 1.27893 17.3162 1.40393C17.1453 1.4456 16.8745 1.17471 17.0829 1.13721L17.1162 1.17474C17.1954 0.783077 16.5745 1.03309 16.587 0.766418C15.7245 0.778918 14.887 0.558061 14.0828 0.533061L14.1746 0.837219L13.8954 0.816366C13.8204 0.745532 13.7995 0.578849 13.9995 0.591349C13.8954 0.416349 13.6621 0.733016 13.6579 0.799683C13.2662 0.674683 13.812 0.445569 13.6954 0.437236L13.5329 0.458089L13.5704 0.495524C13.437 0.620524 13.4245 0.749719 13.1829 0.733053C13.0287 0.670553 13.1078 0.545561 13.0453 0.533061C13.0453 0.512227 13.0245 0.499719 12.9537 0.524719L12.5995 0.495524L12.7287 0.71637C12.612 0.770536 12.2662 0.733069 11.9329 0.749736C11.5954 0.733069 11.2495 0.770536 11.1329 0.71637L11.2621 0.495524L10.9078 0.524719C10.837 0.503886 10.8162 0.512227 10.8162 0.533061C10.7579 0.545561 10.8329 0.670553 10.6787 0.733053C10.437 0.749719 10.4245 0.616357 10.2912 0.495524L10.3287 0.458089L10.1662 0.437236C10.0454 0.445569 10.5954 0.674683 10.2037 0.799683C10.1995 0.733016 9.96622 0.416349 9.85789 0.591349C9.99956 0.583016 10.0287 0.662223 10.0037 0.737223C9.91621 0.712223 9.82038 0.683036 9.74538 0.612203L9.77036 0.533061C9.74536 0.533061 9.72038 0.537231 9.69538 0.537231C9.68288 0.520565 9.67035 0.50802 9.66202 0.491353C9.67452 0.50802 9.6787 0.524736 9.68287 0.541402C9.33704 0.558069 8.98703 0.603906 8.63286 0.64974C8.28703 0.616406 7.90784 0.466374 7.52034 0.512207C7.51201 0.574707 7.57034 0.66224 7.52034 0.753906C7.49534 0.753906 7.4662 0.753906 7.4412 0.753906L7.18287 0.437236C7.07037 0.470569 7.07454 0.858028 6.87454 0.603861C6.90371 0.666361 6.94537 0.758 6.87037 0.783C6.67454 0.7205 6.47452 0.68726 6.27452 0.670593C6.16618 0.395593 5.95787 0.416349 5.72037 0.487183C5.58703 0.528849 5.44953 0.58304 5.29953 0.616374C5.08286 0.649707 4.88286 0.653853 4.67036 0.59552C4.73286 0.624687 4.75786 0.662174 4.77036 0.687174C4.54119 0.612174 4.30369 0.608057 4.09119 0.633057C3.88285 0.583057 3.67035 0.503845 3.46619 0.378845C3.62035 0.520512 3.51622 0.537236 3.39956 0.541402C3.46622 0.570569 3.41618 0.691337 3.41202 0.78717C3.39535 0.791337 3.37869 0.791345 3.36202 0.795512L2.93701 0.545573C2.86618 0.766406 2.58704 0.645544 2.44954 0.724711C2.23704 0.695544 2.07039 0.72467 1.83706 0.78717C1.89539 0.820504 2.05787 0.878866 2.02454 0.920532C1.64537 0.770532 1.21201 0.620589 0.80368 0.666423L0.945384 0.728882L0.366211 0.708028L0.474548 0.858073C1.12455 1.15391 1.0912 1.27055 1.13286 1.46222C1.1662 1.64555 1.28286 1.92467 1.90786 2.14551C1.67869 2.15801 1.92035 2.55391 1.95368 2.73307C1.99118 2.73724 2.04118 2.75386 2.10785 2.78719C1.95785 2.87469 2.14121 3.05804 2.34955 3.21637C2.56621 3.37887 2.80789 3.51637 2.87872 3.63304C2.91206 3.80804 2.75368 3.77887 2.57451 3.73303C2.85368 3.86637 2.94951 4.0997 3.03701 4.3622C3.04951 4.3997 3.06204 4.43721 3.07454 4.47471C3.05788 4.46221 3.03704 4.44967 3.0162 4.42883C3.0162 4.44967 3.01203 4.45387 3.00786 4.46637C3.02453 4.4872 3.04538 4.51219 3.07454 4.56219C3.08288 4.55386 3.08701 4.54551 3.09535 4.54134C3.11618 4.60801 3.13702 4.67059 3.15786 4.72475C3.17452 4.76642 3.19118 4.80392 3.20368 4.83309C3.20785 4.84142 3.2162 4.84133 3.22454 4.8455C3.22454 4.91217 3.26202 4.99554 3.20368 4.9872C3.34535 5.07887 3.37868 5.01637 3.40785 4.88304C3.44535 4.85804 3.48703 4.82054 3.52453 4.78721L3.59121 4.81641C3.61204 4.77474 3.65784 4.72885 3.56201 4.75802C3.58284 4.74135 3.60369 4.72891 3.62869 4.72058C3.65369 4.76641 3.6537 4.8081 3.6412 4.84143L3.58704 4.81641C3.57454 4.84141 3.58286 4.85801 3.63286 4.85801C3.56203 5.01635 3.23704 5.0747 3.59538 5.19554C3.58704 5.14137 3.54955 5.06217 3.59955 5.06217C3.71205 5.13301 4.21618 4.98309 4.39534 5.03725C4.32034 5.08309 4.28704 5.17059 4.11621 5.14142C4.18704 5.14975 4.27451 5.18302 4.34118 5.17885C4.41618 5.28302 4.58702 5.31643 4.72036 5.35809C4.71202 5.41226 4.70371 5.45802 4.69121 5.48718C4.72038 5.44968 4.74118 5.408 4.76618 5.3705C4.88285 5.408 4.94535 5.45801 4.81618 5.58718L4.64539 5.69135C5.15372 5.89551 4.71203 5.8997 5.19953 6.12887L5.22039 6.10384C5.32455 6.29134 5.5912 6.22476 5.4037 6.5081L5.32455 6.4789C5.39122 6.5789 5.43288 6.62889 5.47455 6.67889C5.44955 6.67889 5.42453 6.67888 5.39953 6.66638C5.66203 6.92888 5.25369 6.64559 5.34119 6.91642C5.27452 6.87892 5.22452 6.83307 5.18285 6.7914C5.20785 6.85807 5.22452 6.92473 5.23702 6.99139V6.97888C5.24535 6.94972 5.2537 6.9372 5.2537 6.9622C5.2537 6.9622 5.25788 6.9622 5.26204 6.9622C5.28288 6.9497 5.30372 6.94134 5.32455 6.933C5.36205 7.04134 5.29954 6.9747 5.26204 6.9622C5.25371 6.96637 5.24535 6.97054 5.23702 6.97471L5.54118 7.2039C5.51201 7.1289 5.44955 7.05383 5.32455 6.92883C5.44955 6.88717 5.57036 6.91638 5.65786 6.87472C5.66619 6.88305 5.67038 6.89141 5.68288 6.89974C5.67871 6.94141 5.72451 7.07469 5.79951 7.06219C5.69951 7.14969 5.77454 7.28724 5.8787 7.4164C5.8537 7.46224 5.82869 7.50393 5.81202 7.54559C5.84952 7.52059 5.89118 7.49555 5.96202 7.50389C6.05368 7.59555 6.14536 7.67054 6.17869 7.70388C6.07452 7.51638 6.2287 7.52055 6.34954 7.49971C6.25787 7.73305 6.29539 7.81642 6.52456 7.84975C6.44122 7.92892 6.35369 8.01219 6.28703 8.09552C6.26619 8.07052 6.2537 8.04554 6.2412 8.01638C6.14537 8.19138 6.22034 8.12469 6.21618 8.19969C6.14118 8.32885 6.12452 8.46217 6.22869 8.60384C6.23286 8.53301 6.20369 8.44971 6.27869 8.43304C6.35369 8.41638 6.34536 8.52474 6.3412 8.56224C6.39953 8.54974 6.39953 8.4747 6.44953 8.42053C6.46203 8.4372 6.47452 8.45391 6.48702 8.47058C6.47035 8.63725 6.55787 8.70392 6.66204 8.78725C6.68704 8.86225 6.70788 8.94142 6.66621 9.09975C6.72871 9.04142 6.74539 8.93717 6.83289 9.11633C6.85789 9.108 6.89537 9.10392 6.9162 9.10392C6.9162 9.11226 6.9162 9.11217 6.9162 9.11633V9.09975C6.9162 9.09975 6.93703 9.09975 6.9162 9.09558C6.9162 9.03725 6.92868 8.97886 6.95368 8.93719C6.97868 8.93303 7.00788 8.93303 7.03288 8.93719C6.93288 9.12053 7.58285 9.04552 7.16202 9.23718C7.28285 9.29968 7.39121 9.38722 7.49954 9.48305C7.46204 9.60805 7.44952 9.72058 7.27036 9.62058L7.41618 9.82058C7.42451 9.99974 7.51621 10.1831 7.65371 10.2331C7.69537 10.3497 7.99955 10.3373 7.82038 10.3498L8.15369 10.583L8.12037 10.6164C8.3412 10.933 8.85372 11.0456 8.86205 11.6039C8.97872 11.6748 9.10786 11.7455 9.19952 11.9497L9.09953 12.083C9.24536 12.1789 9.28286 12.5747 9.45786 12.5289C9.34536 12.7414 9.43702 12.8955 9.60785 13.0747C9.87452 13.3788 10.1745 13.6539 10.3162 13.8956L10.4454 13.7163C10.6495 13.9955 10.887 14.1998 11.162 14.4123L11.1829 14.2789C11.2287 14.3664 11.2745 14.4622 11.3245 14.5622C11.4953 14.908 11.712 15.2997 11.9079 15.3164C11.9079 15.3164 11.9079 15.3164 11.9079 15.3206C11.912 15.3206 11.9162 15.3206 11.9204 15.3206C11.9245 15.3206 11.9287 15.3206 11.9329 15.3206C11.9329 15.3206 11.9329 15.3206 11.9329 15.3164C12.1287 15.2956 12.3453 14.9039 12.5162 14.5622C12.7037 14.1914 12.8412 13.8705 13.0829 13.808C13.1412 13.6247 13.2162 13.5747 13.3037 13.5372C13.2953 13.5497 13.2912 13.5622 13.287 13.5747C13.2995 13.5664 13.312 13.5497 13.3245 13.5289C13.3829 13.508 13.4453 13.4872 13.512 13.4539C13.4453 13.4664 13.3871 13.4788 13.3454 13.4997C13.4121 13.408 13.5079 13.2538 13.5787 13.0913L13.7579 13.1872C13.7579 13.1872 13.7704 13.1664 13.7787 13.1539C13.9412 13.0706 13.7954 12.9831 13.6329 12.9414C13.662 12.8539 13.6745 12.7747 13.6745 12.6997C14.0037 12.808 13.7704 12.4081 14.1162 12.5289C14.0287 12.3664 14.3495 12.0372 14.112 11.7705C14.1495 11.7955 14.187 11.7872 14.1537 11.833C14.2579 11.7663 14.3662 11.6997 14.3537 11.558L14.5829 11.6789L14.4787 11.2622C14.6995 11.2372 14.8078 11.2456 14.862 11.4872C14.862 11.0081 14.9662 11.1789 14.9329 10.7456L15.0495 10.8622C15.1162 10.7706 15.0579 10.4914 15.2079 10.5205C15.612 10.5205 16.0329 9.57052 16.6704 9.24552C16.212 9.03719 17.0287 9.14558 16.7537 8.89142C16.8662 8.93308 16.9745 8.90387 16.987 9.0497C17.1079 8.72054 17.4454 8.77467 17.3412 8.39551C17.4537 8.43717 17.4287 8.55808 17.5037 8.57475C17.5037 8.53725 17.4912 8.42889 17.5662 8.44556C17.6412 8.46222 17.6121 8.54552 17.6162 8.61635C17.8162 8.34135 17.562 8.09143 17.3204 7.86226C17.5495 7.82893 17.587 7.74556 17.4954 7.51223C17.6162 7.53306 17.7704 7.52889 17.6662 7.71639C17.7537 7.63306 18.2454 7.24971 18.0495 7.07471C18.1245 7.08721 18.1704 6.95808 18.1662 6.91225C18.3454 6.71642 18.3787 6.71225 18.5245 6.49141L18.4454 6.52051C18.262 6.23717 18.5287 6.30385 18.6287 6.11635L18.6495 6.14138C19.1329 5.91221 18.6954 5.90802 19.2037 5.70386L19.0328 5.59969C18.7287 5.29552 19.4954 5.42889 19.5454 5.11222H19.3953C19.3745 4.90806 20.1162 5.15802 20.2537 5.07052C20.3037 5.07052 20.2662 5.14971 20.2579 5.20388C20.7079 5.05388 20.087 4.99976 20.2245 4.72892C20.3703 4.77476 20.4579 5.00802 20.6037 4.87052C20.6245 4.87052 20.637 4.85809 20.6495 4.83726C20.662 4.80809 20.6787 4.77059 20.6953 4.72892C20.737 4.62476 20.7745 4.49137 20.8204 4.36637C20.9079 4.10387 21.0037 3.87054 21.2829 3.7372C21.1037 3.7872 20.9412 3.81221 20.9787 3.63721C21.0495 3.51637 21.2912 3.38304 21.5079 3.22054C21.7204 3.06221 21.8995 2.88303 21.7495 2.79136C21.8162 2.75803 21.8662 2.74141 21.9037 2.73724C21.9329 2.55808 22.1787 2.16635 21.9495 2.14968C22.5745 1.92468 22.6912 1.64972 22.7245 1.46639C22.762 1.27472 22.7329 1.15808 23.3829 0.862244L23.4912 0.712199L22.912 0.733053V0.728882ZM6.73701 7.59971C6.74118 7.57471 6.74536 7.54139 6.74952 7.51223C6.69952 7.62473 6.64952 7.70804 6.58702 7.70388L6.49953 7.39972C6.5787 7.40389 6.67036 7.42056 6.75786 7.40806C6.75786 7.44139 6.75369 7.47889 6.74952 7.51223C6.76619 7.47889 6.78285 7.44139 6.79535 7.40389C6.82035 7.39972 6.84537 7.38719 6.87037 7.37469L6.95368 7.47886C6.89952 7.56219 6.83284 7.61637 6.73701 7.59554V7.59971ZM7.81204 8.57058C7.81204 8.57058 7.8037 8.57475 7.79953 8.57892C7.79536 8.56642 7.78701 8.54971 7.78285 8.53721L7.81204 8.57475V8.57058ZM11.2995 13.0039L11.337 13.0539C11.3245 13.0956 11.3079 13.1372 11.2954 13.1788C11.2954 13.1205 11.2954 13.0622 11.2954 13.008L11.2995 13.0039ZM12.4954 13.0581L12.5329 13.0122C12.5329 13.0622 12.5329 13.1123 12.5329 13.1623C12.5204 13.1289 12.5079 13.0914 12.4995 13.0539L12.4954 13.0581ZM4.43288 5.11222C4.43288 5.11222 4.43288 5.10805 4.43288 5.10388C4.43288 5.10388 4.43288 5.10389 4.43288 5.11222ZM7.62451 9.90389C7.62451 9.90389 7.63286 9.90389 7.63702 9.90389C7.66202 10.0622 7.65368 10.0039 7.62451 9.90389ZM11.9579 15.2456C11.9579 15.2456 11.9662 15.2247 11.9704 15.2122L11.9537 15.2539C11.9537 15.2539 11.9329 15.2789 11.9204 15.2872C11.9079 15.2789 11.8954 15.2664 11.8871 15.2539L11.8704 15.2122C11.8704 15.2122 11.8787 15.2331 11.8829 15.2456C11.8496 15.2081 11.8162 15.158 11.8079 15.0872C11.8162 15.0997 11.8287 15.1122 11.8371 15.1247C11.8621 15.1622 11.8829 15.2039 11.9079 15.2372C11.912 15.2331 11.9162 15.2247 11.9204 15.2206C11.9245 15.2247 11.9287 15.2331 11.9329 15.2372C11.9579 15.1997 11.9787 15.1622 12.0037 15.1247C12.012 15.1122 12.0245 15.1039 12.0329 15.0872C12.0245 15.158 11.9912 15.2081 11.9579 15.2456ZM13.0037 0.608032L13.0579 0.662252C12.9329 0.720585 12.9662 0.666366 13.0037 0.608032ZM14.1787 10.9831L14.312 10.8205L14.4704 11.2163C14.4079 11.1455 14.2996 11.0664 14.1787 10.9873V10.9831ZM17.2496 7.70388C17.1912 7.70804 17.1412 7.62473 17.087 7.51223C17.087 7.54556 17.0912 7.57471 17.0995 7.59971C17.0412 7.61221 16.9912 7.59134 16.9495 7.558L17.0537 7.43308C17.0662 7.45808 17.0787 7.48723 17.087 7.51223C17.087 7.47889 17.0829 7.43722 17.0787 7.39972L17.1245 7.34143C17.2204 7.34976 17.3037 7.35384 17.3495 7.34967L17.2454 7.70388H17.2496Z" fill="#00B14F"/>
<path d="M6.3125 8.64581L6.46666 8.75832C6.40416 8.69582 6.42083 8.64169 6.41667 8.58752C6.38333 8.62086 6.35 8.68748 6.3125 8.64581Z" fill="#00B14F"/>
<path d="M7.20408 9.40802C7.20408 9.33302 7.01246 9.51212 7.04163 9.44129C6.82913 9.52045 7.49575 9.59969 7.20408 9.40802Z" fill="#00B14F"/>
<path d="M2.59956 0.324626L2.42871 0.232971L2.53705 0.374573L2.59956 0.324626Z" fill="#00B14F"/>
<path d="M2.27056 0.637227L2.23307 0.366333L2.12891 0.612203C2.16641 0.599703 2.24139 0.578894 2.27056 0.637227Z" fill="#00B14F"/>
<path d="M1.84953 2.81227C1.92037 2.82893 1.93706 2.79562 1.92456 2.73312C1.86622 2.72479 1.83703 2.74977 1.84953 2.81227Z" fill="#00B14F"/>
</svg>
