<svg width="24" height="16" viewBox="0 0 24 16" fill="none" xmlns="http://www.w3.org/2000/svg">
<path d="M1.31641 2.40455C1.42474 2.47955 1.53727 2.30448 1.50394 2.33364C1.4706 2.26281 1.34974 2.39621 1.31641 2.40455Z" fill="white"/>
<path d="M3.1243 4.78804C3.0993 4.91304 3.04096 4.69638 3.1243 4.78804Z" fill="white"/>
<path d="M4.03249 6.08348C4.08666 6.05431 4.13249 5.93764 4.18666 5.87514L4.05334 5.8252C4.05334 5.9002 4.09915 6.01681 4.02832 6.08348H4.03249Z" fill="white"/>
<path d="M4.19141 5.87928L4.38728 5.95435C4.29978 5.82102 4.23724 5.82928 4.19141 5.87928Z" fill="white"/>
<path d="M4.45355 6.62955L4.27441 6.64206L4.56189 6.64623L4.45355 6.62955Z" fill="white"/>
<path d="M4.75397 6.97119C4.6123 6.98786 4.65814 7.17951 4.5498 7.16284C4.64147 7.24618 4.79148 7.26702 4.92481 7.28369C4.82065 7.23786 4.76647 7.14202 4.75814 6.97119H4.75397Z" fill="white"/>
<path d="M5.12799 7.321C5.07382 7.30017 4.99883 7.2918 4.92383 7.2793C4.97799 7.3043 5.04466 7.321 5.12799 7.321Z" fill="white"/>
<path d="M4.49492 6.43351L4.5908 6.26689C4.5908 6.26689 4.56159 6.22933 4.54909 6.2085C4.52826 6.24183 4.46576 6.32517 4.49492 6.42934V6.43351Z" fill="white"/>
<path d="M4.5957 6.26318C4.63737 6.33402 4.67069 6.37561 4.68319 6.39644C4.67069 6.37978 4.64566 6.34235 4.59982 6.26318H4.5957Z" fill="white"/>
<path d="M4.54102 6.19603L4.55348 6.20855C4.55348 6.20855 4.56602 6.18353 4.54102 6.19603Z" fill="white"/>
<path d="M4.43652 5.90855L4.66149 5.99186L4.57401 5.81689C4.54067 5.85023 4.50736 5.91688 4.43652 5.90855Z" fill="white"/>
<path d="M4.76211 6.02972L4.66211 5.99219L4.6913 6.05475L4.76211 6.02972Z" fill="white"/>
<path d="M5.0573 6.96273C5.1698 6.97939 5.22812 7.04611 5.30312 7.11694C5.26145 7.00861 5.20728 6.90853 5.14061 6.8252C5.08644 6.84603 4.97813 6.87106 5.0573 6.96273Z" fill="white"/>
<path d="M4.8457 6.61248L4.86651 6.62082C4.86651 6.62082 4.86654 6.59165 4.8457 6.61248Z" fill="white"/>
<path d="M5.92045 7.90837C5.92045 7.90837 5.93297 7.8875 5.93713 7.875L5.91211 7.89168L5.92462 7.90837H5.92045Z" fill="white"/>
<path d="M5.15345 6.7918C5.12845 6.7043 5.06595 6.69597 4.99512 6.6918C5.04512 6.7293 5.09511 6.7709 5.14094 6.82506C5.16594 6.81673 5.17846 6.8043 5.15762 6.7918H5.15345Z" fill="white"/>
<path d="M5.36663 7.49209C5.36663 7.43375 5.36662 7.37962 5.35412 7.32129C5.33745 7.38796 5.3208 7.50875 5.36663 7.49209Z" fill="white"/>
<path d="M4.84093 6.67578H4.82842C4.81592 6.71745 4.82843 6.70078 4.84093 6.67578Z" fill="white"/>
<path d="M4.8418 6.67531C4.88763 6.69198 4.94179 6.692 4.99596 6.692C4.95429 6.66283 4.90843 6.63776 4.8626 6.62109C4.8626 6.63776 4.85013 6.65864 4.8418 6.67114V6.67531Z" fill="white"/>
<path d="M5.72905 7.58364L5.66654 7.53369C5.69988 7.62119 5.68737 7.71279 5.6582 7.88363C5.79987 7.93363 5.86653 7.91697 5.91653 7.89197L5.69986 7.57947H5.7374L5.72905 7.58364Z" fill="white"/>
<path d="M5.87007 7.9917L5.69922 8.07501L6.01589 8.05009L5.87007 7.9917Z" fill="white"/>
<path d="M5.99902 8.37925L6.14068 8.40011L6.13651 8.2876L5.99902 8.37925Z" fill="white"/>
<path d="M13.6533 13.7752C13.8783 13.7419 14.22 13.7002 14.07 13.5918L13.9033 13.5127C13.8283 13.6544 13.7408 13.7336 13.6575 13.7752H13.6533Z" fill="white"/>
<path d="M8.71191 11.4544C8.72441 11.5877 8.75778 11.6752 8.79945 11.7418C8.79945 11.571 8.84941 11.3877 8.71191 11.4544Z" fill="white"/>
<path d="M22.1247 3.13343C22.1331 3.07093 22.1039 3.04596 22.0497 3.05429C22.0372 3.11679 22.0539 3.15427 22.1247 3.13343Z" fill="white"/>
<path d="M8.7998 11.7419C8.7998 11.8669 8.8373 11.9877 9.00397 12.0002C9.00397 11.9752 9.00397 11.9543 9.00397 11.9252C8.92897 11.8793 8.85814 11.8294 8.80398 11.7419H8.7998Z" fill="white"/>
<path d="M3.36133 0.875147C3.39883 0.862647 3.45716 0.862736 3.51549 0.862736C3.48633 0.850236 3.44049 0.850147 3.36133 0.875147Z" fill="white"/>
<path d="M7.06643 9.59615C7.04143 9.59615 7.00393 9.53781 7.06643 9.59615Z" fill="white"/>
<path d="M7.0498 9.44629C7.0498 9.48379 7.05816 9.52547 7.07483 9.56297C7.07483 9.54213 7.06647 9.50462 7.0498 9.44629Z" fill="white"/>
<path d="M6.99519 9.51295C6.98269 9.48378 6.97437 9.46288 6.96187 9.44205C6.9327 9.45038 6.92435 9.47128 6.99519 9.51295Z" fill="white"/>
<path d="M7.14586 9.68384C7.11253 9.64634 7.09168 9.60882 7.07501 9.56299C7.07501 9.58382 7.075 9.59635 7.0625 9.59635C7.07917 9.61302 7.10419 9.638 7.14169 9.68384H7.14586Z" fill="white"/>
<path d="M23.0536 1.04614L23.1953 0.983582C22.787 0.937748 22.3537 1.08779 21.9745 1.23779C21.9412 1.19613 22.1036 1.1336 22.162 1.10443C21.6953 0.971098 21.4953 1.00026 20.6661 1.30859L20.8078 1.10443C20.6786 1.16276 20.5203 1.08361 20.2495 1.01278C19.987 0.94611 19.5912 0.891943 19.2203 1.01278C19.2328 0.987777 19.2578 0.950289 19.3203 0.921122C19.1078 0.979456 18.9078 0.975309 18.6912 0.941976C18.5412 0.908643 18.4036 0.854451 18.2703 0.812785C18.0036 0.729451 17.7786 0.712748 17.6828 1.08775L17.3453 1.27116C17.7828 1.33366 17.2787 1.59609 17.4578 1.72109C17.287 1.76276 17.0161 1.49197 17.2245 1.45447L17.2578 1.492C17.337 1.10034 16.7162 1.35024 16.7287 1.08358C15.8662 1.09608 15.0287 0.875321 14.2245 0.850321L14.3162 1.15448L14.037 1.13363C13.962 1.06279 13.9411 0.89611 14.1411 0.90861C14.037 0.73361 13.8037 1.05028 13.7995 1.11694C13.4078 0.991943 13.9536 0.76283 13.837 0.754496L13.6745 0.775248L13.712 0.812785C13.5786 0.937785 13.5661 1.06698 13.3245 1.05031C13.1703 0.987813 13.2495 0.862821 13.187 0.850321C13.187 0.829488 13.1661 0.81698 13.0953 0.84198L12.7411 0.812785L12.8703 1.03363C12.7537 1.0878 12.4078 1.05033 12.0745 1.067C11.737 1.05033 11.3911 1.0878 11.2745 1.03363L11.4037 0.812785L11.0495 0.84198C10.9787 0.821147 10.9578 0.829488 10.9578 0.850321C10.8995 0.862821 10.9745 0.987813 10.8203 1.05031C10.5786 1.06698 10.5661 0.933618 10.4328 0.812785L10.4703 0.775248L10.3078 0.754496C10.187 0.76283 10.737 0.991943 10.3453 1.11694C10.3411 1.05028 10.1078 0.73361 9.99949 0.90861C10.1412 0.900277 10.1703 0.979484 10.1453 1.05448C10.0578 1.02948 9.96198 1.0003 9.88698 0.929464L9.91196 0.850321C9.88696 0.850321 9.86199 0.854492 9.83699 0.854492C9.82449 0.837826 9.812 0.825281 9.80367 0.808614C9.81617 0.825281 9.82031 0.841996 9.82447 0.858663C9.47864 0.87533 9.12863 0.921167 8.77446 0.967C8.42863 0.933667 8.0495 0.783634 7.662 0.829468C7.65366 0.891968 7.712 0.9795 7.662 1.07117C7.637 1.07117 7.6078 1.07117 7.5828 1.07117L7.32447 0.754496C7.21197 0.78783 7.21614 1.17529 7.01614 0.921122C7.04531 0.983622 7.08697 1.07526 7.01197 1.10026C6.81614 1.03776 6.61617 1.00442 6.41617 0.987752C6.30783 0.712752 6.09947 0.73361 5.86197 0.804443C5.72864 0.84611 5.59113 0.900301 5.44113 0.933634C5.22446 0.966968 5.02446 0.971114 4.81196 0.912781C4.87446 0.941947 4.89946 0.979435 4.91196 1.00444C4.68279 0.929435 4.44529 0.925317 4.23279 0.950317C4.02445 0.900317 3.81195 0.821106 3.60779 0.696106C3.76195 0.837773 3.65782 0.854496 3.54116 0.858663C3.60782 0.88783 3.55784 1.0086 3.55367 1.10443C3.537 1.1086 3.52029 1.10861 3.50362 1.11277L3.07866 0.862834C3.00783 1.08367 2.72865 0.962805 2.59115 1.04197C2.37865 1.01281 2.21199 1.04193 1.97866 1.10443C2.03699 1.13776 2.19947 1.19613 2.16614 1.23779C1.78697 1.08779 1.35367 0.937748 0.945333 0.983582L1.08699 1.04614L0.507812 1.02529L0.61615 1.17533C1.26615 1.47117 1.2328 1.58781 1.27446 1.77948C1.3078 1.96281 1.42446 2.24194 2.04946 2.46277C1.82029 2.47527 2.062 2.87117 2.09534 3.05033C2.13284 3.0545 2.18283 3.07112 2.2495 3.10445C2.0995 3.19195 2.28282 3.3753 2.49115 3.53363C2.70782 3.69613 2.94949 3.83363 3.02032 3.9503C3.05366 4.1253 2.89533 4.09613 2.71617 4.05029C2.99533 4.18363 3.09116 4.41696 3.17866 4.67946C3.19116 4.71696 3.20365 4.75447 3.21615 4.79197C3.19948 4.77947 3.17864 4.76693 3.15781 4.74609C3.15781 4.76693 3.15363 4.77113 3.14946 4.78363C3.16613 4.80446 3.18698 4.82946 3.21615 4.87946C3.22448 4.87112 3.22867 4.86277 3.237 4.8586C3.25783 4.92527 3.27863 4.98774 3.29946 5.04191C3.31613 5.08358 3.33284 5.12108 3.34534 5.15025C3.3495 5.15858 3.35781 5.15859 3.36614 5.16276C3.36614 5.22943 3.40367 5.3128 3.34534 5.30446C3.487 5.39613 3.52033 5.33363 3.5495 5.2003C3.587 5.1753 3.62863 5.13781 3.66613 5.10447L3.73281 5.13367C3.75364 5.092 3.7995 5.04611 3.70366 5.07528C3.7245 5.05861 3.74529 5.04607 3.77029 5.03774C3.79529 5.08357 3.79531 5.12526 3.78281 5.15859L3.72864 5.13367C3.71614 5.15867 3.72446 5.17527 3.77446 5.17527C3.70363 5.33361 3.37865 5.39196 3.73698 5.5128C3.72865 5.45863 3.69115 5.37944 3.74115 5.37944C3.85365 5.45027 4.35783 5.30024 4.537 5.35441C4.462 5.40024 4.42865 5.48774 4.25781 5.45858C4.32865 5.46691 4.41616 5.50028 4.48283 5.49611C4.55783 5.60028 4.72863 5.63359 4.86196 5.67525C4.85363 5.72942 4.84531 5.77528 4.83281 5.80444C4.86198 5.76694 4.88284 5.72526 4.90784 5.68776C5.0245 5.72526 5.087 5.77527 4.95783 5.90444L4.78699 6.00861C5.29532 6.21277 4.85364 6.21696 5.34114 6.44613L5.36199 6.4211C5.46616 6.6086 5.7328 6.54192 5.5453 6.82526L5.46616 6.79616C5.53282 6.89616 5.57448 6.94615 5.61615 6.99615C5.59115 6.99615 5.56613 6.99614 5.54113 6.98364C5.80363 7.24614 5.39529 6.96275 5.48279 7.23358C5.41612 7.19608 5.36617 7.15033 5.3245 7.10866C5.3495 7.17533 5.36612 7.24199 5.37862 7.30865V7.29614C5.38695 7.26698 5.3953 7.25446 5.3953 7.27946C5.3953 7.27946 5.39948 7.27946 5.40365 7.27946C5.42448 7.26696 5.44532 7.2586 5.46616 7.25026C5.50366 7.3586 5.44115 7.29196 5.40365 7.27946C5.39531 7.28363 5.38695 7.28781 5.37862 7.29197L5.68283 7.52116C5.65366 7.44616 5.59116 7.37109 5.46616 7.24609C5.59116 7.20443 5.71196 7.23364 5.79946 7.19198C5.80779 7.20031 5.81198 7.20867 5.82448 7.217C5.82032 7.25867 5.86616 7.39196 5.94116 7.37946C5.84116 7.46696 5.91614 7.6045 6.0203 7.73366C5.9953 7.7795 5.97029 7.82109 5.95362 7.86275C5.99112 7.83775 6.03283 7.81281 6.10367 7.82115C6.19533 7.91281 6.28696 7.98781 6.32029 8.02114C6.21613 7.83364 6.37031 7.83781 6.49114 7.81698C6.39947 8.05031 6.43699 8.13358 6.66616 8.16691C6.58282 8.24608 6.4953 8.32945 6.42863 8.41278C6.4078 8.38778 6.3953 8.3628 6.3828 8.33364C6.28697 8.50864 6.362 8.44195 6.35783 8.51695C6.28283 8.64611 6.26612 8.77944 6.37029 8.9211C6.37446 8.85027 6.34529 8.76697 6.42029 8.7503C6.49529 8.73364 6.48696 8.842 6.4828 8.8795C6.54113 8.867 6.54114 8.79196 6.59114 8.73779C6.60364 8.75446 6.61612 8.77107 6.62862 8.78774C6.61195 8.95441 6.69947 9.02108 6.80364 9.10441C6.82864 9.17941 6.84948 9.25858 6.80781 9.41691C6.87031 9.35858 6.88699 9.25443 6.97449 9.43359C6.99949 9.42526 7.03697 9.42108 7.0578 9.42108C7.0578 9.42941 7.0578 9.42943 7.0578 9.43359V9.41691C7.0578 9.41691 7.07863 9.41691 7.0578 9.41274C7.0578 9.35441 7.07034 9.29612 7.09534 9.25446C7.12034 9.25029 7.14948 9.25029 7.17448 9.25446C7.07448 9.43779 7.7245 9.36278 7.30367 9.55444C7.4245 9.61694 7.53281 9.70448 7.64114 9.80031C7.60364 9.92531 7.59112 10.0377 7.41196 9.93774L7.55783 10.1378C7.56616 10.317 7.65781 10.5003 7.79531 10.5503C7.83697 10.667 8.14115 10.6544 7.96199 10.6669L8.29529 10.9003L8.26197 10.9336C8.48281 11.2503 8.99532 11.3627 9.00365 11.9211C9.12032 11.9919 9.24946 12.0628 9.34113 12.2669L9.24113 12.4003C9.38696 12.4961 9.42446 12.892 9.59946 12.8462C9.48696 13.0587 9.57867 13.2128 9.7495 13.3919C10.0162 13.6961 10.3161 13.9711 10.4578 14.2127L10.587 14.0336C10.7911 14.3128 11.0287 14.5169 11.3037 14.7294L11.3245 14.5962C11.3703 14.6837 11.4162 14.7795 11.4662 14.8795C11.637 15.2253 11.8536 15.617 12.0495 15.6336C12.0495 15.6336 12.0495 15.6337 12.0495 15.6378C12.0536 15.6378 12.0578 15.6378 12.062 15.6378C12.0661 15.6378 12.0703 15.6378 12.0745 15.6378C12.0745 15.6378 12.0745 15.6378 12.0745 15.6336C12.2703 15.6128 12.487 15.2211 12.6578 14.8795C12.8453 14.5086 12.9828 14.1878 13.2245 14.1253C13.2828 13.9419 13.3578 13.892 13.4453 13.8545C13.437 13.867 13.4328 13.8794 13.4286 13.8919C13.4411 13.8836 13.4536 13.867 13.4661 13.8461C13.5245 13.8253 13.587 13.8045 13.6537 13.7712C13.587 13.7837 13.5287 13.7961 13.487 13.8169C13.5537 13.7253 13.6495 13.5711 13.7203 13.4086L13.8995 13.5044C13.8995 13.5044 13.912 13.4837 13.9203 13.4712C14.0828 13.3878 13.937 13.3003 13.7745 13.2587C13.8036 13.1712 13.8161 13.092 13.8161 13.017C14.1453 13.1253 13.912 12.7253 14.2578 12.8462C14.1703 12.6837 14.4911 12.3545 14.2536 12.0878C14.2911 12.1128 14.3286 12.1044 14.2953 12.1503C14.3995 12.0836 14.5078 12.017 14.4953 11.8753L14.7245 11.9962L14.6203 11.5795C14.8411 11.5545 14.9495 11.5628 15.0037 11.8045C15.0037 11.3253 15.1078 11.4962 15.0745 11.0628L15.1911 11.1795C15.2578 11.0878 15.1995 10.8086 15.3495 10.8378C15.7536 10.8378 16.1745 9.88778 16.812 9.56278C16.3536 9.35445 17.1703 9.46274 16.8953 9.20858C17.0078 9.25024 17.1162 9.22113 17.1287 9.36696C17.2495 9.0378 17.587 9.09194 17.4828 8.71277C17.5953 8.75444 17.5703 8.87524 17.6453 8.89191C17.6453 8.85441 17.6328 8.74615 17.7078 8.76282C17.7828 8.77948 17.7537 8.86278 17.7578 8.93361C17.9578 8.65861 17.7036 8.40859 17.462 8.17942C17.6911 8.14609 17.7286 8.06282 17.637 7.82949C17.7578 7.85032 17.912 7.84615 17.8078 8.03365C17.8953 7.95032 18.387 7.56697 18.1911 7.39197C18.2661 7.40447 18.312 7.27524 18.3078 7.22941C18.487 7.03358 18.5203 7.02941 18.6661 6.80857L18.587 6.83777C18.4037 6.55444 18.6703 6.62111 18.7703 6.43361L18.7911 6.45864C19.2745 6.22947 18.837 6.22528 19.3453 6.02112L19.1745 5.91695C18.8703 5.61278 19.637 5.74615 19.687 5.42948H19.537C19.5162 5.22532 20.2578 5.47528 20.3953 5.38778C20.4453 5.38778 20.4078 5.46697 20.3995 5.52114C20.8495 5.37114 20.2287 5.31691 20.3662 5.04608C20.512 5.09191 20.5995 5.32528 20.7453 5.18778C20.7661 5.18778 20.7787 5.17525 20.7912 5.15442C20.8037 5.12525 20.8203 5.08775 20.837 5.04608C20.8787 4.94191 20.9161 4.80863 20.962 4.68363C21.0495 4.42113 21.1453 4.1878 21.4245 4.05446C21.2453 4.10446 21.0828 4.12947 21.1203 3.95447C21.1911 3.83363 21.4328 3.7003 21.6495 3.5378C21.862 3.37947 22.0411 3.20029 21.8911 3.10862C21.9578 3.07529 22.0078 3.05867 22.0453 3.0545C22.0745 2.87534 22.3203 2.48361 22.0912 2.46694C22.7162 2.24194 22.8328 1.96698 22.8662 1.78365C22.9037 1.59198 22.8745 1.47534 23.5245 1.1795L23.6328 1.02946L23.0536 1.05031V1.04614ZM6.87866 7.91697C6.88283 7.89197 6.88696 7.85865 6.89112 7.82949C6.84112 7.94199 6.79117 8.02531 6.72867 8.02114L6.64113 7.71698C6.7203 7.72115 6.81196 7.73782 6.89946 7.72532C6.89946 7.75865 6.89529 7.79615 6.89112 7.82949C6.90779 7.79615 6.9245 7.75865 6.937 7.72115C6.962 7.71698 6.98697 7.70446 7.01197 7.69196L7.09534 7.79612C7.04117 7.87946 6.9745 7.93363 6.87866 7.9128V7.91697ZM7.95364 8.88784C7.95364 8.88784 7.9453 8.89191 7.94113 8.89608C7.93696 8.88358 7.92867 8.86697 7.9245 8.85447L7.95364 8.89191V8.88784ZM11.4411 13.3211L11.4786 13.3711C11.4661 13.4127 11.4495 13.4544 11.437 13.4961C11.437 13.4378 11.437 13.3795 11.437 13.3253L11.4411 13.3211ZM12.637 13.3752L12.6745 13.3295C12.6745 13.3795 12.6745 13.4294 12.6745 13.4794C12.662 13.4461 12.6495 13.4086 12.6411 13.3711L12.637 13.3752ZM4.57448 5.42948C4.57448 5.42948 4.57448 5.42531 4.57448 5.42114C4.57448 5.42114 4.57448 5.42115 4.57448 5.42948ZM7.76616 10.2212C7.76616 10.2212 7.77446 10.2212 7.77863 10.2212C7.80363 10.3795 7.79533 10.3212 7.76616 10.2212ZM12.0995 15.5627C12.0995 15.5627 12.1078 15.542 12.112 15.5295L12.0953 15.5711C12.0953 15.5711 12.0745 15.5961 12.062 15.6045C12.0495 15.5961 12.037 15.5836 12.0287 15.5711L12.012 15.5295C12.012 15.5295 12.0203 15.5502 12.0245 15.5627C11.9912 15.5252 11.9578 15.4753 11.9495 15.4045C11.9578 15.417 11.9703 15.4295 11.9787 15.442C12.0037 15.4795 12.0245 15.5212 12.0495 15.5545C12.0536 15.5503 12.0578 15.542 12.062 15.5378C12.0661 15.542 12.0703 15.5503 12.0745 15.5545C12.0995 15.517 12.1203 15.4795 12.1453 15.442C12.1537 15.4295 12.1661 15.4211 12.1745 15.4045C12.1661 15.4753 12.1328 15.5252 12.0995 15.5627ZM13.1453 0.925293L13.1995 0.979411C13.0745 1.03774 13.1078 0.983626 13.1453 0.925293ZM14.3203 11.3003L14.4536 11.1378L14.612 11.5336C14.5495 11.4628 14.4412 11.3836 14.3203 11.3044V11.3003ZM17.3912 8.02114C17.3328 8.02531 17.2828 7.94199 17.2286 7.82949C17.2286 7.86282 17.2328 7.89197 17.2412 7.91697C17.1828 7.92947 17.1328 7.9086 17.0912 7.87526L17.1953 7.75024C17.2078 7.77524 17.2203 7.80449 17.2286 7.82949C17.2286 7.79615 17.2245 7.75448 17.2203 7.71698L17.2661 7.65859C17.362 7.66692 17.4453 7.6711 17.4911 7.66693L17.387 8.02114H17.3912Z" fill="#A0D92A"/>
<path d="M6.45312 8.96708L6.60729 9.07959C6.54479 9.01709 6.56146 8.96286 6.55729 8.90869C6.52396 8.94202 6.49063 9.00875 6.45312 8.96708Z" fill="white"/>
<path d="M7.34573 9.72918C7.34573 9.65418 7.15406 9.83338 7.18323 9.76255C6.97073 9.84171 7.6374 9.92085 7.34573 9.72918Z" fill="white"/>
<path d="M2.74116 0.641988L2.57031 0.554504L2.67865 0.696106L2.74116 0.641988Z" fill="white"/>
<path d="M2.41216 0.954397L2.37467 0.683502L2.27051 0.929372C2.30801 0.916872 2.38299 0.896063 2.41216 0.954397Z" fill="white"/>
<path d="M1.99114 3.13358C2.06197 3.15025 2.07861 3.11694 2.06611 3.05444C2.00778 3.04611 1.97864 3.07108 1.99114 3.13358Z" fill="white"/>
</svg>
