<svg width="225" height="59" viewBox="0 0 225 59" fill="none" xmlns="http://www.w3.org/2000/svg">
<path d="M195.996 0.671692H29.8333C13.8147 0.671692 0.829102 13.6573 0.829102 29.6759C0.829102 45.6945 13.8147 58.6801 29.8333 58.6801H195.996C212.014 58.6801 225 45.6945 225 29.6759C225 13.6573 212.014 0.671692 195.996 0.671692Z" fill="#A0D92A"/>
<path d="M40.2671 26.0012V26.0596H38.4129L35.9046 22.1638C35.6254 21.7263 35.263 21.5054 34.5338 21.5054H34.1546V26.0555H32.4463V15.5555H34.1546V19.9013H34.5338C35.1755 19.9013 35.4546 19.7263 35.7004 19.3638L38.3713 15.5555H40.2088V15.6138L37.2463 19.9763C37.0255 20.3138 36.8379 20.5596 36.5879 20.7221C36.9088 20.8388 37.1254 21.0429 37.3879 21.4513L40.263 26.0012H40.2671Z" fill="#005339"/>
<path d="M40.4004 22.0924C40.4004 19.5966 42.0504 17.8924 44.442 17.8924C46.8337 17.8924 48.4837 19.5966 48.4837 22.0924C48.4837 24.5883 46.8504 26.2799 44.442 26.2799C42.0337 26.2799 40.4004 24.5716 40.4004 22.0924ZM46.8046 22.0924C46.8046 20.5758 45.8129 19.4799 44.442 19.4799C43.0712 19.4799 42.0796 20.5758 42.0796 22.0924C42.0796 23.6091 43.0712 24.6883 44.442 24.6883C45.8129 24.6883 46.8046 23.5924 46.8046 22.0924Z" fill="#005339"/>
<path d="M49.9375 21.2884C49.9375 19.2009 51.325 17.8885 53.525 17.8885C55.725 17.8885 57.0708 19.1884 57.0708 21.2884V26.0593H55.3917V21.3343C55.3917 20.2551 54.6208 19.4802 53.525 19.4802C52.4292 19.4802 51.6167 20.2676 51.6167 21.3343V26.0593H49.9375V21.2884Z" fill="#005339"/>
<path d="M59.4171 28.626V26.976L59.4629 26.9468C60.4379 27.5177 61.6796 27.8968 62.6129 27.8968C64.0004 27.8968 64.9629 27.0802 64.9629 25.8552V24.776H64.8879C64.4212 25.6635 63.4462 26.2177 62.3921 26.2177C60.1462 26.2177 58.5254 24.526 58.5254 22.1468C58.5254 19.6093 60.0712 17.8885 62.3337 17.8885C63.5004 17.8885 64.4629 18.3552 64.8129 19.0844H64.8837V18.151H66.5629V25.8677C66.5629 28.0136 64.9295 29.4844 62.5795 29.4844C61.5295 29.4844 60.4337 29.1927 59.4129 28.6218L59.4171 28.626ZM64.8879 22.0176C64.8879 20.5135 63.9421 19.4802 62.5421 19.4802C61.1421 19.4802 60.2087 20.501 60.2087 22.0468C60.2087 23.5926 61.1129 24.6301 62.5296 24.6301C63.9462 24.6301 64.8921 23.6218 64.8921 22.0176H64.8879Z" fill="#005339"/>
<path d="M68.2084 25.6966V24.0924L68.2501 24.0633C69.2001 24.5008 69.9418 24.6924 70.7876 24.6924C71.8501 24.6924 72.3918 24.4007 72.3918 23.8007C72.3918 23.334 72.0709 23.0716 71.1084 22.8383L70.321 22.6465C68.9335 22.309 68.0293 21.6966 68.0293 20.3258C68.0293 18.7633 69.2126 17.8924 71.3126 17.8924C72.2168 17.8924 73.0043 18.0508 73.5751 18.3424V19.9465L73.5334 19.9757C72.9043 19.6549 72.0293 19.4674 71.2418 19.4674C70.3084 19.4674 69.8126 19.7465 69.8126 20.2674C69.8126 20.7882 70.3668 20.9799 71.3459 21.2007L71.9876 21.3466C73.1251 21.6091 74.1043 22.2965 74.1043 23.709C74.1043 25.3007 72.8376 26.2758 70.7918 26.2758C69.9001 26.2758 68.9959 26.0715 68.2084 25.6924V25.6966Z" fill="#005339"/>
<path d="M75.5 16.0843C75.5 15.501 75.9375 15.076 76.55 15.076C77.1625 15.076 77.6 15.4968 77.6 16.0843C77.6 16.6718 77.1625 17.0927 76.55 17.0927C75.9375 17.0927 75.5 16.6718 75.5 16.0843ZM75.7167 18.1552H77.3959V26.0594H75.7167V18.1552Z" fill="#005339"/>
<path d="M82.517 25.6967V24.0926L82.5587 24.0634C83.5087 24.5009 84.2504 24.6925 85.0962 24.6925C86.1629 24.6925 86.7004 24.4008 86.7004 23.8008C86.7004 23.3342 86.3796 23.0717 85.4171 22.8384L84.6296 22.6466C83.2421 22.3091 82.3379 21.6967 82.3379 20.3259C82.3379 18.7634 83.5212 17.8925 85.6212 17.8925C86.5254 17.8925 87.3129 18.0509 87.8837 18.3425V19.9467L87.842 19.9759C87.2129 19.655 86.3379 19.4675 85.5504 19.4675C84.617 19.4675 84.1212 19.7467 84.1212 20.2675C84.1212 20.7883 84.6754 20.98 85.6545 21.2008L86.2962 21.3467C87.4337 21.6092 88.4129 22.2967 88.4129 23.7092C88.4129 25.3008 87.1462 26.2759 85.1004 26.2759C84.2087 26.2759 83.3045 26.0717 82.517 25.6925V25.6967Z" fill="#005339"/>
<path d="M89.6172 22.0924C89.6172 19.5966 91.2672 17.8924 93.6589 17.8924C96.0506 17.8924 97.7005 19.5966 97.7005 22.0924C97.7005 24.5883 96.0672 26.2799 93.6589 26.2799C91.2506 26.2799 89.6172 24.5716 89.6172 22.0924ZM96.0214 22.0924C96.0214 20.5758 95.0297 19.4799 93.6589 19.4799C92.2881 19.4799 91.2964 20.5758 91.2964 22.0924C91.2964 23.6091 92.2881 24.6883 93.6589 24.6883C95.0297 24.6883 96.0214 23.5924 96.0214 22.0924Z" fill="#005339"/>
<path d="M106.434 26.001V26.0594H104.48L102.655 23.2719C102.35 22.8052 102.042 22.6303 101.442 22.6303H101.063V26.0594H99.3838V14.726H101.063V20.9969H101.459C102.013 20.9969 102.217 20.8677 102.567 20.4136L104.288 18.1553H106.259V18.2136L104.246 21.0302C103.925 21.4802 103.605 21.7177 103.255 21.8177C103.588 21.951 103.925 22.2136 104.205 22.6344L106.438 26.0052L106.434 26.001Z" fill="#005339"/>
<path d="M106.796 22.0924C106.796 19.5966 108.446 17.8924 110.838 17.8924C113.229 17.8924 114.879 19.5966 114.879 22.0924C114.879 24.5883 113.246 26.2799 110.838 26.2799C108.429 26.2799 106.796 24.5716 106.796 22.0924ZM113.2 22.0924C113.2 20.5758 112.208 19.4799 110.838 19.4799C109.467 19.4799 108.475 20.5758 108.475 22.0924C108.475 23.6091 109.467 24.6883 110.838 24.6883C112.208 24.6883 113.2 23.5924 113.2 22.0924Z" fill="#005339"/>
<path d="M116.334 21.2885C116.334 19.201 117.721 17.8885 119.921 17.8885C122.121 17.8885 123.467 19.1885 123.467 21.2885V26.0594H121.788V21.3343C121.788 20.2552 121.017 19.4802 119.921 19.4802C118.826 19.4802 118.013 20.2677 118.013 21.3343V26.0594H116.334V21.2885Z" fill="#005339"/>
<path d="M125.813 28.626V26.976L125.858 26.9468C126.833 27.5177 128.075 27.8968 129.008 27.8968C130.396 27.8968 131.358 27.0802 131.358 25.8552V24.776H131.283C130.817 25.6635 129.842 26.2177 128.788 26.2177C126.542 26.2177 124.921 24.526 124.921 22.1468C124.921 19.6093 126.467 17.8885 128.729 17.8885C129.896 17.8885 130.858 18.3552 131.208 19.0844H131.279V18.151H132.958V25.8677C132.958 28.0136 131.325 29.4844 128.975 29.4844C127.925 29.4844 126.829 29.1927 125.808 28.6218L125.813 28.626ZM131.283 22.0176C131.283 20.5135 130.338 19.4802 128.938 19.4802C127.538 19.4802 126.604 20.501 126.604 22.0468C126.604 23.5926 127.508 24.6301 128.925 24.6301C130.342 24.6301 131.288 23.6218 131.288 22.0176H131.283Z" fill="#005339"/>
<path d="M134.417 22.1052C134.417 19.5969 136.034 17.8885 138.442 17.8885C140.85 17.8885 142.484 19.476 142.484 21.9593V26.0594H140.85V24.8635H140.775C140.279 25.726 139.288 26.2802 138.225 26.2802C135.892 26.2802 134.417 24.6594 134.417 22.1094V22.1052ZM140.804 22.0176C140.804 20.5135 139.842 19.4802 138.442 19.4802C137.042 19.4802 136.096 20.5177 136.096 22.0635C136.096 23.6093 137.042 24.676 138.442 24.676C139.842 24.676 140.804 23.5968 140.804 22.0218V22.0176Z" fill="#005339"/>
<path d="M144.2 21.2884C144.2 19.2009 145.588 17.8885 147.788 17.8885C149.988 17.8885 151.334 19.1884 151.334 21.2884V26.0593H149.654V21.3343C149.654 20.2551 148.884 19.4802 147.788 19.4802C146.692 19.4802 145.879 20.2676 145.879 21.3343V26.0593H144.2V21.2884Z" fill="#005339"/>
<path d="M156.129 22.1052C156.129 19.5969 157.746 17.8885 160.154 17.8885C162.562 17.8885 164.196 19.476 164.196 21.9593V26.0594H162.562V24.8635H162.487C161.991 25.726 161 26.2802 159.937 26.2802C157.604 26.2802 156.129 24.6594 156.129 22.1094V22.1052ZM162.516 22.0176C162.516 20.5135 161.554 19.4802 160.154 19.4802C158.754 19.4802 157.808 20.5177 157.808 22.0635C157.808 23.6093 158.754 24.676 160.154 24.676C161.554 24.676 162.516 23.5968 162.516 22.0218V22.0176Z" fill="#005339"/>
<path d="M165.917 21.2884C165.917 19.2009 167.304 17.8885 169.504 17.8885C171.704 17.8885 173.05 19.1884 173.05 21.2884V26.0593H171.371V21.3343C171.371 20.2551 170.6 19.4802 169.504 19.4802C168.409 19.4802 167.596 20.2676 167.596 21.3343V26.0593H165.917V21.2884Z" fill="#005339"/>
<path d="M174.505 22.0801C174.505 19.6135 176.067 17.8926 178.284 17.8926C179.363 17.8926 180.355 18.3717 180.822 19.1176H180.892V14.7259H182.572V22.0176C182.572 24.5551 180.938 26.276 178.547 26.276C176.155 26.276 174.505 24.5551 174.505 22.0759V22.0801ZM180.892 21.9926C180.892 20.4885 179.942 19.4843 178.513 19.4843C177.084 19.4843 176.18 20.4926 176.18 22.0217C176.18 23.5509 177.172 24.6926 178.542 24.6926C179.913 24.6926 180.892 23.5676 180.892 21.9926Z" fill="#005339"/>
<path d="M184.029 22.1052C184.029 19.5968 185.646 17.8885 188.054 17.8885C190.463 17.8885 192.096 19.476 192.096 21.9593V26.0593H190.463V24.8635H190.388C189.892 25.726 188.9 26.2802 187.838 26.2802C185.504 26.2802 184.029 24.6593 184.029 22.1093V22.1052ZM190.417 22.0176C190.417 20.5134 189.454 19.4802 188.054 19.4802C186.654 19.4802 185.708 20.5176 185.708 22.0635C185.708 23.6093 186.654 24.676 188.054 24.676C189.454 24.676 190.417 23.5968 190.417 22.0218V22.0176Z" fill="#005339"/>
<path d="M25.4668 40.8926V36.1677H27.146V40.851C27.146 41.9135 27.9209 42.6885 29.0293 42.6885C30.1376 42.6885 30.9126 41.9302 30.9126 40.851V36.1677H32.5918V40.8926C32.5918 42.9801 31.1918 44.2927 29.0334 44.2927C26.8751 44.2927 25.4751 42.9634 25.4751 40.8926H25.4668Z" fill="#005339"/>
<path d="M34.3047 39.3012C34.3047 37.2137 35.6922 35.9012 37.8922 35.9012C40.0922 35.9012 41.438 37.2012 41.438 39.3012V44.0721H39.7588V39.347C39.7588 38.2679 38.988 37.4929 37.8922 37.4929C36.7963 37.4929 35.9839 38.2804 35.9839 39.347V44.0721H34.3047V39.3012Z" fill="#005339"/>
<path d="M47.5174 42.4095V44.0011C47.1508 44.1303 46.48 44.2178 45.9425 44.2178C44.5425 44.2178 43.7674 43.4469 43.7674 42.0303V37.7262H42.4258V36.1637H43.7674V34.472H45.4466V36.1637H47.3425V37.7262H45.4466V41.7094C45.4466 42.2344 45.7966 42.5845 46.3216 42.5845C46.5841 42.5845 47.0674 42.5137 47.5174 42.4095Z" fill="#005339"/>
<path d="M48.6963 40.8927V36.1678H50.3755V40.8511C50.3755 41.9136 51.1504 42.6886 52.2588 42.6886C53.3671 42.6886 54.1379 41.9303 54.1379 40.8511V36.1678H55.8171V40.8927C55.8171 42.9802 54.4171 44.2928 52.2588 44.2928C50.1004 44.2928 48.7005 42.9636 48.7005 40.8927H48.6963Z" fill="#005339"/>
<path d="M64.8127 44.0136V44.072H62.8585L61.0335 41.2845C60.7294 40.8179 60.421 40.6429 59.821 40.6429H59.4418V44.072H57.7627V32.7387H59.4418V39.0095H59.8377C60.3919 39.0095 60.596 38.8803 60.946 38.4262L62.6669 36.1679H64.6377V36.2262L62.6252 39.0428C62.3043 39.4928 61.9835 39.7303 61.6335 39.8303C61.9668 39.9636 62.3043 40.2262 62.5835 40.647L64.8168 44.0178L64.8127 44.0136Z" fill="#005339"/>
<path d="M69.1419 38.8511C69.1419 35.4969 71.2585 33.3511 74.5544 33.3511C75.8085 33.3511 76.9335 33.6594 77.8794 34.2719V36.0678L77.7752 36.0844C76.796 35.3844 75.7335 35.0345 74.6252 35.0345C72.3794 35.0345 70.9044 36.5219 70.9044 38.8261C70.9044 41.1302 72.3336 42.6178 74.4919 42.6178C76.2294 42.6178 77.3794 41.5678 77.3794 40.0053H74.4627V38.4302H79.146V39.5969C79.146 42.4261 77.2919 44.2928 74.4919 44.2928C71.2836 44.2928 69.1377 42.1178 69.1377 38.8511H69.1419Z" fill="#005339"/>
<path d="M80.6504 39.4053C80.6504 37.0844 81.7879 35.9052 84.0213 35.9052C84.5921 35.9052 85.0129 35.9803 85.4796 36.1678V37.7303C85.1129 37.5844 84.6046 37.4969 84.1962 37.4969C82.9837 37.4969 82.3296 38.2427 82.3296 39.5844V44.0761H80.6504V39.4094V39.4053Z" fill="#005339"/>
<path d="M94.2129 40.7469H88.4962C88.7296 42.0303 89.6754 42.6886 91.267 42.6886C92.2879 42.6886 93.2962 42.4261 93.9962 41.9761L94.0379 42.0177V43.5344C93.3254 44.0177 92.242 44.2928 91.0754 44.2928C88.142 44.2928 86.7129 42.4969 86.7129 39.9761C86.7129 37.4552 88.4046 35.9052 90.6212 35.9052C92.8379 35.9052 94.2671 37.3636 94.2671 39.8011C94.2671 40.1803 94.2379 40.5886 94.2087 40.7511L94.2129 40.7469ZM92.6087 39.3469C92.6087 38.251 91.8087 37.4802 90.5962 37.4802C89.3837 37.4802 88.6254 38.151 88.4504 39.3469H92.6087Z" fill="#005339"/>
<path d="M102.963 40.7469H97.2462C97.4796 42.0303 98.4254 42.6886 100.017 42.6886C101.038 42.6886 102.046 42.4261 102.746 41.9761L102.788 42.0177V43.5344C102.075 44.0177 100.992 44.2928 99.8254 44.2928C96.892 44.2928 95.4629 42.4969 95.4629 39.9761C95.4629 37.4552 97.1546 35.9052 99.3712 35.9052C101.588 35.9052 103.017 37.3636 103.017 39.8011C103.017 40.1803 102.988 40.5886 102.959 40.7511L102.963 40.7469ZM101.359 39.3469C101.359 38.251 100.559 37.4802 99.3462 37.4802C98.1337 37.4802 97.3754 38.151 97.2004 39.3469H101.359Z" fill="#005339"/>
<path d="M104.476 39.3012C104.476 37.2137 105.863 35.9012 108.063 35.9012C110.263 35.9012 111.609 37.2012 111.609 39.3012V44.0721H109.93V39.347C109.93 38.2679 109.159 37.4929 108.063 37.4929C106.967 37.4929 106.155 38.2804 106.155 39.347V44.0721H104.476V39.3012Z" fill="#005339"/>
<path d="M124.313 37.1011C124.313 39.3469 122.796 40.7636 120.375 40.7636H118.609V44.0761H116.9V33.5761H120.371C122.838 33.5761 124.309 34.8886 124.309 37.1053L124.313 37.1011ZM122.592 37.1011C122.592 35.8886 121.775 35.1469 120.463 35.1469H118.609V39.1886H120.463C121.734 39.1886 122.592 38.3553 122.592 37.1053V37.1011Z" fill="#005339"/>
<path d="M125.93 39.4053C125.93 37.0844 127.067 35.9052 129.301 35.9052C129.871 35.9052 130.292 35.9803 130.759 36.1678V37.7303C130.392 37.5844 129.884 37.4969 129.476 37.4969C128.263 37.4969 127.609 38.2427 127.609 39.5844V44.0761H125.93V39.4094V39.4053Z" fill="#005339"/>
<path d="M131.996 40.1052C131.996 37.6094 133.646 35.9052 136.038 35.9052C138.429 35.9052 140.079 37.6136 140.079 40.1052C140.079 42.5969 138.446 44.2928 136.038 44.2928C133.629 44.2928 131.996 42.5844 131.996 40.1052ZM138.4 40.1052C138.4 38.5886 137.409 37.4927 136.038 37.4927C134.667 37.4927 133.675 38.5886 133.675 40.1052C133.675 41.6219 134.667 42.7011 136.038 42.7011C137.409 42.7011 138.4 41.6052 138.4 40.1052Z" fill="#005339"/>
<path d="M142.158 46.6387V44.9887L142.204 44.9595C143.179 45.5303 144.421 45.9095 145.354 45.9095C146.742 45.9095 147.704 45.0929 147.704 43.8679V42.7887H147.629C147.162 43.6762 146.187 44.2303 145.133 44.2303C142.887 44.2303 141.267 42.5387 141.267 40.1595C141.267 37.622 142.812 35.9012 145.075 35.9012C146.242 35.9012 147.204 36.3679 147.554 37.0971H147.625V36.1637H149.304V43.8804C149.304 46.0262 147.671 47.4971 145.321 47.4971C144.271 47.4971 143.175 47.2054 142.154 46.6387H142.158ZM147.629 40.0304C147.629 38.5262 146.683 37.4929 145.283 37.4929C143.883 37.4929 142.95 38.5137 142.95 40.0595C142.95 41.6053 143.854 42.6428 145.271 42.6428C146.687 42.6428 147.633 41.6346 147.633 40.0304H147.629Z" fill="#005339"/>
<path d="M151.025 39.4052C151.025 37.0843 152.163 35.9051 154.396 35.9051C154.967 35.9051 155.388 35.9801 155.855 36.1676V37.7301C155.488 37.5843 154.98 37.4968 154.571 37.4968C153.359 37.4968 152.705 38.2426 152.705 39.5843V44.076H151.025V39.4093V39.4052Z" fill="#005339"/>
<path d="M157.092 40.1179C157.092 37.6096 158.708 35.9012 161.117 35.9012C163.525 35.9012 165.158 37.4929 165.158 39.972V44.0721H163.525V42.8762H163.45C162.954 43.7387 161.963 44.2929 160.9 44.2929C158.567 44.2929 157.092 42.6721 157.092 40.1221V40.1179ZM163.479 40.0304C163.479 38.5262 162.517 37.4929 161.117 37.4929C159.717 37.4929 158.771 38.5304 158.771 40.0762C158.771 41.622 159.717 42.6887 161.117 42.6887C162.517 42.6887 163.479 41.6096 163.479 40.0346V40.0304Z" fill="#005339"/>
<path d="M177.625 38.9804V44.072H175.946V38.997C175.946 38.0053 175.346 37.4928 174.53 37.4928C173.713 37.4928 173.084 38.0178 173.084 39.0262V44.072H171.405V39.0262C171.405 38.0178 170.78 37.4928 169.963 37.4928C169.146 37.4928 168.546 38.0053 168.546 38.997V44.072H166.867V38.9804C166.867 37.1554 167.992 35.9012 169.771 35.9012C171.288 35.9012 172.076 36.8512 172.238 37.4762C172.413 36.847 173.276 35.9012 174.805 35.9012C176.571 35.9012 177.621 37.1262 177.621 38.9804H177.625Z" fill="#005339"/>
<path d="M190.096 38.9804V44.072H188.417V38.997C188.417 38.0053 187.817 37.4928 187 37.4928C186.184 37.4928 185.555 38.0178 185.555 39.0262V44.072H183.875V39.0262C183.875 38.0178 183.25 37.4928 182.434 37.4928C181.617 37.4928 181.017 38.0053 181.017 38.997V44.072H179.338V38.9804C179.338 37.1554 180.463 35.9012 182.242 35.9012C183.759 35.9012 184.546 36.8512 184.709 37.4762C184.884 36.847 185.746 35.9012 187.275 35.9012C189.042 35.9012 190.092 37.1262 190.092 38.9804H190.096Z" fill="#005339"/>
<path d="M199.05 40.7468H193.333C193.566 42.0301 194.512 42.6884 196.104 42.6884C197.125 42.6884 198.133 42.426 198.833 41.976L198.875 42.0176V43.5343C198.162 44.0176 197.079 44.2926 195.912 44.2926C192.979 44.2926 191.55 42.4968 191.55 39.9759C191.55 37.4551 193.241 35.9051 195.458 35.9051C197.675 35.9051 199.104 37.3635 199.104 39.801C199.104 40.1801 199.075 40.5885 199.046 40.751L199.05 40.7468ZM197.446 39.3468C197.446 38.2509 196.646 37.4801 195.433 37.4801C194.221 37.4801 193.462 38.1509 193.287 39.3468H197.446Z" fill="#005339"/>
</svg>
