<svg width="189" height="34" viewBox="0 0 189 34" fill="none" xmlns="http://www.w3.org/2000/svg">
<path d="M4.61258 1.16678L4.5459 1.24592C4.5834 1.22092 4.61258 1.19595 4.61258 1.16678Z" fill="#ACDE45"/>
<path d="M9.625 7.36261C9.625 7.36261 9.63752 7.35843 9.64585 7.3501C9.63752 7.3501 9.62917 7.35428 9.625 7.36261Z" fill="#ACDE45"/>
<path d="M2.50842 4.05811C2.50842 4.05811 2.49173 4.05811 2.4834 4.06228H2.50842V4.05811Z" fill="#ACDE45"/>
<path d="M1.78723 2.42491C1.92056 2.88324 1.60392 3.22904 2.01642 3.54154C2.11225 3.75404 2.33727 3.89987 2.50811 4.05821C2.86227 3.94571 2.67475 4.29994 2.99975 4.23328L2.85809 4.38739C2.96643 4.36239 3.0539 4.36653 2.98723 4.46653L2.93724 4.4999C3.09974 4.46656 3.06641 4.57902 3.14974 4.55819L3.09974 4.59155L3.16642 4.6416L3.0914 4.67904C3.2914 4.67904 3.36224 4.76654 3.36224 4.89154L3.55806 4.7416C3.46223 5.0791 3.92474 4.84153 3.77474 5.19153L3.72474 5.22489C4.39141 5.03323 3.60808 5.80822 4.25392 5.63739C4.17475 5.65822 4.16226 5.72491 4.11226 5.75824C4.24143 5.80824 4.34559 5.88744 4.72892 5.58744C4.77476 5.65828 4.64975 5.7374 4.51225 5.85824C4.67891 5.7249 4.79143 5.73326 4.8456 5.77492L4.76224 5.79995L4.93726 5.90411L5.2289 5.62488C5.19974 5.77488 4.86227 5.9499 4.99977 5.9624L5.2581 5.75407C5.29143 5.90407 4.95394 6.28319 4.84977 6.54152C5.10394 7.07902 6.13727 6.97909 6.04977 7.75409L5.87893 7.9374C5.61643 8.19156 6.37476 7.68322 6.14143 7.92489L6.30811 7.85826C6.27061 7.91659 6.24556 7.98738 6.16223 8.02071C6.1914 8.07071 6.23726 8.03328 6.34559 7.98745L6.22057 8.18744C6.24557 8.47077 6.6914 8.31238 6.7914 8.54154C6.6539 9.06654 7.33306 9.15406 7.72473 9.1874C8.39973 9.09156 7.77058 10.4874 8.52475 10.3332C8.49975 10.3791 8.60809 10.3207 8.63309 10.2874L8.89976 10.5958C8.89976 10.5958 9.24561 10.9458 9.69561 10.8791C10.1498 10.8166 10.6748 10.3207 11.1373 8.72485L11.1956 8.67074C11.1664 8.39157 11.1039 8.27909 10.7331 8.48326C11.0414 8.10409 10.6414 8.33327 10.7122 8.18327L10.7414 8.15824C10.3956 8.35408 10.7622 7.75822 10.4497 7.92489C10.4789 7.89989 10.5706 7.80405 10.5997 7.81655C10.4956 7.80405 10.3331 7.79986 10.5248 7.58736C10.3248 7.49986 10.2039 7.21243 9.7956 7.44576L9.85806 7.39571C9.5914 7.56238 9.7581 7.35823 9.58727 7.41239C9.6081 7.38323 9.62059 7.36661 9.62893 7.35411C9.35809 7.51244 9.42478 7.21662 9.28311 7.26245L9.41225 7.12492L9.26226 7.04161L9.27894 7.11241C8.89561 7.46657 9.42475 6.79161 9.09975 6.94578C9.07058 6.82078 8.16641 7.53736 8.26225 7.27486C8.04558 7.40403 8.5831 7.0374 8.38727 7.10406C8.5831 6.9124 8.53725 7.01235 8.67891 6.84985C8.52891 6.87902 8.78309 6.56243 8.58309 6.6166L8.73308 6.46655C8.36225 6.63739 8.76644 6.09574 8.44144 6.28324C8.2206 6.30408 8.84144 5.79158 8.44144 5.97074L8.6164 5.73739C8.61224 5.66239 8.32893 5.94161 8.38727 5.79995C8.52477 5.68328 8.43726 5.64158 8.59143 5.55408C8.70393 5.25408 8.09142 5.59574 8.32059 5.13324C8.02892 5.33324 8.12058 5.12077 7.89975 5.27077C8.01225 5.16661 7.79142 5.10412 8.11225 4.97078C8.13725 4.95828 8.14557 4.97489 8.09974 5.01239L8.26642 4.88737C8.49142 4.5457 7.97058 4.87494 7.94558 4.74994C7.91224 4.82077 7.95806 4.84156 7.8289 4.91239L7.78307 4.81657L7.92894 4.72074L7.90809 4.53743L7.75393 4.69155C7.79143 4.56238 8.0581 4.30828 7.76644 4.44161C7.6081 4.52078 7.58725 4.68319 7.48308 4.66652C7.53308 4.49569 7.61225 4.23741 7.58308 4.09574C7.39975 4.25824 7.38725 4.22494 7.32475 4.22911L7.48725 4.09157C7.17475 4.17074 7.8206 3.76243 7.55393 3.8041L7.67473 3.72078L7.30806 3.97072C6.9039 4.13739 7.61226 3.64992 7.07893 3.89575C7.14143 3.91659 6.72892 4.20408 6.75809 4.09574L6.92893 3.98324C6.8706 3.98324 6.79976 4.0249 6.81643 3.97906C6.91643 3.92906 7.05806 3.80408 6.99556 3.78324L7.22058 3.65405L6.86225 3.8041C6.98725 3.60826 6.69558 3.67909 6.90391 3.47909C6.90391 3.47909 6.9164 3.26236 6.63724 3.42069C6.81224 3.32903 6.81642 3.21245 7.01642 3.09161C6.81225 3.19161 6.59141 3.1957 6.74975 3.01237L6.77894 3.00403C6.86227 2.70819 6.3206 2.9374 6.4581 2.62907C6.26227 2.77907 6.32058 2.62906 6.07475 2.82906C5.71641 2.86239 6.41227 2.1957 5.57894 2.69987C5.48727 2.66237 5.71227 2.49158 5.72893 2.42908L5.7831 2.41656C5.6331 2.3374 5.59558 2.30822 5.55391 2.19989C5.44558 2.20822 5.06643 2.44989 5.09976 2.30406C5.26643 2.23322 5.21642 2.21654 5.19559 2.18321C5.23309 2.18737 5.29143 2.15828 5.36226 2.04995C5.31226 2.07495 5.27892 2.08322 5.24976 2.09155C5.26226 2.08322 5.27057 2.07486 5.28724 2.06653C5.19974 2.04986 5.1581 2.08742 5.15393 2.12909C5.12893 2.14159 5.1039 2.16656 5.0664 2.19989C5.22473 2.01656 4.94976 2.05405 5.20393 1.87905C5.04143 1.76238 4.69558 1.82069 4.51225 1.74986C4.63725 1.64986 4.77477 1.60409 4.84977 1.61243L4.74143 1.54987C4.9331 1.42903 4.88726 1.53319 4.94143 1.53735C5.18309 1.22485 4.4831 1.49992 4.68727 1.18742L4.51642 1.25405L4.53727 1.22902C4.45811 1.27902 4.3289 1.31661 4.28723 1.31661C4.44556 1.19161 4.67892 1.07485 4.62476 1.01652C4.75392 0.86652 4.45393 0.916614 4.3206 0.904114C4.31226 0.95828 4.21224 1.00403 4.14141 1.02486C4.11641 0.995695 4.27473 0.870768 4.18306 0.891602L4.41225 0.749898C4.20392 0.891565 4.12473 0.804057 4.02473 0.845723C4.18306 0.72489 4.2039 0.808223 4.33723 0.741557C4.23723 0.620723 4.28723 0.679081 4.18306 0.558248C3.9664 0.587415 3.97477 0.699935 3.74977 0.787435C3.66643 0.749935 3.4664 0.783211 3.56224 0.624878L3.37058 0.766581C3.14142 0.737415 3.1206 0.64574 3.2831 0.44574C2.17893 0.466573 1.56642 0.724935 1.23725 0.995768C0.908087 1.2666 0.866414 1.54987 0.866414 1.54987C0.628914 2.19987 1.3456 2.05822 1.77477 2.40822L1.78723 2.42491Z" fill="#ACDE45"/>
<path d="M19.9334 14.4087L19.9209 14.5129C19.9417 14.4712 19.9501 14.4337 19.9334 14.4087Z" fill="#ACDE45"/>
<path d="M27.5332 17.1628C27.5332 17.1628 27.5415 17.1504 27.5457 17.1421C27.5374 17.1463 27.5332 17.1545 27.5332 17.1628Z" fill="#ACDE45"/>
<path d="M19.7374 17.9795C19.7374 17.9795 19.7249 17.9919 19.7207 17.9961L19.7416 17.9795H19.7374Z" fill="#ACDE45"/>
<path d="M18.2622 17.0127C18.6205 17.3169 18.5414 17.7877 19.0539 17.8127C19.2455 17.9377 19.5122 17.9377 19.7372 17.9794C19.9747 17.6919 20.008 18.0877 20.2372 17.8586L20.2039 18.0669C20.2831 17.9877 20.358 17.9419 20.3539 18.0627L20.3289 18.1168C20.4455 18.0002 20.4789 18.1127 20.5372 18.0544L20.5122 18.1085H20.5955L20.5497 18.1877C20.7164 18.0794 20.8247 18.1127 20.8914 18.2168L20.9747 17.9836C21.0705 18.3211 21.333 17.8752 21.3914 18.2502L21.3664 18.3044C21.8289 17.7878 21.5664 18.8586 22.0247 18.3711C21.9664 18.4336 21.9914 18.496 21.9664 18.5502C22.0997 18.5252 22.2289 18.5377 22.3997 18.0836C22.4747 18.1169 22.4122 18.2502 22.3539 18.4293C22.4289 18.2293 22.5289 18.1711 22.5914 18.1836L22.533 18.2502H22.733L22.8372 17.8586C22.8914 18.0002 22.6914 18.3252 22.8164 18.2669L22.9289 17.9544C23.0331 18.0627 22.9372 18.5627 22.983 18.8418C23.4664 19.1627 24.2997 18.5543 24.608 19.2668L24.5539 19.5127C24.4497 19.8627 24.8539 19.0418 24.7705 19.371L24.8789 19.2294C24.8789 19.2961 24.8872 19.3752 24.833 19.4419C24.883 19.4711 24.8997 19.4169 24.9747 19.3211L24.9622 19.5544C25.1205 19.7878 25.4289 19.4293 25.6206 19.5793C25.7539 20.1043 26.3789 19.846 26.733 19.6877C27.2789 19.2793 27.3747 20.8085 27.9539 20.3127C27.9539 20.3668 28.0206 20.2627 28.0289 20.221L28.3997 20.3711C28.3997 20.3711 28.8581 20.5211 29.2247 20.2586C29.5956 19.9961 29.8539 19.3168 29.5331 17.6835L29.5622 17.6085C29.408 17.371 29.2956 17.3002 29.0581 17.6544C29.1581 17.1752 28.908 17.5627 28.8997 17.396L28.9122 17.3586C28.6956 17.6919 28.7414 16.9918 28.5372 17.2877C28.5497 17.2502 28.5872 17.1211 28.6164 17.1211C28.5164 17.1586 28.3706 17.2335 28.4372 16.9543C28.2164 16.971 27.9664 16.7668 27.7164 17.171L27.7455 17.096C27.5872 17.371 27.6372 17.1127 27.5122 17.2377C27.5164 17.2002 27.5164 17.1793 27.5205 17.1668C27.358 17.4377 27.2705 17.1461 27.1705 17.2502L27.2205 17.0668H27.0455L27.0956 17.1211C26.9289 17.6127 27.0664 16.7752 26.8539 17.0627C26.7664 16.9668 26.3247 18.0336 26.283 17.7544C26.158 17.9711 26.4456 17.3877 26.3081 17.5461C26.3831 17.2836 26.3955 17.396 26.4372 17.1793C26.3205 17.2793 26.3872 16.8752 26.2372 17.0211L26.2955 16.8169C26.0539 17.1502 26.1372 16.4752 25.9456 16.8002C25.7622 16.9252 26.0456 16.1752 25.7872 16.5252L25.8205 16.2377C25.7789 16.1752 25.6705 16.5586 25.6497 16.4044C25.708 16.2336 25.6122 16.2419 25.7039 16.0919C25.6455 15.7794 25.2872 16.3752 25.2455 15.8627C25.0955 16.1835 25.0622 15.9502 24.9497 16.1919C24.9914 16.0461 24.7664 16.1043 24.9789 15.8252C24.9955 15.8043 25.0122 15.8127 24.9914 15.8669L25.0705 15.6752C25.0872 15.2669 24.808 15.8127 24.7205 15.721C24.7289 15.796 24.7789 15.796 24.7039 15.921L24.6122 15.8585L24.6914 15.7003L24.5789 15.5544L24.5289 15.7669C24.4914 15.6377 24.5914 15.2794 24.408 15.5419C24.3122 15.6919 24.3789 15.8419 24.2789 15.8794C24.2331 15.7044 24.1622 15.446 24.0622 15.3419C23.9914 15.5752 23.9622 15.5544 23.9122 15.5877L23.9789 15.3878C23.7497 15.6169 24.0914 14.9335 23.883 15.1043L23.9455 14.9711L23.7581 15.3752C23.4956 15.7252 23.8497 14.9419 23.5205 15.4294C23.583 15.4127 23.383 15.8752 23.3497 15.7669L23.4372 15.5794C23.3872 15.6086 23.3456 15.6835 23.3372 15.6335C23.3956 15.5377 23.4539 15.3586 23.3872 15.3711L23.5122 15.1461L23.2831 15.4627C23.2831 15.2294 23.0705 15.4419 23.1455 15.1586C23.1455 15.1586 23.0372 14.9669 22.8872 15.2461C22.9914 15.0752 22.9289 14.971 23.0372 14.7668C22.9164 14.9585 22.7289 15.0794 22.7664 14.8419L22.7872 14.821C22.6997 14.5252 22.358 15.0043 22.308 14.6668C22.2247 14.896 22.1872 14.7377 22.0914 15.0377C21.8039 15.2586 22.033 14.3252 21.5997 15.196C21.5039 15.2127 21.5997 14.946 21.5789 14.8877L21.6164 14.8461C21.4456 14.8586 21.3997 14.8502 21.3039 14.7877C21.2164 14.8543 21.0289 15.2627 20.9747 15.121C21.0747 14.971 21.0247 14.9836 20.9914 14.9669C21.0247 14.9503 21.058 14.8919 21.058 14.7628C21.0289 14.8128 21.0039 14.8377 20.9872 14.8586C20.9914 14.8461 20.9955 14.8335 21.0039 14.8169C20.9205 14.8502 20.908 14.9044 20.9247 14.9377C20.9122 14.9627 20.8997 14.9961 20.8872 15.0461C20.9206 14.8086 20.7122 14.9835 20.8289 14.7002C20.6247 14.6877 20.3705 14.9253 20.1705 14.9669C20.2205 14.8169 20.3122 14.7043 20.3789 14.6668H20.2539C20.3497 14.4668 20.3664 14.5794 20.4164 14.5544C20.4456 14.1628 20.0122 14.771 20.0081 14.4002L19.9039 14.5503V14.5211C19.8664 14.6086 19.7831 14.7086 19.7456 14.7294C19.8081 14.5419 19.9414 14.3169 19.8664 14.2919C19.8914 14.0919 19.6664 14.3043 19.5455 14.3668C19.5705 14.4168 19.5122 14.5085 19.4622 14.5627C19.4247 14.5502 19.4872 14.3627 19.4247 14.4252L19.5372 14.1835C19.4414 14.4169 19.3289 14.3835 19.2664 14.4752C19.3331 14.2877 19.3955 14.3461 19.4705 14.2169C19.3164 14.1711 19.3955 14.1918 19.2414 14.146C19.0789 14.2918 19.1455 14.3793 19.0039 14.5752C18.9122 14.5918 18.7664 14.7252 18.7581 14.5419L18.6789 14.7668C18.4705 14.871 18.4039 14.8044 18.4289 14.5461C17.5205 15.1711 17.1581 15.7293 17.0372 16.1377C16.9164 16.546 17.0331 16.8044 17.0331 16.8044C17.1914 17.4752 17.708 16.9585 18.2539 17.0127H18.2622Z" fill="#ACDE45"/>
<path d="M40.0498 19.4834L40.0706 19.5834C40.0706 19.5376 40.0706 19.5001 40.0498 19.4834Z" fill="#ACDE45"/>
<path d="M48.2334 19.9212C48.2334 19.9212 48.2376 19.9087 48.2417 19.9004C48.2376 19.9087 48.2334 19.9171 48.2334 19.9212Z" fill="#ACDE45"/>
<path d="M41.0203 22.9209C41.0203 22.9209 41.012 22.9335 41.0078 22.946L41.0203 22.9209Z" fill="#ACDE45"/>
<path d="M39.3455 22.4919C39.7788 22.6585 39.8538 23.1253 40.333 22.9836C40.5497 23.0419 40.7955 22.9544 41.0164 22.921C41.1497 22.571 41.2997 22.9377 41.4455 22.6502L41.4747 22.8586C41.5247 22.7586 41.5789 22.6919 41.6122 22.8085L41.6039 22.8669C41.6789 22.7169 41.7414 22.8169 41.7789 22.7419L41.7705 22.8002L41.8497 22.7794L41.8289 22.8627C41.9497 22.7086 42.0622 22.7043 42.1538 22.7877L42.1622 22.5419C42.3539 22.8336 42.4664 22.3294 42.633 22.6669L42.6247 22.7252C42.908 22.0919 42.9747 23.1918 43.2622 22.5918C43.2247 22.6668 43.2664 22.7211 43.2622 22.7794C43.3789 22.7169 43.5039 22.6877 43.5372 22.2044C43.6205 22.2169 43.5955 22.3586 43.5955 22.5461C43.608 22.3336 43.683 22.2502 43.7497 22.2419L43.7163 22.3211L43.9039 22.2586L43.8914 21.8543C43.983 21.9752 43.8914 22.3461 43.9872 22.2544L44.0039 21.9211C44.1372 21.9961 44.1872 22.5002 44.3039 22.7544C44.8455 22.9252 45.4705 22.1044 45.958 22.7085L45.9705 22.9586C45.9705 23.3252 46.133 22.4252 46.1372 22.7627L46.2039 22.6002C46.2164 22.6669 46.2497 22.7377 46.2163 22.8169C46.2705 22.8335 46.2747 22.7753 46.3163 22.6628L46.3664 22.8918C46.5789 23.0752 46.7747 22.6461 46.9997 22.7377C47.258 23.2086 47.7872 22.7961 48.0872 22.5544C48.5122 22.0211 48.9747 23.4752 49.408 22.8586C49.4205 22.9086 49.458 22.7961 49.458 22.7544L49.8497 22.8085C49.8497 22.8085 50.3247 22.846 50.6164 22.5044C50.9122 22.1627 51.0164 21.4419 50.3122 19.9294L50.3206 19.8503C50.1122 19.6586 49.983 19.6127 49.8372 20.0127C49.8164 19.521 49.6664 19.9585 49.6164 19.8002V19.7586C49.4914 20.1336 49.3622 19.4418 49.2372 19.7793C49.2413 19.7418 49.2455 19.6044 49.2747 19.6002C49.183 19.6627 49.0622 19.7669 49.058 19.4835C48.8455 19.5544 48.5497 19.421 48.4038 19.871L48.4164 19.7919C48.333 20.096 48.3164 19.8335 48.2247 19.9877C48.2247 19.9502 48.2164 19.9294 48.2164 19.9169C48.1247 20.2169 47.9664 19.9585 47.8955 20.0877V19.9002L47.7247 19.9419L47.7872 19.9835C47.7539 20.5043 47.6664 19.6543 47.5372 19.9877C47.4247 19.9168 47.2747 21.0628 47.1622 20.8044C47.0997 21.0461 47.2247 20.4086 47.133 20.5961C47.1372 20.3253 47.1789 20.4252 47.1622 20.2085C47.0747 20.3335 47.033 19.9294 46.9247 20.1085V19.896C46.7789 20.2794 46.683 19.6085 46.583 19.9752C46.4372 20.146 46.5122 19.3461 46.3539 19.7544L46.308 19.4668C46.2497 19.4168 46.2497 19.8168 46.1872 19.6752C46.1997 19.496 46.1081 19.5293 46.1539 19.3585C46.0122 19.071 45.8247 19.746 45.6413 19.2627C45.583 19.6127 45.4872 19.4003 45.4455 19.6586C45.4455 19.5044 45.2414 19.6252 45.3705 19.3002C45.383 19.2752 45.3997 19.2794 45.3955 19.3378L45.4205 19.1294C45.3247 18.7336 45.1997 19.3335 45.0914 19.271C45.1205 19.3419 45.1664 19.3252 45.133 19.4668L45.0289 19.4336L45.058 19.2585L44.9039 19.1502L44.9163 19.3669C44.8455 19.2502 44.8372 18.8835 44.733 19.1835C44.683 19.3544 44.7913 19.4794 44.708 19.5419C44.6122 19.3878 44.4705 19.1586 44.3413 19.0877C44.3413 19.3336 44.3039 19.321 44.2664 19.3669L44.2747 19.1543C44.1164 19.4418 44.2497 18.6878 44.0997 18.9128L44.1205 18.7669L44.058 19.2086C43.908 19.6211 44.0164 18.7669 43.8414 19.3294C43.8997 19.2961 43.8414 19.796 43.7789 19.7002L43.808 19.496C43.7664 19.5377 43.7497 19.621 43.7289 19.5794C43.758 19.471 43.758 19.2836 43.6997 19.3127L43.7539 19.0585L43.6247 19.4252C43.558 19.2002 43.4122 19.4669 43.3997 19.1794C43.3997 19.1794 43.2372 19.0253 43.1747 19.3378C43.2205 19.1461 43.133 19.0627 43.1747 18.8335C43.1164 19.0502 42.9705 19.2252 42.933 18.9836L42.9455 18.9585C42.7664 18.7044 42.5872 19.2627 42.433 18.9585C42.4247 19.2044 42.3414 19.0627 42.3414 19.3794C42.133 19.6752 42.058 18.7169 41.9164 19.6794C41.8289 19.7252 41.8372 19.446 41.7955 19.3919L41.8205 19.3419C41.658 19.4086 41.6122 19.4127 41.4997 19.3835C41.433 19.471 41.3872 19.921 41.2914 19.8044C41.3414 19.6294 41.2914 19.6586 41.2581 19.6544C41.2872 19.6294 41.2997 19.5628 41.2581 19.4378C41.2456 19.4919 41.233 19.5253 41.2205 19.5544C41.2205 19.5419 41.2205 19.5294 41.2205 19.5086C41.1497 19.5669 41.158 19.6211 41.183 19.6503C41.183 19.6794 41.1789 19.7128 41.183 19.7628C41.1372 19.5253 40.9955 19.7627 41.0122 19.4543C40.8122 19.5085 40.6455 19.8127 40.4705 19.9169C40.4705 19.7585 40.5164 19.621 40.5705 19.5627L40.4497 19.6086C40.4705 19.3836 40.5289 19.4836 40.5664 19.4419C40.4664 19.0628 40.2497 19.7794 40.1247 19.4294L40.0747 19.6044L40.0663 19.5752C40.058 19.671 40.008 19.7961 39.983 19.8252C39.983 19.6252 40.0289 19.371 39.9497 19.3752C39.908 19.1794 39.7622 19.4544 39.6705 19.5503C39.7122 19.5878 39.6872 19.6961 39.658 19.7628C39.6163 19.7628 39.6164 19.5669 39.5747 19.6461L39.5997 19.3794C39.5872 19.6335 39.4663 19.6378 39.4413 19.7461C39.4413 19.5461 39.5205 19.5836 39.5455 19.4336C39.383 19.4419 39.4664 19.4336 39.3039 19.4461C39.1955 19.6378 39.2914 19.7002 39.2247 19.9294C39.1455 19.9752 39.0497 20.1502 38.983 19.9835V20.221C38.8205 20.3877 38.7413 20.3502 38.6705 20.1002C38.033 21.0002 37.8914 21.6502 37.9205 22.0794C37.9497 22.5044 38.1413 22.7044 38.1413 22.7044C38.508 23.2752 38.8081 22.6127 39.3331 22.4793L39.3455 22.4919Z" fill="#ACDE45"/>
<path d="M61.0869 19.6045L61.1244 19.7003C61.1244 19.6545 61.1119 19.617 61.0869 19.6045Z" fill="#ACDE45"/>
<path d="M69.291 18.8293C69.291 18.8293 69.291 18.8169 69.2952 18.8086C69.291 18.8169 69.291 18.8252 69.291 18.8293Z" fill="#ACDE45"/>
<path d="M62.6001 22.8379C62.6001 22.8379 62.6001 22.8546 62.5918 22.8629L62.6001 22.8379Z" fill="#ACDE45"/>
<path d="M60.8955 22.6919C61.3455 22.7835 61.4955 23.2335 61.9413 23.0127C62.1621 23.0335 62.3872 22.9086 62.5997 22.8377C62.6747 22.4711 62.8788 22.8127 62.9747 22.5002L63.0371 22.7002C63.0705 22.596 63.1121 22.5211 63.1621 22.6294V22.6877C63.2121 22.5294 63.2913 22.6169 63.3163 22.5378V22.596L63.3913 22.5628V22.6503C63.4788 22.4794 63.5913 22.4586 63.6913 22.5252L63.6621 22.2794C63.8955 22.5377 63.9288 22.0211 64.1413 22.3294V22.3877C64.3246 21.721 64.558 22.7961 64.7497 22.1586C64.7247 22.2378 64.7746 22.2836 64.7746 22.3419C64.883 22.2628 64.9997 22.2128 64.958 21.7295C65.0413 21.7295 65.0371 21.8752 65.0663 22.0585C65.0455 21.846 65.1121 21.7545 65.1746 21.7336L65.1538 21.8169L65.333 21.7295L65.2622 21.3335C65.3705 21.4377 65.3288 21.8169 65.4163 21.7128L65.3871 21.3836C65.5288 21.4378 65.6538 21.9294 65.8038 22.1627C66.3621 22.2544 66.8621 21.3544 67.4205 21.8877L67.4663 22.1336C67.5121 22.4961 67.5497 21.5836 67.6038 21.9169L67.6455 21.746C67.6705 21.8085 67.7121 21.8752 67.6913 21.9585C67.7455 21.9669 67.7413 21.9086 67.7705 21.7919L67.8496 22.0128C68.083 22.1669 68.2205 21.7127 68.4538 21.7752C68.7746 22.2086 69.2371 21.7294 69.5038 21.4502C69.8538 20.8627 70.4955 22.2544 70.8455 21.5836C70.8663 21.6336 70.8872 21.5127 70.883 21.4711L71.2746 21.4794C71.2746 21.4794 73.1538 21.3961 71.383 18.5627V18.4836C71.1538 18.3169 71.0163 18.2878 70.9205 18.7044C70.8413 18.2211 70.7413 18.6752 70.6747 18.521V18.4794C70.5913 18.8669 70.3788 18.2002 70.2913 18.5461C70.2913 18.5086 70.2788 18.3711 70.308 18.3628C70.2247 18.4336 70.1163 18.5544 70.0788 18.2753C69.8746 18.3753 69.5622 18.2752 69.4747 18.7419V18.6627C69.433 18.9752 69.3788 18.7211 69.308 18.8836C69.2996 18.8461 69.2913 18.8295 69.2913 18.8128C69.2413 19.1253 69.0496 18.8878 68.9955 19.0253L68.9705 18.8377L68.808 18.9003L68.8746 18.9335C68.908 19.4544 68.7121 18.6211 68.6246 18.9711C68.5038 18.9169 68.508 20.0711 68.358 19.8294C68.3246 20.0794 68.3663 19.4294 68.2996 19.6253C68.2705 19.3544 68.3205 19.4503 68.2788 19.2378C68.208 19.3753 68.1122 18.9752 68.0288 19.1711L68.0038 18.9627C67.908 19.3627 67.7205 18.7127 67.6705 19.0877C67.5496 19.2752 67.5121 18.4711 67.4121 18.9003L67.3288 18.621C67.2621 18.5794 67.3205 18.9752 67.2372 18.8419C67.2247 18.6627 67.1371 18.7085 67.158 18.5335C66.9746 18.2669 66.883 18.9628 66.633 18.5086C66.6246 18.8628 66.4996 18.6628 66.4913 18.9295C66.4705 18.7795 66.283 18.9253 66.3663 18.5836C66.3747 18.5544 66.3913 18.5586 66.3955 18.617L66.3871 18.4086C66.233 18.0295 66.1955 18.6419 66.0746 18.5961C66.1163 18.6628 66.158 18.6378 66.1413 18.7836L66.033 18.7669V18.5919L65.8705 18.5045L65.9121 18.717C65.8246 18.6128 65.7621 18.2502 65.7038 18.5627C65.6788 18.7377 65.8038 18.8461 65.7288 18.9211C65.6122 18.7836 65.433 18.5752 65.2955 18.5252C65.3288 18.7669 65.2955 18.7628 65.2622 18.8128L65.2371 18.6003C65.1246 18.9044 65.1413 18.1419 65.0246 18.3878V18.2377V18.6836C64.9371 19.1128 64.9163 18.2502 64.8288 18.8377C64.883 18.796 64.8955 19.3003 64.8205 19.2128V19.0086C64.7871 19.0544 64.7788 19.1419 64.7497 19.1003C64.7622 18.9878 64.7372 18.8044 64.683 18.8419L64.6997 18.5836L64.6288 18.9669C64.5288 18.7544 64.4247 19.0419 64.3663 18.7586C64.3663 18.7586 64.1788 18.6335 64.1663 18.9502C64.183 18.7502 64.083 18.6877 64.0913 18.4544C64.0663 18.6794 63.9455 18.8711 63.8746 18.6419L63.883 18.6128C63.6663 18.3878 63.5746 18.9711 63.3705 18.6919C63.3996 18.9378 63.2955 18.8086 63.3413 19.1211C63.183 19.4461 62.9538 18.5127 62.9663 19.4836C62.8872 19.5419 62.8497 19.2628 62.8038 19.2169L62.8205 19.1627C62.6705 19.2544 62.6247 19.2669 62.508 19.2544C62.458 19.3544 62.483 19.8044 62.3705 19.7044C62.3913 19.5211 62.3496 19.5585 62.3121 19.5627C62.333 19.5335 62.3371 19.4669 62.2788 19.3502C62.2788 19.4044 62.2663 19.4419 62.258 19.471C62.258 19.4585 62.2538 19.4461 62.2538 19.4253C62.1955 19.4919 62.208 19.546 62.2413 19.571C62.2413 19.6002 62.2455 19.6336 62.2621 19.6836C62.1788 19.4586 62.0746 19.7128 62.0455 19.4086C61.8538 19.4961 61.7371 19.8211 61.583 19.9544C61.5538 19.7961 61.583 19.6544 61.6247 19.5919L61.5122 19.6586C61.4955 19.4295 61.5705 19.5211 61.5996 19.4752C61.4371 19.1169 61.3413 19.8628 61.158 19.5378L61.1372 19.7211L61.1246 19.6919C61.133 19.7877 61.1038 19.9169 61.083 19.9503C61.0455 19.7544 61.0538 19.4919 60.9746 19.5128C60.8996 19.3253 60.8038 19.6211 60.7247 19.7336C60.7705 19.7628 60.7663 19.8753 60.7496 19.9461C60.7121 19.9544 60.6746 19.7586 60.6496 19.8461L60.6288 19.5794C60.6622 19.8294 60.5413 19.8586 60.533 19.967C60.4955 19.7711 60.583 19.7919 60.583 19.6419C60.4247 19.6753 60.5038 19.6586 60.3455 19.6961C60.2746 19.9044 60.3788 19.946 60.3496 20.1835C60.2788 20.2419 60.2163 20.4336 60.1163 20.2753L60.158 20.5085C60.0288 20.7002 59.9413 20.6794 59.8288 20.4461C58.883 22.4461 59.7663 23.1002 59.7663 23.1002C60.2205 23.6002 60.3997 22.8961 60.8913 22.6753L60.8955 22.6919Z" fill="#ACDE45"/>
<path d="M82.1045 17.1504L82.1503 17.242C82.142 17.1962 82.1295 17.1587 82.1045 17.1504Z" fill="#ACDE45"/>
<path d="M90.292 15.8458C90.292 15.8458 90.292 15.8333 90.2962 15.8208C90.292 15.8291 90.292 15.8375 90.292 15.8458Z" fill="#ACDE45"/>
<path d="M83.8626 20.2498C83.8626 20.2498 83.8626 20.2665 83.8584 20.2748L83.8667 20.2498H83.8626Z" fill="#ACDE45"/>
<path d="M82.1668 20.2415C82.6209 20.2915 82.8043 20.7332 83.2251 20.4749C83.4459 20.4749 83.6585 20.3374 83.8626 20.2499C83.9085 19.8791 84.1376 20.204 84.2084 19.8873L84.2835 20.0832C84.3085 19.9748 84.3459 19.8998 84.4043 19.9998L84.4126 20.0582C84.4501 19.8957 84.5334 19.9748 84.5501 19.8957L84.5584 19.9541L84.6293 19.9165V20.004C84.7084 19.8249 84.8168 19.7999 84.9251 19.8582L84.8793 19.6165C85.1293 19.8582 85.1251 19.3416 85.3584 19.6332L85.3668 19.6915C85.5001 19.0124 85.8084 20.0707 85.9542 19.4249C85.9376 19.5041 85.9876 19.5499 85.9918 19.6082C86.0918 19.5207 86.2043 19.4665 86.1334 18.9874C86.2168 18.9832 86.2251 19.1291 86.2626 19.3124C86.2293 19.1041 86.2876 19.004 86.3459 18.9832L86.3293 19.0707L86.5001 18.9707L86.4001 18.5791C86.5126 18.6791 86.5001 19.0582 86.5792 18.9498L86.5251 18.6207C86.6667 18.6665 86.8251 19.1498 86.9918 19.3707C87.5501 19.429 87.9876 18.5041 88.5751 19.0041L88.6376 19.2457C88.7043 19.604 88.6918 18.6916 88.7626 19.0207L88.7959 18.8457C88.8209 18.9082 88.8668 18.9707 88.8501 19.0582C88.9043 19.0623 88.8959 19.0041 88.9209 18.8916L89.0126 19.1082C89.2501 19.2499 89.3626 18.7873 89.596 18.8415C89.9335 19.2582 90.3668 18.7582 90.6209 18.4707C90.9459 17.8707 91.6376 19.2332 91.9584 18.5499C91.9793 18.5999 91.996 18.479 91.9918 18.4373L92.3793 18.429C92.3793 18.429 94.2459 18.2832 92.3918 15.5123V15.4332C92.1501 15.2749 92.0126 15.2541 91.9293 15.6707C91.8334 15.1916 91.7501 15.6457 91.6793 15.4998V15.4582C91.6085 15.8499 91.3668 15.1874 91.2959 15.5415C91.2959 15.504 91.2793 15.3707 91.3043 15.3582C91.2251 15.4332 91.1168 15.5582 91.0668 15.2791C90.8626 15.3874 90.546 15.2999 90.4793 15.7749V15.6957C90.446 16.0124 90.3835 15.7582 90.321 15.9248C90.3085 15.8873 90.3001 15.8707 90.3001 15.854C90.2626 16.1665 90.0585 15.9374 90.0085 16.0791L89.9751 15.8916L89.8126 15.9624L89.8834 15.9916C89.9418 16.5082 89.7043 15.6873 89.6334 16.0415C89.5084 15.9957 89.5668 17.1457 89.4084 16.9124C89.3876 17.1624 89.3959 16.5124 89.3417 16.7124C89.2959 16.4457 89.3543 16.5373 89.3001 16.329C89.2376 16.4707 89.1209 16.0749 89.0459 16.2749L89.0084 16.0665C88.9334 16.4707 88.7126 15.8291 88.6793 16.2082C88.5668 16.4041 88.4876 15.604 88.4084 16.0332L88.3084 15.7582C88.2376 15.7207 88.3168 16.1124 88.2293 15.9832C88.2043 15.8041 88.121 15.8541 88.1335 15.6791C87.9335 15.4249 87.8793 16.1249 87.6043 15.6832C87.6126 16.0374 87.4793 15.8457 87.4876 16.1124C87.4584 15.9624 87.2793 16.1207 87.3418 15.7749C87.3459 15.7457 87.3668 15.7498 87.3751 15.8082L87.3584 15.5998C87.1792 15.229 87.1792 15.8458 87.0542 15.8041C87.1001 15.8666 87.1418 15.8416 87.1334 15.9874L87.0209 15.9749V15.7999L86.8417 15.7248L86.8959 15.9373C86.8001 15.8415 86.7168 15.4791 86.6751 15.7957C86.6626 15.9707 86.7959 16.0707 86.7251 16.154C86.5959 16.0249 86.4084 15.8291 86.2667 15.7832C86.3167 16.0207 86.2793 16.0207 86.2501 16.0749L86.2126 15.8665C86.1167 16.179 86.0876 15.4124 85.9834 15.6666L85.9709 15.5207L86.0042 15.9624C85.9459 16.3957 85.8668 15.5373 85.8168 16.1248C85.8668 16.079 85.9168 16.5832 85.8334 16.4999L85.8168 16.2957C85.7876 16.3457 85.7876 16.4291 85.7543 16.3916C85.7584 16.2791 85.7209 16.0957 85.6709 16.1373V15.8791L85.6209 16.2665C85.5043 16.0624 85.4209 16.354 85.3418 16.0749C85.3418 16.0749 85.1459 15.9624 85.1543 16.279C85.1584 16.079 85.0501 16.0207 85.0418 15.7874C85.0293 16.0124 84.9251 16.2124 84.8376 15.9874V15.9582C84.6084 15.7499 84.5584 16.3374 84.3376 16.0749C84.3834 16.3165 84.2709 16.1999 84.3376 16.5041C84.2001 16.8374 83.9043 15.9249 83.9876 16.8957C83.9126 16.9624 83.8543 16.6873 83.8043 16.6415L83.8167 16.5874C83.6709 16.6915 83.6292 16.7082 83.5084 16.6999C83.4667 16.804 83.5251 17.2499 83.4042 17.1583C83.4126 16.9749 83.3751 17.0166 83.3334 17.0207C83.3543 16.9874 83.3501 16.9249 83.2834 16.8124C83.2834 16.8666 83.2793 16.9041 83.2709 16.9332C83.2709 16.9207 83.2668 16.9082 83.2626 16.8915C83.2084 16.9624 83.2251 17.0166 83.2626 17.0374C83.2626 17.0666 83.2751 17.0999 83.2918 17.1457C83.1876 16.9291 83.1084 17.1915 83.0501 16.8874C82.8668 16.9874 82.7751 17.3249 82.6293 17.4666C82.5876 17.3124 82.6043 17.1665 82.6418 17.0999L82.5376 17.1748C82.5043 16.9498 82.5835 17.0332 82.6126 16.9832C82.421 16.6415 82.3876 17.3915 82.1751 17.079L82.1668 17.2624L82.1542 17.2332C82.1709 17.3291 82.1543 17.4623 82.1334 17.4957C82.0793 17.304 82.0668 17.0415 81.9876 17.0665C81.896 16.8873 81.8251 17.1874 81.7584 17.3082C81.8084 17.3332 81.8084 17.4457 81.8001 17.5165C81.7626 17.529 81.7084 17.3374 81.6918 17.4249L81.6501 17.1583C81.7043 17.4041 81.5876 17.4457 81.5876 17.5541C81.5334 17.3624 81.6251 17.3749 81.6126 17.2249C81.4584 17.2749 81.5334 17.2499 81.3793 17.2999C81.3251 17.5124 81.4334 17.5498 81.4251 17.7873C81.3584 17.8498 81.3126 18.0457 81.2001 17.8998L81.2626 18.129C81.1501 18.3332 81.0584 18.3208 80.9293 18.0958C80.1626 20.1749 81.0959 20.7499 81.0959 20.7499C81.5876 21.204 81.7001 20.4874 82.1668 20.229V20.2415Z" fill="#ACDE45"/>
<path d="M103.162 14.0414L103.208 14.1373C103.2 14.0915 103.187 14.0539 103.162 14.0414Z" fill="#ACDE45"/>
<path d="M111.408 12.983C111.408 12.983 111.408 12.9705 111.412 12.958C111.408 12.9663 111.408 12.9747 111.408 12.983Z" fill="#ACDE45"/>
<path d="M104.858 17.1914C104.858 17.1914 104.858 17.2081 104.854 17.2164L104.862 17.1914H104.858Z" fill="#ACDE45"/>
<path d="M103.171 17.1293C103.621 17.1959 103.796 17.6375 104.221 17.3959C104.441 17.4084 104.654 17.2709 104.858 17.1917C104.912 16.8209 105.133 17.1543 105.212 16.8376L105.283 17.0334C105.312 16.9251 105.35 16.85 105.404 16.9542V17.0126C105.45 16.8501 105.529 16.9334 105.55 16.8542V16.9126L105.625 16.8792V16.9667C105.708 16.7917 105.816 16.7668 105.921 16.8293L105.883 16.5834C106.125 16.8334 106.133 16.3168 106.362 16.6168V16.675C106.521 16 106.791 17.0709 106.958 16.4251C106.937 16.5043 106.987 16.5501 106.991 16.6084C107.096 16.5251 107.208 16.4751 107.15 15.9918C107.233 15.9918 107.233 16.1334 107.266 16.3168C107.241 16.1043 107.3 16.0084 107.362 15.9876L107.341 16.0709L107.512 15.9751L107.429 15.5834C107.541 15.6876 107.512 16.0667 107.596 15.9584L107.554 15.6292C107.696 15.6792 107.833 16.1667 107.996 16.3959C108.546 16.4709 109.021 15.5584 109.587 16.0751L109.637 16.3209C109.691 16.6834 109.708 15.7668 109.771 16.1001L109.808 15.9292C109.833 15.9917 109.875 16.0584 109.854 16.1417C109.908 16.15 109.904 16.0917 109.929 15.9751L110.012 16.1918C110.246 16.3418 110.371 15.8834 110.604 15.9459C110.925 16.3709 111.379 15.8875 111.637 15.6042C111.983 15.0125 112.621 16.3959 112.966 15.725C112.987 15.775 113.008 15.6542 113.004 15.6125H113.391C113.391 15.6125 115.258 15.525 113.516 12.6959V12.6167C113.287 12.4501 113.15 12.4251 113.05 12.8417C112.971 12.3584 112.871 12.8126 112.804 12.6626V12.6209C112.721 13.0126 112.504 12.3417 112.421 12.6917C112.421 12.6542 112.408 12.5167 112.437 12.5084C112.354 12.5792 112.246 12.7042 112.204 12.4209C111.996 12.5209 111.683 12.4292 111.596 12.8959V12.8167C111.554 13.1334 111.5 12.8751 111.429 13.0417C111.421 13.0042 111.412 12.9876 111.412 12.9709C111.362 13.2834 111.166 13.0501 111.116 13.1876L111.091 13L110.925 13.0668L110.991 13.1C111.029 13.6208 110.825 12.7917 110.741 13.1417C110.616 13.0917 110.633 14.2459 110.483 14.0084C110.454 14.2584 110.483 13.6084 110.425 13.8043C110.391 13.5334 110.446 13.6292 110.396 13.4167C110.329 13.5542 110.225 13.1584 110.146 13.3542L110.116 13.1459C110.029 13.5459 109.829 12.9001 109.783 13.2793C109.666 13.4709 109.616 12.6668 109.521 13.0959L109.429 12.8167C109.362 12.7792 109.429 13.1709 109.341 13.0417C109.325 12.8626 109.237 12.9084 109.258 12.7334C109.066 12.4709 108.991 13.1709 108.729 12.7209C108.729 13.0751 108.6 12.8792 108.596 13.1459C108.571 12.9959 108.387 13.1459 108.462 12.8042C108.471 12.775 108.487 12.7792 108.491 12.8376L108.479 12.6292C108.312 12.2542 108.291 12.8709 108.171 12.8251C108.212 12.8876 108.258 12.8667 108.246 13.0125L108.133 12.9958V12.8209L107.962 12.7376L108.012 12.9501C107.921 12.8501 107.846 12.4875 107.796 12.8042C107.775 12.9792 107.904 13.0834 107.833 13.1626C107.712 13.0292 107.525 12.8293 107.383 12.7793C107.425 13.0209 107.387 13.0168 107.358 13.0709L107.329 12.8626C107.225 13.1709 107.221 12.4084 107.108 12.6584V12.5084L107.121 12.9542C107.046 13.3876 106.996 12.525 106.929 13.1125C106.979 13.0709 107.012 13.5709 106.929 13.4918L106.921 13.2876C106.887 13.3334 106.887 13.4209 106.854 13.3834C106.862 13.2709 106.829 13.0875 106.779 13.1292V12.8709L106.725 13.2584C106.616 13.0501 106.521 13.3417 106.45 13.0584C106.45 13.0584 106.258 12.9417 106.254 13.2584C106.266 13.0584 106.158 12.9959 106.158 12.7668C106.141 12.9918 106.029 13.1876 105.946 12.9626L105.954 12.9334C105.725 12.7167 105.654 13.3042 105.437 13.0334C105.475 13.2751 105.366 13.1542 105.429 13.4626C105.283 13.7917 105.012 12.8709 105.066 13.8417C104.987 13.9042 104.937 13.6292 104.887 13.5834L104.9 13.5292C104.754 13.6292 104.708 13.6417 104.587 13.6334C104.541 13.7334 104.587 14.1834 104.471 14.0876C104.483 13.9042 104.441 13.9417 104.404 13.95C104.425 13.9209 104.425 13.8542 104.358 13.7417C104.358 13.7959 104.35 13.8334 104.346 13.8625C104.346 13.85 104.341 13.8376 104.337 13.8209C104.279 13.8918 104.3 13.9459 104.333 13.9667C104.333 13.9959 104.341 14.0292 104.358 14.0751C104.262 13.8542 104.171 14.1126 104.125 13.8084C103.937 13.9043 103.837 14.2375 103.691 14.375C103.654 14.2209 103.671 14.0751 103.712 14.0084L103.604 14.0792C103.575 13.8542 103.654 13.9417 103.683 13.8917C103.496 13.5417 103.446 14.2917 103.241 13.9751L103.233 14.1584L103.221 14.1293C103.233 14.2251 103.216 14.3584 103.196 14.3917C103.146 14.1959 103.137 13.9375 103.058 13.9584C102.971 13.775 102.891 14.0751 102.821 14.1917C102.871 14.2209 102.871 14.3292 102.858 14.4042C102.821 14.4167 102.771 14.2209 102.75 14.3126L102.712 14.0459C102.762 14.2959 102.646 14.3293 102.641 14.4376C102.591 14.2418 102.679 14.2584 102.671 14.1126C102.512 14.1584 102.591 14.1334 102.433 14.1792C102.375 14.3917 102.483 14.4292 102.471 14.6667C102.404 14.7292 102.354 14.9209 102.246 14.775L102.304 15.0084C102.187 15.2084 102.1 15.1918 101.971 14.9668C101.175 17.0168 102.104 17.6167 102.104 17.6167C102.587 18.0876 102.708 17.3751 103.179 17.1293H103.171Z" fill="#ACDE45"/>
<path d="M124.358 11.7128L124.4 11.8087C124.396 11.7628 124.383 11.7253 124.358 11.7128Z" fill="#ACDE45"/>
<path d="M132.663 11.0917C132.663 11.0917 132.663 11.0791 132.671 11.0708C132.667 11.0791 132.663 11.0875 132.663 11.0917Z" fill="#ACDE45"/>
<path d="M125.9 14.9463C125.9 14.9463 125.9 14.963 125.892 14.9713L125.9 14.9463Z" fill="#ACDE45"/>
<path d="M124.221 14.7959C124.667 14.8834 124.821 15.3376 125.254 15.1168C125.471 15.1376 125.692 15.0168 125.9 14.946C125.971 14.5793 126.175 14.9209 126.271 14.6126L126.333 14.8126C126.367 14.7084 126.408 14.6335 126.458 14.7418V14.8001C126.508 14.6418 126.583 14.7293 126.608 14.6501V14.7084L126.683 14.6751V14.7585C126.771 14.5877 126.879 14.571 126.979 14.6376L126.954 14.3918C127.179 14.6543 127.217 14.1377 127.429 14.4502V14.5084C127.617 13.8418 127.833 14.9251 128.033 14.2918C128.008 14.3709 128.054 14.4167 128.058 14.4792C128.167 14.4001 128.279 14.3543 128.25 13.8709C128.333 13.8709 128.329 14.0168 128.35 14.2043C128.333 13.9918 128.4 13.9001 128.463 13.8834L128.438 13.9668L128.612 13.8834L128.55 13.4876C128.654 13.596 128.608 13.9751 128.696 13.8709L128.671 13.5376C128.808 13.5917 128.921 14.0918 129.067 14.3251C129.613 14.4293 130.133 13.5418 130.671 14.0918L130.708 14.3376C130.742 14.7001 130.812 13.7876 130.85 14.1251L130.896 13.9542C130.917 14.0167 130.954 14.0834 130.933 14.1709C130.988 14.1793 130.983 14.121 131.017 14.0085L131.088 14.2293C131.308 14.3918 131.463 13.9418 131.692 14.0126C131.988 14.4543 132.467 13.9959 132.742 13.7292C133.121 13.1542 133.675 14.571 134.058 13.921C134.075 13.971 134.104 13.8543 134.1 13.8126L134.483 13.8376C134.483 13.8376 136.35 13.8459 134.783 10.9292V10.8501C134.567 10.6709 134.433 10.6376 134.308 11.0501C134.258 10.5626 134.133 11.0126 134.075 10.8584V10.8167C133.967 11.2042 133.796 10.5209 133.688 10.8668C133.688 10.8293 133.687 10.6918 133.712 10.6835C133.625 10.7501 133.508 10.871 133.483 10.5835C133.271 10.6751 132.963 10.5626 132.85 11.0251V10.9459C132.792 11.2584 132.754 11.0001 132.675 11.1626C132.667 11.1251 132.663 11.1085 132.663 11.0918C132.596 11.4001 132.413 11.1585 132.354 11.2918L132.338 11.1043L132.171 11.1584L132.238 11.196C132.246 11.7168 132.088 10.8792 131.983 11.2251C131.863 11.1667 131.813 12.3209 131.679 12.0751C131.638 12.3209 131.704 11.6751 131.633 11.8709C131.612 11.6001 131.662 11.7001 131.629 11.4834C131.554 11.6168 131.475 11.2168 131.379 11.4085L131.363 11.196C131.25 11.5918 131.088 10.9376 131.021 11.3126C130.892 11.496 130.888 10.6918 130.767 11.1168L130.692 10.8334C130.625 10.7917 130.671 11.1876 130.592 11.0543C130.583 10.8751 130.496 10.9168 130.525 10.7418C130.35 10.4709 130.233 11.1626 129.996 10.7042C129.975 11.0584 129.854 10.8584 129.842 11.1209C129.825 10.9709 129.633 11.1126 129.725 10.771C129.733 10.7418 129.75 10.7459 129.754 10.8084V10.6001C129.608 10.2167 129.554 10.8293 129.433 10.7793C129.471 10.846 129.517 10.8251 129.496 10.9709L129.388 10.9501L129.4 10.7751L129.233 10.6835L129.271 10.9001C129.183 10.796 129.129 10.4293 129.063 10.7418C129.033 10.9168 129.158 11.0293 129.079 11.1001C128.962 10.9585 128.792 10.7502 128.65 10.696C128.679 10.9377 128.642 10.9335 128.608 10.9835L128.588 10.771C128.467 11.0751 128.504 10.3084 128.375 10.5543V10.4042V10.8501C128.275 11.2793 128.275 10.4168 128.175 11.0001C128.229 10.9585 128.233 11.4626 128.158 11.3751V11.1709C128.125 11.2168 128.121 11.3043 128.092 11.2626C128.108 11.1501 128.083 10.9668 128.029 11.0043L128.05 10.7459L127.971 11.1292C127.871 10.9167 127.763 11.2001 127.708 10.9167C127.708 10.9167 127.521 10.7876 127.504 11.1043C127.525 10.9043 127.421 10.8376 127.433 10.6084C127.404 10.8334 127.283 11.0251 127.208 10.7918L127.217 10.7626C126.996 10.5376 126.9 11.1168 126.696 10.8376C126.721 11.0834 126.617 10.9543 126.667 11.2668C126.504 11.5876 126.279 10.6543 126.288 11.6251C126.208 11.6835 126.171 11.4043 126.121 11.3584L126.138 11.3043C125.983 11.396 125.942 11.4085 125.821 11.3918C125.771 11.4918 125.796 11.9418 125.683 11.8376C125.704 11.6585 125.663 11.6918 125.625 11.6959C125.646 11.6668 125.65 11.6001 125.587 11.4834C125.587 11.5376 125.575 11.5751 125.567 11.6043C125.567 11.5918 125.563 11.5792 125.563 11.5584C125.5 11.6251 125.517 11.6793 125.55 11.7043C125.55 11.7335 125.554 11.7668 125.571 11.8168C125.483 11.5918 125.383 11.8459 125.35 11.5376C125.158 11.6209 125.042 11.9501 124.888 12.0792C124.854 11.9209 124.883 11.7793 124.925 11.7168L124.813 11.7834C124.796 11.5543 124.871 11.6501 124.9 11.6001C124.729 11.2418 124.646 11.9876 124.454 11.6626L124.438 11.846L124.425 11.8168C124.433 11.9126 124.408 12.0417 124.388 12.0751C124.346 11.8792 124.35 11.6168 124.271 11.6377C124.192 11.4502 124.096 11.7459 124.025 11.8584C124.071 11.8876 124.067 12.0001 124.054 12.0709C124.013 12.0792 123.975 11.8834 123.95 11.9709L123.925 11.7043C123.962 11.9543 123.842 11.9834 123.838 12.0918C123.796 11.8959 123.888 11.9167 123.883 11.7667C123.725 11.8042 123.804 11.7835 123.646 11.821C123.575 12.0293 123.683 12.0709 123.662 12.3084C123.592 12.3668 123.533 12.5584 123.433 12.4043L123.483 12.6376C123.358 12.8334 123.271 12.8085 123.15 12.5752C122.258 14.5793 123.158 15.2293 123.158 15.2293C123.621 15.7251 123.771 15.0209 124.254 14.8001L124.221 14.7959Z" fill="#ACDE45"/>
<path d="M145.691 10.6585L145.725 10.7585C145.725 10.7126 145.716 10.6751 145.691 10.6585Z" fill="#ACDE45"/>
<path d="M154.05 10.8045C154.05 10.8045 154.054 10.792 154.058 10.7837C154.054 10.792 154.05 10.7962 154.05 10.8045Z" fill="#ACDE45"/>
<path d="M146.962 13.9963C146.962 13.9963 146.958 14.013 146.954 14.0213L146.962 13.9963Z" fill="#ACDE45"/>
<path d="M145.308 13.7253C145.741 13.8419 145.858 14.3045 146.308 14.117C146.521 14.1545 146.75 14.0503 146.962 13.9962C147.062 13.6378 147.237 13.9962 147.358 13.692L147.404 13.8962C147.446 13.792 147.491 13.7253 147.533 13.8336V13.892C147.591 13.7378 147.658 13.8295 147.691 13.7545V13.8128L147.762 13.7878L147.75 13.8711C147.858 13.7086 147.966 13.7003 148.062 13.7753V13.5294C148.258 13.8086 148.341 13.2961 148.521 13.6253V13.6837C148.762 13.0378 148.879 14.1294 149.133 13.5169C149.1 13.5919 149.146 13.6462 149.141 13.7045C149.254 13.6378 149.375 13.6003 149.383 13.1169C149.462 13.1253 149.446 13.2711 149.454 13.4586C149.454 13.2461 149.529 13.1586 149.591 13.1461L149.562 13.2295L149.746 13.1587L149.716 12.7587C149.812 12.8753 149.729 13.2461 149.825 13.1545V12.8211C149.962 12.8878 150.029 13.3961 150.154 13.6419C150.683 13.7961 151.283 12.967 151.762 13.567L151.775 13.817C151.775 14.1837 151.929 13.2836 151.937 13.6211L152 13.4586C152.012 13.5253 152.046 13.5961 152.012 13.6753C152.066 13.692 152.071 13.6336 152.112 13.5211L152.162 13.7503C152.366 13.9336 152.562 13.5045 152.779 13.6003C153.025 14.0753 153.546 13.6711 153.846 13.4378C154.283 12.9128 154.675 14.3878 155.125 13.792C155.137 13.8462 155.179 13.7295 155.179 13.6878L155.554 13.7628C155.554 13.7628 156.012 13.8253 156.321 13.5045C156.629 13.1795 156.8 12.4711 156.187 10.9169L156.204 10.8378C156.004 10.6295 155.871 10.5795 155.7 10.9712C155.708 10.4795 155.529 10.9086 155.487 10.7503L155.496 10.7086C155.341 11.0753 155.246 10.3794 155.1 10.7086C155.108 10.6711 155.116 10.5378 155.146 10.5295C155.05 10.5878 154.921 10.6878 154.929 10.4044C154.708 10.4669 154.408 10.317 154.246 10.767L154.258 10.6878C154.162 10.992 154.154 10.7295 154.058 10.8795C154.058 10.842 154.05 10.8211 154.05 10.8086C153.95 11.1086 153.796 10.842 153.721 10.9712V10.7837L153.55 10.8211L153.612 10.8628C153.566 11.3836 153.496 10.5295 153.358 10.8628C153.246 10.792 153.075 11.9336 152.966 11.6753C152.9 11.917 153.033 11.2795 152.941 11.467C152.95 11.1961 152.987 11.3003 152.975 11.0795C152.883 11.2045 152.846 10.7962 152.733 10.9753V10.7628C152.587 11.142 152.491 10.4753 152.383 10.8378C152.237 11.0086 152.312 10.2044 152.15 10.6128L152.104 10.3253C152.041 10.2753 152.046 10.6753 151.983 10.5336C151.996 10.3545 151.9 10.3878 151.946 10.217C151.796 9.92946 151.612 10.6045 151.416 10.1211C151.362 10.4711 151.262 10.2586 151.221 10.5211C151.221 10.367 151.012 10.492 151.137 10.1628C151.15 10.1378 151.166 10.1419 151.162 10.2003L151.183 9.99194C151.075 9.59611 150.962 10.2003 150.846 10.1378C150.879 10.2087 150.925 10.192 150.891 10.3336L150.783 10.3003L150.812 10.1253L150.654 10.017L150.671 10.2336C150.596 10.1211 150.575 9.75034 150.479 10.0587C150.433 10.2295 150.546 10.3503 150.462 10.417C150.358 10.267 150.204 10.042 150.071 9.97119C150.079 10.217 150.041 10.2045 150.004 10.2545V10.042C149.854 10.3337 149.962 9.5753 149.812 9.80446L149.829 9.65869L149.783 10.1003C149.646 10.5169 149.721 9.65864 149.566 10.2295C149.625 10.1961 149.583 10.6961 149.516 10.6044L149.537 10.4003C149.5 10.4419 149.483 10.5295 149.458 10.4837C149.483 10.3753 149.475 10.1878 149.416 10.2211L149.458 9.96702L149.346 10.342C149.266 10.1211 149.129 10.392 149.1 10.1045C149.1 10.1045 148.925 9.95868 148.879 10.2753C148.916 10.0795 148.821 10.0044 148.854 9.77527C148.804 9.9961 148.666 10.1753 148.612 9.93783L148.625 9.9128C148.425 9.66697 148.275 10.2378 148.096 9.942C148.1 10.1878 148.008 10.0545 148.029 10.367C147.837 10.6753 147.691 9.72535 147.616 10.6962C147.529 10.7462 147.516 10.467 147.475 10.417L147.496 10.367C147.337 10.4462 147.287 10.4545 147.171 10.4295C147.112 10.5253 147.1 10.9753 146.996 10.867C147.029 10.6878 146.987 10.7211 146.946 10.7211C146.971 10.6919 146.979 10.6253 146.929 10.5086C146.921 10.5628 146.908 10.6003 146.9 10.6253C146.9 10.6128 146.9 10.6003 146.9 10.5795C146.833 10.642 146.846 10.7003 146.875 10.7211C146.875 10.7503 146.875 10.7836 146.883 10.8336C146.816 10.6003 146.691 10.8503 146.683 10.542C146.483 10.6128 146.341 10.9295 146.175 11.0503C146.158 10.892 146.196 10.7503 146.241 10.6878L146.125 10.7461C146.125 10.517 146.191 10.617 146.229 10.5712C146.087 10.2045 145.941 10.9378 145.779 10.6003L145.746 10.7795L145.737 10.7503C145.737 10.8461 145.7 10.9753 145.679 11.0045C145.654 10.8045 145.679 10.5462 145.6 10.5587C145.533 10.367 145.416 10.6545 145.333 10.7628C145.379 10.7962 145.366 10.9045 145.346 10.9753C145.304 10.9837 145.279 10.7837 145.25 10.8712V10.6044C145.262 10.8586 145.141 10.8795 145.125 10.9878C145.1 10.7878 145.187 10.817 145.196 10.667C145.033 10.692 145.116 10.6794 144.954 10.7044C144.871 10.9086 144.971 10.9587 144.933 11.192C144.858 11.2462 144.783 11.4336 144.696 11.2711L144.725 11.5087C144.583 11.6962 144.496 11.667 144.4 11.4295C143.358 13.3795 144.204 14.0795 144.204 14.0795C144.625 14.6003 144.829 13.9045 145.325 13.717L145.308 13.7253Z" fill="#ACDE45"/>
<path d="M167.104 12.2751L167.116 12.3793C167.124 12.3334 167.124 12.2959 167.104 12.2751Z" fill="#ACDE45"/>
<path d="M175.32 14.4459C175.32 14.4459 175.329 14.4375 175.337 14.4292C175.329 14.4334 175.324 14.4417 175.32 14.4459Z" fill="#ACDE45"/>
<path d="M167.696 15.792C167.696 15.792 167.688 15.8044 167.684 15.8127L167.7 15.792H167.696Z" fill="#ACDE45"/>
<path d="M166.154 15.221C166.554 15.4126 166.575 15.8877 167.041 15.7918C167.241 15.871 167.479 15.8085 167.691 15.796C167.862 15.4627 167.954 15.846 168.133 15.5752V15.7835C168.196 15.6918 168.254 15.6335 168.271 15.7501L168.254 15.8084C168.346 15.6709 168.391 15.7751 168.437 15.7042L168.421 15.7626L168.496 15.7543L168.466 15.8334C168.604 15.6959 168.708 15.7085 168.783 15.8043L168.829 15.5626C168.962 15.8751 169.15 15.3918 169.254 15.7543L169.237 15.8126C169.612 15.2334 169.483 16.3293 169.858 15.7835C169.812 15.8502 169.841 15.9085 169.825 15.9668C169.946 15.9251 170.071 15.9168 170.191 15.446C170.266 15.471 170.216 15.6085 170.179 15.7918C170.233 15.5877 170.321 15.5168 170.383 15.5209L170.333 15.5918L170.525 15.5668L170.591 15.171C170.654 15.3085 170.491 15.6502 170.604 15.5793L170.687 15.2585C170.8 15.3543 170.741 15.8626 170.8 16.1293C171.258 16.4043 172.041 15.7459 172.337 16.4501L172.283 16.696C172.183 17.046 172.571 16.2209 172.487 16.5501L172.591 16.4085C172.587 16.4752 172.596 16.5502 172.546 16.621C172.591 16.6502 172.608 16.5918 172.679 16.5001L172.662 16.7335C172.804 16.9627 173.104 16.6001 173.279 16.7543C173.375 17.2709 173.966 17.0335 174.321 16.896C174.891 16.5293 174.787 18.046 175.383 17.6168C175.375 17.671 175.45 17.5751 175.466 17.5376L175.783 17.7293C175.783 17.7293 176.175 17.9335 176.566 17.7418C176.954 17.5418 177.396 16.9543 177.354 15.271L177.396 15.2043C177.275 14.9334 177.158 14.8418 176.862 15.1502C177.033 14.6918 176.716 15.0335 176.729 14.8668L176.75 14.8335C176.483 15.1293 176.612 14.4376 176.366 14.7001C176.387 14.6668 176.437 14.5418 176.471 14.546C176.358 14.5668 176.2 14.6209 176.3 14.3543C176.062 14.3376 175.812 14.1043 175.516 14.4751L175.554 14.4043C175.371 14.6626 175.437 14.4085 175.3 14.521C175.308 14.4835 175.308 14.4627 175.316 14.4502C175.129 14.7043 175.058 14.4085 174.946 14.5043L175.004 14.3252L174.821 14.3085L174.871 14.3709C174.675 14.8543 174.854 14.0168 174.621 14.2918C174.529 14.1876 174.037 15.2377 174.008 14.9543C173.875 15.1668 174.183 14.596 174.041 14.746C174.125 14.4877 174.133 14.5959 174.183 14.3834C174.062 14.4793 174.137 14.0752 173.979 14.2127L174.041 14.0085C173.787 14.3293 173.879 13.6585 173.675 13.9835C173.483 14.1043 173.775 13.3543 173.504 13.7043L173.533 13.4126C173.483 13.3501 173.383 13.7335 173.358 13.5793C173.416 13.4085 173.316 13.4126 173.404 13.2626C173.329 12.9418 172.971 13.5501 172.904 13.0293C172.758 13.3501 172.716 13.121 172.608 13.3626C172.646 13.2126 172.408 13.2793 172.616 12.9918C172.633 12.9668 172.65 12.9793 172.633 13.0376L172.704 12.8418C172.696 12.4293 172.429 12.9876 172.329 12.8959C172.346 12.9709 172.396 12.9668 172.329 13.096L172.229 13.0376L172.3 12.8752L172.166 12.7335L172.129 12.9501C172.079 12.821 172.15 12.4585 171.979 12.7293C171.891 12.8835 171.979 13.0335 171.875 13.0752C171.808 12.9043 171.708 12.6418 171.591 12.546C171.541 12.7835 171.508 12.7668 171.458 12.8043L171.508 12.6001C171.291 12.8459 171.575 12.1376 171.371 12.3251L171.421 12.1876L171.271 12.6043C171.037 12.9751 171.312 12.1627 171.025 12.6793C171.091 12.6585 170.933 13.1376 170.887 13.0293L170.954 12.8376C170.904 12.871 170.871 12.9501 170.858 12.9001C170.908 12.8001 170.946 12.6168 170.879 12.6335L170.979 12.3959L170.779 12.7335C170.75 12.5001 170.554 12.7335 170.587 12.446C170.587 12.446 170.441 12.2668 170.329 12.5627C170.412 12.3793 170.329 12.2834 170.412 12.0668C170.312 12.2709 170.137 12.4168 170.137 12.1709L170.154 12.146C170.008 11.8627 169.733 12.3876 169.621 12.0626C169.575 12.3043 169.508 12.1502 169.462 12.4627C169.208 12.7252 169.262 11.7626 168.983 12.6959C168.887 12.7293 168.933 12.4543 168.9 12.3959L168.929 12.3502C168.754 12.396 168.704 12.3918 168.591 12.3502C168.512 12.4293 168.412 12.871 168.329 12.7418C168.4 12.5751 168.35 12.5959 168.312 12.5876C168.341 12.5668 168.362 12.5043 168.337 12.3751C168.321 12.4293 168.3 12.4584 168.283 12.4834C168.283 12.4709 168.283 12.4585 168.291 12.4418C168.212 12.4918 168.212 12.5459 168.237 12.5792C168.229 12.6042 168.225 12.6418 168.225 12.6918C168.204 12.4501 168.033 12.6668 168.087 12.3627C167.875 12.3918 167.671 12.6793 167.487 12.7627C167.5 12.6043 167.566 12.471 167.625 12.421L167.496 12.4543C167.541 12.2293 167.587 12.3376 167.633 12.3001C167.562 11.9126 167.279 12.6043 167.179 12.2418L167.112 12.4126V12.3834C167.091 12.4793 167.029 12.6001 167 12.6251C167.012 12.4251 167.087 12.1751 167 12.1709C166.971 11.9709 166.8 12.2335 166.7 12.321C166.737 12.3626 166.704 12.4668 166.671 12.5335C166.629 12.5335 166.641 12.3335 166.596 12.4126L166.641 12.146C166.612 12.396 166.487 12.3959 166.454 12.5001C166.466 12.3001 166.546 12.3418 166.583 12.1959C166.416 12.1918 166.5 12.1959 166.333 12.1876C166.212 12.3709 166.304 12.4418 166.225 12.6627C166.141 12.7002 166.033 12.8709 165.975 12.7001L165.962 12.9376C165.787 13.096 165.708 13.0543 165.654 12.8001C164.966 13.6668 164.812 14.3127 164.821 14.7377C164.829 15.1627 165 15.3752 165 15.3752C165.312 15.9627 165.633 15.3084 166.146 15.2168L166.154 15.221Z" fill="#ACDE45"/>
<path d="M186.162 22.5923L186.096 22.6715C186.133 22.6465 186.162 22.6215 186.162 22.5923Z" fill="#ACDE45"/>
<path d="M188.295 31.1671C188.295 31.1671 188.307 31.1713 188.316 31.1755C188.307 31.1713 188.299 31.1671 188.295 31.1671Z" fill="#ACDE45"/>
<path d="M183.337 23.8545C183.437 24.2378 183.087 24.542 183.42 24.7878C183.466 24.9628 183.662 25.0795 183.774 25.2253C184.137 25.1545 183.87 25.4378 184.191 25.4128L184.02 25.5295C184.129 25.5211 184.212 25.5295 184.125 25.6086L184.07 25.6295C184.233 25.6211 184.174 25.7086 184.254 25.7044L184.195 25.7253L184.241 25.7753L184.158 25.7962C184.341 25.8212 184.383 25.9087 184.341 26.0129L184.57 25.9211C184.37 26.1836 184.879 26.0795 184.624 26.3378L184.566 26.3545C185.245 26.3628 184.229 26.792 184.883 26.8254C184.799 26.8212 184.762 26.8711 184.704 26.8836C184.799 26.9586 184.866 27.0504 185.333 26.9337C185.341 27.0087 185.199 27.0295 185.02 27.0836C185.224 27.0295 185.324 27.0753 185.354 27.1295L185.266 27.1212L185.375 27.2669L185.758 27.1462C185.666 27.2629 185.287 27.2795 185.399 27.342L185.725 27.2669C185.687 27.4044 185.212 27.5837 185 27.742C184.97 27.992 185.187 28.2086 185.349 28.4378C185.499 28.6711 185.595 28.917 185.333 29.1753L185.087 29.2212C184.724 29.267 185.633 29.2962 185.299 29.3462L185.47 29.3836C185.408 29.4045 185.341 29.442 185.258 29.4254C185.25 29.4754 185.308 29.4712 185.42 29.5003L185.199 29.5711C185.041 29.7795 185.491 29.9128 185.412 30.1295C184.966 30.4003 185.408 30.8545 185.658 31.1336C186.208 31.5295 184.758 31.992 185.375 32.4087C185.325 32.4212 185.437 32.4587 185.479 32.4587L185.425 32.842C185.425 32.842 185.383 33.3087 185.725 33.6129C186.066 33.917 186.787 34.0045 188.299 33.317L188.379 33.3253C188.575 33.1211 188.616 32.9878 188.22 32.8378C188.712 32.8212 188.275 32.667 188.433 32.617H188.474C188.099 32.4878 188.791 32.3545 188.454 32.2253C188.491 32.2295 188.629 32.2337 188.633 32.2629C188.57 32.1712 188.462 32.0462 188.75 32.0379C188.675 31.817 188.804 31.5003 188.349 31.3628L188.429 31.3712C188.12 31.292 188.383 31.267 188.225 31.1753C188.262 31.1712 188.279 31.1628 188.295 31.1628C187.991 31.0795 188.241 30.9045 188.112 30.8336L188.299 30.8253L188.249 30.6503L188.212 30.717C187.691 30.7086 188.537 30.5712 188.195 30.4545C188.254 30.3295 187.104 30.2545 187.35 30.1253C187.104 30.0795 187.75 30.1586 187.558 30.0794C187.829 30.0628 187.729 30.1128 187.945 30.0794C187.812 30.0003 188.216 29.9212 188.025 29.8212L188.237 29.8045C187.845 29.6878 188.495 29.5129 188.12 29.4462C187.933 29.3129 188.737 29.2961 188.312 29.1753L188.591 29.0878C188.633 29.017 188.237 29.0712 188.37 28.9837C188.549 28.9712 188.504 28.8754 188.679 28.9045C188.945 28.7045 188.241 28.6045 188.687 28.3253C188.333 28.3253 188.524 28.1837 188.262 28.1837C188.412 28.1587 188.262 27.9545 188.604 28.0337C188.633 28.042 188.629 28.0628 188.57 28.067L188.779 28.0545C189.154 27.867 188.529 27.8503 188.57 27.717C188.508 27.767 188.537 27.8128 188.387 27.8003L188.395 27.6795H188.574L188.645 27.4836L188.437 27.5462C188.533 27.442 188.891 27.3461 188.57 27.3003C188.395 27.2878 188.295 27.4337 188.216 27.3545C188.345 27.2129 188.529 27.0004 188.558 26.8379C188.32 26.9004 188.32 26.8587 188.266 26.8295L188.47 26.7795C188.149 26.6878 188.912 26.6212 188.65 26.5129L188.795 26.492L188.354 26.5503C187.912 26.5086 188.762 26.3711 188.17 26.3503C188.22 26.4045 187.724 26.4878 187.795 26.3962L187.999 26.367C187.949 26.3378 187.862 26.342 187.895 26.3045C188.008 26.3045 188.187 26.2462 188.137 26.192L188.395 26.1712L187.999 26.1503C188.187 26.0045 187.879 25.9378 188.149 25.8253C188.149 25.8253 188.229 25.592 187.916 25.6378C188.116 25.6212 188.158 25.492 188.387 25.4587C188.158 25.4712 187.945 25.3795 188.154 25.2503H188.183C188.341 24.9587 187.741 24.9878 187.949 24.7003C187.72 24.792 187.812 24.6461 187.524 24.7795C187.162 24.7003 187.995 24.1878 187.058 24.4795C186.974 24.4128 187.225 24.292 187.25 24.2295H187.308C187.162 24.1004 187.137 24.0545 187.104 23.9254C186.991 23.9045 186.574 24.0795 186.629 23.9295C186.808 23.8879 186.758 23.8587 186.741 23.8212C186.779 23.8337 186.841 23.817 186.929 23.7129C186.875 23.7295 186.841 23.7336 186.808 23.7336C186.82 23.7253 186.829 23.7212 186.845 23.7129C186.758 23.6754 186.712 23.7128 186.704 23.7503C186.679 23.7586 186.65 23.7795 186.608 23.8087C186.791 23.642 186.508 23.6295 186.779 23.4879C186.612 23.3254 186.258 23.3336 186.074 23.2378C186.204 23.1461 186.349 23.117 186.424 23.1336L186.316 23.0503C186.516 22.942 186.466 23.0503 186.524 23.067C186.774 22.7545 186.062 22.9628 186.262 22.6462L186.087 22.7045L186.108 22.6795C186.024 22.7295 185.891 22.7587 185.854 22.7545C186.012 22.6337 186.25 22.5254 186.191 22.4545C186.316 22.2962 186.004 22.3337 185.866 22.3128C185.866 22.3712 185.762 22.417 185.691 22.4378C185.662 22.4045 185.816 22.2795 185.729 22.2961L185.954 22.1504C185.749 22.3004 185.662 22.2004 185.562 22.2462C185.716 22.117 185.741 22.2087 185.874 22.1379C185.758 22.0004 185.816 22.0712 185.704 21.9337C185.487 21.967 185.504 22.0878 185.283 22.1836C185.195 22.142 184.995 22.192 185.074 22.0253L184.895 22.1836C184.658 22.1711 184.629 22.0878 184.766 21.8628C183.666 22.0003 183.133 22.3961 182.845 22.7086C182.558 23.0253 182.516 23.2753 182.516 23.2753C182.291 23.8712 182.974 23.5878 183.349 23.867L183.337 23.8545Z" fill="#ACDE45"/>
</svg>
