<svg width="159" height="51" viewBox="0 0 159 51" fill="none" xmlns="http://www.w3.org/2000/svg">
<path d="M3.995 0.887207L3.90332 0.899694C3.94499 0.899694 3.9825 0.899707 3.995 0.887207Z" fill="#20BB65"/>
<path d="M0.970047 1.52895C0.970047 1.52895 0.957552 1.52895 0.949219 1.52478H0.970047V1.52895Z" fill="#20BB65"/>
<path d="M1.20349 0.699715C1.09099 0.912215 0.674332 0.974699 0.845165 1.20387C0.811832 1.3122 0.911823 1.42888 0.965989 1.52888C1.29516 1.56638 0.974324 1.66638 1.25349 1.71638L1.07016 1.74555C1.16599 1.76222 1.2285 1.78304 1.1285 1.80804H1.07433C1.21599 1.83304 1.13266 1.87053 1.20349 1.88303H1.14932L1.17432 1.92055H1.09516C1.24516 1.96221 1.25765 2.01637 1.19515 2.06637L1.42017 2.04971C1.17433 2.16638 1.64101 2.17471 1.34934 2.28304H1.29517C1.89517 2.35804 0.907669 2.49972 1.47434 2.57472C1.4035 2.56638 1.35766 2.59137 1.30349 2.59137C1.37016 2.64137 1.41182 2.69553 1.84932 2.6622C1.84932 2.70387 1.716 2.70388 1.54516 2.72471C1.73683 2.70804 1.82017 2.73303 1.83683 2.76637L1.76184 2.75805L1.83683 2.84136L2.19933 2.79136C2.09933 2.84553 1.75765 2.84554 1.84932 2.87887L2.14933 2.8497C2.09517 2.91637 1.64518 2.99971 1.42851 3.08721C1.32851 3.37054 2.1285 3.5497 1.63267 3.85803L1.40766 3.89971C1.07849 3.94971 1.9035 3.89971 1.59933 3.94971L1.7535 3.95805C1.69516 3.97472 1.63684 3.9997 1.55767 3.99554C1.54934 4.0247 1.6035 4.01637 1.7035 4.02054L1.50351 4.07888C1.36184 4.20804 1.766 4.23303 1.7035 4.35386C1.30766 4.5497 1.73265 4.73721 1.97849 4.83304C2.49932 4.93304 1.24934 5.4122 1.84518 5.50387C1.79934 5.52054 1.90767 5.51637 1.94517 5.50387L1.93683 5.69554C1.93683 5.69554 1.95349 5.92472 2.29099 5.98722C2.62849 6.05388 3.27016 5.93303 4.541 5.32053L4.61182 5.30805C4.76182 5.17888 4.78684 5.11636 4.42017 5.13303C4.85351 5.02886 4.44932 5.04972 4.58682 4.99972H4.62434C4.2785 5.01222 4.8785 4.82471 4.566 4.83721C4.59933 4.83305 4.72017 4.80803 4.73267 4.82053C4.67017 4.79553 4.56182 4.76221 4.81599 4.70805C4.73265 4.63305 4.82433 4.48305 4.40766 4.50388L4.47849 4.49554C4.19932 4.51221 4.4285 4.45805 4.28267 4.44972C4.316 4.44138 4.33268 4.4372 4.34518 4.43303C4.06601 4.44553 4.28267 4.33305 4.16184 4.32472L4.33266 4.29138L4.27849 4.2247L4.24515 4.25804C3.77432 4.32887 4.52848 4.15387 4.21598 4.15387C4.26598 4.09554 3.2285 4.2122 3.44933 4.12053C3.22433 4.12887 3.80767 4.08721 3.63267 4.07471C3.8785 4.03304 3.78682 4.06637 3.98265 4.02471C3.86182 4.00804 4.22433 3.92472 4.04933 3.90805L4.24101 3.87471C3.88268 3.87055 4.47434 3.72887 4.13684 3.73721C3.97018 3.69971 4.69517 3.61637 4.31601 3.60804L4.57017 3.54553C4.60767 3.5122 4.24934 3.57054 4.37017 3.5247C4.53267 3.50387 4.49517 3.47053 4.64933 3.46636C4.89517 3.36636 4.27016 3.38303 4.69099 3.2372C4.37016 3.25803 4.55351 3.19136 4.31601 3.20803C4.45351 3.1872 4.32848 3.11636 4.63265 3.12886C4.65765 3.12886 4.6535 3.13721 4.59934 3.14555L4.78684 3.12886C5.13684 3.0372 4.58267 3.06221 4.62851 3.00804C4.56601 3.02887 4.58683 3.04553 4.45766 3.0497L4.47849 2.9997L4.63682 2.99138L4.72016 2.91221L4.52434 2.94138C4.62017 2.89555 4.9535 2.8497 4.67016 2.84136C4.51183 2.84136 4.40768 2.8997 4.34518 2.8747C4.47434 2.81637 4.67016 2.72887 4.72433 2.66637C4.5035 2.69137 4.51183 2.67887 4.46183 2.66637L4.6535 2.64554C4.38267 2.61221 5.07433 2.58305 4.85767 2.54555L4.991 2.5372L4.58682 2.55803C4.19932 2.5372 4.98266 2.49553 4.45766 2.47886C4.49099 2.4997 4.03682 2.52888 4.11599 2.49138L4.30349 2.48304C4.26183 2.47054 4.18683 2.47054 4.22433 2.45804C4.32433 2.45804 4.49516 2.44138 4.46183 2.42055H4.69516L4.34932 2.3997C4.54515 2.3497 4.29101 2.31221 4.55351 2.27887C4.55351 2.27887 4.67433 2.19554 4.38683 2.19971C4.566 2.19971 4.63265 2.15804 4.84098 2.15388C4.63682 2.15388 4.47017 2.10387 4.68267 2.06637H4.70767C4.92017 1.9747 4.39932 1.94553 4.66182 1.85386C4.43682 1.87053 4.55766 1.82472 4.27432 1.84972C3.98682 1.78305 4.84933 1.67888 3.96599 1.69138C3.91599 1.65805 4.17015 1.64137 4.21598 1.62053L4.26184 1.62887C4.18684 1.56637 4.17849 1.54554 4.19516 1.49554C4.10766 1.4747 3.69934 1.48305 3.79517 1.43305C3.95767 1.44139 3.92851 1.42472 3.92851 1.40805C3.95351 1.41639 4.016 1.42054 4.12433 1.39554C4.07433 1.39554 4.04099 1.39137 4.01599 1.3872C4.02849 1.3872 4.03684 1.3872 4.05767 1.3872C3.99934 1.3622 3.94934 1.36638 3.92851 1.37888C3.90351 1.37888 3.87015 1.37887 3.82849 1.3872C4.03682 1.35387 3.81182 1.30388 4.09099 1.29555C4.02432 1.21221 3.73266 1.15805 3.62433 1.08721C3.77016 1.07888 3.89517 1.09138 3.95351 1.11221L3.89934 1.06221C4.10767 1.06221 4.02015 1.09137 4.06182 1.10387C4.39515 1.04137 3.72434 0.983053 4.03268 0.912219L3.87017 0.899707H3.89934C3.81184 0.899707 3.69517 0.878871 3.66601 0.870537C3.84517 0.862204 4.08266 0.87053 4.07016 0.837197C4.24516 0.812197 3.98266 0.758047 3.88683 0.724714C3.85766 0.745547 3.75767 0.737214 3.69101 0.724714C3.68684 0.708047 3.866 0.699699 3.78683 0.683032H4.03268C3.80351 0.687199 3.78684 0.637197 3.68684 0.628864C3.866 0.62053 3.84101 0.658037 3.97851 0.662204C3.95767 0.591371 3.966 0.628871 3.94517 0.558037C3.76183 0.516371 3.716 0.558046 3.49933 0.54138C3.4535 0.508046 3.28267 0.470546 3.4285 0.437213L3.21183 0.445529C3.04516 0.378862 3.07016 0.341377 3.291 0.303877C2.416 0.0413767 1.81599 -0.0169699 1.43265 0.00386348C1.04932 0.0246968 0.886822 0.124713 0.886822 0.124713C0.399322 0.320546 1.02848 0.449707 1.19515 0.691374L1.20349 0.699715Z" fill="#20BB65"/>
<path d="M8.39623 13.8661L8.33789 13.9411C8.37122 13.9161 8.39623 13.8911 8.39623 13.8661Z" fill="#20BB65"/>
<path d="M13.4121 19.3329C13.4121 19.3329 13.4246 19.3288 13.4288 19.3204C13.4205 19.3204 13.4163 19.3246 13.4121 19.3329Z" fill="#20BB65"/>
<path d="M6.65488 16.6285C6.65488 16.6285 6.64238 16.6285 6.62988 16.6327H6.65488V16.6285Z" fill="#20BB65"/>
<path d="M5.88754 15.1412C6.04171 15.5579 5.7667 15.8954 6.17087 16.1662C6.27087 16.3579 6.48755 16.4871 6.65422 16.6246C6.97088 16.5079 6.82504 16.8412 7.11671 16.7621L7.00006 16.9121C7.10006 16.8871 7.17922 16.8829 7.12505 16.9787L7.07923 17.0121C7.22506 16.9704 7.20421 17.0788 7.27505 17.0579L7.22922 17.0912L7.2917 17.1329L7.22505 17.1704C7.40422 17.1621 7.48339 17.2371 7.49172 17.3537L7.66254 17.2037C7.60004 17.5204 8.00421 17.2787 7.89171 17.6121L7.85005 17.6454C8.45005 17.4412 7.78338 18.1871 8.36671 17.9996C8.29588 18.0246 8.28755 18.0871 8.24589 18.1204C8.36672 18.1621 8.47087 18.2287 8.80004 17.9371C8.84587 17.9996 8.73754 18.0787 8.62087 18.1996C8.76671 18.0704 8.87089 18.0662 8.92089 18.1037L8.84589 18.1329L9.01254 18.2204L9.25838 17.9496C9.24172 18.0871 8.94588 18.2662 9.07088 18.2746L9.29172 18.0704C9.33339 18.2037 9.04588 18.5704 8.97088 18.8162C9.24172 19.2954 10.1834 19.1537 10.1584 19.8746L10.0167 20.0538C9.79172 20.2996 10.4584 19.7954 10.2584 20.0287L10.4042 19.9579C10.3751 20.0121 10.3542 20.0787 10.2834 20.1162C10.3126 20.1621 10.35 20.1246 10.45 20.0788L10.35 20.2662C10.3917 20.5246 10.7917 20.3621 10.9001 20.5662C10.8084 21.0537 11.4417 21.1037 11.8042 21.1121C12.4209 20.9912 11.9376 22.3037 12.6209 22.1246C12.6001 22.1704 12.6959 22.1079 12.7167 22.0787L12.9834 22.3496C12.9834 22.3496 13.3251 22.6537 13.7376 22.5704C14.1542 22.4912 14.6001 22.0079 14.9126 20.5204L14.9626 20.4704C14.9167 20.2163 14.8501 20.1162 14.5209 20.3246C14.7792 19.9579 14.4292 20.1912 14.4834 20.0496L14.5084 20.0246C14.2042 20.2204 14.5 19.6579 14.2209 19.8246C14.2459 19.7996 14.325 19.7079 14.35 19.7162C14.2542 19.7079 14.1042 19.7162 14.2626 19.5121C14.0709 19.4412 13.9417 19.1829 13.5792 19.4162L13.6334 19.3662C13.4001 19.5329 13.5375 19.3371 13.3834 19.3954C13.4042 19.3662 13.4084 19.3496 13.4209 19.3412C13.1834 19.4996 13.2209 19.2246 13.0959 19.2746L13.2084 19.1413L13.0667 19.0704L13.0876 19.1371C12.7584 19.4787 13.1959 18.8371 12.9126 18.9912C12.8751 18.8787 12.0959 19.5787 12.1667 19.3329C11.9792 19.4621 12.4459 19.0996 12.2709 19.1704C12.4375 18.9871 12.4042 19.0787 12.5209 18.9204C12.3834 18.9537 12.6001 18.6496 12.4167 18.7121L12.5459 18.5662C12.2167 18.7412 12.5542 18.2246 12.2626 18.4121C12.0626 18.4413 12.5959 17.9412 12.2417 18.1246L12.3876 17.9037C12.3751 17.8371 12.1376 18.1079 12.1792 17.9746C12.2959 17.8579 12.2125 17.8287 12.35 17.7412C12.4334 17.4621 11.8959 17.8037 12.0709 17.3662C11.8167 17.5621 11.8875 17.3662 11.6959 17.5121C11.7917 17.4121 11.5792 17.3662 11.8709 17.2287C11.8959 17.2162 11.9042 17.2287 11.8626 17.2704L12.0042 17.1454C12.1875 16.8246 11.7334 17.1454 11.7 17.0371C11.675 17.1037 11.7167 17.1204 11.6042 17.1912L11.5584 17.1037L11.6876 17.0079L11.6584 16.8412L11.5292 16.9912C11.5542 16.8704 11.7834 16.6246 11.5251 16.7579C11.3876 16.8412 11.3792 16.9871 11.2834 16.9787C11.3167 16.8204 11.3709 16.5787 11.3334 16.4496C11.1792 16.6079 11.1626 16.5787 11.1084 16.5871L11.2459 16.4537C10.9626 16.5412 11.5292 16.1329 11.2875 16.1871L11.3959 16.1037L11.075 16.3496C10.7167 16.5204 11.3334 16.0371 10.8584 16.2912C10.9167 16.3079 10.5584 16.5912 10.5792 16.4912L10.7292 16.3787C10.675 16.3787 10.6125 16.4246 10.625 16.3787C10.7125 16.3287 10.8334 16.2079 10.7792 16.1912L10.975 16.0621L10.6584 16.2162C10.7625 16.0287 10.4959 16.1079 10.675 15.9121C10.675 15.9121 10.6709 15.7121 10.4292 15.8704C10.5834 15.7787 10.5792 15.6704 10.7542 15.5496C10.575 15.6496 10.3709 15.6662 10.5042 15.4912L10.5292 15.4829C10.5875 15.2079 10.1084 15.4454 10.2125 15.1537C10.0459 15.2996 10.0834 15.1579 9.87504 15.3537C9.54588 15.4037 10.1417 14.7579 9.41255 15.2621C9.32922 15.2329 9.52087 15.0621 9.53337 15.0037L9.57923 14.9871C9.43339 14.9204 9.40421 14.8954 9.35421 14.7996C9.25421 14.8121 8.92088 15.0537 8.94588 14.9204C9.09588 14.8454 9.04589 14.8329 9.02505 14.8037C9.05839 14.8037 9.11254 14.7746 9.17088 14.6704C9.12504 14.6954 9.09588 14.7079 9.07088 14.7162C9.07921 14.7079 9.08755 14.6996 9.10422 14.6912C9.02505 14.6787 8.98754 14.7162 8.98754 14.7537C8.96671 14.7662 8.94171 14.7871 8.91254 14.8246C9.04588 14.6496 8.80005 14.6954 9.02088 14.5204C8.86255 14.4162 8.55422 14.4913 8.37922 14.4288C8.48756 14.3288 8.60838 14.2829 8.67921 14.2871L8.57505 14.2329C8.74588 14.1121 8.70838 14.2121 8.75838 14.2121C8.95838 13.9162 8.33755 14.1996 8.50422 13.8996L8.35422 13.9704L8.37088 13.9496C8.30005 13.9996 8.18337 14.0413 8.15004 14.0371C8.28754 13.9163 8.49171 13.7996 8.44171 13.7454C8.55004 13.5996 8.27504 13.6621 8.15421 13.6537C8.15421 13.7037 8.06254 13.7496 8.00004 13.7704C7.97504 13.7454 8.11255 13.6246 8.03338 13.6454L8.23338 13.5037C8.05004 13.6454 7.97506 13.5662 7.88339 13.6079C8.02089 13.4912 8.04588 13.5662 8.16255 13.4996C8.06255 13.3912 8.11256 13.4454 8.01256 13.3371C7.81672 13.3746 7.8292 13.4746 7.6292 13.5621C7.55004 13.5329 7.37087 13.5662 7.45004 13.4204L7.28339 13.5579C7.07089 13.5412 7.05004 13.4579 7.18754 13.2662C6.1792 13.3246 5.63338 13.5829 5.34588 13.8454C5.06254 14.1079 5.03755 14.3704 5.03755 14.3704C4.85422 14.9829 5.50838 14.8246 5.92088 15.1371L5.88754 15.1412Z" fill="#20BB65"/>
<path d="M23.4205 25.3536L23.4121 25.4495C23.4288 25.412 23.433 25.3745 23.4205 25.3536Z" fill="#20BB65"/>
<path d="M30.6084 27.7161C30.6084 27.7161 30.6167 27.7078 30.6209 27.6995C30.6126 27.7036 30.6126 27.712 30.6084 27.7161Z" fill="#20BB65"/>
<path d="M23.3995 28.6161C23.3995 28.6161 23.3911 28.6244 23.3828 28.6327L23.3995 28.6161Z" fill="#20BB65"/>
<path d="M21.9957 27.7828C22.3415 28.0495 22.2873 28.4787 22.7623 28.487C22.9457 28.5953 23.1915 28.587 23.3999 28.6162C23.6082 28.3453 23.654 28.7078 23.8582 28.4912L23.8332 28.6786C23.904 28.6036 23.9707 28.562 23.9707 28.6703L23.9499 28.7203C24.054 28.6078 24.0874 28.712 24.1374 28.6578L24.1165 28.7078H24.1915L24.154 28.7786C24.304 28.6745 24.404 28.6995 24.4707 28.7953L24.5415 28.5828C24.6415 28.887 24.8707 28.4745 24.9374 28.8162L24.9165 28.8662C25.3249 28.3828 25.1207 29.3661 25.529 28.912C25.479 28.9703 25.504 29.0245 25.4832 29.0745C25.604 29.0495 25.7249 29.0537 25.8707 28.637C25.9415 28.6662 25.8873 28.787 25.8415 28.9537C25.904 28.7703 25.9915 28.7162 26.054 28.7245L26.004 28.787L26.1915 28.7786L26.2748 28.4203C26.329 28.5495 26.1582 28.8495 26.2665 28.7953L26.3623 28.5078C26.4623 28.6037 26.3915 29.062 26.4415 29.3162C26.8957 29.5995 27.6499 29.0245 27.954 29.6703L27.9082 29.8953C27.8249 30.2162 28.1748 29.462 28.104 29.762L28.1999 29.6328C28.1999 29.6953 28.2124 29.7662 28.1624 29.8287C28.2082 29.8537 28.2248 29.8036 28.2873 29.7161V29.9286C28.4332 30.1411 28.7124 29.8078 28.8957 29.9412C29.029 30.4162 29.604 30.1745 29.929 30.0245C30.429 29.6453 30.5415 31.037 31.0707 30.5828C31.0707 30.6328 31.129 30.537 31.1374 30.4995L31.4832 30.6328C31.4832 30.6328 31.9082 30.7661 32.2457 30.5245C32.5873 30.2828 32.8207 29.6662 32.4998 28.1787L32.5248 28.112C32.3748 27.8953 32.2707 27.8328 32.054 28.1536C32.1374 27.7161 31.9123 28.0703 31.8998 27.9203L31.9124 27.887C31.7165 28.1912 31.7457 27.5537 31.5623 27.8245C31.5748 27.7912 31.6082 27.6745 31.6332 27.6703C31.5415 27.7037 31.404 27.7745 31.4623 27.5203C31.254 27.537 31.0207 27.3537 30.7915 27.7245L30.8165 27.6578C30.6749 27.9078 30.7165 27.6745 30.5998 27.7911C30.604 27.7578 30.5999 27.737 30.6082 27.7245C30.4624 27.9703 30.3749 27.7078 30.2832 27.8037L30.3249 27.637H30.1623L30.2082 27.687C30.0623 28.1411 30.1707 27.3703 29.9832 27.637C29.8957 27.5495 29.5124 28.5287 29.4665 28.2745C29.354 28.4745 29.6082 27.9412 29.4873 28.0828C29.5498 27.8453 29.5665 27.9453 29.5999 27.7495C29.4915 27.8412 29.5457 27.4703 29.4082 27.6078L29.4582 27.4203C29.2415 27.7245 29.304 27.112 29.129 27.412C28.9624 27.5287 29.2082 26.837 28.9749 27.162L28.9999 26.8995C28.9582 26.8453 28.8707 27.1953 28.8457 27.0578C28.8957 26.8995 28.8082 26.912 28.8873 26.7703C28.8248 26.4828 28.504 27.037 28.454 26.5661C28.3207 26.8578 28.2874 26.6495 28.1874 26.8703C28.2249 26.737 28.0123 26.7953 28.204 26.537C28.2207 26.5162 28.2332 26.5245 28.2165 26.5787L28.2832 26.3995C28.2832 26.0287 28.0415 26.5287 27.9582 26.4453C27.9707 26.5162 28.0123 26.512 27.9498 26.6287L27.8623 26.5745L27.929 26.4287L27.8165 26.2953L27.7749 26.4911C27.7374 26.3745 27.8165 26.0453 27.654 26.287C27.5707 26.4245 27.6374 26.562 27.5457 26.5953C27.4957 26.437 27.4207 26.2037 27.3248 26.1078C27.2665 26.3245 27.2373 26.3037 27.1915 26.337L27.2499 26.1537C27.0415 26.3662 27.3374 25.737 27.1499 25.8995L27.204 25.7745L27.0457 26.1453C26.8165 26.4703 27.1123 25.7453 26.8248 26.1995C26.8832 26.1828 26.7124 26.6078 26.679 26.512L26.754 26.3412C26.7082 26.3662 26.6707 26.437 26.6624 26.3953C26.7124 26.3078 26.7582 26.1412 26.6998 26.1578L26.8082 25.9495L26.6082 26.2412C26.604 26.0287 26.4082 26.2245 26.4665 25.9661C26.4665 25.9661 26.3582 25.7912 26.229 26.0537C26.3165 25.8953 26.2582 25.8037 26.3499 25.612C26.2457 25.7912 26.0748 25.9078 26.0998 25.687L26.1165 25.6662C26.0207 25.3995 25.7249 25.8453 25.6624 25.537C25.5915 25.7495 25.554 25.6078 25.4748 25.8828C25.2165 26.0912 25.3915 25.2328 25.0248 26.037C24.9373 26.0537 25.0124 25.812 24.9915 25.7537L25.0248 25.7162C24.8665 25.7328 24.8249 25.7245 24.729 25.6703C24.6499 25.7328 24.4915 26.112 24.4374 25.9828C24.5249 25.8412 24.479 25.8578 24.4457 25.8412C24.4749 25.8245 24.504 25.7703 24.4999 25.6536C24.4749 25.6995 24.454 25.7245 24.4374 25.7453C24.4415 25.7328 24.4415 25.7245 24.4499 25.7078C24.3749 25.7411 24.3665 25.7912 24.3832 25.8203C24.3748 25.8412 24.3623 25.8745 24.354 25.9203C24.3748 25.6995 24.1874 25.8703 24.2832 25.6078C24.0915 25.6037 23.8665 25.8245 23.6832 25.8703C23.7207 25.7287 23.804 25.6245 23.8623 25.5912L23.7457 25.5995C23.8249 25.4078 23.8457 25.512 23.8915 25.487C23.8999 25.1287 23.5249 25.6995 23.504 25.3578L23.4123 25.4995V25.4703C23.3832 25.5495 23.304 25.6453 23.2749 25.6662C23.3249 25.4912 23.4373 25.2828 23.3623 25.2661C23.3748 25.0828 23.1748 25.2828 23.0707 25.3453C23.0957 25.3911 23.0457 25.4787 23.004 25.5287C22.9665 25.5203 23.0207 25.3453 22.9624 25.4037L23.054 25.1787C22.979 25.3953 22.8707 25.3703 22.8165 25.4537C22.8665 25.2787 22.929 25.3328 22.9915 25.212C22.8457 25.1745 22.9207 25.1953 22.7749 25.1578C22.629 25.2953 22.6957 25.3745 22.5749 25.5578C22.4915 25.5745 22.3623 25.7037 22.3457 25.537L22.2832 25.7453C22.0957 25.8453 22.0332 25.7911 22.0415 25.5536C21.229 26.1578 20.9248 26.6787 20.8332 27.0578C20.7415 27.437 20.8623 27.6662 20.8623 27.6662C21.0373 28.2703 21.4915 27.7787 21.9957 27.812V27.7828Z" fill="#20BB65"/>
<path d="M42.3291 29.9872L42.3458 30.0789C42.3499 30.0372 42.3458 29.9997 42.3291 29.9872Z" fill="#20BB65"/>
<path d="M49.958 30.7829C49.958 30.7829 49.9622 30.7704 49.9663 30.7621C49.9622 30.7704 49.958 30.7746 49.958 30.7829Z" fill="#20BB65"/>
<path d="M43.1121 33.1497C43.1121 33.1497 43.1038 33.1622 43.0996 33.1705L43.1121 33.1497Z" fill="#20BB65"/>
<path d="M41.5828 32.6996C41.9786 32.8663 42.0328 33.2954 42.4786 33.1829C42.6786 33.2413 42.9078 33.1746 43.112 33.1496C43.2453 32.8371 43.3745 33.1788 43.5203 32.9204L43.5411 33.1121C43.5911 33.0246 43.6453 32.9663 43.6703 33.0705L43.662 33.1246C43.737 32.9913 43.7911 33.083 43.8286 33.0163L43.8203 33.0705L43.8911 33.0538L43.8703 33.1288C43.987 32.9954 44.0911 32.9955 44.1745 33.0746L44.1953 32.8496C44.3578 33.1204 44.487 32.6663 44.6245 32.9829L44.6161 33.0371C44.9036 32.4746 44.9203 33.4788 45.212 32.9454C45.1745 33.0121 45.212 33.0621 45.2036 33.1163C45.3161 33.0663 45.4328 33.0455 45.4828 32.6038C45.5578 32.6205 45.5286 32.7496 45.5203 32.9204C45.5411 32.7288 45.6161 32.6538 45.6786 32.6496L45.6411 32.7204L45.8203 32.6746V32.3079C45.9036 32.4204 45.7995 32.7538 45.8995 32.6746L45.9328 32.3746C46.0495 32.4454 46.0745 32.9121 46.1745 33.1455C46.6703 33.3288 47.287 32.6163 47.7078 33.1913V33.4204C47.6828 33.7538 47.8828 32.9455 47.8703 33.2496L47.9411 33.1038C47.9494 33.1663 47.9786 33.2288 47.9411 33.3038C47.9911 33.3205 47.9953 33.2663 48.0411 33.1705L48.0745 33.383C48.2578 33.5621 48.4661 33.183 48.6703 33.2788C48.8869 33.7205 49.3953 33.3788 49.687 33.1746C50.112 32.7121 50.4536 34.0663 50.8953 33.5329C50.9036 33.5788 50.9453 33.4788 50.9495 33.4413L51.3078 33.5163C51.3078 33.5163 51.7453 33.5788 52.037 33.2871C52.3328 32.9954 52.4745 32.3496 51.9203 30.9288L51.9328 30.858C51.7495 30.6663 51.6328 30.6204 51.4703 30.9746C51.4828 30.5288 51.312 30.9163 51.2786 30.7704L51.287 30.7329C51.1411 31.0663 51.0661 30.4288 50.9286 30.7288C50.937 30.6955 50.9495 30.5705 50.9745 30.5663C50.887 30.6163 50.7661 30.7038 50.7786 30.4454C50.5744 30.4954 50.3078 30.3538 50.1453 30.7579L50.162 30.6871C50.0661 30.9579 50.0661 30.7205 49.9703 30.8538C49.9703 30.8205 49.9661 30.8038 49.9703 30.7871C49.8661 31.0579 49.737 30.8121 49.662 30.9246L49.6745 30.7538L49.512 30.7788L49.5661 30.8204C49.5036 31.2913 49.4745 30.5163 49.3328 30.808C49.2328 30.7371 49.0286 31.7704 48.937 31.5288C48.862 31.7454 49.0161 31.1746 48.9203 31.3371C48.9411 31.0913 48.9703 31.1871 48.9703 30.9871C48.8828 31.0955 48.8661 30.7246 48.7536 30.883L48.7661 30.6913C48.6078 31.0288 48.5536 30.4163 48.4411 30.7413C48.2953 30.8871 48.4078 30.1621 48.237 30.5246L48.2078 30.2621C48.1536 30.2163 48.137 30.5746 48.0828 30.4454C48.1036 30.2829 48.0161 30.308 48.0661 30.158C47.9495 29.8871 47.737 30.4913 47.5911 30.0413C47.5203 30.3538 47.4411 30.158 47.387 30.3913C47.3953 30.2538 47.1995 30.3496 47.337 30.0621C47.3495 30.0371 47.3661 30.0455 47.3578 30.0996L47.3911 29.9121C47.3203 29.5454 47.1745 30.0871 47.0745 30.0205C47.0995 30.0871 47.1453 30.0746 47.1036 30.1996L47.0078 30.1621L47.0453 30.0038L46.9078 29.8955V30.0954C46.8453 29.9871 46.8536 29.6496 46.7453 29.9205C46.6911 30.0705 46.787 30.1913 46.7036 30.2454C46.6203 30.1038 46.4995 29.883 46.3828 29.8121C46.3703 30.033 46.3369 30.0204 46.2994 30.0621L46.3161 29.8705C46.1578 30.1205 46.3161 29.4454 46.162 29.6413L46.187 29.5079L46.1078 29.9038C45.9495 30.2704 46.087 29.4996 45.8995 30.0038C45.9536 29.9788 45.8786 30.4288 45.8245 30.3371L45.862 30.1538C45.8245 30.1871 45.8036 30.2663 45.7828 30.2246C45.8161 30.1288 45.8245 29.9579 45.7703 29.9829L45.8286 29.7538L45.6953 30.0829C45.6411 29.8746 45.4953 30.1121 45.4953 29.8455C45.4953 29.8455 45.3495 29.6996 45.2786 29.9829C45.3328 29.8079 45.2495 29.733 45.2995 29.5246C45.2328 29.7205 45.0911 29.8704 45.0661 29.6496L45.0786 29.6246C44.9203 29.3829 44.7286 29.8871 44.5995 29.6038C44.5786 29.8288 44.5078 29.6954 44.4953 29.9829C44.2911 30.2454 44.2578 29.3663 44.0869 30.2371C44.0036 30.2746 44.0203 30.0205 43.987 29.9705L44.012 29.9246C43.8578 29.9788 43.8161 29.983 43.7078 29.9496C43.6453 30.0288 43.5828 30.4329 43.4995 30.3246C43.5495 30.1663 43.5078 30.1913 43.4703 30.1871C43.4953 30.1663 43.512 30.1079 43.4786 29.9913C43.4661 30.0413 43.4495 30.0704 43.437 30.0954C43.437 30.0829 43.437 30.0746 43.437 30.0538C43.3703 30.1038 43.3745 30.1538 43.3995 30.1788C43.3953 30.2038 43.3911 30.2371 43.3995 30.283C43.362 30.0663 43.2244 30.2746 43.2536 29.9955C43.0661 30.0371 42.8994 30.3079 42.7328 30.3954C42.7328 30.2496 42.7869 30.1288 42.8369 30.0788L42.7245 30.1163C42.7536 29.9121 42.7995 30.008 42.8411 29.9705C42.7578 29.6205 42.537 30.2663 42.4286 29.9413L42.3745 30.0996V30.0704C42.3578 30.1579 42.3078 30.2704 42.2828 30.2954C42.2828 30.1121 42.3411 29.8829 42.2661 29.8829C42.2328 29.7038 42.087 29.9454 41.9995 30.0329C42.037 30.0704 42.0078 30.1663 41.9828 30.2288C41.9453 30.2288 41.9495 30.0496 41.9078 30.1204L41.937 29.8788C41.9203 30.1079 41.8078 30.1121 41.7786 30.208C41.7786 30.0246 41.8578 30.0621 41.887 29.9288C41.737 29.9288 41.812 29.9288 41.662 29.9288C41.5578 30.0996 41.6453 30.158 41.5786 30.3663C41.5036 30.4038 41.412 30.5621 41.3495 30.4079V30.6246C41.1911 30.7705 41.112 30.7371 41.0578 30.5079C39.8203 32.1121 40.5036 32.8621 40.5036 32.8621C40.8286 33.3955 41.1203 32.7996 41.6078 32.6954L41.5828 32.6996Z" fill="#20BB65"/>
<path d="M61.958 31.4078L61.9872 31.4995C61.9872 31.4578 61.9788 31.4203 61.958 31.4078Z" fill="#20BB65"/>
<path d="M69.6543 31.437C69.6543 31.437 69.6543 31.4245 69.6626 31.4161C69.6584 31.4245 69.6543 31.4286 69.6543 31.437Z" fill="#20BB65"/>
<path d="M63.0747 34.4535C63.0747 34.4535 63.0706 34.466 63.0664 34.4743L63.0747 34.4535Z" fill="#20BB65"/>
<path d="M61.5164 34.1952C61.9247 34.3077 62.0247 34.7285 62.4539 34.5619C62.658 34.5994 62.8747 34.5036 63.0747 34.4536C63.1747 34.1286 63.3372 34.4535 63.4539 34.1785L63.4955 34.366C63.5372 34.2744 63.583 34.2077 63.6205 34.3119V34.366C63.6788 34.2244 63.7414 34.3119 63.7705 34.2411V34.2952L63.8372 34.2702L63.8247 34.3494C63.9289 34.1994 64.0289 34.191 64.1205 34.2619V34.0369C64.308 34.2911 64.3872 33.8244 64.558 34.1244V34.1785C64.7872 33.5869 64.8997 34.5869 65.1372 34.0244C65.108 34.0952 65.1497 34.141 65.1455 34.1952C65.2497 34.1327 65.3664 34.0994 65.3705 33.6577C65.4455 33.666 65.433 33.7952 65.4372 33.966C65.4372 33.7744 65.508 33.691 65.5664 33.6827L65.5372 33.7577L65.708 33.6952L65.6788 33.3286C65.7663 33.4327 65.6955 33.7744 65.783 33.6869V33.3827C65.9122 33.4452 65.9789 33.9035 66.0997 34.1244C66.6039 34.2577 67.1539 33.491 67.6205 34.0285L67.6414 34.2577C67.6497 34.591 67.7747 33.766 67.7914 34.0744L67.8455 33.9244C67.8622 33.9827 67.8913 34.0494 67.8663 34.1202C67.9163 34.1327 67.9164 34.0786 67.9539 33.9786L68.008 34.1869C68.208 34.3494 68.3789 33.9536 68.5872 34.0327C68.8372 34.4577 69.3163 34.0744 69.5872 33.8494C69.9705 33.3577 70.4247 34.6827 70.8164 34.1161C70.8289 34.1619 70.8622 34.0577 70.8622 34.0202L71.2247 34.0702C71.2247 34.0702 72.9705 34.2119 71.6247 31.4494L71.633 31.3786C71.4372 31.1994 71.3122 31.1619 71.1789 31.5244C71.1539 31.0785 71.0164 31.4785 70.9705 31.3327V31.2952C70.858 31.6369 70.7289 31.0077 70.6122 31.316C70.6164 31.2827 70.6164 31.1577 70.6455 31.1494C70.5622 31.2035 70.4497 31.3035 70.4413 31.0452C70.2413 31.1119 69.9622 30.9911 69.833 31.4036L69.8413 31.3327C69.7705 31.6119 69.7455 31.3744 69.6664 31.516C69.6622 31.4827 69.658 31.466 69.658 31.4494C69.5789 31.7244 69.4247 31.4911 69.3622 31.6077V31.4369L69.1997 31.4744L69.258 31.5119C69.2372 31.9869 69.1372 31.2119 69.0247 31.5202C68.9164 31.4577 68.8039 32.5035 68.6914 32.2702C68.6372 32.491 68.7372 31.9119 68.658 32.0786C68.658 31.8327 68.6955 31.9244 68.6747 31.7244C68.5955 31.841 68.5455 31.4702 68.4497 31.6369V31.4452C68.3205 31.7952 68.208 31.191 68.1247 31.5244C67.9955 31.6827 68.0414 30.9536 67.9039 31.3286L67.8539 31.0661C67.7955 31.0244 67.8122 31.3869 67.7455 31.2577C67.7497 31.0952 67.6664 31.1244 67.7039 30.9702C67.5622 30.7119 67.408 31.3327 67.2205 30.8952C67.1789 31.216 67.083 31.0244 67.0497 31.2619C67.0455 31.1244 66.858 31.2369 66.9664 30.9369C66.9747 30.9119 66.9914 30.916 66.9914 30.9702L67.0038 30.7827C66.8997 30.4244 66.8038 30.9785 66.6955 30.9202C66.7288 30.9827 66.7705 30.9661 66.7414 31.0952L66.6413 31.0702L66.6622 30.9119L66.5122 30.816L66.533 31.0119C66.4622 30.9119 66.4372 30.5744 66.3538 30.8536C66.3163 31.0077 66.4205 31.1202 66.3414 31.1827C66.2455 31.0494 66.0997 30.8452 65.9789 30.7827C65.9872 31.0036 65.9539 30.9952 65.9205 31.0411V30.8494C65.783 31.116 65.8747 30.4244 65.7414 30.6369L65.7538 30.5035L65.7164 30.9077C65.5914 31.2869 65.658 30.5077 65.5205 31.0285C65.5747 30.9952 65.5414 31.4535 65.4747 31.3702L65.4914 31.1827C65.4539 31.2202 65.4413 31.2994 65.4205 31.2619C65.4413 31.1619 65.433 30.991 65.383 31.0244L65.4205 30.791L65.3163 31.1327C65.2413 30.9327 65.1205 31.1827 65.0914 30.9202C65.0914 30.9202 64.9289 30.791 64.8872 31.0785C64.9247 30.8994 64.833 30.8327 64.8622 30.6202C64.8164 30.8202 64.6872 30.9869 64.6414 30.7702L64.6497 30.7452C64.4664 30.5244 64.3288 31.0452 64.1663 30.7744C64.1663 30.9994 64.083 30.8744 64.0997 31.1619C63.9205 31.441 63.7955 30.5785 63.7164 31.4619C63.6372 31.5077 63.6289 31.2535 63.5872 31.2077L63.608 31.1619C63.458 31.2327 63.4163 31.2411 63.308 31.2202C63.2538 31.3077 63.233 31.7161 63.1414 31.6161C63.1747 31.4536 63.1372 31.4827 63.0997 31.4827C63.1247 31.4577 63.133 31.3994 63.0872 31.2869C63.0789 31.3369 63.0664 31.3702 63.058 31.3952C63.058 31.3827 63.058 31.3744 63.058 31.3536C62.9955 31.4119 63.0039 31.4619 63.033 31.4827C63.033 31.5077 63.033 31.5411 63.0414 31.5869C62.983 31.3744 62.8663 31.5994 62.8622 31.3202C62.6788 31.3827 62.5414 31.6744 62.383 31.7785C62.3705 31.6327 62.408 31.5077 62.4539 31.4494L62.3455 31.4994C62.3497 31.291 62.4122 31.3785 62.4455 31.341C62.3247 31.0035 62.1705 31.6744 62.0288 31.366L61.9955 31.5285L61.9872 31.4994C61.9872 31.5869 61.9497 31.7035 61.9247 31.7327C61.908 31.5535 61.9372 31.3161 61.8622 31.3286C61.808 31.1536 61.6913 31.4161 61.6122 31.5119C61.6538 31.5411 61.6372 31.641 61.6163 31.7077C61.5788 31.7119 61.5622 31.5327 61.533 31.6119V31.366C61.5455 31.5952 61.433 31.6119 61.4164 31.7119C61.3997 31.5327 61.4789 31.5577 61.4914 31.4202C61.3414 31.441 61.4164 31.4327 61.2664 31.4536C61.183 31.6369 61.2747 31.6827 61.2288 31.8994C61.158 31.9452 61.083 32.116 61.008 31.9702L61.0289 32.1869C60.8914 32.3536 60.8122 32.3286 60.7288 32.1077C59.683 33.8619 60.4497 34.516 60.4497 34.516C60.8289 34.9994 61.0497 34.3702 61.5205 34.2035L61.5164 34.1952Z" fill="#20BB65"/>
<path d="M81.7158 31.2953L81.7492 31.3828C81.7492 31.3411 81.7367 31.3078 81.7158 31.2953Z" fill="#20BB65"/>
<path d="M89.4404 31.0368C89.4404 31.0368 89.4446 31.0243 89.4488 31.016C89.4446 31.0243 89.4404 31.0285 89.4404 31.0368Z" fill="#20BB65"/>
<path d="M82.9908 34.295C82.9908 34.295 82.9866 34.3075 82.9824 34.32L82.9908 34.295Z" fill="#20BB65"/>
<path d="M81.4284 34.0953C81.8409 34.1911 81.9618 34.6078 82.3784 34.4245C82.5826 34.4536 82.7951 34.3495 82.9909 34.2953C83.0743 33.9661 83.2493 34.2828 83.3534 34.0036L83.4034 34.187C83.4368 34.0911 83.4826 34.0286 83.5243 34.1245V34.1786C83.5784 34.037 83.6451 34.1203 83.6701 34.0453V34.0995L83.7368 34.0745L83.7284 34.1536C83.8243 34.0036 83.9243 33.987 84.0201 34.0536L84.0076 33.8286C84.2076 34.0745 84.2659 33.6078 84.4493 33.8995V33.9536C84.6534 33.3536 84.8076 34.3453 85.0201 33.7786C84.9951 33.8495 85.0368 33.8953 85.0368 33.9495C85.1409 33.8828 85.2493 33.8453 85.2409 33.4036C85.3159 33.4036 85.3076 33.5411 85.3201 33.712C85.3159 33.5203 85.3784 33.437 85.4368 33.4245L85.4118 33.4995L85.5784 33.4286L85.5326 33.0661C85.6243 33.1703 85.5701 33.512 85.6534 33.4203L85.6451 33.1161C85.7701 33.1703 85.8576 33.6286 85.9868 33.8495C86.4951 33.962 87.0118 33.1786 87.4951 33.6953L87.5243 33.9203C87.5409 34.2536 87.6409 33.4245 87.6659 33.7328L87.7159 33.5786C87.7326 33.637 87.7659 33.6995 87.7409 33.7745C87.7909 33.787 87.7909 33.7328 87.8243 33.6286L87.8826 33.8328C88.0868 33.987 88.2451 33.5828 88.4534 33.6578C88.7159 34.0703 89.1784 33.6703 89.4451 33.437C89.8118 32.9286 90.2993 34.237 90.6743 33.6578C90.6868 33.7036 90.7201 33.5995 90.7159 33.5578L91.0743 33.5953C91.0743 33.5953 92.8201 33.6703 91.4159 30.962L91.4243 30.8911C91.2243 30.7203 91.0993 30.687 90.9743 31.0536C90.9409 30.6078 90.8118 31.012 90.7618 30.8703V30.8328C90.6534 31.1786 90.5118 30.5536 90.4034 30.8661C90.4034 30.8286 90.4034 30.7078 90.4326 30.6995C90.3493 30.7578 90.2368 30.862 90.2243 30.6036C90.0243 30.6786 89.7409 30.5661 89.6243 30.9828L89.6326 30.912C89.5659 31.1953 89.5368 30.9578 89.4618 31.0995C89.4576 31.0661 89.4493 31.0495 89.4493 31.0328C89.3784 31.312 89.2159 31.0828 89.1576 31.2036L89.1493 31.0328L88.9909 31.0786L89.0534 31.112C89.0451 31.587 88.9243 30.8203 88.8159 31.1286C88.7076 31.0703 88.6243 32.1203 88.5076 31.8911C88.4618 32.1161 88.5451 31.5286 88.4701 31.7036C88.4618 31.4578 88.5034 31.5495 88.4784 31.3495C88.4034 31.4703 88.3409 31.0995 88.2493 31.2703L88.2409 31.0786C88.1243 31.4328 87.9951 30.8328 87.9201 31.1703C87.7951 31.3328 87.8159 30.5995 87.6909 30.9828L87.6326 30.7245C87.5743 30.6828 87.5993 31.0453 87.5326 30.9203C87.5326 30.7578 87.4493 30.7911 87.4826 30.6328C87.3284 30.3828 87.1993 31.0078 86.9909 30.5786C86.9576 30.8995 86.8576 30.712 86.8326 30.9536C86.8243 30.8161 86.6368 30.937 86.7368 30.6328C86.7451 30.6078 86.7618 30.612 86.7618 30.6661L86.7701 30.4745C86.6493 30.1203 86.5784 30.6786 86.4659 30.6245C86.4993 30.687 86.5409 30.6703 86.5159 30.7995L86.4159 30.7786L86.4326 30.6203L86.2784 30.5328L86.3034 30.7286C86.2284 30.6286 86.1909 30.2953 86.1159 30.5786C86.0826 30.737 86.1951 30.8411 86.1159 30.9078C86.0159 30.7745 85.8618 30.5786 85.7326 30.5245C85.7493 30.7453 85.7159 30.7411 85.6826 30.787L85.6743 30.5953C85.5493 30.8661 85.6118 30.1745 85.4868 30.3911L85.4951 30.2578L85.4701 30.662C85.3618 31.0495 85.3951 30.262 85.2784 30.7911C85.3284 30.7578 85.3159 31.2161 85.2493 31.1328L85.2618 30.9453C85.2284 30.987 85.2159 31.062 85.1909 31.0245C85.2076 30.9245 85.1909 30.7536 85.1409 30.787L85.1701 30.5536L85.0826 30.8995C84.9993 30.7036 84.8868 30.9578 84.8493 30.6953C84.8493 30.6953 84.6826 30.5703 84.6534 30.862C84.6826 30.6828 84.5868 30.6161 84.6076 30.4078C84.5701 30.612 84.4493 30.7786 84.3951 30.5661L84.4034 30.5411C84.2118 30.3286 84.0951 30.8495 83.9201 30.5911C83.9326 30.8161 83.8409 30.6953 83.8743 30.9828C83.7076 31.2703 83.5409 30.412 83.5034 31.2953C83.4243 31.3453 83.4034 31.0911 83.3618 31.0453L83.3784 30.9995C83.2326 31.0745 83.1909 31.087 83.0784 31.0703C83.0284 31.1578 83.0284 31.5703 82.9284 31.4745C82.9534 31.312 82.9159 31.3411 82.8784 31.3411C82.8993 31.3161 82.9076 31.2536 82.8534 31.1453C82.8493 31.1953 82.8368 31.2286 82.8284 31.2536C82.8284 31.2411 82.8284 31.2328 82.8284 31.212C82.7701 31.2703 82.7826 31.3203 82.8118 31.3453C82.8118 31.3703 82.8118 31.4036 82.8243 31.4453C82.7534 31.237 82.6493 31.4661 82.6326 31.1828C82.4493 31.2536 82.3284 31.5453 82.1784 31.662C82.1576 31.5161 82.1909 31.3911 82.2326 31.3328L82.1243 31.387C82.1201 31.1786 82.1826 31.2661 82.2159 31.2245C82.0784 30.8911 81.9576 31.5661 81.7993 31.262L81.7743 31.4286L81.7659 31.4036C81.7659 31.4911 81.7368 31.6078 81.7159 31.637C81.6909 31.4578 81.7034 31.2203 81.6326 31.2328C81.5701 31.062 81.4659 31.3245 81.3909 31.4245C81.4326 31.4536 81.4243 31.5536 81.4076 31.6203C81.3701 31.6286 81.3451 31.4495 81.3159 31.5245L81.3034 31.2786C81.3243 31.5078 81.2118 31.5286 81.2034 31.6286C81.1784 31.4495 81.2576 31.4703 81.2618 31.3328C81.1118 31.362 81.1868 31.3453 81.0368 31.3745C80.9618 31.562 81.0576 31.6036 81.0243 31.8203C80.9534 31.8703 80.8909 32.0411 80.8034 31.8995L80.8368 32.1161C80.7076 32.287 80.6284 32.2661 80.5326 32.0495C79.5909 33.8411 80.3951 34.4661 80.3951 34.4661C80.7993 34.9328 80.9826 34.2953 81.4409 34.1162L81.4284 34.0953Z" fill="#20BB65"/>
<path d="M101.533 30.7789L101.567 30.8706C101.567 30.8289 101.558 30.7914 101.533 30.7789Z" fill="#20BB65"/>
<path d="M109.283 30.6955C109.283 30.6955 109.287 30.683 109.292 30.6747C109.287 30.683 109.283 30.6872 109.283 30.6955Z" fill="#20BB65"/>
<path d="M102.762 33.808C102.762 33.808 102.758 33.8205 102.754 33.8288L102.762 33.808Z" fill="#20BB65"/>
<path d="M101.208 33.5704C101.616 33.6788 101.733 34.0954 102.15 33.9246C102.35 33.9579 102.562 33.8579 102.758 33.8079C102.845 33.4788 103.016 33.7996 103.125 33.5246L103.17 33.7079C103.208 33.6121 103.25 33.5496 103.291 33.6496V33.7038C103.345 33.5621 103.408 33.6454 103.437 33.5746V33.6288L103.504 33.6038L103.491 33.6829C103.587 33.5329 103.691 33.5246 103.783 33.5913L103.774 33.3663C103.97 33.6163 104.037 33.1496 104.212 33.4454V33.4996C104.425 32.9038 104.562 33.8996 104.783 33.3371C104.754 33.4079 104.795 33.4538 104.795 33.5079C104.9 33.4413 105.012 33.4079 105.008 32.9663C105.083 32.9704 105.07 33.1038 105.083 33.2746C105.083 33.0829 105.145 32.9996 105.208 32.9871L105.183 33.0621L105.354 32.9955L105.316 32.6288C105.408 32.733 105.341 33.0746 105.429 32.9829V32.6788C105.55 32.7371 105.629 33.1954 105.75 33.4163C106.25 33.5413 106.787 32.7663 107.258 33.2954L107.279 33.5246C107.287 33.8579 107.408 33.0329 107.425 33.3413L107.479 33.1913C107.495 33.2496 107.525 33.3121 107.5 33.3871C107.55 33.3996 107.55 33.3454 107.587 33.2454L107.641 33.4496C107.841 33.6079 108.008 33.2079 108.216 33.2871C108.466 33.7079 108.937 33.3163 109.212 33.0871C109.595 32.5871 110.033 33.9079 110.429 33.3371C110.441 33.3829 110.475 33.2788 110.475 33.2413L110.833 33.2871C110.833 33.2871 112.57 33.4038 111.274 30.6621L111.283 30.5913C111.087 30.4163 110.962 30.3788 110.825 30.7454C110.808 30.2996 110.662 30.6996 110.616 30.5579V30.5205C110.5 30.8663 110.374 30.2371 110.258 30.5455C110.262 30.508 110.266 30.3871 110.291 30.3788C110.208 30.4371 110.091 30.5371 110.087 30.2746C109.883 30.3454 109.604 30.2246 109.47 30.6413L109.479 30.5704C109.404 30.8496 109.383 30.6121 109.3 30.7538C109.295 30.7205 109.291 30.7038 109.291 30.6871C109.208 30.9621 109.058 30.7329 108.991 30.8496V30.6788L108.829 30.7204L108.887 30.7579C108.866 31.2329 108.766 30.4621 108.65 30.7704C108.541 30.7121 108.429 31.7579 108.316 31.5246C108.262 31.7454 108.362 31.1621 108.283 31.3329C108.283 31.0871 108.32 31.1788 108.3 30.9788C108.22 31.0954 108.17 30.7288 108.075 30.8954V30.7038C107.945 31.058 107.833 30.4538 107.745 30.7871C107.616 30.9454 107.658 30.2163 107.52 30.5954L107.466 30.3371C107.408 30.2955 107.425 30.6579 107.358 30.5329C107.358 30.3704 107.275 30.4038 107.312 30.2454C107.166 29.9913 107.016 30.6121 106.82 30.1788C106.779 30.4996 106.683 30.3079 106.65 30.5496C106.645 30.4121 106.454 30.5288 106.562 30.2246C106.57 30.1996 106.587 30.2038 106.587 30.2579L106.6 30.0704C106.487 29.7121 106.4 30.2704 106.291 30.2121C106.325 30.2746 106.366 30.2579 106.337 30.3871L106.237 30.3621L106.258 30.2038L106.108 30.1121L106.129 30.3079C106.054 30.2079 106.029 29.8704 105.945 30.1538C105.908 30.3121 106.016 30.4204 105.937 30.4829C105.837 30.3496 105.691 30.1454 105.562 30.0913C105.575 30.3121 105.541 30.3038 105.508 30.3496V30.158C105.37 30.4288 105.45 29.733 105.32 29.9496L105.333 29.8163L105.3 30.2204C105.183 30.6038 105.233 29.8204 105.104 30.3454C105.158 30.3121 105.133 30.7704 105.066 30.6871L105.083 30.4996C105.045 30.5371 105.037 30.6163 105.012 30.5788C105.033 30.4788 105.02 30.3079 104.97 30.3413L105.004 30.1079L104.908 30.4496C104.829 30.2496 104.708 30.4996 104.675 30.2413C104.675 30.2413 104.508 30.1121 104.475 30.3996C104.508 30.2204 104.416 30.1538 104.437 29.9454C104.395 30.1496 104.27 30.3121 104.22 30.0996L104.229 30.0746C104.041 29.8579 103.912 30.3788 103.741 30.1121C103.75 30.3371 103.662 30.2163 103.687 30.4996C103.516 30.7829 103.362 29.9204 103.312 30.8038C103.233 30.8538 103.216 30.5954 103.174 30.5538L103.191 30.5079C103.045 30.5829 103 30.5913 102.891 30.5704C102.837 30.6579 102.833 31.0663 102.733 30.9704C102.762 30.8079 102.725 30.8371 102.687 30.8371C102.712 30.8121 102.716 30.7496 102.666 30.6413C102.662 30.6913 102.65 30.7246 102.641 30.7496C102.641 30.7371 102.641 30.7246 102.641 30.7079C102.579 30.7663 102.591 30.8163 102.62 30.8371C102.62 30.8621 102.62 30.8954 102.633 30.9413C102.566 30.7288 102.454 30.9579 102.445 30.6746C102.262 30.7413 102.133 31.0329 101.983 31.1413C101.962 30.9954 101.995 30.8704 102.041 30.8121L101.933 30.8663C101.933 30.6579 101.995 30.7455 102.025 30.7038C101.891 30.3705 101.762 31.0413 101.604 30.7329L101.575 30.8954L101.566 30.8663C101.566 30.9538 101.537 31.0704 101.512 31.0996C101.487 30.9204 101.508 30.6829 101.433 30.6954C101.37 30.5204 101.266 30.7829 101.187 30.8829C101.229 30.9121 101.216 31.0121 101.2 31.0788C101.162 31.0871 101.137 30.9038 101.108 30.9829L101.1 30.7371C101.116 30.9663 101.004 30.9871 100.995 31.0871C100.97 30.9079 101.05 30.9329 101.058 30.7954C100.908 30.8204 100.983 30.808 100.833 30.833C100.754 31.0163 100.854 31.0621 100.816 31.2788C100.745 31.3288 100.679 31.4954 100.595 31.3496L100.624 31.5663C100.495 31.7371 100.416 31.7121 100.32 31.4913C99.3662 33.2621 100.158 33.9038 100.158 33.9038C100.554 34.3788 100.745 33.7496 101.204 33.5746L101.208 33.5704Z" fill="#20BB65"/>
<path d="M121.416 30.9994L121.441 31.0911C121.441 31.0494 121.437 31.0119 121.416 30.9994Z" fill="#20BB65"/>
<path d="M129.175 31.5368C129.175 31.5368 129.179 31.5243 129.183 31.516C129.179 31.5243 129.175 31.5285 129.175 31.5368Z" fill="#20BB65"/>
<path d="M122.433 34.0953C122.433 34.0953 122.429 34.1079 122.425 34.1162L122.437 34.0953H122.433Z" fill="#20BB65"/>
<path d="M120.904 33.7703C121.304 33.8994 121.387 34.3244 121.816 34.1786C122.012 34.2244 122.233 34.1411 122.429 34.0994C122.541 33.7786 122.687 34.1119 122.812 33.8411L122.845 34.0286C122.887 33.9369 122.937 33.8744 122.97 33.9786V34.0328C123.029 33.8953 123.087 33.9828 123.12 33.9161V33.9703L123.183 33.9494L123.166 34.0244C123.274 33.8828 123.374 33.8786 123.462 33.9536L123.47 33.7286C123.645 33.9911 123.745 33.5328 123.899 33.8411V33.8953C124.149 33.3161 124.212 34.3203 124.474 33.7744C124.441 33.8411 124.474 33.8911 124.474 33.9453C124.583 33.8869 124.695 33.8619 124.729 33.4203C124.804 33.4328 124.779 33.5619 124.779 33.7328C124.791 33.5411 124.862 33.4661 124.924 33.4578L124.891 33.5286L125.066 33.4744L125.058 33.1078C125.141 33.2203 125.049 33.5536 125.141 33.4703L125.162 33.1703C125.283 33.2369 125.32 33.6995 125.424 33.9328C125.912 34.0995 126.508 33.3703 126.929 33.9411V34.1703C126.912 34.5036 127.099 33.6911 127.091 33.9994L127.158 33.8536C127.166 33.912 127.195 33.9786 127.158 34.0536C127.208 34.0703 127.212 34.0161 127.258 33.9203L127.295 34.1286C127.479 34.3036 127.679 33.9203 127.879 34.0203C128.091 34.4619 128.591 34.1203 128.883 33.9203C129.312 33.4619 129.62 34.8203 130.062 34.2953C130.07 34.3453 130.112 34.2411 130.116 34.2036L130.466 34.2869C130.466 34.2869 130.891 34.3661 131.191 34.0828C131.491 33.8036 131.674 33.162 131.162 31.7203L131.179 31.6494C130.999 31.4536 130.879 31.3994 130.708 31.7494C130.733 31.3036 130.549 31.687 130.52 31.537L130.529 31.4994C130.374 31.8286 130.312 31.1911 130.162 31.4828C130.17 31.4494 130.187 31.3244 130.212 31.3203C130.12 31.3661 129.995 31.4536 130.016 31.1953C129.808 31.2411 129.537 31.0953 129.366 31.4953L129.383 31.4244C129.283 31.6953 129.283 31.4578 129.187 31.5911C129.187 31.5578 129.183 31.5369 129.187 31.5244C129.079 31.7911 128.949 31.5453 128.874 31.6578L128.887 31.4869L128.724 31.512L128.783 31.5536C128.716 32.0244 128.691 31.2453 128.545 31.5411C128.441 31.4703 128.237 32.5036 128.145 32.2619C128.07 32.4786 128.224 31.9078 128.129 32.0703C128.149 31.8244 128.179 31.9203 128.179 31.7203C128.091 31.8286 128.07 31.4578 127.962 31.6161L127.974 31.4244C127.816 31.7619 127.758 31.1494 127.645 31.4786C127.499 31.6244 127.608 30.8994 127.437 31.2661L127.408 31.0036C127.354 30.9578 127.341 31.3161 127.287 31.1869C127.304 31.0244 127.216 31.0494 127.266 30.8994C127.141 30.6328 126.937 31.2369 126.779 30.7911C126.712 31.1078 126.629 30.9078 126.579 31.1453C126.583 31.0078 126.387 31.1078 126.52 30.8161C126.533 30.7911 126.549 30.7994 126.541 30.8536L126.57 30.6661C126.487 30.2994 126.354 30.8453 126.249 30.7828C126.279 30.8495 126.32 30.8328 126.283 30.9619L126.183 30.9286L126.216 30.7703L126.07 30.6661V30.8661C126.008 30.7578 126.008 30.4244 125.904 30.6953C125.854 30.8494 125.954 30.9661 125.87 31.0203C125.783 30.8786 125.649 30.6661 125.529 30.5953C125.524 30.8161 125.491 30.8078 125.454 30.8494L125.462 30.6578C125.308 30.9161 125.445 30.2328 125.295 30.4328L125.316 30.2994L125.254 30.6994C125.108 31.0703 125.216 30.2953 125.045 30.8078C125.099 30.7786 125.041 31.2328 124.983 31.1453L125.012 30.9619C124.974 30.9994 124.958 31.0744 124.933 31.0369C124.962 30.9369 124.962 30.7661 124.908 30.7953L124.958 30.5661L124.833 30.8994C124.77 30.6953 124.629 30.9369 124.616 30.6744C124.616 30.6744 124.458 30.5369 124.404 30.8203C124.449 30.6453 124.362 30.5703 124.404 30.3619C124.345 30.5619 124.208 30.7161 124.174 30.4994L124.187 30.4744C124.012 30.2411 123.845 30.7536 123.695 30.4744C123.687 30.6994 123.608 30.5703 123.612 30.8578C123.42 31.1286 123.329 30.2578 123.212 31.1369C123.129 31.1786 123.133 30.9244 123.091 30.8786L123.112 30.8328C122.958 30.8953 122.916 30.9036 122.808 30.8744C122.749 30.9578 122.716 31.3661 122.624 31.2619C122.666 31.0994 122.624 31.1286 122.587 31.1286C122.612 31.1036 122.624 31.0453 122.583 30.9328C122.574 30.9828 122.562 31.0119 122.549 31.0369C122.549 31.0244 122.549 31.0161 122.549 30.9953C122.483 31.0494 122.491 31.0994 122.52 31.1244C122.52 31.1494 122.52 31.1828 122.52 31.2286C122.47 31.0161 122.341 31.2328 122.349 30.9536C122.162 31.0078 122.012 31.2911 121.854 31.3911C121.845 31.2453 121.887 31.1203 121.933 31.0661L121.82 31.1119C121.833 30.9036 121.891 30.9953 121.924 30.9578C121.812 30.6161 121.637 31.2786 121.504 30.9619L121.462 31.1244L121.454 31.0953C121.454 31.1828 121.408 31.2994 121.387 31.3244C121.374 31.1411 121.412 30.9078 121.333 30.9161C121.283 30.7369 121.158 30.9953 121.074 31.0869C121.116 31.1203 121.095 31.2203 121.074 31.2828C121.037 31.2828 121.024 31.1036 120.991 31.1828L120.999 30.937C120.999 31.1661 120.887 31.1786 120.87 31.2786C120.858 31.0953 120.937 31.1245 120.954 30.9911C120.799 31.0078 120.879 30.9995 120.724 31.0161C120.637 31.1953 120.724 31.2453 120.679 31.4578C120.604 31.5036 120.529 31.6703 120.454 31.5161L120.47 31.7328C120.329 31.8953 120.249 31.8661 120.17 31.6411C119.099 33.3578 119.854 34.037 119.854 34.037C120.216 34.5328 120.445 33.9119 120.916 33.7661L120.904 33.7703Z" fill="#20BB65"/>
<path d="M141.288 33.5536V33.6494C141.305 33.6077 141.305 33.5744 141.288 33.5536Z" fill="#20BB65"/>
<path d="M148.68 36.6535C148.68 36.6535 148.688 36.6452 148.696 36.641C148.688 36.641 148.684 36.6493 148.68 36.6535Z" fill="#20BB65"/>
<path d="M141.542 36.7953C141.542 36.7953 141.533 36.8078 141.529 36.8161L141.546 36.7953H141.542Z" fill="#20BB65"/>
<path d="M140.188 36.1453C140.538 36.3536 140.517 36.7869 140.95 36.7327C141.125 36.8202 141.346 36.7869 141.538 36.7953C141.721 36.5078 141.771 36.8661 141.958 36.6369L141.938 36.8244C142 36.7453 142.063 36.6994 142.067 36.8077L142.046 36.8577C142.142 36.7411 142.175 36.8411 142.221 36.7827L142.2 36.8327H142.271L142.233 36.8994C142.371 36.7911 142.467 36.8119 142.525 36.9036L142.592 36.6911C142.679 36.9869 142.9 36.5744 142.954 36.9119L142.933 36.9619C143.338 36.4786 143.1 37.4536 143.5 37.0077C143.45 37.0619 143.467 37.1202 143.446 37.1702C143.563 37.1452 143.671 37.1536 143.838 36.7453C143.904 36.7786 143.838 36.8953 143.788 37.0578C143.858 36.8786 143.95 36.8286 144.004 36.8369L143.95 36.8952H144.125L144.233 36.5494C144.275 36.6786 144.083 36.9702 144.196 36.9202L144.313 36.6411C144.4 36.7453 144.288 37.1911 144.304 37.4411C144.679 37.7452 145.483 37.2619 145.646 37.9452L145.563 38.1577C145.421 38.4577 145.892 37.7744 145.771 38.0536L145.888 37.9411C145.875 37.9994 145.871 38.0703 145.813 38.1244C145.85 38.1578 145.875 38.1119 145.95 38.0369L145.9 38.2452C145.988 38.4744 146.317 38.1911 146.45 38.3619C146.45 38.8411 147.021 38.7244 147.363 38.6661C147.933 38.4536 147.579 39.8036 148.192 39.5286C148.175 39.5744 148.263 39.5036 148.283 39.4702L148.542 39.6994C148.542 39.6994 148.867 39.9536 149.263 39.8411C149.654 39.7286 150.154 39.2744 150.388 37.7744L150.438 37.7202C150.371 37.4619 150.279 37.3578 149.958 37.5786C150.192 37.1994 149.846 37.4452 149.888 37.2994L149.913 37.2702C149.617 37.4869 149.854 36.8911 149.583 37.0786C149.608 37.0536 149.675 36.9494 149.704 36.9619C149.6 36.9619 149.446 36.9744 149.579 36.7536C149.367 36.6952 149.183 36.4286 148.85 36.7036L148.896 36.6494C148.683 36.8452 148.792 36.6286 148.646 36.7036C148.658 36.6702 148.663 36.6536 148.671 36.6411C148.458 36.8286 148.438 36.5536 148.321 36.6161L148.404 36.4661L148.242 36.4161L148.275 36.4786C148.017 36.8786 148.317 36.1577 148.058 36.3619C147.988 36.2536 147.375 37.1078 147.392 36.8494C147.238 37.0161 147.608 36.5578 147.454 36.6661C147.571 36.4494 147.563 36.5494 147.642 36.3661C147.513 36.4286 147.646 36.0786 147.479 36.1786L147.567 36.0077C147.283 36.2536 147.467 35.6661 147.229 35.9244C147.038 36.0036 147.413 35.3744 147.113 35.6411L147.183 35.3827C147.146 35.3161 147 35.6494 146.996 35.5036C147.075 35.3577 146.979 35.3494 147.083 35.2286C147.058 34.9286 146.642 35.4161 146.646 34.9369C146.467 35.2077 146.458 34.9911 146.325 35.1952C146.379 35.0661 146.15 35.0869 146.383 34.8619C146.404 34.8452 146.417 34.8536 146.392 34.9036L146.483 34.7369C146.529 34.3619 146.208 34.8244 146.125 34.7244C146.129 34.7952 146.179 34.7994 146.096 34.9077L146.008 34.8411L146.096 34.7036L145.988 34.5536L145.925 34.7411C145.896 34.6161 146.004 34.2994 145.813 34.5202C145.713 34.6452 145.771 34.7953 145.671 34.8161C145.629 34.6536 145.571 34.3994 145.467 34.2953C145.392 34.5036 145.363 34.4827 145.308 34.5119L145.379 34.3327C145.146 34.5244 145.496 33.9203 145.283 34.0619L145.346 33.9411L145.158 34.2994C144.896 34.6036 145.246 33.9036 144.921 34.3327C144.983 34.3244 144.783 34.7369 144.754 34.6327L144.842 34.4661C144.792 34.4869 144.75 34.5577 144.742 34.5119C144.8 34.4286 144.854 34.2661 144.792 34.2744L144.913 34.0702L144.688 34.3494C144.688 34.1328 144.475 34.3202 144.542 34.0661C144.542 34.0661 144.425 33.8827 144.288 34.1369C144.383 33.9827 144.317 33.8869 144.417 33.6994C144.304 33.8744 144.121 33.9827 144.146 33.7619L144.163 33.7411C144.05 33.4661 143.746 33.9077 143.667 33.5994C143.6 33.8119 143.554 33.6661 143.479 33.9452C143.217 34.1536 143.354 33.2869 143.008 34.1036C142.917 34.1244 142.983 33.8786 142.958 33.8202L142.992 33.7827C142.821 33.8036 142.779 33.7994 142.675 33.7411C142.596 33.8036 142.463 34.1911 142.396 34.0702C142.475 33.9244 142.429 33.9411 142.396 33.9286C142.425 33.9119 142.45 33.8577 142.438 33.7369C142.417 33.7827 142.396 33.8077 142.379 33.8327C142.379 33.8202 142.383 33.8119 142.392 33.7952C142.313 33.8327 142.308 33.8827 142.329 33.9119C142.321 33.9369 142.313 33.9661 142.308 34.0119C142.308 33.7911 142.129 33.9703 142.204 33.6994C142.004 33.7036 141.792 33.9411 141.608 34.0036C141.633 33.8619 141.704 33.7494 141.763 33.7077L141.642 33.7286C141.7 33.5286 141.738 33.6327 141.783 33.6036C141.75 33.2452 141.425 33.8494 141.363 33.5077L141.288 33.6577V33.6286C141.263 33.7119 141.196 33.8161 141.167 33.8369C141.196 33.6577 141.279 33.4369 141.204 33.4244C141.192 33.2411 141.013 33.4619 140.913 33.5369C140.946 33.5786 140.904 33.6702 140.871 33.7286C140.833 33.7244 140.858 33.5452 140.808 33.6119L140.867 33.3744C140.821 33.5994 140.704 33.5869 140.667 33.6786C140.692 33.4994 140.763 33.5452 140.808 33.4161C140.654 33.3994 140.729 33.4077 140.575 33.3911C140.45 33.5494 140.529 33.6161 140.438 33.8161C140.354 33.8452 140.246 33.9911 140.204 33.8286L140.175 34.0452C140.004 34.1744 139.933 34.1286 139.896 33.8952C139.2 34.6327 139.021 35.2119 139 35.5994C138.979 35.9869 139.125 36.1869 139.125 36.1869C139.371 36.7369 139.704 36.1744 140.183 36.1244L140.188 36.1453Z" fill="#20BB65"/>
<path d="M156.749 45.1871L156.674 45.2371C156.711 45.2205 156.745 45.2038 156.749 45.1871Z" fill="#20BB65"/>
<path d="M154.112 46.1038C154.078 46.308 153.703 46.4996 153.924 46.5954C153.924 46.6829 154.041 46.7288 154.116 46.7871C154.437 46.7163 154.153 46.8871 154.428 46.8413L154.258 46.9163C154.353 46.8996 154.416 46.8996 154.328 46.9455L154.278 46.9621C154.42 46.9413 154.349 46.9913 154.42 46.9829L154.37 46.9996L154.403 47.0205L154.328 47.0371C154.483 47.0329 154.503 47.0705 154.449 47.1246L154.662 47.058C154.445 47.208 154.899 47.1038 154.637 47.258L154.583 47.2704C155.178 47.2038 154.228 47.5163 154.799 47.4621C154.728 47.4663 154.687 47.4954 154.637 47.5079C154.712 47.5329 154.753 47.5705 155.183 47.4663C155.183 47.4996 155.053 47.5246 154.891 47.5705C155.078 47.5246 155.162 47.5329 155.183 47.5579H155.108L155.187 47.6205L155.541 47.5246C155.449 47.5871 155.108 47.633 155.203 47.6496L155.499 47.5829C155.453 47.6538 155.016 47.783 154.803 47.8788C154.716 48.1038 155.52 48.208 155.02 48.4913L154.795 48.533C154.466 48.583 155.291 48.5204 154.987 48.5704H155.141C155.083 48.5871 155.02 48.608 154.945 48.608C154.937 48.6288 154.991 48.6246 155.091 48.6288L154.891 48.6788C154.745 48.7788 155.145 48.8038 155.074 48.9038C154.666 49.0496 155.066 49.208 155.299 49.3163C155.803 49.4705 154.491 49.6996 155.058 49.8496C155.012 49.8538 155.116 49.8705 155.153 49.8705L155.108 50.0246C155.108 50.0246 155.07 50.208 155.378 50.3371C155.687 50.458 156.341 50.5788 157.724 50.2788L157.795 50.2871C157.974 50.1871 158.016 50.1163 157.649 50.0413C158.095 50.033 157.695 49.9538 157.841 49.933H157.878C157.537 49.8705 158.162 49.7996 157.858 49.7371C157.895 49.7371 158.016 49.7371 158.024 49.7538C157.97 49.708 157.866 49.6496 158.128 49.6371C158.058 49.5288 158.17 49.3663 157.758 49.3163H157.828C157.549 49.2913 157.787 49.2663 157.641 49.233C157.674 49.2288 157.691 49.2246 157.708 49.2246C157.428 49.1954 157.658 49.1038 157.537 49.0746L157.708 49.0621L157.662 48.9788L157.628 49.0121C157.153 49.0371 157.92 48.9246 157.612 48.8871C157.666 48.8204 156.62 48.8579 156.845 48.7829C156.62 48.7788 157.208 48.7746 157.033 48.7496C157.278 48.7246 157.187 48.7538 157.383 48.7246C157.262 48.6955 157.628 48.633 157.458 48.5955L157.649 48.5746C157.295 48.5454 157.887 48.4163 157.549 48.4121C157.383 48.3621 158.112 48.2955 157.728 48.2705L157.983 48.2079C158.02 48.1704 157.662 48.2288 157.783 48.1746C157.945 48.1538 157.908 48.1121 158.062 48.1121C158.308 47.9913 157.678 48.0038 158.091 47.8288C157.77 47.858 157.949 47.7746 157.712 47.7955C157.849 47.7705 157.716 47.6871 158.024 47.6955C158.049 47.6955 158.045 47.7079 157.991 47.7163L158.178 47.6913C158.52 47.5705 157.966 47.6121 158.008 47.5455C157.949 47.5746 157.97 47.5955 157.841 47.6038L157.853 47.5455L158.012 47.5288L158.087 47.4288L157.895 47.4788C157.987 47.4204 158.312 47.3413 158.028 47.3496C157.87 47.3579 157.774 47.4413 157.708 47.408C157.828 47.3288 158.012 47.208 158.053 47.1246C157.837 47.1788 157.841 47.158 157.791 47.1496L157.978 47.108C157.699 47.0913 158.387 46.9871 158.162 46.9621L158.295 46.9371L157.899 47.0079C157.512 47.0288 158.278 46.8788 157.758 46.9288C157.795 46.9496 157.349 47.0413 157.42 46.9871L157.603 46.9538C157.562 46.9455 157.483 46.9538 157.52 46.9329C157.62 46.9204 157.783 46.8746 157.745 46.8538L157.974 46.8163L157.628 46.8455C157.812 46.7538 157.553 46.7538 157.799 46.6704C157.799 46.6704 157.899 46.5496 157.616 46.6038C157.795 46.5746 157.845 46.5079 158.053 46.4663C157.853 46.4954 157.674 46.4704 157.874 46.3871H157.899C158.083 46.2204 157.558 46.2955 157.787 46.1288C157.574 46.1996 157.674 46.1163 157.408 46.2121C157.112 46.208 157.912 45.8663 157.058 46.108C156.999 46.083 157.237 45.9955 157.274 45.9621H157.32C157.224 45.9038 157.212 45.883 157.212 45.8205C157.12 45.8205 156.733 45.9496 156.808 45.8705C156.966 45.833 156.933 45.8205 156.924 45.8038C156.953 45.8038 157.012 45.7913 157.103 45.7288C157.053 45.7413 157.024 45.7455 156.995 45.7496C157.008 45.7455 157.016 45.7413 157.033 45.7371C156.966 45.7246 156.92 45.7496 156.903 45.7705C156.878 45.7788 156.849 45.7913 156.808 45.808C156.995 45.7038 156.762 45.7246 157.024 45.6246C156.928 45.5538 156.633 45.5913 156.503 45.5538C156.633 45.4913 156.762 45.4621 156.82 45.4663L156.749 45.433C156.941 45.358 156.874 45.4204 156.92 45.4204C157.208 45.2329 156.553 45.4121 156.812 45.2205L156.653 45.2663L156.678 45.2496C156.599 45.283 156.483 45.3121 156.453 45.3121C156.616 45.233 156.841 45.1538 156.812 45.1205C156.962 45.0246 156.695 45.0705 156.591 45.0705C156.57 45.1038 156.478 45.1371 156.416 45.1538C156.403 45.1371 156.562 45.058 156.487 45.0746L156.712 44.9746C156.503 45.0746 156.462 45.0246 156.37 45.0579C156.533 44.9746 156.524 45.0246 156.653 44.9746C156.599 44.9121 156.628 44.9413 156.574 44.8788C156.391 44.9163 156.366 44.9788 156.162 45.0496C156.103 45.0371 155.933 45.0746 156.049 44.9746L155.858 45.0746C155.678 45.083 155.683 45.0413 155.858 44.9038C154.953 45.0579 154.412 45.3205 154.083 45.5163C153.753 45.7163 153.641 45.858 153.641 45.858C153.278 46.2038 153.878 46.008 154.116 46.1205L154.112 46.1038Z" fill="#20BB65"/>
</svg>
