<svg width="169" height="108" viewBox="0 0 169 108" fill="none" xmlns="http://www.w3.org/2000/svg">
<path d="M157.15 0.973389L157.075 1.0359C157.113 1.01507 157.146 0.990055 157.15 0.973389Z" fill="#20BB65"/>
<path d="M159.163 4.55253C159.163 4.55253 159.176 4.55252 159.184 4.54419C159.176 4.54419 159.167 4.5442 159.163 4.55253Z" fill="#20BB65"/>
<path d="M154.613 3.13574C154.613 3.13574 154.6 3.13992 154.588 3.14408L154.613 3.13574Z" fill="#20BB65"/>
<path d="M154.454 2.29837C154.454 2.5442 154.087 2.81503 154.354 2.91503C154.371 3.02336 154.517 3.0692 154.612 3.1317C154.942 3.00254 154.683 3.24834 154.967 3.15251L154.804 3.26919C154.9 3.23585 154.971 3.22333 154.887 3.29416L154.837 3.32335C154.983 3.27335 154.921 3.34835 154.996 3.32335L154.946 3.3525L154.987 3.37335L154.912 3.40667C155.079 3.37333 155.112 3.41503 155.071 3.49003L155.279 3.36918C155.092 3.59001 155.546 3.3775 155.312 3.61083L155.262 3.64002C155.875 3.42752 154.971 4.01083 155.554 3.81916C155.479 3.84416 155.45 3.88587 155.396 3.91087C155.483 3.92337 155.542 3.95668 155.958 3.72751C155.971 3.76501 155.846 3.8275 155.687 3.92333C155.871 3.82333 155.962 3.81084 155.987 3.83168L155.908 3.8567L156.012 3.89836L156.35 3.69419C156.275 3.79003 155.937 3.93584 156.042 3.93167L156.325 3.77334C156.3 3.86084 155.887 4.13168 155.708 4.30251C155.708 4.59834 156.575 4.44835 156.192 4.93585L155.983 5.06082C155.671 5.23582 156.479 4.86918 156.196 5.03168L156.354 4.97751C156.3 5.01501 156.25 5.06085 156.171 5.08585C156.171 5.11501 156.225 5.08586 156.329 5.05253L156.146 5.18167C156.042 5.3525 156.462 5.22753 156.437 5.36503C156.1 5.6942 156.587 5.71086 156.871 5.72336C157.437 5.64836 156.292 6.51504 156.929 6.41087C156.887 6.44004 156.996 6.40251 157.033 6.38167L157.079 6.5692C157.079 6.5692 157.396 7.42752 159.687 5.45669L159.758 5.42337C159.875 5.2442 159.879 5.16917 159.5 5.28584C159.921 5.0525 159.5 5.18585 159.629 5.09419L159.667 5.0775C159.308 5.19417 159.875 4.81917 159.554 4.91917C159.587 4.9025 159.708 4.84416 159.721 4.85249C159.646 4.83999 159.521 4.83583 159.767 4.70249C159.65 4.64416 159.692 4.45249 159.267 4.59833L159.337 4.56501C159.054 4.67335 159.275 4.54002 159.117 4.57335C159.146 4.55252 159.162 4.5442 159.175 4.53587C158.892 4.64004 159.075 4.44836 158.946 4.47753L159.108 4.38999L159.029 4.33583L159.008 4.3817C158.554 4.61087 159.258 4.17337 158.937 4.27754C158.967 4.19837 157.946 4.67751 158.137 4.50667C157.912 4.59417 158.492 4.34417 158.308 4.39417C158.542 4.26917 158.467 4.3317 158.646 4.22337C158.517 4.24837 158.854 4.03582 158.671 4.07332L158.854 3.97333C158.487 4.09416 159.033 3.73166 158.692 3.86499C158.508 3.88582 159.212 3.53166 158.821 3.66083L159.054 3.50249C159.079 3.45249 158.742 3.64832 158.846 3.55249C159.004 3.46916 158.95 3.44836 159.104 3.38586C159.308 3.18586 158.683 3.43586 159.046 3.12336C158.733 3.2692 158.887 3.12337 158.654 3.23587C158.783 3.16087 158.625 3.13587 158.937 3.02754C158.962 3.0192 158.962 3.02751 158.912 3.05668L159.096 2.96503C159.404 2.72753 158.858 2.97334 158.883 2.89418C158.833 2.94001 158.858 2.95252 158.729 3.00668V2.94834L158.883 2.87749L158.933 2.76086L158.754 2.87332C158.829 2.78582 159.142 2.60253 158.854 2.7067C158.696 2.7692 158.621 2.87749 158.542 2.87332C158.642 2.75665 158.796 2.58586 158.821 2.49419C158.612 2.61502 158.612 2.5942 158.562 2.60253L158.742 2.50253C158.454 2.5817 159.129 2.26083 158.896 2.30666L159.025 2.2442L158.637 2.43585C158.246 2.57752 158.996 2.19832 158.471 2.40666C158.517 2.41499 158.075 2.63999 158.137 2.56499L158.317 2.47751C158.271 2.47751 158.196 2.51502 158.225 2.48585C158.325 2.44418 158.483 2.34836 158.437 2.34003L158.667 2.23586L158.321 2.36917C158.487 2.2275 158.221 2.3025 158.462 2.1525C158.462 2.1525 158.542 2.0067 158.262 2.14004C158.437 2.06087 158.479 1.98582 158.683 1.88582C158.483 1.97332 158.296 1.99835 158.483 1.86502L158.508 1.85668C158.667 1.65251 158.142 1.86501 158.35 1.64835C158.142 1.76918 158.233 1.66503 157.971 1.82336C157.662 1.89003 158.433 1.36918 157.592 1.80668C157.525 1.79418 157.762 1.65253 157.796 1.61086L157.846 1.59418C157.742 1.56501 157.721 1.54834 157.712 1.48584C157.617 1.50667 157.229 1.71915 157.3 1.62332C157.462 1.55249 157.421 1.54833 157.412 1.53167C157.442 1.53167 157.5 1.50249 157.592 1.41916C157.542 1.44416 157.512 1.45254 157.483 1.46504C157.496 1.4567 157.504 1.45252 157.521 1.44418C157.45 1.44418 157.408 1.47752 157.392 1.50252C157.367 1.51502 157.337 1.5317 157.3 1.56086C157.479 1.4192 157.242 1.48584 157.5 1.33168C157.392 1.28168 157.087 1.37337 156.946 1.36087C157.075 1.27754 157.204 1.22333 157.267 1.215L157.192 1.19419C157.387 1.08169 157.321 1.16087 157.367 1.15254C157.646 0.915037 156.987 1.20668 157.233 0.973348L157.071 1.04837L157.096 1.03169C157.017 1.07752 156.896 1.12752 156.862 1.13168C157.025 1.02335 157.25 0.91086 157.221 0.881694C157.367 0.76086 157.096 0.848344 156.983 0.865011C156.967 0.902511 156.867 0.948348 156.804 0.973348C156.787 0.960848 156.95 0.852527 156.871 0.881694L157.096 0.748332C156.883 0.877498 156.837 0.83586 156.742 0.881694C156.904 0.77336 156.9 0.82334 157.029 0.756673C156.971 0.69834 157 0.727523 156.942 0.669189C156.75 0.731689 156.729 0.798326 156.521 0.898326C156.458 0.889992 156.283 0.952533 156.4 0.835866L156.204 0.965007C156.012 0.994173 156.017 0.944202 156.2 0.785868C154.308 1.28587 153.904 1.99416 153.904 1.99416C153.554 2.43166 154.192 2.18166 154.467 2.30249L154.454 2.29837Z" fill="#20BB65"/>
<path d="M164.013 15.0649L163.934 15.1316C163.975 15.115 164.009 15.0941 164.013 15.0649Z" fill="#20BB65"/>
<path d="M161.075 15.7942C161.121 16.2276 160.738 16.4942 161.063 16.8359C161.104 17.0401 161.275 17.2151 161.396 17.3859C161.758 17.3526 161.496 17.6317 161.808 17.6401L161.638 17.7484C161.746 17.7484 161.825 17.7692 161.738 17.8442L161.683 17.8609C161.846 17.8609 161.783 17.9568 161.863 17.9609L161.808 17.9776L161.858 18.0359L161.775 18.0526C161.963 18.0942 162.004 18.1901 161.967 18.3026L162.192 18.2151C162.004 18.4942 162.5 18.3942 162.254 18.6734L162.2 18.6901C162.879 18.6984 161.908 19.1692 162.554 19.1984C162.475 19.1984 162.442 19.2484 162.383 19.2651C162.483 19.3443 162.554 19.4442 163.004 19.2942C163.025 19.3734 162.883 19.4026 162.713 19.4693C162.908 19.4026 163.013 19.4401 163.046 19.4942H162.963L163.088 19.6401L163.45 19.4859C163.371 19.6109 163 19.6567 163.121 19.7151L163.429 19.6151C163.408 19.7609 162.963 19.9817 162.771 20.1734C162.796 20.7067 163.754 20.9984 163.342 21.6276L163.113 21.7151C162.771 21.8234 163.658 21.6942 163.346 21.8026L163.517 21.8109C163.458 21.8443 163.404 21.8942 163.317 21.8901C163.317 21.9442 163.375 21.9276 163.488 21.9359L163.288 22.0526C163.175 22.2942 163.638 22.3442 163.613 22.5776C163.242 22.9484 163.771 23.3026 164.075 23.5151C164.692 23.7692 163.421 24.5526 164.104 24.7984C164.058 24.8234 164.175 24.8317 164.217 24.8192L164.25 25.1901C164.25 25.1901 164.313 25.6318 164.7 25.8318C165.088 26.0276 165.804 26.0109 167.104 25.0068L167.183 24.9984C167.325 24.7484 167.333 24.6109 166.921 24.5526C167.383 24.4234 166.929 24.3734 167.071 24.2901H167.108C166.721 24.2442 167.35 23.9568 166.996 23.9109C167.033 23.9068 167.163 23.8776 167.179 23.9068C167.1 23.8318 166.967 23.7359 167.238 23.6651C167.117 23.4692 167.167 23.1443 166.7 23.1151L166.779 23.1067C166.467 23.1067 166.713 23.0193 166.542 22.9693C166.575 22.9568 166.592 22.9442 166.608 22.9401C166.3 22.9317 166.5 22.7067 166.363 22.6734L166.542 22.6234L166.454 22.4692L166.433 22.5401C165.933 22.6484 166.708 22.3318 166.358 22.2984C166.392 22.1693 165.275 22.3484 165.483 22.1692C165.238 22.1776 165.871 22.1151 165.671 22.0818C165.925 22.0068 165.842 22.0776 166.042 21.9984C165.9 21.9526 166.267 21.7942 166.067 21.7401L166.267 21.6817C165.867 21.6526 166.458 21.3609 166.088 21.3734C165.883 21.2859 166.654 21.1151 166.225 21.0859L166.479 20.9526C166.504 20.8776 166.138 21.0067 166.246 20.9026C166.417 20.8567 166.354 20.7776 166.529 20.7693C166.75 20.5401 166.063 20.5734 166.45 20.2401C166.108 20.2942 166.271 20.1359 166.017 20.1817C166.158 20.1317 165.979 19.9734 166.325 19.9901C166.354 19.9901 166.354 20.0109 166.296 20.0276L166.496 19.9817C166.829 19.7567 166.229 19.8359 166.254 19.7067C166.2 19.7609 166.229 19.7984 166.088 19.8109V19.6984L166.254 19.6692L166.3 19.4859L166.104 19.5692C166.183 19.4609 166.521 19.3234 166.204 19.3317C166.033 19.3442 165.954 19.4901 165.867 19.4318C165.971 19.2859 166.133 19.0692 166.15 18.9192C165.925 19.0067 165.925 18.9693 165.867 18.9484L166.063 18.8817C165.746 18.8317 166.479 18.6901 166.217 18.6234L166.358 18.5901L165.933 18.6901C165.5 18.6984 166.321 18.4901 165.742 18.5276C165.792 18.5692 165.317 18.6942 165.379 18.6026L165.575 18.5567C165.521 18.5317 165.438 18.5484 165.471 18.5109C165.579 18.4984 165.75 18.4318 165.7 18.3859L165.95 18.3442L165.567 18.3609C165.746 18.2151 165.446 18.1776 165.704 18.0526C165.704 18.0526 165.779 17.8401 165.471 17.9026C165.663 17.8734 165.7 17.7568 165.925 17.7109C165.704 17.7359 165.492 17.6651 165.692 17.5401H165.721C165.879 17.2734 165.304 17.3234 165.513 17.0567C165.288 17.1442 165.379 17.0109 165.096 17.1359C164.746 17.0651 165.571 16.6068 164.654 16.8651C164.579 16.8026 164.829 16.6942 164.863 16.6359H164.917C164.792 16.5151 164.767 16.4734 164.746 16.3568C164.638 16.3318 164.221 16.4776 164.283 16.3443C164.458 16.3151 164.413 16.2859 164.4 16.2484C164.433 16.2609 164.496 16.2484 164.592 16.1567C164.538 16.1692 164.504 16.1692 164.475 16.1692C164.488 16.1651 164.496 16.1568 164.517 16.1526C164.438 16.1109 164.388 16.1442 164.375 16.1776C164.35 16.1859 164.317 16.1984 164.275 16.2276C164.463 16.0859 164.196 16.0568 164.475 15.9401C164.342 15.7776 164 15.7567 163.833 15.6484C163.971 15.5776 164.113 15.5609 164.188 15.5859L164.092 15.4984C164.3 15.4192 164.238 15.5151 164.292 15.5317C164.579 15.2734 163.854 15.3942 164.104 15.1234L163.929 15.1568L163.954 15.1359C163.867 15.1692 163.738 15.1817 163.7 15.1692C163.875 15.0776 164.121 15.0067 164.079 14.9359C164.229 14.8067 163.925 14.8026 163.796 14.7651C163.783 14.8192 163.675 14.8442 163.604 14.8526C163.583 14.8192 163.754 14.7234 163.667 14.7276L163.908 14.6276C163.683 14.7318 163.621 14.6276 163.517 14.6526C163.688 14.5609 163.696 14.6526 163.833 14.6026C163.75 14.4609 163.792 14.5317 163.713 14.3901C163.496 14.3817 163.488 14.4984 163.258 14.5442C163.183 14.4942 162.988 14.4942 163.1 14.3526L162.896 14.4651C162.675 14.4026 162.667 14.3151 162.85 14.1359C161.775 14.0067 161.154 14.2109 160.804 14.4359C160.454 14.6609 160.367 14.9151 160.367 14.9151C160.042 15.4817 160.746 15.4151 161.092 15.7984L161.075 15.7942Z" fill="#20BB65"/>
<path d="M168.166 35.894L168.07 35.9232C168.116 35.9232 168.154 35.9149 168.166 35.894Z" fill="#20BB65"/>
<path d="M167.004 44.2358C167.004 44.2358 167.016 44.2442 167.025 44.2484C167.021 44.24 167.012 44.2358 167.004 44.2358Z" fill="#20BB65"/>
<path d="M164.85 36.99C164.85 36.99 164.834 36.9817 164.825 36.9775L164.85 36.99Z" fill="#20BB65"/>
<path d="M165.171 35.4442C165.05 35.8525 164.587 35.9441 164.758 36.3733C164.716 36.5733 164.804 36.79 164.85 36.99C165.196 37.1066 164.841 37.2483 165.125 37.3775L164.921 37.4066C165.016 37.4525 165.083 37.5025 164.971 37.5317L164.912 37.5233C165.058 37.59 164.962 37.6483 165.037 37.6817L164.979 37.6733L165 37.7442L164.916 37.7275C165.066 37.84 165.071 37.9442 164.991 38.0275L165.233 38.04C164.946 38.2066 165.437 38.3275 165.1 38.4692L165.041 38.4608C165.654 38.7525 164.575 38.7608 165.146 39.0525C165.075 39.015 165.021 39.0525 164.962 39.04C165.017 39.1525 165.041 39.2691 165.512 39.3316C165.496 39.4066 165.358 39.3733 165.175 39.3608C165.383 39.3858 165.458 39.465 165.462 39.5275L165.387 39.49L165.433 39.6733L165.829 39.6942C165.704 39.7692 165.35 39.6525 165.433 39.7525L165.754 39.7984C165.671 39.915 165.171 39.9192 164.916 40.0025C164.708 40.4733 165.425 41.1608 164.766 41.5191L164.521 41.49C164.171 41.4275 165.012 41.7234 164.687 41.6734L164.837 41.7608C164.771 41.7608 164.696 41.7816 164.625 41.7358C164.6 41.7816 164.658 41.7942 164.754 41.8525L164.525 41.8608C164.312 42.015 164.696 42.2775 164.562 42.4608C164.058 42.5983 164.358 43.1525 164.512 43.4858C164.925 44.0108 163.433 44.04 163.9 44.5858C163.846 44.5858 163.946 44.6483 163.983 44.6608L163.825 44.9858C163.825 44.9858 163.654 45.3858 163.879 45.7567C164.108 46.1192 164.725 46.4984 166.358 46.3067L166.429 46.34C166.679 46.1983 166.762 46.0775 166.437 45.815C166.9 45.9442 166.537 45.6608 166.704 45.6608L166.741 45.6775C166.429 45.44 167.121 45.5108 166.841 45.29C166.875 45.3067 167 45.3483 167 45.3775C166.971 45.2691 166.904 45.1192 167.171 45.19C167.162 44.9567 167.379 44.69 166.983 44.4317L167.054 44.4608C166.783 44.3025 167.037 44.3483 166.916 44.2192C166.954 44.2233 166.975 44.2191 166.987 44.2275C166.725 44.065 167.008 43.9691 166.904 43.8691L167.083 43.9109V43.7317L167.029 43.7858C166.541 43.6358 167.371 43.7358 167.079 43.5317C167.171 43.4317 166.108 43.0483 166.379 42.99C166.162 42.8775 166.746 43.1275 166.587 43.0025C166.846 43.0608 166.741 43.0817 166.95 43.1067C166.85 42.9942 167.25 43.0317 167.096 42.89L167.3 42.9316C166.962 42.715 167.621 42.7358 167.291 42.5691C167.154 42.3941 167.912 42.6067 167.55 42.3733H167.837C167.896 42.3192 167.508 42.2608 167.658 42.215C167.829 42.2567 167.812 42.1567 167.971 42.2275C168.275 42.1233 167.65 41.8317 168.15 41.7108C167.821 41.6025 168.041 41.5358 167.796 41.4525C167.946 41.4733 167.854 41.2441 168.154 41.4233C168.179 41.44 168.171 41.4567 168.112 41.4442L168.312 41.4942C168.712 41.44 168.141 41.24 168.221 41.1317C168.15 41.1567 168.158 41.2067 168.025 41.1483L168.071 41.0442L168.237 41.0942L168.366 40.9442L168.154 40.9317C168.275 40.8692 168.637 40.8983 168.354 40.7608C168.196 40.6942 168.062 40.79 168.008 40.6983C168.166 40.615 168.408 40.4858 168.491 40.3567C168.254 40.3358 168.266 40.2983 168.225 40.2525L168.429 40.2775C168.166 40.09 168.887 40.29 168.683 40.1109L168.825 40.1442L168.4 40.0442C168.012 39.8567 168.837 40.0316 168.3 39.8108C168.329 39.8733 167.841 39.7775 167.941 39.7192L168.137 39.765C168.1 39.7192 168.021 39.6983 168.062 39.6775C168.166 39.715 168.35 39.7275 168.325 39.665L168.566 39.7358L168.216 39.5817C168.441 39.5233 168.187 39.3608 168.475 39.3567C168.475 39.3567 168.637 39.19 168.333 39.115C168.521 39.1733 168.604 39.0816 168.825 39.1358C168.612 39.065 168.45 38.9066 168.687 38.8733L168.712 38.8858C168.971 38.7025 168.425 38.5025 168.729 38.3441C168.487 38.3316 168.629 38.2441 168.316 38.2441C168.029 38.0316 168.966 37.9483 168.025 37.8067C167.979 37.7192 168.254 37.7233 168.308 37.6817L168.358 37.7067C168.291 37.54 168.287 37.4942 168.316 37.3733C168.229 37.3067 167.787 37.2692 167.9 37.1692C168.075 37.215 168.041 37.1692 168.046 37.1275C168.071 37.1525 168.137 37.165 168.258 37.1192C168.204 37.1067 168.171 37.0942 168.146 37.0817C168.158 37.0817 168.171 37.0817 168.187 37.0817C168.129 37.0108 168.075 37.0191 168.05 37.0483C168.025 37.0483 167.987 37.0483 167.941 37.0525C168.171 36.9983 167.937 36.8608 168.237 36.8692C168.179 36.665 167.875 36.5067 167.762 36.34C167.916 36.3275 168.054 36.3691 168.112 36.4233L168.058 36.3025C168.283 36.3108 168.183 36.3733 168.229 36.415C168.596 36.2858 167.879 36.1108 168.216 35.9566L168.041 35.9192L168.071 35.9108C167.979 35.9108 167.85 35.8691 167.821 35.8441C168.017 35.8275 168.271 35.8567 168.258 35.7733C168.446 35.7108 168.166 35.5858 168.062 35.5025C168.029 35.5483 167.921 35.5317 167.854 35.5108C167.85 35.4692 168.041 35.4483 167.958 35.4192H168.221C167.975 35.4317 167.954 35.3108 167.846 35.2942C168.041 35.2733 168.012 35.3609 168.158 35.3692C168.137 35.2067 168.146 35.2858 168.125 35.1233C167.929 35.0358 167.875 35.1358 167.646 35.0942C167.596 35.0192 167.412 34.9441 167.571 34.8566L167.337 34.8858C167.154 34.7442 167.179 34.6608 167.416 34.565C166.462 34.0483 165.812 34.0192 165.404 34.0983C164.996 34.1817 164.821 34.3775 164.821 34.3775C164.312 34.7692 164.992 34.965 165.167 35.4358L165.171 35.4442Z" fill="#20BB65"/>
<path d="M161.025 55.9484L160.929 55.915C160.966 55.9442 161 55.9609 161.025 55.9484Z" fill="#20BB65"/>
<path d="M155.212 61.99C155.212 61.99 155.216 62.0025 155.22 62.0108C155.22 62.0025 155.22 61.9942 155.212 61.99Z" fill="#20BB65"/>
<path d="M157.712 54.8483C157.712 54.8483 157.703 54.8357 157.699 54.8232L157.712 54.8483Z" fill="#20BB65"/>
<path d="M158.891 53.8024C158.545 54.0566 158.128 53.8566 158.007 54.2982C157.853 54.4274 157.795 54.6608 157.712 54.8483C157.92 55.1483 157.545 55.0482 157.699 55.3232L157.52 55.2274C157.57 55.3232 157.595 55.4024 157.486 55.3608L157.445 55.3191C157.524 55.4608 157.412 55.4524 157.449 55.5233L157.407 55.4816L157.382 55.5524L157.328 55.4899C157.382 55.6691 157.32 55.7524 157.207 55.7733L157.395 55.9274C157.062 55.8899 157.387 56.2816 157.032 56.1983L156.991 56.1566C157.307 56.7524 156.432 56.1191 156.72 56.6982C156.682 56.6274 156.62 56.6232 156.578 56.5816C156.557 56.7066 156.507 56.8149 156.849 57.1441C156.791 57.1941 156.699 57.0858 156.557 56.9691C156.707 57.1108 156.724 57.2191 156.691 57.2732L156.653 57.1982L156.582 57.3732L156.887 57.6232C156.741 57.6107 156.528 57.3066 156.532 57.4358L156.766 57.6608C156.628 57.7066 156.224 57.4191 155.97 57.3358C155.516 57.5941 155.695 58.5774 154.949 58.4899L154.766 58.3233C154.516 58.0691 155.028 58.7982 154.791 58.5691L154.861 58.7274C154.807 58.6899 154.736 58.6649 154.703 58.5858C154.657 58.6108 154.695 58.6524 154.741 58.7566L154.549 58.6316C154.286 58.6399 154.445 59.0733 154.228 59.1524C153.737 58.9858 153.653 59.6107 153.595 59.9774C153.637 60.6441 152.378 59.8399 152.457 60.5608C152.416 60.5316 152.457 60.6399 152.486 60.6691L152.17 60.8566C152.17 60.8566 151.799 61.1024 151.786 61.5399C151.774 61.9732 152.099 62.6149 153.566 63.3524L153.607 63.4191C153.891 63.4399 154.024 63.3899 153.895 62.9899C154.211 63.3524 154.061 62.9191 154.199 63.0108L154.22 63.0441C154.091 62.6732 154.62 63.1149 154.511 62.7816C154.532 62.8149 154.612 62.9191 154.595 62.9441C154.628 62.8399 154.657 62.6774 154.841 62.8899C154.962 62.6941 155.282 62.5982 155.103 62.1649L155.145 62.2316C155.011 61.9483 155.195 62.1316 155.162 61.9566C155.191 61.9816 155.207 61.9899 155.216 62.0024C155.091 61.7191 155.378 61.8024 155.349 61.6608L155.474 61.7982L155.578 61.6524L155.503 61.6649C155.186 61.2649 155.812 61.8232 155.691 61.4899C155.82 61.4607 155.166 60.5357 155.42 60.6441C155.303 60.4274 155.641 60.9691 155.582 60.7733C155.762 60.9691 155.661 60.9232 155.82 61.0691C155.799 60.9191 156.103 61.1816 156.061 60.9774L156.203 61.1274C156.053 60.7566 156.578 61.1566 156.403 60.8274C156.391 60.6066 156.891 61.2149 156.724 60.8191L156.957 60.9858C157.036 60.9774 156.757 60.7024 156.903 60.7566C157.02 60.8899 157.066 60.7982 157.149 60.9482C157.457 61.0399 157.116 60.4399 157.591 60.6357C157.386 60.3566 157.603 60.4316 157.449 60.2191C157.557 60.3232 157.62 60.0899 157.757 60.4066C157.77 60.4316 157.753 60.4399 157.712 60.3982L157.841 60.5566C158.195 60.7482 157.853 60.2524 157.978 60.2108C157.907 60.1858 157.887 60.2316 157.807 60.1108L157.903 60.0524L158.007 60.1899L158.195 60.1441L158.028 60.0107C158.162 60.0316 158.437 60.2691 158.291 59.9899C158.203 59.8441 158.036 59.8399 158.049 59.7358C158.228 59.7608 158.499 59.8024 158.641 59.7482C158.462 59.5899 158.495 59.5691 158.487 59.5066L158.637 59.6482C158.532 59.3399 158.999 59.9274 158.936 59.6649L159.032 59.7732L158.749 59.4441C158.545 59.0649 159.107 59.6899 158.803 59.1982C158.791 59.2649 158.453 58.9024 158.57 58.9149L158.703 59.0649C158.703 59.0066 158.649 58.9399 158.695 58.9524C158.757 59.0441 158.899 59.1607 158.912 59.0982L159.066 59.2982L158.874 58.9649C159.086 59.0524 158.982 58.7691 159.212 58.9357C159.212 58.9357 159.436 58.8982 159.236 58.6566C159.353 58.8149 159.474 58.7899 159.62 58.9649C159.495 58.7816 159.457 58.5607 159.666 58.6774L159.678 58.7024C159.995 58.7066 159.674 58.2233 160.012 58.2774C159.828 58.1233 159.991 58.1399 159.745 57.9524C159.645 57.6107 160.445 58.1066 159.774 57.4274C159.791 57.3274 160.007 57.4983 160.074 57.4941L160.099 57.5441C160.145 57.3691 160.17 57.3274 160.266 57.2524C160.232 57.1482 159.903 56.8566 160.053 56.8441C160.166 56.9816 160.17 56.9274 160.195 56.8982C160.199 56.9357 160.245 56.9816 160.37 57.0191C160.332 56.9774 160.316 56.9483 160.299 56.9233C160.311 56.9316 160.32 56.9357 160.332 56.9482C160.328 56.8566 160.278 56.8316 160.241 56.8399C160.22 56.8232 160.195 56.8024 160.149 56.7774C160.366 56.8691 160.257 56.6191 160.499 56.8066C160.574 56.6066 160.424 56.2983 160.436 56.0983C160.57 56.1816 160.653 56.2982 160.67 56.3732L160.699 56.2441C160.874 56.3858 160.757 56.3774 160.77 56.4357C161.141 56.5524 160.67 55.9816 161.028 56.0607L160.911 55.9233L160.941 55.9316C160.866 55.8733 160.791 55.7649 160.782 55.7274C160.949 55.8274 161.136 56.0066 161.178 55.9316C161.366 55.9941 161.22 55.7274 161.186 55.5982C161.132 55.6149 161.057 55.5357 161.016 55.4816C161.036 55.4441 161.203 55.5441 161.157 55.4691L161.37 55.6274C161.161 55.4899 161.22 55.3816 161.145 55.3024C161.316 55.4024 161.241 55.4524 161.349 55.5524C161.428 55.4066 161.391 55.4774 161.47 55.3357C161.366 55.1482 161.262 55.1982 161.103 55.0274C161.107 54.9357 161.007 54.7691 161.186 54.7899L160.982 54.6733C160.924 54.4524 160.991 54.3982 161.236 54.4607C160.774 53.4774 160.27 53.0691 159.891 52.8941C159.512 52.7149 159.257 52.7732 159.257 52.7732C158.616 52.7857 159.049 53.3399 158.912 53.8232L158.891 53.8024Z" fill="#20BB65"/>
<path d="M144.379 69.1441L144.304 69.0732C144.325 69.1107 144.35 69.1441 144.379 69.1441Z" fill="#20BB65"/>
<path d="M143.312 66.3108C142.887 66.4066 142.579 66.0567 142.279 66.4192C142.079 66.4817 141.929 66.6733 141.775 66.815C141.85 67.1733 141.541 66.94 141.571 67.2525L141.441 67.0941C141.45 67.2025 141.441 67.2858 141.358 67.2067L141.333 67.1525C141.35 67.315 141.25 67.265 141.258 67.3442L141.233 67.29L141.179 67.3442L141.154 67.265C141.133 67.4525 141.041 67.5108 140.929 67.4858L141.041 67.6983C140.741 67.5442 140.9 68.0275 140.596 67.8192L140.571 67.765C140.641 68.44 140.058 67.5275 140.108 68.1775C140.104 68.0984 140.041 68.0692 140.021 68.015C139.954 68.1233 139.862 68.2067 140.066 68.6358C139.991 68.665 139.946 68.5275 139.858 68.3692C139.946 68.5567 139.921 68.665 139.871 68.7025L139.862 68.6192L139.733 68.7567L139.933 69.0983C139.8 69.0358 139.708 68.6734 139.666 68.7984L139.804 69.0942C139.658 69.0942 139.383 68.6775 139.166 68.5108C138.637 68.6025 138.466 69.59 137.787 69.265L137.671 69.0483C137.516 68.7233 137.762 69.5858 137.612 69.29L137.625 69.4608C137.583 69.4108 137.525 69.3609 137.521 69.2734C137.466 69.2817 137.491 69.3358 137.5 69.4483L137.358 69.2692C137.1 69.1942 137.112 69.6567 136.879 69.6608C136.462 69.3483 136.175 69.9192 136.008 70.2525C135.841 70.8983 134.875 69.7608 134.729 70.4775C134.7 70.4358 134.708 70.5525 134.725 70.59L134.362 70.6817C134.362 70.6817 133.929 70.815 133.791 71.2317C133.654 71.6483 133.8 72.3483 134.996 73.4692L135.016 73.5442C135.279 73.6442 135.421 73.6358 135.408 73.215C135.608 73.6525 135.587 73.1983 135.687 73.3233L135.696 73.3608C135.675 72.9692 136.054 73.5483 136.046 73.1942C136.054 73.2317 136.104 73.3525 136.079 73.3733C136.141 73.2858 136.212 73.14 136.325 73.3941C136.496 73.2441 136.825 73.2483 136.779 72.7858L136.8 72.8609C136.758 72.5525 136.875 72.7817 136.9 72.6067C136.916 72.64 136.933 72.6525 136.937 72.6692C136.9 72.3608 137.15 72.5317 137.162 72.3858L137.237 72.5567L137.379 72.4525L137.304 72.44C137.125 71.9608 137.546 72.6858 137.533 72.3317C137.666 72.3442 137.333 71.265 137.537 71.4483C137.496 71.2067 137.646 71.8233 137.65 71.6233C137.758 71.865 137.679 71.7942 137.783 71.9775C137.808 71.8275 138.016 72.1733 138.041 71.9692L138.129 72.1567C138.104 71.7567 138.471 72.3067 138.408 71.94C138.466 71.7275 138.741 72.465 138.708 72.0359L138.871 72.2692C138.946 72.2858 138.775 71.9359 138.891 72.0317C138.958 72.1942 139.029 72.1275 139.058 72.2942C139.312 72.4859 139.187 71.8067 139.566 72.1483C139.466 71.815 139.646 71.9608 139.566 71.7108C139.633 71.8442 139.766 71.6483 139.791 71.99C139.791 72.0191 139.775 72.0192 139.754 71.9692L139.825 72.1608C140.091 72.465 139.933 71.8816 140.062 71.8858C140.004 71.84 139.971 71.8733 139.937 71.7358L140.046 71.715L140.096 71.8817L140.283 71.9067L140.175 71.7234C140.291 71.79 140.466 72.1067 140.421 71.7942C140.387 71.6233 140.233 71.565 140.283 71.4691C140.437 71.5566 140.675 71.69 140.825 71.69C140.712 71.4775 140.75 71.4692 140.762 71.4109L140.854 71.5983C140.862 71.2775 141.096 71.99 141.125 71.7234L141.175 71.8608L141.025 71.4525C140.966 71.0275 141.271 71.8108 141.158 71.2442C141.121 71.2983 140.937 70.84 141.041 70.8941L141.112 71.0817C141.129 71.0275 141.104 70.9442 141.146 70.9733C141.171 71.0817 141.258 71.24 141.296 71.1858L141.371 71.4275L141.308 71.0484C141.475 71.2067 141.475 70.9067 141.629 71.1484C141.629 71.1484 141.85 71.1983 141.75 70.8983C141.8 71.0858 141.921 71.1108 141.991 71.3275C141.937 71.1108 141.983 70.8942 142.133 71.0775V71.1067C142.421 71.2317 142.3 70.665 142.587 70.8441C142.475 70.6316 142.616 70.7067 142.458 70.44C142.487 70.0858 143.041 70.8525 142.675 69.9692C142.725 69.8858 142.862 70.1233 142.925 70.1483V70.2025C143.037 70.0608 143.071 70.0317 143.187 69.9984C143.2 69.89 143.004 69.49 143.146 69.54C143.196 69.7108 143.221 69.665 143.254 69.6441C143.246 69.6816 143.266 69.74 143.366 69.8233C143.35 69.7733 143.341 69.7358 143.341 69.7067C143.35 69.7192 143.354 69.7275 143.362 69.7442C143.391 69.6609 143.358 69.615 143.321 69.6067C143.308 69.5817 143.291 69.5525 143.262 69.515C143.425 69.6858 143.425 69.415 143.566 69.6817C143.708 69.5275 143.691 69.19 143.783 69.0109C143.871 69.14 143.9 69.2817 143.887 69.3567L143.962 69.2525C144.066 69.4525 143.962 69.3983 143.95 69.4525C144.241 69.7067 144.033 69.0025 144.333 69.2192L144.279 69.0483L144.3 69.0692C144.254 68.9859 144.229 68.8567 144.237 68.8192C144.35 68.9817 144.446 69.215 144.512 69.1692C144.658 69.3067 144.629 69.0025 144.65 68.8692C144.596 68.8608 144.558 68.7608 144.541 68.69C144.575 68.665 144.687 68.8275 144.675 68.7358L144.804 68.965C144.675 68.7525 144.771 68.6817 144.733 68.5775C144.846 68.74 144.758 68.7525 144.821 68.89C144.95 68.79 144.887 68.84 145.016 68.7442C144.996 68.5275 144.883 68.5317 144.812 68.3108C144.854 68.2317 144.829 68.0359 144.983 68.1317L144.846 67.94C144.883 67.715 144.966 67.6983 145.166 67.8567C145.166 66.7733 144.891 66.1817 144.625 65.8608C144.358 65.54 144.1 65.4817 144.1 65.4817C143.504 65.2233 143.65 65.915 143.316 66.3025L143.312 66.3108Z" fill="#20BB65"/>
<path d="M124.804 76.9442L124.746 76.8608C124.759 76.9025 124.779 76.9358 124.804 76.9442Z" fill="#20BB65"/>
<path d="M124.304 73.9567C123.863 73.9692 123.625 73.5692 123.254 73.8692C123.042 73.8942 122.859 74.0567 122.675 74.1692C122.679 74.5359 122.417 74.2484 122.392 74.565L122.292 74.3858C122.284 74.4942 122.254 74.5734 122.188 74.4817L122.175 74.4234C122.159 74.5859 122.071 74.5192 122.063 74.5983L122.05 74.54L121.988 74.5859L121.975 74.5025C121.921 74.6859 121.821 74.7234 121.709 74.6817L121.784 74.9108C121.517 74.7067 121.584 75.2109 121.321 74.9526L121.309 74.8942C121.263 75.5692 120.842 74.5733 120.775 75.2233C120.784 75.1442 120.729 75.1067 120.717 75.0484C120.629 75.1442 120.529 75.2109 120.654 75.6692C120.575 75.6859 120.55 75.5442 120.492 75.3692C120.55 75.5692 120.504 75.6734 120.45 75.7025V75.6192L120.304 75.7359L120.442 76.1067C120.321 76.0233 120.292 75.6525 120.229 75.7692L120.317 76.0817C120.175 76.0567 119.967 75.5984 119.784 75.4025C119.242 75.4067 118.913 76.3567 118.288 75.9275L118.204 75.6984C118.104 75.3567 118.209 76.2442 118.109 75.9275L118.096 76.0984C118.063 76.0401 118.013 75.9817 118.021 75.8983C117.967 75.8983 117.979 75.9567 117.971 76.0692L117.859 75.8692C117.613 75.7567 117.55 76.215 117.317 76.1859C116.95 75.815 116.575 76.34 116.359 76.6442C116.1 77.2609 115.3 75.9942 115.05 76.6859C115.025 76.64 115.021 76.7609 115.029 76.7984L114.654 76.84C114.654 76.84 112.846 77.1401 114.9 79.6859L114.909 79.765C115.154 79.8984 115.292 79.9108 115.338 79.4942C115.475 79.9567 115.517 79.5026 115.6 79.6401V79.6775C115.638 79.29 115.934 79.9109 115.971 79.5609C115.975 79.5984 116.004 79.7276 115.979 79.7401C116.05 79.6609 116.142 79.5276 116.217 79.7942C116.404 79.6692 116.725 79.7234 116.75 79.2567L116.759 79.3358C116.759 79.0233 116.846 79.2692 116.892 79.0984C116.904 79.1317 116.917 79.1484 116.921 79.1651C116.929 78.8567 117.15 79.0567 117.184 78.9192L117.234 79.0984L117.388 79.0151L117.317 78.9942C117.213 78.4942 117.521 79.2734 117.554 78.9234C117.684 78.9567 117.513 77.84 117.692 78.0525C117.688 77.8067 117.742 78.44 117.775 78.24C117.846 78.4983 117.775 78.4109 117.854 78.6109C117.904 78.4692 118.054 78.84 118.109 78.64L118.167 78.84C118.2 78.44 118.479 79.04 118.475 78.6692C118.567 78.4692 118.721 79.24 118.759 78.8108L118.884 79.0692C118.954 79.0984 118.838 78.7275 118.938 78.84C118.979 79.0109 119.059 78.9525 119.063 79.1275C119.284 79.3567 119.267 78.6692 119.584 79.0651C119.538 78.7234 119.688 78.8942 119.654 78.6359C119.7 78.7775 119.859 78.6067 119.834 78.9484C119.834 78.9775 119.813 78.9775 119.8 78.9192L119.842 79.1192C120.054 79.4609 119.992 78.8609 120.117 78.8859C120.067 78.8317 120.025 78.8609 120.021 78.715H120.134L120.159 78.8859L120.338 78.94L120.259 78.74C120.363 78.8234 120.484 79.1651 120.488 78.8526C120.484 78.6817 120.342 78.5942 120.404 78.5109C120.542 78.6234 120.75 78.7942 120.896 78.8192C120.821 78.59 120.859 78.59 120.879 78.5359L120.938 78.7359C120.996 78.4192 121.109 79.1609 121.184 78.9025L121.209 79.0442L121.129 78.615C121.142 78.1859 121.313 79.0109 121.296 78.4317C121.25 78.4817 121.146 77.9984 121.238 78.065L121.275 78.2609C121.3 78.2109 121.292 78.1275 121.325 78.1609C121.334 78.2692 121.392 78.4442 121.438 78.3983L121.471 78.6484V78.265C121.609 78.4484 121.659 78.1567 121.771 78.4192C121.771 78.4192 121.975 78.5067 121.929 78.1942C121.946 78.39 122.063 78.4317 122.096 78.6567C122.079 78.4358 122.159 78.2276 122.275 78.4359V78.465C122.529 78.6359 122.509 78.0609 122.759 78.2859C122.684 78.0567 122.813 78.1567 122.704 77.8692C122.796 77.5276 123.2 78.3775 123 77.4442C123.067 77.3734 123.159 77.6317 123.213 77.665V77.7192C123.338 77.6025 123.375 77.5775 123.496 77.5692C123.525 77.465 123.409 77.0359 123.538 77.1109C123.554 77.29 123.588 77.2442 123.625 77.2359C123.609 77.2692 123.621 77.3317 123.704 77.4317C123.696 77.3775 123.696 77.3442 123.7 77.3109C123.704 77.3234 123.709 77.3317 123.713 77.3525C123.759 77.2733 123.729 77.2234 123.696 77.2109C123.692 77.1859 123.679 77.1525 123.654 77.1067C123.784 77.3067 123.829 77.04 123.925 77.3275C124.092 77.2067 124.138 76.865 124.259 76.7067C124.321 76.8484 124.325 76.9942 124.296 77.065L124.392 76.9776C124.454 77.1901 124.367 77.1192 124.346 77.1734C124.584 77.4775 124.513 76.7484 124.763 77.015L124.742 76.8358L124.759 76.8609C124.729 76.7734 124.729 76.64 124.742 76.6025C124.821 76.7817 124.871 77.0317 124.942 76.9984C125.059 77.1609 125.088 76.8567 125.134 76.7317C125.084 76.715 125.063 76.6067 125.063 76.5359C125.1 76.5192 125.179 76.6984 125.184 76.6067L125.263 76.8567C125.175 76.6234 125.284 76.5692 125.263 76.4651C125.342 76.6442 125.254 76.6442 125.288 76.7858C125.434 76.715 125.359 76.7525 125.504 76.6817C125.529 76.4692 125.417 76.4484 125.388 76.215C125.446 76.1442 125.459 75.9484 125.588 76.0734L125.492 75.8609C125.571 75.6484 125.659 75.6483 125.821 75.8442C126.246 73.7192 125.254 73.3025 125.254 73.3025C124.713 72.9317 124.717 73.64 124.309 73.9567H124.304Z" fill="#20BB65"/>
<path d="M104.425 81.9276L104.375 81.8401C104.383 81.8818 104.4 81.9193 104.425 81.9276Z" fill="#20BB65"/>
<path d="M96.3994 83.4651C96.3994 83.4651 96.3994 83.4776 96.3994 83.4859C96.3994 83.4776 96.4036 83.4693 96.3994 83.4651Z" fill="#20BB65"/>
<path d="M104.212 78.911C103.766 78.8735 103.566 78.4526 103.166 78.7151C102.95 78.7151 102.75 78.8609 102.558 78.9526C102.529 79.3151 102.291 79.0068 102.233 79.3193L102.15 79.1318C102.129 79.2401 102.096 79.3151 102.037 79.2151L102.029 79.1568C102 79.3151 101.916 79.2401 101.9 79.3193L101.891 79.2609L101.825 79.2984V79.2151C101.75 79.3901 101.646 79.4234 101.537 79.3693L101.591 79.6068C101.341 79.3776 101.362 79.8859 101.121 79.6068L101.112 79.5484C101.004 80.2193 100.671 79.1901 100.55 79.8276C100.566 79.7484 100.512 79.7067 100.504 79.6484C100.408 79.7359 100.3 79.7943 100.387 80.261C100.308 80.2693 100.296 80.1276 100.25 79.9485C100.287 80.1526 100.237 80.2526 100.179 80.2734L100.191 80.1901L100.029 80.2943L100.137 80.6734C100.025 80.5818 100.025 80.2068 99.954 80.3193L100.016 80.6401C99.8747 80.6026 99.7081 80.1318 99.5373 79.9193C98.9915 79.8776 98.5873 80.7984 97.9998 80.3276L97.9331 80.0901C97.8581 79.7401 97.8956 80.636 97.8165 80.3151L97.7914 80.4859C97.7623 80.4276 97.7164 80.3651 97.7331 80.2818C97.6789 80.2818 97.6873 80.3359 97.6706 80.4484L97.5748 80.2401C97.3373 80.1068 97.2414 80.5651 97.0081 80.5193C96.6664 80.1235 96.2539 80.6234 96.0164 80.9151C95.7123 81.5151 95.0081 80.1984 94.7081 80.8776C94.6873 80.8318 94.6706 80.9485 94.6789 80.9901L94.2998 81.0109C94.2998 81.0109 92.4789 81.2109 94.3456 83.8734V83.9526C94.5873 84.1026 94.7206 84.1192 94.7956 83.7067C94.8998 84.1776 94.9706 83.7234 95.0456 83.8692V83.9068C95.1081 83.5193 95.3581 84.1609 95.4206 83.8109C95.4206 83.8484 95.4414 83.9818 95.4164 83.9943C95.4956 83.9193 95.5956 83.7901 95.6498 84.0651C95.8456 83.9526 96.1622 84.0276 96.2164 83.5609V83.6401C96.2456 83.3276 96.3122 83.5776 96.3706 83.4109C96.3831 83.4443 96.3914 83.4651 96.3914 83.4776C96.4206 83.1693 96.6248 83.3859 96.6706 83.2484L96.7081 83.4318L96.8664 83.3568L96.7956 83.3276C96.7289 82.8193 96.979 83.6193 97.0373 83.2693C97.1623 83.3109 97.0789 82.1817 97.2373 82.4067C97.2498 82.1609 97.2581 82.7985 97.3081 82.6026C97.3581 82.8651 97.2998 82.7734 97.3581 82.9776C97.4165 82.8401 97.5415 83.2193 97.6081 83.0235L97.6498 83.2276C97.7123 82.8318 97.9456 83.4485 97.9706 83.0776C98.0748 82.886 98.1706 83.6651 98.2415 83.2401L98.3456 83.5068C98.4123 83.5401 98.3289 83.161 98.4164 83.2818C98.4456 83.4568 98.5248 83.4026 98.5164 83.5776C98.7164 83.8193 98.7539 83.1359 99.0373 83.5567C99.0164 83.2109 99.1539 83.3943 99.1414 83.1318C99.1748 83.2776 99.3456 83.1193 99.2956 83.4568C99.2914 83.4859 99.2748 83.4818 99.2623 83.4234L99.2872 83.6276C99.4706 83.9859 99.4539 83.3818 99.5789 83.4193C99.5331 83.3609 99.4914 83.3859 99.4956 83.2401L99.6039 83.2484L99.6123 83.4193L99.7873 83.4901L99.7248 83.286C99.8206 83.3776 99.9164 83.7276 99.9456 83.4151C99.9539 83.2443 99.8206 83.1484 99.8873 83.0651C100.016 83.1901 100.208 83.3734 100.35 83.4109C100.291 83.1776 100.329 83.1818 100.358 83.1276L100.4 83.3318C100.483 83.0235 100.537 83.7693 100.629 83.5193L100.646 83.6651L100.6 83.2318C100.646 82.8068 100.746 83.6443 100.779 83.0651C100.733 83.1109 100.666 82.6193 100.75 82.6984L100.771 82.8984C100.8 82.8484 100.796 82.7651 100.829 82.8026C100.829 82.9109 100.871 83.0901 100.921 83.0484L100.929 83.3026L100.962 82.9193C101.083 83.1151 101.158 82.8276 101.241 83.0984C101.241 83.0984 101.437 83.2026 101.421 82.8901C101.421 83.0859 101.529 83.1401 101.546 83.3651C101.546 83.1443 101.646 82.9443 101.741 83.1609V83.1901C101.975 83.3859 102.008 82.8109 102.237 83.0609C102.183 82.8276 102.3 82.9359 102.221 82.6401C102.341 82.3068 102.671 83.1942 102.55 82.2484C102.621 82.1817 102.691 82.4484 102.741 82.4901L102.733 82.5443C102.871 82.4401 102.912 82.4234 103.033 82.4234C103.071 82.3234 102.996 81.8859 103.116 81.9734C103.116 82.1526 103.154 82.1109 103.191 82.1068C103.171 82.1401 103.179 82.2026 103.25 82.3109C103.25 82.2568 103.25 82.2193 103.254 82.1901C103.254 82.2026 103.262 82.2151 103.262 82.2318C103.312 82.1609 103.291 82.1068 103.258 82.0901C103.258 82.0651 103.246 82.0318 103.225 81.986C103.333 82.1943 103.404 81.9359 103.471 82.2318C103.65 82.1276 103.725 81.7943 103.858 81.6526C103.908 81.8026 103.896 81.9443 103.858 82.0109L103.958 81.9359C104 82.1567 103.921 82.0734 103.891 82.1234C104.096 82.4526 104.096 81.7193 104.321 82.0151V81.8359L104.333 81.8609C104.312 81.7693 104.325 81.6401 104.341 81.6026C104.404 81.7901 104.429 82.0443 104.504 82.0151C104.604 82.1859 104.662 81.8901 104.721 81.7735C104.671 81.7485 104.662 81.6401 104.666 81.5693C104.704 81.5568 104.766 81.7401 104.779 81.6526L104.833 81.9109C104.766 81.6693 104.883 81.6317 104.875 81.5234C104.937 81.7109 104.846 81.6984 104.866 81.8443C105.016 81.7901 104.941 81.8193 105.096 81.7651C105.141 81.5568 105.029 81.5234 105.025 81.2901C105.087 81.2276 105.125 81.0318 105.237 81.1734L105.162 80.9526C105.262 80.7484 105.354 80.7609 105.491 80.9734C106.133 78.9234 105.183 78.3942 105.183 78.3942C104.679 77.9651 104.608 78.6693 104.162 78.9359L104.212 78.911Z" fill="#20BB65"/>
<path d="M83.788 85.4901L83.7422 85.3984C83.7505 85.4443 83.763 85.4776 83.788 85.4901Z" fill="#20BB65"/>
<path d="M75.7122 86.6858C75.7122 86.6858 75.7122 86.6983 75.708 86.7066C75.7122 86.6983 75.7122 86.69 75.7122 86.6858Z" fill="#20BB65"/>
<path d="M82.0667 82.4401C82.0667 82.4401 82.0667 82.4234 82.0708 82.415L82.0625 82.4401H82.0667Z" fill="#20BB65"/>
<path d="M83.7292 82.465C83.2875 82.4109 83.1042 81.9775 82.6917 82.2234C82.475 82.2192 82.2667 82.3525 82.0708 82.4359C82.025 82.7984 81.8 82.4775 81.7292 82.79L81.6542 82.5984C81.6292 82.7025 81.5916 82.7775 81.5375 82.6775V82.6192C81.4958 82.7775 81.4125 82.6984 81.3958 82.7775V82.7192L81.3208 82.7567V82.6734C81.2416 82.8484 81.1375 82.8734 81.0292 82.8151L81.0708 83.0525C80.8291 82.815 80.8291 83.3192 80.6 83.0276V82.9692C80.4583 83.6317 80.1667 82.59 80.0167 83.2234C80.0333 83.1442 79.9875 83.1025 79.9792 83.0442C79.8792 83.1275 79.7708 83.1817 79.8375 83.6526C79.7583 83.6567 79.75 83.5151 79.7166 83.3359C79.7458 83.5401 79.6917 83.6359 79.6292 83.6609L79.6458 83.5775L79.4792 83.6734L79.5708 84.0567C79.4583 83.9567 79.4792 83.5859 79.4 83.6942L79.4458 84.0151C79.3042 83.9692 79.1583 83.4942 79 83.2734C78.4542 83.2109 78.0083 84.115 77.4417 83.615L77.3875 83.3775C77.3292 83.0234 77.3292 83.9192 77.2625 83.5942L77.2292 83.765C77.2042 83.7025 77.1625 83.64 77.1792 83.5567C77.125 83.5525 77.1333 83.6067 77.1083 83.7192L77.0208 83.5067C76.7875 83.365 76.675 83.815 76.4417 83.7608C76.1167 83.3483 75.6833 83.8317 75.4292 84.1151C75.1042 84.7026 74.4417 83.3609 74.1167 84.0234C74.0958 83.9734 74.0792 84.0942 74.0833 84.1317H73.7042C73.7042 84.1317 71.8708 84.2609 73.65 86.9942V87.0734C73.8833 87.2317 74.0167 87.2525 74.1042 86.8442C74.1917 87.315 74.2792 86.8692 74.35 87.015V87.0525C74.425 86.6692 74.65 87.3192 74.725 86.9734C74.725 87.0109 74.7417 87.1442 74.7125 87.1525C74.7917 87.0817 74.9 86.9567 74.9417 87.2317C75.1417 87.1275 75.4542 87.215 75.525 86.7525V86.8317C75.5625 86.5233 75.6208 86.7734 75.6833 86.6109C75.6917 86.6484 75.7 86.665 75.7042 86.6817C75.7458 86.3734 75.9417 86.6026 75.9917 86.4651L76.0208 86.6484L76.1833 86.5817L76.1167 86.5525C76.0667 86.0442 76.2875 86.8526 76.3625 86.5067C76.4833 86.5526 76.4458 85.4234 76.5958 85.6525C76.6167 85.4067 76.6 86.0442 76.6583 85.8484C76.7 86.1109 76.6416 86.0192 76.6958 86.2275C76.7583 86.09 76.8667 86.4775 76.9458 86.2859L76.9792 86.49C77.0583 86.0942 77.2667 86.7234 77.3042 86.3526C77.4167 86.1651 77.4833 86.9484 77.5667 86.5275L77.6625 86.7984C77.7292 86.8359 77.6583 86.4525 77.7458 86.5775C77.7667 86.7525 77.85 86.7067 77.8333 86.8776C78.025 87.1276 78.0875 86.4442 78.3542 86.8776C78.35 86.5317 78.4792 86.7192 78.475 86.4609C78.5 86.6067 78.6792 86.4567 78.6125 86.7942C78.6083 86.8234 78.5875 86.8192 78.5833 86.7609L78.6 86.965C78.7708 87.3275 78.7792 86.7276 78.9 86.7692C78.8583 86.7067 78.8167 86.7317 78.825 86.59L78.9333 86.6025V86.7776L79.1083 86.8525L79.0583 86.6442C79.15 86.74 79.2292 87.0942 79.2708 86.7817C79.2875 86.6108 79.1583 86.5109 79.2292 86.4317C79.3542 86.5609 79.5375 86.7525 79.6792 86.7984C79.6333 86.565 79.6708 86.5692 79.7 86.5151L79.7333 86.7192C79.8292 86.4151 79.85 87.165 79.9542 86.915L79.9625 87.0609L79.9375 86.6275C80.0042 86.2025 80.0667 87.0442 80.125 86.4692C80.075 86.5108 80.0333 86.0192 80.1125 86.0984L80.125 86.2984C80.1542 86.2526 80.1583 86.1651 80.1875 86.2026C80.1792 86.3109 80.2167 86.4942 80.2667 86.4525V86.7067L80.3167 86.3275C80.4292 86.5275 80.5167 86.2442 80.5875 86.5192C80.5875 86.5192 80.7792 86.6317 80.775 86.3192C80.7667 86.515 80.875 86.5734 80.8792 86.7984C80.8917 86.5775 81 86.3817 81.0833 86.6025V86.6317C81.3083 86.8359 81.3625 86.265 81.5791 86.5234C81.5375 86.2859 81.6458 86.4025 81.5791 86.1025C81.7166 85.7775 82 86.6734 81.925 85.7234C82 85.6609 82.0541 85.9317 82.1041 85.9734L82.0917 86.0275C82.2333 85.9275 82.2792 85.915 82.3958 85.9192C82.4375 85.8192 82.3833 85.3817 82.5 85.4734C82.4917 85.6526 82.5292 85.615 82.5667 85.6067C82.5459 85.6359 82.55 85.7025 82.6167 85.8109C82.6167 85.7567 82.6208 85.7234 82.6291 85.6942C82.6291 85.7067 82.6333 85.7192 82.6375 85.7359C82.6917 85.6651 82.675 85.6109 82.6375 85.5942C82.6375 85.5692 82.6292 85.5359 82.6125 85.4859C82.7125 85.7025 82.7958 85.4442 82.8458 85.74C83.0292 85.6442 83.1208 85.315 83.2625 85.1775C83.3042 85.3275 83.2875 85.4692 83.25 85.5359L83.3541 85.4651C83.3875 85.6859 83.3083 85.6025 83.2792 85.6525C83.4667 85.99 83.5042 85.2567 83.7125 85.5609L83.7208 85.3817L83.7333 85.4109C83.7208 85.3192 83.7333 85.1859 83.7542 85.1526C83.8042 85.3401 83.8208 85.5984 83.8958 85.5734C83.9875 85.7484 84.0583 85.4567 84.125 85.34C84.075 85.315 84.075 85.2067 84.0833 85.1359C84.1208 85.1234 84.175 85.3109 84.1916 85.2275L84.2334 85.4859C84.1792 85.2442 84.2958 85.2067 84.2958 85.0984C84.3458 85.2859 84.2583 85.2734 84.2708 85.4192C84.425 85.3734 84.3458 85.3942 84.5 85.3484C84.5541 85.14 84.4458 85.1067 84.4541 84.8734C84.5208 84.8109 84.5667 84.6192 84.675 84.765L84.6125 84.54C84.725 84.34 84.8125 84.3567 84.9417 84.5775C85.6917 82.5525 84.7708 81.9817 84.7708 81.9817C84.2875 81.5317 84.1791 82.2317 83.7208 82.4817L83.7292 82.465Z" fill="#20BB65"/>
<path d="M63.0703 88.3651L63.0244 88.2734C63.0327 88.3193 63.0453 88.3526 63.0703 88.3651Z" fill="#20BB65"/>
<path d="M54.9954 89.4734C54.9954 89.4734 54.9954 89.4859 54.9912 89.4942C54.9954 89.4859 54.9954 89.4776 54.9954 89.4734Z" fill="#20BB65"/>
<path d="M61.4007 85.2901C61.4007 85.2818 61.4007 85.2735 61.4048 85.2651L61.3965 85.2901H61.4007Z" fill="#20BB65"/>
<path d="M63.0624 85.3359C62.6207 85.2775 62.4457 84.8442 62.029 85.0859C61.8124 85.0775 61.5999 85.2109 61.404 85.29C61.354 85.6525 61.1332 85.3317 61.0582 85.64L60.9874 85.4484C60.9624 85.5525 60.9249 85.6276 60.8665 85.5276V85.4692C60.8207 85.6276 60.7415 85.5484 60.7249 85.6276V85.5692L60.6499 85.6025V85.5192C60.5665 85.6901 60.4624 85.715 60.3582 85.6567L60.3999 85.8942C60.1624 85.6525 60.154 86.1609 59.929 85.865V85.8067C59.779 86.4692 59.504 85.4234 59.3457 86.0567C59.3665 85.9775 59.3165 85.9359 59.3124 85.8776C59.2124 85.9609 59.0999 86.0109 59.1624 86.4817C59.0832 86.4859 59.079 86.3442 59.0415 86.1609C59.0707 86.3692 59.0124 86.4609 58.9499 86.4817L58.9665 86.3984L58.7957 86.4942L58.8832 86.8776C58.7749 86.7776 58.7957 86.4067 58.7165 86.5109L58.7624 86.8317C58.6249 86.7859 58.4832 86.3067 58.3249 86.0859C57.779 86.0192 57.3249 86.9151 56.7582 86.4109L56.704 86.1692C56.6457 85.815 56.6374 86.7109 56.5749 86.3859L56.5374 86.5567C56.5124 86.4942 56.4707 86.4317 56.4874 86.3484C56.4332 86.3401 56.4374 86.3984 56.4165 86.5109L56.329 86.2984C56.0999 86.1567 55.979 86.6025 55.7457 86.5442C55.4249 86.1275 54.9832 86.6067 54.729 86.8859C54.3999 87.4692 53.7457 86.1192 53.4165 86.7776C53.3957 86.7276 53.3749 86.8484 53.3832 86.8859H52.9999C52.9999 86.8859 51.1624 86.9901 52.9332 89.7442V89.8234C53.1665 89.9859 53.2999 90.0067 53.3874 89.6025C53.4749 90.0775 53.5624 89.6276 53.6332 89.7776V89.815C53.7124 89.4317 53.9332 90.0859 54.0082 89.7401C54.0082 89.7776 54.0249 89.9109 53.9957 89.9192C54.0749 89.8484 54.1832 89.7276 54.2249 90.0026C54.4249 89.9026 54.7374 89.9901 54.8124 89.5317V89.6109C54.8499 89.3025 54.9082 89.5525 54.9707 89.39C54.979 89.4275 54.9874 89.4442 54.9915 89.4609C55.0374 89.1567 55.229 89.3817 55.279 89.2484L55.3082 89.4317L55.4707 89.3651L55.404 89.3359C55.3582 88.8275 55.5707 89.6359 55.6499 89.2942C55.7707 89.3442 55.7415 88.2109 55.8915 88.4442C55.9165 88.1984 55.8915 88.8359 55.954 88.6442C55.9915 88.9067 55.9374 88.815 55.9874 89.0234C56.054 88.8859 56.1582 89.2734 56.2374 89.0817L56.2707 89.2859C56.354 88.8942 56.554 89.5234 56.5957 89.1526C56.7082 88.9651 56.7665 89.7484 56.8582 89.3276L56.9499 89.5984C57.0165 89.6359 56.9499 89.2526 57.0332 89.3776C57.0541 89.5526 57.1374 89.5067 57.1207 89.6776C57.3082 89.9317 57.379 89.2484 57.6415 89.6859C57.6415 89.3401 57.7665 89.5276 57.7665 89.2692C57.7915 89.4151 57.9707 89.2692 57.8999 89.6025C57.8915 89.6317 57.8749 89.6276 57.8707 89.5692L57.8832 89.7734C58.0499 90.14 58.0624 89.5359 58.1832 89.5817C58.1415 89.5192 58.0999 89.5442 58.1082 89.3984L58.2165 89.4109V89.5859L58.3874 89.665L58.3374 89.4567C58.429 89.5525 58.504 89.9109 58.5499 89.5984C58.5665 89.4275 58.4415 89.3234 58.5124 89.2484C58.6332 89.3775 58.8165 89.5734 58.954 89.6192C58.9124 89.3817 58.9457 89.39 58.9749 89.3359L59.0082 89.54C59.1082 89.2359 59.1207 89.9859 59.2249 89.7401L59.2332 89.8859L59.2124 89.4525C59.2832 89.0275 59.3374 89.8692 59.3999 89.2942C59.3499 89.3359 59.3124 88.8442 59.3915 88.9234L59.3999 89.1234C59.4332 89.0775 59.4332 88.99 59.4624 89.0317C59.454 89.14 59.4874 89.3234 59.5374 89.2817V89.5359L59.5874 89.1567C59.6957 89.3609 59.7874 89.0734 59.8582 89.3525C59.8582 89.3525 60.0499 89.4651 60.0457 89.1567C60.0374 89.3526 60.1415 89.4109 60.1415 89.6401C60.1582 89.4192 60.2665 89.2234 60.3499 89.4484L60.3415 89.4776C60.5665 89.6859 60.6332 89.1109 60.8457 89.3734C60.8082 89.1359 60.9165 89.2526 60.854 88.9526C60.9957 88.6276 61.2665 89.5276 61.2082 88.5776C61.2832 88.5151 61.3332 88.7859 61.3832 88.8275L61.3707 88.8817C61.5165 88.7859 61.5582 88.7692 61.6749 88.7775C61.7207 88.6775 61.6707 88.2401 61.7874 88.3317C61.779 88.5109 61.8165 88.4734 61.854 88.4692C61.8332 88.4984 61.8332 88.565 61.8999 88.6734C61.8999 88.6192 61.9082 88.5859 61.9124 88.5567C61.9124 88.5692 61.9165 88.5817 61.9207 88.5984C61.9749 88.5276 61.9582 88.4775 61.9249 88.4567C61.9249 88.4317 61.9165 88.3942 61.8999 88.3484C61.9957 88.565 62.0832 88.3067 62.129 88.6067C62.3124 88.5109 62.4082 88.1859 62.5541 88.0484C62.5916 88.1984 62.5749 88.34 62.5332 88.4067L62.6374 88.3359C62.6665 88.5567 62.5874 88.4734 62.5582 88.5192C62.7415 88.8609 62.7874 88.1234 62.9915 88.4317L62.9999 88.2525L63.0124 88.2817C62.9999 88.1901 63.0165 88.0567 63.0374 88.0276C63.0874 88.2192 63.0957 88.4734 63.1707 88.4484C63.2582 88.6275 63.3332 88.3317 63.404 88.2192C63.354 88.1942 63.354 88.0817 63.3665 88.0151C63.404 88.0026 63.454 88.1942 63.4707 88.1067L63.5082 88.365C63.4582 88.1234 63.5749 88.0859 63.5749 87.9775C63.6207 88.1692 63.5374 88.1525 63.5457 88.2984C63.6999 88.2525 63.6249 88.2776 63.7749 88.2317C63.8332 88.0234 63.729 87.9859 63.7374 87.7526C63.804 87.6901 63.854 87.5026 63.9582 87.6442L63.8999 87.4192C64.0165 87.2234 64.104 87.2359 64.2249 87.4567C65.0124 85.4359 64.104 84.8567 64.104 84.8567C63.629 84.3984 63.5082 85.1025 63.0457 85.3442L63.0624 85.3359Z" fill="#20BB65"/>
<path d="M42.3964 91.2232L42.3506 91.1316C42.3589 91.1774 42.3714 91.2107 42.3964 91.2232Z" fill="#20BB65"/>
<path d="M34.3877 92.5649C34.3877 92.5649 34.3877 92.5775 34.3877 92.5858C34.3877 92.5775 34.3919 92.5691 34.3877 92.5649Z" fill="#20BB65"/>
<path d="M40.6631 88.1983C40.6631 88.1983 40.6631 88.1817 40.6673 88.1733V88.1983H40.6631Z" fill="#20BB65"/>
<path d="M42.3338 88.1941C41.888 88.1482 41.7088 87.7191 41.2921 87.9733C41.0755 87.9733 40.863 88.1107 40.6671 88.1982C40.6255 88.5607 40.3963 88.2482 40.3255 88.5566L40.2505 88.3649C40.2255 88.4691 40.1879 88.5482 40.1338 88.4482L40.1255 88.3899C40.088 88.5483 40.0088 88.4691 39.988 88.5524L39.9796 88.4941L39.913 88.5316V88.4482C39.8338 88.6232 39.7296 88.6524 39.6213 88.5941L39.6671 88.8316C39.4213 88.5983 39.4296 89.1066 39.1963 88.8191L39.188 88.7607C39.0588 89.4274 38.7546 88.3899 38.613 89.0274C38.6296 88.9482 38.5796 88.9066 38.5713 88.8483C38.4713 88.9358 38.363 88.9899 38.438 89.4566C38.3588 89.4649 38.3505 89.3191 38.3088 89.1399C38.3421 89.3441 38.288 89.4399 38.2255 89.4649L38.2421 89.3816L38.0755 89.4816L38.1755 89.8649C38.063 89.7691 38.0754 89.3941 38.0004 89.5066L38.0546 89.8274C37.913 89.7858 37.7588 89.3108 37.5921 89.0941C37.0421 89.0441 36.613 89.9524 36.0296 89.4691L35.9671 89.2316C35.8963 88.8816 35.9213 89.7732 35.8463 89.4524L35.8171 89.6233C35.7921 89.5649 35.7463 89.5024 35.7588 89.4191C35.7046 89.4149 35.713 89.4733 35.6921 89.5858L35.5963 89.3774C35.3588 89.2399 35.2546 89.6941 35.0213 89.6441C34.6796 89.2399 34.2588 89.7316 34.013 90.0149C33.7046 90.6066 32.9921 89.2816 32.6879 89.9483C32.6671 89.9024 32.6505 90.0191 32.6588 90.0566L32.2755 90.0691C32.2755 90.0691 30.4338 90.2316 32.3463 92.9191V92.9983C32.588 93.1524 32.7255 93.1733 32.7963 92.7608C32.9046 93.2274 32.9713 92.7816 33.0463 92.9274V92.9649C33.1088 92.5816 33.3588 93.2232 33.4213 92.8816C33.4213 92.9191 33.4421 93.0483 33.4213 93.0608C33.4963 92.9858 33.5963 92.8607 33.6546 93.1357C33.8505 93.0316 34.163 93.1108 34.2171 92.6483V92.7274C34.2463 92.4191 34.313 92.6691 34.3713 92.5024C34.3838 92.5358 34.3921 92.5566 34.3921 92.5691C34.4213 92.2607 34.6255 92.4858 34.6713 92.3483L34.7088 92.5316L34.8671 92.4607L34.8005 92.4316C34.7338 91.9274 34.9796 92.7274 35.0421 92.3816C35.1671 92.4274 35.088 91.2982 35.2463 91.5274C35.263 91.2816 35.2629 91.9191 35.3171 91.7233C35.3671 91.9858 35.3088 91.8941 35.363 92.0982C35.4213 91.9607 35.5421 92.3441 35.613 92.1524L35.6505 92.3566C35.7171 91.9607 35.9421 92.5857 35.9713 92.2149C36.0796 92.0232 36.1671 92.8066 36.238 92.3858L36.338 92.6524C36.4046 92.6858 36.3213 92.3066 36.413 92.4316C36.438 92.6066 36.5213 92.5566 36.5088 92.7274C36.7046 92.9732 36.7505 92.2899 37.0255 92.7191C37.013 92.3732 37.1463 92.5566 37.1338 92.2983C37.163 92.4441 37.338 92.2899 37.2796 92.6274C37.2755 92.6566 37.2546 92.6524 37.2463 92.5941L37.2671 92.7983C37.4463 93.1608 37.438 92.5566 37.5588 92.5983C37.513 92.5358 37.4713 92.5607 37.4796 92.4191L37.588 92.4274L37.5963 92.5983L37.7671 92.6732L37.7088 92.4691C37.8046 92.5649 37.888 92.9149 37.9255 92.6066C37.938 92.4358 37.8046 92.3357 37.8755 92.2566C38.0005 92.3816 38.188 92.5732 38.3296 92.6149C38.2796 92.3816 38.313 92.3858 38.3421 92.3316L38.3796 92.5358C38.4713 92.2274 38.5046 92.9774 38.6046 92.7274L38.6171 92.8732L38.5838 92.4399C38.6421 92.0149 38.7213 92.8524 38.7671 92.2774C38.7171 92.3191 38.6671 91.8316 38.7505 91.9066L38.7671 92.1066C38.7963 92.0607 38.7963 91.9733 38.8255 92.0108C38.8213 92.1191 38.8588 92.2982 38.9088 92.2566V92.5107L38.9546 92.1316C39.0671 92.3316 39.1505 92.0441 39.2296 92.3191C39.2296 92.3191 39.4213 92.4274 39.413 92.1149C39.413 92.3108 39.513 92.3691 39.5255 92.5941C39.5338 92.3733 39.638 92.1733 39.7255 92.3941V92.4232C39.9505 92.6274 39.9963 92.0482 40.2171 92.3066C40.1713 92.0691 40.2838 92.1857 40.2129 91.8857C40.3463 91.5566 40.638 92.4524 40.5546 91.5024C40.6296 91.4399 40.6879 91.7066 40.7338 91.7483L40.7213 91.8024C40.863 91.7024 40.9046 91.6857 41.0213 91.6857C41.0629 91.5857 41.0046 91.1483 41.1213 91.2358C41.1171 91.4149 41.1505 91.3774 41.188 91.3691C41.1671 91.3982 41.1713 91.4649 41.238 91.5732C41.238 91.5191 41.2421 91.4816 41.2463 91.4524C41.2463 91.4649 41.2504 91.4774 41.2546 91.4941C41.3088 91.4233 41.2879 91.3691 41.2546 91.3524C41.2546 91.3274 41.2463 91.2941 41.2296 91.2441C41.3296 91.4566 41.4129 91.1983 41.4629 91.4941C41.6421 91.3941 41.7338 91.0649 41.8713 90.9233C41.913 91.0733 41.8963 91.2149 41.8588 91.2816L41.963 91.2066C41.9963 91.4274 41.9171 91.3441 41.888 91.3941C42.0755 91.7274 42.1088 90.9941 42.3171 91.2941V91.1149L42.338 91.1441C42.3255 91.0524 42.338 90.9191 42.3588 90.8858C42.4088 91.0733 42.4255 91.3274 42.5005 91.3066C42.5921 91.4816 42.663 91.1857 42.7255 91.0691C42.6755 91.0441 42.6755 90.9358 42.6838 90.8649C42.7213 90.8524 42.7713 91.0399 42.7921 90.9524L42.8338 91.2107C42.7796 90.9691 42.8963 90.9316 42.8921 90.8233C42.9421 91.0108 42.8546 90.9983 42.8671 91.1441C43.0213 91.0941 42.9421 91.1191 43.0963 91.0691C43.1505 90.8607 43.0463 90.8274 43.0504 90.5899C43.1171 90.5274 43.163 90.3357 43.2671 90.4774L43.2046 90.2524C43.3171 90.0524 43.4046 90.0649 43.5296 90.2816C44.2838 88.2357 43.3671 87.6816 43.3671 87.6816C42.8838 87.2399 42.7713 87.9441 42.313 88.2024L42.3338 88.1941Z" fill="#20BB65"/>
<path d="M21.9829 95.0568L21.9287 94.9692C21.9412 95.0109 21.9579 95.0484 21.9829 95.0568Z" fill="#20BB65"/>
<path d="M21.6333 92.0484C21.1791 92.0401 20.9541 91.6318 20.5583 91.9234C20.3374 91.9401 20.1416 92.1026 19.9499 92.2109C19.9416 92.5776 19.6833 92.2859 19.6416 92.6026L19.5458 92.4234C19.5333 92.5317 19.5041 92.6109 19.4374 92.5192L19.4249 92.4609C19.4041 92.6234 19.3166 92.5526 19.3041 92.6359L19.2916 92.5776L19.2249 92.6234L19.2166 92.5401C19.1541 92.7234 19.0541 92.7609 18.9374 92.7192L19.0083 92.9484C18.7374 92.7442 18.7958 93.2484 18.5291 92.9901L18.5166 92.9317C18.4624 93.6109 18.0374 92.6151 17.9666 93.2651C17.9749 93.1859 17.9208 93.1484 17.9041 93.0901C17.8166 93.1901 17.7082 93.2567 17.8416 93.7151C17.7624 93.7317 17.7374 93.5901 17.6749 93.4192C17.7333 93.6192 17.6916 93.7234 17.6332 93.7526V93.6692L17.4833 93.7901L17.6291 94.1567C17.5041 94.0776 17.4666 93.7026 17.4083 93.8234L17.5041 94.1359C17.3582 94.1109 17.1416 93.6651 16.9458 93.4734C16.3833 93.4984 16.0791 94.4651 15.4249 94.0776L15.3291 93.8526C15.2083 93.5151 15.3624 94.3984 15.2416 94.0901V94.2651C15.1999 94.2109 15.1458 94.1568 15.1499 94.0693C15.0958 94.0693 15.1124 94.1276 15.1082 94.2442L14.9833 94.0526C14.7249 93.9567 14.6874 94.4234 14.4458 94.4151C14.0374 94.0734 13.6916 94.6442 13.4999 94.9734C13.3041 95.6151 12.3416 94.4609 12.1624 95.1859C12.1291 95.1442 12.1374 95.2651 12.1541 95.3026L11.7708 95.4026C11.7708 95.4026 11.3166 95.5526 11.1791 95.9776C11.0374 96.4026 11.2374 97.0859 12.4416 98.1818L12.4624 98.2567C12.7208 98.3526 12.8499 98.3442 12.8333 97.9275C13.0333 98.365 13.0041 97.9109 13.1083 98.0359L13.1208 98.0734C13.0958 97.6818 13.4666 98.2651 13.4583 97.9151C13.4666 97.9526 13.5124 98.0776 13.4916 98.0942C13.5499 98.0067 13.6208 97.8651 13.7291 98.1234C13.8916 97.9776 14.2083 97.9984 14.1749 97.5359L14.1916 97.6109C14.1583 97.3026 14.2666 97.5359 14.2916 97.3609C14.3083 97.3942 14.3208 97.4109 14.3249 97.4234C14.2999 97.1151 14.5333 97.2942 14.5541 97.1526L14.6208 97.3276L14.7624 97.2317L14.6916 97.2151C14.5374 96.7276 14.9166 97.4734 14.9166 97.1234C15.0416 97.1484 14.7791 96.0442 14.9708 96.2442C14.9458 96.0026 15.0541 96.6276 15.0708 96.4276C15.1624 96.6776 15.0874 96.5984 15.1791 96.7901C15.2166 96.6442 15.3958 97.0026 15.4291 96.8026L15.4999 96.9984C15.4999 96.5984 15.8208 97.1776 15.7874 96.8067C15.8624 96.6026 16.0708 97.3609 16.0749 96.9318L16.2166 97.1817C16.2874 97.2067 16.1499 96.8442 16.2541 96.9484C16.3041 97.1192 16.3791 97.0567 16.3916 97.2276C16.6208 97.4442 16.5583 96.7567 16.8916 97.1442C16.8291 96.8025 16.9833 96.9693 16.9374 96.7151C16.9874 96.8568 17.1333 96.6776 17.1291 97.0234C17.1291 97.0526 17.1083 97.0526 17.0958 96.9942L17.1458 97.1943C17.3708 97.5276 17.2749 96.9317 17.3999 96.9526C17.3499 96.8984 17.3124 96.9276 17.2957 96.7859H17.4041L17.4333 96.9526L17.6124 97.0026L17.5291 96.8067C17.6332 96.8901 17.7666 97.2276 17.7583 96.9151C17.7458 96.7442 17.6041 96.6609 17.6624 96.5776C17.8041 96.6859 18.0124 96.8526 18.1499 96.8734C18.0708 96.6484 18.1041 96.6484 18.1249 96.5901L18.1874 96.7859C18.2374 96.4692 18.3666 97.2067 18.4291 96.9484L18.4583 97.0901L18.3666 96.6651C18.3666 96.2359 18.5541 97.0609 18.5249 96.4817C18.4833 96.5317 18.3708 96.0484 18.4624 96.1192L18.5041 96.315C18.5291 96.265 18.5166 96.1817 18.5499 96.2151C18.5583 96.3234 18.6208 96.4984 18.6624 96.4484L18.6999 96.6984V96.315C18.8291 96.4984 18.8749 96.2068 18.9833 96.4651C18.9833 96.4651 19.1833 96.5526 19.1374 96.2442C19.1583 96.4401 19.2666 96.4817 19.3041 96.7067C19.2874 96.4859 19.3624 96.2776 19.4749 96.4859V96.5151C19.7208 96.6901 19.6999 96.1109 19.9458 96.3442C19.8749 96.1151 19.9958 96.2151 19.8916 95.9276C19.9833 95.5859 20.3708 96.4442 20.1833 95.5109C20.2499 95.4401 20.3333 95.7026 20.3874 95.7359V95.79C20.5083 95.6734 20.5499 95.6567 20.6666 95.6484C20.6958 95.5442 20.5916 95.1151 20.7208 95.1901C20.7333 95.3692 20.7666 95.3276 20.8041 95.3151C20.7874 95.3484 20.7958 95.4109 20.8749 95.5151C20.8666 95.4609 20.8708 95.4234 20.8749 95.3942C20.8749 95.4067 20.8833 95.4192 20.8874 95.4359C20.9333 95.3609 20.9083 95.3109 20.8749 95.2942C20.8708 95.2692 20.8583 95.2359 20.8374 95.1901C20.9583 95.3942 21.0124 95.1276 21.0958 95.4193C21.2624 95.3026 21.3166 94.9692 21.4458 94.8151C21.4999 94.9609 21.4999 95.1026 21.4708 95.1734L21.5666 95.0901C21.6208 95.3067 21.5374 95.2317 21.5124 95.2817C21.7333 95.5984 21.6916 94.8651 21.9291 95.1442L21.9166 94.9651L21.9333 94.9901C21.9083 94.8984 21.9124 94.7692 21.9291 94.7317C21.9999 94.9151 22.0374 95.1651 22.1083 95.1359C22.2124 95.3026 22.2541 95.0026 22.3083 94.8817C22.2583 94.8609 22.2458 94.7526 22.2458 94.6817C22.2833 94.6651 22.3499 94.8484 22.3583 94.7609L22.4249 95.0151C22.3499 94.7776 22.4583 94.7317 22.4499 94.6234C22.5166 94.8067 22.4291 94.8026 22.4583 94.9443C22.6041 94.8818 22.5333 94.915 22.6791 94.8525C22.7124 94.64 22.6041 94.6151 22.5874 94.3818C22.6458 94.3151 22.6749 94.1192 22.7958 94.2526L22.7124 94.0317C22.8041 93.8234 22.8958 93.8317 23.0416 94.0359C23.3291 92.9901 23.2374 92.3484 23.0666 91.9651C22.8958 91.5817 22.6541 91.4651 22.6541 91.4651C22.1249 91.0609 22.0749 91.7734 21.6333 92.0692V92.0484Z" fill="#20BB65"/>
<path d="M4.76596 103.144L4.68262 103.094C4.71595 103.123 4.74929 103.144 4.76596 103.144Z" fill="#20BB65"/>
<path d="M3.22461 106.236C3.22461 106.236 3.2371 106.24 3.24544 106.244C3.2371 106.244 3.23294 106.24 3.22461 106.236Z" fill="#20BB65"/>
<path d="M1.78717 101.652C1.78717 101.652 1.77884 101.64 1.77051 101.632L1.78717 101.652Z" fill="#20BB65"/>
<path d="M2.59545 101.057C2.34128 101.165 1.94962 100.944 1.92462 101.265C1.81629 101.344 1.81628 101.519 1.78712 101.652C2.03712 101.907 1.69129 101.786 1.89545 102.015L1.71629 101.923C1.78712 102.003 1.82461 102.061 1.72461 102.023L1.67878 101.99C1.78295 102.107 1.68712 102.086 1.73712 102.144L1.69129 102.111V102.161L1.62461 102.107C1.72461 102.248 1.69545 102.307 1.60378 102.315L1.80794 102.444C1.51628 102.403 1.91629 102.707 1.58712 102.627L1.53713 102.594C2.01213 103.036 1.04962 102.561 1.50379 102.99C1.44545 102.936 1.39128 102.936 1.34128 102.907C1.37045 102.998 1.36628 103.077 1.78295 103.307C1.75378 103.344 1.63295 103.269 1.47045 103.186C1.65378 103.286 1.70794 103.361 1.70378 103.398L1.64129 103.344L1.65795 103.469L2.01628 103.632C1.89128 103.627 1.5871 103.423 1.64544 103.511L1.93711 103.661C1.84961 103.694 1.38712 103.511 1.13712 103.473C0.866284 103.711 1.50377 104.336 0.866273 104.394L0.632941 104.319C0.295441 104.203 1.09961 104.578 0.787106 104.473L0.928784 104.561C0.866284 104.548 0.795454 104.544 0.724621 104.502C0.699621 104.527 0.757949 104.548 0.849616 104.607L0.62877 104.565C0.424604 104.632 0.795456 104.865 0.674623 104.965C0.195456 104.99 0.507942 105.407 0.712109 105.619C0.945442 105.794 0.699627 105.861 0.47046 105.952C0.241294 106.04 0.00794219 106.144 0.295442 106.315C0.245442 106.315 0.353771 106.353 0.395438 106.357L0.31627 106.573C0.31627 106.573 0.249627 106.848 0.574627 107.036C0.89546 107.24 1.59963 107.273 3.09963 107.094L3.17462 107.107C3.37046 107.036 3.41628 106.994 3.03712 106.89C3.51628 106.94 3.09546 106.828 3.25379 106.828L3.29128 106.836C2.93294 106.732 3.60794 106.773 3.29128 106.677C3.32878 106.686 3.45794 106.707 3.46627 106.719C3.4121 106.673 3.31629 106.607 3.59129 106.652C3.53712 106.557 3.67877 106.469 3.25794 106.323L3.33296 106.344C3.04546 106.248 3.29961 106.294 3.15794 106.227C3.19544 106.232 3.21213 106.236 3.22879 106.24C2.94546 106.14 3.20795 106.127 3.09128 106.069L3.27045 106.111L3.24545 106.032L3.19962 106.048C2.70796 105.911 3.52461 106.078 3.21628 105.944C3.29128 105.919 2.2246 105.557 2.47877 105.569C2.25794 105.478 2.84546 105.702 2.67879 105.611C2.93296 105.686 2.83295 105.678 3.04129 105.728C2.93295 105.657 3.31627 105.748 3.15794 105.657L3.35796 105.719C3.01629 105.548 3.64961 105.702 3.32045 105.557C3.17878 105.444 3.91627 105.723 3.54961 105.532L3.82045 105.602C3.87045 105.594 3.50379 105.469 3.64129 105.49C3.80795 105.552 3.7871 105.507 3.9371 105.582C4.21627 105.627 3.61628 105.323 4.07878 105.423C3.76628 105.278 3.97045 105.319 3.73711 105.207C3.87461 105.261 3.79545 105.14 4.07461 105.311C4.09545 105.323 4.09129 105.328 4.03713 105.307L4.22046 105.39C4.59129 105.502 4.05795 105.236 4.13295 105.215C4.06628 105.198 4.07462 105.223 3.95379 105.157L3.99544 105.127L4.14961 105.207L4.26629 105.194L4.07044 105.115C4.18294 105.132 4.51211 105.277 4.25378 105.115C4.10794 105.027 3.98294 105.019 3.9371 104.961C4.0871 104.986 4.31212 105.027 4.39128 105.011C4.17462 104.907 4.19128 104.898 4.15378 104.865L4.34128 104.957C4.10795 104.777 4.75795 105.148 4.57462 104.994L4.69961 105.065L4.32046 104.852C3.97879 104.615 4.71212 105.032 4.24129 104.719C4.26212 104.757 3.83296 104.511 3.92879 104.528L4.09961 104.628C4.07044 104.594 3.9996 104.548 4.04127 104.561C4.13294 104.619 4.29544 104.707 4.2746 104.669L4.48711 104.802L4.18295 104.59C4.38712 104.665 4.17879 104.49 4.42879 104.615C4.42879 104.615 4.58296 104.623 4.32463 104.452C4.48296 104.561 4.56628 104.565 4.75378 104.69C4.57461 104.565 4.45379 104.428 4.66213 104.532L4.68295 104.548C4.92462 104.611 4.47878 104.265 4.75795 104.357C4.55378 104.227 4.68295 104.269 4.42045 104.107C4.21212 103.873 5.01629 104.344 4.24546 103.786C4.22463 103.727 4.45379 103.877 4.50379 103.89L4.54128 103.927C4.51628 103.827 4.51627 103.807 4.5621 103.782C4.4996 103.707 4.14545 103.444 4.25795 103.473C4.39128 103.59 4.37461 103.553 4.38711 103.54C4.40378 103.565 4.45377 103.607 4.5621 103.657C4.52044 103.623 4.49545 103.598 4.47462 103.577C4.48712 103.586 4.49544 103.59 4.50794 103.602C4.4746 103.544 4.42879 103.515 4.39962 103.511C4.37879 103.494 4.34961 103.473 4.30794 103.448C4.50794 103.561 4.34544 103.373 4.5871 103.552C4.57877 103.444 4.37044 103.203 4.32877 103.073C4.45377 103.165 4.55377 103.261 4.5871 103.315L4.57462 103.24C4.74962 103.377 4.65795 103.344 4.68295 103.382C5.00379 103.561 4.47878 103.061 4.78295 103.211L4.65378 103.086L4.67878 103.102C4.60795 103.044 4.52046 102.948 4.50379 102.923C4.65796 103.04 4.84962 103.211 4.86212 103.178C5.02462 103.278 4.84129 103.057 4.78712 102.961C4.74962 102.953 4.67045 102.882 4.62461 102.827C4.63295 102.811 4.78712 102.928 4.73295 102.865L4.93294 103.036C4.74128 102.882 4.76212 102.828 4.68295 102.753C4.83712 102.873 4.79127 102.882 4.8996 102.982C4.92877 102.911 4.91212 102.948 4.94129 102.877C4.81629 102.719 4.74961 102.719 4.59127 102.553C4.57461 102.494 4.46212 102.344 4.60796 102.419L4.42462 102.273C4.33712 102.102 4.38711 102.09 4.59127 102.215C4.07044 101.382 3.6371 100.898 3.3121 100.644C2.9871 100.39 2.77878 100.357 2.77878 100.357C2.23295 100.182 2.64545 100.74 2.59962 101.069L2.59545 101.057Z" fill="#20BB65"/>
</svg>
