<svg width="153" height="56" viewBox="0 0 153 56" fill="none" xmlns="http://www.w3.org/2000/svg">
<path d="M3.94546 0.712036L3.84961 0.741231C3.89544 0.732898 3.93296 0.724536 3.94546 0.712036Z" fill="#20BB65"/>
<path d="M4.9248 4.33681C4.9248 4.33681 4.9373 4.33681 4.94563 4.33264C4.9373 4.33264 4.92897 4.33265 4.9248 4.33681Z" fill="#20BB65"/>
<path d="M0.941233 0.907618C0.853733 1.15345 0.416238 1.28269 0.632904 1.50352C0.616238 1.62852 0.741234 1.73678 0.812068 1.84095C1.16623 1.83261 0.841229 1.991 1.1454 1.99933L0.953746 2.06179C1.05791 2.06179 1.12874 2.07852 1.02874 2.12018L0.970403 2.12852C1.12457 2.13269 1.0454 2.18681 1.1204 2.18681L1.06206 2.19516L1.0954 2.22852L1.01206 2.23686C1.17873 2.26186 1.19956 2.32014 1.14123 2.38681L1.37873 2.33269C1.13706 2.49935 1.63708 2.43264 1.34541 2.59931L1.28707 2.61182C1.93707 2.59516 0.907889 2.90763 1.52872 2.8993C1.44956 2.8993 1.4079 2.93685 1.35373 2.94935C1.43706 2.99101 1.48706 3.04516 1.94539 2.93266C1.94539 2.97433 1.80789 3.00351 1.63289 3.05351C1.83706 3.00351 1.92873 3.02018 1.94956 3.04934H1.86625L1.9579 3.12848L2.33291 3.01181C2.23708 3.08681 1.8704 3.14519 1.97873 3.16602L2.2954 3.08261C2.24957 3.16594 1.7829 3.33267 1.5704 3.46184C1.51624 3.78684 2.3954 3.84098 1.9329 4.26598L1.70374 4.35346C1.36624 4.47013 2.22874 4.26181 1.91624 4.37431L2.0829 4.35346C2.02456 4.38263 1.96624 4.4201 1.8829 4.4326C1.8829 4.46594 1.93291 4.4451 2.04541 4.4326L1.84539 4.5326C1.72039 4.69926 2.1579 4.64931 2.11624 4.79098C1.74124 5.08265 2.22874 5.20353 2.51207 5.25353C3.08291 5.24936 1.87457 6.03678 2.52873 6.00761C2.48707 6.03678 2.59957 6.0076 2.6329 5.99093L2.67041 6.19926C2.67041 6.19926 2.74541 6.44512 3.11625 6.43262C3.48708 6.43262 4.12874 6.13681 5.3204 5.19931L5.39123 5.17011C5.5204 5.00344 5.53289 4.93685 5.15373 5.03685C5.58706 4.82852 5.16624 4.94511 5.29958 4.86178L5.33706 4.84927C4.97456 4.9451 5.56624 4.61599 5.24541 4.69933C5.28291 4.68683 5.40373 4.6326 5.41623 4.64094C5.3454 4.62844 5.22458 4.62018 5.48291 4.50768C5.37874 4.44934 5.44541 4.2785 5.01207 4.391L5.08707 4.36597C4.79541 4.44514 5.02873 4.34097 4.8704 4.3618C4.90373 4.34513 4.92041 4.33677 4.93291 4.33261C4.64124 4.40761 4.84957 4.24514 4.71623 4.26181L4.88708 4.191L4.8204 4.13261L4.7954 4.17432C4.31623 4.34932 5.07457 4.00349 4.7454 4.07016C4.78707 3.99932 3.71206 4.33684 3.92873 4.19518C3.69539 4.24934 4.30373 4.08686 4.11623 4.10769C4.36623 4.01603 4.27873 4.07018 4.47456 3.98684C4.34123 3.99101 4.70789 3.83681 4.52456 3.84931L4.7204 3.77851C4.34124 3.84518 4.94123 3.57849 4.58707 3.65766C4.40373 3.65349 5.15791 3.4202 4.74957 3.48686L5.0079 3.37435C5.04124 3.33269 4.67457 3.46177 4.7954 3.39094C4.96207 3.33677 4.91623 3.31186 5.0829 3.27436C5.32457 3.12436 4.66623 3.26183 5.0829 3.03266C4.74957 3.11599 4.92875 3.01176 4.67875 3.07426C4.82041 3.02843 4.67873 2.9785 5.00373 2.93683C5.02873 2.93683 5.02873 2.94102 4.97039 2.95769L5.16624 2.90347C5.52041 2.74513 4.93707 2.87431 4.97873 2.80764C4.91623 2.84098 4.94124 2.85345 4.80374 2.88261L4.81623 2.8285L4.98291 2.79096L5.0579 2.69513L4.85791 2.76176C4.95374 2.69926 5.29956 2.59101 4.99539 2.63268C4.82873 2.66184 4.72872 2.741 4.65372 2.72433C4.77872 2.641 4.97456 2.51603 5.02039 2.4452C4.79122 2.51186 4.7954 2.49514 4.7454 2.49097L4.94539 2.43685C4.64956 2.44935 5.38291 2.29932 5.14541 2.29932L5.28706 2.27013L4.86206 2.36178C4.44956 2.40761 5.2704 2.22849 4.71206 2.30349C4.75373 2.32016 4.2704 2.42429 4.34956 2.37429L4.54541 2.33269C4.49958 2.32435 4.41623 2.34101 4.45373 2.32018C4.56206 2.30351 4.73707 2.25343 4.69957 2.24093L4.94539 2.19516L4.57458 2.23686C4.77458 2.14936 4.49957 2.15764 4.7704 2.07848C4.7704 2.07848 4.88706 1.97436 4.5829 2.02436C4.77456 1.99519 4.83707 1.93684 5.0579 1.89934C4.84124 1.9285 4.65374 1.90761 4.87874 1.83678H4.90374C5.11624 1.70344 4.55373 1.7576 4.8204 1.6201C4.58707 1.6701 4.70373 1.60349 4.40373 1.67849C4.09123 1.65349 4.99124 1.41181 4.04958 1.56181C3.99124 1.53265 4.26207 1.47431 4.30374 1.44931H4.35373C4.26207 1.39514 4.24958 1.37428 4.26208 1.32011C4.16625 1.31178 3.72873 1.38261 3.82873 1.32011C4.00373 1.30761 3.9704 1.291 3.96624 1.27434C3.9954 1.28267 4.0579 1.27429 4.1704 1.22846C4.11623 1.23263 4.08291 1.2368 4.05375 1.2368C4.06625 1.2368 4.07874 1.23263 4.0954 1.22846C4.02874 1.20763 3.97456 1.22431 3.95373 1.24097C3.92873 1.24097 3.89541 1.2535 3.84541 1.266C4.06208 1.19516 3.81623 1.18263 4.11206 1.12846C4.02873 1.05346 3.70791 1.03685 3.58291 0.978521C3.73708 0.945187 3.87457 0.945167 3.93707 0.957667L3.87456 0.911789C4.09539 0.878456 4.00791 0.924309 4.05375 0.932643C4.40375 0.815976 3.67874 0.853488 3.99541 0.736822L3.81624 0.745163L3.84541 0.736822C3.75375 0.749322 3.62456 0.74933 3.59123 0.745163C3.78289 0.707663 4.03707 0.686838 4.02041 0.649338C4.20374 0.595171 3.91624 0.578513 3.8079 0.553513C3.77874 0.578513 3.6704 0.586777 3.59957 0.586777C3.59124 0.57011 3.7829 0.532655 3.69956 0.528488L3.96207 0.495122C3.71623 0.532622 3.69124 0.478448 3.58291 0.486781C3.77458 0.453448 3.75372 0.49511 3.89956 0.48261C3.86622 0.411777 3.88289 0.449277 3.84956 0.378443C3.64956 0.361777 3.60374 0.415984 3.37458 0.420151C3.32041 0.390984 3.1329 0.374317 3.28707 0.315984L3.05791 0.353521C2.87041 0.303521 2.8954 0.25763 3.12456 0.190964C2.15373 0.0284638 1.50374 0.0451671 1.09957 0.124334C0.695402 0.199334 0.532908 0.332667 0.532908 0.332667C0.0412416 0.611834 0.728733 0.665952 0.941233 0.907618Z" fill="#20BB65"/>
<path d="M11.9742 12.4783L11.9492 12.5783C11.9742 12.5408 11.9867 12.5033 11.9742 12.4783Z" fill="#20BB65"/>
<path d="M19.208 16.0368C19.208 16.0368 19.2163 16.0285 19.2247 16.0201C19.2163 16.0243 19.2122 16.0327 19.208 16.0368Z" fill="#20BB65"/>
<path d="M11.3372 15.9366C11.3372 15.9366 11.3247 15.9449 11.3164 15.9533L11.3372 15.9366Z" fill="#20BB65"/>
<path d="M9.96608 14.7491C10.2911 15.1032 10.1494 15.5616 10.6661 15.6658C10.8453 15.82 11.1119 15.8699 11.3369 15.9324C11.6119 15.6824 11.5953 16.0782 11.8536 15.8907L11.7953 16.0866C11.8828 16.02 11.9619 15.9866 11.9452 16.1032L11.9119 16.1533C12.0453 16.0533 12.0619 16.1699 12.1286 16.1199L12.0994 16.17L12.1828 16.1866L12.1286 16.2533C12.3078 16.1699 12.4119 16.2158 12.4661 16.3324L12.5744 16.1157C12.6369 16.4616 12.9453 16.0574 12.9661 16.4324L12.9369 16.4825C13.4536 16.0325 13.0828 17.0532 13.5911 16.6324C13.5286 16.6866 13.5453 16.7491 13.5161 16.7991C13.6536 16.7908 13.7828 16.8158 13.9994 16.3908C14.0744 16.4366 13.9953 16.5532 13.9203 16.7241C14.0119 16.5366 14.1203 16.4949 14.1828 16.5116L14.1203 16.5699L14.3203 16.5908L14.4619 16.2199C14.4994 16.3657 14.2744 16.6616 14.3994 16.6199L14.5411 16.3282C14.6369 16.4491 14.4953 16.9241 14.5161 17.1991C14.9744 17.5741 15.8619 17.0658 16.1078 17.7949L16.0328 18.0283C15.8994 18.3616 16.3744 17.5991 16.2619 17.9116L16.3828 17.7866C16.3744 17.8532 16.3827 17.9282 16.3202 17.9907C16.3661 18.0241 16.3911 17.9741 16.4703 17.8907L16.4411 18.1199C16.5786 18.3658 16.9203 18.0408 17.1036 18.2074C17.1911 18.7366 17.8453 18.5408 18.2119 18.4241C18.7953 18.0699 18.7661 19.5824 19.3869 19.1533C19.3869 19.2074 19.4578 19.1116 19.4703 19.0699L19.8286 19.2491C19.8286 19.2491 20.2744 19.4366 20.6619 19.2116C21.0536 18.9908 21.3661 18.3491 21.1703 16.7199L21.2036 16.6491C21.0661 16.4033 20.9577 16.3241 20.6952 16.6491C20.8327 16.1866 20.5494 16.545 20.5578 16.3825L20.5744 16.3491C20.3328 16.6533 20.4328 15.9741 20.2078 16.2449C20.2244 16.2116 20.2703 16.0867 20.2994 16.0908C20.1953 16.12 20.0453 16.1782 20.1328 15.9116C19.9078 15.9074 19.6786 15.6825 19.3953 16.0533L19.4328 15.9825C19.2536 16.2366 19.3244 15.9907 19.1869 16.1032C19.1953 16.0657 19.1953 16.0491 19.2036 16.0324C19.0203 16.2783 18.9578 15.9866 18.8494 16.0783L18.9119 15.9032L18.7411 15.8825L18.7869 15.9408C18.5786 16.4074 18.7869 15.595 18.5494 15.8616C18.4661 15.7616 17.9411 16.7616 17.9203 16.4825C17.7786 16.6825 18.1119 16.1408 17.9661 16.2783C18.0619 16.0325 18.0661 16.1408 18.1244 15.9324C17.9994 16.0158 18.0994 15.6283 17.9369 15.7575L18.0119 15.5658C17.7453 15.8658 17.8828 15.2199 17.6619 15.5199C17.4703 15.6241 17.8161 14.9158 17.5286 15.2325L17.5869 14.9532C17.5494 14.8866 17.4119 15.2533 17.4036 15.0991C17.4786 14.9366 17.3828 14.9366 17.4828 14.7991C17.4536 14.4866 17.0411 15.0408 17.0494 14.5283C16.8702 14.8242 16.8619 14.595 16.7286 14.82C16.7869 14.6825 16.5536 14.7158 16.7911 14.4658C16.8119 14.4449 16.8244 14.4575 16.7994 14.5116L16.8953 14.3324C16.9536 13.9366 16.6203 14.4407 16.5411 14.3407C16.5411 14.4157 16.5911 14.4199 16.5036 14.5324L16.4203 14.4658L16.5119 14.32L16.4119 14.1616L16.3411 14.3616C16.3203 14.2283 16.4494 13.8907 16.2411 14.1282C16.1328 14.2616 16.1828 14.4199 16.0828 14.4449C16.0536 14.2699 16.0078 14.0075 15.9203 13.895C15.8286 14.1158 15.7994 14.0907 15.7453 14.1199L15.8328 13.9324C15.5828 14.1324 15.9869 13.4991 15.7661 13.6449L15.8411 13.5199L15.6161 13.895C15.3244 14.2075 15.7494 13.4782 15.3786 13.9199C15.4411 13.9116 15.1953 14.3407 15.1786 14.2282L15.2828 14.0574C15.2328 14.0783 15.1828 14.1491 15.1786 14.0991C15.2453 14.0116 15.3203 13.8449 15.2578 13.8491L15.4036 13.6408L15.1453 13.9241C15.1703 13.6991 14.9369 13.8824 15.0369 13.6157C15.0369 13.6157 14.9536 13.4158 14.7744 13.67C14.8953 13.5158 14.8453 13.4074 14.9744 13.2199C14.8369 13.3908 14.6369 13.4908 14.6994 13.2616L14.7203 13.245C14.6661 12.9491 14.2786 13.3783 14.2661 13.0408C14.1578 13.2533 14.1411 13.095 14.0119 13.3783C13.7036 13.5575 14.0369 12.6741 13.5077 13.47C13.4119 13.4741 13.5369 13.2283 13.5244 13.1658L13.5661 13.1324C13.3953 13.1241 13.3536 13.1075 13.2661 13.0325C13.1703 13.0825 12.9369 13.4574 12.9036 13.3158C13.0203 13.1824 12.9703 13.1866 12.9369 13.17C12.9703 13.1575 13.0119 13.1074 13.0286 12.9824C12.9953 13.0241 12.9661 13.0491 12.9453 13.0658C12.9536 13.0533 12.9578 13.0449 12.9661 13.0283C12.8786 13.0491 12.8619 13.1033 12.8744 13.1366C12.8578 13.1575 12.8453 13.1908 12.8244 13.2366C12.8828 13.0116 12.6578 13.1532 12.8078 12.8907C12.6119 12.8491 12.3286 13.0408 12.1286 13.0575C12.1953 12.9158 12.3036 12.8199 12.3744 12.7949L12.2494 12.7824C12.3703 12.5949 12.3744 12.7074 12.4286 12.6908C12.5078 12.3158 11.9994 12.8449 12.0494 12.4824L11.9244 12.6116L11.9328 12.5824C11.8828 12.6616 11.7828 12.7491 11.7453 12.7616C11.8328 12.5866 11.9953 12.3866 11.9244 12.3574C11.9786 12.1657 11.7286 12.3408 11.5994 12.3824C11.6161 12.4324 11.5453 12.5157 11.4911 12.5616C11.4536 12.5449 11.5453 12.37 11.4744 12.4241L11.6203 12.2033C11.4953 12.4158 11.3869 12.3658 11.3119 12.445C11.4036 12.27 11.4578 12.3408 11.5494 12.2283C11.4078 12.1575 11.4786 12.195 11.3369 12.1241C11.1536 12.2366 11.2078 12.3366 11.0411 12.5033C10.9494 12.5033 10.7828 12.6116 10.8036 12.4325L10.6911 12.6366C10.4703 12.7033 10.4161 12.6283 10.4786 12.3824C9.4911 12.8324 9.03692 13.3033 8.85359 13.6783C8.67026 14.0533 8.74942 14.3282 8.74942 14.3282C8.81192 15.0199 9.41193 14.6074 9.94943 14.7616L9.96608 14.7491Z" fill="#20BB65"/>
<path d="M31.5791 19.483L31.5916 19.583C31.5999 19.5372 31.5999 19.4997 31.5791 19.483Z" fill="#20BB65"/>
<path d="M39.749 20.8247C39.749 20.8247 39.7532 20.8122 39.7615 20.8038C39.7532 20.8122 39.7532 20.8164 39.749 20.8247Z" fill="#20BB65"/>
<path d="M32.2166 22.9327C32.2166 22.9327 32.2083 22.9453 32.2041 22.9536L32.2208 22.9327H32.2166Z" fill="#20BB65"/>
<path d="M30.5911 22.3453C31.0078 22.5494 31.0369 23.0162 31.5286 22.9245C31.7411 23.0037 31.9911 22.9453 32.2161 22.9328C32.3828 22.6037 32.4953 22.9787 32.6703 22.712L32.6786 22.9162C32.7369 22.8245 32.7995 22.7661 32.8203 22.8786L32.8078 22.937C32.8953 22.7995 32.9495 22.8995 32.9953 22.8328L32.9828 22.8911L33.062 22.8786L33.0328 22.9579C33.1703 22.8204 33.2828 22.8287 33.3661 22.9203L33.3995 22.6828C33.562 22.987 33.7245 22.5079 33.8536 22.8579L33.8411 22.9162C34.187 22.3287 34.1411 23.4079 34.4911 22.8537C34.4495 22.9245 34.4828 22.9787 34.4703 23.037C34.5953 22.987 34.7203 22.9745 34.8036 22.5037C34.8828 22.5245 34.8453 22.662 34.8245 22.8454C34.8578 22.6412 34.9453 22.5661 35.012 22.5661L34.9703 22.6412L35.1661 22.6037L35.1953 22.212C35.2745 22.3412 35.1411 22.687 35.2495 22.612L35.3036 22.2912C35.4286 22.3787 35.4244 22.8787 35.5161 23.137C36.0369 23.362 36.7495 22.6369 37.1661 23.2828L37.1495 23.5286C37.1036 23.8828 37.3703 23.0287 37.3369 23.3578L37.4203 23.2036C37.4286 23.2703 37.4536 23.3411 37.412 23.4161C37.4661 23.437 37.4745 23.3787 37.5286 23.2787L37.5536 23.5078C37.7411 23.712 37.9869 23.3162 38.1994 23.4328C38.4036 23.9203 38.9786 23.5828 39.3036 23.3869C39.7911 22.9161 40.0745 24.3912 40.5828 23.8453C40.5911 23.8953 40.6411 23.7912 40.6453 23.7495L41.0245 23.8537C41.0245 23.8537 41.4911 23.9495 41.8245 23.6537C42.1578 23.3578 42.3578 22.6745 41.8411 21.112L41.862 21.037C41.6786 20.8203 41.5495 20.762 41.3536 21.1328C41.3953 20.6536 41.187 21.062 41.162 20.8995L41.1703 20.862C40.9911 21.212 40.9495 20.5245 40.7828 20.8328C40.7911 20.7953 40.812 20.6662 40.8411 20.662C40.7453 20.712 40.6078 20.7995 40.637 20.5203C40.412 20.562 40.1328 20.3953 39.9328 20.8161L39.9536 20.7412C39.8328 21.0287 39.8453 20.7703 39.7369 20.912C39.7369 20.8745 39.7369 20.8537 39.7369 20.8412C39.6119 21.1245 39.4828 20.8537 39.3953 20.9662L39.4161 20.7828L39.2411 20.7995L39.2995 20.8495C39.2036 21.3495 39.2161 20.5161 39.0453 20.8245C38.9411 20.7453 38.6578 21.8412 38.5745 21.5745C38.4828 21.8037 38.6828 21.1995 38.5703 21.3662C38.6078 21.1037 38.6328 21.2078 38.6453 20.9953C38.5411 21.1078 38.5495 20.7079 38.4203 20.8704L38.4453 20.6662C38.2536 21.0204 38.2328 20.3578 38.0911 20.7036C37.9286 20.8495 38.0911 20.0829 37.8869 20.462L37.8745 20.1745C37.8203 20.1203 37.7786 20.5079 37.7328 20.362C37.762 20.187 37.6661 20.2079 37.7328 20.0495C37.6203 19.7537 37.3578 20.387 37.2286 19.8953C37.1328 20.2287 37.062 20.0079 36.987 20.2579C37.0036 20.1079 36.787 20.1995 36.9536 19.8995C36.9661 19.8745 36.9828 19.8829 36.9744 19.9412L37.0203 19.7411C36.9661 19.3411 36.7786 19.9162 36.6703 19.8412C36.6953 19.912 36.7411 19.9037 36.6869 20.037L36.587 19.9911L36.6369 19.8245L36.4953 19.6995L36.4828 19.912C36.4245 19.7912 36.4536 19.4287 36.3161 19.7162C36.2495 19.8745 36.3453 20.012 36.2495 20.062C36.1703 19.9036 36.0495 19.662 35.9286 19.5787C35.9036 19.8162 35.8661 19.8036 35.8245 19.8453L35.8536 19.6411C35.6661 19.9036 35.8786 19.1828 35.6994 19.387L35.737 19.2453L35.6286 19.6661C35.4328 20.0495 35.6328 19.2286 35.3995 19.762C35.462 19.737 35.3495 20.2162 35.2953 20.1162L35.3453 19.9203C35.2995 19.9537 35.2744 20.037 35.2578 19.9911C35.2994 19.887 35.3203 19.7079 35.2578 19.7287L35.337 19.487L35.1703 19.8329C35.1245 19.6079 34.9536 19.8495 34.9661 19.5661C34.9661 19.5661 34.8161 19.3995 34.7245 19.6995C34.7911 19.5162 34.7078 19.4287 34.7745 19.212C34.6911 19.4204 34.5286 19.5703 34.5161 19.3328L34.5286 19.3079C34.3744 19.0412 34.137 19.5661 34.012 19.2536C33.9786 19.4911 33.9078 19.3453 33.8744 19.6536C33.6369 19.9203 33.6536 18.9787 33.4203 19.8995C33.3286 19.9328 33.3619 19.662 33.3286 19.6078L33.3578 19.562C33.187 19.6078 33.1411 19.612 33.0328 19.5661C32.9578 19.6453 32.8661 20.0786 32.7828 19.9536C32.8494 19.7869 32.7995 19.812 32.762 19.8037C32.7911 19.7828 32.8119 19.7203 32.7828 19.5953C32.7661 19.6495 32.7495 19.6787 32.7328 19.7037C32.7328 19.6912 32.7328 19.6786 32.7411 19.662C32.6661 19.712 32.6661 19.7662 32.6911 19.7953C32.6828 19.8203 32.6828 19.8537 32.6828 19.9037C32.6578 19.6662 32.4953 19.8828 32.5411 19.587C32.337 19.6203 32.137 19.8995 31.9536 19.9828C31.9661 19.8286 32.0286 19.6995 32.087 19.6495L31.962 19.6828C32.0078 19.462 32.0536 19.5703 32.0953 19.5328C32.0286 19.1536 31.7453 19.8328 31.6495 19.4745L31.5828 19.6411V19.612C31.5619 19.7037 31.4995 19.8203 31.4703 19.8453C31.487 19.6494 31.5578 19.4037 31.4786 19.4037C31.4536 19.2079 31.2828 19.462 31.1828 19.5453C31.2203 19.587 31.1828 19.6911 31.1536 19.7536C31.112 19.7536 31.1286 19.5579 31.0828 19.6329L31.1328 19.3745C31.0995 19.6203 30.9786 19.6162 30.9411 19.7162C30.9578 19.5204 31.037 19.5662 31.0745 19.4245C30.912 19.4162 30.9911 19.4204 30.8328 19.412C30.7078 19.587 30.7995 19.6578 30.712 19.8745C30.6286 19.9078 30.5161 20.0745 30.4619 19.8995L30.4411 20.1329C30.2619 20.2829 30.187 20.237 30.1411 19.987C29.4203 20.8036 29.2244 21.4245 29.2161 21.8453C29.2078 22.262 29.3786 22.4786 29.3786 22.4786C29.6911 23.0745 30.0536 22.4536 30.587 22.3786L30.5911 22.3453Z" fill="#20BB65"/>
<path d="M52.6504 22.2994L52.6754 22.3994C52.6754 22.3536 52.6754 22.3161 52.6504 22.2994Z" fill="#20BB65"/>
<path d="M60.9463 22.937C60.9463 22.937 60.9505 22.9245 60.9546 22.9161C60.9505 22.9245 60.9463 22.9287 60.9463 22.937Z" fill="#20BB65"/>
<path d="M53.6336 25.6536C53.6336 25.6536 53.6253 25.666 53.6211 25.6785L53.6336 25.6536Z" fill="#20BB65"/>
<path d="M51.9749 25.2578C52.4041 25.4119 52.4791 25.8702 52.9541 25.7244C53.1708 25.7785 53.4124 25.6952 53.6291 25.6577C53.7624 25.3161 53.9083 25.6743 54.0541 25.391L54.0833 25.5952C54.1333 25.4993 54.1874 25.4327 54.2208 25.5452L54.2124 25.6035C54.2874 25.4577 54.3499 25.5535 54.3874 25.4785L54.3791 25.5369L54.4583 25.516L54.4374 25.5993C54.5583 25.4493 54.6708 25.4452 54.7624 25.5285L54.7749 25.2868C54.9583 25.5743 55.0791 25.0785 55.2416 25.416L55.2333 25.4743C55.5249 24.8577 55.5708 25.9369 55.8708 25.3536C55.8333 25.4244 55.8708 25.4786 55.8666 25.5369C55.9874 25.4786 56.1083 25.4493 56.1499 24.9785C56.2333 24.991 56.2041 25.1327 56.1999 25.316C56.2166 25.1077 56.2958 25.0286 56.3624 25.0202L56.3249 25.0994L56.5166 25.0452V24.6493C56.5999 24.7702 56.4999 25.1286 56.5999 25.0411L56.6249 24.7161C56.7541 24.7911 56.7916 25.2911 56.9041 25.5369C57.4374 25.7202 58.0874 24.9411 58.5458 25.5536V25.7993C58.5291 26.1577 58.7291 25.2827 58.7249 25.616L58.7958 25.4577C58.8083 25.5244 58.8374 25.5952 58.7999 25.6702C58.8541 25.6869 58.8583 25.6285 58.9083 25.5244L58.95 25.7494C59.15 25.9411 59.3666 25.5244 59.5874 25.6327C59.8249 26.1077 60.3666 25.7327 60.6791 25.516C61.1333 25.016 61.5083 26.4743 61.9749 25.8993C61.9833 25.9493 62.0291 25.841 62.0333 25.7993L62.4166 25.8828C62.4166 25.8828 64.2833 26.1702 63.0708 23.1035L63.0875 23.0285C62.8916 22.8244 62.7624 22.7702 62.5874 23.1494C62.5999 22.6702 62.4166 23.0869 62.3791 22.9285L62.3875 22.891C62.2333 23.2493 62.1458 22.5618 61.9958 22.8827C62.0041 22.8452 62.0166 22.7119 62.0458 22.7077C61.95 22.7619 61.8208 22.8577 61.8333 22.5785C61.6124 22.6327 61.3208 22.4827 61.1499 22.916L61.1666 22.8411C61.0666 23.1369 61.0624 22.8785 60.9624 23.0244C60.9624 22.9869 60.9541 22.9702 60.9583 22.9536C60.8499 23.2452 60.7041 22.9785 60.6249 23.0993L60.6333 22.916L60.4583 22.9452L60.5208 22.991C60.4583 23.4993 60.4166 22.6618 60.2666 22.9827C60.1541 22.9077 59.9499 24.0202 59.8499 23.7619C59.7749 23.9952 59.9291 23.3785 59.8291 23.5535C59.8458 23.2869 59.8833 23.391 59.8749 23.1785C59.7791 23.2993 59.7583 22.8952 59.6416 23.0661L59.6541 22.8577C59.4874 23.2244 59.4208 22.566 59.2999 22.916C59.1458 23.0744 59.2541 22.2952 59.0749 22.6868L59.0416 22.4035C58.9833 22.3535 58.9708 22.741 58.9124 22.6035C58.9291 22.4285 58.8374 22.4577 58.8916 22.291C58.7583 22.0035 58.5416 22.6577 58.375 22.1744C58.3041 22.5119 58.2166 22.2993 58.1624 22.5535C58.1708 22.4035 57.9583 22.5119 58.0999 22.1994C58.1124 22.1744 58.1291 22.1786 58.1249 22.2369L58.1541 22.0368C58.0666 21.6452 57.9249 22.2285 57.8124 22.1618C57.8416 22.2327 57.8874 22.216 57.8458 22.3535L57.7416 22.3161L57.7791 22.1452L57.6249 22.0327V22.2452C57.5583 22.1285 57.5624 21.766 57.4499 22.0618C57.3958 22.2243 57.5 22.3536 57.4125 22.4119C57.3208 22.2577 57.1791 22.0285 57.0499 21.9535C57.0416 22.191 57.0083 22.1827 56.9666 22.2286L56.9791 22.0202C56.8124 22.2952 56.9666 21.5619 56.8041 21.7785L56.8291 21.6368L56.7541 22.066C56.5916 22.466 56.7208 21.6327 56.5333 22.1785C56.5916 22.1494 56.5208 22.6369 56.4583 22.5411L56.4916 22.3411C56.4499 22.3786 56.4291 22.4619 56.4083 22.4202C56.4416 22.3161 56.4458 22.1327 56.3874 22.1618L56.4458 21.9161L56.3083 22.2744C56.2458 22.0535 56.0916 22.3119 56.0833 22.0286C56.0833 22.0286 55.9208 21.8744 55.85 22.1827C55.9 21.9952 55.8124 21.9119 55.8583 21.6911C55.7958 21.9036 55.6458 22.0702 55.6083 21.8368L55.6208 21.8119C55.4416 21.5619 55.25 22.1077 55.0958 21.8077C55.0833 22.0494 54.9999 21.9119 54.9958 22.2202C54.7833 22.5077 54.7124 21.5702 54.5624 22.5119C54.4749 22.5577 54.4833 22.2827 54.4416 22.2286L54.4666 22.1785C54.3 22.2452 54.2541 22.2494 54.1374 22.2161C54.0708 22.3036 54.0208 22.7411 53.9249 22.6286C53.9749 22.4577 53.9249 22.4869 53.8874 22.4827C53.9166 22.4577 53.9291 22.3952 53.8874 22.2702C53.8749 22.3243 53.8624 22.3577 53.8499 22.3827C53.8499 22.3702 53.8499 22.3578 53.8499 22.3411C53.7791 22.3994 53.7833 22.4535 53.8124 22.4785C53.8124 22.5035 53.8083 22.541 53.8124 22.5869C53.7666 22.3535 53.6208 22.5869 53.6416 22.2869C53.4374 22.341 53.2666 22.6411 53.0958 22.7411C53.0916 22.5869 53.1416 22.4494 53.1958 22.3952L53.0749 22.4411C53.0958 22.2202 53.1541 22.3202 53.1916 22.2785C53.0875 21.9077 52.8708 22.616 52.7416 22.2702L52.6916 22.4453L52.6833 22.4161C52.6749 22.5077 52.6249 22.6327 52.5999 22.6618C52.5958 22.466 52.6416 22.2161 52.5624 22.2202C52.5166 22.0286 52.375 22.2994 52.2791 22.3952C52.3208 22.4327 52.2958 22.5369 52.2708 22.6035C52.2291 22.6035 52.2249 22.4119 52.1874 22.491L52.2083 22.2286C52.1999 22.4744 52.0791 22.4869 52.0541 22.591C52.0499 22.3952 52.1333 22.4285 52.1541 22.2827C51.9916 22.2952 52.0708 22.2869 51.9083 22.2994C51.8041 22.491 51.9 22.5493 51.8375 22.7743C51.7583 22.8202 51.6666 22.9952 51.5916 22.8327V23.0661C51.4374 23.2327 51.3541 23.1994 51.2791 22.9577C50.0291 24.7619 50.8083 25.5202 50.8083 25.5202C51.1833 26.066 51.4624 25.4077 51.9833 25.2702L51.9749 25.2578Z" fill="#20BB65"/>
<path d="M73.9541 23.8785L73.9791 23.9785C73.9791 23.9327 73.9791 23.8952 73.9541 23.8785Z" fill="#20BB65"/>
<path d="M82.291 24.3913C82.291 24.3913 82.2952 24.3788 82.2994 24.3704C82.2952 24.3788 82.291 24.3829 82.291 24.3913Z" fill="#20BB65"/>
<path d="M75.02 27.2203C75.02 27.2203 75.0159 27.2328 75.0117 27.2453L75.0242 27.2203H75.02Z" fill="#20BB65"/>
<path d="M73.3578 26.8495C73.7912 26.9954 73.8787 27.4537 74.3453 27.2996C74.562 27.3496 74.7995 27.2621 75.0162 27.2204C75.1412 26.8746 75.2954 27.2329 75.4329 26.9454L75.4662 27.1495C75.512 27.0537 75.5662 26.9871 75.5995 27.0954L75.5912 27.1537C75.662 27.0079 75.7245 27.0996 75.762 27.0288L75.7537 27.0871L75.8287 27.0662L75.812 27.1495C75.9287 26.9953 76.0412 26.9912 76.1329 27.0745L76.1412 26.8328C76.3328 27.1162 76.4412 26.6204 76.6078 26.9537L76.5995 27.0121C76.8787 26.3913 76.9453 27.4704 77.2328 26.8829C77.1953 26.9579 77.237 27.0079 77.2328 27.0662C77.3495 27.0037 77.4745 26.9746 77.5078 26.5038C77.5912 26.5163 77.5662 26.6579 77.562 26.8412C77.5745 26.6329 77.6537 26.5537 77.7162 26.5412L77.6828 26.6203L77.8703 26.5621L77.862 26.1662C77.9537 26.2871 77.8537 26.6454 77.9537 26.5579L77.9745 26.2329C78.1037 26.3037 78.1495 26.8037 78.2662 27.0495C78.7995 27.2245 79.437 26.4328 79.9037 27.037V27.2829C79.8953 27.6412 80.0828 26.7662 80.0828 27.0954L80.1537 26.937C80.1662 27.0037 80.1953 27.0745 80.162 27.1495C80.2162 27.1662 80.2203 27.1079 80.2662 27.0037L80.3078 27.2288C80.512 27.4163 80.7203 26.9996 80.9412 27.0996C81.1828 27.5704 81.7203 27.187 82.0287 26.9662C82.4787 26.462 82.862 27.9121 83.3245 27.3288C83.3329 27.3788 83.3787 27.2704 83.3828 27.2288L83.7662 27.3037C83.7662 27.3037 85.6329 27.5621 84.412 24.5163L84.4287 24.4412C84.2287 24.237 84.0995 24.187 83.9245 24.5704C83.9328 24.0912 83.7537 24.5079 83.7162 24.3495L83.7245 24.3121C83.5703 24.6704 83.4787 23.9871 83.3328 24.3121C83.3412 24.2746 83.3537 24.1412 83.3828 24.137C83.287 24.1912 83.1578 24.2912 83.1703 24.012C82.9495 24.0703 82.6537 23.9204 82.4828 24.3579L82.4995 24.2829C82.3995 24.5787 82.3953 24.3204 82.2953 24.4662C82.2953 24.4287 82.287 24.4121 82.2912 24.3954C82.1828 24.6871 82.037 24.4245 81.9578 24.5453L81.9662 24.362L81.7912 24.3954L81.8537 24.4412C81.7953 24.9495 81.7454 24.112 81.5995 24.437C81.487 24.3662 81.2912 25.4787 81.187 25.2204C81.112 25.4537 81.2662 24.8371 81.1662 25.0162C81.1828 24.7496 81.2162 24.8537 81.212 24.637C81.1204 24.7578 81.0912 24.3579 80.9745 24.5288L80.9828 24.3204C80.8203 24.6913 80.7453 24.0329 80.6287 24.3871C80.4745 24.5496 80.5745 23.7662 80.4037 24.162L80.3662 23.8787C80.3078 23.8287 80.2995 24.2204 80.237 24.0787C80.2537 23.9037 80.1578 23.9329 80.212 23.7662C80.0745 23.4787 79.8662 24.1371 79.6912 23.6579C79.6245 23.9996 79.5328 23.787 79.4828 24.0412C79.487 23.8912 79.2745 24.0038 79.4162 23.6871C79.4287 23.6621 79.4454 23.6662 79.4412 23.7245L79.4704 23.5204C79.3787 23.1287 79.2412 23.7162 79.1287 23.6496C79.1579 23.7204 79.2078 23.7037 79.1662 23.8412L79.0578 23.8078L79.0912 23.637L78.937 23.5245L78.9454 23.737C78.8745 23.6245 78.8704 23.2621 78.762 23.5537C78.712 23.7204 78.8162 23.8454 78.7287 23.9038C78.6328 23.7538 78.487 23.5246 78.3578 23.4537C78.3578 23.6912 78.3203 23.6829 78.2787 23.7287L78.287 23.5204C78.1245 23.7995 78.2662 23.062 78.1078 23.2828L78.1287 23.1412L78.062 23.5704C77.9079 23.9704 78.0203 23.1371 77.8412 23.6871C77.8995 23.6538 77.8412 24.1454 77.7745 24.0495L77.8037 23.8495C77.762 23.8912 77.7454 23.9704 77.7204 23.9287C77.7495 23.8245 77.7537 23.6371 77.6912 23.6704L77.7454 23.4245L77.612 23.7871C77.5453 23.5663 77.3953 23.8287 77.3787 23.5454C77.3787 23.5454 77.212 23.3953 77.1495 23.7037C77.1995 23.5162 77.1037 23.4329 77.1495 23.212C77.087 23.4245 76.9412 23.5954 76.9037 23.3579L76.9162 23.3329C76.7287 23.0829 76.5495 23.6329 76.3912 23.3329C76.3829 23.5746 76.2953 23.437 76.2995 23.7454C76.0912 24.037 75.9995 23.0995 75.8704 24.0454C75.7829 24.0912 75.7829 23.8162 75.7454 23.7662L75.7704 23.7162C75.6079 23.7829 75.5578 23.7912 75.4412 23.7579C75.3745 23.8454 75.337 24.2871 75.2412 24.1746C75.287 23.9996 75.2412 24.0329 75.2037 24.0287C75.2287 24.0037 75.2412 23.937 75.1995 23.8162C75.187 23.8703 75.1745 23.9037 75.162 23.9287C75.162 23.9162 75.162 23.9038 75.162 23.8871C75.0912 23.9454 75.0995 23.9995 75.1287 24.0245C75.1287 24.0495 75.1287 24.087 75.1287 24.1329C75.0745 23.9037 74.937 24.1329 74.9495 23.8329C74.7453 23.8912 74.5829 24.1912 74.412 24.2954C74.4037 24.1371 74.4495 24.0037 74.5037 23.9495L74.3828 23.9996C74.3995 23.7746 74.4578 23.8745 74.4995 23.8329C74.3828 23.462 74.187 24.1745 74.0453 23.8329L73.9995 24.0079L73.9912 23.9787C73.987 24.0704 73.9412 24.1953 73.9162 24.2245C73.9037 24.0287 73.9454 23.7788 73.8662 23.7829C73.8162 23.5913 73.6787 23.8662 73.587 23.9621C73.6287 23.9996 73.6078 24.1037 73.587 24.1704C73.5453 24.1704 73.537 23.9787 73.4995 24.0621L73.512 23.7996C73.512 24.0496 73.387 24.0579 73.3662 24.1662C73.3537 23.9704 73.4412 24.0037 73.4578 23.8579C73.2953 23.8704 73.3745 23.8662 73.212 23.8787C73.112 24.0704 73.212 24.1287 73.1537 24.3537C73.0745 24.3995 72.987 24.5788 72.912 24.4163L72.9245 24.6495C72.7703 24.8203 72.687 24.787 72.6037 24.5453C71.412 26.3703 72.212 27.1204 72.212 27.1204C72.5995 27.6621 72.862 26.9995 73.3745 26.8495H73.3578Z" fill="#20BB65"/>
<path d="M95.332 25.4366L95.3571 25.5366C95.3571 25.4908 95.357 25.4533 95.332 25.4366Z" fill="#20BB65"/>
<path d="M103.674 26.2495C103.674 26.2495 103.678 26.237 103.682 26.2286C103.674 26.237 103.674 26.2412 103.674 26.2495Z" fill="#20BB65"/>
<path d="M96.3074 28.8199C96.3074 28.8199 96.2991 28.8325 96.2949 28.845L96.3074 28.8199Z" fill="#20BB65"/>
<path d="M94.6694 28.3867C95.0944 28.5492 95.1694 29.0117 95.6402 28.8742C95.8527 28.9326 96.0902 28.8534 96.3069 28.82C96.4402 28.4784 96.586 28.8451 96.7319 28.5617L96.7569 28.7659C96.8069 28.6701 96.861 28.6075 96.8944 28.72L96.886 28.7784C96.961 28.6326 97.0235 28.7326 97.061 28.6576L97.0527 28.7159L97.1277 28.6992L97.1069 28.7826C97.2277 28.6326 97.3402 28.6325 97.4277 28.7159L97.4444 28.4743C97.6236 28.7659 97.7486 28.2742 97.9027 28.6117L97.8944 28.6701C98.1944 28.0576 98.2236 29.1409 98.5277 28.5617C98.4902 28.6326 98.5277 28.6867 98.5194 28.7451C98.6402 28.6867 98.761 28.6659 98.811 28.1909C98.8902 28.2075 98.8611 28.345 98.8527 28.5284C98.8736 28.32 98.9527 28.2409 99.0194 28.2367L98.9819 28.3159L99.1735 28.2659V27.87C99.2652 27.9908 99.1527 28.3493 99.2569 28.2659L99.2902 27.9409C99.4194 28.0201 99.4444 28.5159 99.5527 28.7701C100.078 28.9617 100.744 28.195 101.186 28.8159V29.0617C101.153 29.4159 101.378 28.5493 101.361 28.8784L101.436 28.72C101.444 28.7867 101.474 28.8575 101.436 28.9325C101.49 28.9534 101.494 28.8951 101.549 28.7909L101.582 29.0158C101.774 29.2075 102.003 28.7992 102.219 28.9117C102.436 29.3908 102.99 29.0284 103.311 28.8159C103.782 28.3284 104.094 29.7867 104.586 29.2242C104.594 29.2742 104.644 29.1659 104.649 29.1242L105.028 29.2118C105.028 29.2118 106.878 29.5367 105.819 26.4534L105.84 26.3784C105.653 26.1701 105.524 26.1118 105.328 26.4868C105.361 26.0076 105.161 26.4201 105.128 26.2617L105.136 26.2242C104.961 26.5784 104.907 25.8909 104.74 26.2075C104.749 26.17 104.769 26.0409 104.799 26.0326C104.699 26.0826 104.565 26.1784 104.59 25.8992C104.365 25.9492 104.078 25.7909 103.886 26.22L103.903 26.1451C103.79 26.4367 103.794 26.1784 103.69 26.32C103.69 26.2825 103.686 26.2659 103.69 26.2492C103.569 26.5367 103.432 26.2701 103.349 26.3868L103.365 26.2033L103.19 26.2284L103.249 26.2743C103.169 26.7784 103.157 25.9451 102.994 26.2576C102.886 26.1826 102.64 27.2868 102.544 27.0284C102.461 27.2618 102.64 26.6493 102.532 26.8201C102.557 26.5534 102.59 26.6575 102.59 26.445C102.49 26.5617 102.482 26.1617 102.357 26.3284L102.374 26.12C102.194 26.4825 102.144 25.8243 102.015 26.1743C101.857 26.3284 101.99 25.5534 101.799 25.9409L101.774 25.6576C101.715 25.6076 101.69 25.9951 101.636 25.8534C101.661 25.6784 101.565 25.7034 101.624 25.5409C101.494 25.2492 101.261 25.8992 101.103 25.4117C101.019 25.7492 100.94 25.5367 100.878 25.7867C100.886 25.6367 100.669 25.7409 100.824 25.4284C100.836 25.4034 100.853 25.4118 100.844 25.4659L100.882 25.2658C100.803 24.87 100.644 25.4534 100.532 25.3825C100.561 25.4534 100.607 25.4408 100.561 25.5783L100.457 25.5409L100.499 25.3742L100.349 25.2576V25.47C100.282 25.3533 100.29 24.9909 100.169 25.2825C100.111 25.445 100.215 25.5742 100.124 25.6326C100.032 25.4784 99.8944 25.245 99.7652 25.1659C99.7527 25.4034 99.7194 25.3909 99.6736 25.4367L99.6902 25.2284C99.5152 25.4992 99.6861 24.77 99.5194 24.9825L99.5485 24.8409L99.4652 25.27C99.2944 25.6659 99.4402 24.8367 99.2402 25.3784C99.2985 25.3492 99.2194 25.8367 99.1611 25.7409L99.1986 25.5451C99.1569 25.5826 99.1361 25.6659 99.1111 25.6201C99.1444 25.5159 99.1527 25.3326 99.0944 25.3618L99.1569 25.1159L99.0111 25.47C98.9486 25.2492 98.7902 25.5034 98.7861 25.2201C98.7861 25.2201 98.6235 25.0658 98.5527 25.3658C98.6069 25.1783 98.5152 25.095 98.5652 24.8742C98.4985 25.0867 98.3444 25.2492 98.311 25.0117L98.3236 24.9867C98.1444 24.7325 97.9486 25.2742 97.7944 24.97C97.7777 25.2117 97.6986 25.07 97.6902 25.3784C97.4736 25.6617 97.411 24.7201 97.2527 25.6618C97.161 25.7034 97.1736 25.4284 97.1361 25.3784L97.161 25.3284C96.9944 25.3909 96.9485 25.3951 96.8319 25.3618C96.7652 25.4493 96.7152 25.8868 96.6194 25.7701C96.6694 25.5993 96.6235 25.6284 96.586 25.6242C96.6152 25.5992 96.6277 25.5367 96.586 25.4117C96.5735 25.4659 96.5611 25.4992 96.5444 25.5242C96.5444 25.5117 96.5444 25.4992 96.5444 25.4825C96.4736 25.5367 96.4777 25.5951 96.5069 25.6201C96.5069 25.6451 96.5027 25.6826 96.5069 25.7326C96.4611 25.4992 96.3152 25.7326 96.3361 25.4284C96.1319 25.4784 95.961 25.7743 95.786 25.8743C95.7819 25.7159 95.8319 25.5826 95.8861 25.5284L95.7652 25.5742C95.7861 25.3533 95.8444 25.4534 95.8861 25.4117C95.7777 25.0367 95.5652 25.7409 95.4319 25.395L95.3819 25.5659L95.3735 25.5367C95.3652 25.6284 95.3194 25.7534 95.2902 25.7784C95.286 25.5826 95.3319 25.3326 95.2486 25.3368C95.2027 25.1451 95.0569 25.4117 94.9652 25.5075C95.0069 25.545 94.9819 25.6492 94.9569 25.7159C94.9152 25.7159 94.911 25.5242 94.8694 25.6034L94.8902 25.3409C94.8861 25.5909 94.7611 25.595 94.7361 25.7034C94.7319 25.5075 94.8152 25.545 94.8361 25.3992C94.6736 25.4075 94.7527 25.3992 94.5902 25.4117C94.486 25.5992 94.5861 25.6617 94.5236 25.8867C94.4444 25.9283 94.3527 26.1034 94.2777 25.9367L94.286 26.1701C94.1277 26.3368 94.0444 26.2992 93.9694 26.0534C92.7444 27.8367 93.5236 28.6159 93.5236 28.6159C93.8986 29.17 94.1694 28.5158 94.6819 28.3867H94.6694Z" fill="#20BB65"/>
<path d="M116.678 28.1158L116.694 28.2158C116.703 28.17 116.699 28.1325 116.678 28.1158Z" fill="#20BB65"/>
<path d="M124.933 29.8783C124.933 29.8783 124.941 29.8658 124.945 29.8575C124.937 29.8616 124.933 29.87 124.933 29.8783Z" fill="#20BB65"/>
<path d="M117.333 31.5616C117.333 31.5616 117.324 31.5742 117.32 31.5825L117.333 31.5616Z" fill="#20BB65"/>
<path d="M115.749 30.9991C116.157 31.1908 116.187 31.6575 116.666 31.5575C116.87 31.6325 117.116 31.5742 117.332 31.5575C117.499 31.2283 117.603 31.6033 117.778 31.3366L117.787 31.5408C117.845 31.4491 117.907 31.3909 117.924 31.5075L117.912 31.5658C117.999 31.4283 118.049 31.5325 118.095 31.4617L118.082 31.52L118.162 31.5075L118.132 31.5867C118.266 31.4492 118.378 31.4617 118.457 31.5533L118.499 31.3158C118.649 31.62 118.82 31.145 118.941 31.4992L118.928 31.5575C119.287 30.9783 119.203 32.0575 119.566 31.5158C119.52 31.5825 119.553 31.6409 119.537 31.6992C119.662 31.6534 119.782 31.645 119.882 31.1784C119.962 31.2034 119.916 31.3366 119.887 31.52C119.928 31.3158 120.016 31.245 120.082 31.245L120.037 31.3158L120.228 31.2867L120.274 30.895C120.345 31.0241 120.199 31.37 120.308 31.295L120.374 30.9784C120.491 31.07 120.462 31.57 120.537 31.8283C121.028 32.0783 121.778 31.3992 122.133 32.07L122.099 32.3117C122.024 32.6617 122.353 31.8283 122.299 32.1533L122.395 32.0075C122.395 32.0742 122.412 32.1492 122.366 32.22C122.416 32.245 122.428 32.1908 122.491 32.095V32.3242C122.657 32.5409 122.937 32.1658 123.132 32.3033C123.282 32.8075 123.87 32.5241 124.212 32.3658C124.745 31.9491 124.837 33.4491 125.395 32.97C125.395 33.0241 125.458 32.92 125.47 32.8825L125.824 33.0325C125.824 33.0325 126.257 33.1909 126.628 32.9492C126.995 32.7034 127.316 32.0617 127.028 30.4409L127.057 30.37C126.903 30.1283 126.782 30.0491 126.532 30.3908C126.641 29.9241 126.374 30.295 126.37 30.1325L126.387 30.095C126.162 30.4158 126.207 29.7242 125.995 30.0117C126.012 29.9742 126.045 29.8491 126.078 29.8491C125.974 29.8825 125.824 29.9533 125.891 29.6825C125.657 29.695 125.391 29.4908 125.141 29.8867L125.17 29.8159C125.016 30.0867 125.057 29.8325 124.932 29.9575C124.937 29.92 124.933 29.8992 124.941 29.8867C124.783 30.1533 124.683 29.8658 124.583 29.9741L124.624 29.795H124.445L124.499 29.8491C124.353 30.3366 124.449 29.5075 124.245 29.795C124.145 29.7033 123.758 30.7658 123.699 30.495C123.587 30.7116 123.841 30.1325 123.712 30.2866C123.774 30.0283 123.791 30.1367 123.82 29.9242C123.707 30.0242 123.749 29.6241 123.603 29.7741L123.649 29.57C123.424 29.9075 123.462 29.245 123.287 29.57C123.107 29.7033 123.337 28.9492 123.099 29.3075L123.107 29.02C123.057 28.9616 122.982 29.345 122.945 29.195C122.991 29.0242 122.891 29.0367 122.97 28.8825C122.878 28.5784 122.566 29.1909 122.466 28.6867C122.345 29.0117 122.287 28.7866 122.195 29.0325C122.224 28.8866 121.995 28.9617 122.183 28.67C122.199 28.645 122.216 28.6533 122.199 28.7116L122.257 28.5158C122.224 28.1158 121.995 28.6742 121.895 28.5909C121.916 28.6659 121.966 28.6575 121.903 28.7867L121.803 28.7367L121.862 28.5742L121.724 28.4408L121.699 28.6533C121.645 28.5283 121.699 28.17 121.541 28.445C121.466 28.5992 121.553 28.7409 121.458 28.7867C121.383 28.6242 121.274 28.3741 121.153 28.2825C121.116 28.52 121.082 28.5033 121.032 28.5408L121.074 28.3367C120.87 28.5867 121.12 27.8783 120.928 28.0741L120.97 27.9367L120.841 28.3534C120.628 28.7284 120.862 27.9158 120.603 28.4367C120.666 28.4158 120.532 28.8909 120.482 28.7867L120.541 28.595C120.495 28.6283 120.462 28.7075 120.445 28.6617C120.491 28.5617 120.516 28.3783 120.453 28.3991L120.545 28.1617L120.362 28.4991C120.324 28.27 120.137 28.5075 120.162 28.2242C120.162 28.2242 120.012 28.0533 119.912 28.345C119.987 28.1658 119.903 28.0742 119.978 27.8575C119.887 28.0617 119.716 28.2075 119.712 27.97L119.728 27.945C119.574 27.6742 119.32 28.1908 119.199 27.8741C119.162 28.1116 119.091 27.9659 119.053 28.27C118.807 28.5325 118.837 27.5908 118.587 28.5075C118.491 28.5408 118.528 28.27 118.495 28.2116L118.524 28.1659C118.349 28.2117 118.303 28.2117 118.191 28.1659C118.116 28.245 118.02 28.6783 117.937 28.5533C118.003 28.3867 117.953 28.4116 117.916 28.4033C117.945 28.3825 117.966 28.32 117.937 28.195C117.92 28.245 117.903 28.2783 117.887 28.3033C117.887 28.2908 117.887 28.2784 117.895 28.2617C117.816 28.3117 117.82 28.3658 117.845 28.395C117.837 28.42 117.837 28.4533 117.837 28.5033C117.812 28.2658 117.645 28.4825 117.691 28.1825C117.482 28.2116 117.282 28.495 117.099 28.5784C117.107 28.4242 117.174 28.295 117.233 28.245L117.107 28.2784C117.149 28.0575 117.199 28.1658 117.241 28.1283C117.166 27.7492 116.891 28.4283 116.787 28.0741L116.72 28.2408V28.2116C116.699 28.3033 116.641 28.42 116.612 28.4492C116.624 28.2533 116.695 28.0075 116.612 28.0033C116.583 27.8075 116.416 28.0617 116.312 28.1534C116.349 28.195 116.316 28.2992 116.287 28.3617C116.245 28.3617 116.257 28.1658 116.212 28.2408L116.253 27.9825C116.224 28.2283 116.103 28.2283 116.066 28.3283C116.078 28.1325 116.158 28.1742 116.195 28.0325C116.028 28.0283 116.112 28.0325 115.945 28.0242C115.824 28.2033 115.916 28.27 115.837 28.4908C115.753 28.5283 115.645 28.695 115.587 28.5241L115.574 28.7575C115.399 28.9117 115.32 28.87 115.266 28.62C114.574 29.4658 114.416 30.095 114.42 30.5117C114.428 30.9283 114.603 31.1367 114.603 31.1367C114.924 31.7158 115.253 31.0825 115.774 30.9908L115.749 30.9991Z" fill="#20BB65"/>
<path d="M137.425 34.4326L137.412 34.5326C137.433 34.4909 137.441 34.4535 137.425 34.4326Z" fill="#20BB65"/>
<path d="M144.629 39.2287C144.629 39.2287 144.641 39.2245 144.65 39.2203C144.641 39.2203 144.633 39.2245 144.629 39.2287Z" fill="#20BB65"/>
<path d="M137.025 37.9117C137.025 37.9117 137.012 37.9201 137.004 37.9284L137.025 37.9117Z" fill="#20BB65"/>
<path d="M135.725 36.941C136.054 37.2326 135.941 37.691 136.412 37.7244C136.579 37.8494 136.82 37.866 137.025 37.916C137.279 37.6535 137.262 38.0369 137.504 37.8369L137.445 38.0327C137.529 37.966 137.604 37.9285 137.583 38.041L137.554 38.091C137.679 37.9868 137.691 38.0994 137.754 38.0494L137.725 38.0993L137.8 38.1118L137.75 38.1785C137.916 38.091 138.016 38.1327 138.058 38.241L138.175 38.0285C138.208 38.3619 138.525 37.9702 138.516 38.3369L138.483 38.3868C139.012 37.9618 138.562 38.9369 139.075 38.5535C139.008 38.6035 139.02 38.666 138.987 38.7118C139.112 38.7118 139.229 38.741 139.487 38.3452C139.55 38.3952 139.462 38.5035 139.37 38.666C139.483 38.491 139.587 38.4536 139.645 38.4786L139.579 38.5285L139.766 38.566L139.954 38.2202C139.97 38.366 139.712 38.6326 139.837 38.6035L140.016 38.3327C140.091 38.4618 139.879 38.9119 139.845 39.1827C140.187 39.5785 141.129 39.2368 141.166 39.9868L141.033 40.1952C140.82 40.4827 141.458 39.8535 141.275 40.1285L141.42 40.0327C141.395 40.091 141.379 40.166 141.308 40.2119C141.341 40.2535 141.379 40.2119 141.475 40.1452L141.379 40.3536C141.425 40.6161 141.829 40.3868 141.941 40.591C141.841 41.1035 142.475 41.0868 142.841 41.0993C143.504 40.9743 142.841 42.316 143.541 42.1535C143.512 42.1993 143.616 42.141 143.645 42.1119L143.858 42.4077C143.858 42.4077 143.929 42.491 144.05 42.5743C144.17 42.6577 144.341 42.741 144.562 42.7285C144.987 42.6994 145.633 42.3618 146.233 40.816L146.295 40.7702C146.287 40.4744 146.212 40.341 145.82 40.4993C146.15 40.1493 145.729 40.3327 145.804 40.1868L145.837 40.1618C145.479 40.3201 145.858 39.741 145.529 39.8827C145.558 39.8577 145.654 39.766 145.683 39.7827C145.57 39.7577 145.4 39.741 145.591 39.5368C145.375 39.4243 145.229 39.1035 144.812 39.3368L144.87 39.2869C144.604 39.4535 144.758 39.2452 144.587 39.2952C144.608 39.266 144.616 39.2451 144.629 39.2368C144.362 39.3951 144.404 39.091 144.262 39.1368L144.383 38.9952L144.216 38.9076L144.241 38.9827C143.887 39.3535 144.35 38.6535 144.033 38.816C143.979 38.6868 143.158 39.466 143.229 39.1952C143.033 39.341 143.516 38.9326 143.333 39.016C143.5 38.8076 143.47 38.916 143.591 38.7368C143.445 38.7785 143.654 38.4368 143.454 38.5076L143.583 38.3452C143.233 38.5494 143.545 37.9618 143.245 38.1868C143.025 38.2285 143.55 37.641 143.179 37.866L143.304 37.6077C143.279 37.5327 143.054 37.8493 143.079 37.6993C143.191 37.5618 143.091 37.5327 143.229 37.4244C143.262 37.1035 142.725 37.5327 142.825 37.0244C142.583 37.2744 142.612 37.0452 142.433 37.2327C142.516 37.1077 142.266 37.0827 142.558 36.8952C142.583 36.8785 142.595 36.8951 142.558 36.941L142.691 36.7827C142.812 36.3952 142.379 36.8202 142.316 36.6994C142.308 36.7744 142.358 36.791 142.25 36.8869L142.17 36.7994L142.287 36.6744L142.204 36.491L142.1 36.6785C142.095 36.541 142.275 36.2285 142.025 36.4201C141.895 36.5326 141.929 36.6994 141.816 36.7036C141.808 36.5202 141.791 36.2493 141.704 36.1118C141.583 36.3201 141.554 36.291 141.495 36.3076L141.608 36.1327C141.32 36.2868 141.812 35.7202 141.562 35.8285L141.654 35.716L141.383 36.0577C141.045 36.3285 141.558 35.6577 141.125 36.0452C141.195 36.0452 140.9 36.4452 140.887 36.3285L141.012 36.1702C140.954 36.1827 140.9 36.2493 140.9 36.1993C140.979 36.1201 141.066 35.9619 141 35.9577L141.17 35.7702L140.879 36.0202C140.92 35.791 140.662 35.9451 140.783 35.6868C140.783 35.6868 140.695 35.4702 140.5 35.7118C140.633 35.566 140.583 35.4535 140.725 35.2743C140.57 35.4326 140.354 35.5118 140.425 35.2827L140.445 35.266C140.383 34.9535 139.97 35.3535 139.95 35.0119C139.837 35.2244 139.816 35.0619 139.683 35.341C139.362 35.5077 139.683 34.6202 139.154 35.4118C139.054 35.4118 139.175 35.166 139.154 35.0993L139.195 35.066C139.012 35.0493 138.966 35.0368 138.87 34.9576C138.77 35.0076 138.55 35.3911 138.508 35.2452C138.625 35.1077 138.57 35.116 138.533 35.0952C138.57 35.0827 138.608 35.0327 138.616 34.9035C138.583 34.9494 138.558 34.9702 138.533 34.991C138.541 34.9785 138.541 34.9701 138.554 34.9535C138.462 34.9743 138.45 35.0285 138.466 35.066C138.454 35.091 138.437 35.1201 138.425 35.166C138.47 34.9326 138.245 35.0869 138.379 34.816C138.166 34.7785 137.891 34.9869 137.687 35.016C137.741 34.8702 137.841 34.7661 137.912 34.7369H137.779C137.883 34.5327 137.9 34.6494 137.954 34.6286C137.991 34.2411 137.525 34.8118 137.525 34.441L137.412 34.5827V34.5535C137.375 34.6368 137.283 34.7326 137.25 34.7493C137.316 34.566 137.454 34.3493 137.375 34.3243C137.4 34.1285 137.162 34.3244 137.041 34.3827C137.07 34.4327 137.008 34.5243 136.958 34.5743C136.916 34.5618 136.983 34.3785 136.916 34.4368L137.029 34.1994C136.933 34.4285 136.812 34.391 136.754 34.4827C136.816 34.2994 136.887 34.3618 136.958 34.2326C136.795 34.1826 136.879 34.2077 136.716 34.1535C136.55 34.291 136.625 34.3827 136.483 34.5743C136.391 34.5868 136.245 34.716 136.233 34.5368L136.158 34.7576C135.95 34.8576 135.883 34.7993 135.895 34.5451C135.004 35.1785 134.695 35.7494 134.591 36.1535C134.491 36.5577 134.6 36.8035 134.6 36.8035C134.745 37.441 135.22 36.9118 135.733 36.9618L135.725 36.941Z" fill="#20BB65"/>
<path d="M151.037 50.1949L150.945 50.2325C150.987 50.2241 151.025 50.2116 151.037 50.1949Z" fill="#20BB65"/>
<path d="M148.062 50.6453C147.987 50.862 147.558 51.0037 147.775 51.1578C147.758 51.2578 147.879 51.3369 147.95 51.4203C148.304 51.4036 147.975 51.5411 148.275 51.5411L148.083 51.5953C148.187 51.5953 148.258 51.6078 148.154 51.6411L148.095 51.6495C148.25 51.6495 148.166 51.6953 148.241 51.6995L148.183 51.7079L148.212 51.7369L148.129 51.7453C148.295 51.7661 148.312 51.8161 148.245 51.8703L148.483 51.8286C148.229 51.9619 148.733 51.9203 148.425 52.0494L148.366 52.0578C149.012 52.0786 147.958 52.2828 148.575 52.312C148.5 52.3078 148.454 52.3329 148.395 52.3412C148.47 52.3829 148.512 52.4328 148.983 52.3745C148.983 52.412 148.837 52.4244 148.658 52.4494C148.866 52.4244 148.954 52.4495 148.97 52.4745H148.887L148.966 52.5454L149.354 52.4828C149.245 52.5411 148.879 52.5495 148.979 52.5786L149.304 52.5412C149.245 52.612 148.762 52.6995 148.529 52.7828C148.416 53.0328 149.266 53.2369 148.708 53.5078L148.466 53.5328C148.108 53.5578 149 53.562 148.67 53.5912L148.833 53.6078C148.77 53.6203 148.704 53.637 148.62 53.6286C148.608 53.6536 148.666 53.6495 148.775 53.662L148.554 53.6994C148.387 53.8036 148.82 53.8662 148.737 53.9745C148.291 54.1162 148.712 54.3286 148.958 54.4578C149.495 54.6453 148.075 54.8744 148.683 55.0619C148.633 55.0661 148.745 55.0828 148.787 55.087L148.733 55.2619C148.733 55.2619 148.695 55.4745 149.025 55.6203C149.358 55.7578 150.062 55.8578 151.55 55.537L151.629 55.5453C151.82 55.4412 151.866 55.3703 151.475 55.2911C151.954 55.287 151.525 55.2036 151.679 55.1786H151.716C151.345 55.112 152.025 55.0453 151.695 54.9786C151.733 54.9786 151.866 54.9828 151.875 54.9995C151.816 54.9536 151.708 54.887 151.987 54.8828C151.912 54.7703 152.041 54.6119 151.595 54.5453H151.675C151.375 54.5119 151.629 54.4953 151.475 54.4536C151.512 54.4536 151.529 54.4453 151.545 54.4453C151.245 54.4078 151.495 54.3162 151.366 54.2828L151.554 54.2745L151.508 54.187L151.47 54.2203C150.958 54.2203 151.787 54.1453 151.458 54.0912C151.52 54.0287 150.391 54.012 150.641 53.9411C150.4 53.9203 151.029 53.9494 150.845 53.9161C151.112 53.9036 151.012 53.9286 151.225 53.9078C151.095 53.8703 151.491 53.8245 151.312 53.7787L151.52 53.7662C151.141 53.7162 151.787 53.6204 151.425 53.5912C151.25 53.5287 152.037 53.5078 151.625 53.4537L151.904 53.4078C151.945 53.3703 151.558 53.4078 151.691 53.362C151.866 53.3537 151.829 53.3078 152 53.3161C152.27 53.2161 151.6 53.1787 152.054 53.0328C151.708 53.0328 151.908 52.9662 151.65 52.9662C151.8 52.9495 151.666 52.8536 151.995 52.8911C152.02 52.8911 152.016 52.9036 151.958 52.9078L152.162 52.8995C152.541 52.8036 151.941 52.8037 151.995 52.737C151.929 52.762 151.95 52.7828 151.808 52.7786L151.829 52.7203H152L152.091 52.6245L151.879 52.6578C151.983 52.6078 152.341 52.5579 152.037 52.537C151.866 52.5329 151.758 52.6036 151.687 52.5661C151.825 52.4994 152.037 52.3912 152.091 52.312C151.854 52.3453 151.862 52.3245 151.812 52.312L152.016 52.287C151.72 52.2411 152.466 52.2078 152.229 52.1578L152.375 52.1494L151.941 52.1786C151.525 52.1578 152.366 52.0911 151.8 52.0828C151.837 52.1078 151.345 52.1495 151.433 52.1037L151.633 52.0912C151.587 52.0745 151.504 52.0786 151.545 52.062C151.654 52.062 151.837 52.0328 151.8 52.0078L152.05 51.9995L151.679 51.987C151.887 51.9162 151.612 51.8828 151.887 51.8286C151.887 51.8286 152.012 51.7161 151.704 51.7369C151.895 51.7286 151.962 51.6703 152.187 51.6536C151.966 51.6578 151.783 51.612 152.008 51.5495H152.033C152.254 51.412 151.687 51.4162 151.954 51.2787C151.716 51.3203 151.837 51.2494 151.537 51.3078C151.22 51.2619 152.129 51.0328 151.183 51.1495C151.125 51.1162 151.395 51.062 151.437 51.0328H151.487C151.395 50.9661 151.383 50.9454 151.395 50.8787C151.3 50.8662 150.862 50.937 150.958 50.8662C151.133 50.8537 151.1 50.837 151.095 50.8161C151.125 50.8245 151.187 50.8162 151.3 50.7704C151.245 50.7745 151.212 50.7745 151.183 50.7745C151.195 50.7745 151.208 50.7704 151.225 50.7662C151.158 50.7454 151.104 50.7579 151.083 50.7787C151.058 50.7787 151.025 50.7911 150.975 50.8036C151.191 50.7286 150.941 50.712 151.237 50.6495C151.15 50.562 150.829 50.5495 150.7 50.4911C150.85 50.4495 150.987 50.4454 151.054 50.4579L150.987 50.4078C151.208 50.3661 151.12 50.4162 151.166 50.4245C151.508 50.2828 150.783 50.3495 151.091 50.1995L150.916 50.2203L150.945 50.2078C150.854 50.2286 150.725 50.237 150.695 50.2287C150.883 50.1787 151.133 50.137 151.112 50.0953C151.287 50.0245 151 50.0203 150.887 50.0037C150.862 50.0328 150.754 50.0494 150.683 50.0536C150.67 50.0369 150.858 49.9828 150.775 49.9828L151.029 49.9245C150.787 49.987 150.758 49.9287 150.65 49.9454C150.837 49.8912 150.82 49.9412 150.966 49.912C150.925 49.837 150.945 49.8745 150.904 49.7995C150.7 49.7995 150.662 49.862 150.433 49.8953C150.375 49.8703 150.187 49.8745 150.333 49.7953L150.108 49.8619C149.916 49.8328 149.933 49.787 150.15 49.6828C149.166 49.6578 148.533 49.8037 148.145 49.9412C147.758 50.0787 147.612 50.212 147.612 50.212C147.158 50.512 147.837 50.437 148.062 50.6161V50.6453Z" fill="#20BB65"/>
</svg>
